<?xml version="1.0" standalone="no"?><!DOCTYPE svg PUBLIC "-//W3C//DTD SVG 1.1//EN" "http://www.w3.org/Graphics/SVG/1.1/DTD/svg11.dtd" ><svg version="1.1" xmlns="http://www.w3.org/2000/svg"><defs><font horiz-adv-x="0" id="font"><font-face ascent="766" bbox="-46 -201 846 944" cap-height="630" descent="-234" font-family="Copyright Klim Type Foundry" font-stretch="extra-condensed" font-style="normal" font-weight="700" units-per-em="1000" x-height="446" /><missing-glyph horiz-adv-x="608" /><glyph glyph-name=".null" horiz-adv-x="0" /><glyph d="M311 630 447 0H301L280 112H156L134 0H0L136 630ZM177 223H260L222 431H218Z" glyph-name="A" horiz-adv-x="447" unicode="A" /><glyph d="M272 0V122H173L141 0H0L177 630H576V509H416V380H531V260H416V121H576V0ZM268 484 202 233H272V484Z" glyph-name="AE" horiz-adv-x="592" unicode="&#198;" /><glyph d="M272 0V122H173L141 0H0L177 630H576V509H416V380H531V260H416V121H576V0ZM268 484 202 233H272V484ZM297 661 347 804H488L396 661Z" glyph-name="AEacute" horiz-adv-x="592" unicode="&#508;" /><glyph d="M311 630 447 0H301L280 112H156L134 0H0L136 630ZM177 223H260L222 431H218ZM172 661 222 804H363L271 661Z" glyph-name="Aacute" horiz-adv-x="447" unicode="&#193;" /><glyph d="M311 630 447 0H301L280 112H156L134 0H0L136 630ZM177 223H260L222 431H218ZM223 652Q192 652 169.5 662.5Q147 673 132 691.5Q117 710 110 735.5Q103 761 103 790H190Q190 764 199 753Q208 742 223 742Q238 742 247 753Q256 764 256 790H343Q343 761 336 735.5Q329 710 314 691.5Q299 673 276.5 662.5Q254 652 223 652Z" glyph-name="Abreve" horiz-adv-x="447" unicode="&#258;" /><glyph d="M311 630 447 0H301L280 112H156L134 0H0L136 630ZM177 223H260L222 431H218ZM287 794 348 656H259L223 716L187 656H98L159 794Z" glyph-name="Acircumflex" horiz-adv-x="447" unicode="&#194;" /><glyph d="M311 630 447 0H301L280 112H156L134 0H0L136 630ZM177 223H260L222 431H218ZM100 789H211V660H100ZM235 789H346V660H235Z" glyph-name="Adieresis" horiz-adv-x="447" unicode="&#196;" /><glyph d="M311 630 447 0H301L280 112H156L134 0H0L136 630ZM177 223H260L222 431H218ZM182 661 89 804H231L280 661Z" glyph-name="Agrave" horiz-adv-x="447" unicode="&#192;" /><glyph d="M311 630 447 0H301L280 112H156L134 0H0L136 630ZM177 223H260L222 431H218ZM119 762H327V666H119Z" glyph-name="Amacron" horiz-adv-x="447" unicode="&#256;" /><glyph d="M311 630 447 0H379Q356 -23 349.5 -35.5Q343 -48 343 -62Q343 -83 365 -83Q377 -83 394 -75V-150Q383 -158 368.5 -162.5Q354 -167 333 -167Q302 -167 279 -149.5Q256 -132 256 -93Q256 -65 268.5 -42.5Q281 -20 301 0L280 112H156L134 0H0L136 630ZM177 223H260L222 431H218Z" glyph-name="Aogonek" horiz-adv-x="447" unicode="&#260;" /><glyph d="M311 630 447 0H301L280 112H156L134 0H0L136 630ZM177 223H260L222 431H218ZM187 738Q187 721 196 711Q205 701 223 701Q242 701 251 711Q260 721 260 738Q260 754 251 764Q242 774 223 774Q205 774 196 764Q187 754 187 738ZM128 738Q128 777 154 803Q180 829 223 829Q267 829 293 803Q319 777 319 738Q319 698 293 672Q267 646 223 646Q180 646 154 672Q128 698 128 738Z" glyph-name="Aring" horiz-adv-x="447" unicode="&#197;" /><glyph d="M206 944H365L281 829H165ZM221 698Q256 698 256 729Q256 760 221 760Q187 760 187 729Q187 698 221 698ZM127 729Q127 765 152.5 789Q178 813 221 813Q265 813 291 789Q317 765 317 729Q317 693 291 669Q265 645 221 645Q178 645 152.5 669Q127 693 127 729ZM311 630 447 0H301L280 112H156L134 0H0L136 630ZM177 223H260L222 431H218Z" glyph-name="Aringacute" horiz-adv-x="447" unicode="&#506;" /><glyph d="M311 630 447 0H301L280 112H156L134 0H0L136 630ZM177 223H260L222 431H218ZM90 659Q90 720 105.5 758.5Q121 797 162 797Q178 797 191.5 791Q205 785 218 778.5Q231 772 242.5 766Q254 760 265 760Q284 760 287 794H357Q357 732 341 694Q325 656 285 656Q269 656 255.5 662Q242 668 229 674.5Q216 681 204.5 687Q193 693 182 693Q163 693 160 659Z" glyph-name="Atilde" horiz-adv-x="447" unicode="&#195;" /><glyph d="M408 174Q408 91 362.5 45.5Q317 0 218 0H22V630H217Q265 630 299 618Q333 606 354.5 584Q376 562 386 531Q396 500 396 463Q396 404 365.5 367.5Q335 331 288 323Q345 312 376.5 274.5Q408 237 408 174ZM165 263V118H202Q240 118 253.5 136.5Q267 155 267 190Q267 223 253.5 243Q240 263 202 263ZM165 374H198Q236 374 248 393.5Q260 413 260 442Q260 472 248 492.5Q236 513 198 513H165Z" glyph-name="B" horiz-adv-x="419" unicode="B" /><glyph d="M12 357Q12 494 62 566Q112 638 216 638Q301 638 342 583.5Q383 529 389 432L262 408Q260 431 258 451Q256 471 251 486Q246 501 237 510Q228 519 213 519Q186 519 174.5 494Q163 469 163 427V203Q163 161 174.5 136Q186 111 213 111Q228 111 237 120Q246 129 251 144Q256 159 258 179Q260 199 262 222L389 198Q383 101 342 46.5Q301 -8 216 -8Q112 -8 62 64Q12 136 12 273Z" glyph-name="C" horiz-adv-x="418" unicode="C" /><glyph d="M12 357Q12 494 62 566Q112 638 216 638Q301 638 342 583.5Q383 529 389 432L262 408Q260 431 258 451Q256 471 251 486Q246 501 237 510Q228 519 213 519Q186 519 174.5 494Q163 469 163 427V203Q163 161 174.5 136Q186 111 213 111Q228 111 237 120Q246 129 251 144Q256 159 258 179Q260 199 262 222L389 198Q383 101 342 46.5Q301 -8 216 -8Q112 -8 62 64Q12 136 12 273ZM168 661 218 804H359L267 661Z" glyph-name="Cacute" horiz-adv-x="418" unicode="&#262;" /><glyph d="M12 357Q12 494 62 566Q112 638 216 638Q301 638 342 583.5Q383 529 389 432L262 408Q260 431 258 451Q256 471 251 486Q246 501 237 510Q228 519 213 519Q186 519 174.5 494Q163 469 163 427V203Q163 161 174.5 136Q186 111 213 111Q228 111 237 120Q246 129 251 144Q256 159 258 179Q260 199 262 222L389 198Q383 101 342 46.5Q301 -8 216 -8Q112 -8 62 64Q12 136 12 273ZM155 659 94 797H183L219 737L255 797H344L283 659Z" glyph-name="Ccaron" horiz-adv-x="418" unicode="&#268;" /><glyph d="M315 -97Q315 -139 288 -157Q261 -175 223 -175Q196 -175 171 -166.5Q146 -158 131 -144L148 -88Q161 -99 178.5 -107Q196 -115 213 -115Q237 -115 237 -97Q237 -83 218.5 -77.5Q200 -72 168 -72L198 -7Q103 -1 57.5 70.5Q12 142 12 273V357Q12 494 62 566Q112 638 216 638Q301 638 342 583.5Q383 529 389 432L262 408Q260 431 258 451Q256 471 251 486Q246 501 237 510Q228 519 213 519Q186 519 174.5 494Q163 469 163 427V203Q163 161 174.5 136Q186 111 213 111Q228 111 237 120Q246 129 251 144Q256 159 258 179Q260 199 262 222L389 198Q383 110 349 57Q315 4 246 -6L237 -25Q268 -27 291.5 -43.5Q315 -60 315 -97Z" glyph-name="Ccedilla" horiz-adv-x="418" unicode="&#199;" /><glyph d="M12 357Q12 494 62 566Q112 638 216 638Q301 638 342 583.5Q383 529 389 432L262 408Q260 431 258 451Q256 471 251 486Q246 501 237 510Q228 519 213 519Q186 519 174.5 494Q163 469 163 427V203Q163 161 174.5 136Q186 111 213 111Q228 111 237 120Q246 129 251 144Q256 159 258 179Q260 199 262 222L389 198Q383 101 342 46.5Q301 -8 216 -8Q112 -8 62 64Q12 136 12 273ZM283 794 344 656H255L219 716L183 656H94L155 794Z" glyph-name="Ccircumflex" horiz-adv-x="418" unicode="&#264;" /><glyph d="M12 357Q12 494 62 566Q112 638 216 638Q301 638 342 583.5Q383 529 389 432L262 408Q260 431 258 451Q256 471 251 486Q246 501 237 510Q228 519 213 519Q186 519 174.5 494Q163 469 163 427V203Q163 161 174.5 136Q186 111 213 111Q228 111 237 120Q246 129 251 144Q256 159 258 179Q260 199 262 222L389 198Q383 101 342 46.5Q301 -8 216 -8Q112 -8 62 64Q12 136 12 273ZM150 808H289V668H150Z" glyph-name="Cdotaccent" horiz-adv-x="418" unicode="&#266;" /><glyph d="M269 416Q269 463 252 488.5Q235 514 196 514H169V116H196Q235 116 252 141.5Q269 167 269 214ZM419 265Q419 138 369.5 69Q320 0 214 0H22V630H214Q320 630 369.5 561Q419 492 419 365Z" glyph-name="D" horiz-adv-x="431" unicode="D" /><glyph d="M269 416Q269 463 252 488.5Q235 514 196 514H169V116H196Q235 116 252 141.5Q269 167 269 214ZM419 265Q419 138 369.5 69Q320 0 214 0H22V630H214Q320 630 369.5 561Q419 492 419 365ZM146 659 85 797H174L210 737L246 797H335L274 659Z" glyph-name="Dcaron" horiz-adv-x="431" unicode="&#270;" /><glyph d="M4 380H32V630H224Q330 630 379.5 561Q429 492 429 365V265Q429 138 379.5 69Q330 0 224 0H32V260H4ZM279 416Q279 463 262 488.5Q245 514 206 514H179V380H218V260H179V116H206Q245 116 262 141.5Q279 167 279 214Z" glyph-name="Dcroat" horiz-adv-x="441" unicode="&#272;" /><glyph d="M341 0H22V630H341V509H166V380H296V260H166V121H341Z" glyph-name="E" horiz-adv-x="357" unicode="E" /><glyph d="M341 0H22V630H341V509H166V380H296V260H166V121H341ZM130 661 180 804H321L229 661Z" glyph-name="Eacute" horiz-adv-x="357" unicode="&#201;" /><glyph d="M341 0H22V630H341V509H166V380H296V260H166V121H341ZM182 652Q151 652 128.5 662.5Q106 673 91 691.5Q76 710 69 735.5Q62 761 62 790H149Q149 764 158 753Q167 742 182 742Q197 742 206 753Q215 764 215 790H302Q302 761 295 735.5Q288 710 273 691.5Q258 673 235.5 662.5Q213 652 182 652Z" glyph-name="Ebreve" horiz-adv-x="357" unicode="&#276;" /><glyph d="M341 0H22V630H341V509H166V380H296V260H166V121H341ZM118 659 57 797H146L182 737L218 797H307L246 659Z" glyph-name="Ecaron" horiz-adv-x="357" unicode="&#282;" /><glyph d="M341 0H22V630H341V509H166V380H296V260H166V121H341ZM246 794 307 656H218L182 716L146 656H57L118 794Z" glyph-name="Ecircumflex" horiz-adv-x="357" unicode="&#202;" /><glyph d="M341 0H22V630H341V509H166V380H296V260H166V121H341ZM59 789H170V660H59ZM194 789H305V660H194Z" glyph-name="Edieresis" horiz-adv-x="357" unicode="&#203;" /><glyph d="M341 0H22V630H341V509H166V380H296V260H166V121H341ZM113 808H252V668H113Z" glyph-name="Edotaccent" horiz-adv-x="357" unicode="&#278;" /><glyph d="M341 0H22V630H341V509H166V380H296V260H166V121H341ZM140 661 47 804H189L238 661Z" glyph-name="Egrave" horiz-adv-x="357" unicode="&#200;" /><glyph d="M341 0H22V630H341V509H166V380H296V260H166V121H341ZM78 762H286V666H78Z" glyph-name="Emacron" horiz-adv-x="357" unicode="&#274;" /><glyph d="M162 325H158V0H22V630H156L278 340H282V630H418V32Q418 -66 374.5 -115Q331 -164 258 -164Q219 -164 185 -148Q151 -132 132 -106L188 -16Q198 -29 212.5 -37.5Q227 -46 242 -46Q291 -46 291 31V38Z" glyph-name="Eng" horiz-adv-x="440" unicode="&#330;" /><glyph d="M341 0H300Q277 -23 270.5 -35.5Q264 -48 264 -62Q264 -83 286 -83Q298 -83 315 -75V-150Q304 -158 289.5 -162.5Q275 -167 254 -167Q223 -167 200 -149.5Q177 -132 177 -93Q177 -65 189 -42.5Q201 -20 221 0H22V630H341V509H166V380H296V260H166V121H341Z" glyph-name="Eogonek" horiz-adv-x="357" unicode="&#280;" /><glyph d="M4 380H32V630H224Q330 630 379.5 561Q429 492 429 365V265Q429 138 379.5 69Q330 0 224 0H32V260H4ZM279 416Q279 463 262 488.5Q245 514 206 514H179V380H218V260H179V116H206Q245 116 262 141.5Q279 167 279 214Z" glyph-name="Eth" horiz-adv-x="441" unicode="&#208;" /><glyph d="M10 411H44Q53 522 102.5 580Q152 638 246 638Q331 638 372 583.5Q413 529 419 432L292 408Q290 431 288 451Q286 471 281 486Q276 501 267 510Q258 519 243 519Q216 519 204.5 494Q193 469 193 427V411H268L258 331H193V293H252L242 213H193V203Q193 161 204.5 136Q216 111 243 111Q258 111 267 120Q276 129 281 144Q286 159 288 179Q290 199 292 222L419 198Q413 101 372 46.5Q331 -8 246 -8Q154 -8 104.5 48Q55 104 44 213H10V293H42V331H10Z" glyph-name="Euro" horiz-adv-x="453" unicode="&#8364;" /><glyph d="M22 0V630H329V509H169V363H286V244H169V0Z" glyph-name="F" horiz-adv-x="341" unicode="F" /><glyph d="M163 427V214Q163 172 174 143Q185 114 217 114Q249 114 260 139Q271 164 271 206V225H225V335H410V0H312L301 56Q288 25 257.5 8.5Q227 -8 185 -8Q100 -8 56 63.5Q12 135 12 272V359Q12 496 64 567Q116 638 220 638Q305 638 351 584Q397 530 403 433L276 409Q274 432 270.5 452Q267 472 260.5 487Q254 502 243 511Q232 520 217 520Q190 520 176.5 495Q163 470 163 427Z" glyph-name="G" horiz-adv-x="430" unicode="G" /><glyph d="M163 427V214Q163 172 174 143Q185 114 217 114Q249 114 260 139Q271 164 271 206V225H225V335H410V0H312L301 56Q288 25 257.5 8.5Q227 -8 185 -8Q100 -8 56 63.5Q12 135 12 272V359Q12 496 64 567Q116 638 220 638Q305 638 351 584Q397 530 403 433L276 409Q274 432 270.5 452Q267 472 260.5 487Q254 502 243 511Q232 520 217 520Q190 520 176.5 495Q163 470 163 427ZM217 652Q186 652 163.5 662.5Q141 673 126 691.5Q111 710 104 735.5Q97 761 97 790H184Q184 764 193 753Q202 742 217 742Q232 742 241 753Q250 764 250 790H337Q337 761 330 735.5Q323 710 308 691.5Q293 673 270.5 662.5Q248 652 217 652Z" glyph-name="Gbreve" horiz-adv-x="430" unicode="&#286;" /><glyph d="M163 427V214Q163 172 174 143Q185 114 217 114Q249 114 260 139Q271 164 271 206V225H225V335H410V0H312L301 56Q288 25 257.5 8.5Q227 -8 185 -8Q100 -8 56 63.5Q12 135 12 272V359Q12 496 64 567Q116 638 220 638Q305 638 351 584Q397 530 403 433L276 409Q274 432 270.5 452Q267 472 260.5 487Q254 502 243 511Q232 520 217 520Q190 520 176.5 495Q163 470 163 427ZM281 794 342 656H253L217 716L181 656H92L153 794Z" glyph-name="Gcircumflex" horiz-adv-x="430" unicode="&#284;" /><glyph d="M163 427V214Q163 172 174 143Q185 114 217 114Q249 114 260 139Q271 164 271 206V225H225V335H410V0H312L301 56Q288 25 257.5 8.5Q227 -8 185 -8Q100 -8 56 63.5Q12 135 12 272V359Q12 496 64 567Q116 638 220 638Q305 638 351 584Q397 530 403 433L276 409Q274 432 270.5 452Q267 472 260.5 487Q254 502 243 511Q232 520 217 520Q190 520 176.5 495Q163 470 163 427ZM153 -26H281V-97Q281 -151 249.5 -176Q218 -201 153 -201V-153Q179 -153 190.5 -146Q202 -139 203 -119H153Z" glyph-name="Gcommaaccent" horiz-adv-x="430" unicode="&#290;" /><glyph d="M163 427V214Q163 172 174 143Q185 114 217 114Q249 114 260 139Q271 164 271 206V225H225V335H410V0H312L301 56Q288 25 257.5 8.5Q227 -8 185 -8Q100 -8 56 63.5Q12 135 12 272V359Q12 496 64 567Q116 638 220 638Q305 638 351 584Q397 530 403 433L276 409Q274 432 270.5 452Q267 472 260.5 487Q254 502 243 511Q232 520 217 520Q190 520 176.5 495Q163 470 163 427ZM148 808H287V668H148Z" glyph-name="Gdotaccent" horiz-adv-x="430" unicode="&#288;" /><glyph d="M22 0V630H169V380H273V630H420V0H273V260H169V0Z" glyph-name="H" horiz-adv-x="442" unicode="H" /><glyph d="M4 548H32V630H179V548H283V630H430V548H458V435H430V0H283V237H179V0H32V435H4ZM283 350V435H179V350Z" glyph-name="Hbar" horiz-adv-x="462" unicode="&#294;" /><glyph d="M22 0V630H169V380H273V630H420V0H273V260H169V0ZM285 794 346 656H257L221 716L185 656H96L157 794Z" glyph-name="Hcircumflex" horiz-adv-x="442" unicode="&#292;" /><glyph d="M169 630V0H22V630Z" glyph-name="I" horiz-adv-x="191" unicode="I" /><glyph d="M169 630V0H22V630ZM318 205Q322 169 333 142.5Q344 116 370 116Q398 116 405.5 138.5Q413 161 413 199V630H564V204Q564 157 553.5 118Q543 79 520.5 51Q498 23 462 7.5Q426 -8 375 -8Q331 -8 297.5 6Q264 20 241 45Q218 70 205 104Q192 138 188 179Z" glyph-name="IJ" horiz-adv-x="596" unicode="&#306;" /><glyph d="M169 630V0H22V630ZM45 661 95 804H236L144 661Z" glyph-name="Iacute" horiz-adv-x="191" unicode="&#205;" /><glyph d="M169 630V0H22V630ZM96 652Q65 652 42.5 662.5Q20 673 5 691.5Q-10 710 -17 735.5Q-24 761 -24 790H63Q63 764 72 753Q81 742 96 742Q111 742 120 753Q129 764 129 790H216Q216 761 209 735.5Q202 710 187 691.5Q172 673 149.5 662.5Q127 652 96 652Z" glyph-name="Ibreve" horiz-adv-x="191" unicode="&#300;" /><glyph d="M169 630V0H22V630ZM160 794 221 656H132L96 716L60 656H-29L32 794Z" glyph-name="Icircumflex" horiz-adv-x="191" unicode="&#206;" /><glyph d="M169 630V0H22V630ZM-27 789H84V660H-27ZM108 789H219V660H108Z" glyph-name="Idieresis" horiz-adv-x="191" unicode="&#207;" /><glyph d="M169 630V0H22V630ZM27 808H166V668H27Z" glyph-name="Idotaccent" horiz-adv-x="191" unicode="&#304;" /><glyph d="M169 630V0H22V630ZM54 661 -39 804H103L152 661Z" glyph-name="Igrave" horiz-adv-x="191" unicode="&#204;" /><glyph d="M169 630V0H22V630ZM-8 762H200V666H-8Z" glyph-name="Imacron" horiz-adv-x="191" unicode="&#298;" /><glyph d="M169 630V0Q142 -17 130 -32.5Q118 -48 118 -62Q118 -83 140 -83Q152 -83 169 -75V-150Q158 -158 143.5 -162.5Q129 -167 108 -167Q77 -167 54 -149.5Q31 -132 31 -93Q31 -65 44.5 -43Q58 -21 80 0H22V630Z" glyph-name="Iogonek" horiz-adv-x="191" unicode="&#302;" /><glyph d="M169 630V0H22V630ZM-37 659Q-37 720 -21.5 758.5Q-6 797 35 797Q51 797 64.5 791Q78 785 91 778.5Q104 772 115.5 766Q127 760 138 760Q157 760 160 794H230Q230 732 214 694Q198 656 158 656Q142 656 128.5 662Q115 668 102 674.5Q89 681 77.5 687Q66 693 55 693Q36 693 33 659Z" glyph-name="Itilde" horiz-adv-x="191" unicode="&#296;" /><glyph d="M137 205Q141 169 152 142.5Q163 116 189 116Q217 116 224.5 138.5Q232 161 232 199V630H383V204Q383 157 372.5 118Q362 79 339.5 51Q317 23 281 7.5Q245 -8 194 -8Q150 -8 116.5 6Q83 20 60 45Q37 70 24 104Q11 138 7 179Z" glyph-name="J" horiz-adv-x="415" unicode="J" /><glyph d="M137 205Q141 169 152 142.5Q163 116 189 116Q217 116 224.5 138.5Q232 161 232 199V630H383V204Q383 157 372.5 118Q362 79 339.5 51Q317 23 281 7.5Q245 -8 194 -8Q150 -8 116.5 6Q83 20 60 45Q37 70 24 104Q11 138 7 179ZM384 794 445 656H356L320 716L284 656H195L256 794Z" glyph-name="Jcircumflex" horiz-adv-x="415" unicode="&#308;" /><glyph d="M270 0 205 226 169 131V0H22V630H169V342L273 630H424L316 357L424 0Z" glyph-name="K" horiz-adv-x="424" unicode="K" /><glyph d="M270 0 205 226 169 131V0H22V630H169V342L273 630H424L316 357L424 0ZM159 -26H287V-97Q287 -151 255.5 -176Q224 -201 159 -201V-153Q185 -153 196.5 -146Q208 -139 209 -119H159Z" glyph-name="Kcommaaccent" horiz-adv-x="424" unicode="&#310;" /><glyph d="M169 630V121H339V0H22V630Z" glyph-name="L" horiz-adv-x="351" unicode="L" /><glyph d="M169 630V121H339V0H22V630ZM42 661 92 804H233L141 661Z" glyph-name="Lacute" horiz-adv-x="351" unicode="&#313;" /><glyph d="M169 630V121H339V0H22V630ZM194 486 208 630H346L281 486Z" glyph-name="Lcaron" horiz-adv-x="351" unicode="&#317;" /><glyph d="M169 630V121H339V0H22V630ZM117 -26H245V-97Q245 -151 213.5 -176Q182 -201 117 -201V-153Q143 -153 154.5 -146Q166 -139 167 -119H117Z" glyph-name="Lcommaaccent" horiz-adv-x="351" unicode="&#315;" /><glyph d="M169 630V121H339V0H22V630ZM209.0024 381H337.3127V241H209.0024Z" glyph-name="Ldot" horiz-adv-x="351" unicode="&#319;" /><glyph d="M4 323 32 335V630H179V389L267 426V305L179 268V121H349V0H32V213L4 202Z" glyph-name="Lslash" horiz-adv-x="351" unicode="&#321;" /><glyph d="M278 310H282L342 630H527V0H391V359H387L318 0H226L155 359H151V0H22V630H211Z" glyph-name="M" horiz-adv-x="549" unicode="M" /><glyph d="M282 630H418V0H307L162 325H158V0H22V630H156L278 340H282Z" glyph-name="N" horiz-adv-x="440" unicode="N" /><glyph d="M282 630H418V0H307L162 325H158V0H22V630H156L278 340H282ZM169 661 219 804H360L268 661Z" glyph-name="Nacute" horiz-adv-x="440" unicode="&#323;" /><glyph d="M282 630H418V0H307L162 325H158V0H22V630H156L278 340H282ZM156 659 95 797H184L220 737L256 797H345L284 659Z" glyph-name="Ncaron" horiz-adv-x="440" unicode="&#327;" /><glyph d="M282 630H418V0H307L162 325H158V0H22V630H156L278 340H282ZM156 -26H284V-97Q284 -151 252.5 -176Q221 -201 156 -201V-153Q182 -153 193.5 -146Q205 -139 206 -119H156Z" glyph-name="Ncommaaccent" horiz-adv-x="440" unicode="&#325;" /><glyph d="M282 630H418V0H307L162 325H158V0H22V630H156L278 340H282ZM87 659Q87 720 102.5 758.5Q118 797 159 797Q175 797 188.5 791Q202 785 215 778.5Q228 772 239.5 766Q251 760 262 760Q281 760 284 794H354Q354 732 338 694Q322 656 282 656Q266 656 252.5 662Q239 668 226 674.5Q213 681 201.5 687Q190 693 179 693Q160 693 157 659Z" glyph-name="Ntilde" horiz-adv-x="440" unicode="&#209;" /><glyph d="M420 276Q420 140 371 66Q322 -8 216 -8Q109 -8 60.5 66Q12 140 12 276V354Q12 490 60.5 564Q109 638 216 638Q322 638 371 564Q420 490 420 354ZM164 215Q164 194 166 175Q168 156 174 142Q180 128 190 119.5Q200 111 216 111Q232 111 242 119.5Q252 128 258 142Q264 156 266 175Q268 194 268 215V415Q268 436 266 455Q264 474 258 488Q252 502 242 510.5Q232 519 216 519Q200 519 190 510.5Q180 502 174 488Q168 474 166 455Q164 436 164 415Z" glyph-name="O" horiz-adv-x="432" unicode="O" /><glyph d="M217 0Q111 0 61.5 69Q12 138 12 265V365Q12 492 61.5 561Q111 630 217 630H566V509H406V380H521V260H406V121H566V0ZM162 214Q162 167 179 141.5Q196 116 235 116H262V514H235Q196 514 179 488.5Q162 463 162 416Z" glyph-name="OE" horiz-adv-x="582" unicode="&#338;" /><glyph d="M420 276Q420 140 371 66Q322 -8 216 -8Q109 -8 60.5 66Q12 140 12 276V354Q12 490 60.5 564Q109 638 216 638Q322 638 371 564Q420 490 420 354ZM164 215Q164 194 166 175Q168 156 174 142Q180 128 190 119.5Q200 111 216 111Q232 111 242 119.5Q252 128 258 142Q264 156 266 175Q268 194 268 215V415Q268 436 266 455Q264 474 258 488Q252 502 242 510.5Q232 519 216 519Q200 519 190 510.5Q180 502 174 488Q168 474 166 455Q164 436 164 415ZM165 661 215 804H356L264 661Z" glyph-name="Oacute" horiz-adv-x="432" unicode="&#211;" /><glyph d="M420 276Q420 140 371 66Q322 -8 216 -8Q109 -8 60.5 66Q12 140 12 276V354Q12 490 60.5 564Q109 638 216 638Q322 638 371 564Q420 490 420 354ZM164 215Q164 194 166 175Q168 156 174 142Q180 128 190 119.5Q200 111 216 111Q232 111 242 119.5Q252 128 258 142Q264 156 266 175Q268 194 268 215V415Q268 436 266 455Q264 474 258 488Q252 502 242 510.5Q232 519 216 519Q200 519 190 510.5Q180 502 174 488Q168 474 166 455Q164 436 164 415ZM216 652Q185 652 162.5 662.5Q140 673 125 691.5Q110 710 103 735.5Q96 761 96 790H183Q183 764 192 753Q201 742 216 742Q231 742 240 753Q249 764 249 790H336Q336 761 329 735.5Q322 710 307 691.5Q292 673 269.5 662.5Q247 652 216 652Z" glyph-name="Obreve" horiz-adv-x="432" unicode="&#334;" /><glyph d="M420 276Q420 140 371 66Q322 -8 216 -8Q109 -8 60.5 66Q12 140 12 276V354Q12 490 60.5 564Q109 638 216 638Q322 638 371 564Q420 490 420 354ZM164 215Q164 194 166 175Q168 156 174 142Q180 128 190 119.5Q200 111 216 111Q232 111 242 119.5Q252 128 258 142Q264 156 266 175Q268 194 268 215V415Q268 436 266 455Q264 474 258 488Q252 502 242 510.5Q232 519 216 519Q200 519 190 510.5Q180 502 174 488Q168 474 166 455Q164 436 164 415ZM280 794 341 656H252L216 716L180 656H91L152 794Z" glyph-name="Ocircumflex" horiz-adv-x="432" unicode="&#212;" /><glyph d="M420 276Q420 140 371 66Q322 -8 216 -8Q109 -8 60.5 66Q12 140 12 276V354Q12 490 60.5 564Q109 638 216 638Q322 638 371 564Q420 490 420 354ZM164 215Q164 194 166 175Q168 156 174 142Q180 128 190 119.5Q200 111 216 111Q232 111 242 119.5Q252 128 258 142Q264 156 266 175Q268 194 268 215V415Q268 436 266 455Q264 474 258 488Q252 502 242 510.5Q232 519 216 519Q200 519 190 510.5Q180 502 174 488Q168 474 166 455Q164 436 164 415ZM93 789H204V660H93ZM228 789H339V660H228Z" glyph-name="Odieresis" horiz-adv-x="432" unicode="&#214;" /><glyph d="M420 276Q420 140 371 66Q322 -8 216 -8Q109 -8 60.5 66Q12 140 12 276V354Q12 490 60.5 564Q109 638 216 638Q322 638 371 564Q420 490 420 354ZM164 215Q164 194 166 175Q168 156 174 142Q180 128 190 119.5Q200 111 216 111Q232 111 242 119.5Q252 128 258 142Q264 156 266 175Q268 194 268 215V415Q268 436 266 455Q264 474 258 488Q252 502 242 510.5Q232 519 216 519Q200 519 190 510.5Q180 502 174 488Q168 474 166 455Q164 436 164 415ZM175 661 82 804H224L273 661Z" glyph-name="Ograve" horiz-adv-x="432" unicode="&#210;" /><glyph d="M420 276Q420 140 371 66Q322 -8 216 -8Q109 -8 60.5 66Q12 140 12 276V354Q12 490 60.5 564Q109 638 216 638Q322 638 371 564Q420 490 420 354ZM164 215Q164 194 166 175Q168 156 174 142Q180 128 190 119.5Q200 111 216 111Q232 111 242 119.5Q252 128 258 142Q264 156 266 175Q268 194 268 215V415Q268 436 266 455Q264 474 258 488Q252 502 242 510.5Q232 519 216 519Q200 519 190 510.5Q180 502 174 488Q168 474 166 455Q164 436 164 415ZM108 661 141 808H264L188 661ZM244 661 277 808H400L324 661Z" glyph-name="Ohungarumlaut" horiz-adv-x="432" unicode="&#336;" /><glyph d="M420 276Q420 140 371 66Q322 -8 216 -8Q109 -8 60.5 66Q12 140 12 276V354Q12 490 60.5 564Q109 638 216 638Q322 638 371 564Q420 490 420 354ZM164 215Q164 194 166 175Q168 156 174 142Q180 128 190 119.5Q200 111 216 111Q232 111 242 119.5Q252 128 258 142Q264 156 266 175Q268 194 268 215V415Q268 436 266 455Q264 474 258 488Q252 502 242 510.5Q232 519 216 519Q200 519 190 510.5Q180 502 174 488Q168 474 166 455Q164 436 164 415ZM112 762H320V666H112Z" glyph-name="Omacron" horiz-adv-x="432" unicode="&#332;" /><glyph d="M50 84Q30 120 21 168.5Q12 217 12 276V354Q12 490 59 564Q106 638 216 638Q279 638 323 610L344 649L415 610L381 546Q401 509 410.5 461Q420 413 420 354V276Q420 140 373 66Q326 -8 216 -8Q183 -8 156.5 -1Q130 6 108 20L88 -19L17 20ZM158 291 262 492Q247 521 216 521Q184 521 171 495Q158 469 158 427ZM216 109Q248 109 261 135Q274 161 274 203V338L169 137Q183 109 216 109Z" glyph-name="Oslash" horiz-adv-x="432" unicode="&#216;" /><glyph d="M50 84Q30 120 21 168.5Q12 217 12 276V354Q12 490 59 564Q106 638 216 638Q279 638 323 610L344 649L415 610L381 546Q401 509 410.5 461Q420 413 420 354V276Q420 140 373 66Q326 -8 216 -8Q183 -8 156.5 -1Q130 6 108 20L88 -19L17 20ZM158 291 262 492Q247 521 216 521Q184 521 171 495Q158 469 158 427ZM216 109Q248 109 261 135Q274 161 274 203V338L169 137Q183 109 216 109ZM165 661 215 804H356L264 661Z" glyph-name="Oslashacute" horiz-adv-x="432" unicode="&#510;" /><glyph d="M420 276Q420 140 371 66Q322 -8 216 -8Q109 -8 60.5 66Q12 140 12 276V354Q12 490 60.5 564Q109 638 216 638Q322 638 371 564Q420 490 420 354ZM164 215Q164 194 166 175Q168 156 174 142Q180 128 190 119.5Q200 111 216 111Q232 111 242 119.5Q252 128 258 142Q264 156 266 175Q268 194 268 215V415Q268 436 266 455Q264 474 258 488Q252 502 242 510.5Q232 519 216 519Q200 519 190 510.5Q180 502 174 488Q168 474 166 455Q164 436 164 415ZM83 659Q83 720 98.5 758.5Q114 797 155 797Q171 797 184.5 791Q198 785 211 778.5Q224 772 235.5 766Q247 760 258 760Q277 760 280 794H350Q350 732 334 694Q318 656 278 656Q262 656 248.5 662Q235 668 222 674.5Q209 681 197.5 687Q186 693 175 693Q156 693 153 659Z" glyph-name="Otilde" horiz-adv-x="432" unicode="&#213;" /><glyph d="M183 326Q229 326 245 346.5Q261 367 261 418Q261 469 245 490.5Q229 512 183 512H168V326ZM168 0H22V630H200Q304 630 353.5 575.5Q403 521 403 419Q403 317 353.5 262Q304 207 200 207H168Z" glyph-name="P" horiz-adv-x="412" unicode="P" /><glyph d="M420 276Q420 170 391 101.5Q362 33 299 7L360 -77H212L159 -1Q82 17 47 88Q12 159 12 276V354Q12 490 60.5 564Q109 638 216 638Q322 638 371 564Q420 490 420 354ZM164 215Q164 194 166 175Q168 156 174 142Q180 128 190 119.5Q200 111 216 111Q232 111 242 119.5Q252 128 258 142Q264 156 266 175Q268 194 268 215V415Q268 436 266 455Q264 474 258 488Q252 502 242 510.5Q232 519 216 519Q200 519 190 510.5Q180 502 174 488Q168 474 166 455Q164 436 164 415Z" glyph-name="Q" horiz-adv-x="432" unicode="Q" /><glyph d="M264 0Q258 18 255.5 49Q253 80 250 137Q248 182 234.5 205Q221 228 186 228H167V0H22V630H203Q309 630 358 579Q407 528 407 444Q407 369 376.5 331Q346 293 298 285Q348 274 367.5 239Q387 204 391 144Q393 113 394 90.5Q395 68 396.5 51.5Q398 35 401 23Q404 11 409 0ZM181 344Q226 344 244.5 361.5Q263 379 263 427Q263 470 244.5 491Q226 512 181 512H167V344Z" glyph-name="R" horiz-adv-x="419" unicode="R" /><glyph d="M264 0Q258 18 255.5 49Q253 80 250 137Q248 182 234.5 205Q221 228 186 228H167V0H22V630H203Q309 630 358 579Q407 528 407 444Q407 369 376.5 331Q346 293 298 285Q348 274 367.5 239Q387 204 391 144Q393 113 394 90.5Q395 68 396.5 51.5Q398 35 401 23Q404 11 409 0ZM181 344Q226 344 244.5 361.5Q263 379 263 427Q263 470 244.5 491Q226 512 181 512H167V344ZM144 661 194 804H335L243 661Z" glyph-name="Racute" horiz-adv-x="419" unicode="&#340;" /><glyph d="M264 0Q258 18 255.5 49Q253 80 250 137Q248 182 234.5 205Q221 228 186 228H167V0H22V630H203Q309 630 358 579Q407 528 407 444Q407 369 376.5 331Q346 293 298 285Q348 274 367.5 239Q387 204 391 144Q393 113 394 90.5Q395 68 396.5 51.5Q398 35 401 23Q404 11 409 0ZM181 344Q226 344 244.5 361.5Q263 379 263 427Q263 470 244.5 491Q226 512 181 512H167V344ZM132 659 71 797H160L196 737L232 797H321L260 659Z" glyph-name="Rcaron" horiz-adv-x="419" unicode="&#344;" /><glyph d="M264 0Q258 18 255.5 49Q253 80 250 137Q248 182 234.5 205Q221 228 186 228H167V0H22V630H203Q309 630 358 579Q407 528 407 444Q407 369 376.5 331Q346 293 298 285Q348 274 367.5 239Q387 204 391 144Q393 113 394 90.5Q395 68 396.5 51.5Q398 35 401 23Q404 11 409 0ZM181 344Q226 344 244.5 361.5Q263 379 263 427Q263 470 244.5 491Q226 512 181 512H167V344ZM153 -26H281V-97Q281 -151 249.5 -176Q218 -201 153 -201V-153Q179 -153 190.5 -146Q202 -139 203 -119H153Z" glyph-name="Rcommaaccent" horiz-adv-x="419" unicode="&#342;" /><glyph d="M133 187Q133 152 149 131Q165 110 194 110Q246 110 246 164Q246 191 231 205Q216 219 187 235L134 264Q110 277 87.5 293.5Q65 310 48.5 332Q32 354 22 383.5Q12 413 12 454Q12 496 25 530Q38 564 62 588Q86 612 119.5 625Q153 638 194 638Q277 638 323 592.5Q369 547 375 461L255 448Q251 482 235.5 501Q220 520 194 520Q171 520 158.5 505Q146 490 146 464Q146 440 157 424Q168 408 191 396L250 364Q281 347 305.5 329.5Q330 312 346.5 290.5Q363 269 372 241.5Q381 214 381 177Q381 88 329.5 40Q278 -8 194 -8Q112 -8 60.5 40Q9 88 6 179Z" glyph-name="S" horiz-adv-x="393" unicode="S" /><glyph d="M133 187Q133 152 149 131Q165 110 194 110Q246 110 246 164Q246 191 231 205Q216 219 187 235L134 264Q110 277 87.5 293.5Q65 310 48.5 332Q32 354 22 383.5Q12 413 12 454Q12 496 25 530Q38 564 62 588Q86 612 119.5 625Q153 638 194 638Q277 638 323 592.5Q369 547 375 461L255 448Q251 482 235.5 501Q220 520 194 520Q171 520 158.5 505Q146 490 146 464Q146 440 157 424Q168 408 191 396L250 364Q281 347 305.5 329.5Q330 312 346.5 290.5Q363 269 372 241.5Q381 214 381 177Q381 88 329.5 40Q278 -8 194 -8Q112 -8 60.5 40Q9 88 6 179ZM144 661 194 804H335L243 661Z" glyph-name="Sacute" horiz-adv-x="393" unicode="&#346;" /><glyph d="M133 187Q133 152 149 131Q165 110 194 110Q246 110 246 164Q246 191 231 205Q216 219 187 235L134 264Q110 277 87.5 293.5Q65 310 48.5 332Q32 354 22 383.5Q12 413 12 454Q12 496 25 530Q38 564 62 588Q86 612 119.5 625Q153 638 194 638Q277 638 323 592.5Q369 547 375 461L255 448Q251 482 235.5 501Q220 520 194 520Q171 520 158.5 505Q146 490 146 464Q146 440 157 424Q168 408 191 396L250 364Q281 347 305.5 329.5Q330 312 346.5 290.5Q363 269 372 241.5Q381 214 381 177Q381 88 329.5 40Q278 -8 194 -8Q112 -8 60.5 40Q9 88 6 179ZM132 659 71 797H160L196 737L232 797H321L260 659Z" glyph-name="Scaron" horiz-adv-x="393" unicode="&#352;" /><glyph d="M291 -97Q291 -139 264 -157Q237 -175 199 -175Q172 -175 147 -166.5Q122 -158 107 -144L124 -88Q137 -99 154.5 -107Q172 -115 189 -115Q213 -115 213 -97Q213 -83 194.5 -77.5Q176 -72 144 -72L174 -7Q100 -2 54.5 46Q9 94 6 179L133 187Q133 152 149 131Q165 110 194 110Q246 110 246 164Q246 191 231 205Q216 219 187 235L134 264Q110 277 87.5 293.5Q65 310 48.5 332Q32 354 22 383.5Q12 413 12 454Q12 496 25 530Q38 564 62 588Q86 612 119.5 625Q153 638 194 638Q277 638 323 592.5Q369 547 375 461L255 448Q251 482 235.5 501Q220 520 194 520Q171 520 158.5 505Q146 490 146 464Q146 440 157 424Q168 408 191 396L250 364Q281 347 305.5 329.5Q330 312 346.5 290.5Q363 269 372 241.5Q381 214 381 177Q381 96 337.5 49Q294 2 221 -6L213 -25Q244 -27 267.5 -43.5Q291 -60 291 -97Z" glyph-name="Scedilla" horiz-adv-x="393" unicode="&#350;" /><glyph d="M133 187Q133 152 149 131Q165 110 194 110Q246 110 246 164Q246 191 231 205Q216 219 187 235L134 264Q110 277 87.5 293.5Q65 310 48.5 332Q32 354 22 383.5Q12 413 12 454Q12 496 25 530Q38 564 62 588Q86 612 119.5 625Q153 638 194 638Q277 638 323 592.5Q369 547 375 461L255 448Q251 482 235.5 501Q220 520 194 520Q171 520 158.5 505Q146 490 146 464Q146 440 157 424Q168 408 191 396L250 364Q281 347 305.5 329.5Q330 312 346.5 290.5Q363 269 372 241.5Q381 214 381 177Q381 88 329.5 40Q278 -8 194 -8Q112 -8 60.5 40Q9 88 6 179ZM260 794 321 656H232L196 716L160 656H71L132 794Z" glyph-name="Scircumflex" horiz-adv-x="393" unicode="&#348;" /><glyph d="M133 187Q133 152 149 131Q165 110 194 110Q246 110 246 164Q246 191 231 205Q216 219 187 235L134 264Q110 277 87.5 293.5Q65 310 48.5 332Q32 354 22 383.5Q12 413 12 454Q12 496 25 530Q38 564 62 588Q86 612 119.5 625Q153 638 194 638Q277 638 323 592.5Q369 547 375 461L255 448Q251 482 235.5 501Q220 520 194 520Q171 520 158.5 505Q146 490 146 464Q146 440 157 424Q168 408 191 396L250 364Q281 347 305.5 329.5Q330 312 346.5 290.5Q363 269 372 241.5Q381 214 381 177Q381 88 329.5 40Q278 -8 194 -8Q112 -8 60.5 40Q9 88 6 179ZM132 -26H260V-97Q260 -151 228.5 -176Q197 -201 132 -201V-153Q158 -153 169.5 -146Q181 -139 182 -119H132Z" glyph-name="Scommaaccent" horiz-adv-x="393" unicode="&#536;" /><glyph d="M132 0V509H12V630H401V509H278V0Z" glyph-name="T" horiz-adv-x="413" unicode="T" /><glyph d="M72 364H132V509H12V630H401V509H278V364H338V244H278V0H132V244H72Z" glyph-name="Tbar" horiz-adv-x="413" unicode="&#358;" /><glyph d="M132 0V509H12V630H401V509H278V0ZM142 659 81 797H170L206 737L242 797H331L270 659Z" glyph-name="Tcaron" horiz-adv-x="413" unicode="&#356;" /><glyph d="M132 0V509H12V630H401V509H278V0ZM142 -26H270V-97Q270 -151 238.5 -176Q207 -201 142 -201V-153Q168 -153 179.5 -146Q191 -139 192 -119H142Z" glyph-name="Tcommaaccent" horiz-adv-x="413" unicode="&#354;" /><glyph d="M183 226Q229 226 245 246.5Q261 267 261 318Q261 369 245 390.5Q229 412 183 412H168V226ZM168 0H22V630H168V530H200Q304 530 353.5 475.5Q403 421 403 319Q403 217 353.5 162Q304 107 200 107H168Z" glyph-name="Thorn" horiz-adv-x="412" unicode="&#222;" /><glyph d="M222 -9Q164 -9 125 7.5Q86 24 63 54.5Q40 85 30 128.5Q20 172 20 225V630H171V213Q171 165 179.5 138.5Q188 112 222 112Q256 112 264.5 138.5Q273 165 273 213V630H424V225Q424 172 414 128.5Q404 85 381 54.5Q358 24 319 7.5Q280 -9 222 -9Z" glyph-name="U" horiz-adv-x="444" unicode="U" /><glyph d="M222 -9Q164 -9 125 7.5Q86 24 63 54.5Q40 85 30 128.5Q20 172 20 225V630H171V213Q171 165 179.5 138.5Q188 112 222 112Q256 112 264.5 138.5Q273 165 273 213V630H424V225Q424 172 414 128.5Q404 85 381 54.5Q358 24 319 7.5Q280 -9 222 -9ZM171 661 221 804H362L270 661Z" glyph-name="Uacute" horiz-adv-x="444" unicode="&#218;" /><glyph d="M222 -9Q164 -9 125 7.5Q86 24 63 54.5Q40 85 30 128.5Q20 172 20 225V630H171V213Q171 165 179.5 138.5Q188 112 222 112Q256 112 264.5 138.5Q273 165 273 213V630H424V225Q424 172 414 128.5Q404 85 381 54.5Q358 24 319 7.5Q280 -9 222 -9ZM222 652Q191 652 168.5 662.5Q146 673 131 691.5Q116 710 109 735.5Q102 761 102 790H189Q189 764 198 753Q207 742 222 742Q237 742 246 753Q255 764 255 790H342Q342 761 335 735.5Q328 710 313 691.5Q298 673 275.5 662.5Q253 652 222 652Z" glyph-name="Ubreve" horiz-adv-x="444" unicode="&#364;" /><glyph d="M222 -9Q164 -9 125 7.5Q86 24 63 54.5Q40 85 30 128.5Q20 172 20 225V630H171V213Q171 165 179.5 138.5Q188 112 222 112Q256 112 264.5 138.5Q273 165 273 213V630H424V225Q424 172 414 128.5Q404 85 381 54.5Q358 24 319 7.5Q280 -9 222 -9ZM286 794 347 656H258L222 716L186 656H97L158 794Z" glyph-name="Ucircumflex" horiz-adv-x="444" unicode="&#219;" /><glyph d="M222 -9Q164 -9 125 7.5Q86 24 63 54.5Q40 85 30 128.5Q20 172 20 225V630H171V213Q171 165 179.5 138.5Q188 112 222 112Q256 112 264.5 138.5Q273 165 273 213V630H424V225Q424 172 414 128.5Q404 85 381 54.5Q358 24 319 7.5Q280 -9 222 -9ZM99 789H210V660H99ZM234 789H345V660H234Z" glyph-name="Udieresis" horiz-adv-x="444" unicode="&#220;" /><glyph d="M222 -9Q164 -9 125 7.5Q86 24 63 54.5Q40 85 30 128.5Q20 172 20 225V630H171V213Q171 165 179.5 138.5Q188 112 222 112Q256 112 264.5 138.5Q273 165 273 213V630H424V225Q424 172 414 128.5Q404 85 381 54.5Q358 24 319 7.5Q280 -9 222 -9ZM181 661 88 804H230L279 661Z" glyph-name="Ugrave" horiz-adv-x="444" unicode="&#217;" /><glyph d="M222 -9Q164 -9 125 7.5Q86 24 63 54.5Q40 85 30 128.5Q20 172 20 225V630H171V213Q171 165 179.5 138.5Q188 112 222 112Q256 112 264.5 138.5Q273 165 273 213V630H424V225Q424 172 414 128.5Q404 85 381 54.5Q358 24 319 7.5Q280 -9 222 -9ZM114 661 147 808H270L194 661ZM250 661 283 808H406L330 661Z" glyph-name="Uhungarumlaut" horiz-adv-x="444" unicode="&#368;" /><glyph d="M222 -9Q164 -9 125 7.5Q86 24 63 54.5Q40 85 30 128.5Q20 172 20 225V630H171V213Q171 165 179.5 138.5Q188 112 222 112Q256 112 264.5 138.5Q273 165 273 213V630H424V225Q424 172 414 128.5Q404 85 381 54.5Q358 24 319 7.5Q280 -9 222 -9ZM118 762H326V666H118Z" glyph-name="Umacron" horiz-adv-x="444" unicode="&#362;" /><glyph d="M222 -9Q164 -9 125 7.5Q86 24 63 54.5Q40 85 30 128.5Q20 172 20 225V630H171V213Q171 165 179.5 138.5Q188 112 222 112Q256 112 264.5 138.5Q273 165 273 213V630H424V225Q424 147 400 97Q376 47 325 10Q296 -10 287.5 -28Q279 -46 279 -62Q279 -83 301 -83Q313 -83 330 -75V-150Q319 -158 304.5 -162.5Q290 -167 269 -167Q238 -167 215 -149.5Q192 -132 192 -93Q192 -68 202 -47.5Q212 -27 228 -9H222Z" glyph-name="Uogonek" horiz-adv-x="444" unicode="&#370;" /><glyph d="M222 -9Q164 -9 125 7.5Q86 24 63 54.5Q40 85 30 128.5Q20 172 20 225V630H171V213Q171 165 179.5 138.5Q188 112 222 112Q256 112 264.5 138.5Q273 165 273 213V630H424V225Q424 172 414 128.5Q404 85 381 54.5Q358 24 319 7.5Q280 -9 222 -9ZM186 741Q186 724 195 714Q204 704 222 704Q241 704 250 714Q259 724 259 741Q259 757 250 767Q241 777 222 777Q204 777 195 767Q186 757 186 741ZM127 741Q127 780 153 806Q179 832 222 832Q266 832 292 806Q318 780 318 741Q318 701 292 675Q266 649 222 649Q179 649 153 675Q127 701 127 741Z" glyph-name="Uring" horiz-adv-x="444" unicode="&#366;" /><glyph d="M222 -9Q164 -9 125 7.5Q86 24 63 54.5Q40 85 30 128.5Q20 172 20 225V630H171V213Q171 165 179.5 138.5Q188 112 222 112Q256 112 264.5 138.5Q273 165 273 213V630H424V225Q424 172 414 128.5Q404 85 381 54.5Q358 24 319 7.5Q280 -9 222 -9ZM89 659Q89 720 104.5 758.5Q120 797 161 797Q177 797 190.5 791Q204 785 217 778.5Q230 772 241.5 766Q253 760 264 760Q283 760 286 794H356Q356 732 340 694Q324 656 284 656Q268 656 254.5 662Q241 668 228 674.5Q215 681 203.5 687Q192 693 181 693Q162 693 159 659Z" glyph-name="Utilde" horiz-adv-x="444" unicode="&#360;" /><glyph d="M139 0 0 630H151L222 266H226L297 630H433L294 0Z" glyph-name="V" horiz-adv-x="433" unicode="V" /><glyph d="M456 630H590L481 0H343L297 308H293L247 0H109L0 630H140L190 307H194L244 630H352L402 307H406Z" glyph-name="W" horiz-adv-x="590" unicode="W" /><glyph d="M456 630H590L481 0H343L297 308H293L247 0H109L0 630H140L190 307H194L244 630H352L402 307H406ZM244 661 294 804H435L343 661Z" glyph-name="Wacute" horiz-adv-x="590" unicode="&#7810;" /><glyph d="M456 630H590L481 0H343L297 308H293L247 0H109L0 630H140L190 307H194L244 630H352L402 307H406ZM359 794 420 656H331L295 716L259 656H170L231 794Z" glyph-name="Wcircumflex" horiz-adv-x="590" unicode="&#372;" /><glyph d="M456 630H590L481 0H343L297 308H293L247 0H109L0 630H140L190 307H194L244 630H352L402 307H406ZM172 789H283V660H172ZM307 789H418V660H307Z" glyph-name="Wdieresis" horiz-adv-x="590" unicode="&#7812;" /><glyph d="M456 630H590L481 0H343L297 308H293L247 0H109L0 630H140L190 307H194L244 630H352L402 307H406ZM253 661 160 804H302L351 661Z" glyph-name="Wgrave" horiz-adv-x="590" unicode="&#7808;" /><glyph d="M296 329 434 0H277L213 174L147 0H0L138 317L7 630H164L221 472L280 630H427Z" glyph-name="X" horiz-adv-x="434" unicode="X" /><glyph d="M292 630H437L290 221V0H147V221L0 630H152L225 398Z" glyph-name="Y" horiz-adv-x="437" unicode="Y" /><glyph d="M292 630H437L290 221V0H147V221L0 630H152L225 398ZM167 661 217 804H358L266 661Z" glyph-name="Yacute" horiz-adv-x="437" unicode="&#221;" /><glyph d="M292 630H437L290 221V0H147V221L0 630H152L225 398ZM282 794 343 656H254L218 716L182 656H93L154 794Z" glyph-name="Ycircumflex" horiz-adv-x="437" unicode="&#374;" /><glyph d="M292 630H437L290 221V0H147V221L0 630H152L225 398ZM95 789H206V660H95ZM230 789H341V660H230Z" glyph-name="Ydieresis" horiz-adv-x="437" unicode="&#376;" /><glyph d="M292 630H437L290 221V0H147V221L0 630H152L225 398ZM177 661 84 804H226L275 661Z" glyph-name="Ygrave" horiz-adv-x="437" unicode="&#7922;" /><glyph d="M367 121V0H16V110L203 509H19V630H360V517L178 121Z" glyph-name="Z" horiz-adv-x="383" unicode="Z" /><glyph d="M367 121V0H16V110L203 509H19V630H360V517L178 121ZM148 661 198 804H339L247 661Z" glyph-name="Zacute" horiz-adv-x="383" unicode="&#377;" /><glyph d="M367 121V0H16V110L203 509H19V630H360V517L178 121ZM136 659 75 797H164L200 737L236 797H325L264 659Z" glyph-name="Zcaron" horiz-adv-x="383" unicode="&#381;" /><glyph d="M367 121V0H16V110L203 509H19V630H360V517L178 121ZM130 808H269V668H130Z" glyph-name="Zdotaccent" horiz-adv-x="383" unicode="&#379;" /><glyph d="M204 194 178 177Q161 166 150 156Q139 146 139 127Q139 113 146.5 104Q154 95 168 95Q187 95 195.5 110.5Q204 126 204 149ZM340 113Q340 103 343 98.5Q346 94 355 94Q360 94 363 94.5Q366 95 372 97V14Q358 5 341 -1Q324 -7 301 -7Q270 -7 247.5 6.5Q225 20 214 49Q203 23 177 8Q151 -7 117 -7Q61 -7 33.5 25Q6 57 6 104Q6 131 15 151.5Q24 172 40.5 188.5Q57 205 79.5 219.5Q102 234 130 249L204 289V302Q204 322 199 334Q194 346 177 346Q160 346 152 329Q144 312 142 283L19 304Q22 333 32.5 360Q43 387 62.5 408Q82 429 111.5 441.5Q141 454 181 454Q340 454 340 294Z" glyph-name="a" horiz-adv-x="377" unicode="a" /><glyph d="M204 194 178 177Q161 166 150 156Q139 146 139 127Q139 113 146.5 104Q154 95 168 95Q187 95 195.5 110.5Q204 126 204 149ZM340 113Q340 103 343 98.5Q346 94 355 94Q360 94 363 94.5Q366 95 372 97V14Q358 5 341 -1Q324 -7 301 -7Q270 -7 247.5 6.5Q225 20 214 49Q203 23 177 8Q151 -7 117 -7Q61 -7 33.5 25Q6 57 6 104Q6 131 15 151.5Q24 172 40.5 188.5Q57 205 79.5 219.5Q102 234 130 249L204 289V302Q204 322 199 334Q194 346 177 346Q160 346 152 329Q144 312 142 283L19 304Q22 333 32.5 360Q43 387 62.5 408Q82 429 111.5 441.5Q141 454 181 454Q340 454 340 294ZM136 483 186 626H327L235 483Z" glyph-name="aacute" horiz-adv-x="377" unicode="&#225;" /><glyph d="M204 194 178 177Q161 166 150 156Q139 146 139 127Q139 113 146.5 104Q154 95 168 95Q187 95 195.5 110.5Q204 126 204 149ZM340 113Q340 103 343 98.5Q346 94 355 94Q360 94 363 94.5Q366 95 372 97V14Q358 5 341 -1Q324 -7 301 -7Q270 -7 247.5 6.5Q225 20 214 49Q203 23 177 8Q151 -7 117 -7Q61 -7 33.5 25Q6 57 6 104Q6 131 15 151.5Q24 172 40.5 188.5Q57 205 79.5 219.5Q102 234 130 249L204 289V302Q204 322 199 334Q194 346 177 346Q160 346 152 329Q144 312 142 283L19 304Q22 333 32.5 360Q43 387 62.5 408Q82 429 111.5 441.5Q141 454 181 454Q340 454 340 294ZM183 474Q152 474 129.5 484.5Q107 495 92 513.5Q77 532 70 557.5Q63 583 63 612H150Q150 586 159 575Q168 564 183 564Q198 564 207 575Q216 586 216 612H303Q303 583 296 557.5Q289 532 274 513.5Q259 495 236.5 484.5Q214 474 183 474Z" glyph-name="abreve" horiz-adv-x="377" unicode="&#259;" /><glyph d="M204 194 178 177Q161 166 150 156Q139 146 139 127Q139 113 146.5 104Q154 95 168 95Q187 95 195.5 110.5Q204 126 204 149ZM340 113Q340 103 343 98.5Q346 94 355 94Q360 94 363 94.5Q366 95 372 97V14Q358 5 341 -1Q324 -7 301 -7Q270 -7 247.5 6.5Q225 20 214 49Q203 23 177 8Q151 -7 117 -7Q61 -7 33.5 25Q6 57 6 104Q6 131 15 151.5Q24 172 40.5 188.5Q57 205 79.5 219.5Q102 234 130 249L204 289V302Q204 322 199 334Q194 346 177 346Q160 346 152 329Q144 312 142 283L19 304Q22 333 32.5 360Q43 387 62.5 408Q82 429 111.5 441.5Q141 454 181 454Q340 454 340 294ZM250 616 311 478H222L186 538L150 478H61L122 616Z" glyph-name="acircumflex" horiz-adv-x="377" unicode="&#226;" /><glyph d="M104 483 154 626H295L203 483Z" glyph-name="acute" horiz-adv-x="400" unicode="&#180;" /><glyph d="M104 661 154 804H295L203 661Z" glyph-name="acute.cap" horiz-adv-x="400" /><glyph d="M204 194 178 177Q161 166 150 156Q139 146 139 127Q139 113 146.5 104Q154 95 168 95Q187 95 195.5 110.5Q204 126 204 149ZM340 113Q340 103 343 98.5Q346 94 355 94Q360 94 363 94.5Q366 95 372 97V14Q358 5 341 -1Q324 -7 301 -7Q270 -7 247.5 6.5Q225 20 214 49Q203 23 177 8Q151 -7 117 -7Q61 -7 33.5 25Q6 57 6 104Q6 131 15 151.5Q24 172 40.5 188.5Q57 205 79.5 219.5Q102 234 130 249L204 289V302Q204 322 199 334Q194 346 177 346Q160 346 152 329Q144 312 142 283L19 304Q22 333 32.5 360Q43 387 62.5 408Q82 429 111.5 441.5Q141 454 181 454Q340 454 340 294ZM63 611H174V482H63ZM198 611H309V482H198Z" glyph-name="adieresis" horiz-adv-x="377" unicode="&#228;" /><glyph d="M168 97Q187 97 195.5 111.5Q204 126 204 149V189H189Q160 189 148.5 173.5Q137 158 137 137Q137 117 145.5 107Q154 97 168 97ZM379 347Q356 347 349 327.5Q342 308 342 270H414Q414 308 407.5 327.5Q401 347 379 347ZM383 -8Q298 -8 262 45Q246 20 215 6Q184 -8 147 -8Q78 -8 42 28Q6 64 6 132Q6 197 52 233.5Q98 270 176 270H204V303Q204 322 199 334Q194 346 177 346Q160 346 152 329Q144 312 142 283L19 304Q22 333 32.5 360Q43 387 62.5 408Q82 429 111.5 441.5Q141 454 181 454Q215 454 238 444.5Q261 435 280 418Q300 435 323.5 444.5Q347 454 379 454Q426 454 458.5 437.5Q491 421 511 392Q531 363 540 323Q549 283 549 235V189H342V169Q342 137 350.5 118Q359 99 383 99Q402 99 410 114.5Q418 130 421 152L543 136Q538 106 526 80Q514 54 494.5 34.5Q475 15 447 3.5Q419 -8 383 -8Z" glyph-name="ae" horiz-adv-x="561" unicode="&#230;" /><glyph d="M168 97Q187 97 195.5 111.5Q204 126 204 149V189H189Q160 189 148.5 173.5Q137 158 137 137Q137 117 145.5 107Q154 97 168 97ZM379 347Q356 347 349 327.5Q342 308 342 270H414Q414 308 407.5 327.5Q401 347 379 347ZM383 -8Q298 -8 262 45Q246 20 215 6Q184 -8 147 -8Q78 -8 42 28Q6 64 6 132Q6 197 52 233.5Q98 270 176 270H204V303Q204 322 199 334Q194 346 177 346Q160 346 152 329Q144 312 142 283L19 304Q22 333 32.5 360Q43 387 62.5 408Q82 429 111.5 441.5Q141 454 181 454Q215 454 238 444.5Q261 435 280 418Q300 435 323.5 444.5Q347 454 379 454Q426 454 458.5 437.5Q491 421 511 392Q531 363 540 323Q549 283 549 235V189H342V169Q342 137 350.5 118Q359 99 383 99Q402 99 410 114.5Q418 130 421 152L543 136Q538 106 526 80Q514 54 494.5 34.5Q475 15 447 3.5Q419 -8 383 -8ZM224 483 274 626H415L323 483Z" glyph-name="aeacute" horiz-adv-x="561" unicode="&#509;" /><glyph d="M204 194 178 177Q161 166 150 156Q139 146 139 127Q139 113 146.5 104Q154 95 168 95Q187 95 195.5 110.5Q204 126 204 149ZM340 113Q340 103 343 98.5Q346 94 355 94Q360 94 363 94.5Q366 95 372 97V14Q358 5 341 -1Q324 -7 301 -7Q270 -7 247.5 6.5Q225 20 214 49Q203 23 177 8Q151 -7 117 -7Q61 -7 33.5 25Q6 57 6 104Q6 131 15 151.5Q24 172 40.5 188.5Q57 205 79.5 219.5Q102 234 130 249L204 289V302Q204 322 199 334Q194 346 177 346Q160 346 152 329Q144 312 142 283L19 304Q22 333 32.5 360Q43 387 62.5 408Q82 429 111.5 441.5Q141 454 181 454Q340 454 340 294ZM148 483 55 626H197L246 483Z" glyph-name="agrave" horiz-adv-x="377" unicode="&#224;" /><glyph d="M204 194 178 177Q161 166 150 156Q139 146 139 127Q139 113 146.5 104Q154 95 168 95Q187 95 195.5 110.5Q204 126 204 149ZM340 113Q340 103 343 98.5Q346 94 355 94Q360 94 363 94.5Q366 95 372 97V14Q358 5 341 -1Q324 -7 301 -7Q270 -7 247.5 6.5Q225 20 214 49Q203 23 177 8Q151 -7 117 -7Q61 -7 33.5 25Q6 57 6 104Q6 131 15 151.5Q24 172 40.5 188.5Q57 205 79.5 219.5Q102 234 130 249L204 289V302Q204 322 199 334Q194 346 177 346Q160 346 152 329Q144 312 142 283L19 304Q22 333 32.5 360Q43 387 62.5 408Q82 429 111.5 441.5Q141 454 181 454Q340 454 340 294ZM79 584H287V488H79Z" glyph-name="amacron" horiz-adv-x="377" unicode="&#257;" /><glyph d="M472 312Q462 266 447 221.5Q432 177 410 138Q418 128 427 120.5Q436 113 450 113Q455 113 461 114Q467 115 480 119L485 19Q474 8 454.5 2Q435 -4 415 -4Q390 -4 367.5 3.5Q345 11 321 34Q292 14 259 3Q226 -8 187 -8Q148 -8 115 3Q82 14 57.5 35.5Q33 57 19 89.5Q5 122 5 164Q5 220 27 259.5Q49 299 97 333Q75 363 62 393.5Q49 424 49 469Q49 509 62.5 540.5Q76 572 98.5 594Q121 616 151 627Q181 638 214 638Q252 638 281.5 626Q311 614 330.5 593.5Q350 573 360 544.5Q370 516 370 483Q370 425 346 387.5Q322 350 274 316L334 238Q349 278 361 328ZM209 115Q230 115 250 124L166 240Q142 213 142 180Q142 151 159.5 133Q177 115 209 115ZM181 477Q181 457 190 436.5Q199 416 211 400Q235 418 244 437Q253 456 253 479Q253 497 243.5 510Q234 523 217 523Q197 523 189 510Q181 497 181 477Z" glyph-name="ampersand" horiz-adv-x="489" unicode="&amp;" /><glyph d="M168 95Q187 95 195.5 110.5Q204 126 204 149V194L178 177Q161 166 150 156Q139 146 139 127Q139 113 146.5 104Q154 95 168 95ZM214 49Q203 23 177 8Q151 -7 117 -7Q61 -7 33.5 25Q6 57 6 104Q6 131 15 151.5Q24 172 40.5 188.5Q57 205 79.5 219.5Q102 234 130 249L204 289V302Q204 322 199 334Q194 346 177 346Q160 346 152 329Q144 312 142 283L19 304Q22 333 32.5 360Q43 387 62.5 408Q82 429 111.5 441.5Q141 454 181 454Q340 454 340 294V113Q340 103 343 98.5Q346 94 355 94Q360 94 363 94.5Q366 95 372 97V14Q355 -1 345 -12Q335 -23 330 -31.5Q325 -40 323 -47Q321 -54 321 -62Q321 -83 343 -83Q355 -83 372 -75V-150Q361 -158 346.5 -162.5Q332 -167 311 -167Q280 -167 257 -149.5Q234 -132 234 -93Q234 -67 245 -45Q256 -23 274 -4Q230 5 214 49Z" glyph-name="aogonek" horiz-adv-x="377" unicode="&#261;" /><glyph d="M38 402Q65 420 90 428Q115 436 138 436Q162 436 182.5 431Q203 426 223.5 419.5Q244 413 264.5 408Q285 403 309 403Q332 403 358 410Q384 417 413 437V348Q384 331 358 323.5Q332 316 309 316Q285 316 264.5 321Q244 326 223.5 332Q203 338 182.5 343Q162 348 138 348Q115 348 90 340Q65 332 38 315ZM38 259Q65 278 90 285.5Q115 293 138 293Q162 293 182.5 288Q203 283 223.5 276.5Q244 270 264.5 265Q285 260 309 260Q332 260 358 267.5Q384 275 413 294V206Q384 188 358 180.5Q332 173 309 173Q285 173 264.5 178Q244 183 223.5 189.5Q203 196 182.5 201Q162 206 138 206Q115 206 90 198Q65 190 38 172Z" glyph-name="approxequal" horiz-adv-x="451" unicode="&#8776;" /><glyph d="M204 194 178 177Q161 166 150 156Q139 146 139 127Q139 113 146.5 104Q154 95 168 95Q187 95 195.5 110.5Q204 126 204 149ZM340 113Q340 103 343 98.5Q346 94 355 94Q360 94 363 94.5Q366 95 372 97V14Q358 5 341 -1Q324 -7 301 -7Q270 -7 247.5 6.5Q225 20 214 49Q203 23 177 8Q151 -7 117 -7Q61 -7 33.5 25Q6 57 6 104Q6 131 15 151.5Q24 172 40.5 188.5Q57 205 79.5 219.5Q102 234 130 249L204 289V302Q204 322 199 334Q194 346 177 346Q160 346 152 329Q144 312 142 283L19 304Q22 333 32.5 360Q43 387 62.5 408Q82 429 111.5 441.5Q141 454 181 454Q340 454 340 294ZM147 563Q147 546 156 536Q165 526 183 526Q202 526 211 536Q220 546 220 563Q220 579 211 589Q202 599 183 599Q165 599 156 589Q147 579 147 563ZM88 563Q88 602 114 628Q140 654 183 654Q227 654 253 628Q279 602 279 563Q279 523 253 497Q227 471 183 471Q140 471 114 497Q88 523 88 563Z" glyph-name="aring" horiz-adv-x="377" unicode="&#229;" /><glyph d="M127 651 168 766H327L243 651ZM149 551Q149 520 183 520Q218 520 218 551Q218 582 183 582Q149 582 149 551ZM89 551Q89 587 114.5 611Q140 635 183 635Q227 635 253 611Q279 587 279 551Q279 515 253 491Q227 467 183 467Q140 467 114.5 491Q89 515 89 551ZM204 194 178 177Q161 166 150 156Q139 146 139 127Q139 113 146.5 104Q154 95 168 95Q187 95 195.5 110.5Q204 126 204 149ZM340 113Q340 103 343 98.5Q346 94 355 94Q360 94 363 94.5Q366 95 372 97V14Q358 5 341 -1Q324 -7 301 -7Q270 -7 247.5 6.5Q225 20 214 49Q203 23 177 8Q151 -7 117 -7Q61 -7 33.5 25Q6 57 6 104Q6 131 15 151.5Q24 172 40.5 188.5Q57 205 79.5 219.5Q102 234 130 249L204 289V302Q204 322 199 334Q194 346 177 346Q160 346 152 329Q144 312 142 283L19 304Q22 333 32.5 360Q43 387 62.5 408Q82 429 111.5 441.5Q141 454 181 454Q340 454 340 294Z" glyph-name="aringacute" horiz-adv-x="377" unicode="&#507;" /><glyph d="M245 630 348 420H218L174 529L130 420H0L103 630Z" glyph-name="asciicircum" horiz-adv-x="348" unicode="^" /><glyph d="M15 204Q15 274 40 318.5Q65 363 114 363Q133 363 148.5 356.5Q164 350 177.5 342.5Q191 335 204 328.5Q217 322 231 322Q244 322 254.5 330Q265 338 267 360H349Q349 289 324 244.5Q299 200 250 200Q231 200 215.5 206.5Q200 213 186.5 220.5Q173 228 160 234.5Q147 241 133 241Q120 241 109.5 233Q99 225 97 204Z" glyph-name="asciitilde" horiz-adv-x="364" unicode="~" /><glyph d="M29 573 108 547V630H185V547L263 573L288 500L210 474L258 407L196 361L147 428L98 361L35 406L83 474L5 499Z" glyph-name="asterisk" horiz-adv-x="293" unicode="*" /><glyph d="M460 112Q492 112 507 157Q522 202 522 274Q522 372 478.5 427Q435 482 342 482Q287 482 243.5 460.5Q200 439 169.5 399Q139 359 123 302Q107 245 107 174Q107 115 122 72Q137 29 164 0.5Q191 -28 227.5 -41.5Q264 -55 307 -55Q352 -55 390.5 -44.5Q429 -34 469 -9L487 -77Q448 -107 402.5 -120.5Q357 -134 306 -134Q246 -134 194 -114.5Q142 -95 103 -56.5Q64 -18 42 39.5Q20 97 20 174Q20 261 43.5 333Q67 405 109.5 456Q152 507 211.5 535Q271 563 342 563Q405 563 454 541.5Q503 520 536.5 482Q570 444 588 390.5Q606 337 606 274Q606 212 593 166.5Q580 121 557.5 91Q535 61 505 46.5Q475 32 441 32Q404 32 381.5 48Q359 64 348 92Q320 32 259 32Q213 32 184.5 69Q156 106 156 175Q156 217 166 256Q176 295 194 325.5Q212 356 237.5 374Q263 392 294 392Q326 392 343 376.5Q360 361 368 337L379 384H477L434 162Q423 112 460 112ZM343 219Q357 295 322 295Q311 295 301.5 285.5Q292 276 285 259.5Q278 243 274.5 222Q271 201 271 177Q271 156 277.5 142.5Q284 129 299 129Q315 129 323.5 145Q332 161 340 203Z" glyph-name="at" horiz-adv-x="625" unicode="@" /><glyph d="M460 216Q492 216 507 261Q522 306 522 378Q522 476 478.5 531Q435 586 342 586Q287 586 243.5 564.5Q200 543 169.5 503Q139 463 123 406Q107 349 107 278Q107 219 122 176Q137 133 164 104.5Q191 76 227.5 62.5Q264 49 307 49Q352 49 390.5 59.5Q429 70 469 95L487 27Q448 -3 402.5 -16.5Q357 -30 306 -30Q246 -30 194 -10.5Q142 9 103 47.5Q64 86 42 143.5Q20 201 20 278Q20 365 43.5 437Q67 509 109.5 560Q152 611 211.5 639Q271 667 342 667Q405 667 454 645.5Q503 624 536.5 586Q570 548 588 494.5Q606 441 606 378Q606 316 593 270.5Q580 225 557.5 195Q535 165 505 150.5Q475 136 441 136Q404 136 381.5 152Q359 168 348 196Q320 136 259 136Q213 136 184.5 173Q156 210 156 279Q156 321 166 360Q176 399 194 429.5Q212 460 237.5 478Q263 496 294 496Q326 496 343 480.5Q360 465 368 441L379 488H477L434 266Q423 216 460 216ZM343 323Q357 399 322 399Q311 399 301.5 389.5Q292 380 285 363.5Q278 347 274.5 326Q271 305 271 281Q271 260 277.5 246.5Q284 233 299 233Q315 233 323.5 249Q332 265 340 307Z" glyph-name="at.cap" horiz-adv-x="625" /><glyph d="M204 194 178 177Q161 166 150 156Q139 146 139 127Q139 113 146.5 104Q154 95 168 95Q187 95 195.5 110.5Q204 126 204 149ZM340 113Q340 103 343 98.5Q346 94 355 94Q360 94 363 94.5Q366 95 372 97V14Q358 5 341 -1Q324 -7 301 -7Q270 -7 247.5 6.5Q225 20 214 49Q203 23 177 8Q151 -7 117 -7Q61 -7 33.5 25Q6 57 6 104Q6 131 15 151.5Q24 172 40.5 188.5Q57 205 79.5 219.5Q102 234 130 249L204 289V302Q204 322 199 334Q194 346 177 346Q160 346 152 329Q144 312 142 283L19 304Q22 333 32.5 360Q43 387 62.5 408Q82 429 111.5 441.5Q141 454 181 454Q340 454 340 294ZM57 481Q57 542 72.5 580.5Q88 619 129 619Q145 619 158.5 613Q172 607 185 600.5Q198 594 209.5 588Q221 582 232 582Q251 582 254 616H324Q324 554 308 516Q292 478 252 478Q236 478 222.5 484Q209 490 196 496.5Q183 503 171.5 509Q160 515 149 515Q130 515 127 481Z" glyph-name="atilde" horiz-adv-x="377" unicode="&#227;" /><glyph d="M161 171Q161 142 169 126.5Q177 111 199 111Q235 111 235 171V275Q235 335 199 335Q177 335 169 319.5Q161 304 161 275ZM161 396Q172 420 196 437Q220 454 255 454Q290 454 313.5 439.5Q337 425 351.5 399Q366 373 372 336.5Q378 300 378 256V190Q378 146 372 109.5Q366 73 351.5 47Q337 21 313.5 6.5Q290 -8 255 -8Q220 -8 196 9Q172 26 161 50L151 0H21V630H161Z" glyph-name="b" horiz-adv-x="393" unicode="b" /><glyph d="M231 -83H110L10 659H131Z" glyph-name="backslash" horiz-adv-x="226" unicode="\" /><glyph d="M221 0H100L0 629H121Z" glyph-name="backslash.cap" horiz-adv-x="221" /><glyph d="M22 659H141V-83H22Z" glyph-name="bar" horiz-adv-x="163" unicode="|" /><glyph d="M22 630H141V0H22Z" glyph-name="bar.cap" horiz-adv-x="163" /><glyph d="M15 337H24Q47 337 54 347.5Q61 358 61 381V532Q61 597 93 628.5Q125 660 182 660H223V562H202Q189 562 185.5 554Q182 546 182 532V402Q182 351 164 323.5Q146 296 100 288Q146 280 164 252.5Q182 225 182 174V44Q182 30 185.5 22Q189 14 202 14H223V-84H182Q125 -84 93 -52.5Q61 -21 61 44V195Q61 218 54 228.5Q47 239 24 239H15Z" glyph-name="braceleft" horiz-adv-x="233" unicode="{" /><glyph d="M15 357H24Q47 357 54 367.5Q61 378 61 401V552Q61 617 93 648.5Q125 680 182 680H223V582H202Q189 582 185.5 574Q182 566 182 552V422Q182 371 164 343.5Q146 316 100 308Q146 300 164 272.5Q182 245 182 194V64Q182 50 185.5 42Q189 34 202 34H223V-64H182Q125 -64 93 -32.5Q61 -1 61 64V215Q61 238 54 248.5Q47 259 24 259H15Z" glyph-name="braceleft.cap" horiz-adv-x="233" /><glyph d="M218 239H209Q186 239 179 228.5Q172 218 172 195V44Q172 -21 140 -52.5Q108 -84 51 -84H10V14H31Q44 14 47.5 22Q51 30 51 44V174Q51 225 69 252.5Q87 280 133 288Q87 296 69 323.5Q51 351 51 402V532Q51 546 47.5 554Q44 562 31 562H10V660H51Q108 660 140 628.5Q172 597 172 532V381Q172 358 179 347.5Q186 337 209 337H218Z" glyph-name="braceright" horiz-adv-x="233" unicode="}" /><glyph d="M218 259H209Q186 259 179 248.5Q172 238 172 215V64Q172 -1 140 -32.5Q108 -64 51 -64H10V34H31Q44 34 47.5 42Q51 50 51 64V194Q51 245 69 272.5Q87 300 133 308Q87 316 69 343.5Q51 371 51 422V552Q51 566 47.5 574Q44 582 31 582H10V680H51Q108 680 140 648.5Q172 617 172 552V401Q172 378 179 367.5Q186 357 209 357H218Z" glyph-name="braceright.cap" horiz-adv-x="233" /><glyph d="M138 14H183V-84H22V660H183V562H138Z" glyph-name="bracketleft" horiz-adv-x="193" unicode="[" /><glyph d="M138 34H183V-64H22V680H183V582H138Z" glyph-name="bracketleft.cap" horiz-adv-x="193" /><glyph d="M55 562H10V660H171V-84H10V14H55Z" glyph-name="bracketright" horiz-adv-x="193" unicode="]" /><glyph d="M55 582H10V680H171V-64H10V34H55Z" glyph-name="bracketright.cap" horiz-adv-x="193" /><glyph d="M199 474Q168 474 145.5 484.5Q123 495 108 513.5Q93 532 86 557.5Q79 583 79 612H166Q166 586 175 575Q184 564 199 564Q214 564 223 575Q232 586 232 612H319Q319 583 312 557.5Q305 532 290 513.5Q275 495 252.5 484.5Q230 474 199 474Z" glyph-name="breve" horiz-adv-x="400" unicode="&#728;" /><glyph d="M199 652Q168 652 145.5 662.5Q123 673 108 691.5Q93 710 86 735.5Q79 761 79 790H166Q166 764 175 753Q184 742 199 742Q214 742 223 753Q232 764 232 790H319Q319 761 312 735.5Q305 710 290 691.5Q275 673 252.5 662.5Q230 652 199 652Z" glyph-name="breve.cap" horiz-adv-x="400" /><glyph d="M360 259Q360 221 346.5 190Q333 159 310 136.5Q287 114 256 101.5Q225 89 190 89Q155 89 124 101.5Q93 114 70 136.5Q47 159 33.5 190Q20 221 20 259Q20 297 33.5 328Q47 359 70 381.5Q93 404 124 416.5Q155 429 190 429Q225 429 256 416.5Q287 404 310 381.5Q333 359 346.5 328Q360 297 360 259Z" glyph-name="bullet" horiz-adv-x="380" unicode="&#8226;" /><glyph d="M360 329Q360 291 346.5 260Q333 229 310 206.5Q287 184 256 171.5Q225 159 190 159Q155 159 124 171.5Q93 184 70 206.5Q47 229 33.5 260Q20 291 20 329Q20 367 33.5 398Q47 429 70 451.5Q93 474 124 486.5Q155 499 190 499Q225 499 256 486.5Q287 474 310 451.5Q333 429 346.5 398Q360 367 360 329Z" glyph-name="bullet.cap" horiz-adv-x="380" /><glyph d="M152 170Q152 138 158.5 119Q165 100 187 100Q198 100 204.5 105.5Q211 111 215 121Q219 131 220 143.5Q221 156 222 170L346 155Q340 78 302 35Q264 -8 187 -8Q100 -8 56 48Q12 104 12 212V234Q12 342 56 398Q100 454 187 454Q264 454 302 411Q340 368 346 291L222 276Q221 290 220 302.5Q219 315 215 325Q211 335 204.5 340.5Q198 346 187 346Q165 346 158.5 327Q152 308 152 276V170Z" glyph-name="c" horiz-adv-x="360" unicode="c" /><glyph d="M152 170Q152 138 158.5 119Q165 100 187 100Q198 100 204.5 105.5Q211 111 215 121Q219 131 220 143.5Q221 156 222 170L346 155Q340 78 302 35Q264 -8 187 -8Q100 -8 56 48Q12 104 12 212V234Q12 342 56 398Q100 454 187 454Q264 454 302 411Q340 368 346 291L222 276Q221 290 220 302.5Q219 315 215 325Q211 335 204.5 340.5Q198 346 187 346Q165 346 158.5 327Q152 308 152 276V170ZM136 483 186 626H327L235 483Z" glyph-name="cacute" horiz-adv-x="360" unicode="&#263;" /><glyph d="M136 481 75 619H164L200 559L236 619H325L264 481Z" glyph-name="caron" horiz-adv-x="400" unicode="&#711;" /><glyph d="M124 486 138 630H276L211 486Z" glyph-name="caron.Slovak" horiz-adv-x="400" /><glyph d="M136 659 75 797H164L200 737L236 797H325L264 659Z" glyph-name="caron.cap" horiz-adv-x="400" /><glyph d="M152 170Q152 138 158.5 119Q165 100 187 100Q198 100 204.5 105.5Q211 111 215 121Q219 131 220 143.5Q221 156 222 170L346 155Q340 78 302 35Q264 -8 187 -8Q100 -8 56 48Q12 104 12 212V234Q12 342 56 398Q100 454 187 454Q264 454 302 411Q340 368 346 291L222 276Q221 290 220 302.5Q219 315 215 325Q211 335 204.5 340.5Q198 346 187 346Q165 346 158.5 327Q152 308 152 276V170ZM126 481 65 619H154L190 559L226 619H315L254 481Z" glyph-name="ccaron" horiz-adv-x="360" unicode="&#269;" /><glyph d="M285 -97Q285 -139 258 -157Q231 -175 193 -175Q166 -175 141 -166.5Q116 -158 101 -144L118 -88Q131 -99 148.5 -107Q166 -115 183 -115Q207 -115 207 -97Q207 -83 188.5 -77.5Q170 -72 138 -72L168 -7Q90 -2 51 54Q12 110 12 212V234Q12 342 56 398Q100 454 187 454Q264 454 302 411Q340 368 346 291L222 276Q221 290 220 302.5Q219 315 215 325Q211 335 204.5 340.5Q198 346 187 346Q165 346 158.5 327Q152 308 152 276V170Q152 138 158.5 119Q165 100 187 100Q198 100 204.5 105.5Q211 111 215 121Q219 131 220 143.5Q221 156 222 170L346 155Q341 86 309.5 44Q278 2 216 -6L207 -25Q238 -27 261.5 -43.5Q285 -60 285 -97Z" glyph-name="ccedilla" horiz-adv-x="360" unicode="&#231;" /><glyph d="M152 170Q152 138 158.5 119Q165 100 187 100Q198 100 204.5 105.5Q211 111 215 121Q219 131 220 143.5Q221 156 222 170L346 155Q340 78 302 35Q264 -8 187 -8Q100 -8 56 48Q12 104 12 212V234Q12 342 56 398Q100 454 187 454Q264 454 302 411Q340 368 346 291L222 276Q221 290 220 302.5Q219 315 215 325Q211 335 204.5 340.5Q198 346 187 346Q165 346 158.5 327Q152 308 152 276V170ZM254 616 315 478H226L190 538L154 478H65L126 616Z" glyph-name="ccircumflex" horiz-adv-x="360" unicode="&#265;" /><glyph d="M152 170Q152 138 158.5 119Q165 100 187 100Q198 100 204.5 105.5Q211 111 215 121Q219 131 220 143.5Q221 156 222 170L346 155Q340 78 302 35Q264 -8 187 -8Q100 -8 56 48Q12 104 12 212V234Q12 342 56 398Q100 454 187 454Q264 454 302 411Q340 368 346 291L222 276Q221 290 220 302.5Q219 315 215 325Q211 335 204.5 340.5Q198 346 187 346Q165 346 158.5 327Q152 308 152 276V170ZM121 630H260V490H121Z" glyph-name="cdotaccent" horiz-adv-x="360" unicode="&#267;" /><glyph d="M279 -97Q279 -139 252 -157Q225 -175 187 -175Q160 -175 135 -166.5Q110 -158 95 -144L112 -88Q125 -99 142.5 -107Q160 -115 177 -115Q201 -115 201 -97Q201 -83 182.5 -77.5Q164 -72 132 -72L171 11H218L201 -25Q232 -27 255.5 -43.5Q279 -60 279 -97Z" glyph-name="cedilla" horiz-adv-x="400" unicode="&#184;" /><glyph d="M279 -97Q279 -139 252 -157Q225 -175 187 -175Q160 -175 135 -166.5Q110 -158 95 -144L112 -88Q125 -99 142.5 -107Q160 -115 177 -115Q201 -115 201 -97Q201 -83 182.5 -77.5Q164 -72 132 -72L171 11H218L201 -25Q232 -27 255.5 -43.5Q279 -60 279 -97Z" glyph-name="cedilla.alt" horiz-adv-x="400" /><glyph d="M166 -3Q91 5 51.5 58.5Q12 112 12 212V234Q12 333 51.5 387Q91 441 166 449V507H215V449Q280 443 316 402Q352 361 358 290L248 276Q248 301 241.5 321.5Q235 342 215 350V95Q235 102 241.5 122.5Q248 143 248 167L358 153Q351 83 315 43Q279 3 215 -3V-55H166ZM135 166Q135 141 141 122.5Q147 104 166 96V349Q147 341 141 323Q135 305 135 280Z" glyph-name="cent" horiz-adv-x="371" unicode="&#162;" /><glyph d="M264 616 325 478H236L200 538L164 478H75L136 616Z" glyph-name="circumflex" horiz-adv-x="400" unicode="&#710;" /><glyph d="M264 794 325 656H236L200 716L164 656H75L136 794Z" glyph-name="circumflex.cap" horiz-adv-x="400" /><glyph d="M18 143H161V0H18ZM18 422H161V279H18Z" glyph-name="colon" horiz-adv-x="179" unicode=":" /><glyph d="M18 143H161V8Q161 -120 18 -123V-57Q49 -56 65 -42.5Q81 -29 81 0H18Z" glyph-name="comma" horiz-adv-x="179" unicode="," /><glyph d="M136 -26H264V-97Q264 -151 232.5 -176Q201 -201 136 -201V-153Q162 -153 173.5 -146Q185 -139 186 -119H136Z" glyph-name="commaaccent" horiz-adv-x="400" /><glyph d="M264 487H136V558Q136 612 167.5 637Q199 662 264 662V614Q238 614 226.5 607Q215 600 214 580H264Z" glyph-name="commaturn" horiz-adv-x="400" /><glyph d="M293 638Q353 638 403.5 614Q454 590 490 547Q526 504 546.5 444.5Q567 385 567 315Q567 245 546.5 185.5Q526 126 490 83Q454 40 403.5 16Q353 -8 293 -8Q233 -8 183 16Q133 40 97 83Q61 126 40.5 185.5Q20 245 20 315Q20 385 40.5 444.5Q61 504 97 547Q133 590 183 614Q233 638 293 638ZM293 590Q242 590 201 569.5Q160 549 131 512.5Q102 476 86.5 425.5Q71 375 71 315Q71 255 86.5 204.5Q102 154 131 117.5Q160 81 201 60.5Q242 40 293 40Q344 40 385.5 60.5Q427 81 456 117.5Q485 154 500.5 204.5Q516 255 516 315Q516 375 500.5 425.5Q485 476 456 512.5Q427 549 385.5 569.5Q344 590 293 590ZM253 281Q253 238 264.5 218.5Q276 199 298 199Q321 199 329.5 217.5Q338 236 339 277L432 265Q428 198 397.5 156.5Q367 115 297 115Q223 115 188.5 166.5Q154 218 154 302V329Q154 413 188.5 464.5Q223 516 297 516Q367 516 397.5 474.5Q428 433 432 366L339 354Q338 395 329.5 413.5Q321 432 298 432Q276 432 264.5 412.5Q253 393 253 350Z" glyph-name="copyright" horiz-adv-x="587" unicode="&#169;" /><glyph d="M232 275Q232 304 224 319.5Q216 335 194 335Q158 335 158 275V171Q158 111 194 111Q216 111 224 126.5Q232 142 232 171ZM232 630H372V0H232V50Q221 26 197 9Q173 -8 138 -8Q103 -8 79.5 6.5Q56 21 41.5 47Q27 73 21 109.5Q15 146 15 190V256Q15 300 21 336.5Q27 373 41.5 399Q56 425 79.5 439.5Q103 454 138 454Q173 454 197 437Q221 420 232 396Z" glyph-name="d" horiz-adv-x="393" unicode="d" /><glyph d="M10 553H94V630H185V553H268V465H185V300H94V465H10Z" glyph-name="dagger" horiz-adv-x="278" unicode="&#8224;" /><glyph d="M15 438H101V492H15V571H101V630H187V571H273V492H187V438H273V359H187V300H101V359H15Z" glyph-name="daggerdbl" horiz-adv-x="288" unicode="&#8225;" /><glyph d="M232 275Q232 304 224 319.5Q216 335 194 335Q158 335 158 275V171Q158 111 194 111Q216 111 224 126.5Q232 142 232 171ZM232 630H372V0H232V50Q221 26 197 9Q173 -8 138 -8Q103 -8 79.5 6.5Q56 21 41.5 47Q27 73 21 109.5Q15 146 15 190V256Q15 300 21 336.5Q27 373 41.5 399Q56 425 79.5 439.5Q103 454 138 454Q173 454 197 437Q221 420 232 396ZM389 486 403 630H541L476 486Z" glyph-name="dcaron" horiz-adv-x="393" unicode="&#271;" /><glyph d="M162 573H232V630H372V573H400V488H372V0H232V50Q221 26 197 9Q173 -8 138 -8Q103 -8 79.5 6.5Q56 21 41.5 47Q27 73 21 109.5Q15 146 15 190V256Q15 300 21 336.5Q27 373 41.5 399Q56 425 79.5 439.5Q103 454 138 454Q173 454 197 437Q221 420 232 396V488H162ZM232 275Q232 304 224 319.5Q216 335 194 335Q158 335 158 275V171Q158 111 194 111Q216 111 224 126.5Q232 142 232 171Z" glyph-name="dcroat" horiz-adv-x="400" unicode="&#273;" /><glyph d="M256 520Q256 495 246.5 473.5Q237 452 220.5 436Q204 420 181.5 411Q159 402 133 402Q107 402 84.5 411Q62 420 45.5 436Q29 452 19.5 473.5Q10 495 10 520Q10 545 19.5 566.5Q29 588 45.5 604Q62 620 84.5 629Q107 638 133 638Q159 638 181.5 629Q204 620 220.5 604Q237 588 246.5 566.5Q256 545 256 520ZM172 520Q172 537 161.5 548.5Q151 560 133 560Q115 560 104.5 548.5Q94 537 94 520Q94 503 104.5 491.5Q115 480 133 480Q151 480 161.5 491.5Q172 503 172 520Z" glyph-name="degree" horiz-adv-x="266" unicode="&#176;" /><glyph d="M77 611H188V482H77ZM212 611H323V482H212Z" glyph-name="dieresis" horiz-adv-x="400" unicode="&#168;" /><glyph d="M77 789H188V660H77ZM212 789H323V660H212Z" glyph-name="dieresis.cap" horiz-adv-x="400" /><glyph d="M30 350H405V254H30ZM156 511H280V396H156ZM156 208H280V93H156Z" glyph-name="divide" horiz-adv-x="435" unicode="&#247;" /><glyph d="M127 186Q127 154 138 133Q149 112 172 104V253L133 271Q111 281 89 295.5Q67 310 49 331.5Q31 353 19.5 383Q8 413 8 454Q8 532 53.5 579Q99 626 172 633V684H222V632Q291 624 330 581Q369 538 374 461L257 448Q256 476 248.5 496Q241 516 222 524V373L254 358Q318 328 352.5 287.5Q387 247 387 177Q387 92 341.5 47.5Q296 3 222 -3V-58H172V-3Q100 4 55.5 49Q11 94 9 179ZM131 464Q131 438 141.5 422.5Q152 407 172 396V526Q131 515 131 464ZM263 164Q263 187 252.5 202.5Q242 218 222 230V104Q241 109 252 124Q263 139 263 164Z" glyph-name="dollar" horiz-adv-x="397" unicode="$" /><glyph d="M130 630H269V490H130Z" glyph-name="dotaccent" horiz-adv-x="400" unicode="&#729;" /><glyph d="M130 808H269V668H130Z" glyph-name="dotaccent.cap" horiz-adv-x="400" /><glyph d="M130 -26H269V-166H130Z" glyph-name="dotbelow" horiz-adv-x="400" /><glyph d="M161 446V0H21V446Z" glyph-name="dotlessi" horiz-adv-x="182" unicode="&#305;" /><glyph d="M161 -39Q161 -102 130 -135Q99 -168 39 -168Q-12 -168 -46 -148L-35 -59Q-21 -66 -7 -66Q10 -66 15.5 -58.5Q21 -51 21 -36V446H161Z" glyph-name="dotlessj" horiz-adv-x="182" unicode="&#567;" /><glyph d="M223 270Q223 308 216.5 327.5Q210 347 188 347Q165 347 158 327.5Q151 308 151 270ZM12 234Q12 282 21.5 322Q31 362 52 391.5Q73 421 106.5 437.5Q140 454 188 454Q235 454 267.5 437.5Q300 421 320 392Q340 363 349 323Q358 283 358 235V189H151V169Q151 137 159.5 118Q168 99 192 99Q211 99 219 114.5Q227 130 230 152L352 136Q347 106 335 80Q323 54 303.5 34.5Q284 15 256 3.5Q228 -8 192 -8Q100 -8 56 48.5Q12 105 12 212Z" glyph-name="e" horiz-adv-x="370" unicode="e" /><glyph d="M223 270Q223 308 216.5 327.5Q210 347 188 347Q165 347 158 327.5Q151 308 151 270ZM12 234Q12 282 21.5 322Q31 362 52 391.5Q73 421 106.5 437.5Q140 454 188 454Q235 454 267.5 437.5Q300 421 320 392Q340 363 349 323Q358 283 358 235V189H151V169Q151 137 159.5 118Q168 99 192 99Q211 99 219 114.5Q227 130 230 152L352 136Q347 106 335 80Q323 54 303.5 34.5Q284 15 256 3.5Q228 -8 192 -8Q100 -8 56 48.5Q12 105 12 212ZM136 483 186 626H327L235 483Z" glyph-name="eacute" horiz-adv-x="370" unicode="&#233;" /><glyph d="M223 270Q223 308 216.5 327.5Q210 347 188 347Q165 347 158 327.5Q151 308 151 270ZM12 234Q12 282 21.5 322Q31 362 52 391.5Q73 421 106.5 437.5Q140 454 188 454Q235 454 267.5 437.5Q300 421 320 392Q340 363 349 323Q358 283 358 235V189H151V169Q151 137 159.5 118Q168 99 192 99Q211 99 219 114.5Q227 130 230 152L352 136Q347 106 335 80Q323 54 303.5 34.5Q284 15 256 3.5Q228 -8 192 -8Q100 -8 56 48.5Q12 105 12 212ZM190 474Q159 474 136.5 484.5Q114 495 99 513.5Q84 532 77 557.5Q70 583 70 612H157Q157 586 166 575Q175 564 190 564Q205 564 214 575Q223 586 223 612H310Q310 583 303 557.5Q296 532 281 513.5Q266 495 243.5 484.5Q221 474 190 474Z" glyph-name="ebreve" horiz-adv-x="370" unicode="&#277;" /><glyph d="M223 270Q223 308 216.5 327.5Q210 347 188 347Q165 347 158 327.5Q151 308 151 270ZM12 234Q12 282 21.5 322Q31 362 52 391.5Q73 421 106.5 437.5Q140 454 188 454Q235 454 267.5 437.5Q300 421 320 392Q340 363 349 323Q358 283 358 235V189H151V169Q151 137 159.5 118Q168 99 192 99Q211 99 219 114.5Q227 130 230 152L352 136Q347 106 335 80Q323 54 303.5 34.5Q284 15 256 3.5Q228 -8 192 -8Q100 -8 56 48.5Q12 105 12 212ZM126 481 65 619H154L190 559L226 619H315L254 481Z" glyph-name="ecaron" horiz-adv-x="370" unicode="&#283;" /><glyph d="M223 270Q223 308 216.5 327.5Q210 347 188 347Q165 347 158 327.5Q151 308 151 270ZM12 234Q12 282 21.5 322Q31 362 52 391.5Q73 421 106.5 437.5Q140 454 188 454Q235 454 267.5 437.5Q300 421 320 392Q340 363 349 323Q358 283 358 235V189H151V169Q151 137 159.5 118Q168 99 192 99Q211 99 219 114.5Q227 130 230 152L352 136Q347 106 335 80Q323 54 303.5 34.5Q284 15 256 3.5Q228 -8 192 -8Q100 -8 56 48.5Q12 105 12 212ZM254 616 315 478H226L190 538L154 478H65L126 616Z" glyph-name="ecircumflex" horiz-adv-x="370" unicode="&#234;" /><glyph d="M223 270Q223 308 216.5 327.5Q210 347 188 347Q165 347 158 327.5Q151 308 151 270ZM12 234Q12 282 21.5 322Q31 362 52 391.5Q73 421 106.5 437.5Q140 454 188 454Q235 454 267.5 437.5Q300 421 320 392Q340 363 349 323Q358 283 358 235V189H151V169Q151 137 159.5 118Q168 99 192 99Q211 99 219 114.5Q227 130 230 152L352 136Q347 106 335 80Q323 54 303.5 34.5Q284 15 256 3.5Q228 -8 192 -8Q100 -8 56 48.5Q12 105 12 212ZM67 611H178V482H67ZM202 611H313V482H202Z" glyph-name="edieresis" horiz-adv-x="370" unicode="&#235;" /><glyph d="M223 270Q223 308 216.5 327.5Q210 347 188 347Q165 347 158 327.5Q151 308 151 270ZM12 234Q12 282 21.5 322Q31 362 52 391.5Q73 421 106.5 437.5Q140 454 188 454Q235 454 267.5 437.5Q300 421 320 392Q340 363 349 323Q358 283 358 235V189H151V169Q151 137 159.5 118Q168 99 192 99Q211 99 219 114.5Q227 130 230 152L352 136Q347 106 335 80Q323 54 303.5 34.5Q284 15 256 3.5Q228 -8 192 -8Q100 -8 56 48.5Q12 105 12 212ZM121 630H260V490H121Z" glyph-name="edotaccent" horiz-adv-x="370" unicode="&#279;" /><glyph d="M223 270Q223 308 216.5 327.5Q210 347 188 347Q165 347 158 327.5Q151 308 151 270ZM12 234Q12 282 21.5 322Q31 362 52 391.5Q73 421 106.5 437.5Q140 454 188 454Q235 454 267.5 437.5Q300 421 320 392Q340 363 349 323Q358 283 358 235V189H151V169Q151 137 159.5 118Q168 99 192 99Q211 99 219 114.5Q227 130 230 152L352 136Q347 106 335 80Q323 54 303.5 34.5Q284 15 256 3.5Q228 -8 192 -8Q100 -8 56 48.5Q12 105 12 212ZM148 483 55 626H197L246 483Z" glyph-name="egrave" horiz-adv-x="370" unicode="&#232;" /><glyph d="M204 367Q231 367 243 388.5Q255 410 255 446Q255 483 243 504Q231 525 204 525Q177 525 165 504Q153 483 153 446Q153 410 165 388.5Q177 367 204 367ZM204 106Q255 106 255 184Q255 263 204 263Q153 263 153 184Q153 106 204 106ZM204 -8Q104 -8 58 42Q12 92 12 175Q12 231 33.5 267Q55 303 93 316Q55 329 34.5 365.5Q14 402 14 455Q14 496 25 530Q36 564 59 588Q82 612 118 625Q154 638 204 638Q254 638 290 625Q326 612 349 588Q372 564 383 530Q394 496 394 455Q394 402 372 365.5Q350 329 312 316Q350 303 373 267Q396 231 396 175Q396 92 350 42Q304 -8 204 -8Z" glyph-name="eight" horiz-adv-x="408" unicode="8" /><glyph d="M18 143H161V0H18ZM187 143H330V0H187ZM356 143H499V0H356Z" glyph-name="ellipsis" horiz-adv-x="517" unicode="&#8230;" /><glyph d="M223 270Q223 308 216.5 327.5Q210 347 188 347Q165 347 158 327.5Q151 308 151 270ZM12 234Q12 282 21.5 322Q31 362 52 391.5Q73 421 106.5 437.5Q140 454 188 454Q235 454 267.5 437.5Q300 421 320 392Q340 363 349 323Q358 283 358 235V189H151V169Q151 137 159.5 118Q168 99 192 99Q211 99 219 114.5Q227 130 230 152L352 136Q347 106 335 80Q323 54 303.5 34.5Q284 15 256 3.5Q228 -8 192 -8Q100 -8 56 48.5Q12 105 12 212ZM86 584H294V488H86Z" glyph-name="emacron" horiz-adv-x="370" unicode="&#275;" /><glyph d="M18 302H370V207H18Z" glyph-name="emdash" horiz-adv-x="388" unicode="&#8212;" /><glyph d="M18 362H370V267H18Z" glyph-name="emdash.cap" horiz-adv-x="388" /><glyph d="M18 302H248V207H18Z" glyph-name="endash" horiz-adv-x="266" unicode="&#8211;" /><glyph d="M18 362H248V267H18Z" glyph-name="endash.cap" horiz-adv-x="266" /><glyph d="M161 0H21V446H161V396Q172 421 198 437.5Q224 454 261 454Q292 454 312.5 443.5Q333 433 345.5 416Q358 399 363.5 377.5Q369 356 369 335V-45Q369 -108 338 -141Q307 -174 247 -174Q196 -174 162 -154L173 -65Q187 -72 201 -72Q218 -72 223.5 -64.5Q229 -57 229 -42V294Q229 335 199 335Q178 335 169.5 317Q161 299 161 273Z" glyph-name="eng" horiz-adv-x="390" unicode="&#331;" /><glyph d="M223 270Q223 308 216.5 327.5Q210 347 188 347Q165 347 158 327.5Q151 308 151 270ZM278 11Q253 -9 242 -24Q231 -39 231 -56Q231 -68 237 -75.5Q243 -83 253 -83Q265 -83 282 -75V-150Q271 -158 256.5 -162.5Q242 -167 221 -167Q190 -167 167 -149.5Q144 -132 144 -93Q144 -46 183 -8Q96 -4 54 52Q12 108 12 212V234Q12 282 21.5 322Q31 362 52 391.5Q73 421 106.5 437.5Q140 454 188 454Q235 454 267.5 437.5Q300 421 320 392Q340 363 349 323Q358 283 358 235V189H151V169Q152 137 160 118Q168 99 192 99Q211 99 219 114.5Q227 130 230 152L352 136Q346 98 327 64.5Q308 31 278 11Z" glyph-name="eogonek" horiz-adv-x="370" unicode="&#281;" /><glyph d="M38 270H413V185H38ZM38 425H413V337H38Z" glyph-name="equal" horiz-adv-x="451" unicode="=" /><glyph d="M48 513 115 537Q100 551 83.5 564.5Q67 578 50 589L172 638Q208 611 236 582L318 612L342 544L284 522Q325 460 345.5 388.5Q366 317 366 242V212Q366 164 356 124Q346 84 325 54.5Q304 25 270.5 8.5Q237 -8 189 -8Q141 -8 107.5 8.5Q74 25 53 54.5Q32 84 22 124Q12 164 12 212V234Q12 321 51 375.5Q90 430 166 430Q192 430 207 420Q194 447 169 480L72 445ZM152 169Q152 137 159 118.5Q166 100 189 100Q212 100 219 118.5Q226 137 226 169V254Q226 286 219 304.5Q212 323 189 323Q166 323 159 304.5Q152 286 152 254Z" glyph-name="eth" horiz-adv-x="378" unicode="&#240;" /><glyph d="M165 143V0H23V143ZM51 198 18 464V630H170V464L137 198Z" glyph-name="exclam" horiz-adv-x="188" unicode="!" /><glyph d="M23 375V518H165V375ZM137 320 170 54V-112H18V54L51 320Z" glyph-name="exclamdown" horiz-adv-x="188" unicode="&#161;" /><glyph d="M165 487.0087V630H23V487.0087ZM51 432.0121 18 166.0283V0.0385H170V166.0283L137 432.0121Z" glyph-name="exclamdown.cap" horiz-adv-x="188" /><glyph d="M246 525Q236 529 229 530.5Q222 532 211 532Q191 532 185.5 522Q180 512 180 495V446H237V349H180V0H41V349H0V446H41V494Q41 560 75.5 599Q110 638 181 638Q207 638 223.5 634.5Q240 631 254 626Z" glyph-name="f" horiz-adv-x="241" unicode="f" /><glyph d="M232 525Q218 532 206 532Q189 532 184.5 522Q180 512 180 495V446H232V349H180V0H41V349H0V446H41V494Q41 560 74 599Q107 638 170 638Q190 638 204 634.5Q218 631 232 626ZM395 171Q395 142 403 126.5Q411 111 433 111Q469 111 469 171V275Q469 335 433 335Q411 335 403 319.5Q395 304 395 275ZM395 396Q406 420 430 437Q454 454 489 454Q524 454 547.5 439.5Q571 425 585.5 399Q600 373 606 336.5Q612 300 612 256V190Q612 146 606 109.5Q600 73 585.5 47Q571 21 547.5 6.5Q524 -8 489 -8Q454 -8 430 9Q406 26 395 50L385 0H255V630H395Z" glyph-name="f_b" horiz-adv-x="627" /><glyph d="M255 494Q255 560 288 599Q321 638 384 638Q404 638 418 634.5Q432 631 446 626V525Q432 532 420 532Q403 532 398.5 522Q394 512 394 495V446H446V349H394V0H255V349H180V0H41V349H0V446H41V486Q41 552 75 591Q109 630 178 630Q200 630 215 626.5Q230 623 244 618L236 519Q230 522 223.5 523Q217 524 211 524Q191 524 185.5 514Q180 504 180 487V446H255ZM609 171Q609 142 617 126.5Q625 111 647 111Q683 111 683 171V275Q683 335 647 335Q625 335 617 319.5Q609 304 609 275ZM609 396Q620 420 644 437Q668 454 703 454Q738 454 761.5 439.5Q785 425 799.5 399Q814 373 820 336.5Q826 300 826 256V190Q826 146 820 109.5Q814 73 799.5 47Q785 21 761.5 6.5Q738 -8 703 -8Q668 -8 644 9Q620 26 609 50L599 0H469V630H609Z" glyph-name="f_f_b" horiz-adv-x="841" /><glyph d="M255 494Q255 560 288 599Q321 638 384 638Q404 638 418 634.5Q432 631 446 626V525Q432 532 420 532Q403 532 398.5 522Q394 512 394 495V446H446V349H394V0H255V349H180V0H41V349H0V446H41V486Q41 552 75 591Q109 630 178 630Q200 630 215 626.5Q230 623 244 618L236 519Q230 522 223.5 523Q217 524 211 524Q191 524 185.5 514Q180 504 180 487V446H255ZM609 0H469V630H609V396Q620 421 646 437.5Q672 454 709 454Q740 454 760.5 443.5Q781 433 793.5 416Q806 399 811.5 377.5Q817 356 817 335V0H677V294Q677 335 647 335Q626 335 617.5 317Q609 299 609 273Z" glyph-name="f_f_h" horiz-adv-x="838" /><glyph d="M255 494Q255 560 288 599Q321 638 384 638Q404 638 418 634.5Q432 631 446 626V525Q432 532 420 532Q403 532 398.5 522Q394 512 394 495V446H446V349H394V0H255V349H180V0H41V349H0V446H41V486Q41 552 75 591Q109 630 178 630Q200 630 215 626.5Q230 623 244 618L236 519Q230 522 223.5 523Q217 524 211 524Q191 524 185.5 514Q180 504 180 487V446H255ZM609 -39Q609 -102 578.5 -135Q548 -168 487 -168Q436 -168 402 -148L413 -59Q427 -66 441 -66Q458 -66 463.5 -58.5Q469 -51 469 -36V446H609ZM469 630H609V490H469Z" glyph-name="f_f_j" horiz-adv-x="630" /><glyph d="M255 494Q255 560 288 599Q321 638 384 638Q404 638 418 634.5Q432 631 446 626V525Q432 532 420 532Q403 532 398.5 522Q394 512 394 495V446H446V349H394V0H255V349H180V0H41V349H0V446H41V486Q41 552 75 591Q109 630 178 630Q200 630 215 626.5Q230 623 244 618L236 519Q230 522 223.5 523Q217 524 211 524Q191 524 185.5 514Q180 504 180 487V446H255ZM609 0H469V630H609V265L706 446H835L740 262L837 0H691L634 155L609 103Z" glyph-name="f_f_k" horiz-adv-x="837" /><glyph d="M232 525Q218 532 206 532Q189 532 184.5 522Q180 512 180 495V446H232V349H180V0H41V349H0V446H41V494Q41 560 74 599Q107 638 170 638Q190 638 204 634.5Q218 631 232 626ZM395 0H255V630H395V396Q406 421 432 437.5Q458 454 495 454Q526 454 546.5 443.5Q567 433 579.5 416Q592 399 597.5 377.5Q603 356 603 335V0H463V294Q463 335 433 335Q412 335 403.5 317Q395 299 395 273Z" glyph-name="f_h" horiz-adv-x="624" /><glyph d="M232 525Q218 532 206 532Q189 532 184.5 522Q180 512 180 495V446H232V349H180V0H41V349H0V446H41V494Q41 560 74 599Q107 638 170 638Q190 638 204 634.5Q218 631 232 626ZM395 -39Q395 -102 364.5 -135Q334 -168 273 -168Q222 -168 188 -148L199 -59Q213 -66 227 -66Q244 -66 249.5 -58.5Q255 -51 255 -36V446H395ZM255 630H395V490H255Z" glyph-name="f_j" horiz-adv-x="416" /><glyph d="M232 525Q218 532 206 532Q189 532 184.5 522Q180 512 180 495V446H232V349H180V0H41V349H0V446H41V494Q41 560 74 599Q107 638 170 638Q190 638 204 634.5Q218 631 232 626ZM395 0H255V630H395V265L492 446H621L526 262L623 0H477L420 155L395 103Z" glyph-name="f_k" horiz-adv-x="623" /><glyph d="M461 525Q451 529 444 530.5Q437 532 426 532Q406 532 400.5 522Q395 512 395 495V446H452V349H395V0H256V349H180V0H41V349H0V446H41V486Q41 552 75 591Q109 630 178 630Q200 630 215 626.5Q230 623 244 618L236 519Q230 522 223.5 523Q217 524 211 524Q191 524 185.5 514Q180 504 180 487V446H256V494Q256 560 290.5 599Q325 638 396 638Q422 638 438.5 634.5Q455 631 469 626Z" glyph-name="ff" horiz-adv-x="456" unicode="&#64256;" /><glyph d="M255 494Q255 560 288 599Q321 638 384 638Q404 638 418 634.5Q432 631 446 626V525Q432 532 420 532Q403 532 398.5 522Q394 512 394 495V446H446V349H394V0H255V349H180V0H41V349H0V446H41V486Q41 552 75 591Q109 630 178 630Q200 630 215 626.5Q230 623 244 618L236 519Q230 522 223.5 523Q217 524 211 524Q191 524 185.5 514Q180 504 180 487V446H255ZM609 446V0H469V446ZM469 630H609V490H469Z" glyph-name="ffi" horiz-adv-x="630" unicode="&#64259;" /><glyph d="M255 494Q255 560 288 599Q321 638 384 638Q404 638 418 634.5Q432 631 446 626V525Q432 532 420 532Q403 532 398.5 522Q394 512 394 495V446H446V349H394V0H255V349H180V0H41V349H0V446H41V486Q41 552 75 591Q109 630 178 630Q200 630 215 626.5Q230 623 244 618L236 519Q230 522 223.5 523Q217 524 211 524Q191 524 185.5 514Q180 504 180 487V446H255ZM609 630V0H469V630Z" glyph-name="ffl" horiz-adv-x="630" unicode="&#64260;" /><glyph d="M232 525Q218 532 206 532Q189 532 184.5 522Q180 512 180 495V446H232V349H180V0H41V349H0V446H41V494Q41 560 74 599Q107 638 170 638Q190 638 204 634.5Q218 631 232 626ZM395 446V0H255V446ZM255 630H395V490H255Z" glyph-name="fi" horiz-adv-x="416" unicode="&#64257;" /><glyph d="M20 274Q25 309 30 354.5Q35 400 39.5 448Q44 496 47 543.5Q50 591 51 630H368V501H162Q161 490 160 475.5Q159 461 158 445.5Q157 430 155.5 416Q154 402 153 393Q167 409 187.5 418Q208 427 240 427Q314 427 354 374Q394 321 394 212Q394 104 343.5 48Q293 -8 200 -8Q109 -8 62.5 42.5Q16 93 11 178L144 191Q146 156 158.5 132.5Q171 109 200 109Q229 109 242 133Q255 157 255 212Q255 266 242.5 289.5Q230 313 201 313Q180 313 168 299Q156 285 150 263L20 274Z" glyph-name="five" horiz-adv-x="406" unicode="5" /><glyph d="M232 525Q218 532 206 532Q189 532 184.5 522Q180 512 180 495V446H232V349H180V0H41V349H0V446H41V494Q41 560 74 599Q107 638 170 638Q190 638 204 634.5Q218 631 232 626ZM395 630V0H255V630Z" glyph-name="fl" horiz-adv-x="416" unicode="&#64258;" /><glyph d="M248 373H315V256H230L193 21Q180 -60 138.5 -97Q97 -134 34 -134Q15 -134 -10 -129V-12Q-5 -14 -0.5 -14Q4 -14 9 -14Q38 -14 47.5 8.5Q57 31 64 72L93 256H37V373H112L129 480Q142 561 182 599.5Q222 638 285 638Q308 638 337 630V513Q332 514 327.5 514.5Q323 515 318 515Q288 515 276 492Q264 469 257 429Z" glyph-name="florin" horiz-adv-x="357" unicode="&#402;" /><glyph d="M375 240H436V126H375V0H234V126H5V233L234 630H375ZM125 240H234V433Z" glyph-name="four" horiz-adv-x="445" unicode="4" /><glyph d="M323 630H413L90 0H0Z" glyph-name="fraction" horiz-adv-x="413" unicode="&#8260;" /><glyph d="M177 150Q151 150 127 156Q123 149 123 140Q123 128 130.5 121Q138 114 158 114H231Q300 114 339 81.5Q378 49 378 -12Q378 -54 362 -83.5Q346 -113 318 -131.5Q290 -150 252 -159Q214 -168 171 -168Q135 -168 102.5 -161.5Q70 -155 46 -142Q22 -129 7.5 -109Q-7 -89 -7 -62Q-7 -28 14 -10.5Q35 7 64 15Q39 23 25 44Q11 65 11 93Q11 123 28 144Q45 165 72 179Q44 198 27.5 227.5Q11 257 11 297V308Q11 343 24 370Q37 397 59.5 416Q82 435 112 444.5Q142 454 177 454Q205 454 231.5 446.5Q258 439 280 425Q296 450 320 467Q344 484 370 484V368Q354 368 332 363Q343 338 343 308V297Q343 262 330 234.5Q317 207 294.5 188.5Q272 170 241.5 160Q211 150 177 150ZM105 -40Q105 -59 124.5 -69Q144 -79 173 -79Q210 -79 230.5 -69.5Q251 -60 251 -39Q251 -25 240.5 -18Q230 -11 213 -11H141Q105 -11 105 -40ZM177 247Q195 247 201.5 261Q208 275 208 295V310Q208 330 201.5 344Q195 358 177 358Q159 358 152.5 344Q146 330 146 310V295Q146 275 152.5 261Q159 247 177 247Z" glyph-name="g" horiz-adv-x="370" unicode="g" /><glyph d="M177 150Q151 150 127 156Q123 149 123 140Q123 128 130.5 121Q138 114 158 114H231Q300 114 339 81.5Q378 49 378 -12Q378 -54 362 -83.5Q346 -113 318 -131.5Q290 -150 252 -159Q214 -168 171 -168Q135 -168 102.5 -161.5Q70 -155 46 -142Q22 -129 7.5 -109Q-7 -89 -7 -62Q-7 -28 14 -10.5Q35 7 64 15Q39 23 25 44Q11 65 11 93Q11 123 28 144Q45 165 72 179Q44 198 27.5 227.5Q11 257 11 297V308Q11 343 24 370Q37 397 59.5 416Q82 435 112 444.5Q142 454 177 454Q205 454 231.5 446.5Q258 439 280 425Q296 450 320 467Q344 484 370 484V368Q354 368 332 363Q343 338 343 308V297Q343 262 330 234.5Q317 207 294.5 188.5Q272 170 241.5 160Q211 150 177 150ZM105 -40Q105 -59 124.5 -69Q144 -79 173 -79Q210 -79 230.5 -69.5Q251 -60 251 -39Q251 -25 240.5 -18Q230 -11 213 -11H141Q105 -11 105 -40ZM177 247Q195 247 201.5 261Q208 275 208 295V310Q208 330 201.5 344Q195 358 177 358Q159 358 152.5 344Q146 330 146 310V295Q146 275 152.5 261Q159 247 177 247ZM186 474Q155 474 132.5 484.5Q110 495 95 513.5Q80 532 73 557.5Q66 583 66 612H153Q153 586 162 575Q171 564 186 564Q201 564 210 575Q219 586 219 612H306Q306 583 299 557.5Q292 532 277 513.5Q262 495 239.5 484.5Q217 474 186 474Z" glyph-name="gbreve" horiz-adv-x="370" unicode="&#287;" /><glyph d="M177 150Q151 150 127 156Q123 149 123 140Q123 128 130.5 121Q138 114 158 114H231Q300 114 339 81.5Q378 49 378 -12Q378 -54 362 -83.5Q346 -113 318 -131.5Q290 -150 252 -159Q214 -168 171 -168Q135 -168 102.5 -161.5Q70 -155 46 -142Q22 -129 7.5 -109Q-7 -89 -7 -62Q-7 -28 14 -10.5Q35 7 64 15Q39 23 25 44Q11 65 11 93Q11 123 28 144Q45 165 72 179Q44 198 27.5 227.5Q11 257 11 297V308Q11 343 24 370Q37 397 59.5 416Q82 435 112 444.5Q142 454 177 454Q205 454 231.5 446.5Q258 439 280 425Q296 450 320 467Q344 484 370 484V368Q354 368 332 363Q343 338 343 308V297Q343 262 330 234.5Q317 207 294.5 188.5Q272 170 241.5 160Q211 150 177 150ZM105 -40Q105 -59 124.5 -69Q144 -79 173 -79Q210 -79 230.5 -69.5Q251 -60 251 -39Q251 -25 240.5 -18Q230 -11 213 -11H141Q105 -11 105 -40ZM177 247Q195 247 201.5 261Q208 275 208 295V310Q208 330 201.5 344Q195 358 177 358Q159 358 152.5 344Q146 330 146 310V295Q146 275 152.5 261Q159 247 177 247ZM250 616 311 478H222L186 538L150 478H61L122 616Z" glyph-name="gcircumflex" horiz-adv-x="370" unicode="&#285;" /><glyph d="M177 150Q151 150 127 156Q123 149 123 140Q123 128 130.5 121Q138 114 158 114H231Q300 114 339 81.5Q378 49 378 -12Q378 -54 362 -83.5Q346 -113 318 -131.5Q290 -150 252 -159Q214 -168 171 -168Q135 -168 102.5 -161.5Q70 -155 46 -142Q22 -129 7.5 -109Q-7 -89 -7 -62Q-7 -28 14 -10.5Q35 7 64 15Q39 23 25 44Q11 65 11 93Q11 123 28 144Q45 165 72 179Q44 198 27.5 227.5Q11 257 11 297V308Q11 343 24 370Q37 397 59.5 416Q82 435 112 444.5Q142 454 177 454Q205 454 231.5 446.5Q258 439 280 425Q296 450 320 467Q344 484 370 484V368Q354 368 332 363Q343 338 343 308V297Q343 262 330 234.5Q317 207 294.5 188.5Q272 170 241.5 160Q211 150 177 150ZM105 -40Q105 -59 124.5 -69Q144 -79 173 -79Q210 -79 230.5 -69.5Q251 -60 251 -39Q251 -25 240.5 -18Q230 -11 213 -11H141Q105 -11 105 -40ZM177 247Q195 247 201.5 261Q208 275 208 295V310Q208 330 201.5 344Q195 358 177 358Q159 358 152.5 344Q146 330 146 310V295Q146 275 152.5 261Q159 247 177 247ZM250 487H122V558Q122 612 153.5 637Q185 662 250 662V614Q224 614 212.5 607Q201 600 200 580H250Z" glyph-name="gcommaaccent" horiz-adv-x="370" unicode="&#291;" /><glyph d="M177 150Q151 150 127 156Q123 149 123 140Q123 128 130.5 121Q138 114 158 114H231Q300 114 339 81.5Q378 49 378 -12Q378 -54 362 -83.5Q346 -113 318 -131.5Q290 -150 252 -159Q214 -168 171 -168Q135 -168 102.5 -161.5Q70 -155 46 -142Q22 -129 7.5 -109Q-7 -89 -7 -62Q-7 -28 14 -10.5Q35 7 64 15Q39 23 25 44Q11 65 11 93Q11 123 28 144Q45 165 72 179Q44 198 27.5 227.5Q11 257 11 297V308Q11 343 24 370Q37 397 59.5 416Q82 435 112 444.5Q142 454 177 454Q205 454 231.5 446.5Q258 439 280 425Q296 450 320 467Q344 484 370 484V368Q354 368 332 363Q343 338 343 308V297Q343 262 330 234.5Q317 207 294.5 188.5Q272 170 241.5 160Q211 150 177 150ZM105 -40Q105 -59 124.5 -69Q144 -79 173 -79Q210 -79 230.5 -69.5Q251 -60 251 -39Q251 -25 240.5 -18Q230 -11 213 -11H141Q105 -11 105 -40ZM177 247Q195 247 201.5 261Q208 275 208 295V310Q208 330 201.5 344Q195 358 177 358Q159 358 152.5 344Q146 330 146 310V295Q146 275 152.5 261Q159 247 177 247ZM117 630H256V490H117Z" glyph-name="gdotaccent" horiz-adv-x="370" unicode="&#289;" /><glyph d="M374 472Q374 427 357 391.5Q340 356 314 342Q349 327 371 287.5Q393 248 393 180Q393 136 381.5 102Q370 68 349.5 44.5Q329 21 301 8.5Q273 -4 240 -4Q207 -4 185 4L190 111Q197 109 200.5 108.5Q204 108 208 108Q239 108 251.5 132Q264 156 264 192Q264 230 250 252Q236 274 207 274Q203 274 198 274Q193 274 188 272V397Q193 396 196.5 396Q200 396 207 396Q227 396 238 410.5Q249 425 249 457Q249 483 239 501.5Q229 520 206 520Q180 520 170.5 499.5Q161 479 161 446V0H21V429Q21 524 66.5 581Q112 638 207 638Q242 638 272.5 627Q303 616 325.5 595Q348 574 361 543Q374 512 374 472Z" glyph-name="germandbls" horiz-adv-x="400" unicode="&#223;" /><glyph d="M197 483 104 626H246L295 483Z" glyph-name="grave" horiz-adv-x="400" unicode="`" /><glyph d="M197 661 104 804H246L295 661Z" glyph-name="grave.cap" horiz-adv-x="400" /><glyph d="M314 235 29 114V224L227 301L29 377V487L314 366Z" glyph-name="greater" horiz-adv-x="336" unicode="&gt;" /><glyph d="M315 93H29V188H315ZM315 297 29 203V307L218 361L29 413V518L315 425Z" glyph-name="greaterequal" horiz-adv-x="344" unicode="&#8805;" /><glyph d="M20 298 199 423V287L117 226L199 165V29L20 154ZM221 298 400 423V287L318 226L400 165V29L221 154Z" glyph-name="guillemotleft" horiz-adv-x="420" unicode="&#171;" /><glyph d="M20 390 199 515V379L117 318L199 257V121L20 246ZM221 390 400 515V379L318 318L400 257V121L221 246Z" glyph-name="guillemotleft.cap" horiz-adv-x="420" /><glyph d="M199 154 20 29V165L102 226L20 287V423L199 298ZM400 154 221 29V165L303 226L221 287V423L400 298Z" glyph-name="guillemotright" horiz-adv-x="420" unicode="&#187;" /><glyph d="M199 246 20 121V257L102 318L20 379V515L199 390ZM400 246 221 121V257L303 318L221 379V515L400 390Z" glyph-name="guillemotright.cap" horiz-adv-x="420" /><glyph d="M20 298 199 423V287L117 226L199 165V29L20 154Z" glyph-name="guilsinglleft" horiz-adv-x="219" unicode="&#8249;" /><glyph d="M20 390 199 515V379L117 318L199 257V121L20 246Z" glyph-name="guilsinglleft.cap" horiz-adv-x="219" /><glyph d="M199 154 20 29V165L102 226L20 287V423L199 298Z" glyph-name="guilsinglright" horiz-adv-x="219" unicode="&#8250;" /><glyph d="M199 246 20 121V257L102 318L20 379V515L199 390Z" glyph-name="guilsinglright.cap" horiz-adv-x="219" /><glyph d="M161 0H21V630H161V396Q172 421 198 437.5Q224 454 261 454Q292 454 312.5 443.5Q333 433 345.5 416Q358 399 363.5 377.5Q369 356 369 335V0H229V294Q229 335 199 335Q178 335 169.5 317Q161 299 161 273Z" glyph-name="h" horiz-adv-x="390" unicode="h" /><glyph d="M0 573H28V630H168V573H238V488H168V396Q179 421 205 437.5Q231 454 268 454Q299 454 319.5 443.5Q340 433 352.5 416Q365 399 370.5 377.5Q376 356 376 335V0H236V294Q236 335 206 335Q185 335 176.5 317Q168 299 168 273V0H28V488H0Z" glyph-name="hbar" horiz-adv-x="397" unicode="&#295;" /><glyph d="M161 0H21V630H161V396Q172 421 198 437.5Q224 454 261 454Q292 454 312.5 443.5Q333 433 345.5 416Q358 399 363.5 377.5Q369 356 369 335V0H229V294Q229 335 199 335Q178 335 169.5 317Q161 299 161 273ZM260 794 321 656H232L196 716L160 656H71L132 794Z" glyph-name="hcircumflex" horiz-adv-x="390" unicode="&#293;" /><glyph d="M66 483 99 630H222L146 483ZM202 483 235 630H358L282 483Z" glyph-name="hungarumlaut" horiz-adv-x="400" unicode="&#733;" /><glyph d="M66 661 99 808H222L146 661ZM202 661 235 808H358L282 661Z" glyph-name="hungarumlaut.cap" horiz-adv-x="400" /><glyph d="M18 317H196V195H18Z" glyph-name="hyphen" horiz-adv-x="214" unicode="-" /><glyph d="M18 377H196V255H18Z" glyph-name="hyphen.cap" horiz-adv-x="214" /><glyph d="M161 446V0H21V446ZM21 630H161V490H21Z" glyph-name="i" horiz-adv-x="182" unicode="i" /><glyph d="M161 446V0H21V446ZM39 483 89 626H230L138 483Z" glyph-name="iacute" horiz-adv-x="182" unicode="&#237;" /><glyph d="M91 474Q60 474 39 484.5Q18 495 5 513.5Q-8 532 -13.5 557.5Q-19 583 -19 612H68Q68 586 73 575Q78 564 91 564Q104 564 109 575Q114 586 114 612H201Q201 583 195.5 557.5Q190 532 177 513.5Q164 495 143 484.5Q122 474 91 474ZM161 446V0H21V446Z" glyph-name="ibreve" horiz-adv-x="182" unicode="&#301;" /><glyph d="M155 616 206 478H117L91 538L65 478H-24L27 616ZM161 446V0H21V446Z" glyph-name="icircumflex" horiz-adv-x="182" unicode="&#238;" /><glyph d="M161 446V0H21V446ZM-24.3801 611.7361H80.3057V481.7362H-24.3801ZM102.9404 611.7361H207.6262V481.7362H102.9404Z" glyph-name="idieresis" horiz-adv-x="182" unicode="&#239;" /><glyph d="M161 446V0H21V446ZM23 630H162V490H23Z" glyph-name="idotaccent" horiz-adv-x="182" /><glyph d="M161 446V0H21V446ZM50 483 -43 626H99L148 483Z" glyph-name="igrave" horiz-adv-x="182" unicode="&#236;" /><glyph d="M161 446V0H21V446ZM21 630H161V490H21ZM333 -39Q333 -102 302.5 -135Q272 -168 211 -168Q160 -168 126 -148L137 -59Q151 -66 165 -66Q182 -66 187.5 -58.5Q193 -51 193 -36V446H333ZM193 630H333V490H193Z" glyph-name="ij" horiz-adv-x="354" unicode="&#307;" /><glyph d="M161 446V0H21V446ZM1 584H183V488H1Z" glyph-name="imacron" horiz-adv-x="182" unicode="&#299;" /><glyph d="M21 630H161V490H21ZM21 0V446H161V0Q134 -17 122 -32.5Q110 -48 110 -62Q110 -83 132 -83Q144 -83 161 -75V-150Q150 -158 135.5 -162.5Q121 -167 100 -167Q69 -167 46 -149.5Q23 -132 23 -93Q23 -65 36.5 -43Q50 -21 72 0Z" glyph-name="iogonek" horiz-adv-x="182" unicode="&#303;" /><glyph d="M-30 481Q-30 543 -16 581Q-2 619 35 619Q49 619 61 613Q73 607 84 600.5Q95 594 105 588Q115 582 126 582Q143 582 146 616H212Q212 554 198 516Q184 478 147 478Q133 478 121 484Q109 490 98 496.5Q87 503 76.5 509Q66 515 56 515Q39 515 36 481ZM161 446V0H21V446Z" glyph-name="itilde" horiz-adv-x="182" unicode="&#297;" /><glyph d="M161 -39Q161 -102 130.5 -135Q100 -168 39 -168Q-12 -168 -46 -148L-35 -59Q-21 -66 -7 -66Q10 -66 15.5 -58.5Q21 -51 21 -36V446H161ZM21 630H161V490H21Z" glyph-name="j" horiz-adv-x="182" unicode="j" /><glyph d="M155 616 206 478H117L91 538L65 478H-24L27 616ZM161 -39Q161 -102 130 -135Q99 -168 39 -168Q-12 -168 -46 -148L-35 -59Q-21 -66 -7 -66Q10 -66 15.5 -58.5Q21 -51 21 -36V446H161Z" glyph-name="jcircumflex" horiz-adv-x="182" unicode="&#309;" /><glyph d="M161 0H21V630H161V265L258 446H387L292 262L389 0H243L186 155L161 103Z" glyph-name="k" horiz-adv-x="389" unicode="k" /><glyph d="M161 0H21V630H161V265L258 446H387L292 262L389 0H243L186 155L161 103ZM141 -26H269V-97Q269 -151 237.5 -176Q206 -201 141 -201V-153Q167 -153 178.5 -146Q190 -139 191 -119H141Z" glyph-name="kcommaaccent" horiz-adv-x="389" unicode="&#311;" /><glyph d="M161 0H21V446H161V265L258 446H387L292 262L389 0H243L186 155L161 103Z" glyph-name="kgreenlandic" horiz-adv-x="389" unicode="&#312;" /><glyph d="M161 630V0H21V630Z" glyph-name="l" horiz-adv-x="182" unicode="l" /><glyph d="M161 630V0H21V630ZM41 661 91 804H232L140 661Z" glyph-name="lacute" horiz-adv-x="182" unicode="&#314;" /><glyph d="M161 630V0H21V630ZM178 486 192 630H330L265 486Z" glyph-name="lcaron" horiz-adv-x="182" unicode="&#318;" /><glyph d="M161 630V0H21V630ZM28 -26H156V-97Q156 -151 124.5 -176Q93 -201 28 -201V-153Q54 -153 65.5 -146Q77 -139 78 -119H28Z" glyph-name="lcommaaccent" horiz-adv-x="182" unicode="&#316;" /><glyph d="M161 630V0H21V630ZM185.0024 381H313.3127V241H185.0024Z" glyph-name="ldot" horiz-adv-x="316" unicode="&#320;" /><glyph d="M22 366 308 487V377L109 301L308 224V114L22 235Z" glyph-name="less" horiz-adv-x="336" unicode="&lt;" /><glyph d="M29 188H315V93H29ZM29 425 315 518V413L124 361L315 307V203L29 297Z" glyph-name="lessequal" horiz-adv-x="344" unicode="&#8804;" /><glyph d="M5 319 37 335V630H177V396L209 412V317L177 299V0H37V234L5 216Z" glyph-name="lslash" horiz-adv-x="214" unicode="&#322;" /><glyph d="M431 293Q431 335 402 335Q380 335 373 317Q366 299 366 273V0H226V293Q226 335 197 335Q175 335 168 317Q161 299 161 273V0H21V446H161V395Q172 421 198 437.5Q224 454 264 454Q306 454 328 436Q350 418 358 391Q370 419 399 436.5Q428 454 465 454Q494 454 514.5 445Q535 436 547.5 420Q560 404 565.5 382.5Q571 361 571 336V0H431Z" glyph-name="m" horiz-adv-x="592" unicode="m" /><glyph d="M96 584H304V488H96Z" glyph-name="macron" horiz-adv-x="400" unicode="&#175;" /><glyph d="M96 762H304V666H96Z" glyph-name="macron.cap" horiz-adv-x="400" /><glyph d="M30 350H405V254H30Z" glyph-name="minus" horiz-adv-x="435" unicode="&#8722;" /><glyph d="M23 401 88 467 188 366 289 467 354 401 254 301 354 201 289 136 188 236 88 136 23 201 124 301Z" glyph-name="multiply" horiz-adv-x="377" unicode="&#215;" /><glyph d="M161 0H21V446H161V396Q172 421 198 437.5Q224 454 261 454Q292 454 312.5 443.5Q333 433 345.5 416Q358 399 363.5 377.5Q369 356 369 335V0H229V294Q229 335 199 335Q178 335 169.5 317Q161 299 161 273Z" glyph-name="n" horiz-adv-x="390" unicode="n" /><glyph d="M161 0H21V446H161V396Q172 421 198 437.5Q224 454 261 454Q292 454 312.5 443.5Q333 433 345.5 416Q358 399 363.5 377.5Q369 356 369 335V0H229V294Q229 335 199 335Q178 335 169.5 317Q161 299 161 273ZM142 483 192 626H333L241 483Z" glyph-name="nacute" horiz-adv-x="390" unicode="&#324;" /><glyph d="M161 0H21V446H161V396Q172 421 198 437.5Q224 454 261 454Q292 454 312.5 443.5Q333 433 345.5 416Q358 399 363.5 377.5Q369 356 369 335V0H229V294Q229 335 199 335Q178 335 169.5 317Q161 299 161 273ZM132 481 71 619H160L196 559L232 619H321L260 481Z" glyph-name="ncaron" horiz-adv-x="390" unicode="&#328;" /><glyph d="M161 0H21V446H161V396Q172 421 198 437.5Q224 454 261 454Q292 454 312.5 443.5Q333 433 345.5 416Q358 399 363.5 377.5Q369 356 369 335V0H229V294Q229 335 199 335Q178 335 169.5 317Q161 299 161 273ZM132 -26H260V-97Q260 -151 228.5 -176Q197 -201 132 -201V-153Q158 -153 169.5 -146Q181 -139 182 -119H132Z" glyph-name="ncommaaccent" horiz-adv-x="390" unicode="&#326;" /><glyph d="M263 427Q263 473 250 496.5Q237 520 208 520Q179 520 166 496.5Q153 473 153 427Q153 381 166 357.5Q179 334 208 334Q237 334 250 357.5Q263 381 263 427ZM199 -8Q119 -8 73.5 37.5Q28 83 20 158L147 182Q150 153 162 132Q174 111 202 111Q219 111 230.5 121Q242 131 249 149Q256 167 259 191Q262 215 262 242V272Q247 252 223 240.5Q199 229 164 229Q127 229 99 243.5Q71 258 51.5 284Q32 310 22 346.5Q12 383 12 427Q12 474 24.5 513Q37 552 61.5 579.5Q86 607 122.5 622.5Q159 638 206 638Q309 638 357 562.5Q405 487 405 352V281Q405 145 356 68.5Q307 -8 199 -8Z" glyph-name="nine" horiz-adv-x="417" unicode="9" /><glyph glyph-name="nonmarkingreturn" horiz-adv-x="221" unicode="" /><glyph d="M38 423H260L312 504H391L339 423H413V339H286L242 269H413V185H189L138 104H59L110 185H38V269H163L207 339H38Z" glyph-name="notequal" horiz-adv-x="451" unicode="&#8800;" /><glyph d="M161 0H21V446H161V396Q172 421 198 437.5Q224 454 261 454Q292 454 312.5 443.5Q333 433 345.5 416Q358 399 363.5 377.5Q369 356 369 335V0H229V294Q229 335 199 335Q178 335 169.5 317Q161 299 161 273ZM63 481Q63 542 78.5 580.5Q94 619 135 619Q151 619 164.5 613Q178 607 191 600.5Q204 594 215.5 588Q227 582 238 582Q257 582 260 616H330Q330 554 314 516Q298 478 258 478Q242 478 228.5 484Q215 490 202 496.5Q189 503 177.5 509Q166 515 155 515Q136 515 133 481Z" glyph-name="ntilde" horiz-adv-x="390" unicode="&#241;" /><glyph d="M428 171H350L317 0H220L253 171H184L151 0H54L87 171H15L33 266H105L125 370H46L64 465H143L175 630H272L240 465H309L341 630H438L406 465H477L459 370H388L368 266H446ZM202 266H271L291 370H222Z" glyph-name="numbersign" horiz-adv-x="492" unicode="#" /><glyph d="M152 173Q152 141 160 120.5Q168 100 189 100Q210 100 218 120.5Q226 141 226 173V273Q226 305 218 325.5Q210 346 189 346Q168 346 160 325.5Q152 305 152 273ZM366 212Q366 164 356 124Q346 84 325 54.5Q304 25 270.5 8.5Q237 -8 189 -8Q141 -8 107.5 8.5Q74 25 53 54.5Q32 84 22 124Q12 164 12 212V234Q12 282 22 322Q32 362 53 391.5Q74 421 107.5 437.5Q141 454 189 454Q237 454 270.5 437.5Q304 421 325 391.5Q346 362 356 322Q366 282 366 234Z" glyph-name="o" horiz-adv-x="378" unicode="o" /><glyph d="M152 173Q152 141 160 120.5Q168 100 189 100Q210 100 218 120.5Q226 141 226 173V273Q226 305 218 325.5Q210 346 189 346Q168 346 160 325.5Q152 305 152 273ZM366 212Q366 164 356 124Q346 84 325 54.5Q304 25 270.5 8.5Q237 -8 189 -8Q141 -8 107.5 8.5Q74 25 53 54.5Q32 84 22 124Q12 164 12 212V234Q12 282 22 322Q32 362 53 391.5Q74 421 107.5 437.5Q141 454 189 454Q237 454 270.5 437.5Q304 421 325 391.5Q346 362 356 322Q366 282 366 234ZM136 483 186 626H327L235 483Z" glyph-name="oacute" horiz-adv-x="378" unicode="&#243;" /><glyph d="M152 173Q152 141 160 120.5Q168 100 189 100Q210 100 218 120.5Q226 141 226 173V273Q226 305 218 325.5Q210 346 189 346Q168 346 160 325.5Q152 305 152 273ZM366 212Q366 164 356 124Q346 84 325 54.5Q304 25 270.5 8.5Q237 -8 189 -8Q141 -8 107.5 8.5Q74 25 53 54.5Q32 84 22 124Q12 164 12 212V234Q12 282 22 322Q32 362 53 391.5Q74 421 107.5 437.5Q141 454 189 454Q237 454 270.5 437.5Q304 421 325 391.5Q346 362 356 322Q366 282 366 234ZM190 474Q159 474 136.5 484.5Q114 495 99 513.5Q84 532 77 557.5Q70 583 70 612H157Q157 586 166 575Q175 564 190 564Q205 564 214 575Q223 586 223 612H310Q310 583 303 557.5Q296 532 281 513.5Q266 495 243.5 484.5Q221 474 190 474Z" glyph-name="obreve" horiz-adv-x="378" unicode="&#335;" /><glyph d="M152 173Q152 141 160 120.5Q168 100 189 100Q210 100 218 120.5Q226 141 226 173V273Q226 305 218 325.5Q210 346 189 346Q168 346 160 325.5Q152 305 152 273ZM366 212Q366 164 356 124Q346 84 325 54.5Q304 25 270.5 8.5Q237 -8 189 -8Q141 -8 107.5 8.5Q74 25 53 54.5Q32 84 22 124Q12 164 12 212V234Q12 282 22 322Q32 362 53 391.5Q74 421 107.5 437.5Q141 454 189 454Q237 454 270.5 437.5Q304 421 325 391.5Q346 362 356 322Q366 282 366 234ZM254 616 315 478H226L190 538L154 478H65L126 616Z" glyph-name="ocircumflex" horiz-adv-x="378" unicode="&#244;" /><glyph d="M152 173Q152 141 160 120.5Q168 100 189 100Q210 100 218 120.5Q226 141 226 173V273Q226 305 218 325.5Q210 346 189 346Q168 346 160 325.5Q152 305 152 273ZM366 212Q366 164 356 124Q346 84 325 54.5Q304 25 270.5 8.5Q237 -8 189 -8Q141 -8 107.5 8.5Q74 25 53 54.5Q32 84 22 124Q12 164 12 212V234Q12 282 22 322Q32 362 53 391.5Q74 421 107.5 437.5Q141 454 189 454Q237 454 270.5 437.5Q304 421 325 391.5Q346 362 356 322Q366 282 366 234ZM67 611H178V482H67ZM202 611H313V482H202Z" glyph-name="odieresis" horiz-adv-x="378" unicode="&#246;" /><glyph d="M399 -8Q336 -8 292 30Q274 13 247 2.5Q220 -8 189 -8Q141 -8 107.5 8.5Q74 25 53 54.5Q32 84 22 124Q12 164 12 212V234Q12 282 22 322Q32 362 53 391.5Q74 421 107.5 437.5Q141 454 189 454Q221 454 245.5 442Q270 430 290 413Q310 431 336.5 442.5Q363 454 395 454Q442 454 474.5 437.5Q507 421 527 392Q547 363 556 323Q565 283 565 235V189H358V169Q358 137 366.5 118Q375 99 399 99Q418 99 426 114.5Q434 130 437 152L559 136Q554 106 542 80Q530 54 510.5 34.5Q491 15 463 3.5Q435 -8 399 -8ZM152 169Q152 137 159 118.5Q166 100 189 100Q212 100 219 118.5Q226 137 226 169V277Q226 309 219 327.5Q212 346 189 346Q166 346 159 327.5Q152 309 152 277ZM430 270Q430 308 423.5 327.5Q417 347 395 347Q372 347 365 327.5Q358 308 358 270Z" glyph-name="oe" horiz-adv-x="577" unicode="&#339;" /><glyph d="M264 12Q249 -3 239.5 -13.5Q230 -24 224.5 -32.5Q219 -41 217.5 -47.5Q216 -54 216 -62Q216 -83 238 -83Q250 -83 267 -75V-150Q256 -158 241.5 -162.5Q227 -167 206 -167Q175 -167 152 -149.5Q129 -132 129 -93Q129 -61 145.5 -36Q162 -11 186 12Z" glyph-name="ogonek" horiz-adv-x="400" unicode="&#731;" /><glyph d="M152 173Q152 141 160 120.5Q168 100 189 100Q210 100 218 120.5Q226 141 226 173V273Q226 305 218 325.5Q210 346 189 346Q168 346 160 325.5Q152 305 152 273ZM366 212Q366 164 356 124Q346 84 325 54.5Q304 25 270.5 8.5Q237 -8 189 -8Q141 -8 107.5 8.5Q74 25 53 54.5Q32 84 22 124Q12 164 12 212V234Q12 282 22 322Q32 362 53 391.5Q74 421 107.5 437.5Q141 454 189 454Q237 454 270.5 437.5Q304 421 325 391.5Q346 362 356 322Q366 282 366 234ZM148 483 55 626H197L246 483Z" glyph-name="ograve" horiz-adv-x="378" unicode="&#242;" /><glyph d="M152 173Q152 141 160 120.5Q168 100 189 100Q210 100 218 120.5Q226 141 226 173V273Q226 305 218 325.5Q210 346 189 346Q168 346 160 325.5Q152 305 152 273ZM366 212Q366 164 356 124Q346 84 325 54.5Q304 25 270.5 8.5Q237 -8 189 -8Q141 -8 107.5 8.5Q74 25 53 54.5Q32 84 22 124Q12 164 12 212V234Q12 282 22 322Q32 362 53 391.5Q74 421 107.5 437.5Q141 454 189 454Q237 454 270.5 437.5Q304 421 325 391.5Q346 362 356 322Q366 282 366 234ZM75 483 108 630H231L155 483ZM211 483 244 630H367L291 483Z" glyph-name="ohungarumlaut" horiz-adv-x="378" unicode="&#337;" /><glyph d="M152 173Q152 141 160 120.5Q168 100 189 100Q210 100 218 120.5Q226 141 226 173V273Q226 305 218 325.5Q210 346 189 346Q168 346 160 325.5Q152 305 152 273ZM366 212Q366 164 356 124Q346 84 325 54.5Q304 25 270.5 8.5Q237 -8 189 -8Q141 -8 107.5 8.5Q74 25 53 54.5Q32 84 22 124Q12 164 12 212V234Q12 282 22 322Q32 362 53 391.5Q74 421 107.5 437.5Q141 454 189 454Q237 454 270.5 437.5Q304 421 325 391.5Q346 362 356 322Q366 282 366 234ZM86 584H294V488H86Z" glyph-name="omacron" horiz-adv-x="378" unicode="&#333;" /><glyph d="M5 535Q32 535 50 540.5Q68 546 79 557.5Q90 569 97 587Q104 605 110 631H222V0H75V438H5Z" glyph-name="one" horiz-adv-x="244" unicode="1" /><glyph d="M152 69H240V0H44V60L119 130Q140 150 150 161Q160 172 160 186Q160 202 145 202Q123 202 118 162L41 177Q42 194 49.5 211Q57 228 70 241.5Q83 255 102 263.5Q121 272 145 272Q193 272 218 247.5Q243 223 243 186Q243 142 201 110ZM63 589Q86 589 100.5 598.5Q115 608 120 630H188V362H104V534H63ZM20 338H278V295H20Z" glyph-name="onehalf" horiz-adv-x="298" unicode="&#189;" /><glyph d="M63 589Q86 589 100.5 598.5Q115 608 120 630H188V362H104V534H63ZM223 111H253V48H223V0H144V48H23V110L134 268H223ZM92 111H144V186ZM20 338H278V295H20Z" glyph-name="onequarter" horiz-adv-x="298" unicode="&#188;" /><glyph d="M11 589Q34 589 48.5 598.5Q63 608 68 630H136V362H52V534H11Z" glyph-name="onesuperior" horiz-adv-x="165" unicode="&#185;" /><glyph d="M224 329V270H30V329ZM134 477 117 467Q106 459 99.5 453.5Q93 448 93 437Q93 421 110 421Q123 421 128.5 430.5Q134 440 134 454ZM218 430Q218 418 228 418Q231 418 233 418.5Q235 419 239 420V370Q231 364 220 360.5Q209 357 194 357Q175 357 161 365.5Q147 374 140 391Q133 376 116.5 366.5Q100 357 79 357Q44 357 27 376Q10 395 10 423Q10 456 31.5 475Q53 494 88 512L134 536V541Q134 552 131 560Q128 568 117 568Q106 568 100.5 558.5Q95 549 95 538L16 545Q21 586 44.5 610.5Q68 635 120 635Q218 635 218 538Z" glyph-name="ordfeminine" horiz-adv-x="249" unicode="&#170;" /><glyph d="M222 270H28V329H222ZM149 526Q149 545 144.5 556Q140 567 125 567Q111 567 106 556Q101 545 101 526V466Q101 447 106 436Q111 425 125 425Q140 425 144.5 436Q149 447 149 466ZM12 502Q12 560 38 597.5Q64 635 125 635Q186 635 212 597.5Q238 560 238 502V490Q238 432 212 394.5Q186 357 125 357Q64 357 38 394.5Q12 432 12 490Z" glyph-name="ordmasculine" horiz-adv-x="250" unicode="&#186;" /><glyph d="M46 65Q28 94 20 131Q12 168 12 212V234Q12 282 22 322Q32 362 53 391.5Q74 421 107.5 437.5Q141 454 189 454Q244 454 282 431L306 467L362 427L332 381Q350 352 358 315Q366 278 366 234V212Q366 164 356 124Q346 84 325 54.5Q304 25 270.5 8.5Q237 -8 189 -8Q134 -8 96 15L72 -22L16 19ZM145 218 220 334Q208 349 189 349Q166 349 155.5 330.5Q145 312 145 280ZM189 97Q212 97 222.5 115.5Q233 134 233 166V227L158 111Q169 97 189 97Z" glyph-name="oslash" horiz-adv-x="378" unicode="&#248;" /><glyph d="M46 65Q28 94 20 131Q12 168 12 212V234Q12 282 22 322Q32 362 53 391.5Q74 421 107.5 437.5Q141 454 189 454Q244 454 282 431L306 467L362 427L332 381Q350 352 358 315Q366 278 366 234V212Q366 164 356 124Q346 84 325 54.5Q304 25 270.5 8.5Q237 -8 189 -8Q134 -8 96 15L72 -22L16 19ZM145 218 220 334Q208 349 189 349Q166 349 155.5 330.5Q145 312 145 280ZM189 97Q212 97 222.5 115.5Q233 134 233 166V227L158 111Q169 97 189 97ZM136 483 186 626H327L235 483Z" glyph-name="oslashacute" horiz-adv-x="378" unicode="&#511;" /><glyph d="M152 173Q152 141 160 120.5Q168 100 189 100Q210 100 218 120.5Q226 141 226 173V273Q226 305 218 325.5Q210 346 189 346Q168 346 160 325.5Q152 305 152 273ZM366 212Q366 164 356 124Q346 84 325 54.5Q304 25 270.5 8.5Q237 -8 189 -8Q141 -8 107.5 8.5Q74 25 53 54.5Q32 84 22 124Q12 164 12 212V234Q12 282 22 322Q32 362 53 391.5Q74 421 107.5 437.5Q141 454 189 454Q237 454 270.5 437.5Q304 421 325 391.5Q346 362 356 322Q366 282 366 234ZM57 481Q57 542 72.5 580.5Q88 619 129 619Q145 619 158.5 613Q172 607 185 600.5Q198 594 209.5 588Q221 582 232 582Q251 582 254 616H324Q324 554 308 516Q292 478 252 478Q236 478 222.5 484Q209 490 196 496.5Q183 503 171.5 509Q160 515 149 515Q130 515 127 481Z" glyph-name="otilde" horiz-adv-x="378" unicode="&#245;" /><glyph d="M161 171Q161 142 169 126.5Q177 111 199 111Q235 111 235 171V275Q235 335 199 335Q177 335 169 319.5Q161 304 161 275ZM161 -160H21V446H161V396Q172 420 196 437Q220 454 255 454Q290 454 313.5 439.5Q337 425 351.5 399Q366 373 372 336.5Q378 300 378 256V190Q378 146 372 109.5Q366 73 351.5 47Q337 21 313.5 6.5Q290 -8 255 -8Q220 -8 196 9Q172 26 161 50Z" glyph-name="p" horiz-adv-x="393" unicode="p" /><glyph d="M175 301Q102 301 56 344.5Q10 388 10 466Q10 544 56 587Q102 630 175 630H418V0H319V527H274V0H175Z" glyph-name="paragraph" horiz-adv-x="440" unicode="&#182;" /><glyph d="M20 288Q20 337 26.5 387.5Q33 438 45 486.5Q57 535 75 579.5Q93 624 116 660H231Q182 569 164 474.5Q146 380 146 288Q146 196 164 101.5Q182 7 231 -84H116Q93 -48 75 -3.5Q57 41 45 89.5Q33 138 26.5 188.5Q20 239 20 288Z" glyph-name="parenleft" horiz-adv-x="231" unicode="(" /><glyph d="M20 308Q20 357 26.5 407.5Q33 458 45 506.5Q57 555 75 599.5Q93 644 116 680H231Q182 589 164 494.5Q146 400 146 308Q146 216 164 121.5Q182 27 231 -64H116Q93 -28 75 16.5Q57 61 45 109.5Q33 158 26.5 208.5Q20 259 20 308Z" glyph-name="parenleft.cap" horiz-adv-x="231" /><glyph d="M211 288Q211 239 204.5 188.5Q198 138 186 89.5Q174 41 156 -3.5Q138 -48 115 -84H0Q49 7 67 101.5Q85 196 85 288Q85 380 67 474.5Q49 569 0 660H115Q138 624 156 579.5Q174 535 186 486.5Q198 438 204.5 387.5Q211 337 211 288Z" glyph-name="parenright" horiz-adv-x="231" unicode=")" /><glyph d="M211 308Q211 259 204.5 208.5Q198 158 186 109.5Q174 61 156 16.5Q138 -28 115 -64H0Q49 27 67 121.5Q85 216 85 308Q85 400 67 494.5Q49 589 0 680H115Q138 644 156 599.5Q174 555 186 506.5Q198 458 204.5 407.5Q211 357 211 308Z" glyph-name="parenright.cap" horiz-adv-x="231" /><glyph d="M112 492Q112 456 121 440Q130 424 151 424Q173 424 181.5 440Q190 456 190 492Q190 527 181.5 543.5Q173 560 151 560Q130 560 121 543.5Q112 527 112 492ZM282 492Q282 457 272 429.5Q262 402 244.5 382.5Q227 363 203 353Q179 343 151 343Q123 343 99 353Q75 363 57.5 382.5Q40 402 30 429.5Q20 457 20 492Q20 527 30 554.5Q40 582 57.5 601.5Q75 621 99 631Q123 641 151 641Q179 641 203 631Q227 621 244.5 601.5Q262 582 272 554.5Q282 527 282 492ZM427 630H520L165 0H72ZM402 138Q402 102 411 86Q420 70 441 70Q463 70 471.5 86Q480 102 480 138Q480 173 471.5 189.5Q463 206 441 206Q420 206 411 189.5Q402 173 402 138ZM572 138Q572 103 562 75.5Q552 48 534.5 28.5Q517 9 493 -1Q469 -11 441 -11Q413 -11 389 -1Q365 9 347.5 28.5Q330 48 320 75.5Q310 103 310 138Q310 173 320 200.5Q330 228 347.5 247.5Q365 267 389 277Q413 287 441 287Q469 287 493 277Q517 267 534.5 247.5Q552 228 562 200.5Q572 173 572 138Z" glyph-name="percent" horiz-adv-x="592" unicode="%" /><glyph d="M18 143H161V0H18Z" glyph-name="period" horiz-adv-x="179" unicode="." /><glyph d="M20 313H163V170H20Z" glyph-name="periodcentered" horiz-adv-x="183" unicode="&#183;" /><glyph d="M20 383H163V240H20Z" glyph-name="periodcentered.cap" horiz-adv-x="183" /><glyph d="M119 492Q119 433 151 433Q183 433 183 492Q183 551 151 551Q119 551 119 492ZM282 492Q282 457 272 429.5Q262 402 244.5 382.5Q227 363 203 353Q179 343 151 343Q123 343 99 353Q75 363 57.5 382.5Q40 402 30 429.5Q20 457 20 492Q20 527 30 554.5Q40 582 57.5 601.5Q75 621 99 631Q123 641 151 641Q179 641 203 631Q227 621 244.5 601.5Q262 582 272 554.5Q282 527 282 492ZM427 630H520L165 0H72ZM405 138Q405 72 441 72Q477 72 477 138Q477 204 441 204Q405 204 405 138ZM572 138Q572 103 562 75.5Q552 48 534.5 28.5Q517 9 493 -1Q469 -11 441 -11Q413 -11 389 -1Q365 9 347.5 28.5Q330 48 320 75.5Q310 103 310 138Q310 173 320 200.5Q330 228 347.5 247.5Q365 267 389 277Q413 287 441 287Q469 287 493 277Q517 267 534.5 247.5Q552 228 562 200.5Q572 173 572 138ZM679 138Q679 72 715 72Q751 72 751 138Q751 204 715 204Q679 204 679 138ZM846 138Q846 103 836 75.5Q826 48 808.5 28.5Q791 9 767 -1Q743 -11 715 -11Q687 -11 663 -1Q639 9 621.5 28.5Q604 48 594 75.5Q584 103 584 138Q584 173 594 200.5Q604 228 621.5 247.5Q639 267 663 277Q687 287 715 287Q743 287 767 277Q791 267 808.5 247.5Q826 228 836 200.5Q846 173 846 138Z" glyph-name="perthousand" horiz-adv-x="866" unicode="&#8240;" /><glyph d="M265 494V353H405V258H265V118H170V258H30V353H170V494Z" glyph-name="plus" horiz-adv-x="435" unicode="+" /><glyph d="M265 519V421H397V326H265V227H171V326H40V421H171V519ZM40 188H397V93H40Z" glyph-name="plusminus" horiz-adv-x="437" unicode="&#177;" /><glyph d="M293 638Q353 638 403.5 614Q454 590 490 547Q526 504 546.5 444.5Q567 385 567 315Q567 245 546.5 185.5Q526 126 490 83Q454 40 403.5 16Q353 -8 293 -8Q233 -8 183 16Q133 40 97 83Q61 126 40.5 185.5Q20 245 20 315Q20 385 40.5 444.5Q61 504 97 547Q133 590 183 614Q233 638 293 638ZM293 590Q242 590 201 569.5Q160 549 131 512.5Q102 476 86.5 425.5Q71 375 71 315Q71 255 86.5 204.5Q102 154 131 117.5Q160 81 201 60.5Q242 40 293 40Q344 40 385.5 60.5Q427 81 456 117.5Q485 154 500.5 204.5Q516 255 516 315Q516 375 500.5 425.5Q485 476 456 512.5Q427 549 385.5 569.5Q344 590 293 590ZM304 317Q327 317 337.5 328.5Q348 340 348 369Q348 398 337.5 410Q327 422 304 422H280V317ZM280 124H187V501H316Q379 501 410 466Q441 431 441 369Q441 307 410 272.5Q379 238 316 238H280Z" glyph-name="published" horiz-adv-x="587" /><glyph d="M232 275Q232 304 224 319.5Q216 335 194 335Q158 335 158 275V171Q158 111 194 111Q216 111 224 126.5Q232 142 232 171ZM232 50Q221 26 197 9Q173 -8 138 -8Q103 -8 79.5 6.5Q56 21 41.5 47Q27 73 21 109.5Q15 146 15 190V256Q15 300 21 336.5Q27 373 41.5 399Q56 425 79.5 439.5Q103 454 138 454Q173 454 197 437Q221 420 232 396V446H372V-160H232Z" glyph-name="q" horiz-adv-x="393" unicode="q" /><glyph d="M123 0V143H265V0ZM202 522Q173 522 160 491.5Q147 461 144 412L8 433Q10 474 22 511.5Q34 549 57 577Q80 605 115 621.5Q150 638 200 638Q295 638 341.5 591Q388 544 388 459Q388 431 381.5 408.5Q375 386 364.5 366Q354 346 340.5 327.5Q327 309 312 291Q285 257 273 238.5Q261 220 260 198H128Q129 217 131.5 232Q134 247 140 262Q146 277 156 292.5Q166 308 181 329Q207 365 226 397.5Q245 430 245 468Q245 490 236 506Q227 522 202 522Z" glyph-name="question" horiz-adv-x="400" unicode="?" /><glyph d="M277 518V375H135V518ZM198 -4Q227 -4 240 26.5Q253 57 256 106L392 85Q390 44 378 6.5Q366 -31 343 -59Q320 -87 284.5 -103.5Q249 -120 200 -120Q105 -120 58.5 -73Q12 -26 12 59Q12 87 18.5 109.5Q25 132 35.5 152Q46 172 59.5 190.5Q73 209 88 227Q115 261 127 279.5Q139 298 140 320H272Q271 301 268.5 286Q266 271 260 256Q254 241 244 225.5Q234 210 219 189Q193 153 174 120.5Q155 88 155 50Q155 28 164 12Q173 -4 198 -4Z" glyph-name="questiondown" horiz-adv-x="400" unicode="&#191;" /><glyph d="M277.0075 630V487.0087H135.0162V630ZM198.0123 108.0319Q227.0106 108.0319 240.0098 138.53Q253.009 169.0281 256.0088 218.0251L392.0005 197.0264Q390.0006 156.0289 378.0013 118.5312Q366.0021 81.0335 343.0035 53.0352Q320.0049 25.0369 285.007 8.5379Q250.0092 -7.9611 200.0122 -7.9611Q105.018 -7.9611 58.5208 39.0361Q12.0237 86.0332 12.0237 171.028Q12.0237 199.0263 18.5233 221.5249Q25.0229 244.0236 35.5222 264.0223Q46.0216 284.0211 59.5208 302.52Q73.02 321.0189 88.019 339.0178Q115.0174 373.0157 127.0167 391.5146Q139.0159 410.0134 140.0159 432.0121H272.0078Q271.0079 413.0132 268.508 398.0142Q266.0082 383.0151 260.0085 368.016Q254.0089 353.0169 244.0095 337.5179Q234.0101 322.0188 219.011 301.0201Q193.0126 265.0223 174.0138 232.5243Q155.015 200.0262 155.015 162.0286Q155.015 140.0299 164.0144 124.0309Q173.0139 108.0319 198.0123 108.0319Z" glyph-name="questiondown.cap" horiz-adv-x="400" /><glyph d="M25 630H139V394H25ZM167 630H281V394H167Z" glyph-name="quotedbl" horiz-adv-x="306" unicode="&quot;" /><glyph d="M183 128H326V7Q326 -58 291.5 -88Q257 -118 183 -120V-53Q215 -52 231 -40.5Q247 -29 248 0H183ZM18 128H161V7Q161 -58 126.5 -88Q92 -118 18 -120V-53Q50 -52 66 -40.5Q82 -29 83 0H18Z" glyph-name="quotedblbase" horiz-adv-x="344" unicode="&#8222;" /><glyph d="M161 385H18V506Q18 571 52.5 601Q87 631 161 633V566Q129 565 113 553.5Q97 542 96 513H161ZM326 385H183V506Q183 571 217.5 601Q252 631 326 633V566Q294 565 278 553.5Q262 542 261 513H326Z" glyph-name="quotedblleft" horiz-adv-x="344" unicode="&#8220;" /><glyph d="M183 630H326V509Q326 444 291.5 414Q257 384 183 382V449Q215 450 231 461.5Q247 473 248 502H183ZM18 630H161V509Q161 444 126.5 414Q92 384 18 382V449Q50 450 66 461.5Q82 473 83 502H18Z" glyph-name="quotedblright" horiz-adv-x="344" unicode="&#8221;" /><glyph d="M161 385H18V506Q18 571 52.5 601Q87 631 161 633V566Q129 565 113 553.5Q97 542 96 513H161Z" glyph-name="quoteleft" horiz-adv-x="179" unicode="&#8216;" /><glyph d="M18 630H161V509Q161 444 126.5 414Q92 384 18 382V449Q50 450 66 461.5Q82 473 83 502H18Z" glyph-name="quoteright" horiz-adv-x="179" unicode="&#8217;" /><glyph d="M18 128H161V7Q161 -58 126.5 -88Q92 -118 18 -120V-53Q50 -52 66 -40.5Q82 -29 83 0H18Z" glyph-name="quotesinglbase" horiz-adv-x="179" unicode="&#8218;" /><glyph d="M25 630H148V394H25Z" glyph-name="quotesingle" horiz-adv-x="173" unicode="&apos;" /><glyph d="M279 309Q268 313 255.5 316Q243 319 224 319Q186 319 173.5 297.5Q161 276 161 237V0H21V446H161V385Q171 421 193.5 436.5Q216 452 248 452Q259 452 267.5 450Q276 448 282 446Z" glyph-name="r" horiz-adv-x="286" unicode="r" /><glyph d="M279 309Q268 313 255.5 316Q243 319 224 319Q186 319 173.5 297.5Q161 276 161 237V0H21V446H161V385Q171 421 193.5 436.5Q216 452 248 452Q259 452 267.5 450Q276 448 282 446ZM99 483 149 626H290L198 483Z" glyph-name="racute" horiz-adv-x="286" unicode="&#341;" /><glyph d="M279 309Q268 313 255.5 316Q243 319 224 319Q186 319 173.5 297.5Q161 276 161 237V0H21V446H161V385Q171 421 193.5 436.5Q216 452 248 452Q259 452 267.5 450Q276 448 282 446ZM88 481 27 619H116L152 559L188 619H277L216 481Z" glyph-name="rcaron" horiz-adv-x="286" unicode="&#345;" /><glyph d="M279 309Q268 313 255.5 316Q243 319 224 319Q186 319 173.5 297.5Q161 276 161 237V0H21V446H161V385Q171 421 193.5 436.5Q216 452 248 452Q259 452 267.5 450Q276 448 282 446ZM28 -26H156V-97Q156 -151 124.5 -176Q93 -201 28 -201V-153Q54 -153 65.5 -146Q77 -139 78 -119H28Z" glyph-name="rcommaaccent" horiz-adv-x="286" unicode="&#343;" /><glyph d="M189 385Q186 390 184.5 395.5Q183 401 182 415Q180 431 175 435Q170 439 159 439H142V385H98V560H173Q202 560 217 545Q232 530 232 504Q232 485 223 473.5Q214 462 200 459Q223 454 226 426Q228 406 229 398Q230 390 234 385ZM160 479Q185 479 185 498Q185 518 160 518H142V479ZM299 472Q299 434 288.5 404Q278 374 259.5 352Q241 330 215 318.5Q189 307 159 307Q129 307 103.5 318.5Q78 330 59.5 352Q41 374 30.5 404Q20 434 20 472Q20 510 30.5 540.5Q41 571 59.5 593Q78 615 103.5 626.5Q129 638 159 638Q189 638 215 626.5Q241 615 259.5 593Q278 571 288.5 540.5Q299 510 299 472ZM269 472Q269 535 239 572.5Q209 610 159 610Q110 610 80 572.5Q50 535 50 472Q50 410 80 372.5Q110 335 159 335Q209 335 239 372.5Q269 410 269 472Z" glyph-name="registered" horiz-adv-x="319" unicode="&#174;" /><glyph d="M163 563Q163 546 172 536Q181 526 199 526Q218 526 227 536Q236 546 236 563Q236 579 227 589Q218 599 199 599Q181 599 172 589Q163 579 163 563ZM104 563Q104 602 130 628Q156 654 199 654Q243 654 269 628Q295 602 295 563Q295 523 269 497Q243 471 199 471Q156 471 130 497Q104 523 104 563Z" glyph-name="ring" horiz-adv-x="400" unicode="&#730;" /><glyph d="M163 741Q163 724 172 714Q181 704 199 704Q218 704 227 714Q236 724 236 741Q236 757 227 767Q218 777 199 777Q181 777 172 767Q163 757 163 741ZM104 741Q104 780 130 806Q156 832 199 832Q243 832 269 806Q295 780 295 741Q295 701 269 675Q243 649 199 649Q156 649 130 675Q104 701 104 741Z" glyph-name="ring.cap" horiz-adv-x="400" /><glyph d="M120 142Q122 120 134 107.5Q146 95 165 95Q179 95 187 102.5Q195 110 195 121Q195 131 189.5 138Q184 145 168 152L111 176Q66 194 37.5 225.5Q9 257 9 313Q9 375 50.5 414.5Q92 454 165 454Q237 454 275.5 416.5Q314 379 321 322L209 303Q205 323 195.5 337Q186 351 168 351Q155 351 148 343.5Q141 336 141 325Q141 305 163 296L227 267Q248 258 266 246Q284 234 297.5 218Q311 202 319 180.5Q327 159 327 131Q327 65 283.5 28.5Q240 -8 167 -8Q93 -8 51.5 29Q10 66 4 129Z" glyph-name="s" horiz-adv-x="335" unicode="s" /><glyph d="M120 142Q122 120 134 107.5Q146 95 165 95Q179 95 187 102.5Q195 110 195 121Q195 131 189.5 138Q184 145 168 152L111 176Q66 194 37.5 225.5Q9 257 9 313Q9 375 50.5 414.5Q92 454 165 454Q237 454 275.5 416.5Q314 379 321 322L209 303Q205 323 195.5 337Q186 351 168 351Q155 351 148 343.5Q141 336 141 325Q141 305 163 296L227 267Q248 258 266 246Q284 234 297.5 218Q311 202 319 180.5Q327 159 327 131Q327 65 283.5 28.5Q240 -8 167 -8Q93 -8 51.5 29Q10 66 4 129ZM113 483 163 626H304L212 483Z" glyph-name="sacute" horiz-adv-x="335" unicode="&#347;" /><glyph d="M120 142Q122 120 134 107.5Q146 95 165 95Q179 95 187 102.5Q195 110 195 121Q195 131 189.5 138Q184 145 168 152L111 176Q66 194 37.5 225.5Q9 257 9 313Q9 375 50.5 414.5Q92 454 165 454Q237 454 275.5 416.5Q314 379 321 322L209 303Q205 323 195.5 337Q186 351 168 351Q155 351 148 343.5Q141 336 141 325Q141 305 163 296L227 267Q248 258 266 246Q284 234 297.5 218Q311 202 319 180.5Q327 159 327 131Q327 65 283.5 28.5Q240 -8 167 -8Q93 -8 51.5 29Q10 66 4 129ZM103 481 42 619H131L167 559L203 619H292L231 481Z" glyph-name="scaron" horiz-adv-x="335" unicode="&#353;" /><glyph d="M262 -97Q262 -139 235 -157Q208 -175 170 -175Q143 -175 118 -166.5Q93 -158 78 -144L95 -88Q108 -99 125.5 -107Q143 -115 160 -115Q184 -115 184 -97Q184 -83 165.5 -77.5Q147 -72 115 -72L145 -7Q81 -2 45 34Q9 70 4 129L120 142Q122 120 134 107.5Q146 95 165 95Q179 95 187 102.5Q195 110 195 121Q195 131 189.5 138Q184 145 168 152L111 176Q66 194 37.5 225.5Q9 257 9 313Q9 375 50.5 414.5Q92 454 165 454Q237 454 275.5 416.5Q314 379 321 322L209 303Q205 323 195.5 337Q186 351 168 351Q155 351 148 343.5Q141 336 141 325Q141 305 163 296L227 267Q248 258 266 246Q284 234 297.5 218Q311 202 319 180.5Q327 159 327 131Q327 71 291 35.5Q255 0 192 -6L184 -25Q215 -27 238.5 -43.5Q262 -60 262 -97Z" glyph-name="scedilla" horiz-adv-x="335" unicode="&#351;" /><glyph d="M120 142Q122 120 134 107.5Q146 95 165 95Q179 95 187 102.5Q195 110 195 121Q195 131 189.5 138Q184 145 168 152L111 176Q66 194 37.5 225.5Q9 257 9 313Q9 375 50.5 414.5Q92 454 165 454Q237 454 275.5 416.5Q314 379 321 322L209 303Q205 323 195.5 337Q186 351 168 351Q155 351 148 343.5Q141 336 141 325Q141 305 163 296L227 267Q248 258 266 246Q284 234 297.5 218Q311 202 319 180.5Q327 159 327 131Q327 65 283.5 28.5Q240 -8 167 -8Q93 -8 51.5 29Q10 66 4 129ZM231 616 292 478H203L167 538L131 478H42L103 616Z" glyph-name="scircumflex" horiz-adv-x="335" unicode="&#349;" /><glyph d="M120 142Q122 120 134 107.5Q146 95 165 95Q179 95 187 102.5Q195 110 195 121Q195 131 189.5 138Q184 145 168 152L111 176Q66 194 37.5 225.5Q9 257 9 313Q9 375 50.5 414.5Q92 454 165 454Q237 454 275.5 416.5Q314 379 321 322L209 303Q205 323 195.5 337Q186 351 168 351Q155 351 148 343.5Q141 336 141 325Q141 305 163 296L227 267Q248 258 266 246Q284 234 297.5 218Q311 202 319 180.5Q327 159 327 131Q327 65 283.5 28.5Q240 -8 167 -8Q93 -8 51.5 29Q10 66 4 129ZM103 -26H231V-97Q231 -151 199.5 -176Q168 -201 103 -201V-153Q129 -153 140.5 -146Q152 -139 153 -119H103Z" glyph-name="scommaaccent" horiz-adv-x="335" unicode="&#537;" /><glyph d="M394 245Q394 210 380.5 179.5Q367 149 346 128Q354 114 359 96Q364 78 364 55Q364 22 353 -5.5Q342 -33 321.5 -53Q301 -73 271.5 -84Q242 -95 205 -95Q128 -95 85 -55Q42 -15 37 54L141 58Q145 35 160.5 21Q176 7 202 7Q221 7 233.5 17Q246 27 246 46Q246 57 239.5 67.5Q233 78 214 87L132 127Q76 154 46.5 193.5Q17 233 17 298Q17 332 30.5 363Q44 394 65 414Q47 444 47 488Q47 521 58 548.5Q69 576 89.5 596Q110 616 139.5 627Q169 638 206 638Q283 638 326 598Q369 558 374 489L270 485Q266 508 250.5 522Q235 536 209 536Q190 536 177.5 526Q165 516 165 497Q165 486 171.5 475.5Q178 465 197 456L279 416Q335 389 364.5 349.5Q394 310 394 245ZM152 338Q148 340 145 342Q142 344 138 346Q134 341 131 333Q128 325 128 314Q128 296 134.5 286Q141 276 161 264L259 205L272 197Q277 202 280 210Q283 218 283 229Q283 247 276.5 257Q270 267 250 279Z" glyph-name="section" horiz-adv-x="417" unicode="&#167;" /><glyph d="M18 143H161V8Q161 -120 18 -123V-57Q49 -56 65 -42.5Q81 -29 81 0H18ZM18 422H161V279H18Z" glyph-name="semicolon" horiz-adv-x="179" unicode=";" /><glyph d="M5 498V630H362V515Q320 458 296 399.5Q272 341 260 278Q248 215 245 146.5Q242 78 242 0H81Q82 79 89 147Q96 215 111 275.5Q126 336 151 391Q176 446 214 498Z" glyph-name="seven" horiz-adv-x="367" unicode="7" /><glyph d="M154 203Q154 157 167 133.5Q180 110 209 110Q238 110 251 133.5Q264 157 264 203Q264 249 251 272.5Q238 296 209 296Q180 296 167 272.5Q154 249 154 203ZM218 638Q298 638 343.5 592.5Q389 547 397 472L270 448Q267 477 255 498Q243 519 215 519Q198 519 186.5 509Q175 499 168 481Q161 463 158 439Q155 415 155 388V358Q170 378 194 389.5Q218 401 253 401Q290 401 318 386.5Q346 372 365.5 346Q385 320 395 283.5Q405 247 405 203Q405 156 392.5 117Q380 78 355.5 50.5Q331 23 294.5 7.5Q258 -8 211 -8Q108 -8 60 67.5Q12 143 12 278V349Q12 485 61 561.5Q110 638 218 638Z" glyph-name="six" horiz-adv-x="417" unicode="6" /><glyph d="M95 659H216L116 -83H-5Z" glyph-name="slash" horiz-adv-x="226" unicode="/" /><glyph d="M100 629H221L121 0H0Z" glyph-name="slash.cap" horiz-adv-x="221" /><glyph glyph-name="space" horiz-adv-x="120" unicode=" " /><glyph d="M218 445Q218 419 223.5 397.5Q229 376 237 356H326V266H267Q272 238 272 209Q272 189 269.5 169.5Q267 150 262 133Q285 123 307 123Q339 123 352 143Q365 163 365 213L452 204Q462 146 456.5 106Q451 66 434 40.5Q417 15 391 3.5Q365 -8 335 -8Q295 -8 266 6.5Q237 21 214 41Q193 18 167.5 5Q142 -8 114 -8Q66 -8 35.5 20.5Q5 49 5 103Q5 149 34.5 177.5Q64 206 109 206Q131 206 154 196Q153 236 142 266H48V356H98Q90 376 84.5 400.5Q79 425 79 457Q79 497 91.5 530.5Q104 564 127.5 588Q151 612 183.5 625Q216 638 256 638Q425 638 436 439L316 423Q314 462 302 485.5Q290 509 261 509Q218 509 218 445ZM113 76Q133 76 144 111Q126 127 111 127Q88 127 88 101Q88 76 113 76Z" glyph-name="sterling" horiz-adv-x="464" unicode="&#163;" /><glyph d="M34 349H0V435L13 437Q45 442 55.5 460.5Q66 479 73 511L85 566H169V446H240V349H169V143Q169 107 199 107Q211 107 219 110.5Q227 114 244 122L249 25Q223 8 199 1Q175 -6 144 -6Q95 -6 64.5 18.5Q34 43 34 104Z" glyph-name="t" horiz-adv-x="254" unicode="t" /><glyph d="M8 291H42V349H8V435L21 437Q53 442 63.5 460.5Q74 479 81 511L93 566H177V446H248V349H177V291H248V194H177V143Q177 107 207 107Q219 107 227 110.5Q235 114 252 122L257 25Q231 8 207 1Q183 -6 152 -6Q103 -6 72.5 18.5Q42 43 42 104V194H8Z" glyph-name="tbar" horiz-adv-x="269" unicode="&#359;" /><glyph d="M34 349H0V435L13 437Q45 442 55.5 460.5Q66 479 73 511L85 566H169V446H240V349H169V143Q169 107 199 107Q211 107 219 110.5Q227 114 244 122L249 25Q223 8 199 1Q175 -6 144 -6Q95 -6 64.5 18.5Q34 43 34 104ZM184 486 198 630H336L271 486Z" glyph-name="tcaron" horiz-adv-x="254" unicode="&#357;" /><glyph d="M34 349H0V435L13 437Q45 442 55.5 460.5Q66 479 73 511L85 566H169V446H240V349H169V143Q169 107 199 107Q211 107 219 110.5Q227 114 244 122L249 25Q223 8 199 1Q175 -6 144 -6Q95 -6 64.5 18.5Q34 43 34 104ZM77 -26H205V-97Q205 -151 173.5 -176Q142 -201 77 -201V-153Q103 -153 114.5 -146Q126 -139 127 -119H77Z" glyph-name="tcommaaccent" horiz-adv-x="254" unicode="&#355;" /><glyph d="M161 171Q161 142 169 126.5Q177 111 199 111Q235 111 235 171V275Q235 335 199 335Q177 335 169 319.5Q161 304 161 275ZM161 -160H21V630H161V396Q172 420 196 437Q220 454 255 454Q290 454 313.5 439.5Q337 425 351.5 399Q366 373 372 336.5Q378 300 378 256V190Q378 146 372 109.5Q366 73 351.5 47Q337 21 313.5 6.5Q290 -8 255 -8Q220 -8 196 9Q172 26 161 50Z" glyph-name="thorn" horiz-adv-x="393" unicode="&#254;" /><glyph d="M154 370Q165 368 175 368Q185 368 193 368Q219 368 234.5 387Q250 406 250 448Q250 482 238.5 501.5Q227 521 199 521Q173 521 158.5 498Q144 475 142 436L10 459Q13 497 27 530Q41 563 64.5 587Q88 611 121.5 624.5Q155 638 199 638Q249 638 285 624.5Q321 611 344.5 586.5Q368 562 379.5 528.5Q391 495 391 455Q391 395 368.5 362Q346 329 311 316Q345 302 368 268.5Q391 235 391 175Q391 87 341.5 39.5Q292 -8 199 -8Q151 -8 115.5 6Q80 20 56.5 44.5Q33 69 20.5 103.5Q8 138 7 180L140 188Q141 153 155 131Q169 109 198 109Q226 109 238 130Q250 151 250 189Q250 231 236 247.5Q222 264 193 264Q185 264 175 264Q165 264 154 262Z" glyph-name="three" horiz-adv-x="408" unicode="3" /><glyph d="M212 496Q249 483 249 439Q249 401 223 379Q197 357 149 357Q105 357 77.5 380Q50 403 48 443L121 456Q123 436 130.5 429Q138 422 149 422Q161 422 165.5 429Q170 436 170 447Q170 461 164 466Q158 471 147 471Q145 471 140 471Q135 471 130 470V522Q135 521 140 521Q145 521 147 521Q169 521 169 547Q169 556 164 562Q159 568 148 568Q127 568 121 536L49 546Q54 584 79.5 609Q105 634 148 634Q197 634 222.5 612.5Q248 591 248 553Q248 507 212 496ZM223 111H253V48H223V0H144V48H23V110L134 268H223ZM92 111H144V186ZM20 338H278V295H20Z" glyph-name="threequarters" horiz-adv-x="298" unicode="&#190;" /><glyph d="M107 634Q156 634 181.5 612.5Q207 591 207 553Q207 507 171 496Q208 483 208 439Q208 401 182 379Q156 357 108 357Q64 357 36.5 380Q9 403 7 443L80 456Q82 436 89.5 429Q97 422 108 422Q120 422 124.5 429Q129 436 129 447Q129 461 123 466Q117 471 106 471Q104 471 99 471Q94 471 89 470V522Q94 521 99 521Q104 521 106 521Q128 521 128 547Q128 556 123 562Q118 568 107 568Q86 568 80 536L8 546Q13 584 38.5 609Q64 634 107 634Z" glyph-name="threesuperior" horiz-adv-x="226" unicode="&#179;" /><glyph d="M83 481Q83 542 98.5 580.5Q114 619 155 619Q171 619 184.5 613Q198 607 211 600.5Q224 594 235.5 588Q247 582 258 582Q277 582 280 616H350Q350 554 334 516Q318 478 278 478Q262 478 248.5 484Q235 490 222 496.5Q209 503 197.5 509Q186 515 175 515Q156 515 153 481Z" glyph-name="tilde" horiz-adv-x="400" unicode="&#732;" /><glyph d="M83 659Q83 720 98.5 758.5Q114 797 155 797Q171 797 184.5 791Q198 785 211 778.5Q224 772 235.5 766Q247 760 258 760Q277 760 280 794H350Q350 732 334 694Q318 656 278 656Q262 656 248.5 662Q235 668 222 674.5Q209 681 197.5 687Q186 693 175 693Q156 693 153 659Z" glyph-name="tilde.cap" horiz-adv-x="400" /><glyph d="M50 411V569H10V630H161V569H119V411ZM265 411 235 543H233V411H175V630H257L286 509H288L315 630H398V411H337V543H335L305 411Z" glyph-name="trademark" horiz-adv-x="420" unicode="&#8482;" /><glyph d="M185 123H385V0H12V105L176 313Q202 346 223.5 380.5Q245 415 245 460Q245 486 234.5 502Q224 518 204 518Q176 518 163 489Q150 460 146 412L10 433Q12 474 24 511.5Q36 549 59 577Q82 605 117.5 621.5Q153 638 203 638Q295 638 341.5 592Q388 546 388 459Q388 429 382 404Q376 379 365.5 357.5Q355 336 340.5 316.5Q326 297 310 277Z" glyph-name="two" horiz-adv-x="400" unicode="2" /><glyph d="M121 634Q169 634 194 609.5Q219 585 219 548Q219 504 177 472L128 431H216V362H20V422L95 492Q116 512 126 523Q136 534 136 548Q136 564 121 564Q99 564 94 524L17 539Q18 556 25.5 573Q33 590 46 603.5Q59 617 78 625.5Q97 634 121 634Z" glyph-name="twosuperior" horiz-adv-x="241" unicode="&#178;" /><glyph d="M226 446H366V0H226V50Q215 25 190 8.5Q165 -8 128 -8Q97 -8 76.5 2.5Q56 13 43.5 30Q31 47 26 68.5Q21 90 21 111V446H161V152Q161 111 190 111Q211 111 218.5 129Q226 147 226 173Z" glyph-name="u" horiz-adv-x="387" unicode="u" /><glyph d="M226 446H366V0H226V50Q215 25 190 8.5Q165 -8 128 -8Q97 -8 76.5 2.5Q56 13 43.5 30Q31 47 26 68.5Q21 90 21 111V446H161V152Q161 111 190 111Q211 111 218.5 129Q226 147 226 173ZM140 483 190 626H331L239 483Z" glyph-name="uacute" horiz-adv-x="387" unicode="&#250;" /><glyph d="M226 446H366V0H226V50Q215 25 190 8.5Q165 -8 128 -8Q97 -8 76.5 2.5Q56 13 43.5 30Q31 47 26 68.5Q21 90 21 111V446H161V152Q161 111 190 111Q211 111 218.5 129Q226 147 226 173ZM194 474Q163 474 140.5 484.5Q118 495 103 513.5Q88 532 81 557.5Q74 583 74 612H161Q161 586 170 575Q179 564 194 564Q209 564 218 575Q227 586 227 612H314Q314 583 307 557.5Q300 532 285 513.5Q270 495 247.5 484.5Q225 474 194 474Z" glyph-name="ubreve" horiz-adv-x="387" unicode="&#365;" /><glyph d="M226 446H366V0H226V50Q215 25 190 8.5Q165 -8 128 -8Q97 -8 76.5 2.5Q56 13 43.5 30Q31 47 26 68.5Q21 90 21 111V446H161V152Q161 111 190 111Q211 111 218.5 129Q226 147 226 173ZM258 616 319 478H230L194 538L158 478H69L130 616Z" glyph-name="ucircumflex" horiz-adv-x="387" unicode="&#251;" /><glyph d="M226 446H366V0H226V50Q215 25 190 8.5Q165 -8 128 -8Q97 -8 76.5 2.5Q56 13 43.5 30Q31 47 26 68.5Q21 90 21 111V446H161V152Q161 111 190 111Q211 111 218.5 129Q226 147 226 173ZM71 611H182V482H71ZM206 611H317V482H206Z" glyph-name="udieresis" horiz-adv-x="387" unicode="&#252;" /><glyph d="M226 446H366V0H226V50Q215 25 190 8.5Q165 -8 128 -8Q97 -8 76.5 2.5Q56 13 43.5 30Q31 47 26 68.5Q21 90 21 111V446H161V152Q161 111 190 111Q211 111 218.5 129Q226 147 226 173ZM152 483 59 626H201L250 483Z" glyph-name="ugrave" horiz-adv-x="387" unicode="&#249;" /><glyph d="M226 446H366V0H226V50Q215 25 190 8.5Q165 -8 128 -8Q97 -8 76.5 2.5Q56 13 43.5 30Q31 47 26 68.5Q21 90 21 111V446H161V152Q161 111 190 111Q211 111 218.5 129Q226 147 226 173ZM79 483 112 630H235L159 483ZM215 483 248 630H371L295 483Z" glyph-name="uhungarumlaut" horiz-adv-x="387" unicode="&#369;" /><glyph d="M226 446H366V0H226V50Q215 25 190 8.5Q165 -8 128 -8Q97 -8 76.5 2.5Q56 13 43.5 30Q31 47 26 68.5Q21 90 21 111V446H161V152Q161 111 190 111Q211 111 218.5 129Q226 147 226 173ZM90 584H298V488H90Z" glyph-name="umacron" horiz-adv-x="387" unicode="&#363;" /><glyph d="M15 -28H286V-151H15Z" glyph-name="underscore" horiz-adv-x="301" unicode="_" /><glyph d="M209 133Q246 120 246 76Q246 38 220 16Q194 -6 146 -6Q102 -6 74.5 17Q47 40 45 80L118 93Q120 73 127.5 66Q135 59 146 59Q158 59 162.5 66Q167 73 167 84Q167 98 161 103Q155 108 144 108Q142 108 137 108Q132 108 127 107V159Q132 158 137 158Q142 158 144 158Q166 158 166 184Q166 193 161 199Q156 205 145 205Q124 205 118 173L46 183Q51 221 76.5 246Q102 271 145 271Q194 271 219.5 249.5Q245 228 245 190Q245 144 209 133ZM63 589Q86 589 100.5 598.5Q115 608 120 630H188V362H104V534H63ZM20 338H278V295H20Z" glyph-name="uni2153" horiz-adv-x="298" unicode="&#8531;" /><glyph d="M245 190Q245 144 209 133Q246 120 246 76Q246 38 220 16Q194 -6 146 -6Q102 -6 74.5 17Q47 40 45 80L118 93Q120 73 127.5 66Q135 59 146 59Q158 59 162.5 66Q167 73 167 84Q167 98 161 103Q155 108 144 108Q142 108 137 108Q132 108 127 107V159Q132 158 137 158Q142 158 144 158Q166 158 166 184Q166 193 161 199Q156 205 145 205Q124 205 118 173L46 183Q51 221 76.5 246Q102 271 145 271Q194 271 219.5 249.5Q245 228 245 190ZM251 548Q251 504 209 472L160 431H248V362H52V422L127 492Q148 512 158 523Q168 534 168 548Q168 564 153 564Q131 564 126 524L49 539Q50 556 57.5 573Q65 590 78 603.5Q91 617 110 625.5Q129 634 153 634Q201 634 226 609.5Q251 585 251 548ZM20 338H278V295H20Z" glyph-name="uni2154" horiz-adv-x="298" unicode="&#8532;" /><glyph d="M149 162Q173 162 173 185Q173 209 149 209Q125 209 125 185Q125 162 149 162ZM149 59Q176 59 176 82Q176 106 149 106Q122 106 122 82Q122 59 149 59ZM63 589Q86 589 100.5 598.5Q115 608 120 630H188V362H104V534H63ZM149 -5Q103 -5 73 17Q43 39 43 77Q43 100 53.5 114Q64 128 81 134Q64 139 55 154.5Q46 170 46 190Q46 229 73.5 251Q101 273 149 273Q197 273 224.5 251Q252 229 252 190Q252 170 243 154.5Q234 139 217 134Q234 128 244.5 114Q255 100 255 77Q255 39 225 17Q195 -5 149 -5ZM20 338H278V295H20Z" glyph-name="uni215B" horiz-adv-x="298" unicode="&#8539;" /><glyph d="M246 553Q246 507 210 496Q247 483 247 439Q247 401 221 379Q195 357 147 357Q103 357 75.5 380Q48 403 46 443L119 456Q121 436 128.5 429Q136 422 147 422Q159 422 163.5 429Q168 436 168 447Q168 461 162 466Q156 471 145 471Q143 471 138 471Q133 471 128 470V522Q133 521 138 521Q143 521 145 521Q167 521 167 547Q167 556 162 562Q157 568 146 568Q125 568 119 536L47 546Q52 584 77.5 609Q103 634 146 634Q195 634 220.5 612.5Q246 591 246 553ZM149 162Q173 162 173 185Q173 209 149 209Q125 209 125 185Q125 162 149 162ZM149 59Q176 59 176 82Q176 106 149 106Q122 106 122 82Q122 59 149 59ZM149 -5Q103 -5 73 17Q43 39 43 77Q43 100 53.5 114Q64 128 81 134Q64 139 55 154.5Q46 170 46 190Q46 229 73.5 251Q101 273 149 273Q197 273 224.5 251Q252 229 252 190Q252 170 243 154.5Q234 139 217 134Q234 128 244.5 114Q255 100 255 77Q255 39 225 17Q195 -5 149 -5ZM20 336H278V293H20Z" glyph-name="uni215C" horiz-adv-x="298" unicode="&#8540;" /><glyph d="M149 484Q141 484 135.5 480Q130 476 128 471L49 477Q51 493 53.5 512.5Q56 532 58.5 552.5Q61 573 63 593Q65 613 65 630H236V561H124Q124 554 123 544Q122 534 120 529Q125 534 138.5 538.5Q152 543 169 543Q206 543 229 522Q252 501 252 455Q252 410 224.5 383.5Q197 357 147 357Q105 357 77.5 379Q50 401 43 436L119 455Q121 441 128 431Q135 421 148 421Q172 421 172 453Q172 466 167 475Q162 484 149 484ZM149 162Q173 162 173 185Q173 209 149 209Q125 209 125 185Q125 162 149 162ZM149 59Q176 59 176 82Q176 106 149 106Q122 106 122 82Q122 59 149 59ZM149 -5Q103 -5 73 17Q43 39 43 77Q43 100 53.5 114Q64 128 81 134Q64 139 55 154.5Q46 170 46 190Q46 229 73.5 251Q101 273 149 273Q197 273 224.5 251Q252 229 252 190Q252 170 243 154.5Q234 139 217 134Q234 128 244.5 114Q255 100 255 77Q255 39 225 17Q195 -5 149 -5ZM20 336H278V293H20Z" glyph-name="uni215D" horiz-adv-x="298" unicode="&#8541;" /><glyph d="M149 162Q173 162 173 185Q173 209 149 209Q125 209 125 185Q125 162 149 162ZM149 59Q176 59 176 82Q176 106 149 106Q122 106 122 82Q122 59 149 59ZM149 -5Q103 -5 73 17Q43 39 43 77Q43 100 53.5 114Q64 128 81 134Q64 139 55 154.5Q46 170 46 190Q46 229 73.5 251Q101 273 149 273Q197 273 224.5 251Q252 229 252 190Q252 170 243 154.5Q234 139 217 134Q234 128 244.5 114Q255 100 255 77Q255 39 225 17Q195 -5 149 -5ZM52 556V630H244V564Q211 518 196.5 471.5Q182 425 182 362H90Q90 394 95.5 420Q101 446 110.5 469Q120 492 132.5 513Q145 534 160 556ZM20 336H278V293H20Z" glyph-name="uni215E" horiz-adv-x="298" unicode="&#8542;" /><glyph d="M226 0V50Q215 25 190 8.5Q165 -8 128 -8Q97 -8 76.5 2.5Q56 13 43.5 30Q31 47 26 68.5Q21 90 21 111V446H161V152Q161 111 190 111Q211 111 218.5 129Q226 147 226 173V446H366V0Q339 -17 327 -32.5Q315 -48 315 -62Q315 -83 337 -83Q349 -83 366 -75V-150Q355 -158 340.5 -162.5Q326 -167 305 -167Q274 -167 251 -149.5Q228 -132 228 -93Q228 -65 241.5 -43Q255 -21 277 0Z" glyph-name="uogonek" horiz-adv-x="387" unicode="&#371;" /><glyph d="M226 446H366V0H226V50Q215 25 190 8.5Q165 -8 128 -8Q97 -8 76.5 2.5Q56 13 43.5 30Q31 47 26 68.5Q21 90 21 111V446H161V152Q161 111 190 111Q211 111 218.5 129Q226 147 226 173ZM158 563Q158 546 167 536Q176 526 194 526Q213 526 222 536Q231 546 231 563Q231 579 222 589Q213 599 194 599Q176 599 167 589Q158 579 158 563ZM99 563Q99 602 125 628Q151 654 194 654Q238 654 264 628Q290 602 290 563Q290 523 264 497Q238 471 194 471Q151 471 125 497Q99 523 99 563Z" glyph-name="uring" horiz-adv-x="387" unicode="&#367;" /><glyph d="M226 446H366V0H226V50Q215 25 190 8.5Q165 -8 128 -8Q97 -8 76.5 2.5Q56 13 43.5 30Q31 47 26 68.5Q21 90 21 111V446H161V152Q161 111 190 111Q211 111 218.5 129Q226 147 226 173ZM61 481Q61 542 76.5 580.5Q92 619 133 619Q149 619 162.5 613Q176 607 189 600.5Q202 594 213.5 588Q225 582 236 582Q255 582 258 616H328Q328 554 312 516Q296 478 256 478Q240 478 226.5 484Q213 490 200 496.5Q187 503 175.5 509Q164 515 153 515Q134 515 131 481Z" glyph-name="utilde" horiz-adv-x="387" unicode="&#361;" /><glyph d="M118 0 0 446H135L189 217H193L245 446H369L252 0Z" glyph-name="v" horiz-adv-x="369" unicode="v" /><glyph d="M370 225H374L418 446H538L441 0H312L271 250H267L226 0H97L0 446H131L176 224H180L219 446H330Z" glyph-name="w" horiz-adv-x="538" unicode="w" /><glyph d="M370 225H374L418 446H538L441 0H312L271 250H267L226 0H97L0 446H131L176 224H180L219 446H330ZM216 483 266 626H407L315 483Z" glyph-name="wacute" horiz-adv-x="538" unicode="&#7811;" /><glyph d="M370 225H374L418 446H538L441 0H312L271 250H267L226 0H97L0 446H131L176 224H180L219 446H330ZM333 616 394 478H305L269 538L233 478H144L205 616Z" glyph-name="wcircumflex" horiz-adv-x="538" unicode="&#373;" /><glyph d="M370 225H374L418 446H538L441 0H312L271 250H267L226 0H97L0 446H131L176 224H180L219 446H330ZM146 611H257V482H146ZM281 611H392V482H281Z" glyph-name="wdieresis" horiz-adv-x="538" unicode="&#7813;" /><glyph d="M370 225H374L418 446H538L441 0H312L271 250H267L226 0H97L0 446H131L176 224H180L219 446H330ZM227 483 134 626H276L325 483Z" glyph-name="wgrave" horiz-adv-x="538" unicode="&#7809;" /><glyph d="M265 230 394 0H249L191 111L133 0H-4L124 223L1 446H146L199 336L252 446H389Z" glyph-name="x" horiz-adv-x="390" unicode="x" /><glyph d="M0 446H137L192 204H196L254 446H376L215 -160H83L123 -16Z" glyph-name="y" horiz-adv-x="376" unicode="y" /><glyph d="M0 446H137L192 204H196L254 446H376L215 -160H83L123 -16ZM135 483 185 626H326L234 483Z" glyph-name="yacute" horiz-adv-x="376" unicode="&#253;" /><glyph d="M0 446H137L192 204H196L254 446H376L215 -160H83L123 -16ZM253 616 314 478H225L189 538L153 478H64L125 616Z" glyph-name="ycircumflex" horiz-adv-x="376" unicode="&#375;" /><glyph d="M0 446H137L192 204H196L254 446H376L215 -160H83L123 -16ZM66 611H177V482H66ZM201 611H312V482H201Z" glyph-name="ydieresis" horiz-adv-x="376" unicode="&#255;" /><glyph d="M47 339H112L0 630H148L221 408L288 630H429L316 339H382V249H282V205H382V115H282V0H147V115H47V205H147V249H47Z" glyph-name="yen" horiz-adv-x="429" unicode="&#165;" /><glyph d="M0 446H137L192 204H196L254 446H376L215 -160H83L123 -16ZM147 483 54 626H196L245 483Z" glyph-name="ygrave" horiz-adv-x="376" unicode="&#7923;" /><glyph d="M19 344V446H309V351L164 102H313V0H15V96L161 344Z" glyph-name="z" horiz-adv-x="328" unicode="z" /><glyph d="M19 344V446H309V351L164 102H313V0H15V96L161 344ZM117 483 167 626H308L216 483Z" glyph-name="zacute" horiz-adv-x="328" unicode="&#378;" /><glyph d="M19 344V446H309V351L164 102H313V0H15V96L161 344ZM107 481 46 619H135L171 559L207 619H296L235 481Z" glyph-name="zcaron" horiz-adv-x="328" unicode="&#382;" /><glyph d="M19 344V446H309V351L164 102H313V0H15V96L161 344ZM102 630H241V490H102Z" glyph-name="zdotaccent" horiz-adv-x="328" unicode="&#380;" /><glyph d="M420 281Q420 213 409 159.5Q398 106 373.5 68.5Q349 31 310 11.5Q271 -8 216 -8Q161 -8 122 11.5Q83 31 58.5 68.5Q34 106 23 159.5Q12 213 12 281V349Q12 417 23 470.5Q34 524 58.5 561.5Q83 599 122 618.5Q161 638 216 638Q271 638 310 618.5Q349 599 373.5 561.5Q398 524 409 470.5Q420 417 420 349ZM163 207Q163 165 173.5 138Q184 111 216 111Q248 111 258.5 138Q269 165 269 207V423Q269 465 258.5 492Q248 519 216 519Q184 519 173.5 492Q163 465 163 423Z" glyph-name="zero" horiz-adv-x="432" unicode="0" /></font>
</defs>
</svg>
