<?xml version="1.0" standalone="no"?><!DOCTYPE svg PUBLIC "-//W3C//DTD SVG 1.1//EN" "http://www.w3.org/Graphics/SVG/1.1/DTD/svg11.dtd" ><svg version="1.1" xmlns="http://www.w3.org/2000/svg"><defs><font horiz-adv-x="0" id="font"><font-face ascent="766" bbox="-43 -189 787 924" cap-height="630" descent="-234" font-family="Copyright Klim Type Foundry" font-stretch="extra-condensed" font-style="normal" font-weight="600" units-per-em="1000" x-height="443" /><missing-glyph horiz-adv-x="608" /><glyph glyph-name=".null" horiz-adv-x="0" /><glyph d="M281 630 415 0H291L265 136H140L114 0H0L134 630ZM158 231H248L206 457H202Z" glyph-name="A" horiz-adv-x="415" unicode="A" /><glyph d="M258 0V144H157L119 0H0L178 630H540V528H379V373H497V271H379V102H542V0ZM254 504 183 239H258V504Z" glyph-name="AE" horiz-adv-x="557" unicode="&#198;" /><glyph d="M292 661 338 798H460L373 661ZM258 0V144H157L119 0H0L178 630H540V528H379V373H497V271H379V102H542V0ZM254 504 183 239H258V504Z" glyph-name="AEacute" horiz-adv-x="557" unicode="&#508;" /><glyph d="M281 630 415 0H291L265 136H140L114 0H0L134 630ZM158 231H248L206 457H202ZM165 661 211 798H333L246 661Z" glyph-name="Aacute" horiz-adv-x="415" unicode="&#193;" /><glyph d="M281 630 415 0H291L265 136H140L114 0H0L134 630ZM158 231H248L206 457H202ZM207 653Q151 653 125 690.5Q99 728 99 787H174Q174 730 207 730Q241 730 241 787H316Q316 727 290 690Q264 653 207 653Z" glyph-name="Abreve" horiz-adv-x="415" unicode="&#258;" /><glyph d="M281 630 415 0H291L265 136H140L114 0H0L134 630ZM158 231H248L206 457H202ZM262 789 322 656H246L207 721L168 656H93L152 789Z" glyph-name="Acircumflex" horiz-adv-x="415" unicode="&#194;" /><glyph d="M281 630 415 0H291L265 136H140L114 0H0L134 630ZM158 231H248L206 457H202ZM99 778H195V662H99ZM220 778H315V662H220Z" glyph-name="Adieresis" horiz-adv-x="415" unicode="&#196;" /><glyph d="M281 630 415 0H291L265 136H140L114 0H0L134 630ZM158 231H248L206 457H202ZM174 661 87 798H210L255 661Z" glyph-name="Agrave" horiz-adv-x="415" unicode="&#192;" /><glyph d="M281 630 415 0H291L265 136H140L114 0H0L134 630ZM158 231H248L206 457H202ZM112 750H303V668H112Z" glyph-name="Amacron" horiz-adv-x="415" unicode="&#256;" /><glyph d="M281 630 415 0H359Q336 -25 328.5 -39.5Q321 -54 321 -70Q321 -83 327.5 -89Q334 -95 345 -95Q356 -95 373 -88V-153Q362 -161 349.5 -164.5Q337 -168 318 -168Q289 -168 267 -150.5Q245 -133 245 -95Q245 -67 258 -43.5Q271 -20 291 0L266 136H140L114 0H0L134 630ZM158 231H248L206 457H202Z" glyph-name="Aogonek" horiz-adv-x="415" unicode="&#260;" /><glyph d="M281 630 415 0H291L265 136H140L114 0H0L134 630ZM158 231H248L206 457H202ZM171 734Q171 717 180 707Q189 697 207 697Q225 697 234 707Q243 717 243 734Q243 751 234 760.5Q225 770 207 770Q189 770 180 760.5Q171 751 171 734ZM118 734Q118 771 142 795Q166 819 207 819Q248 819 272 795Q296 771 296 734Q296 697 272 672.5Q248 648 207 648Q166 648 142 672.5Q118 697 118 734Z" glyph-name="Aring" horiz-adv-x="415" unicode="&#197;" /><glyph d="M196 924H331L254 818H160ZM205 692Q241 692 241 724Q241 738 232 747Q223 756 205 756Q188 756 179.5 747Q171 738 171 724Q171 692 205 692ZM117 724Q117 757 141 779.5Q165 802 205 802Q247 802 271 779.5Q295 757 295 724Q295 690 271 667.5Q247 645 205 645Q165 645 141 667.5Q117 690 117 724ZM281 630 415 0H291L265 136H140L114 0H0L134 630ZM158 231H248L206 457H202Z" glyph-name="Aringacute" horiz-adv-x="415" unicode="&#506;" /><glyph d="M281 630 415 0H291L265 136H140L114 0H0L134 630ZM158 231H248L206 457H202ZM85 661Q85 721 99.5 756.5Q114 792 151 792Q166 792 179.5 785Q193 778 204.5 770Q216 762 226.5 755Q237 748 247 748Q266 748 268 789H329Q329 730 314.5 694Q300 658 263 658Q248 658 234.5 665Q221 672 209.5 680Q198 688 187.5 695Q177 702 167 702Q148 702 146 661Z" glyph-name="Atilde" horiz-adv-x="415" unicode="&#195;" /><glyph d="M381 174Q381 91 337.5 45.5Q294 0 196 0H25V630H193Q242 630 275.5 618Q309 606 330 584Q351 562 360 531Q369 500 369 463Q369 405 340 368.5Q311 332 264 324Q321 313 351 275Q381 237 381 174ZM145 273V100H184Q230 100 246 122Q262 144 262 186Q262 227 246 250Q230 273 184 273ZM145 368H180Q225 368 239.5 390Q254 412 254 448Q254 484 239.5 507.5Q225 531 180 531H145Z" glyph-name="B" horiz-adv-x="394" unicode="B" /><glyph d="M15 359Q15 495 60.5 566.5Q106 638 203 638Q282 638 320 585Q358 532 363 438L255 418Q254 443 251.5 465Q249 487 243 503Q237 519 226.5 528Q216 537 200 537Q168 537 155.5 505Q143 473 143 418V212Q143 157 155.5 125Q168 93 200 93Q216 93 226.5 102Q237 111 243 127Q249 143 251.5 165Q254 187 255 212L363 192Q358 98 320 45Q282 -8 203 -8Q106 -8 60.5 63.5Q15 135 15 271Z" glyph-name="C" horiz-adv-x="392" unicode="C" /><glyph d="M15 359Q15 495 60.5 566.5Q106 638 203 638Q282 638 320 585Q358 532 363 438L255 418Q254 443 251.5 465Q249 487 243 503Q237 519 226.5 528Q216 537 200 537Q168 537 155.5 505Q143 473 143 418V212Q143 157 155.5 125Q168 93 200 93Q216 93 226.5 102Q237 111 243 127Q249 143 251.5 165Q254 187 255 212L363 192Q358 98 320 45Q282 -8 203 -8Q106 -8 60.5 63.5Q15 135 15 271ZM163 661 209 798H331L244 661Z" glyph-name="Cacute" horiz-adv-x="392" unicode="&#262;" /><glyph d="M15 359Q15 495 60.5 566.5Q106 638 203 638Q282 638 320 585Q358 532 363 438L255 418Q254 443 251.5 465Q249 487 243 503Q237 519 226.5 528Q216 537 200 537Q168 537 155.5 505Q143 473 143 418V212Q143 157 155.5 125Q168 93 200 93Q216 93 226.5 102Q237 111 243 127Q249 143 251.5 165Q254 187 255 212L363 192Q358 98 320 45Q282 -8 203 -8Q106 -8 60.5 63.5Q15 135 15 271ZM150 659 91 793H166L205 727L244 793H320L260 659Z" glyph-name="Ccaron" horiz-adv-x="392" unicode="&#268;" /><glyph d="M294 -99Q294 -138 269 -156Q244 -174 208 -174Q182 -174 158.5 -165.5Q135 -157 121 -143L138 -93Q150 -104 166.5 -112Q183 -120 200 -120Q226 -120 226 -100Q226 -84 206.5 -77.5Q187 -71 157 -71L185 -7Q97 -1 56 70Q15 141 15 271V359Q15 495 60.5 566.5Q106 638 203 638Q282 638 320 585Q358 532 363 438L255 418Q254 443 251.5 465Q249 487 243 503Q237 519 226.5 528Q216 537 200 537Q168 537 155.5 505Q143 473 143 418V212Q143 157 155.5 125Q168 93 200 93Q216 93 226.5 102Q237 111 243 127Q249 143 251.5 165Q254 187 255 212L363 192Q358 106 325.5 54Q293 2 227 -6L218 -28Q247 -30 270.5 -46Q294 -62 294 -99Z" glyph-name="Ccedilla" horiz-adv-x="392" unicode="&#199;" /><glyph d="M15 359Q15 495 60.5 566.5Q106 638 203 638Q282 638 320 585Q358 532 363 438L255 418Q254 443 251.5 465Q249 487 243 503Q237 519 226.5 528Q216 537 200 537Q168 537 155.5 505Q143 473 143 418V212Q143 157 155.5 125Q168 93 200 93Q216 93 226.5 102Q237 111 243 127Q249 143 251.5 165Q254 187 255 212L363 192Q358 98 320 45Q282 -8 203 -8Q106 -8 60.5 63.5Q15 135 15 271ZM260 789 320 656H244L205 721L166 656H91L150 789Z" glyph-name="Ccircumflex" horiz-adv-x="392" unicode="&#264;" /><glyph d="M147 793H265V668H147ZM15 359Q15 495 60.5 566.5Q106 638 203 638Q282 638 320 585Q358 532 363 438L255 418Q254 443 251.5 465Q249 487 243 503Q237 519 226.5 528Q216 537 200 537Q168 537 155.5 505Q143 473 143 418V212Q143 157 155.5 125Q168 93 200 93Q216 93 226.5 102Q237 111 243 127Q249 143 251.5 165Q254 187 255 212L363 192Q358 98 320 45Q282 -8 203 -8Q106 -8 60.5 63.5Q15 135 15 271Z" glyph-name="Cdotaccent" horiz-adv-x="392" unicode="&#266;" /><glyph d="M262 404Q262 470 244 501Q226 532 181 532H149V98H181Q226 98 244 129Q262 160 262 226ZM388 263Q388 133 342.5 66.5Q297 0 196 0H25V630H196Q297 630 342.5 563.5Q388 497 388 367Z" glyph-name="D" horiz-adv-x="404" unicode="D" /><glyph d="M140 659 81 793H156L195 727L234 793H310L250 659ZM262 404Q262 470 244 501Q226 532 181 532H149V98H181Q226 98 244 129Q262 160 262 226ZM388 263Q388 133 342.5 66.5Q297 0 196 0H25V630H196Q297 630 342.5 563.5Q388 497 388 367Z" glyph-name="Dcaron" horiz-adv-x="404" unicode="&#270;" /><glyph d="M4 373H32V630H203Q305 630 350.5 563.5Q396 497 396 367V263Q396 133 350.5 66.5Q305 0 203 0H32V271H4ZM270 404Q270 470 251.5 501Q233 532 189 532H157V373H200V271H157V98H189Q233 98 251.5 129Q270 160 270 226Z" glyph-name="Dcroat" horiz-adv-x="411" unicode="&#272;" /><glyph d="M320 0H25V630H318V528H146V373H275V271H146V102H320Z" glyph-name="E" horiz-adv-x="336" unicode="E" /><glyph d="M130 661 176 798H298L211 661ZM320 0H25V630H318V528H146V373H275V271H146V102H320Z" glyph-name="Eacute" horiz-adv-x="336" unicode="&#201;" /><glyph d="M173 653Q117 653 91 690.5Q65 728 65 787H140Q140 730 173 730Q207 730 207 787H282Q282 727 256 690Q230 653 173 653ZM320 0H25V630H318V528H146V373H275V271H146V102H320Z" glyph-name="Ebreve" horiz-adv-x="336" unicode="&#276;" /><glyph d="M118 659 59 793H134L173 727L212 793H288L228 659ZM320 0H25V630H318V528H146V373H275V271H146V102H320Z" glyph-name="Ecaron" horiz-adv-x="336" unicode="&#282;" /><glyph d="M320 0H25V630H318V528H146V373H275V271H146V102H320ZM228 789 288 656H212L173 721L134 656H59L118 789Z" glyph-name="Ecircumflex" horiz-adv-x="336" unicode="&#202;" /><glyph d="M65 778H161V662H65ZM186 778H281V662H186ZM320 0H25V630H318V528H146V373H275V271H146V102H320Z" glyph-name="Edieresis" horiz-adv-x="336" unicode="&#203;" /><glyph d="M115 793H233V668H115ZM320 0H25V630H318V528H146V373H275V271H146V102H320Z" glyph-name="Edotaccent" horiz-adv-x="336" unicode="&#278;" /><glyph d="M139 661 52 798H175L220 661ZM320 0H25V630H318V528H146V373H275V271H146V102H320Z" glyph-name="Egrave" horiz-adv-x="336" unicode="&#200;" /><glyph d="M78 750H269V668H78ZM320 0H25V630H318V528H146V373H275V271H146V102H320Z" glyph-name="Emacron" horiz-adv-x="336" unicode="&#274;" /><glyph d="M144 367H140V0H25V630H139L273 298H277V630H392V19Q392 -71 352.5 -117Q313 -163 245 -163Q207 -163 175 -146Q143 -129 124 -101L175 -26Q186 -43 201 -52.5Q216 -62 233 -62Q284 -62 284 17V36Z" glyph-name="Eng" horiz-adv-x="417" unicode="&#330;" /><glyph d="M320 0H281Q258 -25 251 -39Q244 -53 244 -70Q244 -83 250.5 -89Q257 -95 268 -95Q279 -95 296 -88V-153Q275 -168 241 -168Q211 -168 189.5 -150.5Q168 -133 168 -95Q168 -67 180.5 -44Q193 -21 213 0H25V630H318V528H146V373H275V271H146V102H320Z" glyph-name="Eogonek" horiz-adv-x="336" unicode="&#280;" /><glyph d="M4 373H32V630H203Q305 630 350.5 563.5Q396 497 396 367V263Q396 133 350.5 66.5Q305 0 203 0H32V271H4ZM270 404Q270 470 251.5 501Q233 532 189 532H157V373H200V271H157V98H189Q233 98 251.5 129Q270 160 270 226Z" glyph-name="Eth" horiz-adv-x="411" unicode="&#208;" /><glyph d="M10 401H47Q54 516 99 577Q144 638 233 638Q312 638 350.5 585Q389 532 394 438L286 418Q285 443 282.5 465Q280 487 274 503Q268 519 257.5 528Q247 537 231 537Q199 537 186 505Q173 473 173 418V401H254L244 331H173V293H237L227 223H173V212Q173 157 186 125Q199 93 231 93Q247 93 257.5 102Q268 111 274 127Q280 143 282.5 165Q285 187 286 212L394 192Q389 98 350.5 45Q312 -8 233 -8Q145 -8 100 51Q55 110 47 223H10V293H46V331H10Z" glyph-name="Euro" horiz-adv-x="427" unicode="&#8364;" /><glyph d="M25 0V630H308V528H149V358H267V256H149V0Z" glyph-name="F" horiz-adv-x="319" unicode="F" /><glyph d="M143 418V221Q143 165 156 130Q169 95 204 95Q239 95 251.5 127Q264 159 264 215V234H212V328H381V0H298L288 60Q277 27 247 9.5Q217 -8 178 -8Q97 -8 56 63.5Q15 135 15 270V361Q15 496 62 567Q109 638 206 638Q285 638 327.5 585Q370 532 375 439L267 418Q266 443 262 465Q258 487 250.5 503Q243 519 231.5 528.5Q220 538 204 538Q172 538 157.5 506Q143 474 143 418Z" glyph-name="G" horiz-adv-x="403" unicode="G" /><glyph d="M204 653Q148 653 122 690.5Q96 728 96 787H171Q171 730 204 730Q238 730 238 787H313Q313 727 287 690Q261 653 204 653ZM143 418V221Q143 165 156 130Q169 95 204 95Q239 95 251.5 127Q264 159 264 215V234H212V328H381V0H298L288 60Q277 27 247 9.5Q217 -8 178 -8Q97 -8 56 63.5Q15 135 15 270V361Q15 496 62 567Q109 638 206 638Q285 638 327.5 585Q370 532 375 439L267 418Q266 443 262 465Q258 487 250.5 503Q243 519 231.5 528.5Q220 538 204 538Q172 538 157.5 506Q143 474 143 418Z" glyph-name="Gbreve" horiz-adv-x="403" unicode="&#286;" /><glyph d="M143 418V221Q143 165 156 130Q169 95 204 95Q239 95 251.5 127Q264 159 264 215V234H212V328H381V0H298L288 60Q277 27 247 9.5Q217 -8 178 -8Q97 -8 56 63.5Q15 135 15 270V361Q15 496 62 567Q109 638 206 638Q285 638 327.5 585Q370 532 375 439L267 418Q266 443 262 465Q258 487 250.5 503Q243 519 231.5 528.5Q220 538 204 538Q172 538 157.5 506Q143 474 143 418ZM259 789 319 656H243L204 721L165 656H90L149 789Z" glyph-name="Gcircumflex" horiz-adv-x="403" unicode="&#284;" /><glyph d="M149 -30H259V-93Q259 -141 233 -165Q207 -189 149 -189V-146Q172 -146 182 -139Q192 -132 193 -112H149ZM143 418V221Q143 165 156 130Q169 95 204 95Q239 95 251.5 127Q264 159 264 215V234H212V328H381V0H298L288 60Q277 27 247 9.5Q217 -8 178 -8Q97 -8 56 63.5Q15 135 15 270V361Q15 496 62 567Q109 638 206 638Q285 638 327.5 585Q370 532 375 439L267 418Q266 443 262 465Q258 487 250.5 503Q243 519 231.5 528.5Q220 538 204 538Q172 538 157.5 506Q143 474 143 418Z" glyph-name="Gcommaaccent" horiz-adv-x="403" unicode="&#290;" /><glyph d="M146 793H264V668H146ZM143 418V221Q143 165 156 130Q169 95 204 95Q239 95 251.5 127Q264 159 264 215V234H212V328H381V0H298L288 60Q277 27 247 9.5Q217 -8 178 -8Q97 -8 56 63.5Q15 135 15 270V361Q15 496 62 567Q109 638 206 638Q285 638 327.5 585Q370 532 375 439L267 418Q266 443 262 465Q258 487 250.5 503Q243 519 231.5 528.5Q220 538 204 538Q172 538 157.5 506Q143 474 143 418Z" glyph-name="Gdotaccent" horiz-adv-x="403" unicode="&#288;" /><glyph d="M25 0V630H149V373H270V630H394V0H270V271H149V0Z" glyph-name="H" horiz-adv-x="419" unicode="H" /><glyph d="M4 538H32V630H157V538H277V630H402V538H430V442H402V0H277V253H157V0H32V442H4ZM277 350V442H157V350Z" glyph-name="Hbar" horiz-adv-x="434" unicode="&#294;" /><glyph d="M25 0V630H149V373H270V630H394V0H270V271H149V0ZM264 789 324 656H248L209 721L170 656H95L154 789Z" glyph-name="Hcircumflex" horiz-adv-x="419" unicode="&#292;" /><glyph d="M149 630V0H25V630Z" glyph-name="I" horiz-adv-x="174" unicode="I" /><glyph d="M149 630V0H25V630ZM278 193Q282 150 295 123Q308 96 335 96Q366 96 375.5 120.5Q385 145 385 190V630H513V192Q513 148 503.5 111.5Q494 75 473.5 48.5Q453 22 420 7Q387 -8 339 -8Q298 -8 267.5 5.5Q237 19 216 43Q195 67 183 99.5Q171 132 168 170Z" glyph-name="IJ" horiz-adv-x="547" unicode="&#306;" /><glyph d="M149 630V0H25V630ZM45 661 91 798H213L126 661Z" glyph-name="Iacute" horiz-adv-x="174" unicode="&#205;" /><glyph d="M149 630V0H25V630ZM87 653Q31 653 5 690.5Q-21 728 -21 787H54Q54 730 87 730Q121 730 121 787H196Q196 727 170 690Q144 653 87 653Z" glyph-name="Ibreve" horiz-adv-x="174" unicode="&#300;" /><glyph d="M149 630V0H25V630ZM142 789 202 656H126L87 721L48 656H-27L32 789Z" glyph-name="Icircumflex" horiz-adv-x="174" unicode="&#206;" /><glyph d="M149 630V0H25V630ZM-21 778H75V662H-21ZM100 778H195V662H100Z" glyph-name="Idieresis" horiz-adv-x="174" unicode="&#207;" /><glyph d="M149 630V0H25V630ZM29 793H147V668H29Z" glyph-name="Idotaccent" horiz-adv-x="174" unicode="&#304;" /><glyph d="M149 630V0H25V630ZM54 661 -33 798H90L135 661Z" glyph-name="Igrave" horiz-adv-x="174" unicode="&#204;" /><glyph d="M149 630V0H25V630ZM-8 750H183V668H-8Z" glyph-name="Imacron" horiz-adv-x="174" unicode="&#298;" /><glyph d="M149 630V0Q122 -20 110.5 -37Q99 -54 99 -70Q99 -83 106 -89Q113 -95 124 -95Q135 -95 152 -88V-153Q131 -168 97 -168Q68 -168 46 -150.5Q24 -133 24 -95Q24 -66 37.5 -43.5Q51 -21 72 0H25V630Z" glyph-name="Iogonek" horiz-adv-x="174" unicode="&#302;" /><glyph d="M149 630V0H25V630ZM-34 661Q-34 721 -19.5 756.5Q-5 792 32 792Q47 792 60.5 785Q74 778 85.5 770Q97 762 107.5 755Q118 748 128 748Q147 748 149 789H210Q210 730 195.5 694Q181 658 144 658Q129 658 115.5 665Q102 672 90.5 680Q79 688 68.5 695Q58 702 48 702Q29 702 27 661Z" glyph-name="Itilde" horiz-adv-x="174" unicode="&#296;" /><glyph d="M117 193Q121 150 134 123Q147 96 174 96Q205 96 214.5 120.5Q224 145 224 190V630H352V192Q352 148 342.5 111.5Q333 75 312.5 48.5Q292 22 259 7Q226 -8 178 -8Q137 -8 106.5 5.5Q76 19 55 43Q34 67 22 99.5Q10 132 7 170Z" glyph-name="J" horiz-adv-x="385" unicode="J" /><glyph d="M117 193Q121 150 134 123Q147 96 174 96Q205 96 214.5 120.5Q224 145 224 190V630H352V192Q352 148 342.5 111.5Q333 75 312.5 48.5Q292 22 259 7Q226 -8 178 -8Q137 -8 106.5 5.5Q76 19 55 43Q34 67 22 99.5Q10 132 7 170ZM354 789 414 656H338L299 721L260 656H185L244 789Z" glyph-name="Jcircumflex" horiz-adv-x="385" unicode="&#308;" /><glyph d="M265 0 186 242 149 149V0H25V630H149V330L265 630H393L279 355L395 0Z" glyph-name="K" horiz-adv-x="395" unicode="K" /><glyph d="M151 -30H261V-93Q261 -141 235 -165Q209 -189 151 -189V-146Q174 -146 184 -139Q194 -132 195 -112H151ZM265 0 186 242 149 149V0H25V630H149V330L265 630H393L279 355L395 0Z" glyph-name="Kcommaaccent" horiz-adv-x="395" unicode="&#310;" /><glyph d="M149 630V102H318V0H25V630Z" glyph-name="L" horiz-adv-x="329" unicode="L" /><glyph d="M44 661 90 798H212L125 661ZM149 630V102H318V0H25V630Z" glyph-name="Lacute" horiz-adv-x="329" unicode="&#313;" /><glyph d="M180 491 194 630H312L252 491ZM149 630V102H318V0H25V630Z" glyph-name="Lcaron" horiz-adv-x="329" unicode="&#317;" /><glyph d="M116 -30H226V-93Q226 -141 200 -165Q174 -189 116 -189V-146Q139 -146 149 -139Q159 -132 160 -112H116ZM149 630V102H318V0H25V630Z" glyph-name="Lcommaaccent" horiz-adv-x="329" unicode="&#315;" /><glyph d="M149 630V102H318V0H25V630ZM197.0361 362.01H311.2334V244.3977H197.0361Z" glyph-name="Ldot" horiz-adv-x="329" unicode="&#319;" /><glyph d="M4 309 32 323V630H157V373L244 415V312L157 269V102H326V0H32V219L4 206Z" glyph-name="Lslash" horiz-adv-x="329" unicode="&#321;" /><glyph d="M263 266H267L339 630H496V0H381V393H377L298 0H220L138 393H134V0H25V630H185Z" glyph-name="M" horiz-adv-x="521" unicode="M" /><glyph d="M277 630H392V0H298L144 367H140V0H25V630H139L273 298H277Z" glyph-name="N" horiz-adv-x="417" unicode="N" /><glyph d="M166 661 212 798H334L247 661ZM277 630H392V0H298L144 367H140V0H25V630H139L273 298H277Z" glyph-name="Nacute" horiz-adv-x="417" unicode="&#323;" /><glyph d="M153 659 94 793H169L208 727L247 793H323L263 659ZM277 630H392V0H298L144 367H140V0H25V630H139L273 298H277Z" glyph-name="Ncaron" horiz-adv-x="417" unicode="&#327;" /><glyph d="M153 -30H263V-93Q263 -141 237 -165Q211 -189 153 -189V-146Q176 -146 186 -139Q196 -132 197 -112H153ZM277 630H392V0H298L144 367H140V0H25V630H139L273 298H277Z" glyph-name="Ncommaaccent" horiz-adv-x="417" unicode="&#325;" /><glyph d="M87 661Q87 721 101.5 756.5Q116 792 153 792Q168 792 181.5 785Q195 778 206.5 770Q218 762 228.5 755Q239 748 249 748Q268 748 270 789H331Q331 730 316.5 694Q302 658 265 658Q250 658 236.5 665Q223 672 211.5 680Q200 688 189.5 695Q179 702 169 702Q150 702 148 661ZM277 630H392V0H298L144 367H140V0H25V630H139L273 298H277Z" glyph-name="Ntilde" horiz-adv-x="417" unicode="&#209;" /><glyph d="M390 273Q390 139 346 65.5Q302 -8 203 -8Q104 -8 59.5 65.5Q15 139 15 273V357Q15 491 59.5 564.5Q104 638 203 638Q302 638 346 564.5Q390 491 390 357ZM144 222Q144 194 146.5 170.5Q149 147 155.5 129.5Q162 112 173.5 102.5Q185 93 203 93Q221 93 232.5 102.5Q244 112 250.5 129.5Q257 147 259.5 170.5Q262 194 262 222V408Q262 436 259.5 459.5Q257 483 250.5 500Q244 517 232.5 527Q221 537 203 537Q185 537 173.5 527Q162 517 155.5 500Q149 483 146.5 459.5Q144 436 144 408Z" glyph-name="O" horiz-adv-x="406" unicode="O" /><glyph d="M210 0Q109 0 62 66.5Q15 133 15 263V367Q15 497 62 563.5Q109 630 210 630H532V528H374V373H489V271H374V102H534V0ZM142 226Q142 160 161 129Q180 98 225 98H252V532H225Q180 532 161 501Q142 470 142 404Z" glyph-name="OE" horiz-adv-x="549" unicode="&#338;" /><glyph d="M161 661 207 798H329L242 661ZM390 273Q390 139 346 65.5Q302 -8 203 -8Q104 -8 59.5 65.5Q15 139 15 273V357Q15 491 59.5 564.5Q104 638 203 638Q302 638 346 564.5Q390 491 390 357ZM144 222Q144 194 146.5 170.5Q149 147 155.5 129.5Q162 112 173.5 102.5Q185 93 203 93Q221 93 232.5 102.5Q244 112 250.5 129.5Q257 147 259.5 170.5Q262 194 262 222V408Q262 436 259.5 459.5Q257 483 250.5 500Q244 517 232.5 527Q221 537 203 537Q185 537 173.5 527Q162 517 155.5 500Q149 483 146.5 459.5Q144 436 144 408Z" glyph-name="Oacute" horiz-adv-x="406" unicode="&#211;" /><glyph d="M202 653Q146 653 120 690.5Q94 728 94 787H169Q169 730 202 730Q236 730 236 787H311Q311 727 285 690Q259 653 202 653ZM390 273Q390 139 346 65.5Q302 -8 203 -8Q104 -8 59.5 65.5Q15 139 15 273V357Q15 491 59.5 564.5Q104 638 203 638Q302 638 346 564.5Q390 491 390 357ZM144 222Q144 194 146.5 170.5Q149 147 155.5 129.5Q162 112 173.5 102.5Q185 93 203 93Q221 93 232.5 102.5Q244 112 250.5 129.5Q257 147 259.5 170.5Q262 194 262 222V408Q262 436 259.5 459.5Q257 483 250.5 500Q244 517 232.5 527Q221 537 203 537Q185 537 173.5 527Q162 517 155.5 500Q149 483 146.5 459.5Q144 436 144 408Z" glyph-name="Obreve" horiz-adv-x="406" unicode="&#334;" /><glyph d="M390 273Q390 139 346 65.5Q302 -8 203 -8Q104 -8 59.5 65.5Q15 139 15 273V357Q15 491 59.5 564.5Q104 638 203 638Q302 638 346 564.5Q390 491 390 357ZM144 222Q144 194 146.5 170.5Q149 147 155.5 129.5Q162 112 173.5 102.5Q185 93 203 93Q221 93 232.5 102.5Q244 112 250.5 129.5Q257 147 259.5 170.5Q262 194 262 222V408Q262 436 259.5 459.5Q257 483 250.5 500Q244 517 232.5 527Q221 537 203 537Q185 537 173.5 527Q162 517 155.5 500Q149 483 146.5 459.5Q144 436 144 408ZM258 789 318 656H242L203 721L164 656H89L148 789Z" glyph-name="Ocircumflex" horiz-adv-x="406" unicode="&#212;" /><glyph d="M95 778H191V662H95ZM216 778H311V662H216ZM390 273Q390 139 346 65.5Q302 -8 203 -8Q104 -8 59.5 65.5Q15 139 15 273V357Q15 491 59.5 564.5Q104 638 203 638Q302 638 346 564.5Q390 491 390 357ZM144 222Q144 194 146.5 170.5Q149 147 155.5 129.5Q162 112 173.5 102.5Q185 93 203 93Q221 93 232.5 102.5Q244 112 250.5 129.5Q257 147 259.5 170.5Q262 194 262 222V408Q262 436 259.5 459.5Q257 483 250.5 500Q244 517 232.5 527Q221 537 203 537Q185 537 173.5 527Q162 517 155.5 500Q149 483 146.5 459.5Q144 436 144 408Z" glyph-name="Odieresis" horiz-adv-x="406" unicode="&#214;" /><glyph d="M170 661 83 798H206L251 661ZM390 273Q390 139 346 65.5Q302 -8 203 -8Q104 -8 59.5 65.5Q15 139 15 273V357Q15 491 59.5 564.5Q104 638 203 638Q302 638 346 564.5Q390 491 390 357ZM144 222Q144 194 146.5 170.5Q149 147 155.5 129.5Q162 112 173.5 102.5Q185 93 203 93Q221 93 232.5 102.5Q244 112 250.5 129.5Q257 147 259.5 170.5Q262 194 262 222V408Q262 436 259.5 459.5Q257 483 250.5 500Q244 517 232.5 527Q221 537 203 537Q185 537 173.5 527Q162 517 155.5 500Q149 483 146.5 459.5Q144 436 144 408Z" glyph-name="Ograve" horiz-adv-x="406" unicode="&#210;" /><glyph d="M390 273Q390 139 346 65.5Q302 -8 203 -8Q104 -8 59.5 65.5Q15 139 15 273V357Q15 491 59.5 564.5Q104 638 203 638Q302 638 346 564.5Q390 491 390 357ZM144 222Q144 194 146.5 170.5Q149 147 155.5 129.5Q162 112 173.5 102.5Q185 93 203 93Q221 93 232.5 102.5Q244 112 250.5 129.5Q257 147 259.5 170.5Q262 194 262 222V408Q262 436 259.5 459.5Q257 483 250.5 500Q244 517 232.5 527Q221 537 203 537Q185 537 173.5 527Q162 517 155.5 500Q149 483 146.5 459.5Q144 436 144 408ZM109 661 138 801H245L175 661ZM229 661 258 801H366L296 661Z" glyph-name="Ohungarumlaut" horiz-adv-x="406" unicode="&#336;" /><glyph d="M107 750H298V668H107ZM390 273Q390 139 346 65.5Q302 -8 203 -8Q104 -8 59.5 65.5Q15 139 15 273V357Q15 491 59.5 564.5Q104 638 203 638Q302 638 346 564.5Q390 491 390 357ZM144 222Q144 194 146.5 170.5Q149 147 155.5 129.5Q162 112 173.5 102.5Q185 93 203 93Q221 93 232.5 102.5Q244 112 250.5 129.5Q257 147 259.5 170.5Q262 194 262 222V408Q262 436 259.5 459.5Q257 483 250.5 500Q244 517 232.5 527Q221 537 203 537Q185 537 173.5 527Q162 517 155.5 500Q149 483 146.5 459.5Q144 436 144 408Z" glyph-name="Omacron" horiz-adv-x="406" unicode="&#332;" /><glyph d="M50 81Q32 117 23.5 165Q15 213 15 273V357Q15 491 58 564.5Q101 638 203 638Q264 638 305 608L324 647L387 614L355 547Q373 511 381.5 463.5Q390 416 390 357V273Q390 206 380 153.5Q370 101 347.5 65Q325 29 289.5 10.5Q254 -8 203 -8Q140 -8 100 22L81 -17L19 16ZM203 91Q239 91 253 124Q267 157 267 212V366L151 127Q159 110 171 100.5Q183 91 203 91ZM139 264 254 503Q238 539 203 539Q167 539 153 506Q139 473 139 418Z" glyph-name="Oslash" horiz-adv-x="406" unicode="&#216;" /><glyph d="M50 81Q32 117 23.5 165Q15 213 15 273V357Q15 491 58 564.5Q101 638 203 638Q264 638 305 608L324 647L387 614L355 547Q373 511 381.5 463.5Q390 416 390 357V273Q390 206 380 153.5Q370 101 347.5 65Q325 29 289.5 10.5Q254 -8 203 -8Q140 -8 100 22L81 -17L19 16ZM203 91Q239 91 253 124Q267 157 267 212V366L151 127Q159 110 171 100.5Q183 91 203 91ZM139 264 254 503Q238 539 203 539Q167 539 153 506Q139 473 139 418ZM161 661 207 798H329L242 661Z" glyph-name="Oslashacute" horiz-adv-x="406" unicode="&#510;" /><glyph d="M81 661Q81 721 95.5 756.5Q110 792 147 792Q162 792 175.5 785Q189 778 200.5 770Q212 762 222.5 755Q233 748 243 748Q262 748 264 789H325Q325 730 310.5 694Q296 658 259 658Q244 658 230.5 665Q217 672 205.5 680Q194 688 183.5 695Q173 702 163 702Q144 702 142 661ZM390 273Q390 139 346 65.5Q302 -8 203 -8Q104 -8 59.5 65.5Q15 139 15 273V357Q15 491 59.5 564.5Q104 638 203 638Q302 638 346 564.5Q390 491 390 357ZM144 222Q144 194 146.5 170.5Q149 147 155.5 129.5Q162 112 173.5 102.5Q185 93 203 93Q221 93 232.5 102.5Q244 112 250.5 129.5Q257 147 259.5 170.5Q262 194 262 222V408Q262 436 259.5 459.5Q257 483 250.5 500Q244 517 232.5 527Q221 537 203 537Q185 537 173.5 527Q162 517 155.5 500Q149 483 146.5 459.5Q144 436 144 408Z" glyph-name="Otilde" horiz-adv-x="406" unicode="&#213;" /><glyph d="M168 318Q219 318 237.5 342Q256 366 256 423Q256 481 237.5 505.5Q219 530 168 530H148V318ZM148 0H25V630H180Q283 630 329.5 576.5Q376 523 376 424Q376 325 329.5 271.5Q283 218 180 218H148Z" glyph-name="P" horiz-adv-x="386" unicode="P" /><glyph d="M390 273Q390 164 362 95.5Q334 27 272 3L328 -76H202L152 -2Q80 15 47.5 86Q15 157 15 273V357Q15 491 59.5 564.5Q104 638 203 638Q302 638 346 564.5Q390 491 390 357ZM144 222Q144 194 146.5 170.5Q149 147 155.5 129.5Q162 112 173.5 102.5Q185 93 203 93Q221 93 232.5 102.5Q244 112 250.5 129.5Q257 147 259.5 170.5Q262 194 262 222V408Q262 436 259.5 459.5Q257 483 250.5 500Q244 517 232.5 527Q221 537 203 537Q185 537 173.5 527Q162 517 155.5 500Q149 483 146.5 459.5Q144 436 144 408Z" glyph-name="Q" horiz-adv-x="406" unicode="Q" /><glyph d="M259 0Q252 20 249.5 51Q247 82 244 141Q241 190 227.5 215Q214 240 173 240H147V0H25V630H186Q237 630 273.5 617Q310 604 334 580Q358 556 369 522Q380 488 380 446Q380 372 350.5 334Q321 296 273 288Q323 277 341.5 240.5Q360 204 363 146Q365 116 366 94Q367 72 368.5 55Q370 38 373 25Q376 12 382 0ZM169 338Q219 338 238.5 359.5Q258 381 258 434Q258 481 238.5 505.5Q219 530 169 530H147V338Z" glyph-name="R" horiz-adv-x="394" unicode="R" /><glyph d="M259 0Q252 20 249.5 51Q247 82 244 141Q241 190 227.5 215Q214 240 173 240H147V0H25V630H186Q237 630 273.5 617Q310 604 334 580Q358 556 369 522Q380 488 380 446Q380 372 350.5 334Q321 296 273 288Q323 277 341.5 240.5Q360 204 363 146Q365 116 366 94Q367 72 368.5 55Q370 38 373 25Q376 12 382 0ZM169 338Q219 338 238.5 359.5Q258 381 258 434Q258 481 238.5 505.5Q219 530 169 530H147V338ZM142 661 188 798H310L223 661Z" glyph-name="Racute" horiz-adv-x="394" unicode="&#340;" /><glyph d="M130 659 71 793H146L185 727L224 793H300L240 659ZM259 0Q252 20 249.5 51Q247 82 244 141Q241 190 227.5 215Q214 240 173 240H147V0H25V630H186Q237 630 273.5 617Q310 604 334 580Q358 556 369 522Q380 488 380 446Q380 372 350.5 334Q321 296 273 288Q323 277 341.5 240.5Q360 204 363 146Q365 116 366 94Q367 72 368.5 55Q370 38 373 25Q376 12 382 0ZM169 338Q219 338 238.5 359.5Q258 381 258 434Q258 481 238.5 505.5Q219 530 169 530H147V338Z" glyph-name="Rcaron" horiz-adv-x="394" unicode="&#344;" /><glyph d="M148 -30H258V-93Q258 -141 232 -165Q206 -189 148 -189V-146Q171 -146 181 -139Q191 -132 192 -112H148ZM259 0Q252 20 249.5 51Q247 82 244 141Q241 190 227.5 215Q214 240 173 240H147V0H25V630H186Q237 630 273.5 617Q310 604 334 580Q358 556 369 522Q380 488 380 446Q380 372 350.5 334Q321 296 273 288Q323 277 341.5 240.5Q360 204 363 146Q365 116 366 94Q367 72 368.5 55Q370 38 373 25Q376 12 382 0ZM169 338Q219 338 238.5 359.5Q258 381 258 434Q258 481 238.5 505.5Q219 530 169 530H147V338Z" glyph-name="Rcommaaccent" horiz-adv-x="394" unicode="&#342;" /><glyph d="M115 182Q116 140 132.5 115.5Q149 91 181 91Q210 91 224 108.5Q238 126 238 158Q238 192 222.5 208.5Q207 225 178 244L126 277Q103 291 83 307Q63 323 47 344.5Q31 366 22 395Q13 424 13 463Q13 502 25 534Q37 566 59 589.5Q81 613 112 625.5Q143 638 181 638Q259 638 301 593Q343 548 348 467L246 456Q242 494 226.5 516.5Q211 539 181 539Q155 539 141 520.5Q127 502 127 471Q127 439 139.5 421Q152 403 176 388L233 352Q260 336 282.5 319Q305 302 320.5 280.5Q336 259 344.5 231.5Q353 204 353 168Q353 85 306.5 38.5Q260 -8 181 -8Q103 -8 56.5 39Q10 86 7 174Z" glyph-name="S" horiz-adv-x="366" unicode="S" /><glyph d="M115 182Q116 140 132.5 115.5Q149 91 181 91Q210 91 224 108.5Q238 126 238 158Q238 192 222.5 208.5Q207 225 178 244L126 277Q103 291 83 307Q63 323 47 344.5Q31 366 22 395Q13 424 13 463Q13 502 25 534Q37 566 59 589.5Q81 613 112 625.5Q143 638 181 638Q259 638 301 593Q343 548 348 467L246 456Q242 494 226.5 516.5Q211 539 181 539Q155 539 141 520.5Q127 502 127 471Q127 439 139.5 421Q152 403 176 388L233 352Q260 336 282.5 319Q305 302 320.5 280.5Q336 259 344.5 231.5Q353 204 353 168Q353 85 306.5 38.5Q260 -8 181 -8Q103 -8 56.5 39Q10 86 7 174ZM139 661 185 798H307L220 661Z" glyph-name="Sacute" horiz-adv-x="366" unicode="&#346;" /><glyph d="M115 182Q116 140 132.5 115.5Q149 91 181 91Q210 91 224 108.5Q238 126 238 158Q238 192 222.5 208.5Q207 225 178 244L126 277Q103 291 83 307Q63 323 47 344.5Q31 366 22 395Q13 424 13 463Q13 502 25 534Q37 566 59 589.5Q81 613 112 625.5Q143 638 181 638Q259 638 301 593Q343 548 348 467L246 456Q242 494 226.5 516.5Q211 539 181 539Q155 539 141 520.5Q127 502 127 471Q127 439 139.5 421Q152 403 176 388L233 352Q260 336 282.5 319Q305 302 320.5 280.5Q336 259 344.5 231.5Q353 204 353 168Q353 85 306.5 38.5Q260 -8 181 -8Q103 -8 56.5 39Q10 86 7 174ZM127 659 68 793H143L182 727L221 793H297L237 659Z" glyph-name="Scaron" horiz-adv-x="366" unicode="&#352;" /><glyph d="M270 -99Q270 -138 245 -156Q220 -174 184 -174Q158 -174 134.5 -165.5Q111 -157 97 -143L114 -93Q126 -104 142.5 -112Q159 -120 176 -120Q202 -120 202 -100Q202 -84 182.5 -77.5Q163 -71 133 -71L161 -7Q92 -1 50.5 45.5Q9 92 7 174L115 182Q116 140 132.5 115.5Q149 91 181 91Q210 91 224 108.5Q238 126 238 158Q238 192 222.5 208.5Q207 225 178 244L126 277Q103 291 83 307Q63 323 47 344.5Q31 366 22 395Q13 424 13 463Q13 502 25 534Q37 566 59 589.5Q81 613 112 625.5Q143 638 181 638Q259 638 301 593Q343 548 348 467L246 456Q242 494 226.5 516.5Q211 539 181 539Q155 539 141 520.5Q127 502 127 471Q127 439 139.5 421Q152 403 176 388L233 352Q260 336 282.5 319Q305 302 320.5 280.5Q336 259 344.5 231.5Q353 204 353 168Q353 91 312.5 45Q272 -1 203 -7L194 -28Q223 -30 246.5 -46Q270 -62 270 -99Z" glyph-name="Scedilla" horiz-adv-x="366" unicode="&#350;" /><glyph d="M115 182Q116 140 132.5 115.5Q149 91 181 91Q210 91 224 108.5Q238 126 238 158Q238 192 222.5 208.5Q207 225 178 244L126 277Q103 291 83 307Q63 323 47 344.5Q31 366 22 395Q13 424 13 463Q13 502 25 534Q37 566 59 589.5Q81 613 112 625.5Q143 638 181 638Q259 638 301 593Q343 548 348 467L246 456Q242 494 226.5 516.5Q211 539 181 539Q155 539 141 520.5Q127 502 127 471Q127 439 139.5 421Q152 403 176 388L233 352Q260 336 282.5 319Q305 302 320.5 280.5Q336 259 344.5 231.5Q353 204 353 168Q353 85 306.5 38.5Q260 -8 181 -8Q103 -8 56.5 39Q10 86 7 174ZM237 789 297 656H221L182 721L143 656H68L127 789Z" glyph-name="Scircumflex" horiz-adv-x="366" unicode="&#348;" /><glyph d="M127 -30H237V-93Q237 -141 211 -165Q185 -189 127 -189V-146Q150 -146 160 -139Q170 -132 171 -112H127ZM115 182Q116 140 132.5 115.5Q149 91 181 91Q210 91 224 108.5Q238 126 238 158Q238 192 222.5 208.5Q207 225 178 244L126 277Q103 291 83 307Q63 323 47 344.5Q31 366 22 395Q13 424 13 463Q13 502 25 534Q37 566 59 589.5Q81 613 112 625.5Q143 638 181 638Q259 638 301 593Q343 548 348 467L246 456Q242 494 226.5 516.5Q211 539 181 539Q155 539 141 520.5Q127 502 127 471Q127 439 139.5 421Q152 403 176 388L233 352Q260 336 282.5 319Q305 302 320.5 280.5Q336 259 344.5 231.5Q353 204 353 168Q353 85 306.5 38.5Q260 -8 181 -8Q103 -8 56.5 39Q10 86 7 174Z" glyph-name="Scommaaccent" horiz-adv-x="366" unicode="&#536;" /><glyph d="M130 0V528H12V630H375V528H254V0Z" glyph-name="T" horiz-adv-x="387" unicode="T" /><glyph d="M70 360H130V528H12V630H375V528H254V360H314V259H254V0H130V259H70Z" glyph-name="Tbar" horiz-adv-x="387" unicode="&#358;" /><glyph d="M138 659 79 793H154L193 727L232 793H308L248 659ZM130 0V528H12V630H375V528H254V0Z" glyph-name="Tcaron" horiz-adv-x="387" unicode="&#356;" /><glyph d="M137 -30H247V-93Q247 -141 221 -165Q195 -189 137 -189V-146Q160 -146 170 -139Q180 -132 181 -112H137ZM130 0V528H12V630H375V528H254V0Z" glyph-name="Tcommaaccent" horiz-adv-x="387" unicode="&#354;" /><glyph d="M168 214Q219 214 237.5 237.5Q256 261 256 319Q256 376 237.5 400.5Q219 425 168 425H148V214ZM148 0H25V630H148V525H180Q283 525 329.5 471.5Q376 418 376 319Q376 221 329.5 167Q283 113 180 113H148Z" glyph-name="Thorn" horiz-adv-x="386" unicode="&#222;" /><glyph d="M207 -9Q154 -9 118.5 7Q83 23 62 51.5Q41 80 32 120Q23 160 23 208V630H150V200Q150 148 161 120.5Q172 93 207 93Q242 93 253.5 120.5Q265 148 265 200V630H392V208Q392 160 383 120Q374 80 352.5 51.5Q331 23 295.5 7Q260 -9 207 -9Z" glyph-name="U" horiz-adv-x="414" unicode="U" /><glyph d="M165 661 211 798H333L246 661ZM207 -9Q154 -9 118.5 7Q83 23 62 51.5Q41 80 32 120Q23 160 23 208V630H150V200Q150 148 161 120.5Q172 93 207 93Q242 93 253.5 120.5Q265 148 265 200V630H392V208Q392 160 383 120Q374 80 352.5 51.5Q331 23 295.5 7Q260 -9 207 -9Z" glyph-name="Uacute" horiz-adv-x="414" unicode="&#218;" /><glyph d="M207 653Q151 653 125 690.5Q99 728 99 787H174Q174 730 207 730Q241 730 241 787H316Q316 727 290 690Q264 653 207 653ZM207 -9Q154 -9 118.5 7Q83 23 62 51.5Q41 80 32 120Q23 160 23 208V630H150V200Q150 148 161 120.5Q172 93 207 93Q242 93 253.5 120.5Q265 148 265 200V630H392V208Q392 160 383 120Q374 80 352.5 51.5Q331 23 295.5 7Q260 -9 207 -9Z" glyph-name="Ubreve" horiz-adv-x="414" unicode="&#364;" /><glyph d="M207 -9Q154 -9 118.5 7Q83 23 62 51.5Q41 80 32 120Q23 160 23 208V630H150V200Q150 148 161 120.5Q172 93 207 93Q242 93 253.5 120.5Q265 148 265 200V630H392V208Q392 160 383 120Q374 80 352.5 51.5Q331 23 295.5 7Q260 -9 207 -9ZM262 789 322 656H246L207 721L168 656H93L152 789Z" glyph-name="Ucircumflex" horiz-adv-x="414" unicode="&#219;" /><glyph d="M99 778H195V662H99ZM220 778H315V662H220ZM207 -9Q154 -9 118.5 7Q83 23 62 51.5Q41 80 32 120Q23 160 23 208V630H150V200Q150 148 161 120.5Q172 93 207 93Q242 93 253.5 120.5Q265 148 265 200V630H392V208Q392 160 383 120Q374 80 352.5 51.5Q331 23 295.5 7Q260 -9 207 -9Z" glyph-name="Udieresis" horiz-adv-x="414" unicode="&#220;" /><glyph d="M174 661 87 798H210L255 661ZM207 -9Q154 -9 118.5 7Q83 23 62 51.5Q41 80 32 120Q23 160 23 208V630H150V200Q150 148 161 120.5Q172 93 207 93Q242 93 253.5 120.5Q265 148 265 200V630H392V208Q392 160 383 120Q374 80 352.5 51.5Q331 23 295.5 7Q260 -9 207 -9Z" glyph-name="Ugrave" horiz-adv-x="414" unicode="&#217;" /><glyph d="M207 -9Q154 -9 118.5 7Q83 23 62 51.5Q41 80 32 120Q23 160 23 208V630H150V200Q150 148 161 120.5Q172 93 207 93Q242 93 253.5 120.5Q265 148 265 200V630H392V208Q392 160 383 120Q374 80 352.5 51.5Q331 23 295.5 7Q260 -9 207 -9ZM114 661 143 801H250L180 661ZM234 661 263 801H371L301 661Z" glyph-name="Uhungarumlaut" horiz-adv-x="414" unicode="&#368;" /><glyph d="M112 750H303V668H112ZM207 -9Q154 -9 118.5 7Q83 23 62 51.5Q41 80 32 120Q23 160 23 208V630H150V200Q150 148 161 120.5Q172 93 207 93Q242 93 253.5 120.5Q265 148 265 200V630H392V208Q392 160 383 120Q374 80 352.5 51.5Q331 23 295.5 7Q260 -9 207 -9Z" glyph-name="Umacron" horiz-adv-x="414" unicode="&#362;" /><glyph d="M207 -9Q154 -9 118.5 7Q83 23 62 51.5Q41 80 32 120Q23 160 23 208V630H150V200Q150 148 161 120.5Q172 93 207 93Q242 93 253.5 120.5Q265 148 265 200V630H392V208Q392 137 371 91Q350 45 305 13Q274 -11 264.5 -31Q255 -51 255 -70Q255 -83 261.5 -89Q268 -95 279 -95Q290 -95 307 -88V-153Q286 -168 252 -168Q222 -168 200.5 -150.5Q179 -133 179 -95Q179 -70 189 -48.5Q199 -27 216 -8Q215 -9 212 -9Q209 -9 207 -9Z" glyph-name="Uogonek" horiz-adv-x="414" unicode="&#370;" /><glyph d="M207 -9Q154 -9 118.5 7Q83 23 62 51.5Q41 80 32 120Q23 160 23 208V630H150V200Q150 148 161 120.5Q172 93 207 93Q242 93 253.5 120.5Q265 148 265 200V630H392V208Q392 160 383 120Q374 80 352.5 51.5Q331 23 295.5 7Q260 -9 207 -9ZM172 736Q172 719 181 709Q190 699 208 699Q226 699 235 709Q244 719 244 736Q244 753 235 762.5Q226 772 208 772Q190 772 181 762.5Q172 753 172 736ZM119 736Q119 773 143 797Q167 821 208 821Q249 821 273 797Q297 773 297 736Q297 699 273 674.5Q249 650 208 650Q167 650 143 674.5Q119 699 119 736Z" glyph-name="Uring" horiz-adv-x="414" unicode="&#366;" /><glyph d="M86 661Q86 721 100.5 756.5Q115 792 152 792Q167 792 180.5 785Q194 778 205.5 770Q217 762 227.5 755Q238 748 248 748Q267 748 269 789H330Q330 730 315.5 694Q301 658 264 658Q249 658 235.5 665Q222 672 210.5 680Q199 688 188.5 695Q178 702 168 702Q149 702 147 661ZM207 -9Q154 -9 118.5 7Q83 23 62 51.5Q41 80 32 120Q23 160 23 208V630H150V200Q150 148 161 120.5Q172 93 207 93Q242 93 253.5 120.5Q265 148 265 200V630H392V208Q392 160 383 120Q374 80 352.5 51.5Q331 23 295.5 7Q260 -9 207 -9Z" glyph-name="Utilde" horiz-adv-x="414" unicode="&#360;" /><glyph d="M136 0 0 630H127L205 230H209L286 630H401L265 0Z" glyph-name="V" horiz-adv-x="401" unicode="V" /><glyph d="M437 630H551L445 0H329L277 351H273L222 0H106L0 630H118L173 266H177L231 630H324L379 266H383Z" glyph-name="W" horiz-adv-x="551" unicode="W" /><glyph d="M233 661 279 798H401L314 661ZM437 630H551L445 0H329L277 351H273L222 0H106L0 630H118L173 266H177L231 630H324L379 266H383Z" glyph-name="Wacute" horiz-adv-x="551" unicode="&#7810;" /><glyph d="M437 630H551L445 0H329L277 351H273L222 0H106L0 630H118L173 266H177L231 630H324L379 266H383ZM330 789 390 656H314L275 721L236 656H161L220 789Z" glyph-name="Wcircumflex" horiz-adv-x="551" unicode="&#372;" /><glyph d="M167 778H263V662H167ZM288 778H383V662H288ZM437 630H551L445 0H329L277 351H273L222 0H106L0 630H118L173 266H177L231 630H324L379 266H383Z" glyph-name="Wdieresis" horiz-adv-x="551" unicode="&#7812;" /><glyph d="M241 661 154 798H277L322 661ZM437 630H551L445 0H329L277 351H273L222 0H106L0 630H118L173 266H177L231 630H324L379 266H383Z" glyph-name="Wgrave" horiz-adv-x="551" unicode="&#7808;" /><glyph d="M267 328 401 0H269L197 197L124 0H0L134 320L8 630H140L204 451L269 630H393Z" glyph-name="X" horiz-adv-x="401" unicode="X" /><glyph d="M284 630H406L263 223V0H143V223L0 630H128L209 375Z" glyph-name="Y" horiz-adv-x="406" unicode="Y" /><glyph d="M284 630H406L263 223V0H143V223L0 630H128L209 375ZM160 661 206 798H328L241 661Z" glyph-name="Yacute" horiz-adv-x="406" unicode="&#221;" /><glyph d="M284 630H406L263 223V0H143V223L0 630H128L209 375ZM257 789 317 656H241L202 721L163 656H88L147 789Z" glyph-name="Ycircumflex" horiz-adv-x="406" unicode="&#374;" /><glyph d="M284 630H406L263 223V0H143V223L0 630H128L209 375ZM94 778H190V662H94ZM215 778H310V662H215Z" glyph-name="Ydieresis" horiz-adv-x="406" unicode="&#376;" /><glyph d="M284 630H406L263 223V0H143V223L0 630H128L209 375ZM169 661 82 798H205L250 661Z" glyph-name="Ygrave" horiz-adv-x="406" unicode="&#7922;" /><glyph d="M343 102V0H16V91L205 528H19V630H337V536L153 102Z" glyph-name="Z" horiz-adv-x="359" unicode="Z" /><glyph d="M343 102V0H16V91L205 528H19V630H337V536L153 102ZM145 661 191 798H313L226 661Z" glyph-name="Zacute" horiz-adv-x="359" unicode="&#377;" /><glyph d="M132 659 73 793H148L187 727L226 793H302L242 659ZM343 102V0H16V91L205 528H19V630H337V536L153 102Z" glyph-name="Zcaron" horiz-adv-x="359" unicode="&#381;" /><glyph d="M129 793H247V668H129ZM343 102V0H16V91L205 528H19V630H337V536L153 102Z" glyph-name="Zdotaccent" horiz-adv-x="359" unicode="&#379;" /><glyph d="M196 206 166 184Q146 170 133 156Q120 142 120 119Q120 101 129 90.5Q138 80 154 80Q175 80 185.5 99.5Q196 119 196 147ZM312 99Q312 89 315 84.5Q318 80 327 80Q334 80 345 84V12Q333 4 318 -1.5Q303 -7 283 -7Q254 -7 233.5 7Q213 21 204 50Q193 24 168.5 8.5Q144 -7 112 -7Q60 -7 33.5 23.5Q7 54 7 100Q7 127 16 148Q25 169 41.5 186.5Q58 204 79.5 219Q101 234 127 249L196 290V306Q196 329 190.5 344.5Q185 360 164 360Q144 360 134.5 340.5Q125 321 123 287L19 305Q22 334 32 360.5Q42 387 60 407Q78 427 104.5 439Q131 451 167 451Q242 451 277 411.5Q312 372 312 298Z" glyph-name="a" horiz-adv-x="349" unicode="a" /><glyph d="M196 206 166 184Q146 170 133 156Q120 142 120 119Q120 101 129 90.5Q138 80 154 80Q175 80 185.5 99.5Q196 119 196 147ZM312 99Q312 89 315 84.5Q318 80 327 80Q334 80 345 84V12Q333 4 318 -1.5Q303 -7 283 -7Q254 -7 233.5 7Q213 21 204 50Q193 24 168.5 8.5Q144 -7 112 -7Q60 -7 33.5 23.5Q7 54 7 100Q7 127 16 148Q25 169 41.5 186.5Q58 204 79.5 219Q101 234 127 249L196 290V306Q196 329 190.5 344.5Q185 360 164 360Q144 360 134.5 340.5Q125 321 123 287L19 305Q22 334 32 360.5Q42 387 60 407Q78 427 104.5 439Q131 451 167 451Q242 451 277 411.5Q312 372 312 298ZM130 483 176 620H298L211 483Z" glyph-name="aacute" horiz-adv-x="349" unicode="&#225;" /><glyph d="M196 206 166 184Q146 170 133 156Q120 142 120 119Q120 101 129 90.5Q138 80 154 80Q175 80 185.5 99.5Q196 119 196 147ZM312 99Q312 89 315 84.5Q318 80 327 80Q334 80 345 84V12Q333 4 318 -1.5Q303 -7 283 -7Q254 -7 233.5 7Q213 21 204 50Q193 24 168.5 8.5Q144 -7 112 -7Q60 -7 33.5 23.5Q7 54 7 100Q7 127 16 148Q25 169 41.5 186.5Q58 204 79.5 219Q101 234 127 249L196 290V306Q196 329 190.5 344.5Q185 360 164 360Q144 360 134.5 340.5Q125 321 123 287L19 305Q22 334 32 360.5Q42 387 60 407Q78 427 104.5 439Q131 451 167 451Q242 451 277 411.5Q312 372 312 298ZM170 475Q113 475 87.5 511.5Q62 548 62 608H137Q137 552 170 552Q204 552 204 608H279Q279 548 253 511.5Q227 475 170 475Z" glyph-name="abreve" horiz-adv-x="349" unicode="&#259;" /><glyph d="M196 206 166 184Q146 170 133 156Q120 142 120 119Q120 101 129 90.5Q138 80 154 80Q175 80 185.5 99.5Q196 119 196 147ZM312 99Q312 89 315 84.5Q318 80 327 80Q334 80 345 84V12Q333 4 318 -1.5Q303 -7 283 -7Q254 -7 233.5 7Q213 21 204 50Q193 24 168.5 8.5Q144 -7 112 -7Q60 -7 33.5 23.5Q7 54 7 100Q7 127 16 148Q25 169 41.5 186.5Q58 204 79.5 219Q101 234 127 249L196 290V306Q196 329 190.5 344.5Q185 360 164 360Q144 360 134.5 340.5Q125 321 123 287L19 305Q22 334 32 360.5Q42 387 60 407Q78 427 104.5 439Q131 451 167 451Q242 451 277 411.5Q312 372 312 298ZM227 611 287 477H211L172 543L133 477H58L117 611Z" glyph-name="acircumflex" horiz-adv-x="349" unicode="&#226;" /><glyph d="M98 483 144 620H266L179 483Z" glyph-name="acute" horiz-adv-x="365" unicode="&#180;" /><glyph d="M98 661 144 798H266L179 661Z" glyph-name="acute.cap" horiz-adv-x="365" /><glyph d="M196 206 166 184Q146 170 133 156Q120 142 120 119Q120 101 129 90.5Q138 80 154 80Q175 80 185.5 99.5Q196 119 196 147ZM312 99Q312 89 315 84.5Q318 80 327 80Q334 80 345 84V12Q333 4 318 -1.5Q303 -7 283 -7Q254 -7 233.5 7Q213 21 204 50Q193 24 168.5 8.5Q144 -7 112 -7Q60 -7 33.5 23.5Q7 54 7 100Q7 127 16 148Q25 169 41.5 186.5Q58 204 79.5 219Q101 234 127 249L196 290V306Q196 329 190.5 344.5Q185 360 164 360Q144 360 134.5 340.5Q125 321 123 287L19 305Q22 334 32 360.5Q42 387 60 407Q78 427 104.5 439Q131 451 167 451Q242 451 277 411.5Q312 372 312 298ZM64 603H160V487H64ZM185 603H280V487H185Z" glyph-name="adieresis" horiz-adv-x="349" unicode="&#228;" /><glyph d="M154 81Q175 81 185.5 99.5Q196 118 196 147V194H180Q146 194 132 176Q118 158 118 132Q118 106 128 93.5Q138 81 154 81ZM356 360Q330 360 321.5 335Q313 310 313 264H397Q397 310 389 335Q381 360 356 360ZM360 -8Q280 -8 246 50Q232 24 203 8Q174 -8 138 -8Q74 -8 40.5 27Q7 62 7 128Q7 191 50 227.5Q93 264 169 264H196V307Q196 329 190.5 344.5Q185 360 164 360Q144 360 134.5 340.5Q125 321 123 287L19 305Q22 334 32 360.5Q42 387 60 407Q78 427 104.5 439Q131 451 167 451Q201 451 223 439.5Q245 428 262 410Q280 429 303 440Q326 451 356 451Q399 451 428.5 435.5Q458 420 476 391.5Q494 363 502 323Q510 283 510 234V194H313V176Q313 131 323.5 107Q334 83 360 83Q380 83 389.5 101.5Q399 120 403 149L505 135Q501 104 490 77.5Q479 51 461 32Q443 13 418 2.5Q393 -8 360 -8Z" glyph-name="ae" horiz-adv-x="524" unicode="&#230;" /><glyph d="M214 483 260 620H382L295 483ZM154 81Q175 81 185.5 99.5Q196 118 196 147V194H180Q146 194 132 176Q118 158 118 132Q118 106 128 93.5Q138 81 154 81ZM356 360Q330 360 321.5 335Q313 310 313 264H397Q397 310 389 335Q381 360 356 360ZM360 -8Q280 -8 246 50Q232 24 203 8Q174 -8 138 -8Q74 -8 40.5 27Q7 62 7 128Q7 191 50 227.5Q93 264 169 264H196V307Q196 329 190.5 344.5Q185 360 164 360Q144 360 134.5 340.5Q125 321 123 287L19 305Q22 334 32 360.5Q42 387 60 407Q78 427 104.5 439Q131 451 167 451Q201 451 223 439.5Q245 428 262 410Q280 429 303 440Q326 451 356 451Q399 451 428.5 435.5Q458 420 476 391.5Q494 363 502 323Q510 283 510 234V194H313V176Q313 131 323.5 107Q334 83 360 83Q380 83 389.5 101.5Q399 120 403 149L505 135Q501 104 490 77.5Q479 51 461 32Q443 13 418 2.5Q393 -8 360 -8Z" glyph-name="aeacute" horiz-adv-x="524" unicode="&#509;" /><glyph d="M196 206 166 184Q146 170 133 156Q120 142 120 119Q120 101 129 90.5Q138 80 154 80Q175 80 185.5 99.5Q196 119 196 147ZM312 99Q312 89 315 84.5Q318 80 327 80Q334 80 345 84V12Q333 4 318 -1.5Q303 -7 283 -7Q254 -7 233.5 7Q213 21 204 50Q193 24 168.5 8.5Q144 -7 112 -7Q60 -7 33.5 23.5Q7 54 7 100Q7 127 16 148Q25 169 41.5 186.5Q58 204 79.5 219Q101 234 127 249L196 290V306Q196 329 190.5 344.5Q185 360 164 360Q144 360 134.5 340.5Q125 321 123 287L19 305Q22 334 32 360.5Q42 387 60 407Q78 427 104.5 439Q131 451 167 451Q242 451 277 411.5Q312 372 312 298ZM141 483 54 620H177L222 483Z" glyph-name="agrave" horiz-adv-x="349" unicode="&#224;" /><glyph d="M196 206 166 184Q146 170 133 156Q120 142 120 119Q120 101 129 90.5Q138 80 154 80Q175 80 185.5 99.5Q196 119 196 147ZM312 99Q312 89 315 84.5Q318 80 327 80Q334 80 345 84V12Q333 4 318 -1.5Q303 -7 283 -7Q254 -7 233.5 7Q213 21 204 50Q193 24 168.5 8.5Q144 -7 112 -7Q60 -7 33.5 23.5Q7 54 7 100Q7 127 16 148Q25 169 41.5 186.5Q58 204 79.5 219Q101 234 127 249L196 290V306Q196 329 190.5 344.5Q185 360 164 360Q144 360 134.5 340.5Q125 321 123 287L19 305Q22 334 32 360.5Q42 387 60 407Q78 427 104.5 439Q131 451 167 451Q242 451 277 411.5Q312 372 312 298ZM75 572H266V489H75Z" glyph-name="amacron" horiz-adv-x="349" unicode="&#257;" /><glyph d="M436 312Q427 261 412.5 214.5Q398 168 376 127Q384 114 393.5 105Q403 96 419 96Q425 96 431 97Q437 98 449 102L454 17Q443 7 426 1.5Q409 -4 392 -4Q367 -4 346 4.5Q325 13 302 36Q276 15 244.5 3.5Q213 -8 175 -8Q139 -8 108 3Q77 14 54 36Q31 58 18 89.5Q5 121 5 163Q5 220 27 260Q49 300 96 334Q75 366 61.5 398Q48 430 48 477Q48 515 60 545Q72 575 92.5 595.5Q113 616 140.5 627Q168 638 199 638Q233 638 259.5 626.5Q286 615 304 595Q322 575 331.5 548Q341 521 341 490Q341 430 315.5 392Q290 354 242 320L314 218Q322 242 329 269.5Q336 297 342 326ZM193 97Q221 97 245 113L152 253Q137 237 129 218.5Q121 200 121 176Q121 141 139.5 119Q158 97 193 97ZM159 483Q159 459 168.5 436Q178 413 191 393Q220 414 230.5 436Q241 458 241 487Q241 508 231 524Q221 540 201 540Q180 540 169.5 524.5Q159 509 159 483Z" glyph-name="ampersand" horiz-adv-x="457" unicode="&amp;" /><glyph d="M154 80Q175 80 185.5 99.5Q196 119 196 147V206L166 184Q146 170 133 156Q120 142 120 119Q120 101 129 90.5Q138 80 154 80ZM204 50Q193 24 168.5 8.5Q144 -7 112 -7Q60 -7 33.5 23.5Q7 54 7 100Q7 127 16 148Q25 169 41.5 186.5Q58 204 79.5 219Q101 234 127 249L196 290V306Q196 329 190.5 344.5Q185 360 164 360Q144 360 134.5 340.5Q125 321 123 287L19 305Q22 334 32 360.5Q42 387 60 407Q78 427 104.5 439Q131 451 167 451Q242 451 277 411.5Q312 372 312 298V100Q312 89 315 84.5Q318 80 327 80Q334 80 345 84V12Q314 -16 303.5 -33.5Q293 -51 293 -69Q293 -95 318 -95Q330 -95 345 -88V-153Q325 -168 291 -168Q261 -168 239 -150.5Q217 -133 217 -95Q217 -69 228.5 -46.5Q240 -24 259 -4Q239 1 225 14Q211 27 204 50Z" glyph-name="aogonek" horiz-adv-x="349" unicode="&#261;" /><glyph d="M37 389Q86 422 132 422Q155 422 174.5 417Q194 412 213 406.5Q232 401 251 396Q270 391 293 391Q316 391 340.5 397.5Q365 404 392 423V345Q365 328 340.5 321.5Q316 315 293 315Q270 315 251 319.5Q232 324 213 330Q194 336 174.5 340.5Q155 345 132 345Q110 345 86.5 338Q63 331 37 314ZM37 260Q63 278 86.5 285Q110 292 132 292Q155 292 174.5 287Q194 282 213 276.5Q232 271 251 266Q270 261 293 261Q316 261 340.5 268.5Q365 276 392 293V217Q365 200 340.5 192.5Q316 185 293 185Q270 185 251 190Q232 195 213 201Q194 207 174.5 212Q155 217 132 217Q86 217 37 184Z" glyph-name="approxequal" horiz-adv-x="429" unicode="&#8776;" /><glyph d="M196 206 166 184Q146 170 133 156Q120 142 120 119Q120 101 129 90.5Q138 80 154 80Q175 80 185.5 99.5Q196 119 196 147ZM312 99Q312 89 315 84.5Q318 80 327 80Q334 80 345 84V12Q333 4 318 -1.5Q303 -7 283 -7Q254 -7 233.5 7Q213 21 204 50Q193 24 168.5 8.5Q144 -7 112 -7Q60 -7 33.5 23.5Q7 54 7 100Q7 127 16 148Q25 169 41.5 186.5Q58 204 79.5 219Q101 234 127 249L196 290V306Q196 329 190.5 344.5Q185 360 164 360Q144 360 134.5 340.5Q125 321 123 287L19 305Q22 334 32 360.5Q42 387 60 407Q78 427 104.5 439Q131 451 167 451Q242 451 277 411.5Q312 372 312 298ZM134 558Q134 521 170 521Q206 521 206 558Q206 574 197 584Q188 594 170 594Q152 594 143 584Q134 574 134 558ZM81 558Q81 594 105 618.5Q129 643 170 643Q211 643 235 618.5Q259 594 259 558Q259 520 235 496Q211 472 170 472Q129 472 105 496Q81 520 81 558Z" glyph-name="aring" horiz-adv-x="349" unicode="&#229;" /><glyph d="M123 638 159 745H294L217 638ZM134 544Q134 512 168 512Q204 512 204 544Q204 558 195 567Q186 576 168 576Q151 576 142.5 567Q134 558 134 544ZM80 544Q80 577 104 600Q128 623 168 623Q210 623 234 600Q258 577 258 544Q258 510 234 487.5Q210 465 168 465Q128 465 104 487.5Q80 510 80 544ZM196 206 166 184Q146 170 133 156Q120 142 120 119Q120 101 129 90.5Q138 80 154 80Q175 80 185.5 99.5Q196 119 196 147ZM312 99Q312 89 315 84.5Q318 80 327 80Q334 80 345 84V12Q333 4 318 -1.5Q303 -7 283 -7Q254 -7 233.5 7Q213 21 204 50Q193 24 168.5 8.5Q144 -7 112 -7Q60 -7 33.5 23.5Q7 54 7 100Q7 127 16 148Q25 169 41.5 186.5Q58 204 79.5 219Q101 234 127 249L196 290V306Q196 329 190.5 344.5Q185 360 164 360Q144 360 134.5 340.5Q125 321 123 287L19 305Q22 334 32 360.5Q42 387 60 407Q78 427 104.5 439Q131 451 167 451Q242 451 277 411.5Q312 372 312 298Z" glyph-name="aringacute" horiz-adv-x="349" unicode="&#507;" /><glyph d="M220 630 320 422H209L160 541L112 422H1L101 630Z" glyph-name="asciicircum" horiz-adv-x="321" unicode="^" /><glyph d="M16 206Q16 272 39.5 312.5Q63 353 109 353Q128 353 143 346Q158 339 171.5 330.5Q185 322 197.5 315Q210 308 224 308Q239 308 248.5 317.5Q258 327 260 350H332Q332 284 308.5 243.5Q285 203 239 203Q220 203 205 210Q190 217 176.5 225.5Q163 234 150 241Q137 248 123 248Q109 248 99.5 238.5Q90 229 88 206Z" glyph-name="asciitilde" horiz-adv-x="348" unicode="~" /><glyph d="M28 577 105 551V632H172V551L248 577L270 513L193 488L240 423L186 383L138 448L91 382L37 422L83 488L7 512Z" glyph-name="asterisk" horiz-adv-x="277" unicode="*" /><glyph d="M435 103Q467 103 483 148Q499 193 499 271Q499 372 456.5 429Q414 486 324 486Q271 486 229 464Q187 442 158 402Q129 362 113.5 304.5Q98 247 98 177Q98 116 112.5 71Q127 26 153.5 -4Q180 -34 215.5 -48.5Q251 -63 293 -63Q336 -63 373 -52.5Q410 -42 448 -17L465 -77Q427 -107 383.5 -120.5Q340 -134 292 -134Q235 -134 185.5 -114.5Q136 -95 99.5 -56Q63 -17 42 41.5Q21 100 21 177Q21 262 43 332Q65 402 105 452Q145 502 200.5 530Q256 558 324 558Q383 558 429 537Q475 516 507 477.5Q539 439 556 386.5Q573 334 573 271Q573 209 560.5 164Q548 119 527 90Q506 61 478 46.5Q450 32 419 32Q385 32 364.5 48Q344 64 335 92Q309 32 248 32Q203 32 176 69Q149 106 149 172Q149 213 159 252Q169 291 187 321.5Q205 352 230 370.5Q255 389 285 389Q316 389 332.5 373Q349 357 357 332L368 381H452L409 155Q399 103 435 103ZM333 219Q341 258 335 281Q329 304 307 304Q294 304 283 293.5Q272 283 264 265Q256 247 251.5 223.5Q247 200 247 173Q247 147 255 131.5Q263 116 280 116Q298 116 310 135Q322 154 330 200Z" glyph-name="at" horiz-adv-x="594" unicode="@" /><glyph d="M435 209Q467 209 483 254Q499 299 499 377Q499 478 456.5 535Q414 592 324 592Q271 592 229 570Q187 548 158 508Q129 468 113.5 410.5Q98 353 98 283Q98 222 112.5 177Q127 132 153.5 102Q180 72 215.5 57.5Q251 43 293 43Q336 43 373 53.5Q410 64 448 89L465 29Q427 -1 383.5 -14.5Q340 -28 292 -28Q235 -28 185.5 -8.5Q136 11 99.5 50Q63 89 42 147.5Q21 206 21 283Q21 368 43 438Q65 508 105 558Q145 608 200.5 636Q256 664 324 664Q383 664 429 643Q475 622 507 583.5Q539 545 556 492.5Q573 440 573 377Q573 315 560.5 270Q548 225 527 196Q506 167 478 152.5Q450 138 419 138Q385 138 364.5 154Q344 170 335 198Q309 138 248 138Q203 138 176 175Q149 212 149 278Q149 319 159 358Q169 397 187 427.5Q205 458 230 476.5Q255 495 285 495Q316 495 332.5 479Q349 463 357 438L368 487H452L409 261Q399 209 435 209ZM333 325Q341 364 335 387Q329 410 307 410Q294 410 283 399.5Q272 389 264 371Q256 353 251.5 329.5Q247 306 247 279Q247 253 255 237.5Q263 222 280 222Q298 222 310 241Q322 260 330 306Z" glyph-name="at.cap" horiz-adv-x="594" /><glyph d="M196 206 166 184Q146 170 133 156Q120 142 120 119Q120 101 129 90.5Q138 80 154 80Q175 80 185.5 99.5Q196 119 196 147ZM312 99Q312 89 315 84.5Q318 80 327 80Q334 80 345 84V12Q333 4 318 -1.5Q303 -7 283 -7Q254 -7 233.5 7Q213 21 204 50Q193 24 168.5 8.5Q144 -7 112 -7Q60 -7 33.5 23.5Q7 54 7 100Q7 127 16 148Q25 169 41.5 186.5Q58 204 79.5 219Q101 234 127 249L196 290V306Q196 329 190.5 344.5Q185 360 164 360Q144 360 134.5 340.5Q125 321 123 287L19 305Q22 334 32 360.5Q42 387 60 407Q78 427 104.5 439Q131 451 167 451Q242 451 277 411.5Q312 372 312 298ZM54 483Q54 542 68.5 578Q83 614 120 614Q135 614 148.5 607Q162 600 173.5 592Q185 584 195.5 577Q206 570 216 570Q235 570 237 611H298Q298 551 283.5 515.5Q269 480 232 480Q217 480 203.5 487Q190 494 178.5 502Q167 510 156.5 517Q146 524 136 524Q117 524 115 483Z" glyph-name="atilde" horiz-adv-x="349" unicode="&#227;" /><glyph d="M142 167Q142 132 152 112Q162 92 186 92Q229 92 229 178V265Q229 351 186 351Q162 351 152 331Q142 311 142 276ZM142 393Q152 417 175.5 434Q199 451 232 451Q297 451 323.5 396.5Q350 342 350 249V194Q350 101 323.5 46.5Q297 -8 232 -8Q199 -8 175.5 9Q152 26 142 50L132 0H24V630H142Z" glyph-name="b" horiz-adv-x="366" unicode="b" /><glyph d="M215 -83H112L8 659H111Z" glyph-name="backslash" horiz-adv-x="209" unicode="\" /><glyph d="M208 0H105L0 629H103Z" glyph-name="backslash.cap" horiz-adv-x="208" /><glyph d="M25 659H126V-83H25Z" glyph-name="bar" horiz-adv-x="151" unicode="|" /><glyph d="M25 630H126V0H25Z" glyph-name="bar.cap" horiz-adv-x="151" /><glyph d="M14 330H27Q47 330 54 341Q61 352 61 375V544Q61 602 88.5 631Q116 660 169 660H206V576H185Q172 576 168 568Q164 560 164 545V393Q164 348 149.5 322Q135 296 92 288Q135 280 149.5 254Q164 228 164 183V31Q164 16 168 8Q172 0 185 0H206V-84H169Q116 -84 88.5 -55Q61 -26 61 32V201Q61 224 54 235Q47 246 27 246H14Z" glyph-name="braceleft" horiz-adv-x="216" unicode="{" /><glyph d="M14 349H27Q47 349 54 360Q61 371 61 393V563Q61 620 88.5 649.5Q116 679 169 679H206V595H185Q172 595 168 586.5Q164 578 164 564V412Q164 367 149.5 340.5Q135 314 92 307Q135 299 149.5 273Q164 247 164 202V49Q164 35 168 27Q172 19 185 19H206V-65H169Q116 -65 88.5 -36Q61 -7 61 51V220Q61 242 54 253Q47 264 27 264H14Z" glyph-name="braceleft.cap" horiz-adv-x="216" /><glyph d="M202 246H189Q169 246 162 235Q155 224 155 201V32Q155 -26 127.5 -55Q100 -84 47 -84H10V0H31Q44 0 48 8Q52 16 52 31V183Q52 228 66.5 254Q81 280 124 288Q81 296 66.5 322Q52 348 52 393V545Q52 560 48 568Q44 576 31 576H10V660H47Q100 660 127.5 631Q155 602 155 544V375Q155 352 162 341Q169 330 189 330H202Z" glyph-name="braceright" horiz-adv-x="216" unicode="}" /><glyph d="M202 264H189Q169 264 162 253Q155 242 155 220V51Q155 -7 127.5 -36Q100 -65 47 -65H10V19H31Q44 19 48 27Q52 35 52 49V202Q52 247 66.5 273Q81 299 124 307Q81 314 66.5 340.5Q52 367 52 412V564Q52 578 48 586.5Q44 595 31 595H10V679H47Q100 679 127.5 649.5Q155 620 155 563V393Q155 371 162 360Q169 349 189 349H202Z" glyph-name="braceright.cap" horiz-adv-x="216" /><glyph d="M124 0H171V-84H25V660H171V576H124Z" glyph-name="bracketleft" horiz-adv-x="181" unicode="[" /><glyph d="M124 19H171V-65H25V679H171V595H124Z" glyph-name="bracketleft.cap" horiz-adv-x="181" /><glyph d="M56 576H9V660H155V-84H9V0H56Z" glyph-name="bracketright" horiz-adv-x="181" unicode="]" /><glyph d="M56 595H9V679H155V-65H9V19H56Z" glyph-name="bracketright.cap" horiz-adv-x="181" /><glyph d="M181 475Q124 475 98.5 511.5Q73 548 73 608H148Q148 552 181 552Q215 552 215 608H290Q290 548 264 511.5Q238 475 181 475Z" glyph-name="breve" horiz-adv-x="365" unicode="&#728;" /><glyph d="M181 653Q125 653 99 690.5Q73 728 73 787H148Q148 730 181 730Q215 730 215 787H290Q290 727 264 690Q238 653 181 653Z" glyph-name="breve.cap" horiz-adv-x="365" /><glyph d="M330 258Q330 223 318 194.5Q306 166 285 146Q264 126 235.5 114.5Q207 103 175 103Q143 103 114.5 114.5Q86 126 65 146Q44 166 32 194.5Q20 223 20 258Q20 292 32 321Q44 350 65 370Q86 390 114.5 401.5Q143 413 175 413Q207 413 235.5 401.5Q264 390 285 370Q306 350 318 321Q330 292 330 258Z" glyph-name="bullet" horiz-adv-x="350" unicode="&#8226;" /><glyph d="M330 327Q330 292 318 263.5Q306 235 285 215Q264 195 235.5 183.5Q207 172 175 172Q143 172 114.5 183.5Q86 195 65 215Q44 235 32 263.5Q20 292 20 327Q20 361 32 390Q44 419 65 439.5Q86 460 114.5 471.5Q143 483 175 483Q207 483 235.5 471.5Q264 460 285 439.5Q306 419 318 390Q330 361 330 327Z" glyph-name="bullet.cap" horiz-adv-x="350" /><glyph d="M132 176Q132 131 141 107.5Q150 84 174 84Q197 84 204.5 106Q212 128 214 163L319 150Q314 74 278.5 33Q243 -8 174 -8Q93 -8 53 47.5Q13 103 13 211V232Q13 340 53 395.5Q93 451 174 451Q243 451 278 410Q313 369 319 294L215 281Q213 315 205 337Q197 359 174 359Q150 359 141 335.5Q132 312 132 268V176Z" glyph-name="c" horiz-adv-x="334" unicode="c" /><glyph d="M132 483 178 620H300L213 483ZM132 176Q132 131 141 107.5Q150 84 174 84Q197 84 204.5 106Q212 128 214 163L319 150Q314 74 278.5 33Q243 -8 174 -8Q93 -8 53 47.5Q13 103 13 211V232Q13 340 53 395.5Q93 451 174 451Q243 451 278 410Q313 369 319 294L215 281Q213 315 205 337Q197 359 174 359Q150 359 141 335.5Q132 312 132 268V176Z" glyph-name="cacute" horiz-adv-x="334" unicode="&#263;" /><glyph d="M127 481 68 614H143L182 549L221 614H297L237 481Z" glyph-name="caron" horiz-adv-x="365" unicode="&#711;" /><glyph d="M115 491 129 630H247L187 491Z" glyph-name="caron.Slovak" horiz-adv-x="365" /><glyph d="M127 659 68 793H143L182 727L221 793H297L237 659Z" glyph-name="caron.cap" horiz-adv-x="365" /><glyph d="M122 481 63 614H138L177 549L216 614H292L232 481ZM132 176Q132 131 141 107.5Q150 84 174 84Q197 84 204.5 106Q212 128 214 163L319 150Q314 74 278.5 33Q243 -8 174 -8Q93 -8 53 47.5Q13 103 13 211V232Q13 340 53 395.5Q93 451 174 451Q243 451 278 410Q313 369 319 294L215 281Q213 315 205 337Q197 359 174 359Q150 359 141 335.5Q132 312 132 268V176Z" glyph-name="ccaron" horiz-adv-x="334" unicode="&#269;" /><glyph d="M264 -99Q264 -138 239 -156Q214 -174 178 -174Q152 -174 128.5 -165.5Q105 -157 91 -143L108 -93Q120 -104 136.5 -112Q153 -120 170 -120Q196 -120 196 -100Q196 -84 176.5 -77.5Q157 -71 127 -71L155 -7Q83 0 48 55Q13 110 13 211V232Q13 340 53 395.5Q93 451 174 451Q243 451 278 410Q313 369 319 294L215 281Q213 315 205 337Q197 359 174 359Q150 359 141 335.5Q132 312 132 268V176Q132 131 141 107.5Q150 84 174 84Q197 84 204.5 106Q212 128 214 163L319 150Q314 81 284.5 40.5Q255 0 197 -6L188 -28Q217 -30 240.5 -46Q264 -62 264 -99Z" glyph-name="ccedilla" horiz-adv-x="334" unicode="&#231;" /><glyph d="M232 611 292 477H216L177 543L138 477H63L122 611ZM132 176Q132 131 141 107.5Q150 84 174 84Q197 84 204.5 106Q212 128 214 163L319 150Q314 74 278.5 33Q243 -8 174 -8Q93 -8 53 47.5Q13 103 13 211V232Q13 340 53 395.5Q93 451 174 451Q243 451 278 410Q313 369 319 294L215 281Q213 315 205 337Q197 359 174 359Q150 359 141 335.5Q132 312 132 268V176Z" glyph-name="ccircumflex" horiz-adv-x="334" unicode="&#265;" /><glyph d="M132 176Q132 131 141 107.5Q150 84 174 84Q197 84 204.5 106Q212 128 214 163L319 150Q314 74 278.5 33Q243 -8 174 -8Q93 -8 53 47.5Q13 103 13 211V232Q13 340 53 395.5Q93 451 174 451Q243 451 278 410Q313 369 319 294L215 281Q213 315 205 337Q197 359 174 359Q150 359 141 335.5Q132 312 132 268V176ZM118 621H236V497H118Z" glyph-name="cdotaccent" horiz-adv-x="334" unicode="&#267;" /><glyph d="M258 -99Q258 -138 233 -156Q208 -174 172 -174Q146 -174 122.5 -165.5Q99 -157 85 -143L102 -93Q114 -104 130.5 -112Q147 -120 164 -120Q190 -120 190 -100Q190 -84 170.5 -77.5Q151 -71 121 -71L157 11H199L182 -28Q211 -30 234.5 -46Q258 -62 258 -99Z" glyph-name="cedilla" horiz-adv-x="365" unicode="&#184;" /><glyph d="M258 -99Q258 -138 233 -156Q208 -174 172 -174Q146 -174 122.5 -165.5Q99 -157 85 -143L102 -93Q114 -104 130.5 -112Q147 -120 164 -120Q190 -120 190 -100Q190 -84 170.5 -77.5Q151 -71 121 -71L157 11H199L182 -28Q211 -30 234.5 -46Q258 -62 258 -99Z" glyph-name="cedilla.alt" horiz-adv-x="365" /><glyph d="M154 -4Q13 11 13 211V232Q13 430 154 447V505H199V447Q257 441 290 401.5Q323 362 328 293L235 281Q234 310 226.5 332Q219 354 199 362V80Q219 88 226.5 109.5Q234 131 235 161L328 148Q316 7 199 -4V-56H154ZM119 173Q119 138 126.5 114Q134 90 154 81V361Q134 353 126.5 329.5Q119 306 119 271Z" glyph-name="cent" horiz-adv-x="343" unicode="&#162;" /><glyph d="M237 611 297 477H221L182 543L143 477H68L127 611Z" glyph-name="circumflex" horiz-adv-x="365" unicode="&#710;" /><glyph d="M237 789 297 656H221L182 721L143 656H68L127 789Z" glyph-name="circumflex.cap" horiz-adv-x="365" /><glyph d="M18 123H141V0H18ZM18 414H141V291H18Z" glyph-name="colon" horiz-adv-x="159" unicode=":" /><glyph d="M18 123H141V5Q141 -54 112.5 -82.5Q84 -111 18 -113V-55Q47 -54 60 -41.5Q73 -29 73 0H18Z" glyph-name="comma" horiz-adv-x="159" unicode="," /><glyph d="M127 -30H237V-93Q237 -141 211 -165Q185 -189 127 -189V-146Q150 -146 160 -139Q170 -132 171 -112H127Z" glyph-name="commaaccent" horiz-adv-x="365" /><glyph d="M238 490H127V553Q127 601 153 624.5Q179 648 238 648V606Q215 606 204.5 599Q194 592 194 572H238Z" glyph-name="commaturn" horiz-adv-x="365" /><glyph d="M282 638Q340 638 388 614Q436 590 471 547Q506 504 525.5 444.5Q545 385 545 315Q545 245 525.5 185.5Q506 126 471 83Q436 40 388 16Q340 -8 282 -8Q224 -8 176 16Q128 40 93.5 83Q59 126 39.5 185.5Q20 245 20 315Q20 385 39.5 444.5Q59 504 93.5 547Q128 590 176 614Q224 638 282 638ZM282 592Q233 592 193.5 571Q154 550 126 513.5Q98 477 83 426Q68 375 68 315Q68 255 83 204Q98 153 126 116.5Q154 80 193.5 59Q233 38 282 38Q331 38 371 59Q411 80 438.5 116.5Q466 153 481 204Q496 255 496 315Q496 375 481 426Q466 477 438.5 513.5Q411 550 371 571Q331 592 282 592ZM237 285Q237 189 286 189Q312 189 321 210.5Q330 232 331 274L412 264Q409 198 379.5 156.5Q350 115 286 115Q217 115 184 165Q151 215 151 302V328Q151 415 184 465Q217 515 286 515Q350 515 379.5 473.5Q409 432 412 366L331 356Q330 398 321 419.5Q312 441 286 441Q237 441 237 345Z" glyph-name="copyright" horiz-adv-x="565" unicode="&#169;" /><glyph d="M224 276Q224 311 213.5 331Q203 351 180 351Q137 351 137 265V178Q137 92 180 92Q203 92 213.5 112Q224 132 224 167ZM224 630H342V0H224V50Q214 26 190.5 9Q167 -8 134 -8Q68 -8 42 46.5Q16 101 16 194V249Q16 342 42 396.5Q68 451 134 451Q167 451 190.5 434Q214 417 224 393Z" glyph-name="d" horiz-adv-x="366" unicode="d" /><glyph d="M10 555H89V632H166V555H244V480H166V320H89V480H10Z" glyph-name="dagger" horiz-adv-x="254" unicode="&#8224;" /><glyph d="M15 449H97V503H15V571H97V632H171V571H253V503H171V449H253V381H171V320H97V381H15Z" glyph-name="daggerdbl" horiz-adv-x="268" unicode="&#8225;" /><glyph d="M361 491 375 630H493L433 491ZM224 276Q224 311 213.5 331Q203 351 180 351Q137 351 137 265V178Q137 92 180 92Q203 92 213.5 112Q224 132 224 167ZM224 630H342V0H224V50Q214 26 190.5 9Q167 -8 134 -8Q68 -8 42 46.5Q16 101 16 194V249Q16 342 42 396.5Q68 451 134 451Q167 451 190.5 434Q214 417 224 393Z" glyph-name="dcaron" horiz-adv-x="366" unicode="&#271;" /><glyph d="M157 566H224V630H342V566H371V493H342V0H224V50Q214 26 190.5 9Q167 -8 134 -8Q68 -8 42 46.5Q16 101 16 194V249Q16 342 42 396.5Q68 451 134 451Q167 451 190.5 434Q214 417 224 393V493H157ZM224 276Q224 311 213.5 331Q203 351 180 351Q137 351 137 265V178Q137 92 180 92Q203 92 213.5 112Q224 132 224 167Z" glyph-name="dcroat" horiz-adv-x="371" unicode="&#273;" /><glyph d="M236 529Q236 506 227.5 486Q219 466 204 451.5Q189 437 168.5 428.5Q148 420 124 420Q100 420 79.5 428.5Q59 437 43.5 451.5Q28 466 19.5 486Q11 506 11 529Q11 552 19.5 572Q28 592 43.5 606.5Q59 621 79.5 629.5Q100 638 124 638Q148 638 168.5 629.5Q189 621 204 606.5Q219 592 227.5 572Q236 552 236 529ZM164 529Q164 547 153 558.5Q142 570 124 570Q105 570 94.5 558.5Q84 547 84 529Q84 511 94.5 499.5Q105 488 124 488Q142 488 153 499.5Q164 511 164 529Z" glyph-name="degree" horiz-adv-x="248" unicode="&#176;" /><glyph d="M74 603H170V487H74ZM195 603H290V487H195Z" glyph-name="dieresis" horiz-adv-x="365" unicode="&#168;" /><glyph d="M74 778H170V662H74ZM195 778H290V662H195Z" glyph-name="dieresis.cap" horiz-adv-x="365" /><glyph d="M30 343H385V260H30ZM153 496H262V394H153ZM153 209H262V107H153Z" glyph-name="divide" horiz-adv-x="415" unicode="&#247;" /><glyph d="M110 181Q111 143 122.5 119.5Q134 96 160 88V264L125 283Q105 294 84.5 308.5Q64 323 47.5 344.5Q31 366 20.5 395Q10 424 10 463Q10 536 51 581.5Q92 627 160 634V687H206V633Q272 626 307.5 583Q343 540 347 467L247 456Q246 488 237 510.5Q228 533 206 541V363L235 348Q263 333 286 316Q309 299 325 278Q341 257 349.5 230Q358 203 358 168Q358 89 316.5 45.5Q275 2 206 -4V-59H160V-4Q91 3 51.5 48Q12 93 10 174ZM252 158Q252 187 239.5 205Q227 223 206 237V88Q227 94 239.5 111.5Q252 129 252 158ZM116 471Q116 438 127.5 420.5Q139 403 160 389V542Q116 530 116 471Z" glyph-name="dollar" horiz-adv-x="369" unicode="$" /><glyph d="M123 621H241V497H123Z" glyph-name="dotaccent" horiz-adv-x="365" unicode="&#729;" /><glyph d="M123 793H241V668H123Z" glyph-name="dotaccent.cap" horiz-adv-x="365" /><glyph d="M123 -30H241V-155H123Z" glyph-name="dotbelow" horiz-adv-x="365" /><glyph d="M142 443V0H24V443Z" glyph-name="dotlessi" horiz-adv-x="166" unicode="&#305;" /><glyph d="M142 -48Q142 -108 114.5 -139Q87 -170 30 -170Q-13 -170 -43 -153L-33 -77Q-20 -83 -6 -83Q11 -83 17.5 -74.5Q24 -66 24 -48V443H142Z" glyph-name="dotlessj" horiz-adv-x="166" unicode="&#567;" /><glyph d="M215 264Q215 310 207 335Q199 360 174 360Q149 360 140 335Q131 310 131 264ZM13 232Q13 281 22 321.5Q31 362 50.5 390.5Q70 419 100.5 435Q131 451 174 451Q217 451 246.5 435.5Q276 420 294.5 391.5Q313 363 321 323Q329 283 329 234V194H131V175Q131 131 141.5 107Q152 83 178 83Q198 83 208 101.5Q218 120 221 149L324 135Q316 73 279.5 32.5Q243 -8 178 -8Q93 -8 53 48Q13 104 13 211Z" glyph-name="e" horiz-adv-x="342" unicode="e" /><glyph d="M132 483 178 620H300L213 483ZM215 264Q215 310 207 335Q199 360 174 360Q149 360 140 335Q131 310 131 264ZM13 232Q13 281 22 321.5Q31 362 50.5 390.5Q70 419 100.5 435Q131 451 174 451Q217 451 246.5 435.5Q276 420 294.5 391.5Q313 363 321 323Q329 283 329 234V194H131V175Q131 131 141.5 107Q152 83 178 83Q198 83 208 101.5Q218 120 221 149L324 135Q316 73 279.5 32.5Q243 -8 178 -8Q93 -8 53 48Q13 104 13 211Z" glyph-name="eacute" horiz-adv-x="342" unicode="&#233;" /><glyph d="M215 264Q215 310 207 335Q199 360 174 360Q149 360 140 335Q131 310 131 264ZM13 232Q13 281 22 321.5Q31 362 50.5 390.5Q70 419 100.5 435Q131 451 174 451Q217 451 246.5 435.5Q276 420 294.5 391.5Q313 363 321 323Q329 283 329 234V194H131V175Q131 131 141.5 107Q152 83 178 83Q198 83 208 101.5Q218 120 221 149L324 135Q316 73 279.5 32.5Q243 -8 178 -8Q93 -8 53 48Q13 104 13 211ZM176 475Q119 475 93.5 511.5Q68 548 68 608H143Q143 552 176 552Q210 552 210 608H285Q285 548 259 511.5Q233 475 176 475Z" glyph-name="ebreve" horiz-adv-x="342" unicode="&#277;" /><glyph d="M122 481 63 614H138L177 549L216 614H292L232 481ZM215 264Q215 310 207 335Q199 360 174 360Q149 360 140 335Q131 310 131 264ZM13 232Q13 281 22 321.5Q31 362 50.5 390.5Q70 419 100.5 435Q131 451 174 451Q217 451 246.5 435.5Q276 420 294.5 391.5Q313 363 321 323Q329 283 329 234V194H131V175Q131 131 141.5 107Q152 83 178 83Q198 83 208 101.5Q218 120 221 149L324 135Q316 73 279.5 32.5Q243 -8 178 -8Q93 -8 53 48Q13 104 13 211Z" glyph-name="ecaron" horiz-adv-x="342" unicode="&#283;" /><glyph d="M232 611 292 477H216L177 543L138 477H63L122 611ZM215 264Q215 310 207 335Q199 360 174 360Q149 360 140 335Q131 310 131 264ZM13 232Q13 281 22 321.5Q31 362 50.5 390.5Q70 419 100.5 435Q131 451 174 451Q217 451 246.5 435.5Q276 420 294.5 391.5Q313 363 321 323Q329 283 329 234V194H131V175Q131 131 141.5 107Q152 83 178 83Q198 83 208 101.5Q218 120 221 149L324 135Q316 73 279.5 32.5Q243 -8 178 -8Q93 -8 53 48Q13 104 13 211Z" glyph-name="ecircumflex" horiz-adv-x="342" unicode="&#234;" /><glyph d="M69 603H165V487H69ZM190 603H285V487H190ZM215 264Q215 310 207 335Q199 360 174 360Q149 360 140 335Q131 310 131 264ZM13 232Q13 281 22 321.5Q31 362 50.5 390.5Q70 419 100.5 435Q131 451 174 451Q217 451 246.5 435.5Q276 420 294.5 391.5Q313 363 321 323Q329 283 329 234V194H131V175Q131 131 141.5 107Q152 83 178 83Q198 83 208 101.5Q218 120 221 149L324 135Q316 73 279.5 32.5Q243 -8 178 -8Q93 -8 53 48Q13 104 13 211Z" glyph-name="edieresis" horiz-adv-x="342" unicode="&#235;" /><glyph d="M215 264Q215 310 207 335Q199 360 174 360Q149 360 140 335Q131 310 131 264ZM13 232Q13 281 22 321.5Q31 362 50.5 390.5Q70 419 100.5 435Q131 451 174 451Q217 451 246.5 435.5Q276 420 294.5 391.5Q313 363 321 323Q329 283 329 234V194H131V175Q131 131 141.5 107Q152 83 178 83Q198 83 208 101.5Q218 120 221 149L324 135Q316 73 279.5 32.5Q243 -8 178 -8Q93 -8 53 48Q13 104 13 211ZM118 621H236V497H118Z" glyph-name="edotaccent" horiz-adv-x="342" unicode="&#279;" /><glyph d="M215 264Q215 310 207 335Q199 360 174 360Q149 360 140 335Q131 310 131 264ZM13 232Q13 281 22 321.5Q31 362 50.5 390.5Q70 419 100.5 435Q131 451 174 451Q217 451 246.5 435.5Q276 420 294.5 391.5Q313 363 321 323Q329 283 329 234V194H131V175Q131 131 141.5 107Q152 83 178 83Q198 83 208 101.5Q218 120 221 149L324 135Q316 73 279.5 32.5Q243 -8 178 -8Q93 -8 53 48Q13 104 13 211ZM142 483 55 620H178L223 483Z" glyph-name="egrave" horiz-adv-x="342" unicode="&#232;" /><glyph d="M190 361Q221 361 234 385Q247 409 247 451Q247 495 234 518.5Q221 542 190 542Q160 542 146.5 518.5Q133 495 133 451Q133 409 146.5 385Q160 361 190 361ZM190 88Q248 88 248 180Q248 272 190 272Q133 272 133 180Q133 88 190 88ZM190 -8Q143 -8 110 5Q77 18 55 42Q33 66 23 99.5Q13 133 13 173Q13 231 34.5 268Q56 305 94 317Q56 328 35.5 365.5Q15 403 15 458Q15 498 25 531Q35 564 56 588Q77 612 110 625Q143 638 190 638Q236 638 269.5 625Q303 612 324 588Q345 564 355 531Q365 498 365 458Q365 403 343.5 365.5Q322 328 284 317Q322 305 344.5 268Q367 231 367 173Q367 133 357 99.5Q347 66 325 42Q303 18 269.5 5Q236 -8 190 -8Z" glyph-name="eight" horiz-adv-x="380" unicode="8" /><glyph d="M18 123H141V0H18ZM168 123H292V0H168ZM319 123H442V0H319Z" glyph-name="ellipsis" horiz-adv-x="460" unicode="&#8230;" /><glyph d="M215 264Q215 310 207 335Q199 360 174 360Q149 360 140 335Q131 310 131 264ZM13 232Q13 281 22 321.5Q31 362 50.5 390.5Q70 419 100.5 435Q131 451 174 451Q217 451 246.5 435.5Q276 420 294.5 391.5Q313 363 321 323Q329 283 329 234V194H131V175Q131 131 141.5 107Q152 83 178 83Q198 83 208 101.5Q218 120 221 149L324 135Q316 73 279.5 32.5Q243 -8 178 -8Q93 -8 53 48Q13 104 13 211ZM81 572H272V489H81Z" glyph-name="emacron" horiz-adv-x="342" unicode="&#275;" /><glyph d="M18 296H362V214H18Z" glyph-name="emdash" horiz-adv-x="380" unicode="&#8212;" /><glyph d="M18 357H362V275H18Z" glyph-name="emdash.cap" horiz-adv-x="380" /><glyph d="M18 296H238V214H18Z" glyph-name="endash" horiz-adv-x="256" unicode="&#8211;" /><glyph d="M18 357H238V275H18Z" glyph-name="endash.cap" horiz-adv-x="256" /><glyph d="M142 0H24V443H142V394Q152 418 177.5 434.5Q203 451 238 451Q268 451 288 441Q308 431 320 414.5Q332 398 337 377Q342 356 342 334V-53Q342 -113 314.5 -144Q287 -175 230 -175Q187 -175 157 -158L167 -81Q180 -88 194 -88Q211 -88 217.5 -79.5Q224 -71 224 -53V301Q224 351 187 351Q163 351 152.5 330Q142 309 142 278Z" glyph-name="eng" horiz-adv-x="366" unicode="&#331;" /><glyph d="M215 264Q215 310 207 335Q199 360 174 360Q149 360 140 335Q131 310 131 264ZM255 9Q230 -12 219 -29Q208 -46 208 -65Q208 -79 215 -87Q222 -95 233 -95Q244 -95 261 -88V-153Q240 -168 206 -168Q176 -168 154 -150.5Q132 -133 132 -95Q132 -70 142 -49Q152 -28 171 -8Q90 -5 51.5 51Q13 107 13 211V232Q13 281 22 321.5Q31 362 50.5 390.5Q70 419 100.5 435Q131 451 174 451Q217 451 246.5 435.5Q276 420 294.5 391.5Q313 363 321 323Q329 283 329 234V194H131V176Q132 131 142 107Q152 83 178 83Q198 83 208 101.5Q218 120 221 149L324 135Q318 91 299.5 59Q281 27 255 9Z" glyph-name="eogonek" horiz-adv-x="342" unicode="&#281;" /><glyph d="M37 271H392V197H37ZM37 411H392V334H37Z" glyph-name="equal" horiz-adv-x="429" unicode="=" /><glyph d="M50 512 117 538Q88 567 50 594L150 639Q188 611 219 577L293 605L315 545L260 524Q300 462 319 390Q338 318 338 238V211Q338 162 329 121.5Q320 81 300.5 52.5Q281 24 250 8Q219 -8 176 -8Q132 -8 101.5 8Q71 24 51 52.5Q31 81 22 121.5Q13 162 13 211V232Q13 325 49 379Q85 433 157 433Q171 433 183 429Q195 425 202 417Q190 450 162 486L72 452ZM132 177Q132 129 141 106.5Q150 84 176 84Q201 84 210 106.5Q219 129 219 177V248Q219 296 210 319Q201 342 176 342Q150 342 141 319Q132 296 132 248Z" glyph-name="eth" horiz-adv-x="351" unicode="&#240;" /><glyph d="M145 123V0H23V123ZM50 186 20 460V630H149V460L118 186Z" glyph-name="exclam" horiz-adv-x="168" unicode="!" /><glyph d="M23 395V518H145V395ZM118 332 149 58V-112H20V58L50 332Z" glyph-name="exclamdown" horiz-adv-x="168" unicode="&#161;" /><glyph d="M145 507.0075V630H23V507.0075ZM50 444.0114 20 170.0281V0.0385H149V170.0281L118 444.0114Z" glyph-name="exclamdown.cap" horiz-adv-x="168" /><glyph d="M227 541Q217 545 210 546.5Q203 548 192 548Q171 548 164.5 536Q158 524 158 507V443H217V361H158V0H40V361H0V443H40V502Q40 564 71.5 601Q103 638 169 638Q192 638 207 635Q222 632 234 627Z" glyph-name="f" horiz-adv-x="221" unicode="f" /><glyph d="M216 541Q202 548 188 548Q170 548 164 536Q158 524 158 506V443H213V361H158V0H40V361H0V443H40V502Q40 564 70.5 601Q101 638 160 638Q178 638 191 635Q204 632 216 627ZM358 167Q358 132 368 112Q378 92 402 92Q445 92 445 178V265Q445 351 402 351Q378 351 368 331Q358 311 358 276ZM358 393Q368 417 391.5 434Q415 451 448 451Q513 451 539.5 396.5Q566 342 566 249V194Q566 101 539.5 46.5Q513 -8 448 -8Q415 -8 391.5 9Q368 26 358 50L348 0H240V630H358Z" glyph-name="f_b" horiz-adv-x="582" /><glyph d="M240 502Q240 564 270 601Q300 638 360 638Q377 638 390.5 635Q404 632 416 627V541Q402 548 388 548Q369 548 363.5 536Q358 524 358 506V443H413V361H358V0H240V361H158V0H40V361H0V443H40V494Q40 557 71.5 593.5Q103 630 167 630Q187 630 200.5 627.5Q214 625 227 620L219 535Q207 541 192 541Q171 541 164.5 529Q158 517 158 499V443H240ZM558 167Q558 132 568 112Q578 92 602 92Q645 92 645 178V265Q645 351 602 351Q578 351 568 331Q558 311 558 276ZM558 393Q568 417 591.5 434Q615 451 648 451Q713 451 739.5 396.5Q766 342 766 249V194Q766 101 739.5 46.5Q713 -8 648 -8Q615 -8 591.5 9Q568 26 558 50L548 0H440V630H558Z" glyph-name="f_f_b" horiz-adv-x="782" /><glyph d="M240 502Q240 564 270 601Q300 638 360 638Q377 638 390.5 635Q404 632 416 627V541Q402 548 388 548Q369 548 363.5 536Q358 524 358 506V443H413V361H358V0H240V361H158V0H40V361H0V443H40V494Q40 557 71.5 593.5Q103 630 167 630Q187 630 200.5 627.5Q214 625 227 620L219 535Q207 541 192 541Q171 541 164.5 529Q158 517 158 499V443H240ZM558 0H440V630H558V394Q568 418 593.5 434.5Q619 451 654 451Q684 451 704 441Q724 431 736 414.5Q748 398 753 377Q758 356 758 334V0H640V301Q640 351 603 351Q579 351 568.5 330Q558 309 558 278Z" glyph-name="f_f_h" horiz-adv-x="782" /><glyph d="M240 502Q240 564 270 601Q300 638 360 638Q377 638 390.5 635Q404 632 416 627V541Q402 548 388 548Q369 548 363.5 536Q358 524 358 506V443H413V361H358V0H240V361H158V0H40V361H0V443H40V494Q40 557 71.5 593.5Q103 630 167 630Q187 630 200.5 627.5Q214 625 227 620L219 535Q207 541 192 541Q171 541 164.5 529Q158 517 158 499V443H240ZM558 -48Q558 -108 530.5 -139Q503 -170 446 -170Q403 -170 373 -153L383 -77Q396 -83 410 -83Q427 -83 433.5 -74.5Q440 -66 440 -48V443H558ZM440 621H558V497H440Z" glyph-name="f_f_j" horiz-adv-x="582" /><glyph d="M240 502Q240 564 270 601Q300 638 360 638Q377 638 390.5 635Q404 632 416 627V541Q402 548 388 548Q369 548 363.5 536Q358 524 358 506V443H413V361H358V0H240V361H158V0H40V361H0V443H40V494Q40 557 71.5 593.5Q103 630 167 630Q187 630 200.5 627.5Q214 625 227 620L219 535Q207 541 192 541Q171 541 164.5 529Q158 517 158 499V443H240ZM558 0H440V630H558V253L663 443H774L673 258L778 0H654L585 167L558 114Z" glyph-name="f_f_k" horiz-adv-x="778" /><glyph d="M216 541Q202 548 188 548Q170 548 164 536Q158 524 158 506V443H213V361H158V0H40V361H0V443H40V502Q40 564 70.5 601Q101 638 160 638Q178 638 191 635Q204 632 216 627ZM358 0H240V630H358V394Q368 418 393.5 434.5Q419 451 454 451Q484 451 504 441Q524 431 536 414.5Q548 398 553 377Q558 356 558 334V0H440V301Q440 351 403 351Q379 351 368.5 330Q358 309 358 278Z" glyph-name="f_h" horiz-adv-x="582" /><glyph d="M216 541Q202 548 188 548Q170 548 164 536Q158 524 158 506V443H213V361H158V0H40V361H0V443H40V502Q40 564 70.5 601Q101 638 160 638Q178 638 191 635Q204 632 216 627ZM358 -48Q358 -108 330.5 -139Q303 -170 246 -170Q203 -170 173 -153L183 -77Q196 -83 210 -83Q227 -83 233.5 -74.5Q240 -66 240 -48V443H358ZM240 621H358V497H240Z" glyph-name="f_j" horiz-adv-x="382" /><glyph d="M216 541Q202 548 188 548Q170 548 164 536Q158 524 158 506V443H213V361H158V0H40V361H0V443H40V502Q40 564 70.5 601Q101 638 160 638Q178 638 191 635Q204 632 216 627ZM358 0H240V630H358V253L463 443H574L473 258L578 0H454L385 167L358 114Z" glyph-name="f_k" horiz-adv-x="579" /><glyph d="M427 541Q418 545 410.5 546.5Q403 548 392 548Q372 548 365 536Q358 524 358 507V443H417V361H358V0H241V361H158V0H40V361H0V443H40V494Q40 557 71.5 593.5Q103 630 167 630Q187 630 200.5 627.5Q214 625 227 620L219 535Q207 541 192 541Q171 541 164.5 529Q158 517 158 499V443H241V502Q241 564 272 601Q303 638 369 638Q392 638 407 635Q422 632 435 627Z" glyph-name="ff" horiz-adv-x="421" unicode="&#64256;" /><glyph d="M240 502Q240 564 270 601Q300 638 360 638Q377 638 390.5 635Q404 632 416 627V541Q402 548 388 548Q369 548 363.5 536Q358 524 358 506V443H413V361H358V0H240V361H158V0H40V361H0V443H40V494Q40 557 71.5 593.5Q103 630 167 630Q187 630 200.5 627.5Q214 625 227 620L219 535Q207 541 192 541Q171 541 164.5 529Q158 517 158 499V443H240ZM558 443V0H440V443ZM440 621H558V497H440Z" glyph-name="ffi" horiz-adv-x="582" unicode="&#64259;" /><glyph d="M240 502Q240 564 270 601Q300 638 360 638Q377 638 390.5 635Q404 632 416 627V541Q402 548 388 548Q369 548 363.5 536Q358 524 358 506V443H413V361H358V0H240V361H158V0H40V361H0V443H40V494Q40 557 71.5 593.5Q103 630 167 630Q187 630 200.5 627.5Q214 625 227 620L219 535Q207 541 192 541Q171 541 164.5 529Q158 517 158 499V443H240ZM558 630V0H440V630Z" glyph-name="ffl" horiz-adv-x="582" unicode="&#64260;" /><glyph d="M216 541Q202 548 188 548Q170 548 164 536Q158 524 158 506V443H213V361H158V0H40V361H0V443H40V502Q40 564 70.5 601Q101 638 160 638Q178 638 191 635Q204 632 216 627ZM358 443V0H240V443ZM240 621H358V497H240Z" glyph-name="fi" horiz-adv-x="382" unicode="&#64257;" /><glyph d="M21 277Q26 311 31 356Q36 401 40.5 449Q45 497 47.5 544Q50 591 51 630H341V520H146Q145 508 144 489.5Q143 471 141.5 452Q140 433 138.5 415Q137 397 135 386Q161 423 219 423Q291 423 327.5 368Q364 313 364 211Q364 105 319 48.5Q274 -8 186 -8Q144 -8 112 5.5Q80 19 58.5 43Q37 67 25.5 100.5Q14 134 12 175L125 187Q127 144 140.5 117.5Q154 91 186 91Q217 91 231.5 118.5Q246 146 246 210Q246 267 233 297Q220 327 186 327Q163 327 150 309.5Q137 292 132 267L21 277Z" glyph-name="five" horiz-adv-x="378" unicode="5" /><glyph d="M216 541Q202 548 188 548Q170 548 164 536Q158 524 158 506V443H213V361H158V0H40V361H0V443H40V502Q40 564 70.5 601Q101 638 160 638Q178 638 191 635Q204 632 216 627ZM358 630V0H240V630Z" glyph-name="fl" horiz-adv-x="382" unicode="&#64258;" /><glyph d="M230 374H299V275H214L174 24Q150 -125 28 -125Q11 -125 -12 -120V-20Q-7 -22 -2.5 -22Q2 -22 7 -22Q36 -22 46.5 -0.5Q57 21 64 63L98 275H40V374H114L133 488Q157 638 276 638Q298 638 325 630V531Q319 532 313.5 533Q308 534 303 534Q274 534 261.5 511.5Q249 489 242 448Z" glyph-name="florin" horiz-adv-x="342" unicode="&#402;" /><glyph d="M345 231H407V135H345V0H226V135H5V224L226 630H345ZM107 231H226V457Z" glyph-name="four" horiz-adv-x="415" unicode="4" /><glyph d="M314 630H393L79 0H0Z" glyph-name="fraction" horiz-adv-x="393" unicode="&#8260;" /><glyph d="M165 147Q140 147 119 153Q110 144 110 130Q110 117 118 109.5Q126 102 146 102H215Q280 102 317 71Q354 40 354 -20Q354 -59 339 -87Q324 -115 298 -133.5Q272 -152 237 -161Q202 -170 162 -170Q127 -170 96.5 -163.5Q66 -157 43 -143.5Q20 -130 6.5 -110Q-7 -90 -7 -63Q-7 -28 13.5 -9Q34 10 63 19Q40 27 27 46.5Q14 66 14 92Q14 121 30.5 141Q47 161 73 173Q45 192 29 222Q13 252 13 294V305Q13 339 25 366.5Q37 394 57.5 412.5Q78 431 105.5 441Q133 451 165 451Q220 451 262 420Q277 445 300 461Q323 477 348 477V376Q338 376 326.5 374.5Q315 373 304 370Q318 340 318 305V294Q318 259 306 232Q294 205 273.5 186Q253 167 225 157Q197 147 165 147ZM89 -44Q89 -67 110 -80.5Q131 -94 163 -94Q201 -94 223.5 -81Q246 -68 246 -42Q246 -22 233 -12.5Q220 -3 199 -3H135Q113 -3 101 -14Q89 -25 89 -44ZM165 230Q186 230 195 248Q204 266 204 292V307Q204 334 195 351.5Q186 369 165 369Q144 369 135.5 351.5Q127 334 127 307V292Q127 266 135.5 248Q144 230 165 230Z" glyph-name="g" horiz-adv-x="346" unicode="g" /><glyph d="M165 147Q140 147 119 153Q110 144 110 130Q110 117 118 109.5Q126 102 146 102H215Q280 102 317 71Q354 40 354 -20Q354 -59 339 -87Q324 -115 298 -133.5Q272 -152 237 -161Q202 -170 162 -170Q127 -170 96.5 -163.5Q66 -157 43 -143.5Q20 -130 6.5 -110Q-7 -90 -7 -63Q-7 -28 13.5 -9Q34 10 63 19Q40 27 27 46.5Q14 66 14 92Q14 121 30.5 141Q47 161 73 173Q45 192 29 222Q13 252 13 294V305Q13 339 25 366.5Q37 394 57.5 412.5Q78 431 105.5 441Q133 451 165 451Q220 451 262 420Q277 445 300 461Q323 477 348 477V376Q338 376 326.5 374.5Q315 373 304 370Q318 340 318 305V294Q318 259 306 232Q294 205 273.5 186Q253 167 225 157Q197 147 165 147ZM89 -44Q89 -67 110 -80.5Q131 -94 163 -94Q201 -94 223.5 -81Q246 -68 246 -42Q246 -22 233 -12.5Q220 -3 199 -3H135Q113 -3 101 -14Q89 -25 89 -44ZM165 230Q186 230 195 248Q204 266 204 292V307Q204 334 195 351.5Q186 369 165 369Q144 369 135.5 351.5Q127 334 127 307V292Q127 266 135.5 248Q144 230 165 230ZM174 475Q117 475 91.5 511.5Q66 548 66 608H141Q141 552 174 552Q208 552 208 608H283Q283 548 257 511.5Q231 475 174 475Z" glyph-name="gbreve" horiz-adv-x="346" unicode="&#287;" /><glyph d="M229 611 289 477H213L174 543L135 477H60L119 611ZM165 147Q140 147 119 153Q110 144 110 130Q110 117 118 109.5Q126 102 146 102H215Q280 102 317 71Q354 40 354 -20Q354 -59 339 -87Q324 -115 298 -133.5Q272 -152 237 -161Q202 -170 162 -170Q127 -170 96.5 -163.5Q66 -157 43 -143.5Q20 -130 6.5 -110Q-7 -90 -7 -63Q-7 -28 13.5 -9Q34 10 63 19Q40 27 27 46.5Q14 66 14 92Q14 121 30.5 141Q47 161 73 173Q45 192 29 222Q13 252 13 294V305Q13 339 25 366.5Q37 394 57.5 412.5Q78 431 105.5 441Q133 451 165 451Q220 451 262 420Q277 445 300 461Q323 477 348 477V376Q338 376 326.5 374.5Q315 373 304 370Q318 340 318 305V294Q318 259 306 232Q294 205 273.5 186Q253 167 225 157Q197 147 165 147ZM89 -44Q89 -67 110 -80.5Q131 -94 163 -94Q201 -94 223.5 -81Q246 -68 246 -42Q246 -22 233 -12.5Q220 -3 199 -3H135Q113 -3 101 -14Q89 -25 89 -44ZM165 230Q186 230 195 248Q204 266 204 292V307Q204 334 195 351.5Q186 369 165 369Q144 369 135.5 351.5Q127 334 127 307V292Q127 266 135.5 248Q144 230 165 230Z" glyph-name="gcircumflex" horiz-adv-x="346" unicode="&#285;" /><glyph d="M230 490H119V553Q119 601 145 624.5Q171 648 230 648V606Q207 606 196.5 599Q186 592 186 572H230ZM165 147Q140 147 119 153Q110 144 110 130Q110 117 118 109.5Q126 102 146 102H215Q280 102 317 71Q354 40 354 -20Q354 -59 339 -87Q324 -115 298 -133.5Q272 -152 237 -161Q202 -170 162 -170Q127 -170 96.5 -163.5Q66 -157 43 -143.5Q20 -130 6.5 -110Q-7 -90 -7 -63Q-7 -28 13.5 -9Q34 10 63 19Q40 27 27 46.5Q14 66 14 92Q14 121 30.5 141Q47 161 73 173Q45 192 29 222Q13 252 13 294V305Q13 339 25 366.5Q37 394 57.5 412.5Q78 431 105.5 441Q133 451 165 451Q220 451 262 420Q277 445 300 461Q323 477 348 477V376Q338 376 326.5 374.5Q315 373 304 370Q318 340 318 305V294Q318 259 306 232Q294 205 273.5 186Q253 167 225 157Q197 147 165 147ZM89 -44Q89 -67 110 -80.5Q131 -94 163 -94Q201 -94 223.5 -81Q246 -68 246 -42Q246 -22 233 -12.5Q220 -3 199 -3H135Q113 -3 101 -14Q89 -25 89 -44ZM165 230Q186 230 195 248Q204 266 204 292V307Q204 334 195 351.5Q186 369 165 369Q144 369 135.5 351.5Q127 334 127 307V292Q127 266 135.5 248Q144 230 165 230Z" glyph-name="gcommaaccent" horiz-adv-x="346" unicode="&#291;" /><glyph d="M165 147Q140 147 119 153Q110 144 110 130Q110 117 118 109.5Q126 102 146 102H215Q280 102 317 71Q354 40 354 -20Q354 -59 339 -87Q324 -115 298 -133.5Q272 -152 237 -161Q202 -170 162 -170Q127 -170 96.5 -163.5Q66 -157 43 -143.5Q20 -130 6.5 -110Q-7 -90 -7 -63Q-7 -28 13.5 -9Q34 10 63 19Q40 27 27 46.5Q14 66 14 92Q14 121 30.5 141Q47 161 73 173Q45 192 29 222Q13 252 13 294V305Q13 339 25 366.5Q37 394 57.5 412.5Q78 431 105.5 441Q133 451 165 451Q220 451 262 420Q277 445 300 461Q323 477 348 477V376Q338 376 326.5 374.5Q315 373 304 370Q318 340 318 305V294Q318 259 306 232Q294 205 273.5 186Q253 167 225 157Q197 147 165 147ZM89 -44Q89 -67 110 -80.5Q131 -94 163 -94Q201 -94 223.5 -81Q246 -68 246 -42Q246 -22 233 -12.5Q220 -3 199 -3H135Q113 -3 101 -14Q89 -25 89 -44ZM165 230Q186 230 195 248Q204 266 204 292V307Q204 334 195 351.5Q186 369 165 369Q144 369 135.5 351.5Q127 334 127 307V292Q127 266 135.5 248Q144 230 165 230ZM116 621H234V497H116Z" glyph-name="gdotaccent" horiz-adv-x="346" unicode="&#289;" /><glyph d="M344 476Q344 428 327 392.5Q310 357 284 344Q321 330 342.5 289Q364 248 364 181Q364 92 324 44Q284 -4 220 -4Q190 -4 168 4L173 95Q186 91 194 91Q228 91 241.5 118Q255 145 255 190Q255 233 239 260Q223 287 190 286Q185 286 180.5 286Q176 286 171 285V391Q176 390 180 390Q184 390 189 390Q238 390 238 464Q238 495 227.5 516.5Q217 538 190 538Q163 538 152.5 516Q142 494 142 457V0H24V445Q24 533 65 585.5Q106 638 192 638Q258 638 301 596.5Q344 555 344 476Z" glyph-name="germandbls" horiz-adv-x="374" unicode="&#223;" /><glyph d="M185 483 98 620H221L266 483Z" glyph-name="grave" horiz-adv-x="365" unicode="`" /><glyph d="M185 661 98 798H221L266 661Z" glyph-name="grave.cap" horiz-adv-x="365" /><glyph d="M296 244 26 124V219L221 301L26 381V476L296 356Z" glyph-name="greater" horiz-adv-x="318" unicode="&gt;" /><glyph d="M298 105H27V187H298ZM298 301 27 206V295L214 356L27 414V504L298 410Z" glyph-name="greaterequal" horiz-adv-x="325" unicode="&#8805;" /><glyph d="M19 282 184 409V291L103 224L184 157V39L19 165ZM197 282 362 409V291L281 224L362 157V39L197 165Z" glyph-name="guillemotleft" horiz-adv-x="381" unicode="&#171;" /><glyph d="M19 377 184 503V385L103 318L184 252V133L19 260ZM197 377 362 503V385L281 318L362 252V133L197 260Z" glyph-name="guillemotleft.cap" horiz-adv-x="381" /><glyph d="M183 165 18 39V157L99 224L18 291V409L183 282ZM361 165 196 39V157L277 224L196 291V409L361 282Z" glyph-name="guillemotright" horiz-adv-x="381" unicode="&#187;" /><glyph d="M183 260 18 133V252L99 318L18 385V503L183 377ZM361 260 196 133V252L277 318L196 385V503L361 377Z" glyph-name="guillemotright.cap" horiz-adv-x="381" /><glyph d="M19 282 184 409V291L103 224L184 157V39L19 165Z" glyph-name="guilsinglleft" horiz-adv-x="203" unicode="&#8249;" /><glyph d="M19 377 184 503V385L103 318L184 252V133L19 260Z" glyph-name="guilsinglleft.cap" horiz-adv-x="203" /><glyph d="M183 165 18 39V157L99 224L18 291V409L183 282Z" glyph-name="guilsinglright" horiz-adv-x="203" unicode="&#8250;" /><glyph d="M183 260 18 133V252L99 318L18 385V503L183 377Z" glyph-name="guilsinglright.cap" horiz-adv-x="203" /><glyph d="M142 0H24V630H142V394Q152 418 177.5 434.5Q203 451 238 451Q268 451 288 441Q308 431 320 414.5Q332 398 337 377Q342 356 342 334V0H224V301Q224 351 187 351Q163 351 152.5 330Q142 309 142 278Z" glyph-name="h" horiz-adv-x="366" unicode="h" /><glyph d="M0 566H29V630H147V566H214V493H147V394Q158 418 183 434.5Q208 451 244 451Q273 451 293 441Q313 431 325 414.5Q337 398 342 377Q347 356 347 334V0H229V301Q229 351 192 351Q168 351 157.5 330Q147 309 147 278V0H29V493H0Z" glyph-name="hbar" horiz-adv-x="371" unicode="&#295;" /><glyph d="M142 0H24V630H142V394Q152 418 177.5 434.5Q203 451 238 451Q268 451 288 441Q308 431 320 414.5Q332 398 337 377Q342 356 342 334V0H224V301Q224 351 187 351Q163 351 152.5 330Q142 309 142 278ZM238 789 298 656H222L183 721L144 656H69L128 789Z" glyph-name="hcircumflex" horiz-adv-x="366" unicode="&#293;" /><glyph d="M63 483 92 623H199L129 483ZM183 483 212 623H320L250 483Z" glyph-name="hungarumlaut" horiz-adv-x="365" unicode="&#733;" /><glyph d="M63 661 92 801H199L129 661ZM183 661 212 801H320L250 661Z" glyph-name="hungarumlaut.cap" horiz-adv-x="365" /><glyph d="M18 307H183V204H18Z" glyph-name="hyphen" horiz-adv-x="201" unicode="-" /><glyph d="M18 369H183V265H18Z" glyph-name="hyphen.cap" horiz-adv-x="201" /><glyph d="M142 443V0H24V443ZM24 621H142V497H24Z" glyph-name="i" horiz-adv-x="166" unicode="i" /><glyph d="M40 483 86 620H208L121 483ZM142 443V0H24V443Z" glyph-name="iacute" horiz-adv-x="166" unicode="&#237;" /><glyph d="M83 475Q27 475 5 511.5Q-17 548 -17 608H58Q58 579 63 565.5Q68 552 83 552Q98 552 103 565.5Q108 579 108 608H183Q183 548 161 511.5Q139 475 83 475ZM142 443V0H24V443Z" glyph-name="ibreve" horiz-adv-x="166" unicode="&#301;" /><glyph d="M138 611 188 477H112L83 543L54 477H-22L27 611ZM142 443V0H24V443Z" glyph-name="icircumflex" horiz-adv-x="166" unicode="&#238;" /><glyph d="M-19.1056 603.5206H71.5682V486.4586H-19.1056ZM95.1812 603.5206H184.9105V486.4586H95.1812ZM142 443V0H24V443Z" glyph-name="idieresis" horiz-adv-x="166" unicode="&#239;" /><glyph d="M142 443V0H24V443ZM25 621H143V497H25Z" glyph-name="idotaccent" horiz-adv-x="166" /><glyph d="M142 443V0H24V443ZM49 483 -38 620H85L130 483Z" glyph-name="igrave" horiz-adv-x="166" unicode="&#236;" /><glyph d="M142 443V0H24V443ZM24 621H142V497H24ZM298 -48Q298 -108 270.5 -139Q243 -170 186 -170Q143 -170 113 -153L123 -77Q136 -83 150 -83Q167 -83 173.5 -74.5Q180 -66 180 -48V443H298ZM180 621H298V497H180Z" glyph-name="ij" horiz-adv-x="321" unicode="&#307;" /><glyph d="M142 443V0H24V443ZM1.0736 572H165.8904V489H1.0736Z" glyph-name="imacron" horiz-adv-x="166" unicode="&#299;" /><glyph d="M24 621H142V497H24ZM24 0V443H142V0Q115 -20 103.5 -37Q92 -54 92 -70Q92 -83 99 -89Q106 -95 117 -95Q128 -95 145 -88V-153Q124 -168 90 -168Q61 -168 39 -150.5Q17 -133 17 -95Q17 -66 30.5 -43.5Q44 -21 65 0Z" glyph-name="iogonek" horiz-adv-x="166" unicode="&#303;" /><glyph d="M-28 483Q-28 542 -15 578Q-2 614 33 614Q47 614 58.5 607Q70 600 79.5 592Q89 584 98.5 577Q108 570 117 570Q134 570 136 611H194Q194 551 181 515.5Q168 480 133 480Q119 480 107.5 487Q96 494 86 502Q76 510 67 517Q58 524 48 524Q32 524 29 483ZM142 443V0H24V443Z" glyph-name="itilde" horiz-adv-x="166" unicode="&#297;" /><glyph d="M142 -48Q142 -108 114.5 -139Q87 -170 30 -170Q-13 -170 -43 -153L-33 -77Q-20 -83 -6 -83Q11 -83 17.5 -74.5Q24 -66 24 -48V443H142ZM24 621H142V497H24Z" glyph-name="j" horiz-adv-x="166" unicode="j" /><glyph d="M138 611 188 477H112L83 543L54 477H-22L27 611ZM142 -48Q142 -108 114.5 -139Q87 -170 30 -170Q-13 -170 -43 -153L-33 -77Q-20 -83 -6 -83Q11 -83 17.5 -74.5Q24 -66 24 -48V443H142Z" glyph-name="jcircumflex" horiz-adv-x="166" unicode="&#309;" /><glyph d="M142 0H24V630H142V253L247 443H358L257 258L362 0H238L169 167L142 114Z" glyph-name="k" horiz-adv-x="362" unicode="k" /><glyph d="M134 -30H244V-93Q244 -141 218 -165Q192 -189 134 -189V-146Q157 -146 167 -139Q177 -132 178 -112H134ZM142 0H24V630H142V253L247 443H358L257 258L362 0H238L169 167L142 114Z" glyph-name="kcommaaccent" horiz-adv-x="362" unicode="&#311;" /><glyph d="M142 0H24V443H142V253L247 443H358L257 258L362 0H238L169 167L142 114Z" glyph-name="kgreenlandic" horiz-adv-x="362" unicode="&#312;" /><glyph d="M142 630V0H24V630Z" glyph-name="l" horiz-adv-x="166" unicode="l" /><glyph d="M42 661 88 798H210L123 661ZM142 630V0H24V630Z" glyph-name="lacute" horiz-adv-x="166" unicode="&#314;" /><glyph d="M160 491 174 630H292L232 491ZM142 630V0H24V630Z" glyph-name="lcaron" horiz-adv-x="166" unicode="&#318;" /><glyph d="M28 -30H138V-93Q138 -141 112 -165Q86 -189 28 -189V-146Q51 -146 61 -139Q71 -132 72 -112H28ZM142 630V0H24V630Z" glyph-name="lcommaaccent" horiz-adv-x="166" unicode="&#316;" /><glyph d="M142 630V0H24V630ZM169.0361 362.01H283.2334V244.3977H169.0361Z" glyph-name="ldot" horiz-adv-x="282" unicode="&#320;" /><glyph d="M22 356 293 476V381L97 301L293 219V124L22 244Z" glyph-name="less" horiz-adv-x="318" unicode="&lt;" /><glyph d="M27 187H298V105H27ZM27 410 298 504V414L110 356L298 295V206L27 301Z" glyph-name="lessequal" horiz-adv-x="325" unicode="&#8804;" /><glyph d="M5 314 38 332V630H156V383L189 401V319L156 300V0H38V244L5 226Z" glyph-name="lslash" horiz-adv-x="194" unicode="&#322;" /><glyph d="M416 300Q416 324 407 337.5Q398 351 380 351Q356 351 347 330Q338 309 338 278V0H220V300Q220 324 211 337.5Q202 351 184 351Q160 351 151 330Q142 309 142 278V0H24V443H142V393Q153 419 177 435Q201 451 239 451Q279 451 300.5 433Q322 415 330 389Q341 415 368.5 433Q396 451 432 451Q488 451 511 417.5Q534 384 534 336V0H416Z" glyph-name="m" horiz-adv-x="558" unicode="m" /><glyph d="M87 572H278V489H87Z" glyph-name="macron" horiz-adv-x="365" unicode="&#175;" /><glyph d="M87 750H278V668H87Z" glyph-name="macron.cap" horiz-adv-x="365" /><glyph d="M30 343H385V260H30Z" glyph-name="minus" horiz-adv-x="415" unicode="&#8722;" /><glyph d="M25 398 81 455 179 356 277 455 333 398 236 300 333 203 277 146 179 244 81 146 25 203 124 300Z" glyph-name="multiply" horiz-adv-x="358" unicode="&#215;" /><glyph d="M142 0H24V443H142V394Q152 418 177.5 434.5Q203 451 238 451Q268 451 288 441Q308 431 320 414.5Q332 398 337 377Q342 356 342 334V0H224V301Q224 351 187 351Q163 351 152.5 330Q142 309 142 278Z" glyph-name="n" horiz-adv-x="366" unicode="n" /><glyph d="M140 483 186 620H308L221 483ZM142 0H24V443H142V394Q152 418 177.5 434.5Q203 451 238 451Q268 451 288 441Q308 431 320 414.5Q332 398 337 377Q342 356 342 334V0H224V301Q224 351 187 351Q163 351 152.5 330Q142 309 142 278Z" glyph-name="nacute" horiz-adv-x="366" unicode="&#324;" /><glyph d="M129 481 70 614H145L184 549L223 614H299L239 481ZM142 0H24V443H142V394Q152 418 177.5 434.5Q203 451 238 451Q268 451 288 441Q308 431 320 414.5Q332 398 337 377Q342 356 342 334V0H224V301Q224 351 187 351Q163 351 152.5 330Q142 309 142 278Z" glyph-name="ncaron" horiz-adv-x="366" unicode="&#328;" /><glyph d="M128 -30H238V-93Q238 -141 212 -165Q186 -189 128 -189V-146Q151 -146 161 -139Q171 -132 172 -112H128ZM142 0H24V443H142V394Q152 418 177.5 434.5Q203 451 238 451Q268 451 288 441Q308 431 320 414.5Q332 398 337 377Q342 356 342 334V0H224V301Q224 351 187 351Q163 351 152.5 330Q142 309 142 278Z" glyph-name="ncommaaccent" horiz-adv-x="366" unicode="&#326;" /><glyph d="M255 431Q255 482 240.5 510Q226 538 194 538Q162 538 147.5 510Q133 482 133 431Q133 379 147.5 351Q162 323 194 323Q226 323 240.5 351Q255 379 255 431ZM187 -8Q111 -8 70 38.5Q29 85 22 160L130 180Q133 142 146 117.5Q159 93 189 93Q224 93 239.5 135.5Q255 178 255 246V283Q241 260 217 246.5Q193 233 159 233Q123 233 96 247.5Q69 262 51 288Q33 314 23.5 350.5Q14 387 14 431Q14 476 25.5 514Q37 552 59.5 579.5Q82 607 115 622.5Q148 638 192 638Q288 638 332 564Q376 490 376 357V278Q376 141 331 66.5Q286 -8 187 -8Z" glyph-name="nine" horiz-adv-x="391" unicode="9" /><glyph glyph-name="nonmarkingreturn" horiz-adv-x="221" unicode="" /><glyph d="M37 409H247L299 488H369L317 409H392V336H270L227 270H392V197H179L129 119H59L109 197H37V270H157L200 336H37Z" glyph-name="notequal" horiz-adv-x="429" unicode="&#8800;" /><glyph d="M142 0H24V443H142V394Q152 418 177.5 434.5Q203 451 238 451Q268 451 288 441Q308 431 320 414.5Q332 398 337 377Q342 356 342 334V0H224V301Q224 351 187 351Q163 351 152.5 330Q142 309 142 278ZM63 483Q63 542 77.5 578Q92 614 129 614Q144 614 157.5 607Q171 600 182.5 592Q194 584 204.5 577Q215 570 225 570Q244 570 246 611H307Q307 551 292.5 515.5Q278 480 241 480Q226 480 212.5 487Q199 494 187.5 502Q176 510 165.5 517Q155 524 145 524Q126 524 124 483Z" glyph-name="ntilde" horiz-adv-x="366" unicode="&#241;" /><glyph d="M405 171H326L294 0H210L241 171H170L139 0H54L86 171H14L29 254H101L125 383H44L59 465H140L171 630H255L224 465H295L326 630H411L380 465H450L435 383H365L341 254H419ZM186 254H257L280 383H209Z" glyph-name="numbersign" horiz-adv-x="464" unicode="#" /><glyph d="M132 181Q132 133 142 108.5Q152 84 176 84Q199 84 209 108.5Q219 133 219 181V263Q219 311 209 335Q199 359 176 359Q152 359 142 335Q132 311 132 263ZM338 211Q338 162 329 121.5Q320 81 300.5 52.5Q281 24 250 8Q219 -8 176 -8Q132 -8 101.5 8Q71 24 51 52.5Q31 81 22 121.5Q13 162 13 211V232Q13 281 22 321.5Q31 362 51 390.5Q71 419 101.5 435Q132 451 176 451Q219 451 250 435Q281 419 300.5 390.5Q320 362 329 321.5Q338 281 338 232Z" glyph-name="o" horiz-adv-x="351" unicode="o" /><glyph d="M131 483 177 620H299L212 483ZM132 181Q132 133 142 108.5Q152 84 176 84Q199 84 209 108.5Q219 133 219 181V263Q219 311 209 335Q199 359 176 359Q152 359 142 335Q132 311 132 263ZM338 211Q338 162 329 121.5Q320 81 300.5 52.5Q281 24 250 8Q219 -8 176 -8Q132 -8 101.5 8Q71 24 51 52.5Q31 81 22 121.5Q13 162 13 211V232Q13 281 22 321.5Q31 362 51 390.5Q71 419 101.5 435Q132 451 176 451Q219 451 250 435Q281 419 300.5 390.5Q320 362 329 321.5Q338 281 338 232Z" glyph-name="oacute" horiz-adv-x="351" unicode="&#243;" /><glyph d="M132 181Q132 133 142 108.5Q152 84 176 84Q199 84 209 108.5Q219 133 219 181V263Q219 311 209 335Q199 359 176 359Q152 359 142 335Q132 311 132 263ZM338 211Q338 162 329 121.5Q320 81 300.5 52.5Q281 24 250 8Q219 -8 176 -8Q132 -8 101.5 8Q71 24 51 52.5Q31 81 22 121.5Q13 162 13 211V232Q13 281 22 321.5Q31 362 51 390.5Q71 419 101.5 435Q132 451 176 451Q219 451 250 435Q281 419 300.5 390.5Q320 362 329 321.5Q338 281 338 232ZM176 475Q119 475 93.5 511.5Q68 548 68 608H143Q143 552 176 552Q210 552 210 608H285Q285 548 259 511.5Q233 475 176 475Z" glyph-name="obreve" horiz-adv-x="351" unicode="&#335;" /><glyph d="M231 611 291 477H215L176 543L137 477H62L121 611ZM132 181Q132 133 142 108.5Q152 84 176 84Q199 84 209 108.5Q219 133 219 181V263Q219 311 209 335Q199 359 176 359Q152 359 142 335Q132 311 132 263ZM338 211Q338 162 329 121.5Q320 81 300.5 52.5Q281 24 250 8Q219 -8 176 -8Q132 -8 101.5 8Q71 24 51 52.5Q31 81 22 121.5Q13 162 13 211V232Q13 281 22 321.5Q31 362 51 390.5Q71 419 101.5 435Q132 451 176 451Q219 451 250 435Q281 419 300.5 390.5Q320 362 329 321.5Q338 281 338 232Z" glyph-name="ocircumflex" horiz-adv-x="351" unicode="&#244;" /><glyph d="M68 603H164V487H68ZM189 603H284V487H189ZM132 181Q132 133 142 108.5Q152 84 176 84Q199 84 209 108.5Q219 133 219 181V263Q219 311 209 335Q199 359 176 359Q152 359 142 335Q132 311 132 263ZM338 211Q338 162 329 121.5Q320 81 300.5 52.5Q281 24 250 8Q219 -8 176 -8Q132 -8 101.5 8Q71 24 51 52.5Q31 81 22 121.5Q13 162 13 211V232Q13 281 22 321.5Q31 362 51 390.5Q71 419 101.5 435Q132 451 176 451Q219 451 250 435Q281 419 300.5 390.5Q320 362 329 321.5Q338 281 338 232Z" glyph-name="odieresis" horiz-adv-x="351" unicode="&#246;" /><glyph d="M377 -8Q345 -8 319 3Q293 14 274 34Q257 15 231.5 3.5Q206 -8 176 -8Q132 -8 101.5 8Q71 24 51 52.5Q31 81 22 121.5Q13 162 13 211V232Q13 281 22 321.5Q31 362 51 390.5Q71 419 101.5 435Q132 451 176 451Q206 451 230.5 438.5Q255 426 273 407Q292 427 317 439Q342 451 374 451Q417 451 446.5 435.5Q476 420 494 391.5Q512 363 520 323Q528 283 528 234V194H331V176Q331 131 341 107Q351 83 377 83Q397 83 407 101.5Q417 120 420 149L523 135Q515 72 479 32Q443 -8 377 -8ZM132 177Q132 129 141 106.5Q150 84 176 84Q201 84 210 106.5Q219 129 219 177V266Q219 314 210 336.5Q201 359 176 359Q150 359 141 336.5Q132 314 132 266ZM414 264Q414 310 406 335Q398 360 374 360Q348 360 339.5 335Q331 310 331 264Z" glyph-name="oe" horiz-adv-x="542" unicode="&#339;" /><glyph d="M244 12Q229 -4 219 -15.5Q209 -27 204 -36Q199 -45 197 -53Q195 -61 195 -70Q195 -83 201.5 -89Q208 -95 219 -95Q230 -95 247 -88V-153Q226 -168 192 -168Q162 -168 140.5 -150.5Q119 -133 119 -95Q119 -63 135.5 -37Q152 -11 177 12Z" glyph-name="ogonek" horiz-adv-x="365" unicode="&#731;" /><glyph d="M132 181Q132 133 142 108.5Q152 84 176 84Q199 84 209 108.5Q219 133 219 181V263Q219 311 209 335Q199 359 176 359Q152 359 142 335Q132 311 132 263ZM338 211Q338 162 329 121.5Q320 81 300.5 52.5Q281 24 250 8Q219 -8 176 -8Q132 -8 101.5 8Q71 24 51 52.5Q31 81 22 121.5Q13 162 13 211V232Q13 281 22 321.5Q31 362 51 390.5Q71 419 101.5 435Q132 451 176 451Q219 451 250 435Q281 419 300.5 390.5Q320 362 329 321.5Q338 281 338 232ZM142 483 55 620H178L223 483Z" glyph-name="ograve" horiz-adv-x="351" unicode="&#242;" /><glyph d="M77 483 106 623H213L143 483ZM197 483 226 623H334L264 483ZM132 181Q132 133 142 108.5Q152 84 176 84Q199 84 209 108.5Q219 133 219 181V263Q219 311 209 335Q199 359 176 359Q152 359 142 335Q132 311 132 263ZM338 211Q338 162 329 121.5Q320 81 300.5 52.5Q281 24 250 8Q219 -8 176 -8Q132 -8 101.5 8Q71 24 51 52.5Q31 81 22 121.5Q13 162 13 211V232Q13 281 22 321.5Q31 362 51 390.5Q71 419 101.5 435Q132 451 176 451Q219 451 250 435Q281 419 300.5 390.5Q320 362 329 321.5Q338 281 338 232Z" glyph-name="ohungarumlaut" horiz-adv-x="351" unicode="&#337;" /><glyph d="M81 572H272V489H81ZM132 181Q132 133 142 108.5Q152 84 176 84Q199 84 209 108.5Q219 133 219 181V263Q219 311 209 335Q199 359 176 359Q152 359 142 335Q132 311 132 263ZM338 211Q338 162 329 121.5Q320 81 300.5 52.5Q281 24 250 8Q219 -8 176 -8Q132 -8 101.5 8Q71 24 51 52.5Q31 81 22 121.5Q13 162 13 211V232Q13 281 22 321.5Q31 362 51 390.5Q71 419 101.5 435Q132 451 176 451Q219 451 250 435Q281 419 300.5 390.5Q320 362 329 321.5Q338 281 338 232Z" glyph-name="omacron" horiz-adv-x="351" unicode="&#333;" /><glyph d="M4 536Q31 536 48.5 541.5Q66 547 77.5 558.5Q89 570 96 588Q103 606 109 632H200V0H76V455H4Z" glyph-name="one" horiz-adv-x="225" unicode="1" /><glyph d="M143 61H237V0H48V53L121 124Q143 145 154 159Q165 173 165 188Q165 210 145 210Q118 210 113 166L45 180Q46 197 53.5 213.5Q61 230 73.5 243Q86 256 104 264Q122 272 145 272Q190 272 214 248Q238 224 238 188Q238 144 193 106ZM67 589Q90 589 104 598Q118 607 123 630H182V362H108V541H67ZM20 336H278V296H20Z" glyph-name="onehalf" horiz-adv-x="298" unicode="&#189;" /><glyph d="M67 589Q90 589 104 598Q118 607 123 630H182V362H108V541H67ZM216 108H247V52H216V0H147V52H24V108L138 268H216ZM87 108H147V193ZM20 336H278V296H20Z" glyph-name="onequarter" horiz-adv-x="298" unicode="&#188;" /><glyph d="M12 589Q35 589 49 598Q63 607 68 630H126V362H52V541H12Z" glyph-name="onesuperior" horiz-adv-x="156" unicode="&#185;" /><glyph d="M208 327V273H30V327ZM129 484 111 471Q99 462 91 454.5Q83 447 83 434Q83 414 102 414Q116 414 122.5 425.5Q129 437 129 454ZM203 423Q203 411 213 411Q216 411 218 411.5Q220 412 225 414V369Q217 364 207.5 360.5Q198 357 184 357Q146 357 134 391Q128 376 112 366.5Q96 357 76 357Q44 357 27 375.5Q10 394 10 422Q10 456 32 475Q54 494 86 512L129 537V545Q129 558 126 567.5Q123 577 110 577Q97 577 91.5 566Q86 555 85 540L16 546Q20 586 42 611Q64 636 112 636Q160 636 181.5 612Q203 588 203 541Z" glyph-name="ordfeminine" horiz-adv-x="235" unicode="&#170;" /><glyph d="M207 273H28V327H207ZM144 522Q144 548 139 561.5Q134 575 117 575Q102 575 96 561.5Q90 548 90 522V470Q90 444 96 430.5Q102 417 117 417Q134 417 139 430.5Q144 444 144 470ZM13 502Q13 562 37 598.5Q61 635 117 635Q173 635 197.5 598Q222 561 222 502V490Q222 431 197.5 394Q173 357 117 357Q61 357 37 393.5Q13 430 13 490Z" glyph-name="ordmasculine" horiz-adv-x="235" unicode="&#186;" /><glyph d="M46 59Q29 88 21 126Q13 164 13 211V232Q13 281 22 321.5Q31 362 51 390.5Q71 419 101.5 435Q132 451 176 451Q226 451 261 428L282 463L332 430L304 383Q321 354 329.5 316Q338 278 338 232V211Q338 162 329 121.5Q320 81 300.5 52.5Q281 24 250 8Q219 -8 176 -8Q125 -8 89 14L69 -21L19 13ZM126 195 211 342Q200 362 176 362Q126 362 126 268ZM176 81Q225 81 225 175V246L140 101Q151 81 176 81Z" glyph-name="oslash" horiz-adv-x="351" unicode="&#248;" /><glyph d="M46 59Q29 88 21 126Q13 164 13 211V232Q13 281 22 321.5Q31 362 51 390.5Q71 419 101.5 435Q132 451 176 451Q226 451 261 428L282 463L332 430L304 383Q321 354 329.5 316Q338 278 338 232V211Q338 162 329 121.5Q320 81 300.5 52.5Q281 24 250 8Q219 -8 176 -8Q125 -8 89 14L69 -21L19 13ZM126 195 211 342Q200 362 176 362Q126 362 126 268ZM176 81Q225 81 225 175V246L140 101Q151 81 176 81ZM131 483 177 620H299L212 483Z" glyph-name="oslashacute" horiz-adv-x="351" unicode="&#511;" /><glyph d="M132 181Q132 133 142 108.5Q152 84 176 84Q199 84 209 108.5Q219 133 219 181V263Q219 311 209 335Q199 359 176 359Q152 359 142 335Q132 311 132 263ZM338 211Q338 162 329 121.5Q320 81 300.5 52.5Q281 24 250 8Q219 -8 176 -8Q132 -8 101.5 8Q71 24 51 52.5Q31 81 22 121.5Q13 162 13 211V232Q13 281 22 321.5Q31 362 51 390.5Q71 419 101.5 435Q132 451 176 451Q219 451 250 435Q281 419 300.5 390.5Q320 362 329 321.5Q338 281 338 232ZM55 483Q55 542 69.5 578Q84 614 121 614Q136 614 149.5 607Q163 600 174.5 592Q186 584 196.5 577Q207 570 217 570Q236 570 238 611H299Q299 551 284.5 515.5Q270 480 233 480Q218 480 204.5 487Q191 494 179.5 502Q168 510 157.5 517Q147 524 137 524Q118 524 116 483Z" glyph-name="otilde" horiz-adv-x="351" unicode="&#245;" /><glyph d="M142 167Q142 132 152 112Q162 92 186 92Q229 92 229 178V265Q229 351 186 351Q162 351 152 331Q142 311 142 276ZM142 -162H24V443H142V393Q152 417 175.5 434Q199 451 232 451Q297 451 323.5 396.5Q350 342 350 249V194Q350 101 323.5 46.5Q297 -8 232 -8Q199 -8 175.5 9Q152 26 142 50Z" glyph-name="p" horiz-adv-x="366" unicode="p" /><glyph d="M169 313Q97 313 53.5 355Q10 397 10 472Q10 547 53.5 588.5Q97 630 169 630H385V0H299V541H255V0H169Z" glyph-name="paragraph" horiz-adv-x="410" unicode="&#182;" /><glyph d="M20 288Q20 337 26 387.5Q32 438 44 486.5Q56 535 73.5 579.5Q91 624 113 660H212Q163 569 145 475Q127 381 127 288Q127 195 145 101Q163 7 212 -84H113Q91 -48 73.5 -3.5Q56 41 44 89.5Q32 138 26 188.5Q20 239 20 288Z" glyph-name="parenleft" horiz-adv-x="212" unicode="(" /><glyph d="M20 307Q20 356 26 406.5Q32 457 44 505.5Q56 554 73.5 598.5Q91 643 113 679H212Q163 588 145 494Q127 400 127 307Q127 214 145 120Q163 26 212 -65H113Q91 -29 73.5 15.5Q56 60 44 108Q32 156 26 206.5Q20 257 20 307Z" glyph-name="parenleft.cap" horiz-adv-x="212" /><glyph d="M191 288Q191 239 185 188.5Q179 138 167 89.5Q155 41 137.5 -3.5Q120 -48 98 -84H-1Q48 7 66 101Q84 195 84 288Q84 381 66 475Q48 569 -1 660H98Q120 624 137.5 579.5Q155 535 167 486.5Q179 438 185 387.5Q191 337 191 288Z" glyph-name="parenright" horiz-adv-x="212" unicode=")" /><glyph d="M191 307Q191 257 185 206.5Q179 156 167 108Q155 60 137.5 15.5Q120 -29 98 -65H-1Q48 26 66 120Q84 214 84 307Q84 400 66 494Q48 588 -1 679H98Q120 643 137.5 598.5Q155 554 167 505.5Q179 457 185 406.5Q191 356 191 307Z" glyph-name="parenright.cap" horiz-adv-x="212" /><glyph d="M99 493Q99 453 108.5 435.5Q118 418 141 418Q164 418 173 435.5Q182 453 182 493Q182 533 173 551Q164 569 141 569Q118 569 108.5 551Q99 533 99 493ZM262 493Q262 424 228.5 385.5Q195 347 141 347Q87 347 53 385.5Q19 424 19 493Q19 562 53 601Q87 640 141 640Q195 640 228.5 601Q262 562 262 493ZM403 630H484L145 0H64ZM366 137Q366 96 375.5 78.5Q385 61 407 61Q430 61 439.5 78.5Q449 96 449 137Q449 176 439.5 194Q430 212 407 212Q385 212 375.5 194Q366 176 366 137ZM529 137Q529 68 495 29Q461 -10 407 -10Q353 -10 319 29Q285 68 285 137Q285 206 319 244.5Q353 283 407 283Q461 283 495 244.5Q529 206 529 137Z" glyph-name="percent" horiz-adv-x="548" unicode="%" /><glyph d="M18 123H141V0H18Z" glyph-name="period" horiz-adv-x="159" unicode="." /><glyph d="M20 304H143V181H20Z" glyph-name="periodcentered" horiz-adv-x="163" unicode="&#183;" /><glyph d="M20 373H143V250H20Z" glyph-name="periodcentered.cap" horiz-adv-x="163" /><glyph d="M105 493Q105 425 141 425Q177 425 177 493Q177 562 141 562Q105 562 105 493ZM262 493Q262 424 228.5 385.5Q195 347 141 347Q87 347 53 385.5Q19 424 19 493Q19 562 53 601Q87 640 141 640Q195 640 228.5 601Q262 562 262 493ZM403 630H484L145 0H64ZM368 137Q368 63 407 63Q446 63 446 137Q446 210 407 210Q368 210 368 137ZM529 137Q529 68 495 29Q461 -10 407 -10Q353 -10 319 29Q285 68 285 137Q285 206 319 244.5Q353 283 407 283Q461 283 495 244.5Q529 206 529 137ZM626 137Q626 63 665 63Q704 63 704 137Q704 210 665 210Q626 210 626 137ZM787 137Q787 68 753 29Q719 -10 665 -10Q611 -10 577 29Q543 68 543 137Q543 206 577 244.5Q611 283 665 283Q719 283 753 244.5Q787 206 787 137Z" glyph-name="perthousand" horiz-adv-x="805" unicode="&#8240;" /><glyph d="M248 482V345H385V263H248V127H166V263H30V345H166V482Z" glyph-name="plus" horiz-adv-x="415" unicode="+" /><glyph d="M248 507V407H379V325H248V224H167V325H38V407H167V507ZM38 187H379V105H38Z" glyph-name="plusminus" horiz-adv-x="416" unicode="&#177;" /><glyph d="M282 638Q340 638 388 614Q436 590 471 547Q506 504 525.5 444.5Q545 385 545 315Q545 245 525.5 185.5Q506 126 471 83Q436 40 388 16Q340 -8 282 -8Q224 -8 176 16Q128 40 93.5 83Q59 126 39.5 185.5Q20 245 20 315Q20 385 39.5 444.5Q59 504 93.5 547Q128 590 176 614Q224 638 282 638ZM282 592Q233 592 193.5 571Q154 550 126 513.5Q98 477 83 426Q68 375 68 315Q68 255 83 204Q98 153 126 116.5Q154 80 193.5 59Q233 38 282 38Q331 38 371 59Q411 80 438.5 116.5Q466 153 481 204Q496 255 496 315Q496 375 481 426Q466 477 438.5 513.5Q411 550 371 571Q331 592 282 592ZM289 315Q315 315 327.5 328Q340 341 340 373Q340 405 327.5 418Q315 431 289 431H266V315ZM266 125H185V501H300Q362 501 391.5 467Q421 433 421 373Q421 313 391.5 279.5Q362 246 300 246H266Z" glyph-name="published" horiz-adv-x="565" /><glyph d="M223 276Q223 311 213 331Q203 351 179 351Q136 351 136 265V178Q136 92 179 92Q203 92 213 112Q223 132 223 167ZM223 50Q213 26 189.5 9Q166 -8 133 -8Q68 -8 41.5 46.5Q15 101 15 194V249Q15 342 41.5 396.5Q68 451 133 451Q166 451 189.5 434Q213 417 223 393V443H341V-162H223Z" glyph-name="q" horiz-adv-x="366" unicode="q" /><glyph d="M119 0V123H241V0ZM186 539Q154 539 140 507.5Q126 476 123 422L8 439Q10 480 21 516Q32 552 53 579Q74 606 106.5 622Q139 638 184 638Q272 638 314.5 592.5Q357 547 357 462Q357 433 351 410Q345 387 334.5 366Q324 345 310.5 325.5Q297 306 283 286Q270 269 261 255.5Q252 242 246.5 231Q241 220 238 209Q235 198 235 186H124Q125 206 127.5 221.5Q130 237 135 251.5Q140 266 149.5 282Q159 298 173 319Q200 361 218 394.5Q236 428 236 469Q236 498 225.5 518.5Q215 539 186 539Z" glyph-name="question" horiz-adv-x="369" unicode="?" /><glyph d="M250 518V395H128V518ZM183 -21Q215 -21 229 10.5Q243 42 246 96L361 79Q359 38 348 2Q337 -34 316 -61Q295 -88 262.5 -104Q230 -120 185 -120Q97 -120 54.5 -74.5Q12 -29 12 56Q12 84 18 107.5Q24 131 34.5 152Q45 173 58.5 192.5Q72 212 86 232Q99 249 108 262.5Q117 276 122.5 287Q128 298 131 309Q134 320 134 332H245Q244 312 241.5 296.5Q239 281 234 266.5Q229 252 219.5 236Q210 220 196 199Q169 157 151 123.5Q133 90 133 49Q133 20 143.5 -0.5Q154 -21 183 -21Z" glyph-name="questiondown" horiz-adv-x="369" unicode="&#191;" /><glyph d="M250.0073 630V507.0075H128.0147V630ZM183.0114 91.0329Q215.0094 91.0329 229.0085 122.531Q243.0077 154.0291 246.0075 208.0258L361.0005 191.0268Q359.0006 150.0293 348.0013 114.0315Q337.002 78.0337 316.0032 51.0353Q295.0045 24.037 262.5065 8.038Q230.0085 -7.9611 185.0112 -7.9611Q97.0166 -7.9611 54.5192 37.5362Q12.0218 83.0334 12.0218 168.0282Q12.0218 197.0264 18.0214 220.025Q24.0211 243.0236 34.5204 264.0223Q45.0198 285.0211 58.519 304.5199Q72.0181 324.0187 86.0173 344.0175Q99.0165 361.0164 108.0159 374.5156Q117.0154 388.0148 122.515 399.0141Q128.0147 410.0134 131.0145 421.0128Q134.0143 432.0121 134.0143 444.0114H245.0076Q244.0076 424.0126 241.5078 408.5135Q239.0079 393.0145 234.0082 378.5154Q229.0085 364.0162 219.5091 348.0172Q210.0097 332.0182 196.0106 311.0195Q169.0122 269.022 151.0133 235.5241Q133.0144 202.0261 133.0144 161.0286Q133.0144 132.0304 143.5138 111.5316Q154.0131 91.0329 183.0114 91.0329Z" glyph-name="questiondown.cap" horiz-adv-x="369" /><glyph d="M24 630H121V406H24ZM149 630H247V406H149Z" glyph-name="quotedbl" horiz-adv-x="271" unicode="&quot;" /><glyph d="M165 112H288V4Q288 -53 259.5 -80Q231 -107 165 -109V-51Q194 -50 207 -39.5Q220 -29 221 0H165ZM18 112H141V4Q141 -53 112.5 -80Q84 -107 18 -109V-51Q47 -50 60.5 -39.5Q74 -29 74 0H18Z" glyph-name="quotedblbase" horiz-adv-x="306" unicode="&#8222;" /><glyph d="M141 412H18V520Q18 577 46.5 604Q75 631 141 633V575Q112 574 99 563.5Q86 553 85 524H141ZM288 412H165V520Q165 577 193.5 604Q222 631 288 633V575Q259 574 246 563.5Q233 553 232 524H288Z" glyph-name="quotedblleft" horiz-adv-x="306" unicode="&#8220;" /><glyph d="M165 630H288V522Q288 465 259.5 438Q231 411 165 409V467Q194 468 207 478.5Q220 489 221 518H165ZM18 630H141V522Q141 465 112.5 438Q84 411 18 409V467Q47 468 60.5 478.5Q74 489 74 518H18Z" glyph-name="quotedblright" horiz-adv-x="306" unicode="&#8221;" /><glyph d="M141 412H18V520Q18 577 46.5 604Q75 631 141 633V575Q112 574 99 563.5Q86 553 85 524H141Z" glyph-name="quoteleft" horiz-adv-x="159" unicode="&#8216;" /><glyph d="M18 630H141V522Q141 465 112.5 438Q84 411 18 409V467Q47 468 60.5 478.5Q74 489 74 518H18Z" glyph-name="quoteright" horiz-adv-x="159" unicode="&#8217;" /><glyph d="M18 112H141V4Q141 -53 112.5 -80Q84 -107 18 -109V-51Q47 -50 60.5 -39.5Q74 -29 74 0H18Z" glyph-name="quotesinglbase" horiz-adv-x="159" unicode="&#8218;" /><glyph d="M24 630H129V406H24Z" glyph-name="quotesingle" horiz-adv-x="153" unicode="&apos;" /><glyph d="M255 329Q245 332 234 334.5Q223 337 206 337Q168 337 155 312.5Q142 288 142 248V0H24V443H142V383Q151 418 173 433.5Q195 449 226 449Q237 449 244.5 447Q252 445 258 443Z" glyph-name="r" horiz-adv-x="261" unicode="r" /><glyph d="M97 483 143 620H265L178 483ZM255 329Q245 332 234 334.5Q223 337 206 337Q168 337 155 312.5Q142 288 142 248V0H24V443H142V383Q151 418 173 433.5Q195 449 226 449Q237 449 244.5 447Q252 445 258 443Z" glyph-name="racute" horiz-adv-x="261" unicode="&#341;" /><glyph d="M86 481 27 614H102L141 549L180 614H256L196 481ZM255 329Q245 332 234 334.5Q223 337 206 337Q168 337 155 312.5Q142 288 142 248V0H24V443H142V383Q151 418 173 433.5Q195 449 226 449Q237 449 244.5 447Q252 445 258 443Z" glyph-name="rcaron" horiz-adv-x="261" unicode="&#345;" /><glyph d="M29 -30H139V-93Q139 -141 113 -165Q87 -189 29 -189V-146Q52 -146 62 -139Q72 -132 73 -112H29ZM255 329Q245 332 234 334.5Q223 337 206 337Q168 337 155 312.5Q142 288 142 248V0H24V443H142V383Q151 418 173 433.5Q195 449 226 449Q237 449 244.5 447Q252 445 258 443Z" glyph-name="rcommaaccent" horiz-adv-x="261" unicode="&#343;" /><glyph d="M184 393Q181 398 179.5 403.5Q178 409 177 423Q176 438 171 442.5Q166 447 155 447H136V393H96V562H167Q195 562 209 548Q223 534 223 508Q223 490 214.5 478.5Q206 467 192 465Q215 460 218 432Q220 412 221 405Q222 398 226 393ZM155 483Q181 483 181 503Q181 524 155 524H136V483ZM290 476Q290 440 279.5 410.5Q269 381 251 359.5Q233 338 208 326.5Q183 315 154 315Q125 315 100.5 326.5Q76 338 58 359.5Q40 381 29.5 410.5Q19 440 19 476Q19 513 29.5 543Q40 573 58 594Q76 615 100.5 626.5Q125 638 154 638Q183 638 208 626.5Q233 615 251 594Q269 573 279.5 543Q290 513 290 476ZM261 476Q261 537 231.5 573.5Q202 610 154 610Q106 610 77 573.5Q48 537 48 476Q48 416 77 379.5Q106 343 154 343Q202 343 231.5 379.5Q261 416 261 476Z" glyph-name="registered" horiz-adv-x="309" unicode="&#174;" /><glyph d="M146 558Q146 521 182 521Q218 521 218 558Q218 574 209 584Q200 594 182 594Q164 594 155 584Q146 574 146 558ZM93 558Q93 594 117 618.5Q141 643 182 643Q223 643 247 618.5Q271 594 271 558Q271 520 247 496Q223 472 182 472Q141 472 117 496Q93 520 93 558Z" glyph-name="ring" horiz-adv-x="365" unicode="&#730;" /><glyph d="M146 736Q146 719 155 709Q164 699 182 699Q200 699 209 709Q218 719 218 736Q218 753 209 762.5Q200 772 182 772Q164 772 155 762.5Q146 753 146 736ZM93 736Q93 773 117 797Q141 821 182 821Q223 821 247 797Q271 773 271 736Q271 699 247 674.5Q223 650 182 650Q141 650 117 674.5Q93 699 93 736Z" glyph-name="ring.cap" horiz-adv-x="365" /><glyph d="M104 138Q106 111 119.5 95.5Q133 80 154 80Q173 80 182 90Q191 100 191 117Q191 143 160 159L107 183Q66 201 39 231.5Q12 262 12 318Q12 376 49.5 413.5Q87 451 154 451Q220 451 256 415Q292 379 297 323L202 306Q198 329 188 346Q178 363 157 363Q140 363 131.5 353.5Q123 344 123 327Q123 299 151 285L209 257Q229 248 246 236.5Q263 225 276 209Q289 193 296 172.5Q303 152 303 125Q303 62 263 27Q223 -8 156 -8Q88 -8 49 28.5Q10 65 5 126Z" glyph-name="s" horiz-adv-x="312" unicode="s" /><glyph d="M111 483 157 620H279L192 483ZM104 138Q106 111 119.5 95.5Q133 80 154 80Q173 80 182 90Q191 100 191 117Q191 143 160 159L107 183Q66 201 39 231.5Q12 262 12 318Q12 376 49.5 413.5Q87 451 154 451Q220 451 256 415Q292 379 297 323L202 306Q198 329 188 346Q178 363 157 363Q140 363 131.5 353.5Q123 344 123 327Q123 299 151 285L209 257Q229 248 246 236.5Q263 225 276 209Q289 193 296 172.5Q303 152 303 125Q303 62 263 27Q223 -8 156 -8Q88 -8 49 28.5Q10 65 5 126Z" glyph-name="sacute" horiz-adv-x="312" unicode="&#347;" /><glyph d="M101 481 42 614H117L156 549L195 614H271L211 481ZM104 138Q106 111 119.5 95.5Q133 80 154 80Q173 80 182 90Q191 100 191 117Q191 143 160 159L107 183Q66 201 39 231.5Q12 262 12 318Q12 376 49.5 413.5Q87 451 154 451Q220 451 256 415Q292 379 297 323L202 306Q198 329 188 346Q178 363 157 363Q140 363 131.5 353.5Q123 344 123 327Q123 299 151 285L209 257Q229 248 246 236.5Q263 225 276 209Q289 193 296 172.5Q303 152 303 125Q303 62 263 27Q223 -8 156 -8Q88 -8 49 28.5Q10 65 5 126Z" glyph-name="scaron" horiz-adv-x="312" unicode="&#353;" /><glyph d="M244 -99Q244 -138 219 -156Q194 -174 158 -174Q132 -174 108.5 -165.5Q85 -157 71 -143L88 -93Q100 -104 116.5 -112Q133 -120 150 -120Q176 -120 176 -100Q176 -84 156.5 -77.5Q137 -71 107 -71L135 -7Q76 -2 43 33.5Q10 69 5 126L104 138Q106 111 119.5 95.5Q133 80 154 80Q173 80 182 90Q191 100 191 117Q191 143 160 159L107 183Q66 201 39 231.5Q12 262 12 318Q12 376 49.5 413.5Q87 451 154 451Q220 451 256 415Q292 379 297 323L202 306Q198 329 188 346Q178 363 157 363Q140 363 131.5 353.5Q123 344 123 327Q123 299 151 285L209 257Q229 248 246 236.5Q263 225 276 209Q289 193 296 172.5Q303 152 303 125Q303 67 269 32.5Q235 -2 177 -7L168 -28Q197 -30 220.5 -46Q244 -62 244 -99Z" glyph-name="scedilla" horiz-adv-x="312" unicode="&#351;" /><glyph d="M211 611 271 477H195L156 543L117 477H42L101 611ZM104 138Q106 111 119.5 95.5Q133 80 154 80Q173 80 182 90Q191 100 191 117Q191 143 160 159L107 183Q66 201 39 231.5Q12 262 12 318Q12 376 49.5 413.5Q87 451 154 451Q220 451 256 415Q292 379 297 323L202 306Q198 329 188 346Q178 363 157 363Q140 363 131.5 353.5Q123 344 123 327Q123 299 151 285L209 257Q229 248 246 236.5Q263 225 276 209Q289 193 296 172.5Q303 152 303 125Q303 62 263 27Q223 -8 156 -8Q88 -8 49 28.5Q10 65 5 126Z" glyph-name="scircumflex" horiz-adv-x="312" unicode="&#349;" /><glyph d="M101 -30H211V-93Q211 -141 185 -165Q159 -189 101 -189V-146Q124 -146 134 -139Q144 -132 145 -112H101ZM104 138Q106 111 119.5 95.5Q133 80 154 80Q173 80 182 90Q191 100 191 117Q191 143 160 159L107 183Q66 201 39 231.5Q12 262 12 318Q12 376 49.5 413.5Q87 451 154 451Q220 451 256 415Q292 379 297 323L202 306Q198 329 188 346Q178 363 157 363Q140 363 131.5 353.5Q123 344 123 327Q123 299 151 285L209 257Q229 248 246 236.5Q263 225 276 209Q289 193 296 172.5Q303 152 303 125Q303 62 263 27Q223 -8 156 -8Q88 -8 49 28.5Q10 65 5 126Z" glyph-name="scommaaccent" horiz-adv-x="312" unicode="&#537;" /><glyph d="M375 242Q375 207 361 177Q347 147 325 127Q335 112 341 93Q347 74 347 49Q347 -14 306.5 -55Q266 -96 197 -96Q125 -96 83 -56.5Q41 -17 36 55L125 59Q130 27 147.5 9.5Q165 -8 195 -8Q218 -8 232 5Q246 18 246 42Q246 56 238.5 69Q231 82 208 93L126 136Q74 162 46 200Q18 238 18 300Q18 334 32 364Q46 394 68 414Q46 445 46 493Q46 556 86.5 597Q127 638 196 638Q268 638 310 598.5Q352 559 357 487L268 483Q263 515 245.5 532.5Q228 550 198 550Q175 550 161 537Q147 524 147 501Q147 486 154.5 473.5Q162 461 183 450L267 406Q319 380 347 342Q375 304 375 242ZM132 356Q124 349 119 338.5Q114 328 114 312Q114 289 122.5 277Q131 265 153 252L250 193L261 186Q269 193 274 204Q279 215 279 230Q279 253 270.5 265Q262 277 240 291L143 350Z" glyph-name="section" horiz-adv-x="398" unicode="&#167;" /><glyph d="M18 123H141V5Q141 -54 112.5 -82.5Q84 -111 18 -113V-55Q47 -54 60 -41.5Q73 -29 73 0H18ZM18 414H141V291H18Z" glyph-name="semicolon" horiz-adv-x="159" unicode=";" /><glyph d="M5 518V630H341V534Q299 478 275 416.5Q251 355 238.5 288Q226 221 223 149Q220 77 220 0H85Q86 78 92.5 149.5Q99 221 114 285.5Q129 350 153.5 408Q178 466 216 518Z" glyph-name="seven" horiz-adv-x="346" unicode="7" /><glyph d="M136 199Q136 148 150.5 120Q165 92 197 92Q229 92 243.5 120Q258 148 258 199Q258 251 243.5 279Q229 307 197 307Q165 307 150.5 279Q136 251 136 199ZM204 638Q280 638 321 591.5Q362 545 369 470L261 450Q258 488 245 512.5Q232 537 202 537Q167 537 151.5 494.5Q136 452 136 384V347Q150 370 174 383.5Q198 397 232 397Q268 397 295 382.5Q322 368 340 342Q358 316 367.5 279.5Q377 243 377 199Q377 154 365.5 116Q354 78 331.5 50.5Q309 23 276 7.5Q243 -8 199 -8Q103 -8 59 65.5Q15 139 15 273V352Q15 489 60 563.5Q105 638 204 638Z" glyph-name="six" horiz-adv-x="391" unicode="6" /><glyph d="M99 659H202L97 -83H-6Z" glyph-name="slash" horiz-adv-x="209" unicode="/" /><glyph d="M105 629H208L103 0H0Z" glyph-name="slash.cap" horiz-adv-x="208" /><glyph glyph-name="space" horiz-adv-x="118" unicode=" " /><glyph d="M193 451Q193 422 199 398.5Q205 375 213 352H304V275H238Q243 257 245.5 237Q248 217 248 194Q248 153 238 120Q252 112 265.5 107.5Q279 103 295 103Q326 103 338 124Q350 145 351 196L427 187Q434 134 428 97Q422 60 406.5 36.5Q391 13 367 2.5Q343 -8 316 -8Q278 -8 250 7.5Q222 23 200 43Q180 19 156 5.5Q132 -8 104 -8Q61 -8 32.5 18.5Q4 45 4 95Q4 139 32 166.5Q60 194 102 194Q125 194 147 183Q147 211 142 233Q137 255 129 275H45V352H96Q87 374 81 400Q75 426 75 461Q75 500 86.5 532.5Q98 565 120 588.5Q142 612 172.5 625Q203 638 241 638Q320 638 361.5 589.5Q403 541 408 446L306 431Q303 478 290 503.5Q277 529 245 529Q219 529 206 508Q193 487 193 451ZM104 65Q128 65 139 107Q130 115 121 119.5Q112 124 103 124Q77 124 77 94Q77 80 84.5 72.5Q92 65 104 65Z" glyph-name="sterling" horiz-adv-x="437" unicode="&#163;" /><glyph d="M37 361H0V432L13 434Q43 439 53 457Q63 475 69 507L80 560H151V443H223V361H151V127Q151 91 179 91Q192 91 200.5 94.5Q209 98 226 106L231 25Q208 8 185.5 1Q163 -6 135 -6Q90 -6 63.5 17Q37 40 37 95Z" glyph-name="t" horiz-adv-x="237" unicode="t" /><glyph d="M7 288H44V361H7V432L20 434Q50 439 60 457Q70 475 77 507L88 560H158V443H231V361H158V288H231V206H158V127Q158 91 187 91Q199 91 207.5 94.5Q216 98 233 106L238 25Q215 8 192.5 1Q170 -6 142 -6Q97 -6 70.5 17Q44 40 44 95V206H7Z" glyph-name="tbar" horiz-adv-x="251" unicode="&#359;" /><glyph d="M170 491 184 630H302L242 491ZM37 361H0V432L13 434Q43 439 53 457Q63 475 69 507L80 560H151V443H223V361H151V127Q151 91 179 91Q192 91 200.5 94.5Q209 98 226 106L231 25Q208 8 185.5 1Q163 -6 135 -6Q90 -6 63.5 17Q37 40 37 95Z" glyph-name="tcaron" horiz-adv-x="237" unicode="&#357;" /><glyph d="M76 -30H186V-93Q186 -141 160 -165Q134 -189 76 -189V-146Q99 -146 109 -139Q119 -132 120 -112H76ZM37 361H0V432L13 434Q43 439 53 457Q63 475 69 507L80 560H151V443H223V361H151V127Q151 91 179 91Q192 91 200.5 94.5Q209 98 226 106L231 25Q208 8 185.5 1Q163 -6 135 -6Q90 -6 63.5 17Q37 40 37 95Z" glyph-name="tcommaaccent" horiz-adv-x="237" unicode="&#355;" /><glyph d="M142 167Q142 132 152 112Q162 92 186 92Q229 92 229 178V265Q229 351 186 351Q162 351 152 331Q142 311 142 276ZM142 -162H24V630H142V393Q152 417 175.5 434Q199 451 232 451Q297 451 323.5 396.5Q350 342 350 249V194Q350 101 323.5 46.5Q297 -8 232 -8Q199 -8 175.5 9Q152 26 142 50Z" glyph-name="thorn" horiz-adv-x="366" unicode="&#254;" /><glyph d="M136 363Q147 361 158 361Q169 361 177 361Q206 361 223 382Q240 403 240 451Q240 492 227 515.5Q214 539 183 539Q154 539 139 512.5Q124 486 122 440L11 460Q14 497 26 529.5Q38 562 59 586Q80 610 111 624Q142 638 183 638Q230 638 263.5 624Q297 610 318 586Q339 562 349 528.5Q359 495 359 456Q359 396 337 361.5Q315 327 280 316Q315 304 337 269.5Q359 235 359 175Q359 90 315 41Q271 -8 183 -8Q138 -8 105.5 6Q73 20 51.5 44.5Q30 69 19.5 103Q9 137 8 177L120 185Q121 142 135.5 116.5Q150 91 182 91Q214 91 227 115.5Q240 140 240 185Q240 233 224.5 252.5Q209 272 177 272Q169 272 158 271.5Q147 271 136 269Z" glyph-name="three" horiz-adv-x="377" unicode="3" /><glyph d="M205 496Q223 490 233.5 475.5Q244 461 244 438Q244 400 218.5 378.5Q193 357 148 357Q105 357 78.5 380Q52 403 50 442L115 454Q117 432 125.5 423.5Q134 415 148 415Q162 415 168 423Q174 431 174 445Q174 473 146 473Q143 473 138 473Q133 473 128 472V520Q133 519 138 519Q143 519 146 519Q173 519 173 549Q173 560 167 568Q161 576 147 576Q121 576 115 539L52 548Q57 586 81 610Q105 634 147 634Q194 634 218 612.5Q242 591 242 554Q242 507 205 496ZM216 108H247V52H216V0H147V52H24V108L138 268H216ZM87 108H147V193ZM20 336H278V296H20Z" glyph-name="threequarters" horiz-adv-x="298" unicode="&#190;" /><glyph d="M108 634Q155 634 179 612.5Q203 591 203 554Q203 507 166 496Q204 483 204 438Q204 400 179 378.5Q154 357 108 357Q66 357 39.5 380Q13 403 11 442L76 454Q78 432 86.5 423.5Q95 415 108 415Q122 415 128 423Q134 431 134 445Q134 473 106 473Q104 473 99 473Q94 473 89 472V520Q94 519 99 519Q104 519 106 519Q133 519 133 549Q133 560 127.5 568Q122 576 108 576Q82 576 76 539L12 548Q17 586 41.5 610Q66 634 108 634Z" glyph-name="threesuperior" horiz-adv-x="223" unicode="&#179;" /><glyph d="M73 483Q73 542 87.5 578Q102 614 139 614Q154 614 167.5 607Q181 600 192.5 592Q204 584 214.5 577Q225 570 235 570Q254 570 256 611H317Q317 551 302.5 515.5Q288 480 251 480Q236 480 222.5 487Q209 494 197.5 502Q186 510 175.5 517Q165 524 155 524Q136 524 134 483Z" glyph-name="tilde" horiz-adv-x="365" unicode="&#732;" /><glyph d="M73 661Q73 721 87.5 756.5Q102 792 139 792Q154 792 167.5 785Q181 778 192.5 770Q204 762 214.5 755Q225 748 235 748Q254 748 256 789H317Q317 730 302.5 694Q288 658 251 658Q236 658 222.5 665Q209 672 197.5 680Q186 688 175.5 695Q165 702 155 702Q136 702 134 661Z" glyph-name="tilde.cap" horiz-adv-x="365" /><glyph d="M51 411V576H9V630H155V576H111V411ZM255 411 223 555H221V411H170V630H245L274 500H276L303 630H379V411H324V555H322L291 411Z" glyph-name="trademark" horiz-adv-x="400" unicode="&#8482;" /><glyph d="M158 105H358V0H12V88L168 301Q197 340 217 377Q237 414 237 463Q237 496 225.5 516Q214 536 189 536Q158 536 144 505.5Q130 475 126 422L12 439Q14 480 25 516Q36 552 57 579Q78 606 110.5 622Q143 638 188 638Q273 638 315.5 592.5Q358 547 358 462Q358 430 352 404.5Q346 379 335.5 356Q325 333 311 312Q297 291 281 269Z" glyph-name="two" horiz-adv-x="371" unicode="2" /><glyph d="M117 634Q162 634 186.5 610Q211 586 211 550Q211 506 165 467L116 423H209V362H20V414L94 486Q116 507 127 520.5Q138 534 138 550Q138 572 117 572Q91 572 86 528L18 541Q19 559 26.5 575.5Q34 592 46.5 605Q59 618 76.5 626Q94 634 117 634Z" glyph-name="twosuperior" horiz-adv-x="234" unicode="&#178;" /><glyph d="M220 443H339V0H220V49Q210 25 185.5 8.5Q161 -8 126 -8Q97 -8 77.5 2.5Q58 13 46 29.5Q34 46 29 67Q24 88 24 109V443H142V143Q142 93 177 93Q202 93 211 114Q220 135 220 165Z" glyph-name="u" horiz-adv-x="362" unicode="u" /><glyph d="M137 483 183 620H305L218 483ZM220 443H339V0H220V49Q210 25 185.5 8.5Q161 -8 126 -8Q97 -8 77.5 2.5Q58 13 46 29.5Q34 46 29 67Q24 88 24 109V443H142V143Q142 93 177 93Q202 93 211 114Q220 135 220 165Z" glyph-name="uacute" horiz-adv-x="362" unicode="&#250;" /><glyph d="M220 443H339V0H220V49Q210 25 185.5 8.5Q161 -8 126 -8Q97 -8 77.5 2.5Q58 13 46 29.5Q34 46 29 67Q24 88 24 109V443H142V143Q142 93 177 93Q202 93 211 114Q220 135 220 165ZM181 475Q124 475 98.5 511.5Q73 548 73 608H148Q148 552 181 552Q215 552 215 608H290Q290 548 264 511.5Q238 475 181 475Z" glyph-name="ubreve" horiz-adv-x="362" unicode="&#365;" /><glyph d="M237 611 297 477H221L182 543L143 477H68L127 611ZM220 443H339V0H220V49Q210 25 185.5 8.5Q161 -8 126 -8Q97 -8 77.5 2.5Q58 13 46 29.5Q34 46 29 67Q24 88 24 109V443H142V143Q142 93 177 93Q202 93 211 114Q220 135 220 165Z" glyph-name="ucircumflex" horiz-adv-x="362" unicode="&#251;" /><glyph d="M74 603H170V487H74ZM195 603H290V487H195ZM220 443H339V0H220V49Q210 25 185.5 8.5Q161 -8 126 -8Q97 -8 77.5 2.5Q58 13 46 29.5Q34 46 29 67Q24 88 24 109V443H142V143Q142 93 177 93Q202 93 211 114Q220 135 220 165Z" glyph-name="udieresis" horiz-adv-x="362" unicode="&#252;" /><glyph d="M220 443H339V0H220V49Q210 25 185.5 8.5Q161 -8 126 -8Q97 -8 77.5 2.5Q58 13 46 29.5Q34 46 29 67Q24 88 24 109V443H142V143Q142 93 177 93Q202 93 211 114Q220 135 220 165ZM147 483 60 620H183L228 483Z" glyph-name="ugrave" horiz-adv-x="362" unicode="&#249;" /><glyph d="M220 443H339V0H220V49Q210 25 185.5 8.5Q161 -8 126 -8Q97 -8 77.5 2.5Q58 13 46 29.5Q34 46 29 67Q24 88 24 109V443H142V143Q142 93 177 93Q202 93 211 114Q220 135 220 165ZM82 483 111 623H218L148 483ZM202 483 231 623H339L269 483Z" glyph-name="uhungarumlaut" horiz-adv-x="362" unicode="&#369;" /><glyph d="M220 443H339V0H220V49Q210 25 185.5 8.5Q161 -8 126 -8Q97 -8 77.5 2.5Q58 13 46 29.5Q34 46 29 67Q24 88 24 109V443H142V143Q142 93 177 93Q202 93 211 114Q220 135 220 165ZM86 572H277V489H86Z" glyph-name="umacron" horiz-adv-x="362" unicode="&#363;" /><glyph d="M14 -36H264V-140H14Z" glyph-name="underscore" horiz-adv-x="278" unicode="_" /><glyph d="M203 133Q220 128 230.5 113Q241 98 241 75Q241 37 216 15.5Q191 -6 145 -6Q103 -6 76.5 17Q50 40 48 79L112 91Q114 69 123 60.5Q132 52 145 52Q159 52 165 60.5Q171 69 171 82Q171 111 143 111Q141 111 135.5 111Q130 111 125 110V157Q130 156 135.5 156Q141 156 143 156Q170 156 170 186Q170 198 164 205.5Q158 213 145 213Q119 213 113 176L49 185Q54 223 78.5 247Q103 271 145 271Q191 271 215.5 249.5Q240 228 240 191Q240 144 203 133ZM67 589Q90 589 104 598Q118 607 123 630H182V362H108V541H67ZM20 336H278V296H20Z" glyph-name="uni2153" horiz-adv-x="298" unicode="&#8531;" /><glyph d="M240 191Q240 144 203 133Q220 128 230.5 113Q241 98 241 75Q241 37 216 15.5Q191 -6 145 -6Q103 -6 76.5 17Q50 40 48 79L112 91Q114 69 123 60.5Q132 52 145 52Q159 52 165 60.5Q171 69 171 82Q171 111 143 111Q141 111 135.5 111Q130 111 125 110V157Q130 156 135.5 156Q141 156 143 156Q170 156 170 186Q170 198 164 205.5Q158 213 145 213Q119 213 113 176L49 185Q54 223 78.5 247Q103 271 145 271Q191 271 215.5 249.5Q240 228 240 191ZM245 550Q245 506 200 467L150 423H244V362H55V414L128 486Q150 507 161 520.5Q172 534 172 550Q172 572 152 572Q140 572 131 560.5Q122 549 120 528L52 541Q53 559 60.5 575.5Q68 592 80.5 605Q93 618 111 626Q129 634 152 634Q197 634 221 610Q245 586 245 550ZM20 336H278V296H20Z" glyph-name="uni2154" horiz-adv-x="298" unicode="&#8532;" /><glyph d="M149 159Q177 159 177 187Q177 216 149 216Q121 216 121 187Q121 159 149 159ZM149 52Q180 52 180 80Q180 109 149 109Q117 109 117 80Q117 52 149 52ZM67 589Q90 589 104 598Q118 607 123 630H182V362H108V541H67ZM149 -5Q104 -5 75.5 16.5Q47 38 47 76Q47 99 58 113.5Q69 128 87 134Q70 139 60 155Q50 171 50 192Q50 230 76.5 251.5Q103 273 149 273Q194 273 220.5 251.5Q247 230 247 192Q247 171 237.5 155Q228 139 211 134Q228 128 239.5 113.5Q251 99 251 76Q251 38 222.5 16.5Q194 -5 149 -5ZM20 336H278V296H20Z" glyph-name="uni215B" horiz-adv-x="298" unicode="&#8539;" /><glyph d="M241 554Q241 507 204 496Q221 490 231.5 475.5Q242 461 242 438Q242 400 216.5 378.5Q191 357 146 357Q104 357 77.5 380Q51 403 49 442L113 454Q115 432 124 423.5Q133 415 146 415Q160 415 166 423Q172 431 172 445Q172 473 144 473Q141 473 136 473Q131 473 126 472V520Q131 519 136 519Q141 519 144 519Q171 519 171 549Q171 560 165 568Q159 576 145 576Q120 576 114 539L50 548Q55 586 79 610Q103 634 145 634Q192 634 216.5 612.5Q241 591 241 554ZM149 159Q177 159 177 187Q177 216 149 216Q121 216 121 187Q121 159 149 159ZM149 52Q180 52 180 80Q180 109 149 109Q117 109 117 80Q117 52 149 52ZM149 -5Q104 -5 75.5 16.5Q47 38 47 76Q47 99 58 113.5Q69 128 87 134Q70 139 60 155Q50 171 50 192Q50 230 76.5 251.5Q103 273 149 273Q194 273 220.5 251.5Q247 230 247 192Q247 171 237.5 155Q228 139 211 134Q228 128 239.5 113.5Q251 99 251 76Q251 38 222.5 16.5Q194 -5 149 -5ZM20 335H278V295H20Z" glyph-name="uni215C" horiz-adv-x="298" unicode="&#8540;" /><glyph d="M148 489Q129 489 122 472L53 478Q55 493 57.5 512.5Q60 532 62 552.5Q64 573 66 593Q68 613 68 630H231V568H120Q120 560 119 546Q118 532 116 526Q121 533 135 538Q149 543 166 543Q201 543 224 521.5Q247 500 247 454Q247 409 220.5 383Q194 357 147 357Q105 357 79 379Q53 401 47 436L114 452Q116 435 124.5 424.5Q133 414 147 414Q176 414 176 452Q176 469 169.5 479Q163 489 148 489ZM149 159Q177 159 177 187Q177 216 149 216Q121 216 121 187Q121 159 149 159ZM149 52Q180 52 180 80Q180 109 149 109Q117 109 117 80Q117 52 149 52ZM149 -5Q104 -5 75.5 16.5Q47 38 47 76Q47 99 58 113.5Q69 128 87 134Q70 139 60 155Q50 171 50 192Q50 230 76.5 251.5Q103 273 149 273Q194 273 220.5 251.5Q247 230 247 192Q247 171 237.5 155Q228 139 211 134Q228 128 239.5 113.5Q251 99 251 76Q251 38 222.5 16.5Q194 -5 149 -5ZM20 335H278V295H20Z" glyph-name="uni215D" horiz-adv-x="298" unicode="&#8541;" /><glyph d="M149 159Q177 159 177 187Q177 216 149 216Q121 216 121 187Q121 159 149 159ZM149 52Q180 52 180 80Q180 109 149 109Q117 109 117 80Q117 52 149 52ZM149 -5Q104 -5 75.5 16.5Q47 38 47 76Q47 99 58 113.5Q69 128 87 134Q70 139 60 155Q50 171 50 192Q50 230 76.5 251.5Q103 273 149 273Q194 273 220.5 251.5Q247 230 247 192Q247 171 237.5 155Q228 139 211 134Q228 128 239.5 113.5Q251 99 251 76Q251 38 222.5 16.5Q194 -5 149 -5ZM55 564V630H243V572Q208 525 193 476Q178 427 178 362H97Q98 427 117.5 473.5Q137 520 168 564ZM20 335H278V295H20Z" glyph-name="uni215E" horiz-adv-x="298" unicode="&#8542;" /><glyph d="M220 0V49Q210 25 185.5 8.5Q161 -8 126 -8Q97 -8 77.5 2.5Q58 13 46 29.5Q34 46 29 67Q24 88 24 109V443H142V143Q142 93 177 93Q202 93 211 114Q220 135 220 165V443H339V0Q312 -20 300.5 -37Q289 -54 289 -70Q289 -95 314 -95Q326 -95 341 -88V-153Q321 -168 286 -168Q257 -168 235 -150.5Q213 -133 213 -95Q213 -66 226.5 -43.5Q240 -21 262 0Z" glyph-name="uogonek" horiz-adv-x="362" unicode="&#371;" /><glyph d="M146 558Q146 521 182 521Q218 521 218 558Q218 574 209 584Q200 594 182 594Q164 594 155 584Q146 574 146 558ZM93 558Q93 594 117 618.5Q141 643 182 643Q223 643 247 618.5Q271 594 271 558Q271 520 247 496Q223 472 182 472Q141 472 117 496Q93 520 93 558ZM220 443H339V0H220V49Q210 25 185.5 8.5Q161 -8 126 -8Q97 -8 77.5 2.5Q58 13 46 29.5Q34 46 29 67Q24 88 24 109V443H142V143Q142 93 177 93Q202 93 211 114Q220 135 220 165Z" glyph-name="uring" horiz-adv-x="362" unicode="&#367;" /><glyph d="M220 443H339V0H220V49Q210 25 185.5 8.5Q161 -8 126 -8Q97 -8 77.5 2.5Q58 13 46 29.5Q34 46 29 67Q24 88 24 109V443H142V143Q142 93 177 93Q202 93 211 114Q220 135 220 165ZM60 483Q60 542 74.5 578Q89 614 126 614Q141 614 154.5 607Q168 600 179.5 592Q191 584 201.5 577Q212 570 222 570Q241 570 243 611H304Q304 551 289.5 515.5Q275 480 238 480Q223 480 209.5 487Q196 494 184.5 502Q173 510 162.5 517Q152 524 142 524Q123 524 121 483Z" glyph-name="utilde" horiz-adv-x="362" unicode="&#361;" /><glyph d="M118 0 0 443H115L177 186H181L238 443H344L230 0Z" glyph-name="v" horiz-adv-x="344" unicode="v" /><glyph d="M348 197H352L400 443H502L407 0H299L253 271H249L203 0H95L0 443H111L160 196H164L208 443H303Z" glyph-name="w" horiz-adv-x="502" unicode="w" /><glyph d="M207 483 253 620H375L288 483ZM348 197H352L400 443H502L407 0H299L253 271H249L203 0H95L0 443H111L160 196H164L208 443H303Z" glyph-name="wacute" horiz-adv-x="502" unicode="&#7811;" /><glyph d="M306 611 366 477H290L251 543L212 477H137L196 611ZM348 197H352L400 443H502L407 0H299L253 271H249L203 0H95L0 443H111L160 196H164L208 443H303Z" glyph-name="wcircumflex" horiz-adv-x="502" unicode="&#373;" /><glyph d="M143 603H239V487H143ZM264 603H359V487H264ZM348 197H352L400 443H502L407 0H299L253 271H249L203 0H95L0 443H111L160 196H164L208 443H303Z" glyph-name="wdieresis" horiz-adv-x="502" unicode="&#7813;" /><glyph d="M348 197H352L400 443H502L407 0H299L253 271H249L203 0H95L0 443H111L160 196H164L208 443H303ZM217 483 130 620H253L298 483Z" glyph-name="wgrave" horiz-adv-x="502" unicode="&#7809;" /><glyph d="M237 228 359 0H237L174 126L113 0H-3L118 223L2 443H124L181 321L238 443H354Z" glyph-name="x" horiz-adv-x="356" unicode="x" /><glyph d="M0 443H116L178 177H182L245 443H349L191 -162H80L121 -12Z" glyph-name="y" horiz-adv-x="349" unicode="y" /><glyph d="M0 443H116L178 177H182L245 443H349L191 -162H80L121 -12ZM130 483 176 620H298L211 483Z" glyph-name="yacute" horiz-adv-x="349" unicode="&#253;" /><glyph d="M0 443H116L178 177H182L245 443H349L191 -162H80L121 -12ZM230 611 290 477H214L175 543L136 477H61L120 611Z" glyph-name="ycircumflex" horiz-adv-x="349" unicode="&#375;" /><glyph d="M0 443H116L178 177H182L245 443H349L191 -162H80L121 -12ZM67 603H163V487H67ZM188 603H283V487H188Z" glyph-name="ydieresis" horiz-adv-x="349" unicode="&#255;" /><glyph d="M44 331H113L0 630H125L205 389L280 630H400L286 331H356V253H257V208H356V130H257V0H143V130H44V208H143V253H44Z" glyph-name="yen" horiz-adv-x="400" unicode="&#165;" /><glyph d="M0 443H116L178 177H182L245 443H349L191 -162H80L121 -12ZM141 483 54 620H177L222 483Z" glyph-name="ygrave" horiz-adv-x="349" unicode="&#7923;" /><glyph d="M19 356V443H287V363L141 87H290V0H15V81L162 356Z" glyph-name="z" horiz-adv-x="305" unicode="z" /><glyph d="M114 483 160 620H282L195 483ZM19 356V443H287V363L141 87H290V0H15V81L162 356Z" glyph-name="zacute" horiz-adv-x="305" unicode="&#378;" /><glyph d="M104 481 45 614H120L159 549L198 614H274L214 481ZM19 356V443H287V363L141 87H290V0H15V81L162 356Z" glyph-name="zcaron" horiz-adv-x="305" unicode="&#382;" /><glyph d="M19 356V443H287V363L141 87H290V0H15V81L162 356ZM101 621H219V497H101Z" glyph-name="zdotaccent" horiz-adv-x="305" unicode="&#380;" /><glyph d="M390 276Q390 141 347 66.5Q304 -8 203 -8Q101 -8 58 66.5Q15 141 15 276V354Q15 489 58 563.5Q101 638 203 638Q304 638 347 563.5Q390 489 390 354ZM143 214Q143 159 155 126Q167 93 203 93Q239 93 251 126Q263 159 263 214V416Q263 471 251 504Q239 537 203 537Q167 537 155 504Q143 471 143 416Z" glyph-name="zero" horiz-adv-x="406" unicode="0" /></font>
</defs>
</svg>
