<?xml version="1.0" standalone="no"?><!DOCTYPE svg PUBLIC "-//W3C//DTD SVG 1.1//EN" "http://www.w3.org/Graphics/SVG/1.1/DTD/svg11.dtd" ><svg version="1.1" xmlns="http://www.w3.org/2000/svg"><defs><font horiz-adv-x="0" id="font"><font-face ascent="766" bbox="-39 -176 705 898" cap-height="630" descent="-234" font-family="Copyright Klim Type Foundry" font-stretch="extra-condensed" font-style="normal" font-weight="500" units-per-em="1000" x-height="439" /><missing-glyph horiz-adv-x="608" /><glyph glyph-name=".null" horiz-adv-x="0" /><glyph d="M241 630 371 0H278L246 169H118L86 0H0L130 630ZM133 243H232L185 493H181Z" glyph-name="A" horiz-adv-x="371" unicode="A" /><glyph d="M239 0V174H137L89 0H0L179 630H490V553H329V363H450V286H329V77H495V0ZM235 532 157 247H239V532Z" glyph-name="AE" horiz-adv-x="510" unicode="&#198;" /><glyph d="M285 661 324 791H420L342 661ZM239 0V174H137L89 0H0L179 630H490V553H329V363H450V286H329V77H495V0ZM235 532 157 247H239V532Z" glyph-name="AEacute" horiz-adv-x="510" unicode="&#508;" /><glyph d="M241 630 371 0H278L246 169H118L86 0H0L130 630ZM133 243H232L185 493H181ZM155 661 194 791H290L212 661Z" glyph-name="Aacute" horiz-adv-x="371" unicode="&#193;" /><glyph d="M241 630 371 0H278L246 169H118L86 0H0L130 630ZM133 243H232L185 493H181ZM185 655Q135 655 114 688Q93 721 93 783H151Q151 751 158 733Q165 715 185 715Q206 715 213 733Q220 751 220 783H279Q279 721 257.5 688Q236 655 185 655Z" glyph-name="Abreve" horiz-adv-x="371" unicode="&#258;" /><glyph d="M241 630 371 0H278L246 169H118L86 0H0L130 630ZM133 243H232L185 493H181ZM228 783 285 655H228L185 728L142 655H85L141 783Z" glyph-name="Acircumflex" horiz-adv-x="371" unicode="&#194;" /><glyph d="M241 630 371 0H278L246 169H118L86 0H0L130 630ZM133 243H232L185 493H181ZM98 763H172V666H98ZM198 763H273V666H198Z" glyph-name="Adieresis" horiz-adv-x="371" unicode="&#196;" /><glyph d="M241 630 371 0H278L246 169H118L86 0H0L130 630ZM133 243H232L185 493H181ZM163 661 84 791H180L219 661Z" glyph-name="Agrave" horiz-adv-x="371" unicode="&#192;" /><glyph d="M241 630 371 0H278L246 169H118L86 0H0L130 630ZM133 243H232L185 493H181ZM101 735H269V670H101Z" glyph-name="Amacron" horiz-adv-x="371" unicode="&#256;" /><glyph d="M241 630 371 0H332Q308 -27 299.5 -44.5Q291 -62 291 -81Q291 -96 299 -103.5Q307 -111 319 -111Q332 -111 345 -106V-157Q328 -170 298 -170Q269 -170 249.5 -152Q230 -134 230 -99Q230 -70 243.5 -46Q257 -22 278 0L246 169H119L86 0H0L130 630ZM133 243H232L185 493H181Z" glyph-name="Aogonek" horiz-adv-x="371" unicode="&#260;" /><glyph d="M241 630 371 0H278L246 169H118L86 0H0L130 630ZM133 243H232L185 493H181ZM150 728Q150 711 159 701Q168 691 185 691Q202 691 211 701Q220 711 220 728Q220 745 211 755Q202 765 185 765Q168 765 159 755Q150 745 150 728ZM105 728Q105 762 127 783.5Q149 805 185 805Q221 805 243 783.5Q265 762 265 728Q265 695 243 673Q221 651 185 651Q149 651 127 673Q105 695 105 728Z" glyph-name="Aring" horiz-adv-x="371" unicode="&#197;" /><glyph d="M182 898H284L218 803H153ZM184 683Q202 683 211 692Q220 701 220 716Q220 731 211 740Q202 749 184 749Q167 749 158 740Q149 731 149 716Q149 701 158 692Q167 683 184 683ZM104 716Q104 746 125.5 767Q147 788 184 788Q222 788 243.5 767Q265 746 265 716Q265 686 243.5 665Q222 644 184 644Q147 644 125.5 665Q104 686 104 716ZM241 630 371 0H278L246 169H118L86 0H0L130 630ZM133 243H232L185 493H181Z" glyph-name="Aringacute" horiz-adv-x="371" unicode="&#506;" /><glyph d="M241 630 371 0H278L246 169H118L86 0H0L130 630ZM133 243H232L185 493H181ZM80 664Q80 720 92.5 753Q105 786 138 786Q152 786 164 777.5Q176 769 186.5 759Q197 749 206 740.5Q215 732 224 732Q234 732 238 745.5Q242 759 243 783H291Q291 727 278.5 694Q266 661 233 661Q219 661 207 669.5Q195 678 184.5 688Q174 698 165 706.5Q156 715 147 715Q137 715 133 701.5Q129 688 128 664Z" glyph-name="Atilde" horiz-adv-x="371" unicode="&#195;" /><glyph d="M345 175Q345 91 304 45.5Q263 0 165 0H29V630H160Q211 630 244 618Q277 606 297 584Q317 562 325 531.5Q333 501 333 464Q333 407 305.5 370.5Q278 334 232 326Q288 316 316.5 277.5Q345 239 345 175ZM119 288V76H160Q216 76 235.5 103Q255 130 255 182Q255 232 235 260Q215 288 160 288ZM119 360H156Q183 360 200.5 366.5Q218 373 228 385.5Q238 398 241.5 416Q245 434 245 456Q245 478 241.5 496Q238 514 228 527Q218 540 200.5 547.5Q183 555 156 555H119Z" glyph-name="B" horiz-adv-x="360" unicode="B" /><glyph d="M20 363Q20 496 59 567Q98 638 184 638Q255 638 289 586.5Q323 535 327 447L246 431Q244 488 231 525Q218 562 183 562Q145 562 130 520Q115 478 115 405V225Q115 152 130 110Q145 68 183 68Q218 68 231 105Q244 142 246 199L327 183Q323 95 289 43.5Q255 -8 184 -8Q98 -8 59 63Q20 134 20 267Z" glyph-name="C" horiz-adv-x="356" unicode="C" /><glyph d="M20 363Q20 496 59 567Q98 638 184 638Q255 638 289 586.5Q323 535 327 447L246 431Q244 488 231 525Q218 562 183 562Q145 562 130 520Q115 478 115 405V225Q115 152 130 110Q145 68 183 68Q218 68 231 105Q244 142 246 199L327 183Q323 95 289 43.5Q255 -8 184 -8Q98 -8 59 63Q20 134 20 267ZM157 661 196 791H292L214 661Z" glyph-name="Cacute" horiz-adv-x="356" unicode="&#262;" /><glyph d="M20 363Q20 496 59 567Q98 638 184 638Q255 638 289 586.5Q323 535 327 447L246 431Q244 488 231 525Q218 562 183 562Q145 562 130 520Q115 478 115 405V225Q115 152 130 110Q145 68 183 68Q218 68 231 105Q244 142 246 199L327 183Q323 95 289 43.5Q255 -8 184 -8Q98 -8 59 63Q20 134 20 267ZM143 659 87 786H144L187 714L230 786H287L230 659Z" glyph-name="Ccaron" horiz-adv-x="356" unicode="&#268;" /><glyph d="M265 -101Q265 -137 242.5 -154.5Q220 -172 187 -172Q163 -172 142 -163.5Q121 -155 108 -141L124 -99Q135 -111 150 -119Q165 -127 182 -127Q210 -127 210 -103Q210 -84 190 -76.5Q170 -69 141 -69L165 -7Q88 0 54 70Q20 140 20 267V363Q20 496 59 567Q98 638 184 638Q255 638 289 586.5Q323 535 327 447L246 431Q244 488 231 525Q218 562 183 562Q145 562 130 520Q115 478 115 405V225Q115 152 130 110Q145 68 183 68Q218 68 231 105Q244 142 246 199L327 183Q323 100 293 50Q263 0 202 -7L192 -32Q205 -33 218 -37.5Q231 -42 241.5 -50Q252 -58 258.5 -70.5Q265 -83 265 -101Z" glyph-name="Ccedilla" horiz-adv-x="356" unicode="&#199;" /><glyph d="M20 363Q20 496 59 567Q98 638 184 638Q255 638 289 586.5Q323 535 327 447L246 431Q244 488 231 525Q218 562 183 562Q145 562 130 520Q115 478 115 405V225Q115 152 130 110Q145 68 183 68Q218 68 231 105Q244 142 246 199L327 183Q323 95 289 43.5Q255 -8 184 -8Q98 -8 59 63Q20 134 20 267ZM230 783 287 655H230L187 728L144 655H87L143 783Z" glyph-name="Ccircumflex" horiz-adv-x="356" unicode="&#264;" /><glyph d="M143 772H231V669H143ZM20 363Q20 496 59 567Q98 638 184 638Q255 638 289 586.5Q323 535 327 447L246 431Q244 488 231 525Q218 562 183 562Q145 562 130 520Q115 478 115 405V225Q115 152 130 110Q145 68 183 68Q218 68 231 105Q244 142 246 199L327 183Q323 95 289 43.5Q255 -8 184 -8Q98 -8 59 63Q20 134 20 267Z" glyph-name="Cdotaccent" horiz-adv-x="356" unicode="&#266;" /><glyph d="M252 388Q252 481 232 518.5Q212 556 161 556H122V74H161Q212 74 232 111.5Q252 149 252 242ZM346 261Q346 127 306 63.5Q266 0 171 0H29V630H171Q266 630 306 566.5Q346 503 346 369Z" glyph-name="D" horiz-adv-x="366" unicode="D" /><glyph d="M130 659 74 786H131L174 714L217 786H274L217 659ZM252 388Q252 481 232 518.5Q212 556 161 556H122V74H161Q212 74 232 111.5Q252 149 252 242ZM346 261Q346 127 306 63.5Q266 0 171 0H29V630H171Q266 630 306 566.5Q346 503 346 369Z" glyph-name="Dcaron" horiz-adv-x="366" unicode="&#270;" /><glyph d="M4 363H33V630H175Q270 630 310 566.5Q350 503 350 369V261Q350 127 310 63.5Q270 0 175 0H33V286H4ZM257 388Q257 481 236.5 518.5Q216 556 165 556H126V363H175V286H126V74H165Q216 74 236.5 111.5Q257 149 257 242Z" glyph-name="Dcroat" horiz-adv-x="370" unicode="&#272;" /><glyph d="M291 0H29V630H287V553H119V363H247V286H119V77H291Z" glyph-name="E" horiz-adv-x="307" unicode="E" /><glyph d="M130 661 169 791H265L187 661ZM291 0H29V630H287V553H119V363H247V286H119V77H291Z" glyph-name="Eacute" horiz-adv-x="307" unicode="&#201;" /><glyph d="M160 655Q110 655 89 688Q68 721 68 783H126Q126 751 133 733Q140 715 160 715Q181 715 188 733Q195 751 195 783H254Q254 721 232.5 688Q211 655 160 655ZM291 0H29V630H287V553H119V363H247V286H119V77H291Z" glyph-name="Ebreve" horiz-adv-x="307" unicode="&#276;" /><glyph d="M116 659 60 786H117L160 714L203 786H260L203 659ZM291 0H29V630H287V553H119V363H247V286H119V77H291Z" glyph-name="Ecaron" horiz-adv-x="307" unicode="&#282;" /><glyph d="M291 0H29V630H287V553H119V363H247V286H119V77H291ZM203 783 260 655H203L160 728L117 655H60L116 783Z" glyph-name="Ecircumflex" horiz-adv-x="307" unicode="&#202;" /><glyph d="M73 763H147V666H73ZM173 763H248V666H173ZM291 0H29V630H287V553H119V363H247V286H119V77H291Z" glyph-name="Edieresis" horiz-adv-x="307" unicode="&#203;" /><glyph d="M117 772H205V669H117ZM291 0H29V630H287V553H119V363H247V286H119V77H291Z" glyph-name="Edotaccent" horiz-adv-x="307" unicode="&#278;" /><glyph d="M138 661 59 791H155L194 661ZM291 0H29V630H287V553H119V363H247V286H119V77H291Z" glyph-name="Egrave" horiz-adv-x="307" unicode="&#200;" /><glyph d="M76 735H244V670H76ZM291 0H29V630H287V553H119V363H247V286H119V77H291Z" glyph-name="Emacron" horiz-adv-x="307" unicode="&#274;" /><glyph d="M119 425H115V0H29V630H115L267 240H271V630H357V2Q357 -78 322.5 -119.5Q288 -161 228 -161Q190 -161 160.5 -143.5Q131 -126 114 -94L157 -40Q181 -84 221 -84Q250 -84 262 -62Q274 -40 274 -2V34Z" glyph-name="Eng" horiz-adv-x="385" unicode="&#330;" /><glyph d="M291 0H258Q234 -27 225.5 -44.5Q217 -62 217 -81Q217 -96 225 -103.5Q233 -111 245 -111Q258 -111 271 -106V-157Q254 -170 225 -170Q196 -170 176 -152Q156 -134 156 -99Q156 -70 169.5 -46Q183 -22 204 0H29V630H287V553H119V363H247V286H119V77H291Z" glyph-name="Eogonek" horiz-adv-x="307" unicode="&#280;" /><glyph d="M4 363H33V630H175Q270 630 310 566.5Q350 503 350 369V261Q350 127 310 63.5Q270 0 175 0H33V286H4ZM257 388Q257 481 236.5 518.5Q216 556 165 556H126V363H175V286H126V74H165Q216 74 236.5 111.5Q257 149 257 242Z" glyph-name="Eth" horiz-adv-x="370" unicode="&#208;" /><glyph d="M10 387H51Q55 509 93.5 573.5Q132 638 216 638Q287 638 321 586.5Q355 535 359 447L278 431Q277 459 273.5 483Q270 507 263 524.5Q256 542 244.5 552Q233 562 215 562Q177 562 162 520Q147 478 147 405V387H236L226 331H147V292H217L207 236H147V225Q147 152 162 110Q177 68 215 68Q233 68 244.5 78Q256 88 263 105.5Q270 123 273.5 147Q277 171 278 199L359 183Q355 95 321 43.5Q287 -8 216 -8Q134 -8 95 54.5Q56 117 51 236H10V292H51V331H10Z" glyph-name="Euro" horiz-adv-x="391" unicode="&#8364;" /><glyph d="M29 0V630H279V553H121V350H240V274H121V0Z" glyph-name="F" horiz-adv-x="290" unicode="F" /><glyph d="M115 405V230Q115 157 130 113Q145 69 185 69Q226 69 240 110.5Q254 152 254 227V247H195V319H341V0H279L270 67Q261 29 232.5 10.5Q204 -8 169 -8Q91 -8 55.5 62.5Q20 133 20 267V363Q20 496 60.5 567Q101 638 188 638Q259 638 295.5 586.5Q332 535 336 447L255 431Q253 488 237 525Q221 562 186 562Q148 562 131.5 520Q115 478 115 405Z" glyph-name="G" horiz-adv-x="367" unicode="G" /><glyph d="M187 655Q137 655 116 688Q95 721 95 783H153Q153 751 160 733Q167 715 187 715Q208 715 215 733Q222 751 222 783H281Q281 721 259.5 688Q238 655 187 655ZM115 405V230Q115 157 130 113Q145 69 185 69Q226 69 240 110.5Q254 152 254 227V247H195V319H341V0H279L270 67Q261 29 232.5 10.5Q204 -8 169 -8Q91 -8 55.5 62.5Q20 133 20 267V363Q20 496 60.5 567Q101 638 188 638Q259 638 295.5 586.5Q332 535 336 447L255 431Q253 488 237 525Q221 562 186 562Q148 562 131.5 520Q115 478 115 405Z" glyph-name="Gbreve" horiz-adv-x="367" unicode="&#286;" /><glyph d="M115 405V230Q115 157 130 113Q145 69 185 69Q226 69 240 110.5Q254 152 254 227V247H195V319H341V0H279L270 67Q261 29 232.5 10.5Q204 -8 169 -8Q91 -8 55.5 62.5Q20 133 20 267V363Q20 496 60.5 567Q101 638 188 638Q259 638 295.5 586.5Q332 535 336 447L255 431Q253 488 237 525Q221 562 186 562Q148 562 131.5 520Q115 478 115 405ZM231 783 288 655H231L188 728L145 655H88L144 783Z" glyph-name="Gcircumflex" horiz-adv-x="367" unicode="&#284;" /><glyph d="M143 -35H230V-89Q230 -126 211.5 -148.5Q193 -171 143 -171V-137Q163 -137 170.5 -129.5Q178 -122 179 -102H143ZM115 405V230Q115 157 130 113Q145 69 185 69Q226 69 240 110.5Q254 152 254 227V247H195V319H341V0H279L270 67Q261 29 232.5 10.5Q204 -8 169 -8Q91 -8 55.5 62.5Q20 133 20 267V363Q20 496 60.5 567Q101 638 188 638Q259 638 295.5 586.5Q332 535 336 447L255 431Q253 488 237 525Q221 562 186 562Q148 562 131.5 520Q115 478 115 405Z" glyph-name="Gcommaaccent" horiz-adv-x="367" unicode="&#290;" /><glyph d="M144 772H232V669H144ZM115 405V230Q115 157 130 113Q145 69 185 69Q226 69 240 110.5Q254 152 254 227V247H195V319H341V0H279L270 67Q261 29 232.5 10.5Q204 -8 169 -8Q91 -8 55.5 62.5Q20 133 20 267V363Q20 496 60.5 567Q101 638 188 638Q259 638 295.5 586.5Q332 535 336 447L255 431Q253 488 237 525Q221 562 186 562Q148 562 131.5 520Q115 478 115 405Z" glyph-name="Gdotaccent" horiz-adv-x="367" unicode="&#288;" /><glyph d="M29 0V630H122V363H265V630H358V0H265V286H122V0Z" glyph-name="H" horiz-adv-x="387" unicode="H" /><glyph d="M4 525H33V630H126V525H270V630H363V525H392V451H363V0H270V275H126V0H33V451H4ZM270 349V451H126V349Z" glyph-name="Hbar" horiz-adv-x="396" unicode="&#294;" /><glyph d="M29 0V630H122V363H265V630H358V0H265V286H122V0ZM236 783 293 655H236L193 728L150 655H93L149 783Z" glyph-name="Hcircumflex" horiz-adv-x="387" unicode="&#292;" /><glyph d="M122 630V0H29V630Z" glyph-name="I" horiz-adv-x="150" unicode="I" /><glyph d="M122 630V0H29V630ZM224 175Q229 124 244.5 96.5Q260 69 289 69Q324 69 336.5 96.5Q349 124 349 177V630H443V176Q443 137 435 103.5Q427 70 409.5 45Q392 20 363 6Q334 -8 292 -8Q256 -8 229 4.5Q202 17 183.5 39.5Q165 62 155 92Q145 122 142 157Z" glyph-name="IJ" horiz-adv-x="479" unicode="&#306;" /><glyph d="M122 630V0H29V630ZM46 661 85 791H181L103 661Z" glyph-name="Iacute" horiz-adv-x="150" unicode="&#205;" /><glyph d="M122 630V0H29V630ZM76 655Q26 655 5 688Q-16 721 -16 783H42Q42 751 49 733Q56 715 76 715Q97 715 104 733Q111 751 111 783H170Q170 721 148.5 688Q127 655 76 655Z" glyph-name="Ibreve" horiz-adv-x="150" unicode="&#300;" /><glyph d="M122 630V0H29V630ZM119 783 176 655H119L76 728L33 655H-24L32 783Z" glyph-name="Icircumflex" horiz-adv-x="150" unicode="&#206;" /><glyph d="M122 630V0H29V630ZM-11 763H63V666H-11ZM89 763H164V666H89Z" glyph-name="Idieresis" horiz-adv-x="150" unicode="&#207;" /><glyph d="M122 630V0H29V630ZM33 772H121V669H33Z" glyph-name="Idotaccent" horiz-adv-x="150" unicode="&#304;" /><glyph d="M122 630V0H29V630ZM53 661 -26 791H70L109 661Z" glyph-name="Igrave" horiz-adv-x="150" unicode="&#204;" /><glyph d="M122 630V0H29V630ZM-8 735H160V670H-8Z" glyph-name="Imacron" horiz-adv-x="150" unicode="&#298;" /><glyph d="M122 630V0Q94 -25 84 -43.5Q74 -62 74 -81Q74 -96 82 -103.5Q90 -111 102 -111Q115 -111 128 -106V-157Q111 -170 81 -170Q54 -170 34 -152Q14 -134 14 -99Q14 -69 27.5 -45.5Q41 -22 61 0H29V630Z" glyph-name="Iogonek" horiz-adv-x="150" unicode="&#302;" /><glyph d="M122 630V0H29V630ZM-29 664Q-29 720 -16.5 753Q-4 786 29 786Q43 786 55 777.5Q67 769 77.5 759Q88 749 97 740.5Q106 732 115 732Q125 732 129 745.5Q133 759 134 783H182Q182 727 169.5 694Q157 661 124 661Q110 661 98 669.5Q86 678 75.5 688Q65 698 56 706.5Q47 715 38 715Q28 715 24 701.5Q20 688 19 664Z" glyph-name="Itilde" horiz-adv-x="150" unicode="&#296;" /><glyph d="M89 175Q94 124 109.5 96.5Q125 69 154 69Q189 69 201.5 96.5Q214 124 214 177V630H308V176Q308 137 300 103.5Q292 70 274.5 45Q257 20 228 6Q199 -8 157 -8Q121 -8 94 4.5Q67 17 48.5 39.5Q30 62 20 92Q10 122 7 157Z" glyph-name="J" horiz-adv-x="344" unicode="J" /><glyph d="M89 175Q94 124 109.5 96.5Q125 69 154 69Q189 69 201.5 96.5Q214 124 214 177V630H308V176Q308 137 300 103.5Q292 70 274.5 45Q257 20 228 6Q199 -8 157 -8Q121 -8 94 4.5Q67 17 48.5 39.5Q30 62 20 92Q10 122 7 157ZM314 783 371 655H314L271 728L228 655H171L227 783Z" glyph-name="Jcircumflex" horiz-adv-x="344" unicode="&#308;" /><glyph d="M259 0 160 264 122 174V0H29V630H122V315L255 630H349L227 351L356 0Z" glyph-name="K" horiz-adv-x="356" unicode="K" /><glyph d="M140 -35H227V-89Q227 -126 208.5 -148.5Q190 -171 140 -171V-137Q160 -137 167.5 -129.5Q175 -122 176 -102H140ZM259 0 160 264 122 174V0H29V630H122V315L255 630H349L227 351L356 0Z" glyph-name="Kcommaaccent" horiz-adv-x="356" unicode="&#310;" /><glyph d="M122 630V77H289V0H29V630Z" glyph-name="L" horiz-adv-x="300" unicode="L" /><glyph d="M46 661 85 791H181L103 661ZM122 630V77H289V0H29V630Z" glyph-name="Lacute" horiz-adv-x="300" unicode="&#313;" /><glyph d="M160 497 174 630H265L212 497ZM122 630V77H289V0H29V630Z" glyph-name="Lcaron" horiz-adv-x="300" unicode="&#317;" /><glyph d="M114 -35H201V-89Q201 -126 182.5 -148.5Q164 -171 114 -171V-137Q134 -137 141.5 -129.5Q149 -122 150 -102H114ZM122 630V77H289V0H29V630Z" glyph-name="Lcommaaccent" horiz-adv-x="300" unicode="&#315;" /><glyph d="M122 630V77H289V0H29V630ZM180.2981 337.6592H270.844V248.1104H180.2981Z" glyph-name="Ldot" horiz-adv-x="300" unicode="&#319;" /><glyph d="M4 290 33 307V630H126V349L214 400V321L126 270V77H293V0H33V227L4 210Z" glyph-name="Lslash" horiz-adv-x="300" unicode="&#321;" /><glyph d="M242 205H246L336 630H455V0H368V440H364L270 0H211L115 440H111V0H29V630H149Z" glyph-name="M" horiz-adv-x="483" unicode="M" /><glyph d="M271 630H357V0H286L119 425H115V0H29V630H115L267 240H271Z" glyph-name="N" horiz-adv-x="385" unicode="N" /><glyph d="M163 661 202 791H298L220 661ZM271 630H357V0H286L119 425H115V0H29V630H115L267 240H271Z" glyph-name="Nacute" horiz-adv-x="385" unicode="&#323;" /><glyph d="M149 659 93 786H150L193 714L236 786H293L236 659ZM271 630H357V0H286L119 425H115V0H29V630H115L267 240H271Z" glyph-name="Ncaron" horiz-adv-x="385" unicode="&#327;" /><glyph d="M148 -35H235V-89Q235 -126 216.5 -148.5Q198 -171 148 -171V-137Q168 -137 175.5 -129.5Q183 -122 184 -102H148ZM271 630H357V0H286L119 425H115V0H29V630H115L267 240H271Z" glyph-name="Ncommaaccent" horiz-adv-x="385" unicode="&#325;" /><glyph d="M87 664Q87 720 99.5 753Q112 786 145 786Q159 786 171 777.5Q183 769 193.5 759Q204 749 213 740.5Q222 732 231 732Q241 732 245 745.5Q249 759 250 783H298Q298 727 285.5 694Q273 661 240 661Q226 661 214 669.5Q202 678 191.5 688Q181 698 172 706.5Q163 715 154 715Q144 715 140 701.5Q136 688 135 664ZM271 630H357V0H286L119 425H115V0H29V630H115L267 240H271Z" glyph-name="Ntilde" horiz-adv-x="385" unicode="&#209;" /><glyph d="M350 269Q350 135 311.5 63.5Q273 -8 185 -8Q96 -8 58 64Q20 136 20 269V361Q20 494 58 566Q96 638 185 638Q273 638 311.5 566.5Q350 495 350 361ZM116 231Q116 194 119 164Q122 134 130 112.5Q138 91 151.5 79.5Q165 68 185 68Q225 68 239.5 112.5Q254 157 254 231V399Q254 436 251 466Q248 496 240 517.5Q232 539 218.5 550.5Q205 562 185 562Q165 562 151.5 550.5Q138 539 130 517.5Q122 496 119 466Q116 436 116 399Z" glyph-name="O" horiz-adv-x="370" unicode="O" /><glyph d="M201 0Q106 0 63 63.5Q20 127 20 261V369Q20 503 63 566.5Q106 630 201 630H485V553H329V363H445V286H329V77H489V0ZM114 242Q114 149 137 111.5Q160 74 210 74H239V556H210Q160 556 137 518.5Q114 481 114 388Z" glyph-name="OE" horiz-adv-x="505" unicode="&#338;" /><glyph d="M155 661 194 791H290L212 661ZM350 269Q350 135 311.5 63.5Q273 -8 185 -8Q96 -8 58 64Q20 136 20 269V361Q20 494 58 566Q96 638 185 638Q273 638 311.5 566.5Q350 495 350 361ZM116 231Q116 194 119 164Q122 134 130 112.5Q138 91 151.5 79.5Q165 68 185 68Q225 68 239.5 112.5Q254 157 254 231V399Q254 436 251 466Q248 496 240 517.5Q232 539 218.5 550.5Q205 562 185 562Q165 562 151.5 550.5Q138 539 130 517.5Q122 496 119 466Q116 436 116 399Z" glyph-name="Oacute" horiz-adv-x="370" unicode="&#211;" /><glyph d="M185 655Q135 655 114 688Q93 721 93 783H151Q151 751 158 733Q165 715 185 715Q206 715 213 733Q220 751 220 783H279Q279 721 257.5 688Q236 655 185 655ZM350 269Q350 135 311.5 63.5Q273 -8 185 -8Q96 -8 58 64Q20 136 20 269V361Q20 494 58 566Q96 638 185 638Q273 638 311.5 566.5Q350 495 350 361ZM116 231Q116 194 119 164Q122 134 130 112.5Q138 91 151.5 79.5Q165 68 185 68Q225 68 239.5 112.5Q254 157 254 231V399Q254 436 251 466Q248 496 240 517.5Q232 539 218.5 550.5Q205 562 185 562Q165 562 151.5 550.5Q138 539 130 517.5Q122 496 119 466Q116 436 116 399Z" glyph-name="Obreve" horiz-adv-x="370" unicode="&#334;" /><glyph d="M350 269Q350 135 311.5 63.5Q273 -8 185 -8Q96 -8 58 64Q20 136 20 269V361Q20 494 58 566Q96 638 185 638Q273 638 311.5 566.5Q350 495 350 361ZM116 231Q116 194 119 164Q122 134 130 112.5Q138 91 151.5 79.5Q165 68 185 68Q225 68 239.5 112.5Q254 157 254 231V399Q254 436 251 466Q248 496 240 517.5Q232 539 218.5 550.5Q205 562 185 562Q165 562 151.5 550.5Q138 539 130 517.5Q122 496 119 466Q116 436 116 399ZM228 783 285 655H228L185 728L142 655H85L141 783Z" glyph-name="Ocircumflex" horiz-adv-x="370" unicode="&#212;" /><glyph d="M98 763H172V666H98ZM198 763H273V666H198ZM350 269Q350 135 311.5 63.5Q273 -8 185 -8Q96 -8 58 64Q20 136 20 269V361Q20 494 58 566Q96 638 185 638Q273 638 311.5 566.5Q350 495 350 361ZM116 231Q116 194 119 164Q122 134 130 112.5Q138 91 151.5 79.5Q165 68 185 68Q225 68 239.5 112.5Q254 157 254 231V399Q254 436 251 466Q248 496 240 517.5Q232 539 218.5 550.5Q205 562 185 562Q165 562 151.5 550.5Q138 539 130 517.5Q122 496 119 466Q116 436 116 399Z" glyph-name="Odieresis" horiz-adv-x="370" unicode="&#214;" /><glyph d="M163 661 84 791H180L219 661ZM350 269Q350 135 311.5 63.5Q273 -8 185 -8Q96 -8 58 64Q20 136 20 269V361Q20 494 58 566Q96 638 185 638Q273 638 311.5 566.5Q350 495 350 361ZM116 231Q116 194 119 164Q122 134 130 112.5Q138 91 151.5 79.5Q165 68 185 68Q225 68 239.5 112.5Q254 157 254 231V399Q254 436 251 466Q248 496 240 517.5Q232 539 218.5 550.5Q205 562 185 562Q165 562 151.5 550.5Q138 539 130 517.5Q122 496 119 466Q116 436 116 399Z" glyph-name="Ograve" horiz-adv-x="370" unicode="&#210;" /><glyph d="M350 269Q350 135 311.5 63.5Q273 -8 185 -8Q96 -8 58 64Q20 136 20 269V361Q20 494 58 566Q96 638 185 638Q273 638 311.5 566.5Q350 495 350 361ZM116 231Q116 194 119 164Q122 134 130 112.5Q138 91 151.5 79.5Q165 68 185 68Q225 68 239.5 112.5Q254 157 254 231V399Q254 436 251 466Q248 496 240 517.5Q232 539 218.5 550.5Q205 562 185 562Q165 562 151.5 550.5Q138 539 130 517.5Q122 496 119 466Q116 436 116 399ZM111 661 135 792H221L158 661ZM209 661 234 792H319L257 661Z" glyph-name="Ohungarumlaut" horiz-adv-x="370" unicode="&#336;" /><glyph d="M101 735H269V670H101ZM350 269Q350 135 311.5 63.5Q273 -8 185 -8Q96 -8 58 64Q20 136 20 269V361Q20 494 58 566Q96 638 185 638Q273 638 311.5 566.5Q350 495 350 361ZM116 231Q116 194 119 164Q122 134 130 112.5Q138 91 151.5 79.5Q165 68 185 68Q225 68 239.5 112.5Q254 157 254 231V399Q254 436 251 466Q248 496 240 517.5Q232 539 218.5 550.5Q205 562 185 562Q165 562 151.5 550.5Q138 539 130 517.5Q122 496 119 466Q116 436 116 399Z" glyph-name="Omacron" horiz-adv-x="370" unicode="&#332;" /><glyph d="M51 78Q34 113 27 161Q20 209 20 269V361Q20 494 57.5 566Q95 638 185 638Q242 638 280 605L298 645L348 619L318 551Q335 516 342.5 468.5Q350 421 350 361V269Q350 136 312.5 64Q275 -8 185 -8Q126 -8 89 25L72 -15L22 11ZM112 225V217L243 518Q226 563 185 563Q144 563 128 520.5Q112 478 112 405ZM257 405V410L127 111Q144 67 185 67Q226 67 241.5 109.5Q257 152 257 225Z" glyph-name="Oslash" horiz-adv-x="370" unicode="&#216;" /><glyph d="M51 78Q34 113 27 161Q20 209 20 269V361Q20 494 57.5 566Q95 638 185 638Q242 638 280 605L298 645L348 619L318 551Q335 516 342.5 468.5Q350 421 350 361V269Q350 136 312.5 64Q275 -8 185 -8Q126 -8 89 25L72 -15L22 11ZM112 225V217L243 518Q226 563 185 563Q144 563 128 520.5Q112 478 112 405ZM257 405V410L127 111Q144 67 185 67Q226 67 241.5 109.5Q257 152 257 225ZM155 661 194 791H290L212 661Z" glyph-name="Oslashacute" horiz-adv-x="370" unicode="&#510;" /><glyph d="M79 664Q79 720 91.5 753Q104 786 137 786Q151 786 163 777.5Q175 769 185.5 759Q196 749 205 740.5Q214 732 223 732Q233 732 237 745.5Q241 759 242 783H290Q290 727 277.5 694Q265 661 232 661Q218 661 206 669.5Q194 678 183.5 688Q173 698 164 706.5Q155 715 146 715Q136 715 132 701.5Q128 688 127 664ZM350 269Q350 135 311.5 63.5Q273 -8 185 -8Q96 -8 58 64Q20 136 20 269V361Q20 494 58 566Q96 638 185 638Q273 638 311.5 566.5Q350 495 350 361ZM116 231Q116 194 119 164Q122 134 130 112.5Q138 91 151.5 79.5Q165 68 185 68Q225 68 239.5 112.5Q254 157 254 231V399Q254 436 251 466Q248 496 240 517.5Q232 539 218.5 550.5Q205 562 185 562Q165 562 151.5 550.5Q138 539 130 517.5Q122 496 119 466Q116 436 116 399Z" glyph-name="Otilde" horiz-adv-x="370" unicode="&#213;" /><glyph d="M148 308Q205 308 227.5 336.5Q250 365 250 431Q250 497 227.5 525.5Q205 554 148 554H121V308ZM121 0H29V630H153Q255 630 297.5 577.5Q340 525 340 431Q340 337 297.5 284.5Q255 232 153 232H121Z" glyph-name="P" horiz-adv-x="351" unicode="P" /><glyph d="M350 269Q350 157 322.5 88Q295 19 235 0L283 -75H187L143 -3Q77 13 48.5 82.5Q20 152 20 269V361Q20 494 58 566Q96 638 185 638Q273 638 311.5 566.5Q350 495 350 361ZM116 231Q116 194 119 164Q122 134 130 112.5Q138 91 151.5 79.5Q165 68 185 68Q225 68 239.5 112.5Q254 157 254 231V399Q254 436 251 466Q248 496 240 517.5Q232 539 218.5 550.5Q205 562 185 562Q165 562 151.5 550.5Q138 539 130 517.5Q122 496 119 466Q116 436 116 399Z" glyph-name="Q" horiz-adv-x="370" unicode="Q" /><glyph d="M252 0Q248 12 245.5 24.5Q243 37 241 53.5Q239 70 237.5 92.5Q236 115 235 145Q233 173 229.5 193.5Q226 214 217.5 228Q209 242 194 249Q179 256 155 256H120V0H29V630H162Q211 630 245.5 617Q280 604 302 580.5Q324 557 334 523.5Q344 490 344 449Q344 375 315 337.5Q286 300 238 292Q263 287 279.5 274.5Q296 262 305.5 244Q315 226 319 202Q323 178 325 150Q326 121 327.5 98.5Q329 76 331 58.5Q333 41 336.5 27Q340 13 346 0ZM151 331Q209 331 230 358Q251 385 251 443Q251 497 230 525.5Q209 554 151 554H120V331Z" glyph-name="R" horiz-adv-x="361" unicode="R" /><glyph d="M252 0Q248 12 245.5 24.5Q243 37 241 53.5Q239 70 237.5 92.5Q236 115 235 145Q233 173 229.5 193.5Q226 214 217.5 228Q209 242 194 249Q179 256 155 256H120V0H29V630H162Q211 630 245.5 617Q280 604 302 580.5Q324 557 334 523.5Q344 490 344 449Q344 375 315 337.5Q286 300 238 292Q263 287 279.5 274.5Q296 262 305.5 244Q315 226 319 202Q323 178 325 150Q326 121 327.5 98.5Q329 76 331 58.5Q333 41 336.5 27Q340 13 346 0ZM151 331Q209 331 230 358Q251 385 251 443Q251 497 230 525.5Q209 554 151 554H120V331ZM141 661 180 791H276L198 661Z" glyph-name="Racute" horiz-adv-x="361" unicode="&#340;" /><glyph d="M127 659 71 786H128L171 714L214 786H271L214 659ZM252 0Q248 12 245.5 24.5Q243 37 241 53.5Q239 70 237.5 92.5Q236 115 235 145Q233 173 229.5 193.5Q226 214 217.5 228Q209 242 194 249Q179 256 155 256H120V0H29V630H162Q211 630 245.5 617Q280 604 302 580.5Q324 557 334 523.5Q344 490 344 449Q344 375 315 337.5Q286 300 238 292Q263 287 279.5 274.5Q296 262 305.5 244Q315 226 319 202Q323 178 325 150Q326 121 327.5 98.5Q329 76 331 58.5Q333 41 336.5 27Q340 13 346 0ZM151 331Q209 331 230 358Q251 385 251 443Q251 497 230 525.5Q209 554 151 554H120V331Z" glyph-name="Rcaron" horiz-adv-x="361" unicode="&#344;" /><glyph d="M142 -35H229V-89Q229 -126 210.5 -148.5Q192 -171 142 -171V-137Q162 -137 169.5 -129.5Q177 -122 178 -102H142ZM252 0Q248 12 245.5 24.5Q243 37 241 53.5Q239 70 237.5 92.5Q236 115 235 145Q233 173 229.5 193.5Q226 214 217.5 228Q209 242 194 249Q179 256 155 256H120V0H29V630H162Q211 630 245.5 617Q280 604 302 580.5Q324 557 334 523.5Q344 490 344 449Q344 375 315 337.5Q286 300 238 292Q263 287 279.5 274.5Q296 262 305.5 244Q315 226 319 202Q323 178 325 150Q326 121 327.5 98.5Q329 76 331 58.5Q333 41 336.5 27Q340 13 346 0ZM151 331Q209 331 230 358Q251 385 251 443Q251 497 230 525.5Q209 554 151 554H120V331Z" glyph-name="Rcommaaccent" horiz-adv-x="361" unicode="&#342;" /><glyph d="M90 174Q92 123 110.5 94.5Q129 66 163 66Q195 66 211.5 88.5Q228 111 228 150Q228 171 223.5 186Q219 201 210.5 213Q202 225 190.5 235Q179 245 165 256L114 295Q95 309 77 325Q59 341 45.5 362Q32 383 23.5 410.5Q15 438 15 476Q15 512 25.5 541.5Q36 571 55 592.5Q74 614 101.5 626Q129 638 163 638Q236 638 271 593.5Q306 549 311 474L233 466Q230 510 214 537Q198 564 164 564Q132 564 117 541Q102 518 102 481Q102 460 105.5 444.5Q109 429 116 417Q123 405 133 395.5Q143 386 156 376L209 337Q231 322 250.5 305Q270 288 284.5 266.5Q299 245 307 218Q315 191 315 155Q315 81 275 36.5Q235 -8 164 -8Q92 -8 52 38Q12 84 9 168Z" glyph-name="S" horiz-adv-x="329" unicode="S" /><glyph d="M90 174Q92 123 110.5 94.5Q129 66 163 66Q195 66 211.5 88.5Q228 111 228 150Q228 171 223.5 186Q219 201 210.5 213Q202 225 190.5 235Q179 245 165 256L114 295Q95 309 77 325Q59 341 45.5 362Q32 383 23.5 410.5Q15 438 15 476Q15 512 25.5 541.5Q36 571 55 592.5Q74 614 101.5 626Q129 638 163 638Q236 638 271 593.5Q306 549 311 474L233 466Q230 510 214 537Q198 564 164 564Q132 564 117 541Q102 518 102 481Q102 460 105.5 444.5Q109 429 116 417Q123 405 133 395.5Q143 386 156 376L209 337Q231 322 250.5 305Q270 288 284.5 266.5Q299 245 307 218Q315 191 315 155Q315 81 275 36.5Q235 -8 164 -8Q92 -8 52 38Q12 84 9 168ZM133 661 172 791H268L190 661Z" glyph-name="Sacute" horiz-adv-x="329" unicode="&#346;" /><glyph d="M90 174Q92 123 110.5 94.5Q129 66 163 66Q195 66 211.5 88.5Q228 111 228 150Q228 171 223.5 186Q219 201 210.5 213Q202 225 190.5 235Q179 245 165 256L114 295Q95 309 77 325Q59 341 45.5 362Q32 383 23.5 410.5Q15 438 15 476Q15 512 25.5 541.5Q36 571 55 592.5Q74 614 101.5 626Q129 638 163 638Q236 638 271 593.5Q306 549 311 474L233 466Q230 510 214 537Q198 564 164 564Q132 564 117 541Q102 518 102 481Q102 460 105.5 444.5Q109 429 116 417Q123 405 133 395.5Q143 386 156 376L209 337Q231 322 250.5 305Q270 288 284.5 266.5Q299 245 307 218Q315 191 315 155Q315 81 275 36.5Q235 -8 164 -8Q92 -8 52 38Q12 84 9 168ZM120 659 64 786H121L164 714L207 786H264L207 659Z" glyph-name="Scaron" horiz-adv-x="329" unicode="&#352;" /><glyph d="M241 -101Q241 -137 218.5 -154.5Q196 -172 163 -172Q139 -172 118 -163.5Q97 -155 84 -141L100 -99Q111 -111 126 -119Q141 -127 158 -127Q186 -127 186 -103Q186 -84 166 -76.5Q146 -69 117 -69L142 -7Q79 0 45 45Q11 90 9 168L90 174Q92 123 110.5 94.5Q129 66 163 66Q195 66 211.5 88.5Q228 111 228 150Q228 171 223.5 186Q219 201 210.5 213Q202 225 190.5 235Q179 245 165 256L114 295Q95 309 77 325Q59 341 45.5 362Q32 383 23.5 410.5Q15 438 15 476Q15 512 25.5 541.5Q36 571 55 592.5Q74 614 101.5 626Q129 638 163 638Q236 638 271 593.5Q306 549 311 474L233 466Q230 510 214 537Q198 564 164 564Q132 564 117 541Q102 518 102 481Q102 460 105.5 444.5Q109 429 116 417Q123 405 133 395.5Q143 386 156 376L209 337Q231 322 250.5 305Q270 288 284.5 266.5Q299 245 307 218Q315 191 315 155Q315 84 278.5 41Q242 -2 177 -7L168 -32Q181 -33 194 -37.5Q207 -42 217.5 -50Q228 -58 234.5 -70.5Q241 -83 241 -101Z" glyph-name="Scedilla" horiz-adv-x="329" unicode="&#350;" /><glyph d="M90 174Q92 123 110.5 94.5Q129 66 163 66Q195 66 211.5 88.5Q228 111 228 150Q228 171 223.5 186Q219 201 210.5 213Q202 225 190.5 235Q179 245 165 256L114 295Q95 309 77 325Q59 341 45.5 362Q32 383 23.5 410.5Q15 438 15 476Q15 512 25.5 541.5Q36 571 55 592.5Q74 614 101.5 626Q129 638 163 638Q236 638 271 593.5Q306 549 311 474L233 466Q230 510 214 537Q198 564 164 564Q132 564 117 541Q102 518 102 481Q102 460 105.5 444.5Q109 429 116 417Q123 405 133 395.5Q143 386 156 376L209 337Q231 322 250.5 305Q270 288 284.5 266.5Q299 245 307 218Q315 191 315 155Q315 81 275 36.5Q235 -8 164 -8Q92 -8 52 38Q12 84 9 168ZM207 783 264 655H207L164 728L121 655H64L120 783Z" glyph-name="Scircumflex" horiz-adv-x="329" unicode="&#348;" /><glyph d="M119 -35H206V-89Q206 -126 187.5 -148.5Q169 -171 119 -171V-137Q139 -137 146.5 -129.5Q154 -122 155 -102H119ZM90 174Q92 123 110.5 94.5Q129 66 163 66Q195 66 211.5 88.5Q228 111 228 150Q228 171 223.5 186Q219 201 210.5 213Q202 225 190.5 235Q179 245 165 256L114 295Q95 309 77 325Q59 341 45.5 362Q32 383 23.5 410.5Q15 438 15 476Q15 512 25.5 541.5Q36 571 55 592.5Q74 614 101.5 626Q129 638 163 638Q236 638 271 593.5Q306 549 311 474L233 466Q230 510 214 537Q198 564 164 564Q132 564 117 541Q102 518 102 481Q102 460 105.5 444.5Q109 429 116 417Q123 405 133 395.5Q143 386 156 376L209 337Q231 322 250.5 305Q270 288 284.5 266.5Q299 245 307 218Q315 191 315 155Q315 81 275 36.5Q235 -8 164 -8Q92 -8 52 38Q12 84 9 168Z" glyph-name="Scommaaccent" horiz-adv-x="329" unicode="&#536;" /><glyph d="M128 0V553H11V630H340V553H220V0Z" glyph-name="T" horiz-adv-x="351" unicode="T" /><glyph d="M68 356H128V553H11V630H340V553H220V356H280V279H220V0H128V279H68Z" glyph-name="Tbar" horiz-adv-x="351" unicode="&#358;" /><glyph d="M131 659 75 786H132L175 714L218 786H275L218 659ZM128 0V553H11V630H340V553H220V0Z" glyph-name="Tcaron" horiz-adv-x="351" unicode="&#356;" /><glyph d="M131 -35H218V-89Q218 -126 199.5 -148.5Q181 -171 131 -171V-137Q151 -137 158.5 -129.5Q166 -122 167 -102H131ZM128 0V553H11V630H340V553H220V0Z" glyph-name="Tcommaaccent" horiz-adv-x="351" unicode="&#354;" /><glyph d="M148 197Q205 197 227.5 225.5Q250 254 250 320Q250 386 227.5 414.5Q205 443 148 443H121V197ZM121 0H29V630H121V519H153Q255 519 297.5 466.5Q340 414 340 320Q340 226 297.5 173.5Q255 121 153 121H121Z" glyph-name="Thorn" horiz-adv-x="351" unicode="&#222;" /><glyph d="M187 -8Q141 -8 110 6.5Q79 21 60.5 46.5Q42 72 34 107Q26 142 26 184V630H120V181Q120 124 134.5 95.5Q149 67 187 67Q225 67 239.5 95.5Q254 124 254 181V630H348V184Q348 142 340 107Q332 72 313 46.5Q294 21 263.5 6.5Q233 -8 187 -8Z" glyph-name="U" horiz-adv-x="374" unicode="U" /><glyph d="M157 661 196 791H292L214 661ZM187 -8Q141 -8 110 6.5Q79 21 60.5 46.5Q42 72 34 107Q26 142 26 184V630H120V181Q120 124 134.5 95.5Q149 67 187 67Q225 67 239.5 95.5Q254 124 254 181V630H348V184Q348 142 340 107Q332 72 313 46.5Q294 21 263.5 6.5Q233 -8 187 -8Z" glyph-name="Uacute" horiz-adv-x="374" unicode="&#218;" /><glyph d="M187 655Q137 655 116 688Q95 721 95 783H153Q153 751 160 733Q167 715 187 715Q208 715 215 733Q222 751 222 783H281Q281 721 259.5 688Q238 655 187 655ZM187 -8Q141 -8 110 6.5Q79 21 60.5 46.5Q42 72 34 107Q26 142 26 184V630H120V181Q120 124 134.5 95.5Q149 67 187 67Q225 67 239.5 95.5Q254 124 254 181V630H348V184Q348 142 340 107Q332 72 313 46.5Q294 21 263.5 6.5Q233 -8 187 -8Z" glyph-name="Ubreve" horiz-adv-x="374" unicode="&#364;" /><glyph d="M187 -8Q141 -8 110 6.5Q79 21 60.5 46.5Q42 72 34 107Q26 142 26 184V630H120V181Q120 124 134.5 95.5Q149 67 187 67Q225 67 239.5 95.5Q254 124 254 181V630H348V184Q348 142 340 107Q332 72 313 46.5Q294 21 263.5 6.5Q233 -8 187 -8ZM230 783 287 655H230L187 728L144 655H87L143 783Z" glyph-name="Ucircumflex" horiz-adv-x="374" unicode="&#219;" /><glyph d="M100 763H174V666H100ZM200 763H275V666H200ZM187 -8Q141 -8 110 6.5Q79 21 60.5 46.5Q42 72 34 107Q26 142 26 184V630H120V181Q120 124 134.5 95.5Q149 67 187 67Q225 67 239.5 95.5Q254 124 254 181V630H348V184Q348 142 340 107Q332 72 313 46.5Q294 21 263.5 6.5Q233 -8 187 -8Z" glyph-name="Udieresis" horiz-adv-x="374" unicode="&#220;" /><glyph d="M165 661 86 791H182L221 661ZM187 -8Q141 -8 110 6.5Q79 21 60.5 46.5Q42 72 34 107Q26 142 26 184V630H120V181Q120 124 134.5 95.5Q149 67 187 67Q225 67 239.5 95.5Q254 124 254 181V630H348V184Q348 142 340 107Q332 72 313 46.5Q294 21 263.5 6.5Q233 -8 187 -8Z" glyph-name="Ugrave" horiz-adv-x="374" unicode="&#217;" /><glyph d="M187 -8Q141 -8 110 6.5Q79 21 60.5 46.5Q42 72 34 107Q26 142 26 184V630H120V181Q120 124 134.5 95.5Q149 67 187 67Q225 67 239.5 95.5Q254 124 254 181V630H348V184Q348 142 340 107Q332 72 313 46.5Q294 21 263.5 6.5Q233 -8 187 -8ZM113 661 137 792H223L160 661ZM211 661 236 792H321L259 661Z" glyph-name="Uhungarumlaut" horiz-adv-x="374" unicode="&#368;" /><glyph d="M103 735H271V670H103ZM187 -8Q141 -8 110 6.5Q79 21 60.5 46.5Q42 72 34 107Q26 142 26 184V630H120V181Q120 124 134.5 95.5Q149 67 187 67Q225 67 239.5 95.5Q254 124 254 181V630H348V184Q348 142 340 107Q332 72 313 46.5Q294 21 263.5 6.5Q233 -8 187 -8Z" glyph-name="Umacron" horiz-adv-x="374" unicode="&#362;" /><glyph d="M187 -8Q141 -8 110 6.5Q79 21 60.5 46.5Q42 72 34 107Q26 142 26 184V630H120V181Q120 124 134.5 95.5Q149 67 187 67Q225 67 239.5 95.5Q254 124 254 181V630H348V184Q348 124 330.5 84Q313 44 278 16Q243 -13 232 -35.5Q221 -58 221 -81Q221 -96 229 -103.5Q237 -111 249 -111Q262 -111 275 -106V-157Q258 -170 228 -170Q199 -170 179.5 -152Q160 -134 160 -99Q160 -73 171.5 -50Q183 -27 201 -7Q198 -8 194 -8Q190 -8 187 -8Z" glyph-name="Uogonek" horiz-adv-x="374" unicode="&#370;" /><glyph d="M187 -8Q141 -8 110 6.5Q79 21 60.5 46.5Q42 72 34 107Q26 142 26 184V630H120V181Q120 124 134.5 95.5Q149 67 187 67Q225 67 239.5 95.5Q254 124 254 181V630H348V184Q348 142 340 107Q332 72 313 46.5Q294 21 263.5 6.5Q233 -8 187 -8ZM152 729Q152 712 161 702Q170 692 187 692Q204 692 213 702Q222 712 222 729Q222 746 213 756Q204 766 187 766Q170 766 161 756Q152 746 152 729ZM107 729Q107 763 129 784.5Q151 806 187 806Q223 806 245 784.5Q267 763 267 729Q267 696 245 674Q223 652 187 652Q151 652 129 674Q107 696 107 729Z" glyph-name="Uring" horiz-adv-x="374" unicode="&#366;" /><glyph d="M82 664Q82 720 94.5 753Q107 786 140 786Q154 786 166 777.5Q178 769 188.5 759Q199 749 208 740.5Q217 732 226 732Q236 732 240 745.5Q244 759 245 783H293Q293 727 280.5 694Q268 661 235 661Q221 661 209 669.5Q197 678 186.5 688Q176 698 167 706.5Q158 715 149 715Q139 715 135 701.5Q131 688 130 664ZM187 -8Q141 -8 110 6.5Q79 21 60.5 46.5Q42 72 34 107Q26 142 26 184V630H120V181Q120 124 134.5 95.5Q149 67 187 67Q225 67 239.5 95.5Q254 124 254 181V630H348V184Q348 142 340 107Q332 72 313 46.5Q294 21 263.5 6.5Q233 -8 187 -8Z" glyph-name="Utilde" horiz-adv-x="374" unicode="&#360;" /><glyph d="M132 0 0 630H94L181 181H185L271 630H358L226 0Z" glyph-name="V" horiz-adv-x="358" unicode="V" /><glyph d="M412 630H496L395 0H309L250 409H246L187 0H102L0 630H88L150 211H154L214 630H286L346 211H350Z" glyph-name="W" horiz-adv-x="496" unicode="W" /><glyph d="M218 661 257 791H353L275 661ZM412 630H496L395 0H309L250 409H246L187 0H102L0 630H88L150 211H154L214 630H286L346 211H350Z" glyph-name="Wacute" horiz-adv-x="496" unicode="&#7810;" /><glyph d="M412 630H496L395 0H309L250 409H246L187 0H102L0 630H88L150 211H154L214 630H286L346 211H350ZM292 783 349 655H292L249 728L206 655H149L205 783Z" glyph-name="Wcircumflex" horiz-adv-x="496" unicode="&#372;" /><glyph d="M162 763H236V666H162ZM262 763H337V666H262ZM412 630H496L395 0H309L250 409H246L187 0H102L0 630H88L150 211H154L214 630H286L346 211H350Z" glyph-name="Wdieresis" horiz-adv-x="496" unicode="&#7812;" /><glyph d="M226 661 147 791H243L282 661ZM412 630H496L395 0H309L250 409H246L187 0H102L0 630H88L150 211H154L214 630H286L346 211H350Z" glyph-name="Wgrave" horiz-adv-x="496" unicode="&#7808;" /><glyph d="M228 326 357 0H259L176 227L91 0H0L128 323L10 630H108L180 422L255 630H346Z" glyph-name="X" horiz-adv-x="357" unicode="X" /><glyph d="M272 630H363L227 226V0H137V226L0 630H95L186 343Z" glyph-name="Y" horiz-adv-x="363" unicode="Y" /><glyph d="M272 630H363L227 226V0H137V226L0 630H95L186 343ZM151 661 190 791H286L208 661Z" glyph-name="Yacute" horiz-adv-x="363" unicode="&#221;" /><glyph d="M272 630H363L227 226V0H137V226L0 630H95L186 343ZM225 783 282 655H225L182 728L139 655H82L138 783Z" glyph-name="Ycircumflex" horiz-adv-x="363" unicode="&#374;" /><glyph d="M272 630H363L227 226V0H137V226L0 630H95L186 343ZM95 763H169V666H95ZM195 763H270V666H195Z" glyph-name="Ydieresis" horiz-adv-x="363" unicode="&#376;" /><glyph d="M272 630H363L227 226V0H137V226L0 630H95L186 343ZM160 661 81 791H177L216 661Z" glyph-name="Ygrave" horiz-adv-x="363" unicode="&#7922;" /><glyph d="M311 77V0H15V66L207 553H20V630H307V561L118 77Z" glyph-name="Z" horiz-adv-x="326" unicode="Z" /><glyph d="M311 77V0H15V66L207 553H20V630H307V561L118 77ZM141 661 180 791H276L198 661Z" glyph-name="Zacute" horiz-adv-x="326" unicode="&#377;" /><glyph d="M127 659 71 786H128L171 714L214 786H271L214 659ZM311 77V0H15V66L207 553H20V630H307V561L118 77Z" glyph-name="Zcaron" horiz-adv-x="326" unicode="&#381;" /><glyph d="M127 772H215V669H127ZM311 77V0H15V66L207 553H20V630H307V561L118 77Z" glyph-name="Zdotaccent" horiz-adv-x="326" unicode="&#379;" /><glyph d="M186 224 150 194Q127 175 111 156.5Q95 138 95 109Q95 60 136 60Q160 60 173 85.5Q186 111 186 145ZM273 81Q273 61 289 61Q294 61 298 62.5Q302 64 309 66V10Q299 2 287 -2Q275 -6 258 -6Q232 -6 214.5 7.5Q197 21 190 51Q181 25 158.5 9.5Q136 -6 104 -6Q59 -6 34 22.5Q9 51 9 96Q9 123 18.5 144.5Q28 166 44 183.5Q60 201 80.5 216.5Q101 232 124 248L186 292V311Q186 338 179.5 358Q173 378 147 378Q123 378 111.5 355.5Q100 333 97 294L20 307Q23 336 31.5 361.5Q40 387 56 406Q72 425 95 436Q118 447 149 447Q217 447 245 408.5Q273 370 273 302Z" glyph-name="a" horiz-adv-x="311" unicode="a" /><glyph d="M186 224 150 194Q127 175 111 156.5Q95 138 95 109Q95 60 136 60Q160 60 173 85.5Q186 111 186 145ZM273 81Q273 61 289 61Q294 61 298 62.5Q302 64 309 66V10Q299 2 287 -2Q275 -6 258 -6Q232 -6 214.5 7.5Q197 21 190 51Q181 25 158.5 9.5Q136 -6 104 -6Q59 -6 34 22.5Q9 51 9 96Q9 123 18.5 144.5Q28 166 44 183.5Q60 201 80.5 216.5Q101 232 124 248L186 292V311Q186 338 179.5 358Q173 378 147 378Q123 378 111.5 355.5Q100 333 97 294L20 307Q23 336 31.5 361.5Q40 387 56 406Q72 425 95 436Q118 447 149 447Q217 447 245 408.5Q273 370 273 302ZM123 482 162 612H258L180 482Z" glyph-name="aacute" horiz-adv-x="311" unicode="&#225;" /><glyph d="M186 224 150 194Q127 175 111 156.5Q95 138 95 109Q95 60 136 60Q160 60 173 85.5Q186 111 186 145ZM273 81Q273 61 289 61Q294 61 298 62.5Q302 64 309 66V10Q299 2 287 -2Q275 -6 258 -6Q232 -6 214.5 7.5Q197 21 190 51Q181 25 158.5 9.5Q136 -6 104 -6Q59 -6 34 22.5Q9 51 9 96Q9 123 18.5 144.5Q28 166 44 183.5Q60 201 80.5 216.5Q101 232 124 248L186 292V311Q186 338 179.5 358Q173 378 147 378Q123 378 111.5 355.5Q100 333 97 294L20 307Q23 336 31.5 361.5Q40 387 56 406Q72 425 95 436Q118 447 149 447Q217 447 245 408.5Q273 370 273 302ZM152 476Q102 476 81 509Q60 542 60 604H118Q118 572 125 554Q132 536 152 536Q173 536 180 554Q187 572 187 604H246Q246 542 224.5 509Q203 476 152 476Z" glyph-name="abreve" horiz-adv-x="311" unicode="&#259;" /><glyph d="M186 224 150 194Q127 175 111 156.5Q95 138 95 109Q95 60 136 60Q160 60 173 85.5Q186 111 186 145ZM273 81Q273 61 289 61Q294 61 298 62.5Q302 64 309 66V10Q299 2 287 -2Q275 -6 258 -6Q232 -6 214.5 7.5Q197 21 190 51Q181 25 158.5 9.5Q136 -6 104 -6Q59 -6 34 22.5Q9 51 9 96Q9 123 18.5 144.5Q28 166 44 183.5Q60 201 80.5 216.5Q101 232 124 248L186 292V311Q186 338 179.5 358Q173 378 147 378Q123 378 111.5 355.5Q100 333 97 294L20 307Q23 336 31.5 361.5Q40 387 56 406Q72 425 95 436Q118 447 149 447Q217 447 245 408.5Q273 370 273 302ZM197 604 254 476H197L154 549L111 476H54L110 604Z" glyph-name="acircumflex" horiz-adv-x="311" unicode="&#226;" /><glyph d="M90 482 129 612H225L147 482Z" glyph-name="acute" horiz-adv-x="316" unicode="&#180;" /><glyph d="M90 661 129 791H225L147 661Z" glyph-name="acute.cap" horiz-adv-x="316" /><glyph d="M186 224 150 194Q127 175 111 156.5Q95 138 95 109Q95 60 136 60Q160 60 173 85.5Q186 111 186 145ZM273 81Q273 61 289 61Q294 61 298 62.5Q302 64 309 66V10Q299 2 287 -2Q275 -6 258 -6Q232 -6 214.5 7.5Q197 21 190 51Q181 25 158.5 9.5Q136 -6 104 -6Q59 -6 34 22.5Q9 51 9 96Q9 123 18.5 144.5Q28 166 44 183.5Q60 201 80.5 216.5Q101 232 124 248L186 292V311Q186 338 179.5 358Q173 378 147 378Q123 378 111.5 355.5Q100 333 97 294L20 307Q23 336 31.5 361.5Q40 387 56 406Q72 425 95 436Q118 447 149 447Q217 447 245 408.5Q273 370 273 302ZM67 591H141V493H67ZM167 591H242V493H167Z" glyph-name="adieresis" horiz-adv-x="311" unicode="&#228;" /><glyph d="M136 60Q160 60 173 83.5Q186 107 186 145V200H167Q126 200 109.5 178.5Q93 157 93 124Q93 91 104.5 75.5Q116 60 136 60ZM324 378Q295 378 284 345Q273 312 273 256H373Q373 312 363 345Q353 378 324 378ZM327 -8Q253 -8 224 57Q214 29 187 10.5Q160 -8 126 -8Q69 -8 39 25.5Q9 59 9 122Q9 182 47 219Q85 256 159 256H186V311Q186 338 179.5 358Q173 378 147 378Q123 378 111.5 355.5Q100 333 97 294L20 307Q23 336 31.5 361.5Q40 387 56 406Q72 425 95 436Q118 447 149 447Q182 447 202.5 433Q223 419 237 398Q251 420 273 433.5Q295 447 324 447Q398 447 428 391.5Q458 336 458 233V200H273V185Q273 124 286 92.5Q299 61 328 61Q351 61 362.5 83Q374 105 378 144L454 133Q447 67 415.5 29.5Q384 -8 327 -8Z" glyph-name="ae" horiz-adv-x="473" unicode="&#230;" /><glyph d="M201 482 240 612H336L258 482ZM136 60Q160 60 173 83.5Q186 107 186 145V200H167Q126 200 109.5 178.5Q93 157 93 124Q93 91 104.5 75.5Q116 60 136 60ZM324 378Q295 378 284 345Q273 312 273 256H373Q373 312 363 345Q353 378 324 378ZM327 -8Q253 -8 224 57Q214 29 187 10.5Q160 -8 126 -8Q69 -8 39 25.5Q9 59 9 122Q9 182 47 219Q85 256 159 256H186V311Q186 338 179.5 358Q173 378 147 378Q123 378 111.5 355.5Q100 333 97 294L20 307Q23 336 31.5 361.5Q40 387 56 406Q72 425 95 436Q118 447 149 447Q182 447 202.5 433Q223 419 237 398Q251 420 273 433.5Q295 447 324 447Q398 447 428 391.5Q458 336 458 233V200H273V185Q273 124 286 92.5Q299 61 328 61Q351 61 362.5 83Q374 105 378 144L454 133Q447 67 415.5 29.5Q384 -8 327 -8Z" glyph-name="aeacute" horiz-adv-x="473" unicode="&#509;" /><glyph d="M186 224 150 194Q127 175 111 156.5Q95 138 95 109Q95 60 136 60Q160 60 173 85.5Q186 111 186 145ZM273 81Q273 61 289 61Q294 61 298 62.5Q302 64 309 66V10Q299 2 287 -2Q275 -6 258 -6Q232 -6 214.5 7.5Q197 21 190 51Q181 25 158.5 9.5Q136 -6 104 -6Q59 -6 34 22.5Q9 51 9 96Q9 123 18.5 144.5Q28 166 44 183.5Q60 201 80.5 216.5Q101 232 124 248L186 292V311Q186 338 179.5 358Q173 378 147 378Q123 378 111.5 355.5Q100 333 97 294L20 307Q23 336 31.5 361.5Q40 387 56 406Q72 425 95 436Q118 447 149 447Q217 447 245 408.5Q273 370 273 302ZM132 482 53 612H149L188 482Z" glyph-name="agrave" horiz-adv-x="311" unicode="&#224;" /><glyph d="M186 224 150 194Q127 175 111 156.5Q95 138 95 109Q95 60 136 60Q160 60 173 85.5Q186 111 186 145ZM273 81Q273 61 289 61Q294 61 298 62.5Q302 64 309 66V10Q299 2 287 -2Q275 -6 258 -6Q232 -6 214.5 7.5Q197 21 190 51Q181 25 158.5 9.5Q136 -6 104 -6Q59 -6 34 22.5Q9 51 9 96Q9 123 18.5 144.5Q28 166 44 183.5Q60 201 80.5 216.5Q101 232 124 248L186 292V311Q186 338 179.5 358Q173 378 147 378Q123 378 111.5 355.5Q100 333 97 294L20 307Q23 336 31.5 361.5Q40 387 56 406Q72 425 95 436Q118 447 149 447Q217 447 245 408.5Q273 370 273 302ZM68 556H236V491H68Z" glyph-name="amacron" horiz-adv-x="311" unicode="&#257;" /><glyph d="M387 313Q379 256 365 205.5Q351 155 329 113Q340 96 350 84Q360 72 378 72Q384 72 389 73Q394 74 405 78L410 14Q400 5 386 0.5Q372 -4 359 -4Q336 -4 316.5 6Q297 16 277 40Q253 17 224 4.5Q195 -8 160 -8Q127 -8 99 3.5Q71 15 50 36.5Q29 58 17.5 89.5Q6 121 6 162Q6 222 28.5 263Q51 304 95 337Q75 371 60.5 405Q46 439 46 487Q46 522 56 550Q66 578 84 597.5Q102 617 126 627.5Q150 638 178 638Q208 638 231 627.5Q254 617 269.5 598Q285 579 293.5 554Q302 529 302 500Q302 438 274.5 399Q247 360 200 326L285 186Q296 215 303.5 249.5Q311 284 316 322ZM172 72Q209 72 237 100L134 274Q114 253 103 228.5Q92 204 92 170Q92 128 113 100Q134 72 172 72ZM130 491Q130 461 140.5 434.5Q151 408 165 384Q199 409 212 434.5Q225 460 225 498Q225 523 213.5 543Q202 563 179 563Q156 563 143 544.5Q130 526 130 491Z" glyph-name="ampersand" horiz-adv-x="412" unicode="&amp;" /><glyph d="M136 60Q160 60 173 85.5Q186 111 186 145V224L150 194Q127 175 111 156.5Q95 138 95 109Q95 60 136 60ZM190 51Q181 25 158.5 9.5Q136 -6 104 -6Q59 -6 34 22.5Q9 51 9 96Q9 123 18.5 144.5Q28 166 44 183.5Q60 201 80.5 216.5Q101 232 124 248L186 292V311Q186 338 179.5 358Q173 378 147 378Q123 378 111.5 355.5Q100 333 97 294L20 307Q23 336 31.5 361.5Q40 387 56 406Q72 425 95 436Q118 447 149 447Q217 447 245 408.5Q273 370 273 302V81Q273 61 289 61Q294 61 298 62.5Q302 64 309 66V10Q280 -16 267.5 -37Q255 -58 255 -79Q255 -96 263 -103.5Q271 -111 283 -111Q296 -111 309 -106V-157Q292 -170 263 -170Q234 -170 214 -152Q194 -134 194 -99Q194 -71 206 -48Q218 -25 238 -4Q221 0 208 13Q195 26 190 51Z" glyph-name="aogonek" horiz-adv-x="311" unicode="&#261;" /><glyph d="M36 372Q59 389 81 395.5Q103 402 123 402Q144 402 162.5 397.5Q181 393 198.5 387.5Q216 382 233.5 377.5Q251 373 272 373Q292 373 315 379.5Q338 386 363 403V342Q338 326 315 319.5Q292 313 272 313Q251 313 233.5 317.5Q216 322 198.5 327Q181 332 162.5 336.5Q144 341 123 341Q103 341 81 334Q59 327 36 312ZM36 262Q59 278 81 284.5Q103 291 123 291Q144 291 162.5 286.5Q181 282 198.5 276.5Q216 271 233.5 266.5Q251 262 272 262Q292 262 315 269Q338 276 363 292V232Q338 215 315 209Q292 203 272 203Q251 203 233.5 207.5Q216 212 198.5 217.5Q181 223 162.5 227.5Q144 232 123 232Q103 232 81 225Q59 218 36 202Z" glyph-name="approxequal" horiz-adv-x="399" unicode="&#8776;" /><glyph d="M186 224 150 194Q127 175 111 156.5Q95 138 95 109Q95 60 136 60Q160 60 173 85.5Q186 111 186 145ZM273 81Q273 61 289 61Q294 61 298 62.5Q302 64 309 66V10Q299 2 287 -2Q275 -6 258 -6Q232 -6 214.5 7.5Q197 21 190 51Q181 25 158.5 9.5Q136 -6 104 -6Q59 -6 34 22.5Q9 51 9 96Q9 123 18.5 144.5Q28 166 44 183.5Q60 201 80.5 216.5Q101 232 124 248L186 292V311Q186 338 179.5 358Q173 378 147 378Q123 378 111.5 355.5Q100 333 97 294L20 307Q23 336 31.5 361.5Q40 387 56 406Q72 425 95 436Q118 447 149 447Q217 447 245 408.5Q273 370 273 302ZM118 550Q118 533 127 523Q136 513 153 513Q170 513 179 523Q188 533 188 550Q188 567 179 577Q170 587 153 587Q136 587 127 577Q118 567 118 550ZM73 550Q73 583 95 605Q117 627 153 627Q189 627 211 605Q233 583 233 550Q233 517 211 495Q189 473 153 473Q117 473 95 495Q73 517 73 550Z" glyph-name="aring" horiz-adv-x="311" unicode="&#229;" /><glyph d="M118 620 146 715H248L182 620ZM113 534Q113 519 122 510Q131 501 148 501Q166 501 175 510Q184 519 184 534Q184 549 175 558Q166 567 148 567Q131 567 122 558Q113 549 113 534ZM68 534Q68 564 89.5 584.5Q111 605 148 605Q186 605 207.5 584.5Q229 564 229 534Q229 504 207.5 483Q186 462 148 462Q111 462 89.5 483Q68 504 68 534ZM186 224 150 194Q127 175 111 156.5Q95 138 95 109Q95 60 136 60Q160 60 173 85.5Q186 111 186 145ZM273 81Q273 61 289 61Q294 61 298 62.5Q302 64 309 66V10Q299 2 287 -2Q275 -6 258 -6Q232 -6 214.5 7.5Q197 21 190 51Q181 25 158.5 9.5Q136 -6 104 -6Q59 -6 34 22.5Q9 51 9 96Q9 123 18.5 144.5Q28 166 44 183.5Q60 201 80.5 216.5Q101 232 124 248L186 292V311Q186 338 179.5 358Q173 378 147 378Q123 378 111.5 355.5Q100 333 97 294L20 307Q23 336 31.5 361.5Q40 387 56 406Q72 425 95 436Q118 447 149 447Q217 447 245 408.5Q273 370 273 302Z" glyph-name="aringacute" horiz-adv-x="311" unicode="&#507;" /><glyph d="M185 630 281 426H197L142 557L87 426H3L99 630Z" glyph-name="asciicircum" horiz-adv-x="283" unicode="^" /><glyph d="M18 210Q18 268 39 304Q60 340 102 340Q120 340 135 332Q150 324 163.5 314Q177 304 189.5 296Q202 288 215 288Q233 288 240.5 300Q248 312 250 337H308Q308 278 287 242Q266 206 224 206Q205 206 190 214Q175 222 161.5 232Q148 242 135.5 250Q123 258 110 258Q78 258 75 210Z" glyph-name="asciitilde" horiz-adv-x="326" unicode="~" /><glyph d="M27 581 100 556V634H154V556L227 581L245 531L170 507L216 444L173 412L126 475L81 412L39 444L84 506L10 530Z" glyph-name="asterisk" horiz-adv-x="255" unicode="*" /><glyph d="M400 91Q431 91 449 136Q467 181 467 268Q467 371 425.5 430.5Q384 490 299 490Q248 490 208.5 468Q169 446 142 405.5Q115 365 100.5 307.5Q86 250 86 180Q86 117 100 69.5Q114 22 139 -10Q164 -42 198 -58Q232 -74 273 -74Q314 -74 348.5 -63.5Q383 -53 418 -29L434 -76Q399 -106 358.5 -119.5Q318 -133 272 -133Q220 -133 174.5 -113Q129 -93 95.5 -54Q62 -15 42.5 43.5Q23 102 23 180Q23 262 42.5 330.5Q62 399 98 448Q134 497 185 524Q236 551 299 551Q353 551 395.5 530.5Q438 510 467.5 472.5Q497 435 512.5 383Q528 331 528 268Q528 207 516.5 162.5Q505 118 485.5 88.5Q466 59 441 45Q416 31 389 31Q360 31 341.5 47.5Q323 64 317 93Q303 61 281.5 46Q260 31 233 31Q190 31 164.5 67.5Q139 104 139 169Q139 208 148.5 246.5Q158 285 175.5 315.5Q193 346 218 365Q243 384 273 384Q302 384 319 367.5Q336 351 343 325L353 376H418L374 146Q369 117 375.5 104Q382 91 400 91ZM320 218Q328 261 320.5 289Q313 317 287 317Q271 317 257.5 305Q244 293 234.5 273Q225 253 219.5 226Q214 199 214 169Q214 99 254 99Q275 99 290.5 121.5Q306 144 316 196Z" glyph-name="at" horiz-adv-x="550" unicode="@" /><glyph d="M400 199Q431 199 449 244Q467 289 467 376Q467 479 425.5 538.5Q384 598 299 598Q248 598 208.5 576Q169 554 142 513.5Q115 473 100.5 415.5Q86 358 86 288Q86 225 100 177.5Q114 130 139 98Q164 66 198 50Q232 34 273 34Q314 34 348.5 44.5Q383 55 418 79L434 32Q399 2 358.5 -11.5Q318 -25 272 -25Q220 -25 174.5 -5Q129 15 95.5 54Q62 93 42.5 151.5Q23 210 23 288Q23 370 42.5 438.5Q62 507 98 556Q134 605 185 632Q236 659 299 659Q353 659 395.5 638.5Q438 618 467.5 580.5Q497 543 512.5 491Q528 439 528 376Q528 315 516.5 270.5Q505 226 485.5 196.5Q466 167 441 153Q416 139 389 139Q360 139 341.5 155.5Q323 172 317 201Q303 169 281.5 154Q260 139 233 139Q190 139 164.5 175.5Q139 212 139 277Q139 316 148.5 354.5Q158 393 175.5 423.5Q193 454 218 473Q243 492 273 492Q302 492 319 475.5Q336 459 343 433L353 484H418L374 254Q369 225 375.5 212Q382 199 400 199ZM320 326Q328 369 320.5 397Q313 425 287 425Q271 425 257.5 413Q244 401 234.5 381Q225 361 219.5 334Q214 307 214 277Q214 207 254 207Q275 207 290.5 229.5Q306 252 316 304Z" glyph-name="at.cap" horiz-adv-x="550" /><glyph d="M186 224 150 194Q127 175 111 156.5Q95 138 95 109Q95 60 136 60Q160 60 173 85.5Q186 111 186 145ZM273 81Q273 61 289 61Q294 61 298 62.5Q302 64 309 66V10Q299 2 287 -2Q275 -6 258 -6Q232 -6 214.5 7.5Q197 21 190 51Q181 25 158.5 9.5Q136 -6 104 -6Q59 -6 34 22.5Q9 51 9 96Q9 123 18.5 144.5Q28 166 44 183.5Q60 201 80.5 216.5Q101 232 124 248L186 292V311Q186 338 179.5 358Q173 378 147 378Q123 378 111.5 355.5Q100 333 97 294L20 307Q23 336 31.5 361.5Q40 387 56 406Q72 425 95 436Q118 447 149 447Q217 447 245 408.5Q273 370 273 302ZM50 485Q50 541 62.5 574Q75 607 108 607Q122 607 134 598.5Q146 590 156.5 580Q167 570 176 561.5Q185 553 194 553Q204 553 208 566.5Q212 580 213 604H261Q261 548 248.5 515Q236 482 203 482Q189 482 177 490.5Q165 499 154.5 509Q144 519 135 527.5Q126 536 117 536Q107 536 103 522.5Q99 509 98 485Z" glyph-name="atilde" horiz-adv-x="311" unicode="&#227;" /><glyph d="M116 162Q116 117 129 91.5Q142 66 168 66Q197 66 209 96Q221 126 221 188V252Q221 313 209 343Q197 373 168 373Q142 373 129 348Q116 323 116 278ZM116 389Q125 414 146.5 430.5Q168 447 200 447Q260 447 286 393.5Q312 340 312 240V199Q312 99 286 45.5Q260 -8 200 -8Q168 -8 146.5 8.5Q125 25 116 50L106 0H27V630H116Z" glyph-name="b" horiz-adv-x="328" unicode="b" /><glyph d="M194 -84H116L4 660H83Z" glyph-name="backslash" horiz-adv-x="186" unicode="\" /><glyph d="M190 0H111L0 630H79Z" glyph-name="backslash.cap" horiz-adv-x="190" /><glyph d="M29 660H106V-83H29Z" glyph-name="bar" horiz-adv-x="135" unicode="|" /><glyph d="M29 630H106V0H29Z" glyph-name="bar.cap" horiz-adv-x="135" /><glyph d="M12 321H30Q49 321 55.5 333Q62 345 62 366V560Q62 608 83 634Q104 660 151 660H183V595H162Q148 595 144 586.5Q140 578 140 564V381Q140 346 129.5 320.5Q119 295 81 288Q119 281 129.5 255.5Q140 230 140 195V12Q140 -2 144 -10.5Q148 -19 162 -19H183V-84H151Q104 -84 83 -58Q62 -32 62 16V210Q62 231 55.5 243Q49 255 30 255H12Z" glyph-name="braceleft" horiz-adv-x="193" unicode="{" /><glyph d="M12 339H30Q49 339 55.5 350.5Q62 362 62 383V577Q62 625 83 651Q104 677 151 677H183V612H162Q148 612 144 604Q140 596 140 581V398Q140 363 129.5 337.5Q119 312 81 305Q119 298 129.5 272.5Q140 247 140 212V29Q140 15 144 6.5Q148 -2 162 -2H183V-67H151Q104 -67 83 -41Q62 -15 62 33V227Q62 249 55.5 260.5Q49 272 30 272H12Z" glyph-name="braceleft.cap" horiz-adv-x="193" /><glyph d="M181 255H163Q144 255 137.5 243Q131 231 131 210V16Q131 -32 110 -58Q89 -84 42 -84H10V-19H31Q45 -19 49 -10.5Q53 -2 53 12V195Q53 230 63.5 255.5Q74 281 112 288Q74 295 63.5 320.5Q53 346 53 381V564Q53 578 49 586.5Q45 595 31 595H10V660H42Q89 660 110 634Q131 608 131 560V366Q131 345 137.5 333Q144 321 163 321H181Z" glyph-name="braceright" horiz-adv-x="193" unicode="}" /><glyph d="M181 272H163Q144 272 137.5 260.5Q131 249 131 227V33Q131 -15 110 -41Q89 -67 42 -67H10V-2H31Q45 -2 49 6.5Q53 15 53 29V212Q53 247 63.5 272.5Q74 298 112 305Q74 312 63.5 337.5Q53 363 53 398V581Q53 596 49 604Q45 612 31 612H10V677H42Q89 677 110 651Q131 625 131 577V383Q131 362 137.5 350.5Q144 339 163 339H181Z" glyph-name="braceright.cap" horiz-adv-x="193" /><glyph d="M105 -19H154V-84H29V660H154V595H105Z" glyph-name="bracketleft" horiz-adv-x="164" unicode="[" /><glyph d="M105 -2H154V-67H29V677H154V612H105Z" glyph-name="bracketleft.cap" horiz-adv-x="164" /><glyph d="M59 595H10V660H135V-84H10V-19H59Z" glyph-name="bracketright" horiz-adv-x="164" unicode="]" /><glyph d="M59 612H10V677H135V-67H10V-2H59Z" glyph-name="bracketright.cap" horiz-adv-x="164" /><glyph d="M157 476Q107 476 86 509Q65 542 65 604H123Q123 572 130 554Q137 536 157 536Q178 536 185 554Q192 572 192 604H251Q251 542 229.5 509Q208 476 157 476Z" glyph-name="breve" horiz-adv-x="316" unicode="&#728;" /><glyph d="M157 655Q107 655 86 688Q65 721 65 783H123Q123 751 130 733Q137 715 157 715Q178 715 185 733Q192 751 192 783H251Q251 721 229.5 688Q208 655 157 655Z" glyph-name="breve.cap" horiz-adv-x="316" /><glyph d="M289 257Q289 227 278.5 202Q268 177 249.5 159.5Q231 142 206.5 132Q182 122 154 122Q126 122 101.5 132Q77 142 58.5 159.5Q40 177 29.5 202Q19 227 19 257Q19 287 29.5 311.5Q40 336 58.5 354Q77 372 101.5 382Q126 392 154 392Q182 392 206.5 382Q231 372 249.5 354Q268 336 278.5 311.5Q289 287 289 257Z" glyph-name="bullet" horiz-adv-x="308" unicode="&#8226;" /><glyph d="M289 325Q289 295 278.5 270Q268 245 249.5 227.5Q231 210 206.5 200Q182 190 154 190Q126 190 101.5 200Q77 210 58.5 227.5Q40 245 29.5 270Q19 295 19 325Q19 355 29.5 379.5Q40 404 58.5 422Q77 440 101.5 450Q126 460 154 460Q182 460 206.5 450Q231 440 249.5 422Q268 404 278.5 379.5Q289 355 289 325Z" glyph-name="bullet.cap" horiz-adv-x="308" /><glyph d="M105 183Q105 123 116.5 92.5Q128 62 156 62Q181 62 191.5 86Q202 110 204 154L282 142Q277 68 246.5 30Q216 -8 156 -8Q84 -8 49.5 47Q15 102 15 209V230Q15 337 49.5 392Q84 447 156 447Q271 447 282 298L205 287Q202 329 191.5 353.5Q181 378 156 378Q128 378 116.5 347Q105 316 105 256V183Z" glyph-name="c" horiz-adv-x="299" unicode="c" /><glyph d="M126 482 165 612H261L183 482ZM105 183Q105 123 116.5 92.5Q128 62 156 62Q181 62 191.5 86Q202 110 204 154L282 142Q277 68 246.5 30Q216 -8 156 -8Q84 -8 49.5 47Q15 102 15 209V230Q15 337 49.5 392Q84 447 156 447Q271 447 282 298L205 287Q202 329 191.5 353.5Q181 378 156 378Q128 378 116.5 347Q105 316 105 256V183Z" glyph-name="cacute" horiz-adv-x="299" unicode="&#263;" /><glyph d="M114 480 58 607H115L158 534L201 607H258L201 480Z" glyph-name="caron" horiz-adv-x="316" unicode="&#711;" /><glyph d="M103 497 117 630H208L155 497Z" glyph-name="caron.Slovak" horiz-adv-x="316" /><glyph d="M114 659 58 786H115L158 714L201 786H258L201 659Z" glyph-name="caron.cap" horiz-adv-x="316" /><glyph d="M114 480 58 607H115L158 534L201 607H258L201 480ZM105 183Q105 123 116.5 92.5Q128 62 156 62Q181 62 191.5 86Q202 110 204 154L282 142Q277 68 246.5 30Q216 -8 156 -8Q84 -8 49.5 47Q15 102 15 209V230Q15 337 49.5 392Q84 447 156 447Q271 447 282 298L205 287Q202 329 191.5 353.5Q181 378 156 378Q128 378 116.5 347Q105 316 105 256V183Z" glyph-name="ccaron" horiz-adv-x="299" unicode="&#269;" /><glyph d="M236 -101Q236 -137 213.5 -154.5Q191 -172 158 -172Q134 -172 113 -163.5Q92 -155 79 -141L95 -99Q106 -111 121 -119Q136 -127 153 -127Q181 -127 181 -103Q181 -84 161 -76.5Q141 -69 112 -69L137 -7Q75 0 45 54.5Q15 109 15 209V230Q15 337 49.5 392Q84 447 156 447Q271 447 282 298L205 287Q202 329 191.5 353.5Q181 378 156 378Q128 378 116.5 347Q105 316 105 256V183Q105 123 116.5 92.5Q128 62 156 62Q181 62 191.5 86Q202 110 204 154L282 142Q273 3 173 -7L163 -32Q176 -33 189 -37.5Q202 -42 212.5 -50Q223 -58 229.5 -70.5Q236 -83 236 -101Z" glyph-name="ccedilla" horiz-adv-x="299" unicode="&#231;" /><glyph d="M201 604 258 476H201L158 549L115 476H58L114 604ZM105 183Q105 123 116.5 92.5Q128 62 156 62Q181 62 191.5 86Q202 110 204 154L282 142Q277 68 246.5 30Q216 -8 156 -8Q84 -8 49.5 47Q15 102 15 209V230Q15 337 49.5 392Q84 447 156 447Q271 447 282 298L205 287Q202 329 191.5 353.5Q181 378 156 378Q128 378 116.5 347Q105 316 105 256V183Z" glyph-name="ccircumflex" horiz-adv-x="299" unicode="&#265;" /><glyph d="M105 183Q105 123 116.5 92.5Q128 62 156 62Q181 62 191.5 86Q202 110 204 154L282 142Q277 68 246.5 30Q216 -8 156 -8Q84 -8 49.5 47Q15 102 15 209V230Q15 337 49.5 392Q84 447 156 447Q271 447 282 298L205 287Q202 329 191.5 353.5Q181 378 156 378Q128 378 116.5 347Q105 316 105 256V183ZM115 609H203V507H115Z" glyph-name="cdotaccent" horiz-adv-x="299" unicode="&#267;" /><glyph d="M229 -101Q229 -137 206.5 -154.5Q184 -172 151 -172Q127 -172 106 -163.5Q85 -155 72 -141L88 -99Q99 -111 114 -119Q129 -127 146 -127Q174 -127 174 -103Q174 -84 154 -76.5Q134 -69 105 -69L137 11H173L156 -32Q169 -33 182 -37.5Q195 -42 205.5 -50Q216 -58 222.5 -70.5Q229 -83 229 -101Z" glyph-name="cedilla" horiz-adv-x="316" unicode="&#184;" /><glyph d="M229 -101Q229 -137 206.5 -154.5Q184 -172 151 -172Q127 -172 106 -163.5Q85 -155 72 -141L88 -99Q99 -111 114 -119Q129 -127 146 -127Q174 -127 174 -103Q174 -84 154 -76.5Q134 -69 105 -69L137 11H173L156 -32Q169 -33 182 -37.5Q195 -42 205.5 -50Q216 -58 222.5 -70.5Q229 -83 229 -101Z" glyph-name="cedilla.alt" horiz-adv-x="316" /><glyph d="M137 -5Q15 10 15 209V230Q15 429 137 445V503H176V445Q276 434 287 298L217 287Q215 323 206 347.5Q197 372 176 379V59Q196 66 205.5 90.5Q215 115 216 153L287 141Q282 73 254 36.5Q226 0 176 -5V-58H137ZM97 182Q97 132 105.5 101.5Q114 71 137 61V378Q114 368 105.5 337.5Q97 307 97 258Z" glyph-name="cent" horiz-adv-x="304" unicode="&#162;" /><glyph d="M201 604 258 476H201L158 549L115 476H58L114 604Z" glyph-name="circumflex" horiz-adv-x="316" unicode="&#710;" /><glyph d="M201 783 258 655H201L158 728L115 655H58L114 783Z" glyph-name="circumflex.cap" horiz-adv-x="316" /><glyph d="M18 97H115V0H18ZM18 404H115V307H18Z" glyph-name="colon" horiz-adv-x="133" unicode=":" /><glyph d="M18 97H115V0Q115 -49 94.5 -73.5Q74 -98 18 -98V-53Q44 -52 53 -41Q62 -30 62 0H18Z" glyph-name="comma" horiz-adv-x="133" unicode="," /><glyph d="M114 -35H201V-89Q201 -126 182.5 -148.5Q164 -171 114 -171V-137Q134 -137 141.5 -129.5Q149 -122 150 -102H114Z" glyph-name="commaaccent" horiz-adv-x="316" /><glyph d="M202 493H114V547Q114 584 133 607Q152 630 202 630V596Q182 596 174 588Q166 580 166 561H202Z" glyph-name="commaturn" horiz-adv-x="316" /><glyph d="M267 638Q322 638 367.5 614Q413 590 445.5 547Q478 504 496 444.5Q514 385 514 315Q514 245 496 185.5Q478 126 445.5 83Q413 40 367.5 16Q322 -8 267 -8Q212 -8 166.5 16Q121 40 88.5 83Q56 126 38 185.5Q20 245 20 315Q20 385 38 444.5Q56 504 88.5 547Q121 590 166.5 614Q212 638 267 638ZM267 595Q220 595 182.5 573.5Q145 552 119 514.5Q93 477 79 426Q65 375 65 315Q65 255 79 204Q93 153 119 115.5Q145 78 182.5 56.5Q220 35 267 35Q314 35 351.5 56.5Q389 78 415 115.5Q441 153 455 204Q469 255 469 315Q469 375 455 426Q441 477 415 514.5Q389 552 351.5 573.5Q314 595 267 595ZM216 290Q216 233 228.5 204.5Q241 176 271 176Q300 176 309.5 200.5Q319 225 320 270L385 263Q382 198 355 157Q328 116 270 116Q210 116 178 164.5Q146 213 146 301V327Q146 416 178 464.5Q210 513 270 513Q328 513 355 472Q382 431 385 366L320 358Q319 403 309.5 428Q300 453 271 453Q241 453 228.5 424.5Q216 396 216 339Z" glyph-name="copyright" horiz-adv-x="534" unicode="&#169;" /><glyph d="M213 278Q213 323 199.5 348Q186 373 160 373Q131 373 119 343Q107 313 107 252V188Q107 126 119 96Q131 66 160 66Q186 66 199.5 91.5Q213 117 213 162ZM213 630H301V0H213V50Q204 25 182 8.5Q160 -8 129 -8Q68 -8 42.5 45.5Q17 99 17 199V240Q17 340 42.5 393.5Q68 447 129 447Q160 447 182 430.5Q204 414 213 389Z" glyph-name="d" horiz-adv-x="328" unicode="d" /><glyph d="M10 557H81V634H141V557H212V500H141V347H81V500H10Z" glyph-name="dagger" horiz-adv-x="222" unicode="&#8224;" /><glyph d="M15 464H92V518H15V570H92V634H150V570H227V518H150V464H227V411H150V347H92V411H15Z" glyph-name="daggerdbl" horiz-adv-x="242" unicode="&#8225;" /><glyph d="M322 497 336 630H427L374 497ZM213 278Q213 323 199.5 348Q186 373 160 373Q131 373 119 343Q107 313 107 252V188Q107 126 119 96Q131 66 160 66Q186 66 199.5 91.5Q213 117 213 162ZM213 630H301V0H213V50Q204 25 182 8.5Q160 -8 129 -8Q68 -8 42.5 45.5Q17 99 17 199V240Q17 340 42.5 393.5Q68 447 129 447Q160 447 182 430.5Q204 414 213 389Z" glyph-name="dcaron" horiz-adv-x="328" unicode="&#271;" /><glyph d="M150 556H213V630H301V556H330V500H301V0H213V50Q204 25 182 8.5Q160 -8 129 -8Q68 -8 42.5 45.5Q17 99 17 199V240Q17 340 42.5 393.5Q68 447 129 447Q160 447 182 430.5Q204 414 213 389V500H150ZM213 278Q213 323 199.5 348Q186 373 160 373Q131 373 119 343Q107 313 107 252V188Q107 126 119 96Q131 66 160 66Q186 66 199.5 91.5Q213 117 213 162Z" glyph-name="dcroat" horiz-adv-x="332" unicode="&#273;" /><glyph d="M210 542Q210 500 181.5 472.5Q153 445 111 445Q69 445 41 472.5Q13 500 13 542Q13 584 41 611Q69 638 111 638Q153 638 181.5 611Q210 584 210 542ZM152 542Q152 560 141 572.5Q130 585 111 585Q92 585 81.5 572.5Q71 560 71 542Q71 523 81.5 510.5Q92 498 111 498Q130 498 141 510.5Q152 523 152 542Z" glyph-name="degree" horiz-adv-x="223" unicode="&#176;" /><glyph d="M71 591H145V493H71ZM171 591H246V493H171Z" glyph-name="dieresis" horiz-adv-x="316" unicode="&#168;" /><glyph d="M71 763H145V666H71ZM171 763H246V666H171Z" glyph-name="dieresis.cap" horiz-adv-x="316" /><glyph d="M30 333H357V269H30ZM150 475H238V392H150ZM150 210H238V127H150Z" glyph-name="divide" horiz-adv-x="387" unicode="&#247;" /><glyph d="M87 174Q88 128 102.5 100Q117 72 145 64V277L114 299Q96 311 78 326Q60 341 46 362Q32 383 23 410.5Q14 438 14 476Q14 542 49 585.5Q84 629 145 635V690H185V635Q247 628 277 585Q307 542 311 474L234 466Q232 504 221.5 530.5Q211 557 185 565V351L210 334Q233 319 252.5 302.5Q272 286 286.5 265Q301 244 309.5 217Q318 190 318 155Q318 85 282.5 43Q247 1 185 -5V-61H145V-5Q82 1 47.5 45.5Q13 90 11 168ZM95 481Q95 438 107.5 417.5Q120 397 145 378V566Q119 559 107 536.5Q95 514 95 481ZM236 150Q236 188 222 209Q208 230 185 248V64Q209 71 222.5 93Q236 115 236 150Z" glyph-name="dollar" horiz-adv-x="331" unicode="$" /><glyph d="M114 609H202V507H114Z" glyph-name="dotaccent" horiz-adv-x="316" unicode="&#729;" /><glyph d="M114 772H202V669H114Z" glyph-name="dotaccent.cap" horiz-adv-x="316" /><glyph d="M114 -37H202V-139H114Z" glyph-name="dotbelow" horiz-adv-x="316" /><glyph d="M116 439V0H27V439Z" glyph-name="dotlessi" horiz-adv-x="143" unicode="&#305;" /><glyph d="M116 -61Q116 -116 92.5 -145Q69 -174 18 -174Q-13 -174 -39 -161L-31 -101Q-19 -107 -5 -107Q14 -107 20.5 -97Q27 -87 27 -66V439H116Z" glyph-name="dotlessj" horiz-adv-x="143" unicode="&#567;" /><glyph d="M204 256Q204 312 194 345Q184 378 155 378Q126 378 115 345Q104 312 104 256ZM15 230Q15 333 48 390Q81 447 155 447Q229 447 258.5 391.5Q288 336 288 233V200H104V183Q104 123 116.5 92Q129 61 158 61Q181 61 193 83Q205 105 208 144L285 133Q278 67 247 29.5Q216 -8 159 -8Q84 -8 49.5 47Q15 102 15 209Z" glyph-name="e" horiz-adv-x="304" unicode="e" /><glyph d="M126 482 165 612H261L183 482ZM204 256Q204 312 194 345Q184 378 155 378Q126 378 115 345Q104 312 104 256ZM15 230Q15 333 48 390Q81 447 155 447Q229 447 258.5 391.5Q288 336 288 233V200H104V183Q104 123 116.5 92Q129 61 158 61Q181 61 193 83Q205 105 208 144L285 133Q278 67 247 29.5Q216 -8 159 -8Q84 -8 49.5 47Q15 102 15 209Z" glyph-name="eacute" horiz-adv-x="304" unicode="&#233;" /><glyph d="M204 256Q204 312 194 345Q184 378 155 378Q126 378 115 345Q104 312 104 256ZM15 230Q15 333 48 390Q81 447 155 447Q229 447 258.5 391.5Q288 336 288 233V200H104V183Q104 123 116.5 92Q129 61 158 61Q181 61 193 83Q205 105 208 144L285 133Q278 67 247 29.5Q216 -8 159 -8Q84 -8 49.5 47Q15 102 15 209ZM158 476Q108 476 87 509Q66 542 66 604H124Q124 572 131 554Q138 536 158 536Q179 536 186 554Q193 572 193 604H252Q252 542 230.5 509Q209 476 158 476Z" glyph-name="ebreve" horiz-adv-x="304" unicode="&#277;" /><glyph d="M114 480 58 607H115L158 534L201 607H258L201 480ZM204 256Q204 312 194 345Q184 378 155 378Q126 378 115 345Q104 312 104 256ZM15 230Q15 333 48 390Q81 447 155 447Q229 447 258.5 391.5Q288 336 288 233V200H104V183Q104 123 116.5 92Q129 61 158 61Q181 61 193 83Q205 105 208 144L285 133Q278 67 247 29.5Q216 -8 159 -8Q84 -8 49.5 47Q15 102 15 209Z" glyph-name="ecaron" horiz-adv-x="304" unicode="&#283;" /><glyph d="M201 604 258 476H201L158 549L115 476H58L114 604ZM204 256Q204 312 194 345Q184 378 155 378Q126 378 115 345Q104 312 104 256ZM15 230Q15 333 48 390Q81 447 155 447Q229 447 258.5 391.5Q288 336 288 233V200H104V183Q104 123 116.5 92Q129 61 158 61Q181 61 193 83Q205 105 208 144L285 133Q278 67 247 29.5Q216 -8 159 -8Q84 -8 49.5 47Q15 102 15 209Z" glyph-name="ecircumflex" horiz-adv-x="304" unicode="&#234;" /><glyph d="M71 591H145V493H71ZM171 591H246V493H171ZM204 256Q204 312 194 345Q184 378 155 378Q126 378 115 345Q104 312 104 256ZM15 230Q15 333 48 390Q81 447 155 447Q229 447 258.5 391.5Q288 336 288 233V200H104V183Q104 123 116.5 92Q129 61 158 61Q181 61 193 83Q205 105 208 144L285 133Q278 67 247 29.5Q216 -8 159 -8Q84 -8 49.5 47Q15 102 15 209Z" glyph-name="edieresis" horiz-adv-x="304" unicode="&#235;" /><glyph d="M204 256Q204 312 194 345Q184 378 155 378Q126 378 115 345Q104 312 104 256ZM15 230Q15 333 48 390Q81 447 155 447Q229 447 258.5 391.5Q288 336 288 233V200H104V183Q104 123 116.5 92Q129 61 158 61Q181 61 193 83Q205 105 208 144L285 133Q278 67 247 29.5Q216 -8 159 -8Q84 -8 49.5 47Q15 102 15 209ZM115 609H203V507H115Z" glyph-name="edotaccent" horiz-adv-x="304" unicode="&#279;" /><glyph d="M204 256Q204 312 194 345Q184 378 155 378Q126 378 115 345Q104 312 104 256ZM15 230Q15 333 48 390Q81 447 155 447Q229 447 258.5 391.5Q288 336 288 233V200H104V183Q104 123 116.5 92Q129 61 158 61Q181 61 193 83Q205 105 208 144L285 133Q278 67 247 29.5Q216 -8 159 -8Q84 -8 49.5 47Q15 102 15 209ZM135 482 56 612H152L191 482Z" glyph-name="egrave" horiz-adv-x="304" unicode="&#232;" /><glyph d="M171 353Q206 353 221.5 380.5Q237 408 237 459Q237 511 221.5 538.5Q206 566 171 566Q136 566 121 538.5Q106 511 106 459Q106 408 121 380.5Q136 353 171 353ZM171 64Q238 64 238 174Q238 284 171 284Q136 284 120.5 257Q105 230 105 174Q105 119 120.5 91.5Q136 64 171 64ZM171 -8Q129 -8 99.5 5.5Q70 19 51.5 42.5Q33 66 24 98.5Q15 131 15 170Q15 231 36 269Q57 307 95 318Q58 328 37.5 366.5Q17 405 17 463Q17 500 25.5 532.5Q34 565 52.5 588Q71 611 100 624.5Q129 638 171 638Q213 638 242 624.5Q271 611 289.5 588Q308 565 316.5 532.5Q325 500 325 463Q325 405 304 366.5Q283 328 246 318Q284 307 305.5 269Q327 231 327 170Q327 131 318 98.5Q309 66 290.5 42.5Q272 19 242.5 5.5Q213 -8 171 -8Z" glyph-name="eight" horiz-adv-x="342" unicode="8" /><glyph d="M18 97H115V0H18ZM143 97H240V0H143ZM268 97H365V0H268Z" glyph-name="ellipsis" horiz-adv-x="383" unicode="&#8230;" /><glyph d="M204 256Q204 312 194 345Q184 378 155 378Q126 378 115 345Q104 312 104 256ZM15 230Q15 333 48 390Q81 447 155 447Q229 447 258.5 391.5Q288 336 288 233V200H104V183Q104 123 116.5 92Q129 61 158 61Q181 61 193 83Q205 105 208 144L285 133Q278 67 247 29.5Q216 -8 159 -8Q84 -8 49.5 47Q15 102 15 209ZM74 556H242V491H74Z" glyph-name="emacron" horiz-adv-x="304" unicode="&#275;" /><glyph d="M18 287H350V223H18Z" glyph-name="emdash" horiz-adv-x="368" unicode="&#8212;" /><glyph d="M18 350H350V286H18Z" glyph-name="emdash.cap" horiz-adv-x="368" /><glyph d="M18 287H223V223H18Z" glyph-name="endash" horiz-adv-x="241" unicode="&#8211;" /><glyph d="M18 350H223V286H18Z" glyph-name="endash.cap" horiz-adv-x="241" /><glyph d="M116 0H27V439H116V390Q125 414 149 430.5Q173 447 207 447Q235 447 253.5 437.5Q272 428 283.5 412Q295 396 300 375.5Q305 355 305 333V-63Q305 -119 281.5 -147.5Q258 -176 207 -176Q175 -176 150 -163L158 -104Q170 -110 184 -110Q203 -110 209.5 -100Q216 -90 216 -68V310Q216 339 205.5 355.5Q195 372 171 372Q142 372 129 346.5Q116 321 116 284Z" glyph-name="eng" horiz-adv-x="332" unicode="&#331;" /><glyph d="M204 256Q204 312 194 345Q184 378 155 378Q126 378 115 345Q104 312 104 256ZM223 7Q197 -18 187.5 -37.5Q178 -57 178 -78Q178 -94 185.5 -102.5Q193 -111 205 -111Q218 -111 231 -106V-157Q214 -170 185 -170Q156 -170 136.5 -152Q117 -134 117 -99Q117 -73 127 -50.5Q137 -28 155 -8Q83 -6 49 49.5Q15 105 15 209V230Q15 333 48 390Q81 447 155 447Q229 447 258.5 391.5Q288 336 288 233V200H104V185Q104 124 116.5 92.5Q129 61 158 61Q181 61 193 83Q205 105 208 144L285 133Q279 82 261 53Q243 24 223 7Z" glyph-name="eogonek" horiz-adv-x="304" unicode="&#281;" /><glyph d="M36 272H363V213H36ZM36 391H363V331H36Z" glyph-name="equal" horiz-adv-x="399" unicode="=" /><glyph d="M54 510 120 537Q90 571 51 600L119 640Q141 623 160 605.5Q179 588 195 568L260 595L279 547L227 525Q265 464 282 391.5Q299 319 299 233V210Q299 107 266 49.5Q233 -8 157 -8Q82 -8 48.5 49.5Q15 107 15 210V230Q15 330 47 383.5Q79 437 145 437Q162 437 176 430.5Q190 424 198 409Q183 452 154 495L73 461ZM105 189Q105 120 116.5 91Q128 62 157 62Q186 62 198 91Q210 120 210 189V240Q210 309 198 338.5Q186 368 157 368Q128 368 116.5 338.5Q105 309 105 240Z" glyph-name="eth" horiz-adv-x="315" unicode="&#240;" /><glyph d="M119 97V0H22V97ZM49 168 22 455V630H119V455L93 168Z" glyph-name="exclam" horiz-adv-x="142" unicode="!" /><glyph d="M22 421V518H119V421ZM93 350 119 63V-112H22V63L49 350Z" glyph-name="exclamdown" horiz-adv-x="142" unicode="&#161;" /><glyph d="M119 533.0059V630H22V533.0059ZM49 462.0103 22 175.0278V0.0385H119V175.0278L93 462.0103Z" glyph-name="exclamdown.cap" horiz-adv-x="142" /><glyph d="M201 563Q192 567 184 568.5Q176 570 165 570Q143 570 135.5 556Q128 542 128 522V439H189V376H128V0H39V376H1V439H39V512Q39 569 66.5 603.5Q94 638 153 638Q171 638 183.5 636Q196 634 207 629Z" glyph-name="f" horiz-adv-x="193" unicode="f" /><glyph d="M195 562Q180 569 163 569Q143 569 135.5 555Q128 541 128 521V439H187V376H128V0H39V376H1V439H39V512Q39 569 66 603.5Q93 638 147 638Q162 638 173 636Q184 634 195 629ZM308 162Q308 117 321 91.5Q334 66 360 66Q389 66 401 96Q413 126 413 188V252Q413 313 401 343Q389 373 360 373Q334 373 321 348Q308 323 308 278ZM308 389Q317 414 338.5 430.5Q360 447 392 447Q452 447 478 393.5Q504 340 504 240V199Q504 99 478 45.5Q452 -8 392 -8Q360 -8 338.5 8.5Q317 25 308 50L298 0H219V630H308Z" glyph-name="f_b" horiz-adv-x="521" /><glyph d="M219 512Q219 569 246 603.5Q273 638 327 638Q342 638 353 636Q364 634 375 629V562Q360 569 343 569Q323 569 315.5 555Q308 541 308 521V439H367V376H308V0H219V376H128V0H39V376H1V439H39V505Q39 562 66.5 596.5Q94 631 151 631Q168 631 180 629Q192 627 203 622L196 557Q183 564 165 564Q143 564 135.5 549.5Q128 535 128 515V439H219ZM488 162Q488 117 501 91.5Q514 66 540 66Q569 66 581 96Q593 126 593 188V252Q593 313 581 343Q569 373 540 373Q514 373 501 348Q488 323 488 278ZM488 389Q497 414 518.5 430.5Q540 447 572 447Q632 447 658 393.5Q684 340 684 240V199Q684 99 658 45.5Q632 -8 572 -8Q540 -8 518.5 8.5Q497 25 488 50L478 0H399V630H488Z" glyph-name="f_f_b" horiz-adv-x="701" /><glyph d="M219 512Q219 569 246 603.5Q273 638 327 638Q342 638 353 636Q364 634 375 629V562Q360 569 343 569Q323 569 315.5 555Q308 541 308 521V439H367V376H308V0H219V376H128V0H39V376H1V439H39V505Q39 562 66.5 596.5Q94 631 151 631Q168 631 180 629Q192 627 203 622L196 557Q183 564 165 564Q143 564 135.5 549.5Q128 535 128 515V439H219ZM488 0H399V630H488V390Q497 414 521 430.5Q545 447 579 447Q607 447 625.5 437.5Q644 428 655.5 412Q667 396 672 375.5Q677 355 677 333V0H588V310Q588 339 577.5 355.5Q567 372 543 372Q514 372 501 346.5Q488 321 488 284Z" glyph-name="f_f_h" horiz-adv-x="704" /><glyph d="M219 512Q219 569 246 603.5Q273 638 327 638Q342 638 353 636Q364 634 375 629V562Q360 569 343 569Q323 569 315.5 555Q308 541 308 521V439H367V376H308V0H219V376H128V0H39V376H1V439H39V505Q39 562 66.5 596.5Q94 631 151 631Q168 631 180 629Q192 627 203 622L196 557Q183 564 165 564Q143 564 135.5 549.5Q128 535 128 515V439H219ZM488 -61Q488 -116 464.5 -145Q441 -174 390 -174Q359 -174 333 -161L341 -101Q353 -107 367 -107Q386 -107 392.5 -97Q399 -87 399 -66V439H488ZM399 609H488V507H399Z" glyph-name="f_f_j" horiz-adv-x="515" /><glyph d="M219 512Q219 569 246 603.5Q273 638 327 638Q342 638 353 636Q364 634 375 629V562Q360 569 343 569Q323 569 315.5 555Q308 541 308 521V439H367V376H308V0H219V376H128V0H39V376H1V439H39V505Q39 562 66.5 596.5Q94 631 151 631Q168 631 180 629Q192 627 203 622L196 557Q183 564 165 564Q143 564 135.5 549.5Q128 535 128 515V439H219ZM488 0H399V630H488V238L605 439H689L582 251L696 0H603L518 183L488 128Z" glyph-name="f_f_k" horiz-adv-x="698" /><glyph d="M195 562Q180 569 163 569Q143 569 135.5 555Q128 541 128 521V439H187V376H128V0H39V376H1V439H39V512Q39 569 66 603.5Q93 638 147 638Q162 638 173 636Q184 634 195 629ZM308 0H219V630H308V390Q317 414 341 430.5Q365 447 399 447Q427 447 445.5 437.5Q464 428 475.5 412Q487 396 492 375.5Q497 355 497 333V0H408V310Q408 339 397.5 355.5Q387 372 363 372Q334 372 321 346.5Q308 321 308 284Z" glyph-name="f_h" horiz-adv-x="524" /><glyph d="M195 562Q180 569 163 569Q143 569 135.5 555Q128 541 128 521V439H187V376H128V0H39V376H1V439H39V512Q39 569 66 603.5Q93 638 147 638Q162 638 173 636Q184 634 195 629ZM308 -61Q308 -116 284.5 -145Q261 -174 210 -174Q179 -174 153 -161L161 -101Q173 -107 187 -107Q206 -107 212.5 -97Q219 -87 219 -66V439H308ZM219 609H308V507H219Z" glyph-name="f_j" horiz-adv-x="335" /><glyph d="M195 562Q180 569 163 569Q143 569 135.5 555Q128 541 128 521V439H187V376H128V0H39V376H1V439H39V512Q39 569 66 603.5Q93 638 147 638Q162 638 173 636Q184 634 195 629ZM308 0H219V630H308V238L425 439H509L402 251L516 0H423L338 183L308 128Z" glyph-name="f_k" horiz-adv-x="518" /><glyph d="M381 563Q372 567 364.5 568.5Q357 570 346 570Q323 570 315.5 556Q308 542 308 522V439H370V376H308V0H220V376H128V0H39V376H1V439H39V505Q39 562 66.5 596.5Q94 631 151 631Q168 631 180 629Q192 627 203 622L196 557Q183 564 165 564Q143 564 135.5 549.5Q128 535 128 515V439H220V512Q220 569 247 603.5Q274 638 333 638Q352 638 364.5 636Q377 634 388 629Z" glyph-name="ff" horiz-adv-x="373" unicode="&#64256;" /><glyph d="M219 512Q219 569 246 603.5Q273 638 327 638Q342 638 353 636Q364 634 375 629V562Q360 569 343 569Q323 569 315.5 555Q308 541 308 521V439H367V376H308V0H219V376H128V0H39V376H1V439H39V505Q39 562 66.5 596.5Q94 631 151 631Q168 631 180 629Q192 627 203 622L196 557Q183 564 165 564Q143 564 135.5 549.5Q128 535 128 515V439H219ZM488 439V0H399V439ZM399 609H488V507H399Z" glyph-name="ffi" horiz-adv-x="515" unicode="&#64259;" /><glyph d="M219 512Q219 569 246 603.5Q273 638 327 638Q342 638 353 636Q364 634 375 629V562Q360 569 343 569Q323 569 315.5 555Q308 541 308 521V439H367V376H308V0H219V376H128V0H39V376H1V439H39V505Q39 562 66.5 596.5Q94 631 151 631Q168 631 180 629Q192 627 203 622L196 557Q183 564 165 564Q143 564 135.5 549.5Q128 535 128 515V439H219ZM488 630V0H399V630Z" glyph-name="ffl" horiz-adv-x="515" unicode="&#64260;" /><glyph d="M195 562Q180 569 163 569Q143 569 135.5 555Q128 541 128 521V439H187V376H128V0H39V376H1V439H39V512Q39 569 66 603.5Q93 638 147 638Q162 638 173 636Q184 634 195 629ZM308 439V0H219V439ZM219 609H308V507H219Z" glyph-name="fi" horiz-adv-x="335" unicode="&#64257;" /><glyph d="M23 280Q29 313 34 357.5Q39 402 42.5 449.5Q46 497 48 544Q50 591 50 630H305V546H123Q123 531 121.5 508Q120 485 118.5 460.5Q117 436 115 413.5Q113 391 111 377Q122 398 143 408Q164 418 189 418Q225 418 250.5 402.5Q276 387 291.5 359.5Q307 332 314.5 293.5Q322 255 322 209Q322 106 284 49Q246 -8 166 -8Q127 -8 99.5 5.5Q72 19 53.5 43Q35 67 25.5 100Q16 133 14 172L98 182Q100 128 116 97Q132 66 166 66Q201 66 217.5 99Q234 132 234 208Q234 270 220 307.5Q206 345 166 345Q140 345 125.5 324Q111 303 107 274L23 280Z" glyph-name="five" horiz-adv-x="339" unicode="5" /><glyph d="M195 562Q180 569 163 569Q143 569 135.5 555Q128 541 128 521V439H187V376H128V0H39V376H1V439H39V512Q39 569 66 603.5Q93 638 147 638Q162 638 173 636Q184 634 195 629ZM308 630V0H219V630Z" glyph-name="fl" horiz-adv-x="335" unicode="&#64258;" /><glyph d="M205 375H278V302H193L148 27Q137 -42 106.5 -77Q76 -112 20 -112Q12 -112 3 -111Q-6 -110 -16 -108V-31Q-10 -33 -5 -33Q0 -33 5 -33Q34 -33 46 -12Q58 9 65 51L106 302H44V375H118L138 499Q161 638 264 638Q286 638 307 631V555Q300 557 294.5 558Q289 559 283 559Q254 559 241 538Q228 517 221 475Z" glyph-name="florin" horiz-adv-x="322" unicode="&#402;" /><glyph d="M304 219H368V147H304V0H215V147H5V212L216 630H304ZM82 219H215V490Z" glyph-name="four" horiz-adv-x="374" unicode="4" /><glyph d="M302 630H366L63 0H0Z" glyph-name="fraction" horiz-adv-x="366" unicode="&#8260;" /><glyph d="M150 144Q139 144 129.5 145Q120 146 111 149Q103 143 97.5 135Q92 127 92 117Q92 103 101 95Q110 87 131 87H192Q252 87 286.5 56.5Q321 26 321 -31Q321 -66 308 -92.5Q295 -119 271.5 -137Q248 -155 216.5 -164.5Q185 -174 149 -174Q116 -174 87.5 -167Q59 -160 37.5 -146Q16 -132 4 -111.5Q-8 -91 -8 -64Q-8 -29 11.5 -8Q31 13 62 23Q40 31 29 49Q18 67 18 90Q18 116 34.5 135Q51 154 74 165Q47 183 31 215Q15 247 15 290V301Q15 370 53.5 408.5Q92 447 150 447Q201 447 239 414Q252 438 273.5 453Q295 468 318 468V388Q292 388 267 377Q275 361 280 342Q285 323 285 301V290Q285 221 246.5 182.5Q208 144 150 144ZM67 -48Q67 -80 89.5 -97Q112 -114 150 -114Q191 -114 215.5 -96Q240 -78 240 -45Q240 -17 223 -5Q206 7 180 7H127Q100 7 83.5 -8Q67 -23 67 -48ZM150 207Q175 207 186.5 230Q198 253 198 288V303Q198 338 186.5 361Q175 384 150 384Q124 384 112.5 361Q101 338 101 303V288Q101 253 112.5 230Q124 207 150 207Z" glyph-name="g" horiz-adv-x="314" unicode="g" /><glyph d="M150 144Q139 144 129.5 145Q120 146 111 149Q103 143 97.5 135Q92 127 92 117Q92 103 101 95Q110 87 131 87H192Q252 87 286.5 56.5Q321 26 321 -31Q321 -66 308 -92.5Q295 -119 271.5 -137Q248 -155 216.5 -164.5Q185 -174 149 -174Q116 -174 87.5 -167Q59 -160 37.5 -146Q16 -132 4 -111.5Q-8 -91 -8 -64Q-8 -29 11.5 -8Q31 13 62 23Q40 31 29 49Q18 67 18 90Q18 116 34.5 135Q51 154 74 165Q47 183 31 215Q15 247 15 290V301Q15 370 53.5 408.5Q92 447 150 447Q201 447 239 414Q252 438 273.5 453Q295 468 318 468V388Q292 388 267 377Q275 361 280 342Q285 323 285 301V290Q285 221 246.5 182.5Q208 144 150 144ZM67 -48Q67 -80 89.5 -97Q112 -114 150 -114Q191 -114 215.5 -96Q240 -78 240 -45Q240 -17 223 -5Q206 7 180 7H127Q100 7 83.5 -8Q67 -23 67 -48ZM150 207Q175 207 186.5 230Q198 253 198 288V303Q198 338 186.5 361Q175 384 150 384Q124 384 112.5 361Q101 338 101 303V288Q101 253 112.5 230Q124 207 150 207ZM157 476Q107 476 86 509Q65 542 65 604H123Q123 572 130 554Q137 536 157 536Q178 536 185 554Q192 572 192 604H251Q251 542 229.5 509Q208 476 157 476Z" glyph-name="gbreve" horiz-adv-x="314" unicode="&#287;" /><glyph d="M201 604 258 476H201L158 549L115 476H58L114 604ZM150 144Q139 144 129.5 145Q120 146 111 149Q103 143 97.5 135Q92 127 92 117Q92 103 101 95Q110 87 131 87H192Q252 87 286.5 56.5Q321 26 321 -31Q321 -66 308 -92.5Q295 -119 271.5 -137Q248 -155 216.5 -164.5Q185 -174 149 -174Q116 -174 87.5 -167Q59 -160 37.5 -146Q16 -132 4 -111.5Q-8 -91 -8 -64Q-8 -29 11.5 -8Q31 13 62 23Q40 31 29 49Q18 67 18 90Q18 116 34.5 135Q51 154 74 165Q47 183 31 215Q15 247 15 290V301Q15 370 53.5 408.5Q92 447 150 447Q201 447 239 414Q252 438 273.5 453Q295 468 318 468V388Q292 388 267 377Q275 361 280 342Q285 323 285 301V290Q285 221 246.5 182.5Q208 144 150 144ZM67 -48Q67 -80 89.5 -97Q112 -114 150 -114Q191 -114 215.5 -96Q240 -78 240 -45Q240 -17 223 -5Q206 7 180 7H127Q100 7 83.5 -8Q67 -23 67 -48ZM150 207Q175 207 186.5 230Q198 253 198 288V303Q198 338 186.5 361Q175 384 150 384Q124 384 112.5 361Q101 338 101 303V288Q101 253 112.5 230Q124 207 150 207Z" glyph-name="gcircumflex" horiz-adv-x="314" unicode="&#285;" /><glyph d="M201 493H113V547Q113 584 132 607Q151 630 201 630V596Q181 596 173 588Q165 580 165 561H201ZM150 144Q139 144 129.5 145Q120 146 111 149Q103 143 97.5 135Q92 127 92 117Q92 103 101 95Q110 87 131 87H192Q252 87 286.5 56.5Q321 26 321 -31Q321 -66 308 -92.5Q295 -119 271.5 -137Q248 -155 216.5 -164.5Q185 -174 149 -174Q116 -174 87.5 -167Q59 -160 37.5 -146Q16 -132 4 -111.5Q-8 -91 -8 -64Q-8 -29 11.5 -8Q31 13 62 23Q40 31 29 49Q18 67 18 90Q18 116 34.5 135Q51 154 74 165Q47 183 31 215Q15 247 15 290V301Q15 370 53.5 408.5Q92 447 150 447Q201 447 239 414Q252 438 273.5 453Q295 468 318 468V388Q292 388 267 377Q275 361 280 342Q285 323 285 301V290Q285 221 246.5 182.5Q208 144 150 144ZM67 -48Q67 -80 89.5 -97Q112 -114 150 -114Q191 -114 215.5 -96Q240 -78 240 -45Q240 -17 223 -5Q206 7 180 7H127Q100 7 83.5 -8Q67 -23 67 -48ZM150 207Q175 207 186.5 230Q198 253 198 288V303Q198 338 186.5 361Q175 384 150 384Q124 384 112.5 361Q101 338 101 303V288Q101 253 112.5 230Q124 207 150 207Z" glyph-name="gcommaaccent" horiz-adv-x="314" unicode="&#291;" /><glyph d="M150 144Q139 144 129.5 145Q120 146 111 149Q103 143 97.5 135Q92 127 92 117Q92 103 101 95Q110 87 131 87H192Q252 87 286.5 56.5Q321 26 321 -31Q321 -66 308 -92.5Q295 -119 271.5 -137Q248 -155 216.5 -164.5Q185 -174 149 -174Q116 -174 87.5 -167Q59 -160 37.5 -146Q16 -132 4 -111.5Q-8 -91 -8 -64Q-8 -29 11.5 -8Q31 13 62 23Q40 31 29 49Q18 67 18 90Q18 116 34.5 135Q51 154 74 165Q47 183 31 215Q15 247 15 290V301Q15 370 53.5 408.5Q92 447 150 447Q201 447 239 414Q252 438 273.5 453Q295 468 318 468V388Q292 388 267 377Q275 361 280 342Q285 323 285 301V290Q285 221 246.5 182.5Q208 144 150 144ZM67 -48Q67 -80 89.5 -97Q112 -114 150 -114Q191 -114 215.5 -96Q240 -78 240 -45Q240 -17 223 -5Q206 7 180 7H127Q100 7 83.5 -8Q67 -23 67 -48ZM150 207Q175 207 186.5 230Q198 253 198 288V303Q198 338 186.5 361Q175 384 150 384Q124 384 112.5 361Q101 338 101 303V288Q101 253 112.5 230Q124 207 150 207ZM114 609H202V507H114Z" glyph-name="gdotaccent" horiz-adv-x="314" unicode="&#289;" /><glyph d="M304 481Q304 429 286.5 394Q269 359 242 347Q282 334 303.5 291.5Q325 249 325 182Q325 91 289 43.5Q253 -4 193 -4Q179 -4 167 -2.5Q155 -1 145 4L150 74Q166 68 174 68Q212 68 227 99.5Q242 131 242 188Q242 238 224.5 271Q207 304 167 304Q162 304 157.5 304Q153 304 147 302V383Q152 382 156 382Q160 382 165 382Q197 382 210 406.5Q223 431 223 474Q223 512 211.5 537Q200 562 169 562Q140 562 128 538.5Q116 515 116 473V0H27V467Q27 545 62.5 591.5Q98 638 171 638Q232 638 268 597.5Q304 557 304 481Z" glyph-name="germandbls" horiz-adv-x="338" unicode="&#223;" /><glyph d="M169 482 90 612H186L225 482Z" glyph-name="grave" horiz-adv-x="316" unicode="`" /><glyph d="M169 661 90 791H186L225 661Z" glyph-name="grave.cap" horiz-adv-x="316" /><glyph d="M272 257 23 137V212L213 300L23 388V462L272 343Z" glyph-name="greater" horiz-adv-x="294" unicode="&gt;" /><glyph d="M275 123H25V186H275ZM275 307 25 209V279L209 348L25 416V486L275 389Z" glyph-name="greaterequal" horiz-adv-x="299" unicode="&#8805;" /><glyph d="M17 261 163 389V295L84 220L163 146V52L17 180ZM164 261 310 389V295L231 220L310 146V52L164 180Z" glyph-name="guillemotleft" horiz-adv-x="328" unicode="&#171;" /><glyph d="M17 360 163 488V394L84 319L163 244V151L17 278ZM164 360 310 488V394L231 319L310 244V151L164 278Z" glyph-name="guillemotleft.cap" horiz-adv-x="328" /><glyph d="M163 180 17 52V146L96 220L17 295V389L163 261ZM310 180 164 52V146L243 220L164 295V389L310 261Z" glyph-name="guillemotright" horiz-adv-x="328" unicode="&#187;" /><glyph d="M163 278 17 151V244L96 319L17 394V488L163 360ZM310 278 164 151V244L243 319L164 394V488L310 360Z" glyph-name="guillemotright.cap" horiz-adv-x="328" /><glyph d="M17 261 163 389V295L84 220L163 146V52L17 180Z" glyph-name="guilsinglleft" horiz-adv-x="180" unicode="&#8249;" /><glyph d="M17 360 163 488V394L84 319L163 244V151L17 278Z" glyph-name="guilsinglleft.cap" horiz-adv-x="180" /><glyph d="M163 180 17 52V146L96 220L17 295V389L163 261Z" glyph-name="guilsinglright" horiz-adv-x="180" unicode="&#8250;" /><glyph d="M163 278 17 151V244L96 319L17 394V488L163 360Z" glyph-name="guilsinglright.cap" horiz-adv-x="180" /><glyph d="M116 0H27V630H116V390Q125 414 149 430.5Q173 447 207 447Q235 447 253.5 437.5Q272 428 283.5 412Q295 396 300 375.5Q305 355 305 333V0H216V310Q216 339 205.5 355.5Q195 372 171 372Q142 372 129 346.5Q116 321 116 284Z" glyph-name="h" horiz-adv-x="332" unicode="h" /><glyph d="M1 556H30V630H119V556H181V500H119V390Q128 414 152 430.5Q176 447 210 447Q238 447 256.5 437.5Q275 428 286.5 412Q298 396 303 375.5Q308 355 308 333V0H219V310Q219 339 208.5 355.5Q198 372 174 372Q145 372 132 346.5Q119 321 119 284V0H30V500H1Z" glyph-name="hbar" horiz-adv-x="335" unicode="&#295;" /><glyph d="M116 0H27V630H116V390Q125 414 149 430.5Q173 447 207 447Q235 447 253.5 437.5Q272 428 283.5 412Q295 396 300 375.5Q305 355 305 333V0H216V310Q216 339 205.5 355.5Q195 372 171 372Q142 372 129 346.5Q116 321 116 284ZM209 783 266 655H209L166 728L123 655H66L122 783Z" glyph-name="hcircumflex" horiz-adv-x="332" unicode="&#293;" /><glyph d="M59 482 83 613H169L106 482ZM157 482 182 613H267L205 482Z" glyph-name="hungarumlaut" horiz-adv-x="316" unicode="&#733;" /><glyph d="M59 661 83 792H169L106 661ZM157 661 182 792H267L205 661Z" glyph-name="hungarumlaut.cap" horiz-adv-x="316" /><glyph d="M18 294H166V216H18Z" glyph-name="hyphen" horiz-adv-x="184" unicode="-" /><glyph d="M18 358H166V279H18Z" glyph-name="hyphen.cap" horiz-adv-x="184" /><glyph d="M116 439V0H27V439ZM27 609H116V507H27Z" glyph-name="i" horiz-adv-x="143" unicode="i" /><glyph d="M41 482 80 612H176L98 482ZM116 439V0H27V439Z" glyph-name="iacute" horiz-adv-x="143" unicode="&#237;" /><glyph d="M72 476Q24 476 5 508Q-14 540 -14 601H44Q44 569 49 552.5Q54 536 72 536Q89 536 94.5 552.5Q100 569 100 601H158Q158 540 139 508Q120 476 72 476ZM116 439V0H27V439Z" glyph-name="ibreve" horiz-adv-x="143" unicode="&#301;" /><glyph d="M115 604 163 476H105L72 549L39 476H-19L28 604ZM116 439V0H27V439Z" glyph-name="icircumflex" horiz-adv-x="143" unicode="&#238;" /><glyph d="M-10.8005 591.529H59.2385V492.4464H-10.8005ZM83.8467 591.529H154.8322V492.4464H83.8467ZM116 439V0H27V439Z" glyph-name="idieresis" horiz-adv-x="143" unicode="&#239;" /><glyph d="M116 439V0H27V439ZM29 609H117V507H29Z" glyph-name="idotaccent" horiz-adv-x="143" /><glyph d="M116 439V0H27V439ZM49 482 -30 612H66L105 482Z" glyph-name="igrave" horiz-adv-x="143" unicode="&#236;" /><glyph d="M116 439V0H27V439ZM27 609H116V507H27ZM249 -61Q249 -116 225.5 -145Q202 -174 151 -174Q120 -174 94 -161L102 -101Q114 -107 128 -107Q147 -107 153.5 -97Q160 -87 160 -66V439H249ZM160 609H249V507H160Z" glyph-name="ij" horiz-adv-x="276" unicode="&#307;" /><glyph d="M116 439V0H27V439ZM0.6272 556H142.8079V491H0.6272Z" glyph-name="imacron" horiz-adv-x="143" unicode="&#299;" /><glyph d="M27 609H116V507H27ZM27 0V439H116V0Q88 -25 78 -43.5Q68 -62 68 -81Q68 -96 76 -103.5Q84 -111 96 -111Q109 -111 122 -106V-157Q105 -170 75 -170Q48 -170 28 -152Q8 -134 8 -99Q8 -69 21.5 -45.5Q35 -22 55 0Z" glyph-name="iogonek" horiz-adv-x="143" unicode="&#303;" /><glyph d="M-26 485Q-26 541 -14 574Q-2 607 29 607Q43 607 53.5 598.5Q64 590 73 580Q82 570 89.5 561.5Q97 553 105 553Q113 553 117.5 566.5Q122 580 123 604H169Q169 548 157 515Q145 482 114 482Q100 482 89.5 490.5Q79 499 70.5 509Q62 519 54 527.5Q46 536 38 536Q30 536 25.5 522.5Q21 509 20 485ZM116 439V0H27V439Z" glyph-name="itilde" horiz-adv-x="143" unicode="&#297;" /><glyph d="M116 -61Q116 -116 92.5 -145Q69 -174 18 -174Q-13 -174 -39 -161L-31 -101Q-19 -107 -5 -107Q14 -107 20.5 -97Q27 -87 27 -66V439H116ZM27 609H116V507H27Z" glyph-name="j" horiz-adv-x="143" unicode="j" /><glyph d="M115 604 163 476H105L72 549L39 476H-19L28 604ZM116 -61Q116 -116 92.5 -145Q69 -174 18 -174Q-13 -174 -39 -161L-31 -101Q-19 -107 -5 -107Q14 -107 20.5 -97Q27 -87 27 -66V439H116Z" glyph-name="jcircumflex" horiz-adv-x="143" unicode="&#309;" /><glyph d="M116 0H27V630H116V238L233 439H317L210 251L324 0H231L146 183L116 128Z" glyph-name="k" horiz-adv-x="326" unicode="k" /><glyph d="M125 -35H212V-89Q212 -126 193.5 -148.5Q175 -171 125 -171V-137Q145 -137 152.5 -129.5Q160 -122 161 -102H125ZM116 0H27V630H116V238L233 439H317L210 251L324 0H231L146 183L116 128Z" glyph-name="kcommaaccent" horiz-adv-x="326" unicode="&#311;" /><glyph d="M116 0H27V439H116V238L233 439H317L210 251L324 0H231L146 183L116 128Z" glyph-name="kgreenlandic" horiz-adv-x="326" unicode="&#312;" /><glyph d="M116 630V0H27V630Z" glyph-name="l" horiz-adv-x="143" unicode="l" /><glyph d="M43 661 82 791H178L100 661ZM116 630V0H27V630Z" glyph-name="lacute" horiz-adv-x="143" unicode="&#314;" /><glyph d="M136 497 150 630H241L188 497ZM116 630V0H27V630Z" glyph-name="lcaron" horiz-adv-x="143" unicode="&#318;" /><glyph d="M28 -35H115V-89Q115 -126 96.5 -148.5Q78 -171 28 -171V-137Q48 -137 55.5 -129.5Q63 -122 64 -102H28ZM116 630V0H27V630Z" glyph-name="lcommaaccent" horiz-adv-x="143" unicode="&#316;" /><glyph d="M116 630V0H27V630ZM147.2981 337.6592H237.844V248.1104H147.2981Z" glyph-name="ldot" horiz-adv-x="235" unicode="&#320;" /><glyph d="M22 343 272 462V388L81 300L272 212V137L22 257Z" glyph-name="less" horiz-adv-x="294" unicode="&lt;" /><glyph d="M25 186H275V123H25ZM25 389 275 486V416L91 348L275 279V209L25 307Z" glyph-name="lessequal" horiz-adv-x="299" unicode="&#8804;" /><glyph d="M5 307 39 326V630H127V367L161 386V321L127 301V0H39V259L5 239Z" glyph-name="lslash" horiz-adv-x="166" unicode="&#322;" /><glyph d="M395 310Q395 338 384.5 355Q374 372 351 372Q324 372 312 347.5Q300 323 300 286V0H211V310Q211 338 200.5 355Q190 372 167 372Q140 372 128 347.5Q116 323 116 286V0H27V439H116V389Q126 415 148 431Q170 447 206 447Q242 447 263 429.5Q284 412 292 386Q301 412 326.5 429.5Q352 447 386 447Q439 447 461.5 415Q484 383 484 337V0H395Z" glyph-name="m" horiz-adv-x="511" unicode="m" /><glyph d="M74 556H242V491H74Z" glyph-name="macron" horiz-adv-x="316" unicode="&#175;" /><glyph d="M74 735H242V670H74Z" glyph-name="macron.cap" horiz-adv-x="316" /><glyph d="M30 333H357V269H30Z" glyph-name="minus" horiz-adv-x="387" unicode="&#8722;" /><glyph d="M27 394 71 439 166 343 261 439 305 394 211 299 305 205 261 161 166 256 71 161 27 205 123 299Z" glyph-name="multiply" horiz-adv-x="333" unicode="&#215;" /><glyph d="M116 0H27V439H116V390Q125 414 149 430.5Q173 447 207 447Q235 447 253.5 437.5Q272 428 283.5 412Q295 396 300 375.5Q305 355 305 333V0H216V310Q216 339 205.5 355.5Q195 372 171 372Q142 372 129 346.5Q116 321 116 284Z" glyph-name="n" horiz-adv-x="332" unicode="n" /><glyph d="M136 482 175 612H271L193 482ZM116 0H27V439H116V390Q125 414 149 430.5Q173 447 207 447Q235 447 253.5 437.5Q272 428 283.5 412Q295 396 300 375.5Q305 355 305 333V0H216V310Q216 339 205.5 355.5Q195 372 171 372Q142 372 129 346.5Q116 321 116 284Z" glyph-name="nacute" horiz-adv-x="332" unicode="&#324;" /><glyph d="M125 480 69 607H126L169 534L212 607H269L212 480ZM116 0H27V439H116V390Q125 414 149 430.5Q173 447 207 447Q235 447 253.5 437.5Q272 428 283.5 412Q295 396 300 375.5Q305 355 305 333V0H216V310Q216 339 205.5 355.5Q195 372 171 372Q142 372 129 346.5Q116 321 116 284Z" glyph-name="ncaron" horiz-adv-x="332" unicode="&#328;" /><glyph d="M124 -35H211V-89Q211 -126 192.5 -148.5Q174 -171 124 -171V-137Q144 -137 151.5 -129.5Q159 -122 160 -102H124ZM116 0H27V439H116V390Q125 414 149 430.5Q173 447 207 447Q235 447 253.5 437.5Q272 428 283.5 412Q295 396 300 375.5Q305 355 305 333V0H216V310Q216 339 205.5 355.5Q195 372 171 372Q142 372 129 346.5Q116 321 116 284Z" glyph-name="ncommaaccent" horiz-adv-x="332" unicode="&#326;" /><glyph d="M244 435Q244 495 227.5 529Q211 563 175 563Q139 563 122 529Q105 495 105 435Q105 375 122 341.5Q139 308 175 308Q211 308 227.5 341.5Q244 375 244 435ZM169 -8Q100 -8 64.5 39.5Q29 87 24 162L106 176Q109 125 123 96.5Q137 68 171 68Q208 68 226.5 116.5Q245 165 245 250V297Q234 271 209.5 254.5Q185 238 151 238Q117 238 92 252.5Q67 267 50 293Q33 319 24.5 355Q16 391 16 435Q16 478 25.5 515Q35 552 54.5 579.5Q74 607 103.5 622.5Q133 638 173 638Q259 638 297 566.5Q335 495 335 365V274Q335 136 295 64Q255 -8 169 -8Z" glyph-name="nine" horiz-adv-x="356" unicode="9" /><glyph glyph-name="nonmarkingreturn" horiz-adv-x="221" unicode="" /><glyph d="M36 390H230L282 465H340L288 390H363V332H249L207 271H363V213H167L116 139H58L109 213H36V271H149L191 332H36Z" glyph-name="notequal" horiz-adv-x="399" unicode="&#8800;" /><glyph d="M116 0H27V439H116V390Q125 414 149 430.5Q173 447 207 447Q235 447 253.5 437.5Q272 428 283.5 412Q295 396 300 375.5Q305 355 305 333V0H216V310Q216 339 205.5 355.5Q195 372 171 372Q142 372 129 346.5Q116 321 116 284ZM63 485Q63 541 75.5 574Q88 607 121 607Q135 607 147 598.5Q159 590 169.5 580Q180 570 189 561.5Q198 553 207 553Q217 553 221 566.5Q225 580 226 604H274Q274 548 261.5 515Q249 482 216 482Q202 482 190 490.5Q178 499 167.5 509Q157 519 148 527.5Q139 536 130 536Q120 536 116 522.5Q112 509 111 485Z" glyph-name="ntilde" horiz-adv-x="332" unicode="&#241;" /><glyph d="M372 172H292L262 0H196L226 172H152L122 0H55L85 172H12L23 237H97L125 400H42L53 465H137L166 630H232L203 465H277L306 630H373L344 465H413L402 400H332L304 237H383ZM163 237H237L266 400H192Z" glyph-name="numbersign" horiz-adv-x="425" unicode="#" /><glyph d="M105 191Q105 122 117 92Q129 62 157 62Q185 62 197.5 92Q210 122 210 191V248Q210 317 197.5 347.5Q185 378 157 378Q129 378 117 347.5Q105 317 105 248ZM299 210Q299 107 266 49.5Q233 -8 157 -8Q82 -8 48.5 49.5Q15 107 15 210V230Q15 333 48.5 390Q82 447 157 447Q233 447 266 390Q299 333 299 230Z" glyph-name="o" horiz-adv-x="315" unicode="o" /><glyph d="M125 482 164 612H260L182 482ZM105 191Q105 122 117 92Q129 62 157 62Q185 62 197.5 92Q210 122 210 191V248Q210 317 197.5 347.5Q185 378 157 378Q129 378 117 347.5Q105 317 105 248ZM299 210Q299 107 266 49.5Q233 -8 157 -8Q82 -8 48.5 49.5Q15 107 15 210V230Q15 333 48.5 390Q82 447 157 447Q233 447 266 390Q299 333 299 230Z" glyph-name="oacute" horiz-adv-x="315" unicode="&#243;" /><glyph d="M105 191Q105 122 117 92Q129 62 157 62Q185 62 197.5 92Q210 122 210 191V248Q210 317 197.5 347.5Q185 378 157 378Q129 378 117 347.5Q105 317 105 248ZM299 210Q299 107 266 49.5Q233 -8 157 -8Q82 -8 48.5 49.5Q15 107 15 210V230Q15 333 48.5 390Q82 447 157 447Q233 447 266 390Q299 333 299 230ZM157 476Q107 476 86 509Q65 542 65 604H123Q123 572 130 554Q137 536 157 536Q178 536 185 554Q192 572 192 604H251Q251 542 229.5 509Q208 476 157 476Z" glyph-name="obreve" horiz-adv-x="315" unicode="&#335;" /><glyph d="M201 604 258 476H201L158 549L115 476H58L114 604ZM105 191Q105 122 117 92Q129 62 157 62Q185 62 197.5 92Q210 122 210 191V248Q210 317 197.5 347.5Q185 378 157 378Q129 378 117 347.5Q105 317 105 248ZM299 210Q299 107 266 49.5Q233 -8 157 -8Q82 -8 48.5 49.5Q15 107 15 210V230Q15 333 48.5 390Q82 447 157 447Q233 447 266 390Q299 333 299 230Z" glyph-name="ocircumflex" horiz-adv-x="315" unicode="&#244;" /><glyph d="M71 591H145V493H71ZM171 591H246V493H171ZM105 191Q105 122 117 92Q129 62 157 62Q185 62 197.5 92Q210 122 210 191V248Q210 317 197.5 347.5Q185 378 157 378Q129 378 117 347.5Q105 317 105 248ZM299 210Q299 107 266 49.5Q233 -8 157 -8Q82 -8 48.5 49.5Q15 107 15 210V230Q15 333 48.5 390Q82 447 157 447Q233 447 266 390Q299 333 299 230Z" glyph-name="odieresis" horiz-adv-x="315" unicode="&#246;" /><glyph d="M347 -8Q316 -8 292 4.5Q268 17 251 40Q235 17 210.5 4.5Q186 -8 157 -8Q82 -8 48.5 49.5Q15 107 15 210V230Q15 333 48.5 390Q82 447 157 447Q186 447 209.5 433Q233 419 250 396Q266 419 290 433Q314 447 344 447Q418 447 448 391.5Q478 336 478 233V200H293V185Q293 124 306 92.5Q319 61 348 61Q371 61 382.5 83Q394 105 397 144L474 133Q467 67 435.5 29.5Q404 -8 347 -8ZM105 189Q105 120 116.5 91Q128 62 157 62Q186 62 198 91Q210 120 210 189V250Q210 319 198 348.5Q186 378 157 378Q128 378 116.5 348.5Q105 319 105 250ZM393 256Q393 312 383 345Q373 378 344 378Q315 378 304 345Q293 312 293 256Z" glyph-name="oe" horiz-adv-x="493" unicode="&#339;" /><glyph d="M217 12Q186 -21 175.5 -41Q165 -61 165 -81Q165 -96 173 -103.5Q181 -111 193 -111Q206 -111 219 -106V-157Q202 -170 173 -170Q144 -170 124 -152Q104 -134 104 -99Q104 -66 121 -39.5Q138 -13 164 12Z" glyph-name="ogonek" horiz-adv-x="316" unicode="&#731;" /><glyph d="M105 191Q105 122 117 92Q129 62 157 62Q185 62 197.5 92Q210 122 210 191V248Q210 317 197.5 347.5Q185 378 157 378Q129 378 117 347.5Q105 317 105 248ZM299 210Q299 107 266 49.5Q233 -8 157 -8Q82 -8 48.5 49.5Q15 107 15 210V230Q15 333 48.5 390Q82 447 157 447Q233 447 266 390Q299 333 299 230ZM134 482 55 612H151L190 482Z" glyph-name="ograve" horiz-adv-x="315" unicode="&#242;" /><glyph d="M80 482 104 613H190L127 482ZM178 482 203 613H288L226 482ZM105 191Q105 122 117 92Q129 62 157 62Q185 62 197.5 92Q210 122 210 191V248Q210 317 197.5 347.5Q185 378 157 378Q129 378 117 347.5Q105 317 105 248ZM299 210Q299 107 266 49.5Q233 -8 157 -8Q82 -8 48.5 49.5Q15 107 15 210V230Q15 333 48.5 390Q82 447 157 447Q233 447 266 390Q299 333 299 230Z" glyph-name="ohungarumlaut" horiz-adv-x="315" unicode="&#337;" /><glyph d="M74 556H242V491H74ZM105 191Q105 122 117 92Q129 62 157 62Q185 62 197.5 92Q210 122 210 191V248Q210 317 197.5 347.5Q185 378 157 378Q129 378 117 347.5Q105 317 105 248ZM299 210Q299 107 266 49.5Q233 -8 157 -8Q82 -8 48.5 49.5Q15 107 15 210V230Q15 333 48.5 390Q82 447 157 447Q233 447 266 390Q299 333 299 230Z" glyph-name="omacron" horiz-adv-x="315" unicode="&#333;" /><glyph d="M2 538Q30 538 47.5 543.5Q65 549 76 560.5Q87 572 94 590Q101 608 108 634H170V0H77V478H2Z" glyph-name="one" horiz-adv-x="199" unicode="1" /><glyph d="M131 51H232V0H52V43L125 116Q148 139 160 156Q172 173 172 191Q172 221 144 221Q112 221 106 172L50 183Q53 218 77 245Q101 272 144 272Q186 272 209 249Q232 226 232 191Q232 167 220 145Q208 123 182 99ZM74 589Q97 590 110 598.5Q123 607 128 630H174V361H113V550H74ZM20 334H277V298H20Z" glyph-name="onehalf" horiz-adv-x="297" unicode="&#189;" /><glyph d="M74 589Q97 590 110 598.5Q123 607 128 630H174V361H113V550H74ZM207 105H238V58H207V0H150V58H26V104L145 268H207ZM80 105H150V203ZM20 334H277V298H20Z" glyph-name="onequarter" horiz-adv-x="297" unicode="&#188;" /><glyph d="M13 589Q36 590 49 598.5Q62 607 67 630H113V361H53V550H13Z" glyph-name="onesuperior" horiz-adv-x="143" unicode="&#185;" /><glyph d="M187 323V278H30V323ZM123 493 102 477Q88 466 78.5 456Q69 446 69 429Q69 404 92 404Q108 404 115.5 418.5Q123 433 123 453ZM182 414Q182 402 192 402Q196 402 205 405V368Q191 357 169 357Q135 357 126 392Q121 377 106 367Q91 357 71 357Q42 357 26.5 374.5Q11 392 11 420Q11 437 17 450Q23 463 32.5 474Q42 485 55.5 494Q69 503 84 513L123 539V550Q123 566 119 578Q115 590 100 590Q85 590 79 576Q73 562 72 542L15 548Q18 586 38.5 611.5Q59 637 101 637Q146 637 164 613Q182 589 182 546Z" glyph-name="ordfeminine" horiz-adv-x="215" unicode="&#170;" /><glyph d="M186 278H28V323H186ZM137 516Q137 554 130.5 570Q124 586 107 586Q90 586 83 570Q76 554 76 516V476Q76 438 83 422Q90 406 107 406Q124 406 130.5 422Q137 438 137 476ZM14 501Q14 564 35.5 599.5Q57 635 107 635Q157 635 178.5 599.5Q200 564 200 501V491Q200 428 178.5 392.5Q157 357 107 357Q57 357 35.5 392.5Q14 428 14 491Z" glyph-name="ordmasculine" horiz-adv-x="214" unicode="&#186;" /><glyph d="M46 53Q15 108 15 210V230Q15 333 48.5 390Q82 447 157 447Q201 447 232 425L249 459L292 434L268 386Q299 331 299 230V210Q299 107 266 49.5Q233 -8 157 -8Q113 -8 81 13L65 -20L23 6ZM214 252Q214 259 214 265Q214 271 213 277L116 83Q123 70 133 65Q143 60 157 60Q186 60 200 89.5Q214 119 214 188ZM101 188V163L197 356Q184 379 157 379Q128 379 114.5 349.5Q101 320 101 252Z" glyph-name="oslash" horiz-adv-x="315" unicode="&#248;" /><glyph d="M46 53Q15 108 15 210V230Q15 333 48.5 390Q82 447 157 447Q201 447 232 425L249 459L292 434L268 386Q299 331 299 230V210Q299 107 266 49.5Q233 -8 157 -8Q113 -8 81 13L65 -20L23 6ZM214 252Q214 259 214 265Q214 271 213 277L116 83Q123 70 133 65Q143 60 157 60Q186 60 200 89.5Q214 119 214 188ZM101 188V163L197 356Q184 379 157 379Q128 379 114.5 349.5Q101 320 101 252ZM125 482 164 612H260L182 482Z" glyph-name="oslashacute" horiz-adv-x="315" unicode="&#511;" /><glyph d="M105 191Q105 122 117 92Q129 62 157 62Q185 62 197.5 92Q210 122 210 191V248Q210 317 197.5 347.5Q185 378 157 378Q129 378 117 347.5Q105 317 105 248ZM299 210Q299 107 266 49.5Q233 -8 157 -8Q82 -8 48.5 49.5Q15 107 15 210V230Q15 333 48.5 390Q82 447 157 447Q233 447 266 390Q299 333 299 230ZM53 485Q53 541 65.5 574Q78 607 111 607Q125 607 137 598.5Q149 590 159.5 580Q170 570 179 561.5Q188 553 197 553Q207 553 211 566.5Q215 580 216 604H264Q264 548 251.5 515Q239 482 206 482Q192 482 180 490.5Q168 499 157.5 509Q147 519 138 527.5Q129 536 120 536Q110 536 106 522.5Q102 509 101 485Z" glyph-name="otilde" horiz-adv-x="315" unicode="&#245;" /><glyph d="M116 162Q116 117 129 91.5Q142 66 168 66Q197 66 209 96Q221 126 221 188V252Q221 313 209 343Q197 373 168 373Q142 373 129 348Q116 323 116 278ZM116 -166H27V439H116V389Q125 414 146.5 430.5Q168 447 200 447Q260 447 286 393.5Q312 340 312 240V199Q312 99 286 45.5Q260 -8 200 -8Q168 -8 146.5 8.5Q125 25 116 50Z" glyph-name="p" horiz-adv-x="328" unicode="p" /><glyph d="M161 330Q91 330 50.5 370Q10 410 10 480Q10 550 50.5 590Q91 630 161 630H341V0H272V561H229V0H161Z" glyph-name="paragraph" horiz-adv-x="369" unicode="&#182;" /><glyph d="M20 288Q20 338 26 388.5Q32 439 43.5 487.5Q55 536 71.5 580Q88 624 110 660H186Q137 569 119.5 475.5Q102 382 102 288Q102 194 119.5 100.5Q137 7 186 -84H110Q88 -48 71.5 -4Q55 40 43.5 88.5Q32 137 26 187.5Q20 238 20 288Z" glyph-name="parenleft" horiz-adv-x="186" unicode="(" /><glyph d="M20 305Q20 355 26 406Q32 457 43.5 505Q55 553 71.5 597Q88 641 110 677H186Q137 586 119.5 492.5Q102 399 102 305Q102 211 119.5 117.5Q137 24 186 -67H110Q88 -31 71.5 13Q55 57 43.5 105.5Q32 154 26 204.5Q20 255 20 305Z" glyph-name="parenleft.cap" horiz-adv-x="186" /><glyph d="M165 288Q165 238 159 187.5Q153 137 141.5 88.5Q130 40 113.5 -4Q97 -48 75 -84H-1Q48 7 65.5 100.5Q83 194 83 288Q83 382 65.5 475.5Q48 569 -1 660H75Q97 624 113.5 580Q130 536 141.5 487.5Q153 439 159 388.5Q165 338 165 288Z" glyph-name="parenright" horiz-adv-x="186" unicode=")" /><glyph d="M165 305Q165 255 159 204.5Q153 154 141.5 105.5Q130 57 113.5 13Q97 -31 75 -67H-1Q48 24 65.5 117.5Q83 211 83 305Q83 399 65.5 492.5Q48 586 -1 677H75Q97 641 113.5 597Q130 553 141.5 505Q153 457 159 406Q165 355 165 305Z" glyph-name="parenright.cap" horiz-adv-x="186" /><glyph d="M82 495Q82 450 92.5 430Q103 410 126 410Q150 410 160.5 430Q171 450 171 495Q171 540 160.5 560.5Q150 581 126 581Q103 581 92.5 560.5Q82 540 82 495ZM236 495Q236 429 206.5 391Q177 353 126 353Q75 353 46 391Q17 429 17 495Q17 562 46 600Q75 638 126 638Q177 638 206.5 600Q236 562 236 495ZM370 630H434L118 0H53ZM316 135Q316 89 326.5 69Q337 49 361 49Q385 49 395 69Q405 89 405 135Q405 180 395 200Q385 220 361 220Q337 220 326.5 200Q316 180 316 135ZM470 135Q470 68 441 30Q412 -8 361 -8Q310 -8 281 30Q252 68 252 135Q252 201 281 239Q310 277 361 277Q412 277 441 239Q470 201 470 135Z" glyph-name="percent" horiz-adv-x="487" unicode="%" /><glyph d="M18 97H115V0H18Z" glyph-name="period" horiz-adv-x="133" unicode="." /><glyph d="M19 292H116V195H19Z" glyph-name="periodcentered" horiz-adv-x="137" unicode="&#183;" /><glyph d="M19 360H116V263H19Z" glyph-name="periodcentered.cap" horiz-adv-x="137" /><glyph d="M85 495Q85 414 126 414Q168 414 168 495Q168 577 126 577Q85 577 85 495ZM236 495Q236 429 206.5 391Q177 353 126 353Q75 353 46 391Q17 429 17 495Q17 562 46 600Q75 638 126 638Q177 638 206.5 600Q236 562 236 495ZM370 630H434L118 0H53ZM318 135Q318 90 328 70Q338 50 361 50Q384 50 394 70Q404 90 404 135Q404 179 394 199Q384 219 361 219Q338 219 328 199Q318 179 318 135ZM470 135Q470 68 441 30Q412 -8 361 -8Q310 -8 281 30Q252 68 252 135Q252 201 281 239Q310 277 361 277Q412 277 441 239Q470 201 470 135ZM553 135Q553 90 563 70Q573 50 596 50Q619 50 629 70Q639 90 639 135Q639 179 629 199Q619 219 596 219Q573 219 563 199Q553 179 553 135ZM705 135Q705 68 676 30Q647 -8 596 -8Q545 -8 516 30Q487 68 487 135Q487 201 516 239Q545 277 596 277Q647 277 676 239Q705 201 705 135Z" glyph-name="perthousand" horiz-adv-x="722" unicode="&#8240;" /><glyph d="M225 467V335H357V271H225V139H161V271H30V335H161V467Z" glyph-name="plus" horiz-adv-x="387" unicode="+" /><glyph d="M225 489V387H354V324H225V221H162V324H34V387H162V489ZM34 186H354V123H34Z" glyph-name="plusminus" horiz-adv-x="388" unicode="&#177;" /><glyph d="M267 638Q322 638 367.5 614Q413 590 445.5 547Q478 504 496 444.5Q514 385 514 315Q514 245 496 185.5Q478 126 445.5 83Q413 40 367.5 16Q322 -8 267 -8Q212 -8 166.5 16Q121 40 88.5 83Q56 126 38 185.5Q20 245 20 315Q20 385 38 444.5Q56 504 88.5 547Q121 590 166.5 614Q212 638 267 638ZM267 595Q220 595 182.5 573.5Q145 552 119 514.5Q93 477 79 426Q65 375 65 315Q65 255 79 204Q93 153 119 115.5Q145 78 182.5 56.5Q220 35 267 35Q314 35 351.5 56.5Q389 78 415 115.5Q441 153 455 204Q469 255 469 315Q469 375 455 426Q441 477 415 514.5Q389 552 351.5 573.5Q314 595 267 595ZM269 313Q299 313 314.5 327Q330 341 330 378Q330 416 314.5 430Q299 444 269 444H247V313ZM247 126H183V500H277Q338 500 366 467.5Q394 435 394 378Q394 320 366 288Q338 256 277 256H247Z" glyph-name="published" horiz-adv-x="534" /><glyph d="M212 278Q212 323 199 348Q186 373 160 373Q131 373 119 343Q107 313 107 252V188Q107 126 119 96Q131 66 160 66Q186 66 199 91.5Q212 117 212 162ZM212 50Q203 25 181.5 8.5Q160 -8 128 -8Q68 -8 42 45.5Q16 99 16 199V240Q16 340 42 393.5Q68 447 128 447Q160 447 181.5 430.5Q203 414 212 389V439H301V-166H212Z" glyph-name="q" horiz-adv-x="328" unicode="q" /><glyph d="M112 0V97H209V0ZM164 563Q128 563 112.5 529Q97 495 94 435L9 447Q10 488 19.5 523Q29 558 48 583.5Q67 609 95.5 623.5Q124 638 163 638Q239 638 276 593.5Q313 549 313 467Q313 437 307.5 412.5Q302 388 292.5 366Q283 344 270 322.5Q257 301 243 279Q220 244 211 221.5Q202 199 202 171H119Q119 191 121 206.5Q123 222 128 237Q133 252 141 268.5Q149 285 162 306Q190 353 206.5 389.5Q223 426 223 471Q223 511 211 537Q199 563 164 563Z" glyph-name="question" horiz-adv-x="327" unicode="?" /><glyph d="M215 518V421H118V518ZM163 -45Q199 -45 214.5 -11Q230 23 233 83L318 71Q316 30 307 -5Q298 -40 279 -65.5Q260 -91 231.5 -105.5Q203 -120 164 -120Q88 -120 51 -75.5Q14 -31 14 51Q14 81 19.5 105.5Q25 130 34.5 152Q44 174 57 195Q70 216 84 239Q107 274 116 296.5Q125 319 125 347H208Q208 327 206 311.5Q204 296 199 281Q194 266 186 249.5Q178 233 165 212Q136 165 120 128.5Q104 92 104 47Q104 7 116 -19Q128 -45 163 -45Z" glyph-name="questiondown" horiz-adv-x="327" unicode="&#191;" /><glyph d="M215.0068 630V533.0059H118.0128V630ZM163.01 67.0344Q199.0078 67.0344 214.5069 101.0323Q230.0059 135.0302 233.0057 195.0266L318.0005 183.0273Q317.0006 142.0298 307.5012 107.0319Q298.0018 72.0341 279.0029 46.5356Q260.0041 21.0372 231.5058 6.5381Q203.0076 -7.9611 164.0099 -7.9611Q88.0146 -7.9611 51.0168 36.5362Q14.0191 81.0335 14.0191 163.0285Q14.0191 193.0267 19.5188 217.5252Q25.0184 242.0237 34.5179 264.0223Q44.0173 286.021 57.0165 307.5197Q70.0157 329.0184 84.0148 351.017Q107.0134 386.0149 116.0129 408.5135Q125.0123 431.0121 125.0123 459.0104H208.0073Q208.0073 439.0117 206.0074 423.5126Q204.0075 408.0135 199.0078 393.0145Q194.0081 378.0154 186.0086 361.5164Q178.0091 345.0174 165.0099 324.0187Q137.0116 277.0215 120.5126 240.5238Q104.0136 204.026 104.0136 159.0287Q104.0136 119.0312 116.0129 93.0328Q128.0121 67.0344 163.01 67.0344Z" glyph-name="questiondown.cap" horiz-adv-x="327" /><glyph d="M22 630H97V422H22ZM125 630H200V422H125Z" glyph-name="quotedbl" horiz-adv-x="222" unicode="&quot;" /><glyph d="M140 90H237V0Q237 -48 216 -70Q195 -92 140 -94V-49Q166 -48 175 -38.5Q184 -29 185 0H140ZM18 90H115V0Q115 -48 93.5 -70Q72 -92 18 -94V-49Q44 -48 53 -38.5Q62 -29 62 0H18Z" glyph-name="quotedblbase" horiz-adv-x="255" unicode="&#8222;" /><glyph d="M115 449H18V539Q18 587 39 609.5Q60 632 115 633V588Q89 587 80 577.5Q71 568 70 539H115ZM237 449H140V539Q140 587 161.5 609.5Q183 632 237 633V588Q211 587 202 577.5Q193 568 193 539H237Z" glyph-name="quotedblleft" horiz-adv-x="255" unicode="&#8220;" /><glyph d="M140 630H237V540Q237 492 216 469.5Q195 447 140 446V491Q166 492 175 501.5Q184 511 185 540H140ZM18 630H115V540Q115 492 93.5 469.5Q72 447 18 446V491Q44 492 53 501.5Q62 511 62 540H18Z" glyph-name="quotedblright" horiz-adv-x="255" unicode="&#8221;" /><glyph d="M115 449H18V539Q18 587 39 609.5Q60 632 115 633V588Q89 587 80 577.5Q71 568 70 539H115Z" glyph-name="quoteleft" horiz-adv-x="133" unicode="&#8216;" /><glyph d="M18 630H115V540Q115 492 93.5 469.5Q72 447 18 446V491Q44 492 53 501.5Q62 511 62 540H18Z" glyph-name="quoteright" horiz-adv-x="133" unicode="&#8217;" /><glyph d="M18 90H115V0Q115 -48 93.5 -70Q72 -92 18 -94V-49Q44 -48 53 -38.5Q62 -29 62 0H18Z" glyph-name="quotesinglbase" horiz-adv-x="133" unicode="&#8218;" /><glyph d="M22 630H102V422H22Z" glyph-name="quotesingle" horiz-adv-x="125" unicode="&apos;" /><glyph d="M221 355Q212 358 203 359.5Q194 361 182 361Q143 361 129.5 332.5Q116 304 116 264V0H27V439H116V381Q124 414 145 429Q166 444 196 444Q204 444 211.5 443Q219 442 225 440Z" glyph-name="r" horiz-adv-x="226" unicode="r" /><glyph d="M93 482 132 612H228L150 482ZM221 355Q212 358 203 359.5Q194 361 182 361Q143 361 129.5 332.5Q116 304 116 264V0H27V439H116V381Q124 414 145 429Q166 444 196 444Q204 444 211.5 443Q219 442 225 440Z" glyph-name="racute" horiz-adv-x="226" unicode="&#341;" /><glyph d="M83 480 27 607H84L127 534L170 607H227L170 480ZM221 355Q212 358 203 359.5Q194 361 182 361Q143 361 129.5 332.5Q116 304 116 264V0H27V439H116V381Q124 414 145 429Q166 444 196 444Q204 444 211.5 443Q219 442 225 440Z" glyph-name="rcaron" horiz-adv-x="226" unicode="&#345;" /><glyph d="M30 -35H117V-89Q117 -126 98.5 -148.5Q80 -171 30 -171V-137Q50 -137 57.5 -129.5Q65 -122 66 -102H30ZM221 355Q212 358 203 359.5Q194 361 182 361Q143 361 129.5 332.5Q116 304 116 264V0H27V439H116V381Q124 414 145 429Q166 444 196 444Q204 444 211.5 443Q219 442 225 440Z" glyph-name="rcommaaccent" horiz-adv-x="226" unicode="&#343;" /><glyph d="M178 403Q175 408 173.5 414Q172 420 171 433Q170 447 165 452.5Q160 458 149 458H128V403H93V565H159Q185 565 198 551.5Q211 538 211 515Q211 496 203 485.5Q195 475 181 473Q204 469 207 440Q209 422 210 415Q211 408 214 403ZM149 489Q175 489 175 511Q175 533 149 533H128V489ZM278 482Q278 447 268 418.5Q258 390 240.5 370Q223 350 199 338.5Q175 327 147 327Q119 327 95.5 338.5Q72 350 54.5 370Q37 390 27 418.5Q17 447 17 482Q17 517 27 545.5Q37 574 54.5 594.5Q72 615 95.5 626.5Q119 638 147 638Q175 638 199 626.5Q223 615 240.5 594.5Q258 574 268 545.5Q278 517 278 482ZM250 482Q250 540 221.5 575.5Q193 611 147 611Q102 611 74 575.5Q46 540 46 482Q46 425 74 389.5Q102 354 147 354Q193 354 221.5 389.5Q250 425 250 482Z" glyph-name="registered" horiz-adv-x="295" unicode="&#174;" /><glyph d="M123 550Q123 533 132 523Q141 513 158 513Q175 513 184 523Q193 533 193 550Q193 567 184 577Q175 587 158 587Q141 587 132 577Q123 567 123 550ZM78 550Q78 583 100 605Q122 627 158 627Q194 627 216 605Q238 583 238 550Q238 517 216 495Q194 473 158 473Q122 473 100 495Q78 517 78 550Z" glyph-name="ring" horiz-adv-x="316" unicode="&#730;" /><glyph d="M123 729Q123 712 132 702Q141 692 158 692Q175 692 184 702Q193 712 193 729Q193 746 184 756Q175 766 158 766Q141 766 132 756Q123 746 123 729ZM78 729Q78 763 100 784.5Q122 806 158 806Q194 806 216 784.5Q238 763 238 729Q238 696 216 674Q194 652 158 652Q122 652 100 674Q78 696 78 729Z" glyph-name="ring.cap" horiz-adv-x="316" /><glyph d="M82 134Q83 99 99 79Q115 59 140 59Q163 59 174.5 73.5Q186 88 186 111Q186 133 176.5 145Q167 157 148 168L101 192Q65 210 40 240Q15 270 15 324Q15 378 48 412.5Q81 447 140 447Q199 447 229.5 412.5Q260 378 265 325L193 310Q189 339 178 360Q167 381 141 381Q121 381 109.5 367Q98 353 98 330Q98 308 107 294.5Q116 281 133 270L185 243Q203 233 218.5 222Q234 211 245.5 196Q257 181 263.5 162Q270 143 270 117Q270 58 235 25Q200 -8 141 -8Q81 -8 45.5 27.5Q10 63 7 123Z" glyph-name="s" horiz-adv-x="280" unicode="s" /><glyph d="M108 482 147 612H243L165 482ZM82 134Q83 99 99 79Q115 59 140 59Q163 59 174.5 73.5Q186 88 186 111Q186 133 176.5 145Q167 157 148 168L101 192Q65 210 40 240Q15 270 15 324Q15 378 48 412.5Q81 447 140 447Q199 447 229.5 412.5Q260 378 265 325L193 310Q189 339 178 360Q167 381 141 381Q121 381 109.5 367Q98 353 98 330Q98 308 107 294.5Q116 281 133 270L185 243Q203 233 218.5 222Q234 211 245.5 196Q257 181 263.5 162Q270 143 270 117Q270 58 235 25Q200 -8 141 -8Q81 -8 45.5 27.5Q10 63 7 123Z" glyph-name="sacute" horiz-adv-x="280" unicode="&#347;" /><glyph d="M97 480 41 607H98L141 534L184 607H241L184 480ZM82 134Q83 99 99 79Q115 59 140 59Q163 59 174.5 73.5Q186 88 186 111Q186 133 176.5 145Q167 157 148 168L101 192Q65 210 40 240Q15 270 15 324Q15 378 48 412.5Q81 447 140 447Q199 447 229.5 412.5Q260 378 265 325L193 310Q189 339 178 360Q167 381 141 381Q121 381 109.5 367Q98 353 98 330Q98 308 107 294.5Q116 281 133 270L185 243Q203 233 218.5 222Q234 211 245.5 196Q257 181 263.5 162Q270 143 270 117Q270 58 235 25Q200 -8 141 -8Q81 -8 45.5 27.5Q10 63 7 123Z" glyph-name="scaron" horiz-adv-x="280" unicode="&#353;" /><glyph d="M219 -101Q219 -137 196.5 -154.5Q174 -172 141 -172Q117 -172 96 -163.5Q75 -155 62 -141L78 -99Q89 -111 104 -119Q119 -127 136 -127Q164 -127 164 -103Q164 -84 144 -76.5Q124 -69 95 -69L120 -6Q69 0 39 34.5Q9 69 7 123L82 134Q83 99 99 79Q115 59 140 59Q163 59 174.5 73.5Q186 88 186 111Q186 133 176.5 145Q167 157 148 168L101 192Q65 210 40 240Q15 270 15 324Q15 378 48 412.5Q81 447 140 447Q199 447 229.5 412.5Q260 378 265 325L193 310Q189 339 178 360Q167 381 141 381Q121 381 109.5 367Q98 353 98 330Q98 308 107 294.5Q116 281 133 270L185 243Q203 233 218.5 222Q234 211 245.5 196Q257 181 263.5 162Q270 143 270 117Q270 62 239 30Q208 -2 156 -7L146 -32Q159 -33 172 -37.5Q185 -42 195.5 -50Q206 -58 212.5 -70.5Q219 -83 219 -101Z" glyph-name="scedilla" horiz-adv-x="280" unicode="&#351;" /><glyph d="M184 604 241 476H184L141 549L98 476H41L97 604ZM82 134Q83 99 99 79Q115 59 140 59Q163 59 174.5 73.5Q186 88 186 111Q186 133 176.5 145Q167 157 148 168L101 192Q65 210 40 240Q15 270 15 324Q15 378 48 412.5Q81 447 140 447Q199 447 229.5 412.5Q260 378 265 325L193 310Q189 339 178 360Q167 381 141 381Q121 381 109.5 367Q98 353 98 330Q98 308 107 294.5Q116 281 133 270L185 243Q203 233 218.5 222Q234 211 245.5 196Q257 181 263.5 162Q270 143 270 117Q270 58 235 25Q200 -8 141 -8Q81 -8 45.5 27.5Q10 63 7 123Z" glyph-name="scircumflex" horiz-adv-x="280" unicode="&#349;" /><glyph d="M97 -35H184V-89Q184 -126 165.5 -148.5Q147 -171 97 -171V-137Q117 -137 124.5 -129.5Q132 -122 133 -102H97ZM82 134Q83 99 99 79Q115 59 140 59Q163 59 174.5 73.5Q186 88 186 111Q186 133 176.5 145Q167 157 148 168L101 192Q65 210 40 240Q15 270 15 324Q15 378 48 412.5Q81 447 140 447Q199 447 229.5 412.5Q260 378 265 325L193 310Q189 339 178 360Q167 381 141 381Q121 381 109.5 367Q98 353 98 330Q98 308 107 294.5Q116 281 133 270L185 243Q203 233 218.5 222Q234 211 245.5 196Q257 181 263.5 162Q270 143 270 117Q270 58 235 25Q200 -8 141 -8Q81 -8 45.5 27.5Q10 63 7 123Z" glyph-name="scommaaccent" horiz-adv-x="280" unicode="&#537;" /><glyph d="M349 239Q349 204 334.5 174Q320 144 297 126Q310 110 317 89.5Q324 69 324 41Q324 -19 286.5 -58Q249 -97 186 -97Q120 -97 80 -57.5Q40 -18 35 56L104 60Q115 -28 185 -28Q213 -28 230 -11.5Q247 5 247 36Q247 56 237 71.5Q227 87 201 102L118 149Q71 174 45 209.5Q19 245 19 302Q19 337 34 366.5Q49 396 72 414Q59 431 52 451.5Q45 472 45 501Q45 561 82.5 599.5Q120 638 183 638Q249 638 288.5 598.5Q328 559 333 485L264 481Q259 524 238.5 546.5Q218 569 184 569Q156 569 139 553Q122 537 122 505Q122 486 131 470.5Q140 455 165 441L251 393Q297 367 323 331.5Q349 296 349 239ZM131 365Q126 366 123 370Q94 351 94 310Q94 281 105.5 265.5Q117 250 142 234L238 176Q241 172 246 171Q259 179 267 194.5Q275 210 275 232Q275 260 263 275.5Q251 291 227 307Z" glyph-name="section" horiz-adv-x="371" unicode="&#167;" /><glyph d="M18 97H115V0Q115 -49 94.5 -73.5Q74 -98 18 -98V-53Q44 -52 53 -41Q62 -30 62 0H18ZM18 404H115V307H18Z" glyph-name="semicolon" horiz-adv-x="133" unicode=";" /><glyph d="M5 545V630H311V560Q270 504 246 438.5Q222 373 210 301Q198 229 194.5 152.5Q191 76 191 0H92Q92 78 98 153.5Q104 229 118 298.5Q132 368 156 430.5Q180 493 218 545Z" glyph-name="seven" horiz-adv-x="316" unicode="7" /><glyph d="M111 195Q111 135 127.5 101Q144 67 180 67Q216 67 233 101Q250 135 250 195Q250 255 233 288.5Q216 322 180 322Q144 322 127.5 288.5Q111 255 111 195ZM186 638Q255 638 290.5 590.5Q326 543 331 468L249 454Q246 505 232 533.5Q218 562 184 562Q147 562 128.5 513.5Q110 465 110 380V333Q121 359 145.5 375.5Q170 392 204 392Q238 392 263 377.5Q288 363 305 337Q322 311 330.5 274.5Q339 238 339 195Q339 152 329.5 115Q320 78 300.5 50.5Q281 23 251.5 7.5Q222 -8 182 -8Q96 -8 58 63Q20 134 20 265V356Q20 494 60 566Q100 638 186 638Z" glyph-name="six" horiz-adv-x="356" unicode="6" /><glyph d="M103 660H182L71 -84H-8Z" glyph-name="slash" horiz-adv-x="186" unicode="/" /><glyph d="M111 630H190L79 0H0Z" glyph-name="slash.cap" horiz-adv-x="190" /><glyph glyph-name="space" horiz-adv-x="114" unicode=" " /><glyph d="M159 460Q159 428 165 401Q171 374 179 348H273V287H198Q205 261 210 233.5Q215 206 215 174Q215 139 206 108Q223 94 240 84.5Q257 75 278 75Q308 75 319 98Q330 121 332 173L393 164Q397 117 390 84.5Q383 52 369 31.5Q355 11 334 1.5Q313 -8 289 -8Q253 -8 226.5 8.5Q200 25 180 47Q163 21 140.5 6.5Q118 -8 90 -8Q54 -8 28 16Q2 40 2 85Q2 126 27.5 151.5Q53 177 92 177Q115 177 138 164V168Q138 204 131 232.5Q124 261 114 287H40V348H91Q83 373 77 401Q71 429 71 465Q71 502 81.5 534Q92 566 111.5 589Q131 612 158.5 625Q186 638 221 638Q292 638 328 592Q364 546 370 456L292 442Q289 499 274 527.5Q259 556 223 556Q191 556 175 529Q159 502 159 460ZM91 51Q106 51 116 64.5Q126 78 131 101Q122 109 112.5 114.5Q103 120 93 120Q61 120 61 84Q61 69 69.5 60Q78 51 91 51Z" glyph-name="sterling" horiz-adv-x="399" unicode="&#163;" /><glyph d="M40 376H0V427L13 430Q41 435 49.5 452.5Q58 470 64 501L74 552H126V439H200V376H126V105Q126 69 153 69Q165 69 175 72.5Q185 76 202 85L207 24Q168 -5 123 -5Q85 -5 62.5 15Q40 35 40 83Z" glyph-name="t" horiz-adv-x="214" unicode="t" /><glyph d="M6 284H46V376H6V427L19 430Q47 435 56 452.5Q65 470 70 501L80 552H132V439H207V376H132V284H207V221H132V105Q132 69 159 69Q172 69 181.5 72.5Q191 76 208 85L213 24Q174 -5 129 -5Q91 -5 68.5 15Q46 35 46 83V221H6Z" glyph-name="tbar" horiz-adv-x="227" unicode="&#359;" /><glyph d="M152 497 166 630H257L204 497ZM40 376H0V427L13 430Q41 435 49.5 452.5Q58 470 64 501L74 552H126V439H200V376H126V105Q126 69 153 69Q165 69 175 72.5Q185 76 202 85L207 24Q168 -5 123 -5Q85 -5 62.5 15Q40 35 40 83Z" glyph-name="tcaron" horiz-adv-x="214" unicode="&#357;" /><glyph d="M74 -35H161V-89Q161 -126 142.5 -148.5Q124 -171 74 -171V-137Q94 -137 101.5 -129.5Q109 -122 110 -102H74ZM40 376H0V427L13 430Q41 435 49.5 452.5Q58 470 64 501L74 552H126V439H200V376H126V105Q126 69 153 69Q165 69 175 72.5Q185 76 202 85L207 24Q168 -5 123 -5Q85 -5 62.5 15Q40 35 40 83Z" glyph-name="tcommaaccent" horiz-adv-x="214" unicode="&#355;" /><glyph d="M116 162Q116 117 129 91.5Q142 66 168 66Q197 66 209 96Q221 126 221 188V252Q221 313 209 343Q197 373 168 373Q142 373 129 348Q116 323 116 278ZM116 -166H27V630H116V389Q125 414 146.5 430.5Q168 447 200 447Q260 447 286 393.5Q312 340 312 240V199Q312 99 286 45.5Q260 -8 200 -8Q168 -8 146.5 8.5Q125 25 116 50Z" glyph-name="thorn" horiz-adv-x="328" unicode="&#254;" /><glyph d="M111 354Q122 352 133.5 351.5Q145 351 156 351Q191 351 208 375.5Q225 400 225 455Q225 505 211 534.5Q197 564 162 564Q130 564 113.5 532.5Q97 501 95 447L12 461Q14 496 23.5 528Q33 560 51 584.5Q69 609 96.5 623.5Q124 638 162 638Q204 638 233.5 624Q263 610 281 585.5Q299 561 307 528Q315 495 315 458Q315 400 293.5 362.5Q272 325 237 317Q273 306 294.5 270.5Q316 235 316 174Q316 134 307 100.5Q298 67 279 43Q260 19 231 5.5Q202 -8 162 -8Q121 -8 92.5 6Q64 20 45.5 45Q27 70 18.5 102.5Q10 135 9 173L93 181Q94 127 110 96.5Q126 66 161 66Q196 66 211.5 96.5Q227 127 227 181Q227 238 209.5 260Q192 282 156 282Q145 282 133.5 281.5Q122 281 111 279Z" glyph-name="three" horiz-adv-x="334" unicode="3" /><glyph d="M196 497Q214 491 225 476Q236 461 236 437Q236 401 212.5 379.5Q189 358 146 358Q105 358 80 380.5Q55 403 53 441L106 451Q108 426 119.5 415.5Q131 405 146 405Q163 405 170.5 415Q178 425 178 442Q178 477 144 477Q140 477 134.5 477Q129 477 124 476V517Q129 517 134.5 516.5Q140 516 144 516Q177 516 177 551Q177 567 169.5 576.5Q162 586 145 586Q114 586 108 543L55 551Q60 587 82.5 610.5Q105 634 145 634Q189 634 212 612.5Q235 591 235 555Q235 531 224.5 516.5Q214 502 196 497ZM207 105H238V58H207V0H150V58H26V104L145 268H207ZM80 105H150V203ZM20 334H277V298H20Z" glyph-name="threequarters" horiz-adv-x="297" unicode="&#190;" /><glyph d="M109 634Q152 634 175 612.5Q198 591 198 555Q198 531 187.5 516.5Q177 502 159 497Q177 491 188.5 476Q200 461 200 437Q200 401 176 379.5Q152 358 109 358Q69 358 43.5 380.5Q18 403 16 441L69 451Q71 426 82.5 415.5Q94 405 109 405Q126 405 134 415Q142 425 142 442Q142 460 132.5 468.5Q123 477 107 477Q103 477 98 477Q93 477 88 476V517Q93 517 98 516.5Q103 516 107 516Q141 516 141 551Q141 567 133 576.5Q125 586 109 586Q77 586 71 543L19 551Q23 587 46 610.5Q69 634 109 634Z" glyph-name="threesuperior" horiz-adv-x="218" unicode="&#179;" /><glyph d="M60 485Q60 541 72.5 574Q85 607 118 607Q132 607 144 598.5Q156 590 166.5 580Q177 570 186 561.5Q195 553 204 553Q214 553 218 566.5Q222 580 223 604H271Q271 548 258.5 515Q246 482 213 482Q199 482 187 490.5Q175 499 164.5 509Q154 519 145 527.5Q136 536 127 536Q117 536 113 522.5Q109 509 108 485Z" glyph-name="tilde" horiz-adv-x="316" unicode="&#732;" /><glyph d="M60 664Q60 720 72.5 753Q85 786 118 786Q132 786 144 777.5Q156 769 166.5 759Q177 749 186 740.5Q195 732 204 732Q214 732 218 745.5Q222 759 223 783H271Q271 727 258.5 694Q246 661 213 661Q199 661 187 669.5Q175 678 164.5 688Q154 698 145 706.5Q136 715 127 715Q117 715 113 701.5Q109 688 108 664Z" glyph-name="tilde.cap" horiz-adv-x="316" /><glyph d="M52 411V586H7V630H147V586H101V411ZM240 411 207 571H205V411H162V630H227L256 487H258L287 630H352V411H307V571H305L272 411Z" glyph-name="trademark" horiz-adv-x="373" unicode="&#8482;" /><glyph d="M122 80H320V0H12V64L158 283Q174 308 186.5 329.5Q199 351 208 372.5Q217 394 221.5 417Q226 440 226 467Q226 509 213 535Q200 561 169 561Q133 561 117.5 527.5Q102 494 99 435L14 447Q15 488 24.5 523Q34 558 53 583.5Q72 609 100.5 623.5Q129 638 168 638Q241 638 278.5 594Q316 550 316 467Q316 433 310.5 405.5Q305 378 295 353.5Q285 329 271 306Q257 283 240 258Z" glyph-name="two" horiz-adv-x="332" unicode="2" /><glyph d="M112 633Q154 633 177 610.5Q200 588 200 552Q200 528 188 506.5Q176 485 150 461L99 412H200V361H21V404L93 478Q116 501 128 517.5Q140 534 140 552Q140 583 112 583Q80 583 75 533L19 545Q22 580 45.5 606.5Q69 633 112 633Z" glyph-name="twosuperior" horiz-adv-x="224" unicode="&#178;" /><glyph d="M213 439H301V0H213V48Q203 24 180.5 8Q158 -8 124 -8Q96 -8 77.5 1.5Q59 11 47.5 27Q36 43 31.5 63.5Q27 84 27 106V439H116V130Q116 100 125.5 84Q135 68 158 68Q189 68 201 93Q213 118 213 155Z" glyph-name="u" horiz-adv-x="329" unicode="u" /><glyph d="M132 482 171 612H267L189 482ZM213 439H301V0H213V48Q203 24 180.5 8Q158 -8 124 -8Q96 -8 77.5 1.5Q59 11 47.5 27Q36 43 31.5 63.5Q27 84 27 106V439H116V130Q116 100 125.5 84Q135 68 158 68Q189 68 201 93Q213 118 213 155Z" glyph-name="uacute" horiz-adv-x="329" unicode="&#250;" /><glyph d="M213 439H301V0H213V48Q203 24 180.5 8Q158 -8 124 -8Q96 -8 77.5 1.5Q59 11 47.5 27Q36 43 31.5 63.5Q27 84 27 106V439H116V130Q116 100 125.5 84Q135 68 158 68Q189 68 201 93Q213 118 213 155ZM164 476Q114 476 93 509Q72 542 72 604H130Q130 572 137 554Q144 536 164 536Q185 536 192 554Q199 572 199 604H258Q258 542 236.5 509Q215 476 164 476Z" glyph-name="ubreve" horiz-adv-x="329" unicode="&#365;" /><glyph d="M207 604 264 476H207L164 549L121 476H64L120 604ZM213 439H301V0H213V48Q203 24 180.5 8Q158 -8 124 -8Q96 -8 77.5 1.5Q59 11 47.5 27Q36 43 31.5 63.5Q27 84 27 106V439H116V130Q116 100 125.5 84Q135 68 158 68Q189 68 201 93Q213 118 213 155Z" glyph-name="ucircumflex" horiz-adv-x="329" unicode="&#251;" /><glyph d="M77 591H151V493H77ZM177 591H252V493H177ZM213 439H301V0H213V48Q203 24 180.5 8Q158 -8 124 -8Q96 -8 77.5 1.5Q59 11 47.5 27Q36 43 31.5 63.5Q27 84 27 106V439H116V130Q116 100 125.5 84Q135 68 158 68Q189 68 201 93Q213 118 213 155Z" glyph-name="udieresis" horiz-adv-x="329" unicode="&#252;" /><glyph d="M213 439H301V0H213V48Q203 24 180.5 8Q158 -8 124 -8Q96 -8 77.5 1.5Q59 11 47.5 27Q36 43 31.5 63.5Q27 84 27 106V439H116V130Q116 100 125.5 84Q135 68 158 68Q189 68 201 93Q213 118 213 155ZM141 482 62 612H158L197 482Z" glyph-name="ugrave" horiz-adv-x="329" unicode="&#249;" /><glyph d="M213 439H301V0H213V48Q203 24 180.5 8Q158 -8 124 -8Q96 -8 77.5 1.5Q59 11 47.5 27Q36 43 31.5 63.5Q27 84 27 106V439H116V130Q116 100 125.5 84Q135 68 158 68Q189 68 201 93Q213 118 213 155ZM86 482 110 613H196L133 482ZM184 482 209 613H294L232 482Z" glyph-name="uhungarumlaut" horiz-adv-x="329" unicode="&#369;" /><glyph d="M213 439H301V0H213V48Q203 24 180.5 8Q158 -8 124 -8Q96 -8 77.5 1.5Q59 11 47.5 27Q36 43 31.5 63.5Q27 84 27 106V439H116V130Q116 100 125.5 84Q135 68 158 68Q189 68 201 93Q213 118 213 155ZM80 556H248V491H80Z" glyph-name="umacron" horiz-adv-x="329" unicode="&#363;" /><glyph d="M12 -47H233V-125H12Z" glyph-name="underscore" horiz-adv-x="245" unicode="_" /><glyph d="M195 134Q213 129 224 113.5Q235 98 235 74Q235 38 211 16.5Q187 -5 144 -5Q104 -5 79 17.5Q54 40 52 78L105 89Q107 63 118 52.5Q129 42 144 42Q161 42 169 52.5Q177 63 177 80Q177 114 142 114Q139 114 133.5 114Q128 114 123 113V155Q128 154 133.5 154Q139 154 142 154Q176 154 176 189Q176 204 168.5 213.5Q161 223 144 223Q112 223 106 180L54 189Q59 224 81.5 248Q104 272 144 272Q188 272 210.5 250.5Q233 229 233 193Q233 145 195 134ZM74 589Q97 590 110 598.5Q123 607 128 630H174V361H113V550H74ZM20 334H277V298H20Z" glyph-name="uni2153" horiz-adv-x="297" unicode="&#8531;" /><glyph d="M233 193Q233 145 195 134Q213 129 224 113.5Q235 98 235 74Q235 38 211 16.5Q187 -5 144 -5Q104 -5 79 17.5Q54 40 52 78L105 89Q107 63 118 52.5Q129 42 144 42Q161 42 169 52.5Q177 63 177 80Q177 114 142 114Q139 114 133.5 114Q128 114 123 113V155Q128 154 133.5 154Q139 154 142 154Q176 154 176 189Q176 204 168.5 213.5Q161 223 144 223Q112 223 106 180L54 189Q59 224 81.5 248Q104 272 144 272Q188 272 210.5 250.5Q233 229 233 193ZM238 552Q238 528 225.5 506.5Q213 485 187 461L137 412H238V361H58V404L130 478Q153 501 165.5 517.5Q178 534 178 552Q178 583 150 583Q118 583 112 533L56 545Q59 580 83 606.5Q107 633 150 633Q192 633 215 610.5Q238 588 238 552ZM20 334H277V298H20Z" glyph-name="uni2154" horiz-adv-x="297" unicode="&#8532;" /><glyph d="M148 156Q183 156 183 191Q183 226 148 226Q114 226 114 191Q114 156 148 156ZM148 42Q187 42 187 78Q187 114 148 114Q111 114 111 78Q111 42 148 42ZM74 589Q97 590 110 598.5Q123 607 128 630H174V361H113V550H74ZM148 -4Q106 -4 79.5 17Q53 38 53 74Q53 98 65 113.5Q77 129 95 135Q78 140 67.5 156Q57 172 57 194Q57 230 81.5 251Q106 272 148 272Q192 272 216.5 251Q241 230 241 194Q241 172 230 156Q219 140 202 135Q221 129 232.5 113.5Q244 98 244 74Q244 38 217.5 17Q191 -4 148 -4ZM20 334H277V298H20Z" glyph-name="uni215B" horiz-adv-x="297" unicode="&#8539;" /><glyph d="M234 555Q234 531 223.5 516.5Q213 502 195 497Q213 491 224 476Q235 461 235 437Q235 401 211.5 379.5Q188 358 145 358Q104 358 79 380.5Q54 403 52 441L105 451Q107 426 118.5 415.5Q130 405 145 405Q162 405 169.5 415Q177 425 177 442Q177 477 143 477Q139 477 134 477Q129 477 124 476V517Q129 517 134 516.5Q139 516 143 516Q176 516 176 551Q176 567 168.5 576.5Q161 586 144 586Q113 586 107 543L54 551Q59 587 81.5 610.5Q104 634 144 634Q188 634 211 612.5Q234 591 234 555ZM148 156Q183 156 183 191Q183 226 148 226Q114 226 114 191Q114 156 148 156ZM148 42Q187 42 187 78Q187 114 148 114Q111 114 111 78Q111 42 148 42ZM148 -4Q106 -4 79.5 17Q53 38 53 74Q53 98 65 113.5Q77 129 95 135Q78 140 67.5 156Q57 172 57 194Q57 230 81.5 251Q106 272 148 272Q192 272 216.5 251Q241 230 241 194Q241 172 230 156Q219 140 202 135Q221 129 232.5 113.5Q244 98 244 74Q244 38 217.5 17Q191 -4 148 -4ZM20 333H277V297H20Z" glyph-name="uni215C" horiz-adv-x="297" unicode="&#8540;" /><glyph d="M147 497Q134 497 126 490Q118 483 115 474L57 479Q59 494 61.5 513Q64 532 66 552.5Q68 573 69.5 593Q71 613 71 630H225V578H115Q115 573 114.5 565Q114 557 113.5 549Q113 541 112.5 533.5Q112 526 111 522Q117 530 130.5 536Q144 542 161 542Q196 542 218 520Q240 498 240 452Q240 407 215 382.5Q190 358 146 358Q107 358 82 379Q57 400 52 435L106 448Q109 428 119 416Q129 404 146 404Q183 404 183 451Q183 497 147 497ZM148 156Q183 156 183 191Q183 226 148 226Q114 226 114 191Q114 156 148 156ZM148 42Q187 42 187 78Q187 114 148 114Q111 114 111 78Q111 42 148 42ZM148 -4Q106 -4 79.5 17Q53 38 53 74Q53 98 65 113.5Q77 129 95 135Q78 140 67.5 156Q57 172 57 194Q57 230 81.5 251Q106 272 148 272Q192 272 216.5 251Q241 230 241 194Q241 172 230 156Q219 140 202 135Q221 129 232.5 113.5Q244 98 244 74Q244 38 217.5 17Q191 -4 148 -4ZM20 333H277V297H20Z" glyph-name="uni215D" horiz-adv-x="297" unicode="&#8541;" /><glyph d="M148 156Q183 156 183 191Q183 226 148 226Q114 226 114 191Q114 156 148 156ZM148 42Q187 42 187 78Q187 114 148 114Q111 114 111 78Q111 42 148 42ZM148 -4Q106 -4 79.5 17Q53 38 53 74Q53 98 65 113.5Q77 129 95 135Q78 140 67.5 156Q57 172 57 194Q57 230 81.5 251Q106 272 148 272Q192 272 216.5 251Q241 230 241 194Q241 172 230 156Q219 140 202 135Q221 129 232.5 113.5Q244 98 244 74Q244 38 217.5 17Q191 -4 148 -4ZM59 576V630H241V583Q204 535 188.5 481.5Q173 428 173 362H107Q109 430 128 480.5Q147 531 179 576ZM20 333H277V297H20Z" glyph-name="uni215E" horiz-adv-x="297" unicode="&#8542;" /><glyph d="M213 0V48Q203 24 180.5 8Q158 -8 124 -8Q96 -8 77.5 1.5Q59 11 47.5 27Q36 43 31.5 63.5Q27 84 27 106V439H116V130Q116 100 125.5 84Q135 68 158 68Q189 68 201 93Q213 118 213 155V439H301V0Q274 -25 264 -43.5Q254 -62 254 -81Q254 -96 262 -103.5Q270 -111 281 -111Q294 -111 308 -106V-157Q289 -170 261 -170Q233 -170 213 -152Q193 -134 193 -99Q193 -69 206.5 -45.5Q220 -22 241 0Z" glyph-name="uogonek" horiz-adv-x="329" unicode="&#371;" /><glyph d="M129 550Q129 533 138 523Q147 513 164 513Q181 513 190 523Q199 533 199 550Q199 567 190 577Q181 587 164 587Q147 587 138 577Q129 567 129 550ZM84 550Q84 583 106 605Q128 627 164 627Q200 627 222 605Q244 583 244 550Q244 517 222 495Q200 473 164 473Q128 473 106 495Q84 517 84 550ZM213 439H301V0H213V48Q203 24 180.5 8Q158 -8 124 -8Q96 -8 77.5 1.5Q59 11 47.5 27Q36 43 31.5 63.5Q27 84 27 106V439H116V130Q116 100 125.5 84Q135 68 158 68Q189 68 201 93Q213 118 213 155Z" glyph-name="uring" horiz-adv-x="329" unicode="&#367;" /><glyph d="M213 439H301V0H213V48Q203 24 180.5 8Q158 -8 124 -8Q96 -8 77.5 1.5Q59 11 47.5 27Q36 43 31.5 63.5Q27 84 27 106V439H116V130Q116 100 125.5 84Q135 68 158 68Q189 68 201 93Q213 118 213 155ZM60 485Q60 541 72.5 574Q85 607 118 607Q132 607 144 598.5Q156 590 166.5 580Q177 570 186 561.5Q195 553 204 553Q214 553 218 566.5Q222 580 223 604H271Q271 548 258.5 515Q246 482 213 482Q199 482 187 490.5Q175 499 164.5 509Q154 519 145 527.5Q136 536 127 536Q117 536 113 522.5Q109 509 108 485Z" glyph-name="utilde" horiz-adv-x="329" unicode="&#361;" /><glyph d="M117 0 0 439H87L159 143H163L229 439H310L200 0Z" glyph-name="v" horiz-adv-x="310" unicode="v" /><glyph d="M318 159H322L376 439H453L361 0H282L229 300H225L171 0H93L0 439H83L138 158H142L194 439H265Z" glyph-name="w" horiz-adv-x="453" unicode="w" /><glyph d="M195 482 234 612H330L252 482ZM318 159H322L376 439H453L361 0H282L229 300H225L171 0H93L0 439H83L138 158H142L194 439H265Z" glyph-name="wacute" horiz-adv-x="453" unicode="&#7811;" /><glyph d="M270 604 327 476H270L227 549L184 476H127L183 604ZM318 159H322L376 439H453L361 0H282L229 300H225L171 0H93L0 439H83L138 158H142L194 439H265Z" glyph-name="wcircumflex" horiz-adv-x="453" unicode="&#373;" /><glyph d="M140 591H214V493H140ZM240 591H315V493H240ZM318 159H322L376 439H453L361 0H282L229 300H225L171 0H93L0 439H83L138 158H142L194 439H265Z" glyph-name="wdieresis" horiz-adv-x="453" unicode="&#7813;" /><glyph d="M318 159H322L376 439H453L361 0H282L229 300H225L171 0H93L0 439H83L138 158H142L194 439H265ZM203 482 124 612H220L259 482Z" glyph-name="wgrave" horiz-adv-x="453" unicode="&#7809;" /><glyph d="M199 226 310 0H219L151 146L85 0H-1L110 222L4 439H94L157 300L219 439H305Z" glyph-name="x" horiz-adv-x="309" unicode="x" /><glyph d="M0 439H88L160 139H164L233 439H313L159 -166H75L117 -5Z" glyph-name="y" horiz-adv-x="313" unicode="y" /><glyph d="M0 439H88L160 139H164L233 439H313L159 -166H75L117 -5ZM124 482 163 612H259L181 482Z" glyph-name="yacute" horiz-adv-x="313" unicode="&#253;" /><glyph d="M0 439H88L160 139H164L233 439H313L159 -166H75L117 -5ZM201 604 258 476H201L158 549L115 476H58L114 604Z" glyph-name="ycircumflex" horiz-adv-x="313" unicode="&#375;" /><glyph d="M0 439H88L160 139H164L233 439H313L159 -166H75L117 -5ZM71 591H145V493H71ZM171 591H246V493H171Z" glyph-name="ydieresis" horiz-adv-x="313" unicode="&#255;" /><glyph d="M40 321H115L0 630H93L184 363L270 630H359L245 321H320V259H222V212H320V150H222V0H138V150H40V212H138V259H40Z" glyph-name="yen" horiz-adv-x="359" unicode="&#165;" /><glyph d="M0 439H88L160 139H164L233 439H313L159 -166H75L117 -5ZM133 482 54 612H150L189 482Z" glyph-name="ygrave" horiz-adv-x="313" unicode="&#7923;" /><glyph d="M20 372V439H257V379L110 67H258V0H16V61L163 372Z" glyph-name="z" horiz-adv-x="273" unicode="z" /><glyph d="M111 482 150 612H246L168 482ZM20 372V439H257V379L110 67H258V0H16V61L163 372Z" glyph-name="zacute" horiz-adv-x="273" unicode="&#378;" /><glyph d="M100 480 44 607H101L144 534L187 607H244L187 480ZM20 372V439H257V379L110 67H258V0H16V61L163 372Z" glyph-name="zcaron" horiz-adv-x="273" unicode="&#382;" /><glyph d="M20 372V439H257V379L110 67H258V0H16V61L163 372ZM100 609H188V507H100Z" glyph-name="zdotaccent" horiz-adv-x="273" unicode="&#380;" /><glyph d="M350 268Q350 136 312.5 64Q275 -8 185 -8Q95 -8 57.5 64Q20 136 20 268V362Q20 494 57.5 566Q95 638 185 638Q275 638 312.5 566Q350 494 350 362ZM115 224Q115 151 129.5 109.5Q144 68 185 68Q226 68 240.5 109.5Q255 151 255 224V406Q255 479 240.5 520.5Q226 562 185 562Q144 562 129.5 520.5Q115 479 115 406Z" glyph-name="zero" horiz-adv-x="370" unicode="0" /></font>
</defs>
</svg>
