<?xml version="1.0" encoding="UTF-8" standalone="no"?>
<svg width="80px" height="80px" viewBox="0 0 80 80" version="1.1" xmlns="http://www.w3.org/2000/svg" xmlns:xlink="http://www.w3.org/1999/xlink">
    <!-- Generator: Sketch 3.7.2 (28276) - http://www.bohemiancoding.com/sketch -->
    <title>ico-jornaldigital</title>
    <desc>Created with Sketch.</desc>
    <defs>
        <path d="M40,80 C62.09139,80 80,62.09139 80,40 C80,17.90861 62.09139,0 40,0 C17.90861,0 0,17.90861 0,40 C0,62.09139 17.90861,80 40,80 Z" id="path-1"></path>
        <mask id="mask-2" maskContentUnits="userSpaceOnUse" maskUnits="objectBoundingBox" x="0" y="0" width="80" height="80" fill="white">
            <use xlink:href="#path-1"></use>
        </mask>
    </defs>
    <g id="Page-1" stroke="none" stroke-width="1" fill="none" fill-rule="evenodd">
        <g id="Landing" transform="translate(-20.000000, -573.000000)">
            <g id="Group-8" transform="translate(20.000000, 471.000000)">
                <g id="Group-6" transform="translate(0.000000, 102.000000)">
                    <g id="ico-jornaldigital">
                        <g id="icon" transform="translate(22.000000, 16.000000)" fill="#00B9FF">
                            <path d="M32.6460448,0 L4.04742582,0 C2.24465968,0 0.793411765,1.45830652 0.793411765,3.25966094 L0.793411765,44.7317525 C0.793411765,46.52746 2.24465968,47.9900017 4.04742582,47.9900017 L32.6460448,47.9900017 C34.4431641,47.9900017 35.9014706,46.5288717 35.9014706,44.7317525 L35.9014706,3.25966094 C35.904294,1.45830652 34.4445758,0 32.6460448,0 L32.6460448,0 Z M18.348147,46.7688641 C17.2780635,46.7688641 16.4126792,45.9034799 16.4126792,44.834808 C16.4126792,43.7647244 17.2780635,42.8979285 18.348147,42.8979285 C19.4154072,42.8979285 20.2836148,43.7647244 20.2836148,44.834808 C20.2836148,45.9034799 19.4154072,46.7688641 18.348147,46.7688641 L18.348147,46.7688641 Z M32.6079284,41.2024531 L4.0883657,41.2024531 L4.0883657,3.91611063 L32.6079284,3.91611063 L32.6079284,41.2024531 L32.6079284,41.2024531 Z" id="Shape"></path>
                        </g>
                        <use id="Oval-207" stroke="#00B9FF" mask="url(#mask-2)" stroke-width="4" xlink:href="#path-1"></use>
                    </g>
                </g>
            </g>
        </g>
    </g>
</svg>