<?xml version="1.0" encoding="UTF-8" standalone="no"?>
<svg width="80px" height="80px" viewBox="0 0 80 80" version="1.1" xmlns="http://www.w3.org/2000/svg" xmlns:xlink="http://www.w3.org/1999/xlink">
    <!-- Generator: Sketch 3.7.2 (28276) - http://www.bohemiancoding.com/sketch -->
    <title>ico-ebooks</title>
    <desc>Created with Sketch.</desc>
    <defs>
        <path d="M40,80 C62.09139,80 80,62.09139 80,40 C80,17.90861 62.09139,0 40,0 C17.90861,0 0,17.90861 0,40 C0,62.09139 17.90861,80 40,80 Z" id="path-1"></path>
        <mask id="mask-2" maskContentUnits="userSpaceOnUse" maskUnits="objectBoundingBox" x="0" y="0" width="80" height="80" fill="white">
            <use xlink:href="#path-1"></use>
        </mask>
    </defs>
    <g id="Page-1" stroke="none" stroke-width="1" fill="none" fill-rule="evenodd">
        <g id="Landing" transform="translate(-20.000000, -875.000000)">
            <g id="Group-8" transform="translate(20.000000, 471.000000)">
                <g id="Group-6-Copy-2" transform="translate(0.000000, 404.000000)">
                    <g id="ico-ebooks">
                        <use id="Oval-207" stroke="#00B9FF" mask="url(#mask-2)" stroke-width="4" xlink:href="#path-1"></use>
                        <g id="icon" transform="translate(22.000000, 16.000000)" fill="#00B9FF">
                            <path d="M32.6470588,0 L4.04752941,0 C2.24470588,0 0.793411765,1.45835294 0.793411765,3.25976471 L0.793411765,44.7331765 C0.793411765,46.5289412 2.24470588,47.9915294 4.04752941,47.9915294 L32.6470588,47.9915294 C34.4442353,47.9915294 35.9025882,46.5303529 35.9025882,44.7331765 L35.9025882,3.25976471 C35.9054118,1.45835294 34.4456471,0 32.6470588,0 L32.6470588,0 Z M18.3487059,46.7703529 C17.2785882,46.7703529 16.4131765,45.9049412 16.4131765,44.8362353 C16.4131765,43.7661176 17.2785882,42.8992941 18.3487059,42.8992941 C19.416,42.8992941 20.2842353,43.7661176 20.2842353,44.8362353 C20.2842353,45.9049412 19.416,46.7703529 18.3487059,46.7703529 L18.3487059,46.7703529 Z M32.6089412,41.2037647 L4.08847059,41.2037647 L4.08847059,3.91623529 L32.6089412,3.91623529 L32.6089412,41.2037647 L32.6089412,41.2037647 Z M18.0235596,3.91424561 L18.0235596,18.9767456 L23.0272978,13.9730074 L27.9725342,18.9767456 L27.9725342,3.91424561 L18.0235596,3.91424561 Z" id="Shape"></path>
                        </g>
                    </g>
                </g>
            </g>
        </g>
    </g>
</svg>