<?xml version="1.0" encoding="UTF-8" standalone="no"?>
<svg width="80px" height="80px" viewBox="0 0 80 80" version="1.1" xmlns="http://www.w3.org/2000/svg" xmlns:xlink="http://www.w3.org/1999/xlink">
    <!-- Generator: Sketch 3.7.2 (28276) - http://www.bohemiancoding.com/sketch -->
    <title>ico-acervo</title>
    <desc>Created with Sketch.</desc>
    <defs>
        <path d="M40,80 C62.09139,80 80,62.09139 80,40 C80,17.90861 62.09139,0 40,0 C17.90861,0 0,17.90861 0,40 C0,62.09139 17.90861,80 40,80 Z" id="path-1"></path>
        <mask id="mask-2" maskContentUnits="userSpaceOnUse" maskUnits="objectBoundingBox" x="0" y="0" width="80" height="80" fill="white">
            <use xlink:href="#path-1"></use>
        </mask>
    </defs>
    <g id="Page-1" stroke="none" stroke-width="1" fill="none" fill-rule="evenodd">
        <g id="Landing" transform="translate(-20.000000, -774.000000)">
            <g id="Group-8" transform="translate(20.000000, 471.000000)">
                <g id="Group-6-Copy" transform="translate(0.000000, 302.000000)">
                    <g id="ico-acervo" transform="translate(0.000000, 1.000000)">
                        <use id="Oval-207" stroke="#00B9FF" mask="url(#mask-2)" stroke-width="4" xlink:href="#path-1"></use>
                        <g id="Group" transform="translate(16.000000, 22.000000)" fill="#00B9FF">
                            <path d="M47.7361111,0.458888889 L1.15277778,0.458888889 C0.645555556,0.458888889 0.232777778,0.871666667 0.232777778,1.37888889 L0.232777778,32.5477778 C0.232777778,33.0544444 0.645555556,33.4677778 1.15277778,33.4677778 L47.7361111,33.4677778 C48.2433333,33.4677778 48.6561111,33.0544444 48.6561111,32.5477778 L48.6561111,1.37888889 C48.6561111,0.871666667 48.2433333,0.458888889 47.7361111,0.458888889 L47.7361111,0.458888889 Z M46.13,27.6488889 L2.75888889,27.6488889 L2.75888889,3.37666667 L46.13,3.37666667 L46.13,27.6488889 L46.13,27.6488889 Z" id="Shape"></path>
                            <path d="M32.56764,39.1441731 L31.160143,38.3447099 C31.0245472,38.2667883 30.9337409,38.1563482 30.8840429,38.0090948 C30.5656074,37.0636053 30.4398285,35.9898827 30.3336833,34.9038889 L18.5975878,34.9038889 C18.4736496,36.0592145 18.3104437,37.2513534 17.879114,38.0686097 C17.8220533,38.1765956 17.7459724,38.2545172 17.6398272,38.3140321 L16.1752695,39.1435595 C16.0409008,39.220254 15.9777046,39.3724158 16.0175857,39.5208963 C16.0568532,39.6693768 16.1869271,39.77 16.3415431,39.77 L32.4007529,39.77 C32.5547554,39.77 32.6848292,39.6693768 32.7240968,39.5208963 C32.7633643,39.3724158 32.7013952,39.2208676 32.56764,39.1441731 L32.56764,39.1441731 Z" id="Shape"></path>
                        </g>
                    </g>
                </g>
            </g>
        </g>
    </g>
</svg>