<?xml version="1.0" encoding="UTF-8" standalone="no"?>
<svg width="80px" height="80px" viewBox="0 0 80 80" version="1.1" xmlns="http://www.w3.org/2000/svg" xmlns:xlink="http://www.w3.org/1999/xlink">
    <!-- Generator: Sketch 3.7.2 (28276) - http://www.bohemiancoding.com/sketch -->
    <title>ico-globonoticias</title>
    <desc>Created with Sketch.</desc>
    <defs>
        <path d="M40,80 C62.09139,80 80,62.09139 80,40 C80,17.90861 62.09139,0 40,0 C17.90861,0 0,17.90861 0,40 C0,62.09139 17.90861,80 40,80 Z" id="path-1"></path>
        <mask id="mask-2" maskContentUnits="userSpaceOnUse" maskUnits="objectBoundingBox" x="0" y="0" width="80" height="80" fill="white">
            <use xlink:href="#path-1"></use>
        </mask>
    </defs>
    <g id="Page-1" stroke="none" stroke-width="1" fill="none" fill-rule="evenodd">
        <g id="Landing" transform="translate(-20.000000, -673.000000)">
            <g id="Group-8" transform="translate(20.000000, 471.000000)">
                <g id="Group-6-Copy-4" transform="translate(0.000000, 202.000000)">
                    <g id="ico-globonoticias">
                        <use id="Oval-207" stroke="#00B9FF" mask="url(#mask-2)" stroke-width="4" xlink:href="#path-1"></use>
                        <g id="technology" transform="translate(26.000000, 16.000000)" fill="#00B9FF">
                            <g id="Capa_1">
                                <path d="M25.0998857,0 L3.70011429,0 C1.91725714,0 0.458057143,1.45782857 0.458057143,3.24205714 L0.458057143,44.7565714 C0.458057143,46.5408 1.91725714,48 3.70011429,48 L25.0998857,48 C26.8827429,48 28.3419429,46.5435429 28.3419429,44.7579429 L28.3419429,3.24205714 C28.3419429,1.45782857 26.8827429,0 25.0998857,0 L25.0998857,0 Z M10.9769143,2.33691429 L17.8230857,2.33691429 C18.0397714,2.33691429 18.2153143,2.51245714 18.2153143,2.73051429 C18.2153143,2.9472 18.0397714,3.12274286 17.8230857,3.12274286 L10.9769143,3.12274286 C10.7602286,3.12274286 10.5846857,2.9472 10.5846857,2.73051429 C10.5846857,2.51245714 10.7602286,2.33691429 10.9769143,2.33691429 L10.9769143,2.33691429 Z M14.4,46.3789714 C13.5044571,46.3789714 12.7789714,45.6534857 12.7789714,44.7565714 C12.7789714,43.8596571 13.5044571,43.1355429 14.4,43.1355429 C15.2955429,43.1355429 16.0210286,43.8596571 16.0210286,44.7565714 C16.0210286,45.6534857 15.2955429,46.3789714 14.4,46.3789714 L14.4,46.3789714 Z M26.0859429,42 L2.71405714,42 L2.71405714,5.14148571 L26.0859429,5.14148571 L26.0859429,42 L26.0859429,42 Z" id="Shape"></path>
                            </g>
                        </g>
                    </g>
                </g>
            </g>
        </g>
    </g>
</svg>