<?xml version="1.0" encoding="UTF-8" standalone="no"?>
<svg width="80px" height="80px" viewBox="0 0 80 80" version="1.1" xmlns="http://www.w3.org/2000/svg" xmlns:xlink="http://www.w3.org/1999/xlink">
    <!-- Generator: Sketch 3.7.2 (28276) - http://www.bohemiancoding.com/sketch -->
    <title>ico-sitw</title>
    <desc>Created with Sketch.</desc>
    <defs>
        <path d="M40,80 C62.09139,80 80,62.09139 80,40 C80,17.90861 62.09139,0 40,0 C17.90861,0 0,17.90861 0,40 C0,62.09139 17.90861,80 40,80 Z" id="path-1"></path>
        <mask id="mask-2" maskContentUnits="userSpaceOnUse" maskUnits="objectBoundingBox" x="0" y="0" width="80" height="80" fill="white">
            <use xlink:href="#path-1"></use>
        </mask>
    </defs>
    <g id="Page-1" stroke="none" stroke-width="1" fill="none" fill-rule="evenodd">
        <g id="Landing" transform="translate(-20.000000, -472.000000)">
            <g id="Group-8" transform="translate(20.000000, 471.000000)">
                <g id="Group-7">
                    <g id="ico-sitw" transform="translate(0.000000, 1.000000)">
                        <use id="Oval-207" stroke="#00B9FF" mask="url(#mask-2)" stroke-width="4" xlink:href="#path-1"></use>
                        <g id="noun_29798_cc" transform="translate(12.000000, 23.000000)" fill="#00B9FF">
                            <g id="Group">
                                <path d="M55.9848471,31.5365647 C55.9848471,31.5009882 55.9552,31.4713412 55.9196235,31.4713412 L50.4342588,31.4713412 C50.4355765,31.4693647 50.4362353,31.4667294 50.4375529,31.4647529 L32.6499765,31.4647529 C32.5768471,31.8304 32.2546824,32.1057882 31.8679529,32.1057882 L24.1972706,32.1057882 C23.8105412,32.1057882 23.4883765,31.8304 23.4159059,31.4647529 L5.62767059,31.4647529 C5.62832941,31.4667294 5.62964706,31.4693647 5.63096471,31.4713412 L0.1456,31.4713412 C0.110023529,31.4713412 0.0803764706,31.5009882 0.0803764706,31.5365647 L0.0803764706,32.3357176 C0.0803764706,32.3719529 0.0948705882,32.4035765 0.118588235,32.4272941 L0.117929412,32.4272941 C0.117929412,32.4272941 0.753694118,33.7706353 2.68668235,33.7706353 L53.3765647,33.7706353 C55.3095529,33.7706353 55.9453176,32.4272941 55.9453176,32.4272941 L55.9453176,32.4272941 C55.9690353,32.4035765 55.9841882,32.3719529 55.9841882,32.3357176 L55.9841882,31.5365647 L55.9848471,31.5365647 Z" id="Shape"></path>
                                <path d="M49.1192471,0.532988235 L6.94531765,0.532988235 C6.12574118,0.532988235 5.4544,1.20432941 5.4544,2.02390588 L5.4544,30.3744 L50.6095059,30.3744 L50.6095059,2.02390588 C50.6095059,1.20367059 49.9388235,0.532988235 49.1192471,0.532988235 L49.1192471,0.532988235 Z M28.0322824,1.25571765 C28.3452235,1.25571765 28.5982118,1.50936471 28.5982118,1.82164706 C28.5982118,2.13392941 28.3445647,2.38757647 28.0322824,2.38757647 C27.72,2.38757647 27.4663529,2.13392941 27.4663529,1.82164706 C27.4663529,1.50936471 27.7193412,1.25571765 28.0322824,1.25571765 L28.0322824,1.25571765 Z M47.9900235,27.8300235 L47.9900235,28.0592941 L8.10945882,28.0592941 L8.10945882,27.8300235 L8.10945882,3.15708235 L47.9900235,3.15708235 L47.9900235,27.8300235 L47.9900235,27.8300235 Z" id="Shape"></path>
                            </g>
                        </g>
                    </g>
                </g>
            </g>
        </g>
    </g>
</svg>