<?xml version="1.0" standalone="no"?><!DOCTYPE svg PUBLIC "-//W3C//DTD SVG 1.1//EN" "http://www.w3.org/Graphics/SVG/1.1/DTD/svg11.dtd" ><svg version="1.1" xmlns="http://www.w3.org/2000/svg"><defs><font horiz-adv-x="0" id="font"><font-face ascent="830" bbox="-59 -214 999 944" cap-height="630" descent="-170" font-family="Copyright Klim Type Foundry" font-stretch="condensed" font-style="normal" font-weight="700" units-per-em="1000" x-height="446" /><missing-glyph horiz-adv-x="608" /><glyph d="M368 630 546 0H387L354 126H179L146 0H0L178 630ZM212 250H322L270 449H266Z" glyph-name="A" horiz-adv-x="546" unicode="A" /><glyph d="M351 129H204L152 0H0L263 630H727V500H506V383H666V255H506V130H729V0H351ZM255 253H351V480H347Z" glyph-name="AE" horiz-adv-x="753" unicode="&#198;" /><glyph d="M351 129H204L152 0H0L263 630H727V500H506V383H666V255H506V130H729V0H351ZM255 253H351V480H347ZM412 666 464 806H613L519 666Z" glyph-name="AEacute" horiz-adv-x="753" unicode="&#508;" /><glyph d="M368 630 546 0H387L354 126H179L146 0H0L178 630ZM212 250H322L270 449H266ZM217 666 269 806H418L324 666Z" glyph-name="Aacute" horiz-adv-x="546" unicode="&#193;" /><glyph d="M368 630 546 0H387L354 126H179L146 0H0L178 630ZM212 250H322L270 449H266ZM273 661Q209 661 173.5 700Q138 739 138 806H224Q224 779 237.5 765Q251 751 273 751Q296 751 309.5 765Q323 779 323 806H409Q409 739 373.5 700Q338 661 273 661Z" glyph-name="Abreve" horiz-adv-x="546" unicode="&#258;" /><glyph d="M368 630 546 0H387L354 126H179L146 0H0L178 630ZM212 250H322L270 449H266ZM345 806 428 663H332L273 724L215 663H119L202 806Z" glyph-name="Acircumflex" horiz-adv-x="546" unicode="&#194;" /><glyph d="M368 630 546 0H387L354 126H179L146 0H0L178 630ZM212 250H322L270 449H266ZM134 792H259V666H134ZM288 792H413V666H288Z" glyph-name="Adieresis" horiz-adv-x="546" unicode="&#196;" /><glyph d="M368 630 546 0H387L354 126H179L146 0H0L178 630ZM212 250H322L270 449H266ZM220 666 125 806H275L326 666Z" glyph-name="Agrave" horiz-adv-x="546" unicode="&#192;" /><glyph d="M368 630 546 0H387L354 126H179L146 0H0L178 630ZM212 250H322L270 449H266ZM148 768H398V667H148Z" glyph-name="Amacron" horiz-adv-x="546" unicode="&#256;" /><glyph d="M368 630 546 0H471Q445 -23 437 -35.5Q429 -48 429 -62Q429 -73 435.5 -78Q442 -83 453 -83Q469 -83 488 -75V-150Q476 -158 460.5 -163.5Q445 -169 422 -169Q388 -169 363 -150.5Q338 -132 338 -93Q338 -65 351.5 -42.5Q365 -20 387 0L354 126H179L146 0H0L178 630ZM212 250H322L270 449H266Z" glyph-name="Aogonek" horiz-adv-x="546" unicode="&#260;" /><glyph d="M368 630 546 0H387L354 126H179L146 0H0L178 630ZM212 250H322L270 449H266ZM238 744Q238 728 247 718.5Q256 709 273 709Q291 709 300 718.5Q309 728 309 744Q309 760 300 770Q291 780 273 780Q256 780 247 770Q238 760 238 744ZM177 744Q177 784 203 810.5Q229 837 273 837Q317 837 343.5 810.5Q370 784 370 744Q370 704 343.5 678Q317 652 273 652Q229 652 203 678Q177 704 177 744Z" glyph-name="Aring" horiz-adv-x="546" unicode="&#197;" /><glyph d="M212 829 253 944H412L328 829ZM234 729Q234 698 268 698Q303 698 303 729Q303 760 268 760Q234 760 234 729ZM174 729Q174 765 199.5 789Q225 813 268 813Q312 813 338 789Q364 765 364 729Q364 693 338 669Q312 645 268 645Q225 645 199.5 669Q174 693 174 729ZM368 630 546 0H387L354 126H179L146 0H0L178 630ZM212 250H322L270 449H266Z" glyph-name="Aringacute" horiz-adv-x="546" unicode="&#506;" /><glyph d="M368 630 546 0H387L354 126H179L146 0H0L178 630ZM212 250H322L270 449H266ZM128 665Q128 728 150.5 767Q173 806 217 806Q235 806 247 799.5Q259 793 269.5 785.5Q280 778 290.5 772Q301 766 314 766Q326 766 335 774.5Q344 783 346 803H418Q418 740 395.5 701Q373 662 329 662Q311 662 298.5 668Q286 674 275.5 681.5Q265 689 255 695.5Q245 702 232 702Q219 702 210.5 693.5Q202 685 200 665Z" glyph-name="Atilde" horiz-adv-x="546" unicode="&#195;" /><glyph d="M483 173Q483 91 430 45.5Q377 0 263 0H38V630H262Q316 630 354.5 617.5Q393 605 417.5 582.5Q442 560 453.5 528Q465 496 465 457Q465 403 436 368Q407 333 356 324Q412 313 447.5 277Q483 241 483 173ZM188 259V126H253Q300 126 315.5 143.5Q331 161 331 192Q331 222 315.5 240.5Q300 259 252 259ZM188 377H239Q262 377 276 382Q290 387 298 395.5Q306 404 309 415Q312 426 312 439Q312 453 309 465Q306 477 298 486Q290 495 276 500Q262 505 239 505H188Z" glyph-name="B" horiz-adv-x="498" unicode="B" /><glyph d="M185 259Q185 185 207.5 152.5Q230 120 273 120Q311 120 328.5 151Q346 182 351 236L495 205Q489 159 473.5 119.5Q458 80 431 51Q404 22 365 5.5Q326 -11 272 -11Q209 -11 162 11Q115 33 84 73Q53 113 37.5 169Q22 225 22 293V337Q22 405 37.5 461Q53 517 84 557Q115 597 162 619Q209 641 272 641Q326 641 365.5 624.5Q405 608 432 579Q459 550 474.5 510Q490 470 495 423L351 396Q346 450 328.5 480Q311 510 273 510Q230 510 207.5 477.5Q185 445 185 371V259Z" glyph-name="C" horiz-adv-x="528" unicode="C" /><glyph d="M185 259Q185 185 207.5 152.5Q230 120 273 120Q311 120 328.5 151Q346 182 351 236L495 205Q489 159 473.5 119.5Q458 80 431 51Q404 22 365 5.5Q326 -11 272 -11Q209 -11 162 11Q115 33 84 73Q53 113 37.5 169Q22 225 22 293V337Q22 405 37.5 461Q53 517 84 557Q115 597 162 619Q209 641 272 641Q326 641 365.5 624.5Q405 608 432 579Q459 550 474.5 510Q490 470 495 423L351 396Q346 450 328.5 480Q311 510 273 510Q230 510 207.5 477.5Q185 445 185 371V259ZM218 666 270 806H419L325 666Z" glyph-name="Cacute" horiz-adv-x="528" unicode="&#262;" /><glyph d="M185 259Q185 185 207.5 152.5Q230 120 273 120Q311 120 328.5 151Q346 182 351 236L495 205Q489 159 473.5 119.5Q458 80 431 51Q404 22 365 5.5Q326 -11 272 -11Q209 -11 162 11Q115 33 84 73Q53 113 37.5 169Q22 225 22 293V337Q22 405 37.5 461Q53 517 84 557Q115 597 162 619Q209 641 272 641Q326 641 365.5 624.5Q405 608 432 579Q459 550 474.5 510Q490 470 495 423L351 396Q346 450 328.5 480Q311 510 273 510Q230 510 207.5 477.5Q185 445 185 371V259ZM203 666 120 806H216L274 748L333 806H429L346 666Z" glyph-name="Ccaron" horiz-adv-x="528" unicode="&#268;" /><glyph d="M370 -97Q370 -138 340.5 -156.5Q311 -175 270 -175Q241 -175 214 -166.5Q187 -158 170 -144L195 -92Q209 -103 225.5 -110Q242 -117 259 -117Q287 -117 287 -97Q287 -83 267 -77.5Q247 -72 212 -72L244 -9Q188 -5 146 19Q104 43 76.5 82.5Q49 122 35.5 175.5Q22 229 22 293V337Q22 405 37.5 461Q53 517 84 557Q115 597 162 619Q209 641 272 641Q326 641 365.5 624.5Q405 608 432 579Q459 550 474.5 510Q490 470 495 423L351 396Q346 450 328.5 480Q311 510 273 510Q230 510 207.5 477.5Q185 445 185 371V259Q185 185 207.5 152.5Q230 120 273 120Q311 120 328.5 151Q346 182 351 236L495 205Q490 161 476 123Q462 85 437.5 56.5Q413 28 377.5 10.5Q342 -7 294 -10L287 -25Q321 -27 345.5 -43Q370 -59 370 -97Z" glyph-name="Ccedilla" horiz-adv-x="528" unicode="&#199;" /><glyph d="M185 259Q185 185 207.5 152.5Q230 120 273 120Q311 120 328.5 151Q346 182 351 236L495 205Q489 159 473.5 119.5Q458 80 431 51Q404 22 365 5.5Q326 -11 272 -11Q209 -11 162 11Q115 33 84 73Q53 113 37.5 169Q22 225 22 293V337Q22 405 37.5 461Q53 517 84 557Q115 597 162 619Q209 641 272 641Q326 641 365.5 624.5Q405 608 432 579Q459 550 474.5 510Q490 470 495 423L351 396Q346 450 328.5 480Q311 510 273 510Q230 510 207.5 477.5Q185 445 185 371V259ZM346 806 429 663H333L274 724L216 663H120L203 806Z" glyph-name="Ccircumflex" horiz-adv-x="528" unicode="&#264;" /><glyph d="M185 259Q185 185 207.5 152.5Q230 120 273 120Q311 120 328.5 151Q346 182 351 236L495 205Q489 159 473.5 119.5Q458 80 431 51Q404 22 365 5.5Q326 -11 272 -11Q209 -11 162 11Q115 33 84 73Q53 113 37.5 169Q22 225 22 293V337Q22 405 37.5 461Q53 517 84 557Q115 597 162 619Q209 641 272 641Q326 641 365.5 624.5Q405 608 432 579Q459 550 474.5 510Q490 470 495 423L351 396Q346 450 328.5 480Q311 510 273 510Q230 510 207.5 477.5Q185 445 185 371V259ZM200 806H350V667H200Z" glyph-name="Cdotaccent" horiz-adv-x="528" unicode="&#266;" /><glyph d="M247 126Q303 126 331.5 155.5Q360 185 360 261V369Q360 445 331.5 474.5Q303 504 247 504H196V126ZM38 630H261Q397 630 459 551.5Q521 473 521 332V298Q521 157 459 78.5Q397 0 261 0H38Z" glyph-name="D" horiz-adv-x="543" unicode="D" /><glyph d="M247 126Q303 126 331.5 155.5Q360 185 360 261V369Q360 445 331.5 474.5Q303 504 247 504H196V126ZM38 630H261Q397 630 459 551.5Q521 473 521 332V298Q521 157 459 78.5Q397 0 261 0H38ZM186 666 103 806H199L257 748L316 806H412L329 666Z" glyph-name="Dcaron" horiz-adv-x="543" unicode="&#270;" /><glyph d="M10 378H50V630H273Q409 630 471 551.5Q533 473 533 332V298Q533 157 471 78.5Q409 0 273 0H50V260H10ZM259 126Q315 126 343.5 155.5Q372 185 372 261V369Q372 445 343.5 474.5Q315 504 259 504H208V378H268V260H208V126Z" glyph-name="Dcroat" horiz-adv-x="555" unicode="&#272;" /><glyph d="M436 0H38V630H434V500H193V383H373V255H193V130H436Z" glyph-name="E" horiz-adv-x="460" unicode="E" /><glyph d="M436 0H38V630H434V500H193V383H373V255H193V130H436ZM181 666 233 806H382L288 666Z" glyph-name="Eacute" horiz-adv-x="460" unicode="&#201;" /><glyph d="M436 0H38V630H434V500H193V383H373V255H193V130H436ZM237 661Q173 661 137.5 700Q102 739 102 806H188Q188 779 201.5 765Q215 751 237 751Q260 751 273.5 765Q287 779 287 806H373Q373 739 337.5 700Q302 661 237 661Z" glyph-name="Ebreve" horiz-adv-x="460" unicode="&#276;" /><glyph d="M436 0H38V630H434V500H193V383H373V255H193V130H436ZM166 666 83 806H179L237 748L296 806H392L309 666Z" glyph-name="Ecaron" horiz-adv-x="460" unicode="&#282;" /><glyph d="M436 0H38V630H434V500H193V383H373V255H193V130H436ZM309 806 392 663H296L237 724L179 663H83L166 806Z" glyph-name="Ecircumflex" horiz-adv-x="460" unicode="&#202;" /><glyph d="M436 0H38V630H434V500H193V383H373V255H193V130H436ZM98 792H223V666H98ZM252 792H377V666H252Z" glyph-name="Edieresis" horiz-adv-x="460" unicode="&#203;" /><glyph d="M436 0H38V630H434V500H193V383H373V255H193V130H436ZM163 806H313V667H163Z" glyph-name="Edotaccent" horiz-adv-x="460" unicode="&#278;" /><glyph d="M436 0H38V630H434V500H193V383H373V255H193V130H436ZM185 666 90 806H240L291 666Z" glyph-name="Egrave" horiz-adv-x="460" unicode="&#200;" /><glyph d="M436 0H38V630H434V500H193V383H373V255H193V130H436ZM112 768H362V667H112Z" glyph-name="Emacron" horiz-adv-x="460" unicode="&#274;" /><glyph d="M187 359H183V0H38V630H186L364 300H368V630H512V32Q512 -66 463 -116Q414 -166 332 -166Q288 -166 250 -149Q212 -132 191 -106L255 -9Q266 -22 282.5 -30.5Q299 -39 316 -39Q345 -39 357.5 -22.5Q370 -6 370 38Z" glyph-name="Eng" horiz-adv-x="550" unicode="&#330;" /><glyph d="M436 0H398Q372 -23 364 -35.5Q356 -48 356 -62Q356 -73 362.5 -78Q369 -83 380 -83Q396 -83 415 -75V-150Q403 -158 387.5 -163.5Q372 -169 349 -169Q315 -169 290 -150.5Q265 -132 265 -93Q265 -65 278.5 -42.5Q292 -20 313 0H38V630H434V500H193V383H373V255H193V130H436Z" glyph-name="Eogonek" horiz-adv-x="460" unicode="&#280;" /><glyph d="M10 378H50V630H273Q409 630 471 551.5Q533 473 533 332V298Q533 157 471 78.5Q409 0 273 0H50V260H10ZM259 126Q315 126 343.5 155.5Q372 185 372 261V369Q372 445 343.5 474.5Q315 504 259 504H208V378H268V260H208V126Z" glyph-name="Eth" horiz-adv-x="555" unicode="&#208;" /><glyph d="M20 417H75Q91 519 151.5 580Q212 641 319 641Q373 641 412.5 624.5Q452 608 479 579Q506 550 521.5 510Q537 470 542 423L398 396Q393 450 375.5 480Q358 510 320 510Q285 510 261.5 488Q238 466 230 417H350L340 337H227V289H334L324 209H230Q238 162 261.5 141Q285 120 320 120Q358 120 375.5 151Q393 182 398 236L542 205Q536 159 520.5 119.5Q505 80 478 51Q451 22 412 5.5Q373 -11 319 -11Q266 -11 224.5 4.5Q183 20 152.5 48.5Q122 77 103 118Q84 159 75 209H20V289H69V293V337H20Z" glyph-name="Euro" horiz-adv-x="570" unicode="&#8364;" /><glyph d="M13 417H58Q71 519 122.5 580Q174 641 270 641Q321 641 358.5 624.5Q396 608 421.5 578Q447 548 461.5 506Q476 464 480 412L340 391Q338 454 322.5 482Q307 510 272 510Q240 510 223.5 488Q207 466 202 417H298L288 337H200V289H282L272 209H202Q207 162 223.5 141Q240 120 272 120Q307 120 322.5 147.5Q338 175 340 237L479 217Q475 165 461 123Q447 81 421.5 51Q396 21 358.5 5Q321 -11 270 -11Q175 -11 123.5 48.5Q72 108 58 209H13V289H53V293V337H13Z" glyph-name="Euro.lt" horiz-adv-x="500" /><glyph d="M38 0V630H426V500H196V366H376V238H196V0Z" glyph-name="F" horiz-adv-x="445" unicode="F" /><glyph d="M22 337Q22 405 38 461Q54 517 85.5 557Q117 597 165 619Q213 641 276 641Q330 641 370.5 624.5Q411 608 439 579Q467 550 483.5 510Q500 470 505 423L361 396Q356 450 336 480Q316 510 278 510Q235 510 210 477.5Q185 445 185 371V259Q185 185 210.5 152Q236 119 284 119Q319 119 339.5 140Q360 161 360 204V220H292V333H511V0H396L384 57Q371 23 337 6Q303 -11 252 -11Q195 -11 152 10.5Q109 32 80 72Q51 112 36.5 167Q22 222 22 290Z" glyph-name="G" horiz-adv-x="544" unicode="G" /><glyph d="M22 337Q22 405 38 461Q54 517 85.5 557Q117 597 165 619Q213 641 276 641Q330 641 370.5 624.5Q411 608 439 579Q467 550 483.5 510Q500 470 505 423L361 396Q356 450 336 480Q316 510 278 510Q235 510 210 477.5Q185 445 185 371V259Q185 185 210.5 152Q236 119 284 119Q319 119 339.5 140Q360 161 360 204V220H292V333H511V0H396L384 57Q371 23 337 6Q303 -11 252 -11Q195 -11 152 10.5Q109 32 80 72Q51 112 36.5 167Q22 222 22 290ZM276 661Q212 661 176.5 700Q141 739 141 806H227Q227 779 240.5 765Q254 751 276 751Q299 751 312.5 765Q326 779 326 806H412Q412 739 376.5 700Q341 661 276 661Z" glyph-name="Gbreve" horiz-adv-x="544" unicode="&#286;" /><glyph d="M22 337Q22 405 38 461Q54 517 85.5 557Q117 597 165 619Q213 641 276 641Q330 641 370.5 624.5Q411 608 439 579Q467 550 483.5 510Q500 470 505 423L361 396Q356 450 336 480Q316 510 278 510Q235 510 210 477.5Q185 445 185 371V259Q185 185 210.5 152Q236 119 284 119Q319 119 339.5 140Q360 161 360 204V220H292V333H511V0H396L384 57Q371 23 337 6Q303 -11 252 -11Q195 -11 152 10.5Q109 32 80 72Q51 112 36.5 167Q22 222 22 290ZM348 806 431 663H335L276 724L218 663H122L205 806Z" glyph-name="Gcircumflex" horiz-adv-x="544" unicode="&#284;" /><glyph d="M22 337Q22 405 38 461Q54 517 85.5 557Q117 597 165 619Q213 641 276 641Q330 641 370.5 624.5Q411 608 439 579Q467 550 483.5 510Q500 470 505 423L361 396Q356 450 336 480Q316 510 278 510Q235 510 210 477.5Q185 445 185 371V259Q185 185 210.5 152Q236 119 284 119Q319 119 339.5 140Q360 161 360 204V220H292V333H511V0H396L384 57Q371 23 337 6Q303 -11 252 -11Q195 -11 152 10.5Q109 32 80 72Q51 112 36.5 167Q22 222 22 290ZM209 -32H344V-107Q344 -164 310 -189Q276 -214 209 -214V-164Q236 -164 248.5 -157.5Q261 -151 262 -131H209Z" glyph-name="Gcommaaccent" horiz-adv-x="544" unicode="&#290;" /><glyph d="M22 337Q22 405 38 461Q54 517 85.5 557Q117 597 165 619Q213 641 276 641Q330 641 370.5 624.5Q411 608 439 579Q467 550 483.5 510Q500 470 505 423L361 396Q356 450 336 480Q316 510 278 510Q235 510 210 477.5Q185 445 185 371V259Q185 185 210.5 152Q236 119 284 119Q319 119 339.5 140Q360 161 360 204V220H292V333H511V0H396L384 57Q371 23 337 6Q303 -11 252 -11Q195 -11 152 10.5Q109 32 80 72Q51 112 36.5 167Q22 222 22 290ZM202 806H352V667H202Z" glyph-name="Gdotaccent" horiz-adv-x="544" unicode="&#288;" /><glyph d="M38 0V630H196V383H376V630H534V0H376V255H196V0Z" glyph-name="H" horiz-adv-x="572" unicode="H" /><glyph d="M10 534H50V630H208V534H388V630H546V534H586V416H546V0H388V206H208V0H50V416H10ZM388 324V416H208V324Z" glyph-name="Hbar" horiz-adv-x="596" unicode="&#294;" /><glyph d="M38 0V630H196V383H376V630H534V0H376V255H196V0ZM358 806 441 663H345L286 724L228 663H132L215 806Z" glyph-name="Hcircumflex" horiz-adv-x="572" unicode="&#292;" /><glyph d="M196 630V0H38V630Z" glyph-name="I" horiz-adv-x="234" unicode="I" /><glyph d="M196 630V0H38V630ZM660 630V228Q660 176 648.5 132Q637 88 610.5 56.5Q584 25 541 7Q498 -11 436 -11Q383 -11 344 5Q305 21 278 48.5Q251 76 236 113Q221 150 218 192L366 223Q369 175 386.5 147Q404 119 436 119Q473 119 486 144.5Q499 170 499 224V630Z" glyph-name="IJ" horiz-adv-x="697" unicode="&#306;" /><glyph d="M196 630V0H38V630ZM62 666 114 806H263L169 666Z" glyph-name="Iacute" horiz-adv-x="234" unicode="&#205;" /><glyph d="M196 630V0H38V630ZM118 661Q54 661 18.5 700Q-17 739 -17 806H69Q69 779 82.5 765Q96 751 118 751Q141 751 154.5 765Q168 779 168 806H254Q254 739 218.5 700Q183 661 118 661Z" glyph-name="Ibreve" horiz-adv-x="234" unicode="&#300;" /><glyph d="M196 630V0H38V630ZM190 806 273 663H177L118 724L60 663H-36L47 806Z" glyph-name="Icircumflex" horiz-adv-x="234" unicode="&#206;" /><glyph d="M196 630V0H38V630ZM-21 792H104V666H-21ZM133 792H258V666H133Z" glyph-name="Idieresis" horiz-adv-x="234" unicode="&#207;" /><glyph d="M196 630V0H38V630ZM44 806H194V667H44Z" glyph-name="Idotaccent" horiz-adv-x="234" unicode="&#304;" /><glyph d="M196 630V0H38V630ZM65 666 -30 806H120L171 666Z" glyph-name="Igrave" horiz-adv-x="234" unicode="&#204;" /><glyph d="M196 630V0H38V630ZM-7 768H243V667H-7Z" glyph-name="Imacron" horiz-adv-x="234" unicode="&#298;" /><glyph d="M196 630V0Q162 -19 149.5 -33.5Q137 -48 137 -62Q137 -73 143.5 -78Q150 -83 161 -83Q177 -83 196 -75V-150Q184 -158 168.5 -163.5Q153 -169 130 -169Q96 -169 71 -150.5Q46 -132 46 -93Q46 -65 60 -42.5Q74 -20 99 0H38V630Z" glyph-name="Iogonek" horiz-adv-x="234" unicode="&#302;" /><glyph d="M196 630V0H38V630ZM-27 665Q-27 728 -4.5 767Q18 806 62 806Q80 806 92 799.5Q104 793 114.5 785.5Q125 778 135.5 772Q146 766 159 766Q171 766 180 774.5Q189 783 191 803H263Q263 740 240.5 701Q218 662 174 662Q156 662 143.5 668Q131 674 120.5 681.5Q110 689 100 695.5Q90 702 77 702Q64 702 55.5 693.5Q47 685 45 665Z" glyph-name="Itilde" horiz-adv-x="234" unicode="&#296;" /><glyph d="M448 630V228Q448 176 436.5 132Q425 88 398.5 56.5Q372 25 329 7Q286 -11 224 -11Q171 -11 132 5Q93 21 66 48.5Q39 76 24 113Q9 150 6 192L154 223Q157 175 174.5 147Q192 119 224 119Q261 119 274 144.5Q287 170 287 224V630Z" glyph-name="J" horiz-adv-x="485" unicode="J" /><glyph d="M448 630V228Q448 176 436.5 132Q425 88 398.5 56.5Q372 25 329 7Q286 -11 224 -11Q171 -11 132 5Q93 21 66 48.5Q39 76 24 113Q9 150 6 192L154 223Q157 175 174.5 147Q192 119 224 119Q261 119 274 144.5Q287 170 287 224V630ZM445 806 528 663H432L373 724L315 663H219L302 806Z" glyph-name="Jcircumflex" horiz-adv-x="485" unicode="&#308;" /><glyph d="M368 0 239 246 196 175V0H38V630H196V353L365 630H533L360 357L545 0Z" glyph-name="K" horiz-adv-x="545" unicode="K" /><glyph d="M368 0 239 246 196 175V0H38V630H196V353L365 630H533L360 357L545 0ZM208 -32H343V-107Q343 -164 309 -189Q275 -214 208 -214V-164Q235 -164 247.5 -157.5Q260 -151 261 -131H208Z" glyph-name="Kcommaaccent" horiz-adv-x="545" unicode="&#310;" /><glyph d="M196 630V130H432V0H38V630Z" glyph-name="L" horiz-adv-x="451" unicode="L" /><glyph d="M196 630V130H432V0H38V630ZM66 666 118 806H267L173 666Z" glyph-name="Lacute" horiz-adv-x="451" unicode="&#313;" /><glyph d="M196 630V130H432V0H38V630ZM242 484 255 630H401L336 484Z" glyph-name="Lcaron" horiz-adv-x="451" unicode="&#317;" /><glyph d="M196 630V130H432V0H38V630ZM168 -32H303V-107Q303 -164 269 -189Q235 -214 168 -214V-164Q195 -164 207.5 -157.5Q220 -151 221 -131H168Z" glyph-name="Lcommaaccent" horiz-adv-x="451" unicode="&#315;" /><glyph d="M196 630V130H432V0H38V630ZM256.0126 384H395.2277V245H256.0126Z" glyph-name="Ldot" horiz-adv-x="451" unicode="&#319;" /><glyph d="M10 330 50 346V630H208V407L313 449V324L208 281V137L444 130V0H50V221L10 205Z" glyph-name="Lslash" horiz-adv-x="463" unicode="&#321;" /><glyph d="M281 0 181 420H177V0H38V630H260L338 285H342L419 630H630V0H482V420H478L377 0Z" glyph-name="M" horiz-adv-x="668" unicode="M" /><glyph d="M364 300H368V630H512V0H391L187 359H183V0H38V630H186Z" glyph-name="N" horiz-adv-x="550" unicode="N" /><glyph glyph-name="NULL" horiz-adv-x="0" /><glyph d="M364 300H368V630H512V0H391L187 359H183V0H38V630H186ZM219 666 271 806H420L326 666Z" glyph-name="Nacute" horiz-adv-x="550" unicode="&#323;" /><glyph d="M364 300H368V630H512V0H391L187 359H183V0H38V630H186ZM204 666 121 806H217L275 748L334 806H430L347 666Z" glyph-name="Ncaron" horiz-adv-x="550" unicode="&#327;" /><glyph d="M364 300H368V630H512V0H391L187 359H183V0H38V630H186ZM208 -32H343V-107Q343 -164 309 -189Q275 -214 208 -214V-164Q235 -164 247.5 -157.5Q260 -151 261 -131H208Z" glyph-name="Ncommaaccent" horiz-adv-x="550" unicode="&#325;" /><glyph d="M364 300H368V630H512V0H391L187 359H183V0H38V630H186ZM130 665Q130 728 152.5 767Q175 806 219 806Q237 806 249 799.5Q261 793 271.5 785.5Q282 778 292.5 772Q303 766 316 766Q328 766 337 774.5Q346 783 348 803H420Q420 740 397.5 701Q375 662 331 662Q313 662 300.5 668Q288 674 277.5 681.5Q267 689 257 695.5Q247 702 234 702Q221 702 212.5 693.5Q204 685 202 665Z" glyph-name="Ntilde" horiz-adv-x="550" unicode="&#209;" /><glyph d="M526 293Q526 225 510.5 169Q495 113 464 73Q433 33 385.5 11Q338 -11 274 -11Q210 -11 162.5 11Q115 33 84 73Q53 113 37.5 169Q22 225 22 293V337Q22 405 37.5 461Q53 517 84 557Q115 597 162.5 619Q210 641 274 641Q338 641 385.5 619Q433 597 464 557Q495 517 510.5 461Q526 405 526 337ZM363 371Q363 445 340 477.5Q317 510 274 510Q231 510 208 477.5Q185 445 185 371V259Q185 185 208 152.5Q231 120 274 120Q317 120 340 152.5Q363 185 363 259Z" glyph-name="O" horiz-adv-x="548" unicode="O" /><glyph d="M282 0Q214 0 164.5 20Q115 40 83.5 78.5Q52 117 37 172Q22 227 22 298V332Q22 402 37 457.5Q52 513 83.5 551.5Q115 590 164.5 610Q214 630 282 630H716V500H495V383H655V255H495V130H718V0ZM337 504H296Q240 504 211.5 474.5Q183 445 183 369V261Q183 185 211.5 155.5Q240 126 296 126H337Z" glyph-name="OE" horiz-adv-x="742" unicode="&#338;" /><glyph d="M526 293Q526 225 510.5 169Q495 113 464 73Q433 33 385.5 11Q338 -11 274 -11Q210 -11 162.5 11Q115 33 84 73Q53 113 37.5 169Q22 225 22 293V337Q22 405 37.5 461Q53 517 84 557Q115 597 162.5 619Q210 641 274 641Q338 641 385.5 619Q433 597 464 557Q495 517 510.5 461Q526 405 526 337ZM363 371Q363 445 340 477.5Q317 510 274 510Q231 510 208 477.5Q185 445 185 371V259Q185 185 208 152.5Q231 120 274 120Q317 120 340 152.5Q363 185 363 259ZM218 666 270 806H419L325 666Z" glyph-name="Oacute" horiz-adv-x="548" unicode="&#211;" /><glyph d="M526 293Q526 225 510.5 169Q495 113 464 73Q433 33 385.5 11Q338 -11 274 -11Q210 -11 162.5 11Q115 33 84 73Q53 113 37.5 169Q22 225 22 293V337Q22 405 37.5 461Q53 517 84 557Q115 597 162.5 619Q210 641 274 641Q338 641 385.5 619Q433 597 464 557Q495 517 510.5 461Q526 405 526 337ZM363 371Q363 445 340 477.5Q317 510 274 510Q231 510 208 477.5Q185 445 185 371V259Q185 185 208 152.5Q231 120 274 120Q317 120 340 152.5Q363 185 363 259ZM274 661Q210 661 174.5 700Q139 739 139 806H225Q225 779 238.5 765Q252 751 274 751Q297 751 310.5 765Q324 779 324 806H410Q410 739 374.5 700Q339 661 274 661Z" glyph-name="Obreve" horiz-adv-x="548" unicode="&#334;" /><glyph d="M526 293Q526 225 510.5 169Q495 113 464 73Q433 33 385.5 11Q338 -11 274 -11Q210 -11 162.5 11Q115 33 84 73Q53 113 37.5 169Q22 225 22 293V337Q22 405 37.5 461Q53 517 84 557Q115 597 162.5 619Q210 641 274 641Q338 641 385.5 619Q433 597 464 557Q495 517 510.5 461Q526 405 526 337ZM363 371Q363 445 340 477.5Q317 510 274 510Q231 510 208 477.5Q185 445 185 371V259Q185 185 208 152.5Q231 120 274 120Q317 120 340 152.5Q363 185 363 259ZM346 806 429 663H333L274 724L216 663H120L203 806Z" glyph-name="Ocircumflex" horiz-adv-x="548" unicode="&#212;" /><glyph d="M526 293Q526 225 510.5 169Q495 113 464 73Q433 33 385.5 11Q338 -11 274 -11Q210 -11 162.5 11Q115 33 84 73Q53 113 37.5 169Q22 225 22 293V337Q22 405 37.5 461Q53 517 84 557Q115 597 162.5 619Q210 641 274 641Q338 641 385.5 619Q433 597 464 557Q495 517 510.5 461Q526 405 526 337ZM363 371Q363 445 340 477.5Q317 510 274 510Q231 510 208 477.5Q185 445 185 371V259Q185 185 208 152.5Q231 120 274 120Q317 120 340 152.5Q363 185 363 259ZM135 792H260V666H135ZM289 792H414V666H289Z" glyph-name="Odieresis" horiz-adv-x="548" unicode="&#214;" /><glyph d="M526 293Q526 225 510.5 169Q495 113 464 73Q433 33 385.5 11Q338 -11 274 -11Q210 -11 162.5 11Q115 33 84 73Q53 113 37.5 169Q22 225 22 293V337Q22 405 37.5 461Q53 517 84 557Q115 597 162.5 619Q210 641 274 641Q338 641 385.5 619Q433 597 464 557Q495 517 510.5 461Q526 405 526 337ZM363 371Q363 445 340 477.5Q317 510 274 510Q231 510 208 477.5Q185 445 185 371V259Q185 185 208 152.5Q231 120 274 120Q317 120 340 152.5Q363 185 363 259ZM221 666 126 806H276L327 666Z" glyph-name="Ograve" horiz-adv-x="548" unicode="&#210;" /><glyph d="M526 293Q526 225 510.5 169Q495 113 464 73Q433 33 385.5 11Q338 -11 274 -11Q210 -11 162.5 11Q115 33 84 73Q53 113 37.5 169Q22 225 22 293V337Q22 405 37.5 461Q53 517 84 557Q115 597 162.5 619Q210 641 274 641Q338 641 385.5 619Q433 597 464 557Q495 517 510.5 461Q526 405 526 337ZM363 371Q363 445 340 477.5Q317 510 274 510Q231 510 208 477.5Q185 445 185 371V259Q185 185 208 152.5Q231 120 274 120Q317 120 340 152.5Q363 185 363 259ZM146 666 187 806H322L240 666ZM297 666 339 806H476L392 666Z" glyph-name="Ohungarumlaut" horiz-adv-x="548" unicode="&#336;" /><glyph d="M526 293Q526 225 510.5 169Q495 113 464 73Q433 33 385.5 11Q338 -11 274 -11Q210 -11 162.5 11Q115 33 84 73Q53 113 37.5 169Q22 225 22 293V337Q22 405 37.5 461Q53 517 84 557Q115 597 162.5 619Q210 641 274 641Q338 641 385.5 619Q433 597 464 557Q495 517 510.5 461Q526 405 526 337ZM363 371Q363 445 340 477.5Q317 510 274 510Q231 510 208 477.5Q185 445 185 371V259Q185 185 208 152.5Q231 120 274 120Q317 120 340 152.5Q363 185 363 259ZM149 768H399V667H149Z" glyph-name="Omacron" horiz-adv-x="548" unicode="&#332;" /><glyph d="M78 81Q49 121 35.5 174.5Q22 228 22 293V337Q22 405 37.5 461Q53 517 84 557Q115 597 162.5 619Q210 641 274 641Q313 641 346 632.5Q379 624 406 608L435 655L506 606L470 548Q526 468 526 337V293Q526 225 510.5 169Q495 113 464 73Q433 33 385.5 11Q338 -11 274 -11Q195 -11 142 21L113 -25L42 24ZM180 245 332 490Q309 510 274 510Q231 510 205.5 477.5Q180 445 180 371ZM368 384 215 140Q238 120 274 120Q317 120 342.5 152.5Q368 185 368 259Z" glyph-name="Oslash" horiz-adv-x="548" unicode="&#216;" /><glyph d="M78 81Q49 121 35.5 174.5Q22 228 22 293V337Q22 405 37.5 461Q53 517 84 557Q115 597 162.5 619Q210 641 274 641Q313 641 346 632.5Q379 624 406 608L435 655L506 606L470 548Q526 468 526 337V293Q526 225 510.5 169Q495 113 464 73Q433 33 385.5 11Q338 -11 274 -11Q195 -11 142 21L113 -25L42 24ZM180 245 332 490Q309 510 274 510Q231 510 205.5 477.5Q180 445 180 371ZM368 384 215 140Q238 120 274 120Q317 120 342.5 152.5Q368 185 368 259ZM218 666 270 806H419L325 666Z" glyph-name="Oslashacute" horiz-adv-x="548" unicode="&#510;" /><glyph d="M526 293Q526 225 510.5 169Q495 113 464 73Q433 33 385.5 11Q338 -11 274 -11Q210 -11 162.5 11Q115 33 84 73Q53 113 37.5 169Q22 225 22 293V337Q22 405 37.5 461Q53 517 84 557Q115 597 162.5 619Q210 641 274 641Q338 641 385.5 619Q433 597 464 557Q495 517 510.5 461Q526 405 526 337ZM363 371Q363 445 340 477.5Q317 510 274 510Q231 510 208 477.5Q185 445 185 371V259Q185 185 208 152.5Q231 120 274 120Q317 120 340 152.5Q363 185 363 259ZM129 665Q129 728 151.5 767Q174 806 218 806Q236 806 248 799.5Q260 793 270.5 785.5Q281 778 291.5 772Q302 766 315 766Q327 766 336 774.5Q345 783 347 803H419Q419 740 396.5 701Q374 662 330 662Q312 662 299.5 668Q287 674 276.5 681.5Q266 689 256 695.5Q246 702 233 702Q220 702 211.5 693.5Q203 685 201 665Z" glyph-name="Otilde" horiz-adv-x="548" unicode="&#213;" /><glyph d="M253 329Q296 329 317 348.5Q338 368 338 416Q338 464 317 484Q296 504 253 504H195V329ZM195 0H38V630H267Q380 630 435 575Q490 520 490 417Q490 313 435 258Q380 203 267 203H195Z" glyph-name="P" horiz-adv-x="501" unicode="P" /><glyph d="M526 293Q526 186 488 110.5Q450 35 372 5L433 -77H275L226 -7Q174 1 136 26Q98 51 72.5 90Q47 129 34.5 180.5Q22 232 22 293V337Q22 405 37.5 461Q53 517 84 557Q115 597 162.5 619Q210 641 274 641Q338 641 385.5 619Q433 597 464 557Q495 517 510.5 461Q526 405 526 337ZM363 371Q363 445 340 477.5Q317 510 274 510Q231 510 208 477.5Q185 445 185 371V259Q185 185 208 152.5Q231 120 274 120Q317 120 340 152.5Q363 185 363 259Z" glyph-name="Q" horiz-adv-x="548" unicode="Q" /><glyph d="M350 0Q341 19 335.5 49Q330 79 327 136Q325 180 309.5 200Q294 220 256 220H193V0H38V630H268Q389 630 446.5 577Q504 524 504 432Q504 399 495 372.5Q486 346 471 326.5Q456 307 436 294Q416 281 395 276Q437 262 456 232Q475 202 480 143Q483 111 485 88.5Q487 66 490 49.5Q493 33 497.5 21.5Q502 10 509 0ZM262 342Q350 342 350 422Q350 460 328.5 482Q307 504 262 504H193V342Z" glyph-name="R" horiz-adv-x="522" unicode="R" /><glyph d="M350 0Q341 19 335.5 49Q330 79 327 136Q325 180 309.5 200Q294 220 256 220H193V0H38V630H268Q389 630 446.5 577Q504 524 504 432Q504 399 495 372.5Q486 346 471 326.5Q456 307 436 294Q416 281 395 276Q437 262 456 232Q475 202 480 143Q483 111 485 88.5Q487 66 490 49.5Q493 33 497.5 21.5Q502 10 509 0ZM262 342Q350 342 350 422Q350 460 328.5 482Q307 504 262 504H193V342ZM197 666 249 806H398L304 666Z" glyph-name="Racute" horiz-adv-x="522" unicode="&#340;" /><glyph d="M350 0Q341 19 335.5 49Q330 79 327 136Q325 180 309.5 200Q294 220 256 220H193V0H38V630H268Q389 630 446.5 577Q504 524 504 432Q504 399 495 372.5Q486 346 471 326.5Q456 307 436 294Q416 281 395 276Q437 262 456 232Q475 202 480 143Q483 111 485 88.5Q487 66 490 49.5Q493 33 497.5 21.5Q502 10 509 0ZM262 342Q350 342 350 422Q350 460 328.5 482Q307 504 262 504H193V342ZM182 666 99 806H195L253 748L312 806H408L325 666Z" glyph-name="Rcaron" horiz-adv-x="522" unicode="&#344;" /><glyph d="M350 0Q341 19 335.5 49Q330 79 327 136Q325 180 309.5 200Q294 220 256 220H193V0H38V630H268Q389 630 446.5 577Q504 524 504 432Q504 399 495 372.5Q486 346 471 326.5Q456 307 436 294Q416 281 395 276Q437 262 456 232Q475 202 480 143Q483 111 485 88.5Q487 66 490 49.5Q493 33 497.5 21.5Q502 10 509 0ZM262 342Q350 342 350 422Q350 460 328.5 482Q307 504 262 504H193V342ZM198 -32H333V-107Q333 -164 299 -189Q265 -214 198 -214V-164Q225 -164 237.5 -157.5Q250 -151 251 -131H198Z" glyph-name="Rcommaaccent" horiz-adv-x="522" unicode="&#342;" /><glyph d="M19 443Q19 487 34 523.5Q49 560 77.5 586Q106 612 145.5 626.5Q185 641 235 641Q289 641 329 626.5Q369 612 397 586.5Q425 561 441 525.5Q457 490 462 448L326 432Q320 472 299.5 496.5Q279 521 234 521Q203 521 185.5 504.5Q168 488 168 461Q168 419 217 403L310 372Q387 346 429 304.5Q471 263 471 187Q471 139 454 102Q437 65 407.5 40Q378 15 337.5 2Q297 -11 249 -11Q143 -11 82 40Q21 91 10 182L150 203Q154 160 177.5 134.5Q201 109 248 109Q280 109 299 124.5Q318 140 318 167Q318 192 305 205.5Q292 219 263 228L167 258Q135 268 108 283Q81 298 61 319.5Q41 341 30 371.5Q19 402 19 443Z" glyph-name="S" horiz-adv-x="489" unicode="S" /><glyph d="M19 443Q19 487 34 523.5Q49 560 77.5 586Q106 612 145.5 626.5Q185 641 235 641Q289 641 329 626.5Q369 612 397 586.5Q425 561 441 525.5Q457 490 462 448L326 432Q320 472 299.5 496.5Q279 521 234 521Q203 521 185.5 504.5Q168 488 168 461Q168 419 217 403L310 372Q387 346 429 304.5Q471 263 471 187Q471 139 454 102Q437 65 407.5 40Q378 15 337.5 2Q297 -11 249 -11Q143 -11 82 40Q21 91 10 182L150 203Q154 160 177.5 134.5Q201 109 248 109Q280 109 299 124.5Q318 140 318 167Q318 192 305 205.5Q292 219 263 228L167 258Q135 268 108 283Q81 298 61 319.5Q41 341 30 371.5Q19 402 19 443ZM186 666 238 806H387L293 666Z" glyph-name="Sacute" horiz-adv-x="489" unicode="&#346;" /><glyph d="M19 443Q19 487 34 523.5Q49 560 77.5 586Q106 612 145.5 626.5Q185 641 235 641Q289 641 329 626.5Q369 612 397 586.5Q425 561 441 525.5Q457 490 462 448L326 432Q320 472 299.5 496.5Q279 521 234 521Q203 521 185.5 504.5Q168 488 168 461Q168 419 217 403L310 372Q387 346 429 304.5Q471 263 471 187Q471 139 454 102Q437 65 407.5 40Q378 15 337.5 2Q297 -11 249 -11Q143 -11 82 40Q21 91 10 182L150 203Q154 160 177.5 134.5Q201 109 248 109Q280 109 299 124.5Q318 140 318 167Q318 192 305 205.5Q292 219 263 228L167 258Q135 268 108 283Q81 298 61 319.5Q41 341 30 371.5Q19 402 19 443ZM171 666 88 806H184L242 748L301 806H397L314 666Z" glyph-name="Scaron" horiz-adv-x="489" unicode="&#352;" /><glyph d="M338 -97Q338 -138 308.5 -156.5Q279 -175 238 -175Q209 -175 182 -166.5Q155 -158 138 -144L163 -92Q177 -103 193.5 -110Q210 -117 227 -117Q255 -117 255 -97Q255 -83 235 -77.5Q215 -72 180 -72L212 -9Q122 -1 70.5 49Q19 99 10 182L150 203Q154 160 177.5 134.5Q201 109 248 109Q280 109 299 124.5Q318 140 318 167Q318 192 305 205.5Q292 219 263 228L167 258Q135 268 108 283Q81 298 61 319.5Q41 341 30 371.5Q19 402 19 443Q19 487 34 523.5Q49 560 77.5 586Q106 612 145.5 626.5Q185 641 235 641Q289 641 329 626.5Q369 612 397 586.5Q425 561 441 525.5Q457 490 462 448L326 432Q320 472 299.5 496.5Q279 521 234 521Q203 521 185.5 504.5Q168 488 168 461Q168 419 217 403L310 372Q387 346 429 304.5Q471 263 471 187Q471 140 455 104Q439 68 411.5 43Q384 18 345.5 4.5Q307 -9 262 -11L255 -25Q289 -27 313.5 -43Q338 -59 338 -97Z" glyph-name="Scedilla" horiz-adv-x="489" unicode="&#350;" /><glyph d="M19 443Q19 487 34 523.5Q49 560 77.5 586Q106 612 145.5 626.5Q185 641 235 641Q289 641 329 626.5Q369 612 397 586.5Q425 561 441 525.5Q457 490 462 448L326 432Q320 472 299.5 496.5Q279 521 234 521Q203 521 185.5 504.5Q168 488 168 461Q168 419 217 403L310 372Q387 346 429 304.5Q471 263 471 187Q471 139 454 102Q437 65 407.5 40Q378 15 337.5 2Q297 -11 249 -11Q143 -11 82 40Q21 91 10 182L150 203Q154 160 177.5 134.5Q201 109 248 109Q280 109 299 124.5Q318 140 318 167Q318 192 305 205.5Q292 219 263 228L167 258Q135 268 108 283Q81 298 61 319.5Q41 341 30 371.5Q19 402 19 443ZM314 806 397 663H301L242 724L184 663H88L171 806Z" glyph-name="Scircumflex" horiz-adv-x="489" unicode="&#348;" /><glyph d="M19 443Q19 487 34 523.5Q49 560 77.5 586Q106 612 145.5 626.5Q185 641 235 641Q289 641 329 626.5Q369 612 397 586.5Q425 561 441 525.5Q457 490 462 448L326 432Q320 472 299.5 496.5Q279 521 234 521Q203 521 185.5 504.5Q168 488 168 461Q168 419 217 403L310 372Q387 346 429 304.5Q471 263 471 187Q471 139 454 102Q437 65 407.5 40Q378 15 337.5 2Q297 -11 249 -11Q143 -11 82 40Q21 91 10 182L150 203Q154 160 177.5 134.5Q201 109 248 109Q280 109 299 124.5Q318 140 318 167Q318 192 305 205.5Q292 219 263 228L167 258Q135 268 108 283Q81 298 61 319.5Q41 341 30 371.5Q19 402 19 443ZM175 -32H310V-107Q310 -164 276 -189Q242 -214 175 -214V-164Q202 -164 214.5 -157.5Q227 -151 228 -131H175Z" glyph-name="Scommaaccent" horiz-adv-x="489" unicode="&#536;" /><glyph d="M176 0V500H19V630H493V500H333V0Z" glyph-name="T" horiz-adv-x="512" unicode="T" /><glyph d="M96 364H176V500H19V630H493V500H333V364H413V246H333V0H176V246H96Z" glyph-name="Tbar" horiz-adv-x="512" unicode="&#358;" /><glyph d="M176 0V500H19V630H493V500H333V0ZM185 666 102 806H198L256 748L315 806H411L328 666Z" glyph-name="Tcaron" horiz-adv-x="512" unicode="&#356;" /><glyph d="M176 0V500H19V630H493V500H333V0ZM189 -32H324V-107Q324 -164 290 -189Q256 -214 189 -214V-164Q216 -164 228.5 -157.5Q241 -151 242 -131H189Z" glyph-name="Tcommaaccent" horiz-adv-x="512" unicode="&#354;" /><glyph d="M253 230Q296 230 317 249.5Q338 269 338 317Q338 365 317 385Q296 405 253 405H195V230ZM195 0H38V630H196V531H267Q380 531 435 476Q490 421 490 318Q490 214 435 159Q380 104 267 104H195Z" glyph-name="Thorn" horiz-adv-x="501" unicode="&#222;" /><glyph d="M273 -11Q218 -11 173.5 4Q129 19 97.5 50Q66 81 49 126.5Q32 172 32 234V630H189V246Q189 217 192 193.5Q195 170 204 154Q213 138 229.5 129.5Q246 121 273 121Q300 121 316.5 129.5Q333 138 342 154Q351 170 354 193.5Q357 217 357 246V630H514V234Q514 172 497 126.5Q480 81 448.5 50Q417 19 372.5 4Q328 -11 273 -11Z" glyph-name="U" horiz-adv-x="546" unicode="U" /><glyph d="M273 -11Q218 -11 173.5 4Q129 19 97.5 50Q66 81 49 126.5Q32 172 32 234V630H189V246Q189 217 192 193.5Q195 170 204 154Q213 138 229.5 129.5Q246 121 273 121Q300 121 316.5 129.5Q333 138 342 154Q351 170 354 193.5Q357 217 357 246V630H514V234Q514 172 497 126.5Q480 81 448.5 50Q417 19 372.5 4Q328 -11 273 -11ZM217 666 269 806H418L324 666Z" glyph-name="Uacute" horiz-adv-x="546" unicode="&#218;" /><glyph d="M273 -11Q218 -11 173.5 4Q129 19 97.5 50Q66 81 49 126.5Q32 172 32 234V630H189V246Q189 217 192 193.5Q195 170 204 154Q213 138 229.5 129.5Q246 121 273 121Q300 121 316.5 129.5Q333 138 342 154Q351 170 354 193.5Q357 217 357 246V630H514V234Q514 172 497 126.5Q480 81 448.5 50Q417 19 372.5 4Q328 -11 273 -11ZM273 661Q209 661 173.5 700Q138 739 138 806H224Q224 779 237.5 765Q251 751 273 751Q296 751 309.5 765Q323 779 323 806H409Q409 739 373.5 700Q338 661 273 661Z" glyph-name="Ubreve" horiz-adv-x="546" unicode="&#364;" /><glyph d="M273 -11Q218 -11 173.5 4Q129 19 97.5 50Q66 81 49 126.5Q32 172 32 234V630H189V246Q189 217 192 193.5Q195 170 204 154Q213 138 229.5 129.5Q246 121 273 121Q300 121 316.5 129.5Q333 138 342 154Q351 170 354 193.5Q357 217 357 246V630H514V234Q514 172 497 126.5Q480 81 448.5 50Q417 19 372.5 4Q328 -11 273 -11ZM345 806 428 663H332L273 724L215 663H119L202 806Z" glyph-name="Ucircumflex" horiz-adv-x="546" unicode="&#219;" /><glyph d="M273 -11Q218 -11 173.5 4Q129 19 97.5 50Q66 81 49 126.5Q32 172 32 234V630H189V246Q189 217 192 193.5Q195 170 204 154Q213 138 229.5 129.5Q246 121 273 121Q300 121 316.5 129.5Q333 138 342 154Q351 170 354 193.5Q357 217 357 246V630H514V234Q514 172 497 126.5Q480 81 448.5 50Q417 19 372.5 4Q328 -11 273 -11ZM134 792H259V666H134ZM288 792H413V666H288Z" glyph-name="Udieresis" horiz-adv-x="546" unicode="&#220;" /><glyph d="M273 -11Q218 -11 173.5 4Q129 19 97.5 50Q66 81 49 126.5Q32 172 32 234V630H189V246Q189 217 192 193.5Q195 170 204 154Q213 138 229.5 129.5Q246 121 273 121Q300 121 316.5 129.5Q333 138 342 154Q351 170 354 193.5Q357 217 357 246V630H514V234Q514 172 497 126.5Q480 81 448.5 50Q417 19 372.5 4Q328 -11 273 -11ZM220 666 125 806H275L326 666Z" glyph-name="Ugrave" horiz-adv-x="546" unicode="&#217;" /><glyph d="M273 -11Q218 -11 173.5 4Q129 19 97.5 50Q66 81 49 126.5Q32 172 32 234V630H189V246Q189 217 192 193.5Q195 170 204 154Q213 138 229.5 129.5Q246 121 273 121Q300 121 316.5 129.5Q333 138 342 154Q351 170 354 193.5Q357 217 357 246V630H514V234Q514 172 497 126.5Q480 81 448.5 50Q417 19 372.5 4Q328 -11 273 -11ZM145 666 186 806H321L239 666ZM296 666 338 806H475L391 666Z" glyph-name="Uhungarumlaut" horiz-adv-x="546" unicode="&#368;" /><glyph d="M273 -11Q218 -11 173.5 4Q129 19 97.5 50Q66 81 49 126.5Q32 172 32 234V630H189V246Q189 217 192 193.5Q195 170 204 154Q213 138 229.5 129.5Q246 121 273 121Q300 121 316.5 129.5Q333 138 342 154Q351 170 354 193.5Q357 217 357 246V630H514V234Q514 172 497 126.5Q480 81 448.5 50Q417 19 372.5 4Q328 -11 273 -11ZM148 768H398V667H148Z" glyph-name="Umacron" horiz-adv-x="546" unicode="&#362;" /><glyph d="M273 -11Q218 -11 173.5 4Q129 19 97.5 50Q66 81 49 126.5Q32 172 32 234V630H189V246Q189 217 192 193.5Q195 170 204 154Q213 138 229.5 129.5Q246 121 273 121Q300 121 316.5 129.5Q333 138 342 154Q351 170 354 193.5Q357 217 357 246V630H514V234Q514 148 480 96Q446 44 392 13Q363 -4 354 -22Q345 -40 345 -56Q345 -71 351.5 -77Q358 -83 369 -83Q385 -83 404 -75V-150Q392 -158 376.5 -163.5Q361 -169 338 -169Q304 -169 279 -150.5Q254 -132 254 -93Q254 -69 264 -49Q274 -29 291 -11H273Z" glyph-name="Uogonek" horiz-adv-x="546" unicode="&#370;" /><glyph d="M273 -11Q218 -11 173.5 4Q129 19 97.5 50Q66 81 49 126.5Q32 172 32 234V630H189V246Q189 217 192 193.5Q195 170 204 154Q213 138 229.5 129.5Q246 121 273 121Q300 121 316.5 129.5Q333 138 342 154Q351 170 354 193.5Q357 217 357 246V630H514V234Q514 172 497 126.5Q480 81 448.5 50Q417 19 372.5 4Q328 -11 273 -11ZM238 744Q238 728 247 718.5Q256 709 273 709Q291 709 300 718.5Q309 728 309 744Q309 760 300 770Q291 780 273 780Q256 780 247 770Q238 760 238 744ZM177 744Q177 784 203 810.5Q229 837 273 837Q317 837 343.5 810.5Q370 784 370 744Q370 704 343.5 678Q317 652 273 652Q229 652 203 678Q177 704 177 744Z" glyph-name="Uring" horiz-adv-x="546" unicode="&#366;" /><glyph d="M273 -11Q218 -11 173.5 4Q129 19 97.5 50Q66 81 49 126.5Q32 172 32 234V630H189V246Q189 217 192 193.5Q195 170 204 154Q213 138 229.5 129.5Q246 121 273 121Q300 121 316.5 129.5Q333 138 342 154Q351 170 354 193.5Q357 217 357 246V630H514V234Q514 172 497 126.5Q480 81 448.5 50Q417 19 372.5 4Q328 -11 273 -11ZM128 665Q128 728 150.5 767Q173 806 217 806Q235 806 247 799.5Q259 793 269.5 785.5Q280 778 290.5 772Q301 766 314 766Q326 766 335 774.5Q344 783 346 803H418Q418 740 395.5 701Q373 662 329 662Q311 662 298.5 668Q286 674 275.5 681.5Q265 689 255 695.5Q245 702 232 702Q219 702 210.5 693.5Q202 685 200 665Z" glyph-name="Utilde" horiz-adv-x="546" unicode="&#360;" /><glyph d="M182 0 0 630H162L265 243H269L373 630H522L340 0Z" glyph-name="V" horiz-adv-x="522" unicode="V" /><glyph d="M431 630 491 263H495L561 630H708L580 0H425L356 404H352L283 0H128L0 630H157L220 263H224L287 630Z" glyph-name="W" horiz-adv-x="708" unicode="W" /><glyph d="M431 630 491 263H495L561 630H708L580 0H425L356 404H352L283 0H128L0 630H157L220 263H224L287 630ZM298 666 350 806H499L405 666Z" glyph-name="Wacute" horiz-adv-x="708" unicode="&#7810;" /><glyph d="M431 630 491 263H495L561 630H708L580 0H425L356 404H352L283 0H128L0 630H157L220 263H224L287 630ZM426 806 509 663H413L354 724L296 663H200L283 806Z" glyph-name="Wcircumflex" horiz-adv-x="708" unicode="&#372;" /><glyph d="M431 630 491 263H495L561 630H708L580 0H425L356 404H352L283 0H128L0 630H157L220 263H224L287 630ZM215 792H340V666H215ZM369 792H494V666H369Z" glyph-name="Wdieresis" horiz-adv-x="708" unicode="&#7812;" /><glyph d="M431 630 491 263H495L561 630H708L580 0H425L356 404H352L283 0H128L0 630H157L220 263H224L287 630ZM301 666 206 806H356L407 666Z" glyph-name="Wgrave" horiz-adv-x="708" unicode="&#7808;" /><glyph d="M349 327 535 0H366L261 193L158 0H-5L181 322L8 630H177L269 453L361 630H523Z" glyph-name="X" horiz-adv-x="530" unicode="X" /><glyph d="M372 630H531L342 225V0H189V225L0 630H164L271 395Z" glyph-name="Y" horiz-adv-x="531" unicode="Y" /><glyph d="M372 630H531L342 225V0H189V225L0 630H164L271 395ZM209 666 261 806H410L316 666Z" glyph-name="Yacute" horiz-adv-x="531" unicode="&#221;" /><glyph d="M372 630H531L342 225V0H189V225L0 630H164L271 395ZM337 806 420 663H324L265 724L207 663H111L194 806Z" glyph-name="Ycircumflex" horiz-adv-x="531" unicode="&#374;" /><glyph d="M372 630H531L342 225V0H189V225L0 630H164L271 395ZM126 792H251V666H126ZM280 792H405V666H280Z" glyph-name="Ydieresis" horiz-adv-x="531" unicode="&#376;" /><glyph d="M372 630H531L342 225V0H189V225L0 630H164L271 395ZM212 666 117 806H267L318 666Z" glyph-name="Ygrave" horiz-adv-x="531" unicode="&#7922;" /><glyph d="M462 130V0H21V119L270 500H24V630H455V508L204 130Z" glyph-name="Z" horiz-adv-x="483" unicode="Z" /><glyph d="M462 130V0H21V119L270 500H24V630H455V508L204 130ZM185 666 237 806H386L292 666Z" glyph-name="Zacute" horiz-adv-x="483" unicode="&#377;" /><glyph d="M462 130V0H21V119L270 500H24V630H455V508L204 130ZM170 666 87 806H183L241 748L300 806H396L313 666Z" glyph-name="Zcaron" horiz-adv-x="483" unicode="&#381;" /><glyph d="M462 130V0H21V119L270 500H24V630H455V508L204 130ZM167 806H317V667H167Z" glyph-name="Zdotaccent" horiz-adv-x="483" unicode="&#379;" /><glyph d="M395 119Q395 101 412 101Q421 101 435 104V15Q419 5 400.5 -0.5Q382 -6 358 -6Q323 -6 295 9Q267 24 258 61Q244 32 212.5 13Q181 -6 138 -6Q81 -6 46.5 26.5Q12 59 12 111Q12 142 22 164Q32 186 48 201Q64 216 83.5 225.5Q103 235 122 241L251 282V288Q251 311 241 324.5Q231 338 207 338Q186 338 173.5 322.5Q161 307 161 284L28 307Q33 372 79 413.5Q125 455 213 455Q305 455 350 414Q395 373 395 283ZM251 198 188 174Q173 168 163.5 158Q154 148 154 131Q154 100 190 100Q219 100 235 118Q251 136 251 166Z" glyph-name="a" horiz-adv-x="438" unicode="a" /><glyph d="M395 119Q395 101 412 101Q421 101 435 104V15Q419 5 400.5 -0.5Q382 -6 358 -6Q323 -6 295 9Q267 24 258 61Q244 32 212.5 13Q181 -6 138 -6Q81 -6 46.5 26.5Q12 59 12 111Q12 142 22 164Q32 186 48 201Q64 216 83.5 225.5Q103 235 122 241L251 282V288Q251 311 241 324.5Q231 338 207 338Q186 338 173.5 322.5Q161 307 161 284L28 307Q33 372 79 413.5Q125 455 213 455Q305 455 350 414Q395 373 395 283ZM251 198 188 174Q173 168 163.5 158Q154 148 154 131Q154 100 190 100Q219 100 235 118Q251 136 251 166ZM165 490 217 630H366L272 490Z" glyph-name="aacute" horiz-adv-x="438" unicode="&#225;" /><glyph d="M395 119Q395 101 412 101Q421 101 435 104V15Q419 5 400.5 -0.5Q382 -6 358 -6Q323 -6 295 9Q267 24 258 61Q244 32 212.5 13Q181 -6 138 -6Q81 -6 46.5 26.5Q12 59 12 111Q12 142 22 164Q32 186 48 201Q64 216 83.5 225.5Q103 235 122 241L251 282V288Q251 311 241 324.5Q231 338 207 338Q186 338 173.5 322.5Q161 307 161 284L28 307Q33 372 79 413.5Q125 455 213 455Q305 455 350 414Q395 373 395 283ZM251 198 188 174Q173 168 163.5 158Q154 148 154 131Q154 100 190 100Q219 100 235 118Q251 136 251 166ZM215 485Q151 485 115.5 524Q80 563 80 630H166Q166 603 179.5 589Q193 575 215 575Q238 575 251.5 589Q265 603 265 630H351Q351 563 315.5 524Q280 485 215 485Z" glyph-name="abreve" horiz-adv-x="438" unicode="&#259;" /><glyph d="M395 119Q395 101 412 101Q421 101 435 104V15Q419 5 400.5 -0.5Q382 -6 358 -6Q323 -6 295 9Q267 24 258 61Q244 32 212.5 13Q181 -6 138 -6Q81 -6 46.5 26.5Q12 59 12 111Q12 142 22 164Q32 186 48 201Q64 216 83.5 225.5Q103 235 122 241L251 282V288Q251 311 241 324.5Q231 338 207 338Q186 338 173.5 322.5Q161 307 161 284L28 307Q33 372 79 413.5Q125 455 213 455Q305 455 350 414Q395 373 395 283ZM251 198 188 174Q173 168 163.5 158Q154 148 154 131Q154 100 190 100Q219 100 235 118Q251 136 251 166ZM289 626 372 483H276L217 544L159 483H63L146 626Z" glyph-name="acircumflex" horiz-adv-x="438" unicode="&#226;" /><glyph d="M99 490 151 630H300L206 490Z" glyph-name="acute" horiz-adv-x="400" unicode="&#180;" /><glyph d="M99 666 151 806H300L206 666Z" glyph-name="acute.cap" horiz-adv-x="400" /><glyph d="M395 119Q395 101 412 101Q421 101 435 104V15Q419 5 400.5 -0.5Q382 -6 358 -6Q323 -6 295 9Q267 24 258 61Q244 32 212.5 13Q181 -6 138 -6Q81 -6 46.5 26.5Q12 59 12 111Q12 142 22 164Q32 186 48 201Q64 216 83.5 225.5Q103 235 122 241L251 282V288Q251 311 241 324.5Q231 338 207 338Q186 338 173.5 322.5Q161 307 161 284L28 307Q33 372 79 413.5Q125 455 213 455Q305 455 350 414Q395 373 395 283ZM251 198 188 174Q173 168 163.5 158Q154 148 154 131Q154 100 190 100Q219 100 235 118Q251 136 251 166ZM82 616H207V490H82ZM236 616H361V490H236Z" glyph-name="adieresis" horiz-adv-x="438" unicode="&#228;" /><glyph d="M335 402Q355 423 386.5 439Q418 455 465 455Q512 455 547 439Q582 423 605 393.5Q628 364 639.5 322.5Q651 281 651 230V191H397Q397 150 412.5 128.5Q428 107 461 107Q487 107 500.5 121.5Q514 136 514 160H648Q640 80 593 35.5Q546 -9 460 -9Q410 -9 372.5 9Q335 27 315 59Q298 29 259 10Q220 -9 169 -9Q95 -9 53.5 26Q12 61 12 124Q12 190 60.5 229Q109 268 216 268H251V288Q251 311 241 324.5Q231 338 207 338Q186 338 173.5 322.5Q161 307 161 284L28 307Q31 339 43.5 366.5Q56 394 78.5 413.5Q101 433 133.5 444Q166 455 208 455Q256 455 286 439.5Q316 424 335 402ZM193 102Q222 102 236.5 120Q251 138 251 168V191H218Q189 191 171 179Q153 167 153 141Q153 121 164.5 111.5Q176 102 193 102ZM511 268Q511 299 497 318.5Q483 338 454 338Q425 338 411 319.5Q397 301 397 268Z" glyph-name="ae" horiz-adv-x="666" unicode="&#230;" /><glyph d="M335 402Q355 423 386.5 439Q418 455 465 455Q512 455 547 439Q582 423 605 393.5Q628 364 639.5 322.5Q651 281 651 230V191H397Q397 150 412.5 128.5Q428 107 461 107Q487 107 500.5 121.5Q514 136 514 160H648Q640 80 593 35.5Q546 -9 460 -9Q410 -9 372.5 9Q335 27 315 59Q298 29 259 10Q220 -9 169 -9Q95 -9 53.5 26Q12 61 12 124Q12 190 60.5 229Q109 268 216 268H251V288Q251 311 241 324.5Q231 338 207 338Q186 338 173.5 322.5Q161 307 161 284L28 307Q31 339 43.5 366.5Q56 394 78.5 413.5Q101 433 133.5 444Q166 455 208 455Q256 455 286 439.5Q316 424 335 402ZM193 102Q222 102 236.5 120Q251 138 251 168V191H218Q189 191 171 179Q153 167 153 141Q153 121 164.5 111.5Q176 102 193 102ZM511 268Q511 299 497 318.5Q483 338 454 338Q425 338 411 319.5Q397 301 397 268ZM275 490 327 630H476L382 490Z" glyph-name="aeacute" horiz-adv-x="666" unicode="&#509;" /><glyph d="M395 119Q395 101 412 101Q421 101 435 104V15Q419 5 400.5 -0.5Q382 -6 358 -6Q323 -6 295 9Q267 24 258 61Q244 32 212.5 13Q181 -6 138 -6Q81 -6 46.5 26.5Q12 59 12 111Q12 142 22 164Q32 186 48 201Q64 216 83.5 225.5Q103 235 122 241L251 282V288Q251 311 241 324.5Q231 338 207 338Q186 338 173.5 322.5Q161 307 161 284L28 307Q33 372 79 413.5Q125 455 213 455Q305 455 350 414Q395 373 395 283ZM251 198 188 174Q173 168 163.5 158Q154 148 154 131Q154 100 190 100Q219 100 235 118Q251 136 251 166ZM173 490 78 630H228L279 490Z" glyph-name="agrave" horiz-adv-x="438" unicode="&#224;" /><glyph d="M395 119Q395 101 412 101Q421 101 435 104V15Q419 5 400.5 -0.5Q382 -6 358 -6Q323 -6 295 9Q267 24 258 61Q244 32 212.5 13Q181 -6 138 -6Q81 -6 46.5 26.5Q12 59 12 111Q12 142 22 164Q32 186 48 201Q64 216 83.5 225.5Q103 235 122 241L251 282V288Q251 311 241 324.5Q231 338 207 338Q186 338 173.5 322.5Q161 307 161 284L28 307Q33 372 79 413.5Q125 455 213 455Q305 455 350 414Q395 373 395 283ZM251 198 188 174Q173 168 163.5 158Q154 148 154 131Q154 100 190 100Q219 100 235 118Q251 136 251 166ZM90 592H340V491H90Z" glyph-name="amacron" horiz-adv-x="438" unicode="&#257;" /><glyph d="M553 312Q542 265 523 220.5Q504 176 476 136Q489 122 500.5 116Q512 110 530 110Q541 110 548.5 111.5Q556 113 570 117L576 19Q564 8 541 0.5Q518 -7 492 -7Q465 -7 437 1Q409 9 375 38Q339 15 298 2Q257 -11 209 -11Q165 -11 127.5 0Q90 11 62 33.5Q34 56 18.5 89.5Q3 123 3 167Q3 224 30.5 263Q58 302 115 335Q91 365 77.5 395.5Q64 426 64 470Q64 511 79 543Q94 575 119.5 596.5Q145 618 178 629.5Q211 641 248 641Q290 641 322 629Q354 617 376 596Q398 575 409.5 546.5Q421 518 421 485Q421 455 414.5 431.5Q408 408 395 388.5Q382 369 361.5 352Q341 335 313 318L390 232Q401 254 410.5 278Q420 302 427 328ZM220 113Q257 113 291 129L189 248Q170 234 159.5 217Q149 200 149 176Q149 143 169 128Q189 113 220 113ZM199 475Q199 452 212.5 433.5Q226 415 240 398Q271 416 283 433.5Q295 451 295 477Q295 497 283 512Q271 527 248 527Q226 527 212.5 512Q199 497 199 475Z" glyph-name="ampersand" horiz-adv-x="582" unicode="&amp;" /><glyph d="M395 119Q395 101 412 101Q421 101 435 104V15Q402 -11 389 -28.5Q376 -46 376 -62Q376 -73 382.5 -78Q389 -83 400 -83Q416 -83 435 -75V-150Q423 -158 407.5 -163.5Q392 -169 369 -169Q335 -169 310 -150.5Q285 -132 285 -93Q285 -67 297.5 -45Q310 -23 330 -3Q304 2 284 17Q264 32 258 61Q244 32 212.5 13Q181 -6 138 -6Q81 -6 46.5 26.5Q12 59 12 111Q12 142 22 164Q32 186 48 201Q64 216 83.5 225.5Q103 235 122 241L251 282V288Q251 311 241 324.5Q231 338 207 338Q186 338 173.5 322.5Q161 307 161 284L28 307Q33 372 79 413.5Q125 455 213 455Q305 455 350 414Q395 373 395 283ZM190 100Q219 100 235 118Q251 136 251 166V198L188 174Q173 168 163.5 158Q154 148 154 131Q154 100 190 100Z" glyph-name="aogonek" horiz-adv-x="438" unicode="&#261;" /><glyph d="M45 424Q77 445 107.5 454.5Q138 464 164 464Q193 464 217.5 458Q242 452 266 444.5Q290 437 314.5 431Q339 425 368 425Q396 425 426.5 434Q457 443 492 466V360Q457 339 426.5 330Q396 321 368 321Q339 321 314.5 327Q290 333 266 340Q242 347 217.5 353Q193 359 164 359Q138 359 107.5 350Q77 341 45 320ZM45 254Q77 276 107.5 285Q138 294 164 294Q193 294 217.5 288Q242 282 266 274.5Q290 267 314.5 261Q339 255 368 255Q396 255 426.5 264Q457 273 492 295V190Q457 169 426.5 160Q396 151 368 151Q339 151 314.5 157Q290 163 266 170.5Q242 178 217.5 184Q193 190 164 190Q138 190 107.5 180.5Q77 171 45 150Z" glyph-name="approxequal" horiz-adv-x="537" unicode="&#8776;" /><glyph d="M26 424Q58 445 88.5 454.5Q119 464 145 464Q174 464 198.5 458Q223 452 247 444.5Q271 437 295.5 431Q320 425 349 425Q377 425 407.5 434Q438 443 473 466V360Q438 339 407.5 330Q377 321 349 321Q320 321 295.5 327Q271 333 247 340Q223 347 198.5 353Q174 359 145 359Q119 359 88.5 350Q58 341 26 320ZM26 254Q58 276 88.5 285Q119 294 145 294Q174 294 198.5 288Q223 282 247 274.5Q271 267 295.5 261Q320 255 349 255Q377 255 407.5 264Q438 273 473 295V190Q438 169 407.5 160Q377 151 349 151Q320 151 295.5 157Q271 163 247 170.5Q223 178 198.5 184Q174 190 145 190Q119 190 88.5 180.5Q58 171 26 150Z" glyph-name="approxequal.lt" horiz-adv-x="500" /><glyph d="M395 119Q395 101 412 101Q421 101 435 104V15Q419 5 400.5 -0.5Q382 -6 358 -6Q323 -6 295 9Q267 24 258 61Q244 32 212.5 13Q181 -6 138 -6Q81 -6 46.5 26.5Q12 59 12 111Q12 142 22 164Q32 186 48 201Q64 216 83.5 225.5Q103 235 122 241L251 282V288Q251 311 241 324.5Q231 338 207 338Q186 338 173.5 322.5Q161 307 161 284L28 307Q33 372 79 413.5Q125 455 213 455Q305 455 350 414Q395 373 395 283ZM251 198 188 174Q173 168 163.5 158Q154 148 154 131Q154 100 190 100Q219 100 235 118Q251 136 251 166ZM182 568Q182 552 191 542.5Q200 533 217 533Q235 533 244 542.5Q253 552 253 568Q253 584 244 594Q235 604 217 604Q200 604 191 594Q182 584 182 568ZM121 568Q121 608 147 634.5Q173 661 217 661Q261 661 287.5 634.5Q314 608 314 568Q314 528 287.5 502Q261 476 217 476Q173 476 147 502Q121 528 121 568Z" glyph-name="aring" horiz-adv-x="438" unicode="&#229;" /><glyph d="M395 119Q395 101 412 101Q421 101 435 104V15Q419 5 400.5 -0.5Q382 -6 358 -6Q323 -6 295 9Q267 24 258 61Q244 32 212.5 13Q181 -6 138 -6Q81 -6 46.5 26.5Q12 59 12 111Q12 142 22 164Q32 186 48 201Q64 216 83.5 225.5Q103 235 122 241L251 282V288Q251 311 241 324.5Q231 338 207 338Q186 338 173.5 322.5Q161 307 161 284L28 307Q33 372 79 413.5Q125 455 213 455Q305 455 350 414Q395 373 395 283ZM121 555Q121 591 146.5 615Q172 639 215 639Q259 639 285 615Q311 591 311 555Q311 519 285 495Q259 471 215 471Q172 471 146.5 495Q121 519 121 555ZM159 655 200 770H359L275 655ZM251 198 188 174Q173 168 163.5 158Q154 148 154 131Q154 100 190 100Q219 100 235 118Q251 136 251 166ZM181 555Q181 524 215 524Q250 524 250 555Q250 586 215 586Q181 586 181 555Z" glyph-name="aringacute" horiz-adv-x="438" unicode="&#507;" /><glyph d="M265 630 368 420H228L184 529L140 420H0L103 630Z" glyph-name="asciicircum" horiz-adv-x="368" unicode="^" /><glyph d="M15 204Q15 274 40 318.5Q65 363 114 363Q133 363 148.5 356.5Q164 350 177.5 342.5Q191 335 204 328.5Q217 322 231 322Q244 322 254.5 330Q265 338 267 360H349Q349 289 324 244.5Q299 200 250 200Q231 200 215.5 206.5Q200 213 186.5 220.5Q173 228 160 234.5Q147 241 133 241Q120 241 109.5 233Q99 225 97 204Z" glyph-name="asciitilde" horiz-adv-x="364" unicode="~" /><glyph d="M35 570 117 543V630H198V544L280 570L306 494L224 466L274 397L209 349L158 418L108 349L41 396L92 466L10 493Z" glyph-name="asterisk" horiz-adv-x="316" unicode="*" /><glyph d="M505 109Q540 109 559.5 152Q579 195 579 273Q579 371 529 428Q479 485 377 485Q316 485 267 463Q218 441 183.5 400.5Q149 360 130.5 302.5Q112 245 112 174Q112 115 129.5 71.5Q147 28 177.5 -1Q208 -30 249.5 -44Q291 -58 338 -58Q387 -58 429.5 -48Q472 -38 516 -13L536 -81Q492 -111 442.5 -124.5Q393 -138 337 -138Q270 -138 212.5 -118Q155 -98 112.5 -58.5Q70 -19 45.5 39Q21 97 21 174Q21 261 47 333Q73 405 120 457Q167 509 232.5 537.5Q298 566 377 566Q445 566 499 544Q553 522 590 483Q627 444 646.5 390Q666 336 666 273Q666 211 651 165.5Q636 120 610.5 90.5Q585 61 552.5 46.5Q520 32 485 32Q444 32 419.5 48Q395 64 383 92Q351 32 285 32Q234 32 202.5 69Q171 106 171 175Q171 217 182 256Q193 295 213 325Q233 355 261 373Q289 391 324 391Q359 391 378.5 375.5Q398 360 407 336L419 383H525L476 159Q465 109 505 109ZM380 219Q388 260 381.5 281.5Q375 303 352 303Q338 303 326 292.5Q314 282 306 264Q298 246 293.5 223Q289 200 289 175Q289 152 296.5 136.5Q304 121 323 121Q342 121 355.5 139.5Q369 158 377 203Z" glyph-name="at" horiz-adv-x="687" unicode="@" /><glyph d="M505 213Q540 213 559.5 256Q579 299 579 377Q579 475 529 532Q479 589 377 589Q316 589 267 567Q218 545 183.5 504.5Q149 464 130.5 406.5Q112 349 112 278Q112 219 129.5 175.5Q147 132 177.5 103Q208 74 249.5 60Q291 46 338 46Q387 46 429.5 56Q472 66 516 91L536 23Q492 -7 442.5 -20.5Q393 -34 337 -34Q270 -34 212.5 -14Q155 6 112.5 45.5Q70 85 45.5 143Q21 201 21 278Q21 365 47 437Q73 509 120 561Q167 613 232.5 641.5Q298 670 377 670Q445 670 499 648Q553 626 590 587Q627 548 646.5 494Q666 440 666 377Q666 315 651 269.5Q636 224 610.5 194.5Q585 165 552.5 150.5Q520 136 485 136Q444 136 419.5 152Q395 168 383 196Q351 136 285 136Q234 136 202.5 173Q171 210 171 279Q171 321 182 360Q193 399 213 429Q233 459 261 477Q289 495 324 495Q359 495 378.5 479.5Q398 464 407 440L419 487H525L476 263Q465 213 505 213ZM380 323Q388 364 381.5 385.5Q375 407 352 407Q338 407 326 396.5Q314 386 306 368Q298 350 293.5 327Q289 304 289 279Q289 256 296.5 240.5Q304 225 323 225Q342 225 355.5 243.5Q369 262 377 307Z" glyph-name="at.cap" horiz-adv-x="687" /><glyph d="M395 119Q395 101 412 101Q421 101 435 104V15Q419 5 400.5 -0.5Q382 -6 358 -6Q323 -6 295 9Q267 24 258 61Q244 32 212.5 13Q181 -6 138 -6Q81 -6 46.5 26.5Q12 59 12 111Q12 142 22 164Q32 186 48 201Q64 216 83.5 225.5Q103 235 122 241L251 282V288Q251 311 241 324.5Q231 338 207 338Q186 338 173.5 322.5Q161 307 161 284L28 307Q33 372 79 413.5Q125 455 213 455Q305 455 350 414Q395 373 395 283ZM251 198 188 174Q173 168 163.5 158Q154 148 154 131Q154 100 190 100Q219 100 235 118Q251 136 251 166ZM73 489Q73 552 95.5 591Q118 630 162 630Q180 630 192 623.5Q204 617 214.5 609.5Q225 602 235.5 596Q246 590 259 590Q271 590 280 598.5Q289 607 291 627H363Q363 564 340.5 525Q318 486 274 486Q256 486 243.5 492Q231 498 220.5 505.5Q210 513 200 519.5Q190 526 177 526Q164 526 155.5 517.5Q147 509 145 489Z" glyph-name="atilde" horiz-adv-x="438" unicode="&#227;" /><glyph d="M308 248Q308 336 246 336Q215 336 199.5 314.5Q184 293 184 258V188Q184 153 199.5 131.5Q215 110 246 110Q308 110 308 198ZM168 0H34V630H184V396Q202 424 230.5 439.5Q259 455 302 455Q381 455 419 398Q457 341 457 241V205Q457 105 419 48Q381 -9 302 -9Q259 -9 230.5 6.5Q202 22 184 50Z" glyph-name="b" horiz-adv-x="472" unicode="b" /><glyph d="M325 -83H190L0 659H135Z" glyph-name="backslash" horiz-adv-x="315" unicode="\" /><glyph d="M325 0H190L0 630H135Z" glyph-name="backslash.cap" horiz-adv-x="325" /><glyph d="M38 659H166V-83H38Z" glyph-name="bar" horiz-adv-x="204" unicode="|" /><glyph d="M38 630H166V0H38Z" glyph-name="bar.cap" horiz-adv-x="204" /><glyph d="M10 339H28Q59 339 67 355Q75 371 75 412V527Q75 594 109 627Q143 660 202 660H273V556H241Q219 556 214.5 545Q210 534 210 519V404Q210 351 191.5 323.5Q173 296 127 288Q173 280 191.5 252.5Q210 225 210 171V57Q210 42 214.5 31Q219 20 241 20H273V-84H202Q143 -84 109 -51Q75 -18 75 49V164Q75 205 67 221Q59 237 28 237H10Z" glyph-name="braceleft" horiz-adv-x="278" unicode="{" /><glyph d="M10 359H28Q59 359 67 375Q75 391 75 432V547Q75 614 109 647Q143 680 202 680H273V576H241Q219 576 214.5 565Q210 554 210 539V424Q210 371 191.5 343.5Q173 316 127 308Q173 300 191.5 272.5Q210 245 210 191V77Q210 62 214.5 51Q219 40 241 40H273V-64H202Q143 -64 109 -31Q75 2 75 69V184Q75 225 67 241Q59 257 28 257H10Z" glyph-name="braceleft.cap" horiz-adv-x="278" /><glyph d="M268 237H250Q219 237 211 221Q203 205 203 164V49Q203 -18 169 -51Q135 -84 76 -84H5V20H37Q59 20 63.5 31Q68 42 68 57V171Q68 225 86.5 252.5Q105 280 151 288Q105 296 86.5 323.5Q68 351 68 404V519Q68 534 63.5 545Q59 556 37 556H5V660H76Q135 660 169 627Q203 594 203 527V412Q203 371 211 355Q219 339 250 339H268Z" glyph-name="braceright" horiz-adv-x="278" unicode="}" /><glyph d="M268 257H250Q219 257 211 241Q203 225 203 184V69Q203 2 169 -31Q135 -64 76 -64H5V40H37Q59 40 63.5 51Q68 62 68 77V191Q68 245 86.5 272.5Q105 300 151 308Q105 316 86.5 343.5Q68 371 68 424V539Q68 554 63.5 565Q59 576 37 576H5V680H76Q135 680 169 647Q203 614 203 547V432Q203 391 211 375Q219 359 250 359H268Z" glyph-name="braceright.cap" horiz-adv-x="278" /><glyph d="M172 20H252V-84H38V660H252V556H172Z" glyph-name="bracketleft" horiz-adv-x="257" unicode="[" /><glyph d="M172 40H252V-64H38V680H252V576H172Z" glyph-name="bracketleft.cap" horiz-adv-x="257" /><glyph d="M85 556H5V660H219V-84H5V20H85Z" glyph-name="bracketright" horiz-adv-x="257" unicode="]" /><glyph d="M85 576H5V680H219V-64H5V40H85Z" glyph-name="bracketright.cap" horiz-adv-x="257" /><glyph d="M199 485Q135 485 99.5 524Q64 563 64 630H150Q150 603 163.5 589Q177 575 199 575Q222 575 235.5 589Q249 603 249 630H335Q335 563 299.5 524Q264 485 199 485Z" glyph-name="breve" horiz-adv-x="400" unicode="&#728;" /><glyph d="M199 661Q135 661 99.5 700Q64 739 64 806H150Q150 779 163.5 765Q177 751 199 751Q222 751 235.5 765Q249 779 249 806H335Q335 739 299.5 700Q264 661 199 661Z" glyph-name="breve.cap" horiz-adv-x="400" /><glyph d="M370 259Q370 221 356.5 190Q343 159 320 136.5Q297 114 266 101.5Q235 89 200 89Q165 89 134 101.5Q103 114 80 136.5Q57 159 43.5 190Q30 221 30 259Q30 297 43.5 328Q57 359 80 381.5Q103 404 134 416.5Q165 429 200 429Q235 429 266 416.5Q297 404 320 381.5Q343 359 356.5 328Q370 297 370 259Z" glyph-name="bullet" horiz-adv-x="400" unicode="&#8226;" /><glyph d="M370 320Q370 282 356.5 251Q343 220 320 197.5Q297 175 266 162.5Q235 150 200 150Q165 150 134 162.5Q103 175 80 197.5Q57 220 43.5 251Q30 282 30 320Q30 358 43.5 389Q57 420 80 442.5Q103 465 134 477.5Q165 490 200 490Q235 490 266 477.5Q297 465 320 442.5Q343 420 356.5 389Q370 358 370 320Z" glyph-name="bullet.cap" horiz-adv-x="400" /><glyph d="M15 230Q15 281 28.5 322.5Q42 364 68 393.5Q94 423 132 439Q170 455 219 455Q301 455 344.5 411Q388 367 399 298L272 266Q267 298 257 318.5Q247 339 220 339Q188 339 176 315Q164 291 164 257V189Q164 155 176 131Q188 107 220 107Q247 107 257 127.5Q267 148 272 180L399 148Q388 79 344.5 35Q301 -9 219 -9Q170 -9 132 7Q94 23 68 52.5Q42 82 28.5 123.5Q15 165 15 216V230Z" glyph-name="c" horiz-adv-x="423" unicode="c" /><glyph d="M15 230Q15 281 28.5 322.5Q42 364 68 393.5Q94 423 132 439Q170 455 219 455Q301 455 344.5 411Q388 367 399 298L272 266Q267 298 257 318.5Q247 339 220 339Q188 339 176 315Q164 291 164 257V189Q164 155 176 131Q188 107 220 107Q247 107 257 127.5Q267 148 272 180L399 148Q388 79 344.5 35Q301 -9 219 -9Q170 -9 132 7Q94 23 68 52.5Q42 82 28.5 123.5Q15 165 15 216V230ZM163 490 215 630H364L270 490Z" glyph-name="cacute" horiz-adv-x="423" unicode="&#263;" /><glyph d="M128 490 45 630H141L199 572L258 630H354L271 490Z" glyph-name="caron" horiz-adv-x="400" unicode="&#711;" /><glyph d="M120 484 133 630H279L214 484Z" glyph-name="caron.Slovak" horiz-adv-x="400" /><glyph d="M128 666 45 806H141L199 748L258 806H354L271 666Z" glyph-name="caron.cap" horiz-adv-x="400" /><glyph d="M15 230Q15 281 28.5 322.5Q42 364 68 393.5Q94 423 132 439Q170 455 219 455Q301 455 344.5 411Q388 367 399 298L272 266Q267 298 257 318.5Q247 339 220 339Q188 339 176 315Q164 291 164 257V189Q164 155 176 131Q188 107 220 107Q247 107 257 127.5Q267 148 272 180L399 148Q388 79 344.5 35Q301 -9 219 -9Q170 -9 132 7Q94 23 68 52.5Q42 82 28.5 123.5Q15 165 15 216V230ZM148 490 65 630H161L219 572L278 630H374L291 490Z" glyph-name="ccaron" horiz-adv-x="423" unicode="&#269;" /><glyph d="M315 -97Q315 -138 285.5 -156.5Q256 -175 215 -175Q186 -175 159 -166.5Q132 -158 115 -144L140 -92Q154 -103 170.5 -110Q187 -117 204 -117Q232 -117 232 -97Q232 -83 212 -77.5Q192 -72 157 -72L190 -7Q105 2 60 62Q15 122 15 216V230Q15 281 28.5 322.5Q42 364 68 393.5Q94 423 132 439Q170 455 219 455Q301 455 344.5 411Q388 367 399 298L272 266Q267 298 257 318.5Q247 339 220 339Q188 339 176 315Q164 291 164 257V189Q164 155 176 131Q188 107 220 107Q247 107 257 127.5Q267 148 272 180L399 148Q388 83 350 40.5Q312 -2 240 -8L232 -25Q266 -27 290.5 -43Q315 -59 315 -97Z" glyph-name="ccedilla" horiz-adv-x="423" unicode="&#231;" /><glyph d="M15 230Q15 281 28.5 322.5Q42 364 68 393.5Q94 423 132 439Q170 455 219 455Q301 455 344.5 411Q388 367 399 298L272 266Q267 298 257 318.5Q247 339 220 339Q188 339 176 315Q164 291 164 257V189Q164 155 176 131Q188 107 220 107Q247 107 257 127.5Q267 148 272 180L399 148Q388 79 344.5 35Q301 -9 219 -9Q170 -9 132 7Q94 23 68 52.5Q42 82 28.5 123.5Q15 165 15 216V230ZM291 626 374 483H278L219 544L161 483H65L148 626Z" glyph-name="ccircumflex" horiz-adv-x="423" unicode="&#265;" /><glyph d="M15 230Q15 281 28.5 322.5Q42 364 68 393.5Q94 423 132 439Q170 455 219 455Q301 455 344.5 411Q388 367 399 298L272 266Q267 298 257 318.5Q247 339 220 339Q188 339 176 315Q164 291 164 257V189Q164 155 176 131Q188 107 220 107Q247 107 257 127.5Q267 148 272 180L399 148Q388 79 344.5 35Q301 -9 219 -9Q170 -9 132 7Q94 23 68 52.5Q42 82 28.5 123.5Q15 165 15 216V230ZM145 630H295V491H145Z" glyph-name="cdotaccent" horiz-adv-x="423" unicode="&#267;" /><glyph d="M295 -97Q295 -138 265.5 -156.5Q236 -175 195 -175Q166 -175 139 -166.5Q112 -158 95 -144L113 -90Q127 -101 146 -109Q165 -117 184 -117Q212 -117 212 -97Q212 -83 192 -77.5Q172 -72 137 -72L180 11H230L212 -25Q246 -27 270.5 -43Q295 -59 295 -97Z" glyph-name="cedilla" horiz-adv-x="400" unicode="&#184;" /><glyph d="M295 -97Q295 -138 265.5 -156.5Q236 -175 195 -175Q166 -175 139 -166.5Q112 -158 95 -144L113 -90Q127 -101 146 -109Q165 -117 184 -117Q212 -117 212 -97Q212 -83 192 -77.5Q172 -72 137 -72L180 11H230L212 -25Q246 -27 270.5 -43Q295 -59 295 -97Z" glyph-name="cedilla.alt" horiz-adv-x="400" /><glyph d="M15 230Q15 323 60 382.5Q105 442 188 453V525H255V452Q321 444 360.5 403.5Q400 363 411 301L301 273Q297 299 286.5 317Q276 335 255 343V104Q275 112 285.5 129.5Q296 147 300 172L411 144Q400 83 360 42.5Q320 2 255 -6V-84H188V-7Q105 4 60 63.5Q15 123 15 216ZM148 197Q148 165 157 142Q166 119 188 108V340Q166 329 157 307Q148 285 148 256Z" glyph-name="cent" horiz-adv-x="429" unicode="&#162;" /><glyph d="M47 230Q47 323 92 382.5Q137 442 220 453V525H287V452Q353 444 392.5 403.5Q432 363 443 301L333 273Q329 299 318.5 317Q308 335 287 343V104Q307 112 317.5 129.5Q328 147 332 172L443 144Q432 83 392 42.5Q352 2 287 -6V-84H220V-7Q137 4 92 63.5Q47 123 47 216ZM180 197Q180 165 189 142Q198 119 220 108V340Q198 329 189 307Q180 285 180 256Z" glyph-name="cent.lt" horiz-adv-x="500" /><glyph d="M271 626 354 483H258L199 544L141 483H45L128 626Z" glyph-name="circumflex" horiz-adv-x="400" unicode="&#710;" /><glyph d="M271 806 354 663H258L199 724L141 663H45L128 806Z" glyph-name="circumflex.cap" horiz-adv-x="400" /><glyph d="M29 161H190V0H29ZM29 435H190V274H29Z" glyph-name="colon" horiz-adv-x="219" unicode=":" /><glyph d="M44 161H205V0H44ZM44 435H205V274H44Z" glyph-name="colon.tab" horiz-adv-x="250" /><glyph d="M29 161H190V10Q190 -130 29 -135V-61Q63 -60 81.5 -45.5Q100 -31 100 0H29Z" glyph-name="comma" horiz-adv-x="219" unicode="," /><glyph d="M44 161H205V10Q205 -130 44 -135V-61Q78 -60 96.5 -45.5Q115 -31 115 0H44Z" glyph-name="comma.tab" horiz-adv-x="250" /><glyph d="M132 -32H267V-107Q267 -164 233 -189Q199 -214 132 -214V-164Q159 -164 171.5 -157.5Q184 -151 185 -131H132Z" glyph-name="commaaccent" horiz-adv-x="400" /><glyph d="M267 491H132V561Q132 618 166 643Q200 668 267 668V618Q240 618 227.5 611.5Q215 605 214 585H267Z" glyph-name="commaturn" horiz-adv-x="400" /><glyph d="M319 641Q383 641 437 616.5Q491 592 530 548.5Q569 505 591 445.5Q613 386 613 315Q613 244 591 184.5Q569 125 530 81.5Q491 38 437 13.5Q383 -11 319 -11Q255 -11 201 13.5Q147 38 108 81.5Q69 125 47 184.5Q25 244 25 315Q25 386 47 445.5Q69 505 108 548.5Q147 592 201 616.5Q255 641 319 641ZM319 593Q264 593 219 572Q174 551 142.5 514Q111 477 94 426Q77 375 77 315Q77 255 94 204Q111 153 142.5 116Q174 79 219 58Q264 37 319 37Q374 37 419 58Q464 79 495.5 116Q527 153 544 204Q561 255 561 315Q561 375 544 426Q527 477 495.5 514Q464 551 419 572Q374 593 319 593ZM275 281Q275 237 287.5 217.5Q300 198 324 198Q347 198 355.5 214.5Q364 231 366 269L465 255Q460 190 427 151.5Q394 113 323 113Q244 113 206.5 165Q169 217 169 302V329Q169 414 206.5 466Q244 518 323 518Q394 518 427 479.5Q460 441 465 376L366 362Q364 400 355.5 416.5Q347 433 324 433Q300 433 287.5 413.5Q275 394 275 350Z" glyph-name="copyright" horiz-adv-x="638" unicode="&#169;" /><glyph d="M164 198Q164 110 226 110Q257 110 272.5 131.5Q288 153 288 188V258Q288 293 272.5 314.5Q257 336 226 336Q164 336 164 248ZM288 50Q270 22 241.5 6.5Q213 -9 170 -9Q91 -9 53 48Q15 105 15 205V241Q15 341 53 398Q91 455 170 455Q213 455 241.5 439.5Q270 424 288 396V630H438V0H288Z" glyph-name="d" horiz-adv-x="472" unicode="d" /><glyph d="M10 561H85V630H165V561H240V483H165V336H85V483H10Z" glyph-name="dagger" horiz-adv-x="250" unicode="&#8224;" /><glyph d="M15 459H92V507H15V577H92V630H168V577H245V507H168V459H245V389H168V336H92V389H15Z" glyph-name="daggerdbl" horiz-adv-x="260" unicode="&#8225;" /><glyph d="M164 198Q164 110 226 110Q257 110 272.5 131.5Q288 153 288 188V258Q288 293 272.5 314.5Q257 336 226 336Q164 336 164 248ZM288 50Q270 22 241.5 6.5Q213 -9 170 -9Q91 -9 53 48Q15 105 15 205V241Q15 341 53 398Q91 455 170 455Q213 455 241.5 439.5Q270 424 288 396V630H438V0H288ZM457 484 470 630H616L551 484Z" glyph-name="dcaron" horiz-adv-x="472" unicode="&#271;" /><glyph d="M211 573H288V630H438V573H473V481H438V0H288V50Q270 22 241.5 6.5Q213 -9 170 -9Q91 -9 53 48Q15 105 15 205V241Q15 341 53 398Q91 455 170 455Q213 455 241.5 439.5Q270 424 288 396V481H211ZM164 198Q164 110 226 110Q257 110 272.5 131.5Q288 153 288 188V258Q288 293 272.5 314.5Q257 336 226 336Q164 336 164 248Z" glyph-name="dcroat" horiz-adv-x="481" unicode="&#273;" /><glyph d="M89 523Q89 504 100.5 491Q112 478 133 478Q154 478 165.5 491Q177 504 177 523Q177 542 165.5 555Q154 568 133 568Q112 568 100.5 555Q89 542 89 523ZM256 523Q256 498 246.5 476.5Q237 455 220.5 439Q204 423 181.5 414Q159 405 133 405Q107 405 84.5 414Q62 423 45.5 439Q29 455 19.5 476.5Q10 498 10 523Q10 548 19.5 569.5Q29 591 45.5 607Q62 623 84.5 632Q107 641 133 641Q159 641 181.5 632Q204 623 220.5 607Q237 591 246.5 569.5Q256 548 256 523Z" glyph-name="degree" horiz-adv-x="266" unicode="&#176;" /><glyph d="M60 616H185V490H60ZM214 616H339V490H214Z" glyph-name="dieresis" horiz-adv-x="400" unicode="&#168;" /><glyph d="M60 792H185V666H60ZM214 792H339V666H214Z" glyph-name="dieresis.cap" horiz-adv-x="400" /><glyph d="M36 362H482V248H36ZM186 554H333V417H186ZM186 193H333V56H186Z" glyph-name="divide" horiz-adv-x="518" unicode="&#247;" /><glyph d="M27 362H473V248H27ZM177 554H324V417H177ZM177 193H324V56H177Z" glyph-name="divide.lt" horiz-adv-x="500" /><glyph d="M21 443Q21 484 34 518.5Q47 553 72 578.5Q97 604 132 619.5Q167 635 211 639V713H283V637Q368 625 412.5 574Q457 523 464 447L332 432Q330 461 318 481.5Q306 502 283 513V378L313 369Q389 346 432 304.5Q475 263 475 187Q475 142 460.5 107.5Q446 73 420.5 48Q395 23 360 9Q325 -5 283 -9V-86H211V-7Q121 3 71 54Q21 105 16 184L153 204Q153 133 211 113V251L172 262Q140 271 112 286Q84 301 64 322.5Q44 344 32.5 374Q21 404 21 443ZM333 171Q333 191 322.5 206Q312 221 283 230V111Q306 117 319.5 131.5Q333 146 333 171ZM162 461Q162 441 173 425.5Q184 410 211 400V519Q188 514 175 500Q162 486 162 461Z" glyph-name="dollar" horiz-adv-x="492" unicode="$" /><glyph d="M25 443Q25 484 38 518.5Q51 553 76 578.5Q101 604 136 619.5Q171 635 215 639V713H287V637Q372 625 416.5 574Q461 523 468 447L336 432Q334 461 322 481.5Q310 502 287 513V378L317 369Q393 346 436 304.5Q479 263 479 187Q479 142 464.5 107.5Q450 73 424.5 48Q399 23 364 9Q329 -5 287 -9V-86H215V-7Q125 3 75 54Q25 105 20 184L157 204Q157 133 215 113V251L176 262Q144 271 116 286Q88 301 68 322.5Q48 344 36.5 374Q25 404 25 443ZM337 171Q337 191 326.5 206Q316 221 287 230V111Q310 117 323.5 131.5Q337 146 337 171ZM166 461Q166 441 177 425.5Q188 410 215 400V519Q192 514 179 500Q166 486 166 461Z" glyph-name="dollar.lt" horiz-adv-x="500" /><glyph d="M125 630H275V491H125Z" glyph-name="dotaccent" horiz-adv-x="400" unicode="&#729;" /><glyph d="M125 806H275V667H125Z" glyph-name="dotaccent.cap" horiz-adv-x="400" /><glyph d="M123 -41H276V-176H123Z" glyph-name="dotbelow" horiz-adv-x="400" /><glyph d="M184 446V0H34V446Z" glyph-name="dotlessi" horiz-adv-x="218" unicode="&#305;" /><glyph d="M184 -32Q184 -103 147 -137.5Q110 -172 49 -172Q14 -172 -12.5 -164Q-39 -156 -59 -142L-42 -45Q-16 -63 7 -63Q22 -63 28 -54Q34 -45 34 -31V446H184Z" glyph-name="dotlessj" horiz-adv-x="218" unicode="&#567;" /><glyph d="M273 272Q273 303 259 320.5Q245 338 216 338Q187 338 173 320Q159 302 159 272ZM224 -9Q175 -9 136.5 7Q98 23 71 52.5Q44 82 29.5 123.5Q15 165 15 216V230Q15 281 29 322.5Q43 364 69 393.5Q95 423 132 439Q169 455 216 455Q267 455 304 439Q341 423 365.5 393.5Q390 364 401.5 322.5Q413 281 413 230V191H159Q159 151 175.5 129Q192 107 225 107Q248 107 263 121.5Q278 136 285 160L407 126Q392 62 346 26.5Q300 -9 224 -9Z" glyph-name="e" horiz-adv-x="428" unicode="e" /><glyph d="M273 272Q273 303 259 320.5Q245 338 216 338Q187 338 173 320Q159 302 159 272ZM224 -9Q175 -9 136.5 7Q98 23 71 52.5Q44 82 29.5 123.5Q15 165 15 216V230Q15 281 29 322.5Q43 364 69 393.5Q95 423 132 439Q169 455 216 455Q267 455 304 439Q341 423 365.5 393.5Q390 364 401.5 322.5Q413 281 413 230V191H159Q159 151 175.5 129Q192 107 225 107Q248 107 263 121.5Q278 136 285 160L407 126Q392 62 346 26.5Q300 -9 224 -9ZM164 490 216 630H365L271 490Z" glyph-name="eacute" horiz-adv-x="428" unicode="&#233;" /><glyph d="M273 272Q273 303 259 320.5Q245 338 216 338Q187 338 173 320Q159 302 159 272ZM224 -9Q175 -9 136.5 7Q98 23 71 52.5Q44 82 29.5 123.5Q15 165 15 216V230Q15 281 29 322.5Q43 364 69 393.5Q95 423 132 439Q169 455 216 455Q267 455 304 439Q341 423 365.5 393.5Q390 364 401.5 322.5Q413 281 413 230V191H159Q159 151 175.5 129Q192 107 225 107Q248 107 263 121.5Q278 136 285 160L407 126Q392 62 346 26.5Q300 -9 224 -9ZM220 485Q156 485 120.5 524Q85 563 85 630H171Q171 603 184.5 589Q198 575 220 575Q243 575 256.5 589Q270 603 270 630H356Q356 563 320.5 524Q285 485 220 485Z" glyph-name="ebreve" horiz-adv-x="428" unicode="&#277;" /><glyph d="M273 272Q273 303 259 320.5Q245 338 216 338Q187 338 173 320Q159 302 159 272ZM224 -9Q175 -9 136.5 7Q98 23 71 52.5Q44 82 29.5 123.5Q15 165 15 216V230Q15 281 29 322.5Q43 364 69 393.5Q95 423 132 439Q169 455 216 455Q267 455 304 439Q341 423 365.5 393.5Q390 364 401.5 322.5Q413 281 413 230V191H159Q159 151 175.5 129Q192 107 225 107Q248 107 263 121.5Q278 136 285 160L407 126Q392 62 346 26.5Q300 -9 224 -9ZM149 490 66 630H162L220 572L279 630H375L292 490Z" glyph-name="ecaron" horiz-adv-x="428" unicode="&#283;" /><glyph d="M273 272Q273 303 259 320.5Q245 338 216 338Q187 338 173 320Q159 302 159 272ZM224 -9Q175 -9 136.5 7Q98 23 71 52.5Q44 82 29.5 123.5Q15 165 15 216V230Q15 281 29 322.5Q43 364 69 393.5Q95 423 132 439Q169 455 216 455Q267 455 304 439Q341 423 365.5 393.5Q390 364 401.5 322.5Q413 281 413 230V191H159Q159 151 175.5 129Q192 107 225 107Q248 107 263 121.5Q278 136 285 160L407 126Q392 62 346 26.5Q300 -9 224 -9ZM292 626 375 483H279L220 544L162 483H66L149 626Z" glyph-name="ecircumflex" horiz-adv-x="428" unicode="&#234;" /><glyph d="M273 272Q273 303 259 320.5Q245 338 216 338Q187 338 173 320Q159 302 159 272ZM224 -9Q175 -9 136.5 7Q98 23 71 52.5Q44 82 29.5 123.5Q15 165 15 216V230Q15 281 29 322.5Q43 364 69 393.5Q95 423 132 439Q169 455 216 455Q267 455 304 439Q341 423 365.5 393.5Q390 364 401.5 322.5Q413 281 413 230V191H159Q159 151 175.5 129Q192 107 225 107Q248 107 263 121.5Q278 136 285 160L407 126Q392 62 346 26.5Q300 -9 224 -9ZM81 616H206V490H81ZM235 616H360V490H235Z" glyph-name="edieresis" horiz-adv-x="428" unicode="&#235;" /><glyph d="M273 272Q273 303 259 320.5Q245 338 216 338Q187 338 173 320Q159 302 159 272ZM224 -9Q175 -9 136.5 7Q98 23 71 52.5Q44 82 29.5 123.5Q15 165 15 216V230Q15 281 29 322.5Q43 364 69 393.5Q95 423 132 439Q169 455 216 455Q267 455 304 439Q341 423 365.5 393.5Q390 364 401.5 322.5Q413 281 413 230V191H159Q159 151 175.5 129Q192 107 225 107Q248 107 263 121.5Q278 136 285 160L407 126Q392 62 346 26.5Q300 -9 224 -9ZM146 630H296V491H146Z" glyph-name="edotaccent" horiz-adv-x="428" unicode="&#279;" /><glyph d="M273 272Q273 303 259 320.5Q245 338 216 338Q187 338 173 320Q159 302 159 272ZM224 -9Q175 -9 136.5 7Q98 23 71 52.5Q44 82 29.5 123.5Q15 165 15 216V230Q15 281 29 322.5Q43 364 69 393.5Q95 423 132 439Q169 455 216 455Q267 455 304 439Q341 423 365.5 393.5Q390 364 401.5 322.5Q413 281 413 230V191H159Q159 151 175.5 129Q192 107 225 107Q248 107 263 121.5Q278 136 285 160L407 126Q392 62 346 26.5Q300 -9 224 -9ZM172 490 77 630H227L278 490Z" glyph-name="egrave" horiz-adv-x="428" unicode="&#232;" /><glyph d="M249 517Q215 517 196.5 498Q178 479 178 444Q178 409 196.5 390.5Q215 372 249 372Q283 372 301.5 390.5Q320 409 320 444Q320 479 301.5 498Q283 517 249 517ZM249 -11Q198 -11 156 2Q114 15 83 39.5Q52 64 35 98.5Q18 133 18 176Q18 232 44.5 267.5Q71 303 114 317Q74 329 49.5 366Q25 403 25 454Q25 541 85 591Q145 641 249 641Q353 641 413 591Q473 541 473 454Q473 403 448.5 366Q424 329 384 317Q427 303 453.5 267.5Q480 232 480 176Q480 133 463 98.5Q446 64 415 39.5Q384 15 342 2Q300 -11 249 -11ZM249 260Q211 260 190 240.5Q169 221 169 186Q169 151 190 131.5Q211 112 249 112Q287 112 308 131.5Q329 151 329 186Q329 221 308 240.5Q287 260 249 260Z" glyph-name="eight" horiz-adv-x="498" unicode="8" /><glyph d="M250 517Q216 517 197.5 498Q179 479 179 444Q179 409 197.5 390.5Q216 372 250 372Q284 372 302.5 390.5Q321 409 321 444Q321 479 302.5 498Q284 517 250 517ZM250 -11Q199 -11 157 2Q115 15 84 39.5Q53 64 36 98.5Q19 133 19 176Q19 232 45.5 267.5Q72 303 115 317Q75 329 50.5 366Q26 403 26 454Q26 541 86 591Q146 641 250 641Q354 641 414 591Q474 541 474 454Q474 403 449.5 366Q425 329 385 317Q428 303 454.5 267.5Q481 232 481 176Q481 133 464 98.5Q447 64 416 39.5Q385 15 343 2Q301 -11 250 -11ZM250 260Q212 260 191 240.5Q170 221 170 186Q170 151 191 131.5Q212 112 250 112Q288 112 309 131.5Q330 151 330 186Q330 221 309 240.5Q288 260 250 260Z" glyph-name="eight.lt" horiz-adv-x="500" /><glyph d="M29 161H190V0H29ZM233 161H394V0H233ZM437 161H598V0H437Z" glyph-name="ellipsis" horiz-adv-x="627" unicode="&#8230;" /><glyph d="M273 272Q273 303 259 320.5Q245 338 216 338Q187 338 173 320Q159 302 159 272ZM224 -9Q175 -9 136.5 7Q98 23 71 52.5Q44 82 29.5 123.5Q15 165 15 216V230Q15 281 29 322.5Q43 364 69 393.5Q95 423 132 439Q169 455 216 455Q267 455 304 439Q341 423 365.5 393.5Q390 364 401.5 322.5Q413 281 413 230V191H159Q159 151 175.5 129Q192 107 225 107Q248 107 263 121.5Q278 136 285 160L407 126Q392 62 346 26.5Q300 -9 224 -9ZM95 592H345V491H95Z" glyph-name="emacron" horiz-adv-x="428" unicode="&#275;" /><glyph d="M26 305H500V205H26Z" glyph-name="emdash" horiz-adv-x="526" unicode="&#8212;" /><glyph d="M26 366H500V266H26Z" glyph-name="emdash.cap" horiz-adv-x="526" /><glyph d="M26 305H359V205H26Z" glyph-name="endash" horiz-adv-x="385" unicode="&#8211;" /><glyph d="M26 366H359V266H26Z" glyph-name="endash.cap" horiz-adv-x="385" /><glyph d="M184 0H34V446H184V395Q199 420 229.5 437.5Q260 455 305 455Q341 455 367.5 443.5Q394 432 410.5 412Q427 392 435 364.5Q443 337 443 304V-32Q443 -103 406 -137.5Q369 -172 308 -172Q273 -172 246.5 -164Q220 -156 200 -142L217 -45Q243 -63 266 -63Q281 -63 287 -54Q293 -45 293 -31V254Q293 288 284 309.5Q275 331 243 331Q208 331 196 304.5Q184 278 184 241Z" glyph-name="eng" horiz-adv-x="475" unicode="&#331;" /><glyph d="M351 33Q313 1 296 -20.5Q279 -42 279 -62Q279 -73 285.5 -78Q292 -83 303 -83Q319 -83 338 -75V-150Q326 -158 310.5 -163.5Q295 -169 272 -169Q238 -169 213 -150.5Q188 -132 188 -93Q188 -68 199 -47.5Q210 -27 227 -9H225Q176 -9 137 7Q98 23 71 52.5Q44 82 29.5 123.5Q15 165 15 216V230Q15 281 29 322.5Q43 364 69 393.5Q95 423 132 439Q169 455 216 455Q267 455 304 439Q341 423 365.5 393.5Q390 364 401.5 322.5Q413 281 413 230V191H159Q159 151 175.5 129Q192 107 225 107Q248 107 263 121.5Q278 136 285 160L407 126Q400 97 385.5 73.5Q371 50 351 33ZM273 272Q273 303 259 320.5Q245 338 216 338Q187 338 173 320Q159 302 159 272Z" glyph-name="eogonek" horiz-adv-x="428" unicode="&#281;" /><glyph d="M45 267H492V165H45ZM45 451H492V347H45Z" glyph-name="equal" horiz-adv-x="537" unicode="=" /><glyph d="M26 267H473V165H26ZM26 451H473V347H26Z" glyph-name="equal.lt" horiz-adv-x="500" /><glyph d="M103 516 169 539Q152 553 134.5 566.5Q117 580 100 592L225 642Q262 615 294 582L381 612L405 544L342 522Q384 459 406.5 387.5Q429 316 429 242V216Q429 165 415 123.5Q401 82 374.5 52.5Q348 23 309.5 7Q271 -9 222 -9Q173 -9 134.5 7Q96 23 69.5 52Q43 81 29 122Q15 163 15 214V226Q15 274 29 313Q43 352 68 379.5Q93 407 128 422Q163 437 205 437Q242 437 261 424Q255 438 245.5 452Q236 466 224 481L127 448ZM222 107Q254 107 267 131Q280 155 280 189V241Q280 275 267 299Q254 323 222 323Q190 323 177 299Q164 275 164 241V189Q164 155 177 131Q190 107 222 107Z" glyph-name="eth" horiz-adv-x="444" unicode="&#240;" /><glyph d="M30 161H191V0H30ZM191 630V466L158 203H64L31 466V630Z" glyph-name="exclam" horiz-adv-x="221" unicode="!" /><glyph d="M30 518H191V357H30ZM31 -112V52L64 315H158L191 52V-112Z" glyph-name="exclamdown" horiz-adv-x="221" unicode="&#161;" /><glyph d="M30 630H191V469H30ZM31 0V164L64 427H158L191 164V0Z" glyph-name="exclamdown.cap" horiz-adv-x="221" /><glyph d="M286 516Q275 521 264.5 523.5Q254 526 241 526Q220 526 211 515Q202 504 202 484V446H278V341H202V0H53V341H1V446H53V484Q53 558 91.5 599.5Q130 641 213 641Q242 641 262.5 637Q283 633 297 628Z" glyph-name="f" horiz-adv-x="280" unicode="f" /><glyph d="M286 517Q275 522 264.5 524Q254 526 241 526Q220 526 211 515Q202 504 202 484V446H278V341H202V0H53V341H1V446H53V484Q53 558 91 599.5Q129 641 207 641Q231 641 251.5 638Q272 635 286 630ZM588 248Q588 336 526 336Q495 336 479.5 314.5Q464 293 464 258V188Q464 153 479.5 131.5Q495 110 526 110Q588 110 588 198ZM448 0H314V630H464V396Q482 424 510.5 439.5Q539 455 582 455Q661 455 699 398Q737 341 737 241V205Q737 105 699 48Q661 -9 582 -9Q539 -9 510.5 6.5Q482 22 464 50Z" glyph-name="f_b" horiz-adv-x="752" /><glyph d="M547 517Q536 522 525.5 524Q515 526 502 526Q481 526 472 515Q463 504 463 484V446H539V341H463V0H314V341H202V0H53V341H1V446H53V475Q53 549 91.5 590.5Q130 632 213 632Q242 632 262.5 628Q283 624 297 619L286 507Q275 512 264.5 514.5Q254 517 241 517Q220 517 211 506Q202 495 202 475V446H314V484Q314 558 352 599.5Q390 641 468 641Q492 641 512.5 638Q533 635 547 630ZM849 248Q849 336 787 336Q756 336 740.5 314.5Q725 293 725 258V188Q725 153 740.5 131.5Q756 110 787 110Q849 110 849 198ZM709 0H575V630H725V396Q743 424 771.5 439.5Q800 455 843 455Q922 455 960 398Q998 341 998 241V205Q998 105 960 48Q922 -9 843 -9Q800 -9 771.5 6.5Q743 22 725 50Z" glyph-name="f_f_b" horiz-adv-x="1013" /><glyph d="M547 517Q536 522 525.5 524Q515 526 502 526Q481 526 472 515Q463 504 463 484V446H539V341H463V0H314V341H202V0H53V341H1V446H53V475Q53 549 91.5 590.5Q130 632 213 632Q242 632 262.5 628Q283 624 297 619L286 507Q275 512 264.5 514.5Q254 517 241 517Q220 517 211 506Q202 495 202 475V446H314V484Q314 558 352 599.5Q390 641 468 641Q492 641 512.5 638Q533 635 547 630ZM725 395Q740 420 770.5 437.5Q801 455 846 455Q882 455 908.5 443.5Q935 432 951.5 412Q968 392 976 364.5Q984 337 984 304V0H834V254Q834 288 825 309.5Q816 331 784 331Q749 331 737 304.5Q725 278 725 241V0H575V630H725Z" glyph-name="f_f_h" horiz-adv-x="1016" /><glyph d="M314 484Q314 558 352 599.5Q390 641 468 641Q492 641 512.5 638Q533 635 547 630V517Q536 522 525.5 524Q515 526 502 526Q481 526 472 515Q463 504 463 484V446H539V341H463V0H314V341H202V0H53V341H1V446H53V475Q53 549 91.5 590.5Q130 632 213 632Q242 632 262.5 628Q283 624 297 619L286 507Q275 512 264.5 514.5Q254 517 241 517Q220 517 211 506Q202 495 202 475V446H314ZM725 -32Q725 -103 688 -137.5Q651 -172 590 -172Q555 -172 528.5 -164Q502 -156 482 -142L499 -45Q525 -63 548 -63Q563 -63 569 -54Q575 -45 575 -31V446H725ZM575 630H725V491H575Z" glyph-name="f_f_j" horiz-adv-x="759" /><glyph d="M463 341V0H314V341H202V0H53V341H1V446H53V475Q53 549 91.5 590.5Q130 632 213 632Q242 632 262.5 628Q283 624 297 619L286 507Q275 512 264.5 514.5Q254 517 241 517Q220 517 211 506Q202 495 202 475V446H314V484Q314 558 352 599.5Q390 641 468 641Q492 641 512.5 638Q533 635 547 630V517Q536 522 525.5 524Q515 526 502 526Q481 526 472 515Q463 504 463 484V446H539V341ZM725 0H575V630H725V271L842 446H993L865 263L999 0H837L759 157L725 106Z" glyph-name="f_f_k" horiz-adv-x="999" /><glyph d="M286 517Q275 522 264.5 524Q254 526 241 526Q220 526 211 515Q202 504 202 484V446H278V341H202V0H53V341H1V446H53V484Q53 558 91 599.5Q129 641 207 641Q231 641 251.5 638Q272 635 286 630ZM464 395Q479 420 509.5 437.5Q540 455 585 455Q621 455 647.5 443.5Q674 432 690.5 412Q707 392 715 364.5Q723 337 723 304V0H573V254Q573 288 564 309.5Q555 331 523 331Q488 331 476 304.5Q464 278 464 241V0H314V630H464Z" glyph-name="f_h" horiz-adv-x="755" /><glyph d="M286 517Q275 522 264.5 524Q254 526 241 526Q220 526 211 515Q202 504 202 484V446H278V341H202V0H53V341H1V446H53V484Q53 558 91 599.5Q129 641 207 641Q231 641 251.5 638Q272 635 286 630ZM464 -32Q464 -103 427 -137.5Q390 -172 329 -172Q294 -172 267.5 -164Q241 -156 221 -142L238 -45Q264 -63 287 -63Q302 -63 308 -54Q314 -45 314 -31V446H464ZM314 630H464V491H314Z" glyph-name="f_j" horiz-adv-x="498" /><glyph d="M286 517Q275 522 264.5 524Q254 526 241 526Q220 526 211 515Q202 504 202 484V446H278V341H202V0H53V341H1V446H53V484Q53 558 91 599.5Q129 641 207 641Q231 641 251.5 638Q272 635 286 630ZM464 0H314V630H464V271L581 446H732L604 263L738 0H576L498 157L464 106Z" glyph-name="f_k" horiz-adv-x="738" /><glyph d="M547 516Q536 521 525.5 523.5Q515 526 502 526Q481 526 472 515Q463 504 463 484V446H539V341H463V0H314V341H202V0H53V341H1V446H53V475Q53 549 91.5 590.5Q130 632 213 632Q242 632 262.5 628Q283 624 297 619L286 507Q275 512 264.5 514.5Q254 517 241 517Q220 517 211 506Q202 495 202 475V446H314V484Q314 558 352.5 599.5Q391 641 474 641Q503 641 523.5 637Q544 633 558 628Z" glyph-name="ff" horiz-adv-x="541" unicode="&#64256;" /><glyph d="M314 484Q314 558 352 599.5Q390 641 468 641Q492 641 512.5 638Q533 635 547 630V517Q536 522 525.5 524Q515 526 502 526Q481 526 472 515Q463 504 463 484V446H539V341H463V0H314V341H202V0H53V341H1V446H53V475Q53 549 91.5 590.5Q130 632 213 632Q242 632 262.5 628Q283 624 297 619L286 507Q275 512 264.5 514.5Q254 517 241 517Q220 517 211 506Q202 495 202 475V446H314ZM725 446V0H575V446ZM575 630H725V491H575Z" glyph-name="ffi" horiz-adv-x="759" unicode="&#64259;" /><glyph d="M463 341V0H314V341H202V0H53V341H1V446H53V475Q53 549 91.5 590.5Q130 632 213 632Q242 632 262.5 628Q283 624 297 619L286 507Q275 512 264.5 514.5Q254 517 241 517Q220 517 211 506Q202 495 202 475V446H314V484Q314 558 352 599.5Q390 641 468 641Q492 641 512.5 638Q533 635 547 630V517Q536 522 525.5 524Q515 526 502 526Q481 526 472 515Q463 504 463 484V446H539V341ZM725 630V0H575V630Z" glyph-name="ffl" horiz-adv-x="759" unicode="&#64260;" /><glyph d="M286 517Q275 522 264.5 524Q254 526 241 526Q220 526 211 515Q202 504 202 484V446H278V341H202V0H53V341H1V446H53V484Q53 558 91 599.5Q129 641 207 641Q231 641 251.5 638Q272 635 286 630ZM464 446V0H314V446ZM314 630H464V491H314Z" glyph-name="fi" horiz-adv-x="498" unicode="&#64257;" /><glyph d="M240 306Q212 306 195 293Q178 280 170 262L23 273Q28 309 33.5 354.5Q39 400 43.5 448Q48 496 51.5 543.5Q55 591 56 630H427V492H173Q173 482 172 467Q171 452 169.5 437Q168 422 166 408Q164 394 163 385Q177 402 205.5 414.5Q234 427 276 427Q317 427 352 413.5Q387 400 412 373.5Q437 347 451 307Q465 267 465 214Q465 162 449 120.5Q433 79 403.5 49.5Q374 20 331.5 4.5Q289 -11 236 -11Q142 -11 82 39Q22 89 8 173L150 206Q157 164 178.5 139Q200 114 237 114Q275 114 295 139Q315 164 315 210Q315 255 296.5 280.5Q278 306 240 306Z" glyph-name="five" horiz-adv-x="476" unicode="5" /><glyph d="M249 306Q221 306 204 293Q187 280 179 262L32 273Q37 309 42.5 354.5Q48 400 52.5 448Q57 496 60.5 543.5Q64 591 65 630H436V492H182Q182 482 181 467Q180 452 178.5 437Q177 422 175 408Q173 394 172 385Q186 402 214.5 414.5Q243 427 285 427Q326 427 361 413.5Q396 400 421 373.5Q446 347 460 307Q474 267 474 214Q474 162 458 120.5Q442 79 412.5 49.5Q383 20 340.5 4.5Q298 -11 245 -11Q151 -11 91 39Q31 89 17 173L159 206Q166 164 187.5 139Q209 114 246 114Q284 114 304 139Q324 164 324 210Q324 255 305.5 280.5Q287 306 249 306Z" glyph-name="five.lt" horiz-adv-x="500" /><glyph d="M286 517Q275 522 264.5 524Q254 526 241 526Q220 526 211 515Q202 504 202 484V446H278V341H202V0H53V341H1V446H53V484Q53 558 91 599.5Q129 641 207 641Q231 641 251.5 638Q272 635 286 630ZM464 630V0H314V630Z" glyph-name="fl" horiz-adv-x="498" unicode="&#64258;" /><glyph d="M288 375H363V258H267L223 22Q208 -60 161.5 -97Q115 -134 49 -134Q28 -134 0 -129V-12Q6 -14 11 -14Q16 -14 21 -14Q37 -14 47.5 -8Q58 -2 64.5 9Q71 20 75 36.5Q79 53 83 73L118 258H53V375H140L160 482Q175 563 221.5 602Q268 641 330 641Q356 641 388 633V516Q382 517 377 517.5Q372 518 367 518Q333 518 320 494.5Q307 471 299 431Z" glyph-name="florin" horiz-adv-x="408" unicode="&#402;" /><glyph d="M344 375H419V258H323L279 22Q264 -60 217.5 -97Q171 -134 105 -134Q84 -134 56 -129V-12Q62 -14 67 -14Q72 -14 77 -14Q93 -14 103.5 -8Q114 -2 120.5 9Q127 20 131 36.5Q135 53 139 73L174 258H109V375H196L216 482Q231 563 277.5 602Q324 641 386 641Q412 641 444 633V516Q438 517 433 517.5Q428 518 423 518Q389 518 376 494.5Q363 471 355 431Z" glyph-name="florin.lt" horiz-adv-x="500" /><glyph d="M443 252H514V131H443V0H293V131H10V248L293 630H443ZM151 252H293V449Z" glyph-name="four" horiz-adv-x="524" unicode="4" /><glyph d="M427 252H488V131H427V0H281V131H14V248L281 630H427ZM150 252H281V443Z" glyph-name="four.lt" horiz-adv-x="500" /><glyph d="M355 630H448L93 0H0Z" glyph-name="fraction" horiz-adv-x="448" unicode="&#8260;" /><glyph d="M396 296Q396 261 381.5 234Q367 207 342 188.5Q317 170 283 160Q249 150 209 150Q169 150 136 159Q133 153 133 146Q133 134 141 126Q149 118 166 118H295Q369 118 403.5 84.5Q438 51 438 -9Q438 -51 420 -81Q402 -111 370.5 -130.5Q339 -150 296 -159.5Q253 -169 202 -169Q159 -169 121.5 -163Q84 -157 56 -144.5Q28 -132 11.5 -111.5Q-5 -91 -5 -61Q-5 -31 15 -10Q35 11 70 15Q47 23 32 44.5Q17 66 17 98Q17 128 32.5 149Q48 170 78 187Q52 206 37 233.5Q22 261 22 296V309Q22 343 36.5 370.5Q51 398 76 416.5Q101 435 135 445Q169 455 209 455Q283 455 333 423Q350 449 378 464.5Q406 480 436 480V367Q411 367 386 361Q391 349 393.5 336Q396 323 396 309ZM121 -38Q121 -75 202 -75Q252 -75 278 -66Q304 -57 304 -37Q304 -22 294.5 -15.5Q285 -9 269 -9H156Q121 -9 121 -38ZM166 297Q166 272 176.5 258Q187 244 209 244Q231 244 241.5 258Q252 272 252 297V308Q252 333 241.5 347Q231 361 209 361Q187 361 176.5 347Q166 333 166 308Z" glyph-name="g" horiz-adv-x="438" unicode="g" /><glyph d="M396 296Q396 261 381.5 234Q367 207 342 188.5Q317 170 283 160Q249 150 209 150Q169 150 136 159Q133 153 133 146Q133 134 141 126Q149 118 166 118H295Q369 118 403.5 84.5Q438 51 438 -9Q438 -51 420 -81Q402 -111 370.5 -130.5Q339 -150 296 -159.5Q253 -169 202 -169Q159 -169 121.5 -163Q84 -157 56 -144.5Q28 -132 11.5 -111.5Q-5 -91 -5 -61Q-5 -31 15 -10Q35 11 70 15Q47 23 32 44.5Q17 66 17 98Q17 128 32.5 149Q48 170 78 187Q52 206 37 233.5Q22 261 22 296V309Q22 343 36.5 370.5Q51 398 76 416.5Q101 435 135 445Q169 455 209 455Q283 455 333 423Q350 449 378 464.5Q406 480 436 480V367Q411 367 386 361Q391 349 393.5 336Q396 323 396 309ZM121 -38Q121 -75 202 -75Q252 -75 278 -66Q304 -57 304 -37Q304 -22 294.5 -15.5Q285 -9 269 -9H156Q121 -9 121 -38ZM166 297Q166 272 176.5 258Q187 244 209 244Q231 244 241.5 258Q252 272 252 297V308Q252 333 241.5 347Q231 361 209 361Q187 361 176.5 347Q166 333 166 308ZM216 485Q152 485 116.5 524Q81 563 81 630H167Q167 603 180.5 589Q194 575 216 575Q239 575 252.5 589Q266 603 266 630H352Q352 563 316.5 524Q281 485 216 485Z" glyph-name="gbreve" horiz-adv-x="438" unicode="&#287;" /><glyph d="M396 296Q396 261 381.5 234Q367 207 342 188.5Q317 170 283 160Q249 150 209 150Q169 150 136 159Q133 153 133 146Q133 134 141 126Q149 118 166 118H295Q369 118 403.5 84.5Q438 51 438 -9Q438 -51 420 -81Q402 -111 370.5 -130.5Q339 -150 296 -159.5Q253 -169 202 -169Q159 -169 121.5 -163Q84 -157 56 -144.5Q28 -132 11.5 -111.5Q-5 -91 -5 -61Q-5 -31 15 -10Q35 11 70 15Q47 23 32 44.5Q17 66 17 98Q17 128 32.5 149Q48 170 78 187Q52 206 37 233.5Q22 261 22 296V309Q22 343 36.5 370.5Q51 398 76 416.5Q101 435 135 445Q169 455 209 455Q283 455 333 423Q350 449 378 464.5Q406 480 436 480V367Q411 367 386 361Q391 349 393.5 336Q396 323 396 309ZM121 -38Q121 -75 202 -75Q252 -75 278 -66Q304 -57 304 -37Q304 -22 294.5 -15.5Q285 -9 269 -9H156Q121 -9 121 -38ZM166 297Q166 272 176.5 258Q187 244 209 244Q231 244 241.5 258Q252 272 252 297V308Q252 333 241.5 347Q231 361 209 361Q187 361 176.5 347Q166 333 166 308ZM288 626 371 483H275L216 544L158 483H62L145 626Z" glyph-name="gcircumflex" horiz-adv-x="438" unicode="&#285;" /><glyph d="M396 296Q396 261 381.5 234Q367 207 342 188.5Q317 170 283 160Q249 150 209 150Q169 150 136 159Q133 153 133 146Q133 134 141 126Q149 118 166 118H295Q369 118 403.5 84.5Q438 51 438 -9Q438 -51 420 -81Q402 -111 370.5 -130.5Q339 -150 296 -159.5Q253 -169 202 -169Q159 -169 121.5 -163Q84 -157 56 -144.5Q28 -132 11.5 -111.5Q-5 -91 -5 -61Q-5 -31 15 -10Q35 11 70 15Q47 23 32 44.5Q17 66 17 98Q17 128 32.5 149Q48 170 78 187Q52 206 37 233.5Q22 261 22 296V309Q22 343 36.5 370.5Q51 398 76 416.5Q101 435 135 445Q169 455 209 455Q283 455 333 423Q350 449 378 464.5Q406 480 436 480V367Q411 367 386 361Q391 349 393.5 336Q396 323 396 309ZM121 -38Q121 -75 202 -75Q252 -75 278 -66Q304 -57 304 -37Q304 -22 294.5 -15.5Q285 -9 269 -9H156Q121 -9 121 -38ZM166 297Q166 272 176.5 258Q187 244 209 244Q231 244 241.5 258Q252 272 252 297V308Q252 333 241.5 347Q231 361 209 361Q187 361 176.5 347Q166 333 166 308ZM284 491H149V561Q149 618 183 643Q217 668 284 668V618Q257 618 244.5 611.5Q232 605 231 585H284Z" glyph-name="gcommaaccent" horiz-adv-x="438" unicode="&#291;" /><glyph d="M396 296Q396 261 381.5 234Q367 207 342 188.5Q317 170 283 160Q249 150 209 150Q169 150 136 159Q133 153 133 146Q133 134 141 126Q149 118 166 118H295Q369 118 403.5 84.5Q438 51 438 -9Q438 -51 420 -81Q402 -111 370.5 -130.5Q339 -150 296 -159.5Q253 -169 202 -169Q159 -169 121.5 -163Q84 -157 56 -144.5Q28 -132 11.5 -111.5Q-5 -91 -5 -61Q-5 -31 15 -10Q35 11 70 15Q47 23 32 44.5Q17 66 17 98Q17 128 32.5 149Q48 170 78 187Q52 206 37 233.5Q22 261 22 296V309Q22 343 36.5 370.5Q51 398 76 416.5Q101 435 135 445Q169 455 209 455Q283 455 333 423Q350 449 378 464.5Q406 480 436 480V367Q411 367 386 361Q391 349 393.5 336Q396 323 396 309ZM121 -38Q121 -75 202 -75Q252 -75 278 -66Q304 -57 304 -37Q304 -22 294.5 -15.5Q285 -9 269 -9H156Q121 -9 121 -38ZM166 297Q166 272 176.5 258Q187 244 209 244Q231 244 241.5 258Q252 272 252 297V308Q252 333 241.5 347Q231 361 209 361Q187 361 176.5 347Q166 333 166 308ZM142 630H292V491H142Z" glyph-name="gdotaccent" horiz-adv-x="438" unicode="&#289;" /><glyph d="M445 474Q445 429 427 394.5Q409 360 377 344Q413 327 440.5 287.5Q468 248 468 181Q468 137 455 102.5Q442 68 418 44.5Q394 21 361 8.5Q328 -4 288 -4Q267 -4 251.5 -1.5Q236 1 222 6V120Q231 117 240.5 116Q250 115 255 115Q290 115 309 136.5Q328 158 328 197Q328 236 308.5 255.5Q289 275 258 275Q249 275 241.5 274.5Q234 274 226 273V399Q232 398 238 398Q244 398 252 398Q277 398 291 412.5Q305 427 305 459Q305 488 291 505Q277 522 251 522Q214 522 199 496.5Q184 471 184 433V0H34V420Q34 525 90.5 583Q147 641 247 641Q338 641 391.5 596.5Q445 552 445 474Z" glyph-name="germandbls" horiz-adv-x="484" unicode="&#223;" /><glyph d="M194 490 99 630H249L300 490Z" glyph-name="grave" horiz-adv-x="400" unicode="`" /><glyph d="M194 666 99 806H249L300 666Z" glyph-name="grave.cap" horiz-adv-x="400" /><glyph d="M374 225 34 81V212L270 303L34 394V525L374 381Z" glyph-name="greater" horiz-adv-x="400" unicode="&gt;" /><glyph d="M420 225 80 81V212L316 303L80 394V525L420 381Z" glyph-name="greater.lt" horiz-adv-x="500" /><glyph d="M375 56H35V169H375ZM375 299 35 187V311L260 375L35 437V562L375 451Z" glyph-name="greaterequal" horiz-adv-x="410" unicode="&#8805;" /><glyph d="M420 56H80V169H420ZM420 299 80 187V311L305 375L80 437V562L420 451Z" glyph-name="greaterequal.lt" horiz-adv-x="500" /><glyph d="M24 298 217 423V287L121 226L217 165V29L24 154ZM245 298 438 423V287L342 226L438 165V29L245 154Z" glyph-name="guillemotleft" horiz-adv-x="462" unicode="&#171;" /><glyph d="M24 387 217 512V376L121 315L217 254V118L24 243ZM245 387 438 512V376L342 315L438 254V118L245 243Z" glyph-name="guillemotleft.cap" horiz-adv-x="462" /><glyph d="M217 154 24 29V165L120 226L24 287V423L217 298ZM438 154 245 29V165L341 226L245 287V423L438 298Z" glyph-name="guillemotright" horiz-adv-x="462" unicode="&#187;" /><glyph d="M217 243 24 118V254L120 315L24 376V512L217 387ZM438 243 245 118V254L341 315L245 376V512L438 387Z" glyph-name="guillemotright.cap" horiz-adv-x="462" /><glyph d="M24 298 217 423V287L121 226L217 165V29L24 154Z" glyph-name="guilsinglleft" horiz-adv-x="241" unicode="&#8249;" /><glyph d="M24 387 217 512V376L121 315L217 254V118L24 243Z" glyph-name="guilsinglleft.cap" horiz-adv-x="241" /><glyph d="M217 154 24 29V165L120 226L24 287V423L217 298Z" glyph-name="guilsinglright" horiz-adv-x="241" unicode="&#8250;" /><glyph d="M217 243 24 118V254L120 315L24 376V512L217 387Z" glyph-name="guilsinglright.cap" horiz-adv-x="241" /><glyph d="M184 395Q199 420 229.5 437.5Q260 455 305 455Q341 455 367.5 443.5Q394 432 410.5 412Q427 392 435 364.5Q443 337 443 304V0H293V254Q293 288 284 309.5Q275 331 243 331Q208 331 196 304.5Q184 278 184 241V0H34V630H184Z" glyph-name="h" horiz-adv-x="475" unicode="h" /><glyph d="M8 573H43V630H193V573H270V481H193V395Q208 420 238.5 437.5Q269 455 314 455Q350 455 376.5 443.5Q403 432 419.5 412Q436 392 444 364.5Q452 337 452 304V0H302V254Q302 288 293 309.5Q284 331 252 331Q217 331 205 304.5Q193 278 193 241V0H43V481H8Z" glyph-name="hbar" horiz-adv-x="484" unicode="&#295;" /><glyph d="M184 395Q199 420 229.5 437.5Q260 455 305 455Q341 455 367.5 443.5Q394 432 410.5 412Q427 392 435 364.5Q443 337 443 304V0H293V254Q293 288 284 309.5Q275 331 243 331Q208 331 196 304.5Q184 278 184 241V0H34V630H184ZM310 806 393 663H297L238 724L180 663H84L167 806Z" glyph-name="hcircumflex" horiz-adv-x="475" unicode="&#293;" /><glyph d="M35 490 76 630H211L129 490ZM186 490 228 630H365L281 490Z" glyph-name="hungarumlaut" horiz-adv-x="400" unicode="&#733;" /><glyph d="M35 666 76 806H211L129 666ZM186 666 228 806H365L281 666Z" glyph-name="hungarumlaut.cap" horiz-adv-x="400" /><glyph d="M26 322H248V191H26Z" glyph-name="hyphen" horiz-adv-x="274" unicode="-" /><glyph d="M26 383H248V252H26Z" glyph-name="hyphen.cap" horiz-adv-x="274" /><glyph d="M184 446V0H34V446ZM34 630H184V491H34Z" glyph-name="i" horiz-adv-x="218" unicode="i" /><glyph d="M184 446V0H34V446ZM54 490 106 630H255L161 490Z" glyph-name="iacute" horiz-adv-x="218" unicode="&#237;" /><glyph d="M109 485Q45 485 16 524Q-13 563 -13 630H73Q73 575 109 575Q146 575 146 630H232Q232 563 203 524Q174 485 109 485ZM184 446V0H34V446Z" glyph-name="ibreve" horiz-adv-x="218" unicode="&#301;" /><glyph d="M181 630 251 487H155L109 548L64 487H-32L38 630ZM184 446V0H34V446Z" glyph-name="icircumflex" horiz-adv-x="218" unicode="&#238;" /><glyph d="M-24 616H95V490H-24ZM124 616H243V490H124ZM184 446V0H34V446Z" glyph-name="idieresis" horiz-adv-x="218" unicode="&#239;" /><glyph d="M184 446V0H34V446ZM35 630H185V491H35Z" glyph-name="idotaccent" horiz-adv-x="218" /><glyph d="M184 446V0H34V446ZM61 490 -34 630H116L167 490Z" glyph-name="igrave" horiz-adv-x="218" unicode="&#236;" /><glyph d="M184 446V0H34V446ZM34 630H184V491H34ZM392 -32Q392 -103 355 -137.5Q318 -172 257 -172Q222 -172 195.5 -164Q169 -156 149 -142L166 -45Q192 -63 215 -63Q230 -63 236 -54Q242 -45 242 -31V446H392ZM242 630H392V491H242Z" glyph-name="ij" horiz-adv-x="426" unicode="&#307;" /><glyph d="M184 446V0H34V446ZM1.4007 592H219.403V491H1.4007Z" glyph-name="imacron" horiz-adv-x="218" unicode="&#299;" /><glyph d="M34 630H184V491H34ZM34 0V446H184V0Q150 -19 137.5 -33.5Q125 -48 125 -62Q125 -73 131.5 -78Q138 -83 149 -83Q165 -83 184 -75V-150Q172 -158 156.5 -163.5Q141 -169 118 -169Q84 -169 59 -150.5Q34 -132 34 -93Q34 -65 48 -42.5Q62 -20 87 0Z" glyph-name="iogonek" horiz-adv-x="218" unicode="&#303;" /><glyph d="M-26 489Q-26 552 -5 591Q16 630 63 630Q81 630 91.5 623.5Q102 617 110 609.5Q118 602 125.5 596Q133 590 144 590Q153 590 161.5 598.5Q170 607 172 627H244Q244 564 223 525Q202 486 155 486Q137 486 126.5 492Q116 498 108 505.5Q100 513 92.5 519.5Q85 526 74 526Q64 526 56 517.5Q48 509 46 489ZM184 446V0H34V446Z" glyph-name="itilde" horiz-adv-x="218" unicode="&#297;" /><glyph d="M184 -32Q184 -103 147 -137.5Q110 -172 49 -172Q14 -172 -12.5 -164Q-39 -156 -59 -142L-42 -45Q-16 -63 7 -63Q22 -63 28 -54Q34 -45 34 -31V446H184ZM34 630H184V491H34Z" glyph-name="j" horiz-adv-x="218" unicode="j" /><glyph d="M181 630 251 487H155L109 548L64 487H-32L38 630ZM184 -32Q184 -103 147 -137.5Q110 -172 49 -172Q14 -172 -12.5 -164Q-39 -156 -59 -142L-42 -45Q-16 -63 7 -63Q22 -63 28 -54Q34 -45 34 -31V446H184Z" glyph-name="jcircumflex" horiz-adv-x="218" unicode="&#309;" /><glyph d="M184 0H34V630H184V271L301 446H452L324 263L458 0H296L218 157L184 106Z" glyph-name="k" horiz-adv-x="458" unicode="k" /><glyph d="M184 0H34V630H184V271L301 446H452L324 263L458 0H296L218 157L184 106ZM169 -32H304V-107Q304 -164 270 -189Q236 -214 169 -214V-164Q196 -164 208.5 -157.5Q221 -151 222 -131H169Z" glyph-name="kcommaaccent" horiz-adv-x="458" unicode="&#311;" /><glyph d="M184 0H34V446H184V271L301 446H452L324 263L458 0H296L218 157L184 106Z" glyph-name="kgreenlandic" horiz-adv-x="458" unicode="&#312;" /><glyph d="M184 630V0H34V630Z" glyph-name="l" horiz-adv-x="218" unicode="l" /><glyph d="M184 630V0H34V630ZM54 666 106 806H255L161 666Z" glyph-name="lacute" horiz-adv-x="218" unicode="&#314;" /><glyph d="M184 630V0H34V630ZM204 484 217 630H363L298 484Z" glyph-name="lcaron" horiz-adv-x="218" unicode="&#318;" /><glyph d="M184 630V0H34V630ZM43 -32H178V-107Q178 -164 144 -189Q110 -214 43 -214V-164Q70 -164 82.5 -157.5Q95 -151 96 -131H43Z" glyph-name="lcommaaccent" horiz-adv-x="218" unicode="&#316;" /><glyph d="M184 630V0H34V630ZM216.0126 384H355.2277V245H216.0126Z" glyph-name="ldot" horiz-adv-x="356" unicode="&#320;" /><glyph d="M26 381 367 525V394L130 303L367 212V81L26 225Z" glyph-name="less" horiz-adv-x="400" unicode="&lt;" /><glyph d="M79 381 420 525V394L183 303L420 212V81L79 225Z" glyph-name="less.lt" horiz-adv-x="500" /><glyph d="M35 169H375V56H35ZM35 451 375 562V437L148 375L375 311V187L35 299Z" glyph-name="lessequal" horiz-adv-x="410" unicode="&#8804;" /><glyph d="M80 169H420V56H80ZM80 451 420 562V437L193 375L420 311V187L80 299Z" glyph-name="lessequal.lt" horiz-adv-x="500" /><glyph d="M10 328 60 354V630H210V425L260 452V343L210 316V0H60V245L10 219Z" glyph-name="lslash" horiz-adv-x="270" unicode="&#322;" /><glyph d="M437 0H287V254Q287 288 279 309.5Q271 331 240 331Q222 331 211 323.5Q200 316 194 303Q188 290 186 274Q184 258 184 241V0H34V446H184V395Q199 421 231 438Q263 455 302 455Q351 455 379 436.5Q407 418 422 395Q443 420 474 437.5Q505 455 550 455Q589 455 616 443Q643 431 659.5 411Q676 391 683 363Q690 335 690 304V0H540V254Q540 288 532 309.5Q524 331 492 331Q474 331 463.5 323.5Q453 316 447 303Q441 290 439 274Q437 258 437 241Z" glyph-name="m" horiz-adv-x="722" unicode="m" /><glyph d="M75 592H325V491H75Z" glyph-name="macron" horiz-adv-x="400" unicode="&#175;" /><glyph d="M75 768H325V667H75Z" glyph-name="macron.cap" horiz-adv-x="400" /><glyph d="M36 362H482V248H36Z" glyph-name="minus" horiz-adv-x="518" unicode="&#8722;" /><glyph d="M27 362H473V248H27Z" glyph-name="minus.lt" horiz-adv-x="500" /><glyph d="M27 423 105 501 224 381 344 501 422 423 302 304 422 184 344 107 224 226 105 107 27 184 148 304Z" glyph-name="multiply" horiz-adv-x="449" unicode="&#215;" /><glyph d="M52 423 130 501 249 381 369 501 447 423 327 304 447 184 369 107 249 226 130 107 52 184 173 304Z" glyph-name="multiply.lt" horiz-adv-x="500" /><glyph d="M184 0H34V446H184V395Q199 420 229.5 437.5Q260 455 305 455Q341 455 367.5 443.5Q394 432 410.5 412Q427 392 435 364.5Q443 337 443 304V0H293V254Q293 288 284 309.5Q275 331 243 331Q208 331 196 304.5Q184 278 184 241Z" glyph-name="n" horiz-adv-x="475" unicode="n" /><glyph d="M184 0H34V446H184V395Q199 420 229.5 437.5Q260 455 305 455Q341 455 367.5 443.5Q394 432 410.5 412Q427 392 435 364.5Q443 337 443 304V0H293V254Q293 288 284 309.5Q275 331 243 331Q208 331 196 304.5Q184 278 184 241ZM186 490 238 630H387L293 490Z" glyph-name="nacute" horiz-adv-x="475" unicode="&#324;" /><glyph d="M184 0H34V446H184V395Q199 420 229.5 437.5Q260 455 305 455Q341 455 367.5 443.5Q394 432 410.5 412Q427 392 435 364.5Q443 337 443 304V0H293V254Q293 288 284 309.5Q275 331 243 331Q208 331 196 304.5Q184 278 184 241ZM171 490 88 630H184L242 572L301 630H397L314 490Z" glyph-name="ncaron" horiz-adv-x="475" unicode="&#328;" /><glyph d="M184 0H34V446H184V395Q199 420 229.5 437.5Q260 455 305 455Q341 455 367.5 443.5Q394 432 410.5 412Q427 392 435 364.5Q443 337 443 304V0H293V254Q293 288 284 309.5Q275 331 243 331Q208 331 196 304.5Q184 278 184 241ZM175 -32H310V-107Q310 -164 276 -189Q242 -214 175 -214V-164Q202 -164 214.5 -157.5Q227 -151 228 -131H175Z" glyph-name="ncommaaccent" horiz-adv-x="475" unicode="&#326;" /><glyph d="M320 429Q320 468 299.5 491.5Q279 515 241 515Q204 515 184 491.5Q164 468 164 429Q164 389 184 365.5Q204 342 241 342Q279 342 299.5 365.5Q320 389 320 429ZM240 641Q302 641 347.5 618Q393 595 422.5 554Q452 513 466.5 456.5Q481 400 481 334V307Q481 238 464.5 179.5Q448 121 416.5 79Q385 37 338.5 13Q292 -11 233 -11Q186 -11 149.5 1.5Q113 14 87 36Q61 58 44 89Q27 120 18 158L155 186Q161 155 181 135Q201 115 233 115Q257 115 275 128.5Q293 142 305 164.5Q317 187 323 217.5Q329 248 329 282Q311 256 276.5 241.5Q242 227 203 227Q117 227 66 279.5Q15 332 15 422Q15 472 31 512.5Q47 553 76.5 581.5Q106 610 147.5 625.5Q189 641 240 641Z" glyph-name="nine" horiz-adv-x="501" unicode="9" /><glyph d="M322 429Q322 468 301.5 491.5Q281 515 243 515Q206 515 186 491.5Q166 468 166 429Q166 389 186 365.5Q206 342 243 342Q281 342 301.5 365.5Q322 389 322 429ZM242 641Q304 641 349.5 618Q395 595 424.5 554Q454 513 468.5 456.5Q483 400 483 334V307Q483 238 466.5 179.5Q450 121 418.5 79Q387 37 340.5 13Q294 -11 235 -11Q188 -11 151.5 1.5Q115 14 89 36Q63 58 46 89Q29 120 20 158L157 186Q163 155 183 135Q203 115 235 115Q259 115 277 128.5Q295 142 307 164.5Q319 187 325 217.5Q331 248 331 282Q313 256 278.5 241.5Q244 227 205 227Q119 227 68 279.5Q17 332 17 422Q17 472 33 512.5Q49 553 78.5 581.5Q108 610 149.5 625.5Q191 641 242 641Z" glyph-name="nine.lt" horiz-adv-x="500" /><glyph glyph-name="nonmarkingreturn" horiz-adv-x="176" unicode="" /><glyph d="M45 449H311L372 545H466L405 449H492V349H341L289 266H492V166H225L164 69H70L131 166H45V266H195L247 349H45Z" glyph-name="notequal" horiz-adv-x="537" unicode="&#8800;" /><glyph d="M26 449H292L353 545H447L386 449H473V349H322L270 266H473V166H206L145 69H51L112 166H26V266H176L228 349H26Z" glyph-name="notequal.lt" horiz-adv-x="500" /><glyph d="M184 0H34V446H184V395Q199 420 229.5 437.5Q260 455 305 455Q341 455 367.5 443.5Q394 432 410.5 412Q427 392 435 364.5Q443 337 443 304V0H293V254Q293 288 284 309.5Q275 331 243 331Q208 331 196 304.5Q184 278 184 241ZM97 489Q97 552 119.5 591Q142 630 186 630Q204 630 216 623.5Q228 617 238.5 609.5Q249 602 259.5 596Q270 590 283 590Q295 590 304 598.5Q313 607 315 627H387Q387 564 364.5 525Q342 486 298 486Q280 486 267.5 492Q255 498 244.5 505.5Q234 513 224 519.5Q214 526 201 526Q188 526 179.5 517.5Q171 509 169 489Z" glyph-name="ntilde" horiz-adv-x="475" unicode="&#241;" /><glyph d="M488 166H399L363 0H253L289 166H211L175 0H65L101 166H20L40 266H122L144 365H56L76 465H165L201 630H311L275 465H353L389 630H499L463 465H544L524 365H442L420 266H508ZM232 266H310L332 365H254Z" glyph-name="numbersign" horiz-adv-x="564" unicode="#" /><glyph d="M222 107Q254 107 267 131Q280 155 280 189V257Q280 291 267 315Q254 339 222 339Q190 339 177 315Q164 291 164 257V189Q164 155 177 131Q190 107 222 107ZM222 -9Q173 -9 134.5 7Q96 23 69.5 52.5Q43 82 29 123.5Q15 165 15 216V230Q15 281 29 322.5Q43 364 69.5 393.5Q96 423 134.5 439Q173 455 222 455Q271 455 309.5 439Q348 423 374.5 393.5Q401 364 415 322.5Q429 281 429 230V216Q429 165 415 123.5Q401 82 374.5 52.5Q348 23 309.5 7Q271 -9 222 -9Z" glyph-name="o" horiz-adv-x="444" unicode="o" /><glyph d="M222 107Q254 107 267 131Q280 155 280 189V257Q280 291 267 315Q254 339 222 339Q190 339 177 315Q164 291 164 257V189Q164 155 177 131Q190 107 222 107ZM222 -9Q173 -9 134.5 7Q96 23 69.5 52.5Q43 82 29 123.5Q15 165 15 216V230Q15 281 29 322.5Q43 364 69.5 393.5Q96 423 134.5 439Q173 455 222 455Q271 455 309.5 439Q348 423 374.5 393.5Q401 364 415 322.5Q429 281 429 230V216Q429 165 415 123.5Q401 82 374.5 52.5Q348 23 309.5 7Q271 -9 222 -9ZM166 490 218 630H367L273 490Z" glyph-name="oacute" horiz-adv-x="444" unicode="&#243;" /><glyph d="M222 107Q254 107 267 131Q280 155 280 189V257Q280 291 267 315Q254 339 222 339Q190 339 177 315Q164 291 164 257V189Q164 155 177 131Q190 107 222 107ZM222 -9Q173 -9 134.5 7Q96 23 69.5 52.5Q43 82 29 123.5Q15 165 15 216V230Q15 281 29 322.5Q43 364 69.5 393.5Q96 423 134.5 439Q173 455 222 455Q271 455 309.5 439Q348 423 374.5 393.5Q401 364 415 322.5Q429 281 429 230V216Q429 165 415 123.5Q401 82 374.5 52.5Q348 23 309.5 7Q271 -9 222 -9ZM222 485Q158 485 122.5 524Q87 563 87 630H173Q173 603 186.5 589Q200 575 222 575Q245 575 258.5 589Q272 603 272 630H358Q358 563 322.5 524Q287 485 222 485Z" glyph-name="obreve" horiz-adv-x="444" unicode="&#335;" /><glyph d="M222 107Q254 107 267 131Q280 155 280 189V257Q280 291 267 315Q254 339 222 339Q190 339 177 315Q164 291 164 257V189Q164 155 177 131Q190 107 222 107ZM222 -9Q173 -9 134.5 7Q96 23 69.5 52.5Q43 82 29 123.5Q15 165 15 216V230Q15 281 29 322.5Q43 364 69.5 393.5Q96 423 134.5 439Q173 455 222 455Q271 455 309.5 439Q348 423 374.5 393.5Q401 364 415 322.5Q429 281 429 230V216Q429 165 415 123.5Q401 82 374.5 52.5Q348 23 309.5 7Q271 -9 222 -9ZM294 626 377 483H281L222 544L164 483H68L151 626Z" glyph-name="ocircumflex" horiz-adv-x="444" unicode="&#244;" /><glyph d="M222 107Q254 107 267 131Q280 155 280 189V257Q280 291 267 315Q254 339 222 339Q190 339 177 315Q164 291 164 257V189Q164 155 177 131Q190 107 222 107ZM222 -9Q173 -9 134.5 7Q96 23 69.5 52.5Q43 82 29 123.5Q15 165 15 216V230Q15 281 29 322.5Q43 364 69.5 393.5Q96 423 134.5 439Q173 455 222 455Q271 455 309.5 439Q348 423 374.5 393.5Q401 364 415 322.5Q429 281 429 230V216Q429 165 415 123.5Q401 82 374.5 52.5Q348 23 309.5 7Q271 -9 222 -9ZM83 616H208V490H83ZM237 616H362V490H237Z" glyph-name="odieresis" horiz-adv-x="444" unicode="&#246;" /><glyph d="M481 -9Q438 -9 406.5 4Q375 17 351 39Q326 18 294.5 4.5Q263 -9 222 -9Q173 -9 134.5 7Q96 23 69.5 52.5Q43 82 29 123.5Q15 165 15 216V230Q15 281 29 322.5Q43 364 69.5 393.5Q96 423 134.5 439Q173 455 222 455Q263 455 294.5 442Q326 429 351 408Q374 429 404.5 442Q435 455 475 455Q526 455 563 439Q600 423 624.5 393.5Q649 364 660.5 322.5Q672 281 672 230V191H418Q418 151 434.5 129Q451 107 484 107Q507 107 522 121.5Q537 136 544 160L666 126Q651 62 605 26.5Q559 -9 481 -9ZM222 107Q254 107 267 131Q280 155 280 189V257Q280 291 267 315Q254 339 222 339Q190 339 177 315Q164 291 164 257V189Q164 155 177 131Q190 107 222 107ZM532 272Q532 303 518 320.5Q504 338 475 338Q446 338 432 320Q418 302 418 272Z" glyph-name="oe" horiz-adv-x="687" unicode="&#339;" /><glyph d="M274 12Q257 -3 246 -13.5Q235 -24 229 -32.5Q223 -41 220.5 -47.5Q218 -54 218 -62Q218 -73 224.5 -78Q231 -83 242 -83Q258 -83 277 -75V-150Q265 -158 249.5 -163.5Q234 -169 211 -169Q177 -169 152 -150.5Q127 -132 127 -93Q127 -61 145 -36Q163 -11 189 12Z" glyph-name="ogonek" horiz-adv-x="400" unicode="&#731;" /><glyph d="M222 107Q254 107 267 131Q280 155 280 189V257Q280 291 267 315Q254 339 222 339Q190 339 177 315Q164 291 164 257V189Q164 155 177 131Q190 107 222 107ZM222 -9Q173 -9 134.5 7Q96 23 69.5 52.5Q43 82 29 123.5Q15 165 15 216V230Q15 281 29 322.5Q43 364 69.5 393.5Q96 423 134.5 439Q173 455 222 455Q271 455 309.5 439Q348 423 374.5 393.5Q401 364 415 322.5Q429 281 429 230V216Q429 165 415 123.5Q401 82 374.5 52.5Q348 23 309.5 7Q271 -9 222 -9ZM174 490 79 630H229L280 490Z" glyph-name="ograve" horiz-adv-x="444" unicode="&#242;" /><glyph d="M222 107Q254 107 267 131Q280 155 280 189V257Q280 291 267 315Q254 339 222 339Q190 339 177 315Q164 291 164 257V189Q164 155 177 131Q190 107 222 107ZM222 -9Q173 -9 134.5 7Q96 23 69.5 52.5Q43 82 29 123.5Q15 165 15 216V230Q15 281 29 322.5Q43 364 69.5 393.5Q96 423 134.5 439Q173 455 222 455Q271 455 309.5 439Q348 423 374.5 393.5Q401 364 415 322.5Q429 281 429 230V216Q429 165 415 123.5Q401 82 374.5 52.5Q348 23 309.5 7Q271 -9 222 -9ZM92 490 133 630H268L186 490ZM243 490 285 630H422L338 490Z" glyph-name="ohungarumlaut" horiz-adv-x="444" unicode="&#337;" /><glyph d="M222 107Q254 107 267 131Q280 155 280 189V257Q280 291 267 315Q254 339 222 339Q190 339 177 315Q164 291 164 257V189Q164 155 177 131Q190 107 222 107ZM222 -9Q173 -9 134.5 7Q96 23 69.5 52.5Q43 82 29 123.5Q15 165 15 216V230Q15 281 29 322.5Q43 364 69.5 393.5Q96 423 134.5 439Q173 455 222 455Q271 455 309.5 439Q348 423 374.5 393.5Q401 364 415 322.5Q429 281 429 230V216Q429 165 415 123.5Q401 82 374.5 52.5Q348 23 309.5 7Q271 -9 222 -9ZM97 592H347V491H97Z" glyph-name="omacron" horiz-adv-x="444" unicode="&#333;" /><glyph d="M8 535Q62 536 91 557Q120 578 133 631H254V0H97V431H8Z" glyph-name="one" horiz-adv-x="292" unicode="1" /><glyph d="M49 126H187V426H61V535H98Q156 535 183 556.5Q210 578 223 631H344V126H464V0H49Z" glyph-name="one.lt" horiz-adv-x="500" /><glyph d="M161 68H251V0H54V59L130 130Q151 149 160.5 161Q170 173 170 187Q170 197 165 200.5Q160 204 153 204Q143 204 135 193.5Q127 183 124 163L49 177Q50 195 57 212Q64 229 77.5 242.5Q91 256 110 264Q129 272 153 272Q201 272 227 248Q253 224 253 187Q253 143 211 110ZM73 589Q96 589 110.5 598.5Q125 608 130 630H198V362H114V534H73ZM30 338H288V295H30Z" glyph-name="onehalf" horiz-adv-x="318" unicode="&#189;" /><glyph d="M73 589Q96 589 110.5 598.5Q125 608 130 630H198V362H114V534H73ZM30 338H288V295H30ZM233 111H263V48H233V0H154V48H33V110L144 268H233ZM102 111H154V186Z" glyph-name="onequarter" horiz-adv-x="318" unicode="&#188;" /><glyph d="M11 589Q34 589 48.5 598.5Q63 608 68 630H136V362H52V534H11Z" glyph-name="onesuperior" horiz-adv-x="165" unicode="&#185;" /><glyph d="M248 264H35V329H248ZM156 478 122 464Q114 461 108 456Q102 451 102 441Q102 423 122 423Q139 423 147.5 433Q156 443 156 460ZM247 434Q247 430 248.5 427Q250 424 257 424Q260 424 270 426V370Q260 364 249 360.5Q238 357 223 357Q201 357 183.5 366Q166 375 160 398Q152 380 133 368.5Q114 357 88 357Q51 357 31.5 377Q12 397 12 428Q12 447 18.5 459.5Q25 472 35 480.5Q45 489 56.5 494.5Q68 500 78 503L156 530V535Q156 549 150.5 556Q145 563 131 563Q117 563 109.5 554.5Q102 546 100 533L20 540Q25 585 53.5 610Q82 635 136 635Q191 635 219 610Q247 585 247 530Z" glyph-name="ordfeminine" horiz-adv-x="283" unicode="&#170;" /><glyph d="M35 264V329H241V264ZM264 492Q264 431 231 394Q198 357 138 357Q78 357 45 394Q12 431 12 492V500Q12 561 45 598Q78 635 138 635Q198 635 231 598Q264 561 264 500ZM170 518Q170 535 163 549Q156 563 138 563Q120 563 112.5 549Q105 535 105 518V474Q105 457 112.5 443Q120 429 138 429Q156 429 163 443Q170 457 170 474Z" glyph-name="ordmasculine" horiz-adv-x="276" unicode="&#186;" /><glyph d="M59 65Q15 123 15 216V230Q15 281 29 322.5Q43 364 69.5 393.5Q96 423 134.5 439Q173 455 222 455Q254 455 281 448Q308 441 331 428L363 470L419 427L384 381Q406 352 417.5 313.5Q429 275 429 230V216Q429 165 415 123.5Q401 82 374.5 52.5Q348 23 309.5 7Q271 -9 222 -9Q158 -9 113 18L81 -25L25 19ZM222 103Q254 103 271.5 127Q289 151 289 185V253L183 112Q198 103 222 103ZM155 192 260 333Q247 343 222 343Q190 343 172.5 319Q155 295 155 261Z" glyph-name="oslash" horiz-adv-x="444" unicode="&#248;" /><glyph d="M59 65Q15 123 15 216V230Q15 281 29 322.5Q43 364 69.5 393.5Q96 423 134.5 439Q173 455 222 455Q254 455 281 448Q308 441 331 428L363 470L419 427L384 381Q406 352 417.5 313.5Q429 275 429 230V216Q429 165 415 123.5Q401 82 374.5 52.5Q348 23 309.5 7Q271 -9 222 -9Q158 -9 113 18L81 -25L25 19ZM222 103Q254 103 271.5 127Q289 151 289 185V253L183 112Q198 103 222 103ZM155 192 260 333Q247 343 222 343Q190 343 172.5 319Q155 295 155 261ZM166 490 218 630H367L273 490Z" glyph-name="oslashacute" horiz-adv-x="444" unicode="&#511;" /><glyph d="M222 107Q254 107 267 131Q280 155 280 189V257Q280 291 267 315Q254 339 222 339Q190 339 177 315Q164 291 164 257V189Q164 155 177 131Q190 107 222 107ZM222 -9Q173 -9 134.5 7Q96 23 69.5 52.5Q43 82 29 123.5Q15 165 15 216V230Q15 281 29 322.5Q43 364 69.5 393.5Q96 423 134.5 439Q173 455 222 455Q271 455 309.5 439Q348 423 374.5 393.5Q401 364 415 322.5Q429 281 429 230V216Q429 165 415 123.5Q401 82 374.5 52.5Q348 23 309.5 7Q271 -9 222 -9ZM77 489Q77 552 99.5 591Q122 630 166 630Q184 630 196 623.5Q208 617 218.5 609.5Q229 602 239.5 596Q250 590 263 590Q275 590 284 598.5Q293 607 295 627H367Q367 564 344.5 525Q322 486 278 486Q260 486 247.5 492Q235 498 224.5 505.5Q214 513 204 519.5Q194 526 181 526Q168 526 159.5 517.5Q151 509 149 489Z" glyph-name="otilde" horiz-adv-x="444" unicode="&#245;" /><glyph d="M308 248Q308 336 246 336Q215 336 199.5 314.5Q184 293 184 258V188Q184 153 199.5 131.5Q215 110 246 110Q308 110 308 198ZM184 -160H34V446H184V396Q202 424 230.5 439.5Q259 455 302 455Q381 455 419 398Q457 341 457 241V205Q457 105 419 48Q381 -9 302 -9Q259 -9 230.5 6.5Q202 22 184 50Z" glyph-name="p" horiz-adv-x="472" unicode="p" /><glyph d="M201 259Q160 259 126 271.5Q92 284 67 308Q42 332 28.5 366.5Q15 401 15 445Q15 488 28.5 522.5Q42 557 67 581Q92 605 126 617.5Q160 630 201 630H464V0H360V527H305V0H201Z" glyph-name="paragraph" horiz-adv-x="502" unicode="&#182;" /><glyph d="M20 288Q20 339 28.5 390Q37 441 53 489Q69 537 92 580.5Q115 624 144 660H280Q212 571 187 477Q162 383 162 288Q162 193 187 99Q212 5 280 -84H144Q115 -48 92 -4.5Q69 39 53 87Q37 135 28.5 186Q20 237 20 288Z" glyph-name="parenleft" horiz-adv-x="280" unicode="(" /><glyph d="M20 308Q20 359 28.5 410Q37 461 53 509Q69 557 92 600.5Q115 644 144 680H280Q212 591 187 497Q162 403 162 308Q162 213 187 119Q212 25 280 -64H144Q115 -28 92 15.5Q69 59 53 107Q37 155 28.5 206Q20 257 20 308Z" glyph-name="parenleft.cap" horiz-adv-x="280" /><glyph d="M260 288Q260 237 251.5 186Q243 135 227 87Q211 39 188 -4.5Q165 -48 136 -84H0Q68 5 93 99Q118 193 118 288Q118 383 93 477Q68 571 0 660H136Q165 624 188 580.5Q211 537 227 489Q243 441 251.5 390Q260 339 260 288Z" glyph-name="parenright" horiz-adv-x="280" unicode=")" /><glyph d="M260 308Q260 257 251.5 206Q243 155 227 107Q211 59 188 15.5Q165 -28 136 -64H0Q68 25 93 119Q118 213 118 308Q118 403 93 497Q68 591 0 680H136Q165 644 188 600.5Q211 557 227 509Q243 461 251.5 410Q260 359 260 308Z" glyph-name="parenright.cap" horiz-adv-x="280" /><glyph d="M114 492Q114 455 123 439.5Q132 424 151 424Q171 424 179.5 439.5Q188 455 188 492Q188 529 179.5 544.5Q171 560 151 560Q132 560 123 544.5Q114 529 114 492ZM427 630H520L165 0H72ZM20 492Q20 527 30 554.5Q40 582 57.5 601.5Q75 621 99 631Q123 641 151 641Q179 641 203 631Q227 621 244.5 601.5Q262 582 272 554.5Q282 527 282 492Q282 457 272 429.5Q262 402 244.5 382.5Q227 363 203 353Q179 343 151 343Q123 343 99 353Q75 363 57.5 382.5Q40 402 30 429.5Q20 457 20 492ZM404 138Q404 101 413 85.5Q422 70 441 70Q461 70 469.5 85.5Q478 101 478 138Q478 175 469.5 190.5Q461 206 441 206Q422 206 413 190.5Q404 175 404 138ZM310 138Q310 173 320 200.5Q330 228 347.5 247.5Q365 267 389 277Q413 287 441 287Q469 287 493 277Q517 267 534.5 247.5Q552 228 562 200.5Q572 173 572 138Q572 103 562 75.5Q552 48 534.5 28.5Q517 9 493 -1Q469 -11 441 -11Q413 -11 389 -1Q365 9 347.5 28.5Q330 48 320 75.5Q310 103 310 138Z" glyph-name="percent" horiz-adv-x="592" unicode="%" /><glyph d="M106 507Q106 476 112.5 461Q119 446 136 446Q153 446 159.5 461Q166 476 166 507Q166 538 159.5 553Q153 568 136 568Q119 568 112.5 553Q106 538 106 507ZM115 0H26L385 630H474ZM253 507Q253 444 220 408.5Q187 373 136 373Q85 373 52 408.5Q19 444 19 507Q19 570 52 605.5Q85 641 136 641Q187 641 220 605.5Q253 570 253 507ZM334 123Q334 92 340.5 77Q347 62 364 62Q381 62 387.5 77Q394 92 394 123Q394 154 387.5 169Q381 184 364 184Q347 184 340.5 169Q334 154 334 123ZM481 123Q481 60 448 24.5Q415 -11 364 -11Q313 -11 280 24.5Q247 60 247 123Q247 186 280 221.5Q313 257 364 257Q415 257 448 221.5Q481 186 481 123Z" glyph-name="percent.lt" horiz-adv-x="500" /><glyph d="M29 161H190V0H29Z" glyph-name="period" horiz-adv-x="219" unicode="." /><glyph d="M44 161H205V0H44Z" glyph-name="period.tab" horiz-adv-x="250" /><glyph d="M45 331H206V170H45Z" glyph-name="periodcentered" horiz-adv-x="251" unicode="&#183;" /><glyph d="M45 392H206V231H45Z" glyph-name="periodcentered.cap" horiz-adv-x="251" /><glyph d="M114 492Q114 455 123 439.5Q132 424 151 424Q171 424 179.5 439.5Q188 455 188 492Q188 529 179.5 544.5Q171 560 151 560Q132 560 123 544.5Q114 529 114 492ZM427 630H520L165 0H72ZM20 492Q20 527 30 554.5Q40 582 57.5 601.5Q75 621 99 631Q123 641 151 641Q179 641 203 631Q227 621 244.5 601.5Q262 582 272 554.5Q282 527 282 492Q282 457 272 429.5Q262 402 244.5 382.5Q227 363 203 353Q179 343 151 343Q123 343 99 353Q75 363 57.5 382.5Q40 402 30 429.5Q20 457 20 492ZM404 138Q404 101 413 85.5Q422 70 441 70Q461 70 469.5 85.5Q478 101 478 138Q478 175 469.5 190.5Q461 206 441 206Q422 206 413 190.5Q404 175 404 138ZM310 138Q310 173 320 200.5Q330 228 347.5 247.5Q365 267 389 277Q413 287 441 287Q469 287 493 277Q517 267 534.5 247.5Q552 228 562 200.5Q572 173 572 138Q572 103 562 75.5Q552 48 534.5 28.5Q517 9 493 -1Q469 -11 441 -11Q413 -11 389 -1Q365 9 347.5 28.5Q330 48 320 75.5Q310 103 310 138ZM678 138Q678 101 687 85.5Q696 70 715 70Q735 70 743.5 85.5Q752 101 752 138Q752 175 743.5 190.5Q735 206 715 206Q696 206 687 190.5Q678 175 678 138ZM584 138Q584 173 594 200.5Q604 228 621.5 247.5Q639 267 663 277Q687 287 715 287Q743 287 767 277Q791 267 808.5 247.5Q826 228 836 200.5Q846 173 846 138Q846 103 836 75.5Q826 48 808.5 28.5Q791 9 767 -1Q743 -11 715 -11Q687 -11 663 -1Q639 9 621.5 28.5Q604 48 594 75.5Q584 103 584 138Z" glyph-name="perthousand" horiz-adv-x="866" unicode="&#8240;" /><glyph d="M108 507Q108 476 114.5 461Q121 446 138 446Q155 446 161.5 461Q168 476 168 507Q168 538 161.5 553Q155 568 138 568Q121 568 114.5 553Q108 538 108 507ZM117 0H28L387 630H476ZM255 507Q255 444 222 408.5Q189 373 138 373Q87 373 54 408.5Q21 444 21 507Q21 570 54 605.5Q87 641 138 641Q189 641 222 605.5Q255 570 255 507ZM336 123Q336 92 342.5 77Q349 62 366 62Q383 62 389.5 77Q396 92 396 123Q396 154 389.5 169Q383 184 366 184Q349 184 342.5 169Q336 154 336 123ZM483 123Q483 60 450 24.5Q417 -11 366 -11Q315 -11 282 24.5Q249 60 249 123Q249 186 282 221.5Q315 257 366 257Q417 257 450 221.5Q483 186 483 123ZM592 123Q592 92 598.5 77Q605 62 622 62Q639 62 645.5 77Q652 92 652 123Q652 154 645.5 169Q639 184 622 184Q605 184 598.5 169Q592 154 592 123ZM739 123Q739 60 706 24.5Q673 -11 622 -11Q571 -11 538 24.5Q505 60 505 123Q505 186 538 221.5Q571 257 622 257Q673 257 706 221.5Q739 186 739 123Z" glyph-name="perthousand.lt" horiz-adv-x="760" /><glyph d="M316 533V366H482V252H316V86H202V252H36V366H202V533Z" glyph-name="plus" horiz-adv-x="518" unicode="+" /><glyph d="M307 533V366H473V252H307V86H193V252H27V366H193V533Z" glyph-name="plus.lt" horiz-adv-x="500" /><glyph d="M322 563V446H478V333H322V216H209V333H54V446H209V563ZM54 169H478V56H54Z" glyph-name="plusminus" horiz-adv-x="532" unicode="&#177;" /><glyph d="M306 563V446H462V333H306V216H193V333H38V446H193V563ZM38 169H462V56H38Z" glyph-name="plusminus.lt" horiz-adv-x="500" /><glyph d="M319 641Q383 641 437 616.5Q491 592 530 548.5Q569 505 591 445.5Q613 386 613 315Q613 244 591 184.5Q569 125 530 81.5Q491 38 437 13.5Q383 -11 319 -11Q255 -11 201 13.5Q147 38 108 81.5Q69 125 47 184.5Q25 244 25 315Q25 386 47 445.5Q69 505 108 548.5Q147 592 201 616.5Q255 641 319 641ZM319 593Q264 593 219 572Q174 551 142.5 514Q111 477 94 426Q77 375 77 315Q77 255 94 204Q111 153 142.5 116Q174 79 219 58Q264 37 319 37Q374 37 419 58Q464 79 495.5 116Q527 153 544 204Q561 255 561 315Q561 375 544 426Q527 477 495.5 514Q464 551 419 572Q374 593 319 593ZM330 317Q356 317 368.5 329Q381 341 381 370Q381 399 368.5 411Q356 423 330 423H305V317ZM305 122H205V503H343Q412 503 445 467.5Q478 432 478 370Q478 307 445 272Q412 237 343 237H305Z" glyph-name="published" horiz-adv-x="638" /><glyph d="M164 198Q164 110 226 110Q257 110 272.5 131.5Q288 153 288 188V258Q288 293 272.5 314.5Q257 336 226 336Q164 336 164 248ZM288 50Q270 22 241.5 6.5Q213 -9 170 -9Q91 -9 53 48Q15 105 15 205V241Q15 341 53 398Q91 455 170 455Q213 455 241.5 439.5Q270 424 288 396V446H438V-160H288Z" glyph-name="q" horiz-adv-x="472" unicode="q" /><glyph d="M145 161H307V0H145ZM229 641Q280 641 319.5 627Q359 613 386 587.5Q413 562 427 526.5Q441 491 441 448Q441 399 420.5 361.5Q400 324 362 283Q339 258 320.5 238.5Q302 219 299 204H156Q158 239 178 271.5Q198 304 228 335Q257 365 272.5 389.5Q288 414 288 444Q288 476 274 494.5Q260 513 229 513Q194 513 174.5 484.5Q155 456 148 403L4 431Q7 472 22 510Q37 548 65 577Q93 606 134 623.5Q175 641 229 641Z" glyph-name="question" horiz-adv-x="451" unicode="?" /><glyph d="M306 357H144V518H306ZM222 -123Q171 -123 131.5 -109Q92 -95 65 -69.5Q38 -44 24 -8.5Q10 27 10 70Q10 119 30.5 156.5Q51 194 89 235Q112 260 130.5 279.5Q149 299 152 314H295Q293 279 273 246.5Q253 214 223 183Q194 153 178.5 128.5Q163 104 163 74Q163 42 177 23.5Q191 5 222 5Q257 5 276.5 33.5Q296 62 303 115L447 87Q444 46 429 8Q414 -30 386 -59Q358 -88 317 -105.5Q276 -123 222 -123Z" glyph-name="questiondown" horiz-adv-x="451" unicode="&#191;" /><glyph d="M306 469H144V630H306ZM222 -11Q171 -11 131.5 3Q92 17 65 42.5Q38 68 24 103.5Q10 139 10 182Q10 231 30.5 268.5Q51 306 89 347Q112 372 130.5 391.5Q149 411 152 426H295Q293 391 273 358.5Q253 326 223 295Q194 265 178.5 240.5Q163 216 163 186Q163 154 177 135.5Q191 117 222 117Q257 117 276.5 145.5Q296 174 303 227L447 199Q444 158 429 120Q414 82 386 53Q358 24 317 6.5Q276 -11 222 -11Z" glyph-name="questiondown.cap" horiz-adv-x="451" /><glyph d="M25 630H150V370H25ZM190 630H315V370H190Z" glyph-name="quotedbl" horiz-adv-x="340" unicode="&quot;" /><glyph d="M223 142H381V9Q381 -62 342.5 -94Q304 -126 223 -128V-56Q258 -54 276 -42Q294 -30 295 0H223ZM29 142H188V9Q188 -62 149 -94Q110 -126 29 -128V-56Q64 -54 82 -42Q100 -30 101 0H29Z" glyph-name="quotedblbase" horiz-adv-x="410" unicode="&#8222;" /><glyph d="M188 361H29V494Q29 565 68 597Q107 629 188 631V559Q153 557 135 545Q117 533 116 503H188ZM381 361H223V494Q223 565 262 597Q301 629 381 631V559Q346 557 328 545Q310 533 310 503H381Z" glyph-name="quotedblleft" horiz-adv-x="410" unicode="&#8220;" /><glyph d="M223 630H381V497Q381 426 342.5 394Q304 362 223 360V432Q258 434 276 446Q294 458 295 488H223ZM29 630H188V497Q188 426 149 394Q110 362 29 360V432Q64 434 82 446Q100 458 101 488H29Z" glyph-name="quotedblright" horiz-adv-x="410" unicode="&#8221;" /><glyph d="M188 361H29V494Q29 565 68 597Q107 629 188 631V559Q153 557 135 545Q117 533 116 503H188Z" glyph-name="quoteleft" horiz-adv-x="217" unicode="&#8216;" /><glyph d="M29 630H188V497Q188 426 149 394Q110 362 29 360V432Q64 434 82 446Q100 458 101 488H29Z" glyph-name="quoteright" horiz-adv-x="217" unicode="&#8217;" /><glyph d="M29 142H188V9Q188 -62 149 -94Q110 -126 29 -128V-56Q64 -54 82 -42Q100 -30 101 0H29Z" glyph-name="quotesinglbase" horiz-adv-x="217" unicode="&#8218;" /><glyph d="M25 630H160V370H25Z" glyph-name="quotesingle" horiz-adv-x="185" unicode="&apos;" /><glyph d="M326 306Q311 311 299 312.5Q287 314 273 314Q228 314 206 290.5Q184 267 184 215V0H34V446H184V376Q198 418 225 435Q252 452 289 452Q315 452 332 443Z" glyph-name="r" horiz-adv-x="332" unicode="r" /><glyph d="M326 306Q311 311 299 312.5Q287 314 273 314Q228 314 206 290.5Q184 267 184 215V0H34V446H184V376Q198 418 225 435Q252 452 289 452Q315 452 332 443ZM127 490 179 630H328L234 490Z" glyph-name="racute" horiz-adv-x="332" unicode="&#341;" /><glyph d="M326 306Q311 311 299 312.5Q287 314 273 314Q228 314 206 290.5Q184 267 184 215V0H34V446H184V376Q198 418 225 435Q252 452 289 452Q315 452 332 443ZM113 490 30 630H126L184 572L243 630H339L256 490Z" glyph-name="rcaron" horiz-adv-x="332" unicode="&#345;" /><glyph d="M326 306Q311 311 299 312.5Q287 314 273 314Q228 314 206 290.5Q184 267 184 215V0H34V446H184V376Q198 418 225 435Q252 452 289 452Q315 452 332 443ZM43 -32H178V-107Q178 -164 144 -189Q110 -214 43 -214V-164Q70 -164 82.5 -157.5Q95 -151 96 -131H43Z" glyph-name="rcommaaccent" horiz-adv-x="332" unicode="&#343;" /><glyph d="M203 386Q200 390 198 396Q196 402 195 416Q193 432 187.5 436Q182 440 171 440H152V386H104V562H186Q218 562 233.5 547Q249 532 249 506Q249 486 239 474.5Q229 463 215 461Q240 455 243 427Q245 407 246 399Q247 391 252 386ZM172 480Q199 480 199 500Q199 520 172 520H152V480ZM171 337Q225 337 257.5 374Q290 411 290 474Q290 537 257.5 574Q225 611 171 611Q117 611 84.5 574Q52 537 52 474Q52 411 84.5 374Q117 337 171 337ZM171 307Q138 307 110.5 319Q83 331 63 352.5Q43 374 31.5 405Q20 436 20 474Q20 512 31.5 543Q43 574 63 595.5Q83 617 110.5 629Q138 641 171 641Q204 641 231.5 629Q259 617 279 595.5Q299 574 310.5 543Q322 512 322 474Q322 436 310.5 405Q299 374 279 352.5Q259 331 231.5 319Q204 307 171 307Z" glyph-name="registered" horiz-adv-x="342" unicode="&#174;" /><glyph d="M164 568Q164 552 173 542.5Q182 533 199 533Q217 533 226 542.5Q235 552 235 568Q235 584 226 594Q217 604 199 604Q182 604 173 594Q164 584 164 568ZM103 568Q103 608 129 634.5Q155 661 199 661Q243 661 269.5 634.5Q296 608 296 568Q296 528 269.5 502Q243 476 199 476Q155 476 129 502Q103 528 103 568Z" glyph-name="ring" horiz-adv-x="400" unicode="&#730;" /><glyph d="M164 744Q164 728 173 718.5Q182 709 199 709Q217 709 226 718.5Q235 728 235 744Q235 760 226 770Q217 780 199 780Q182 780 173 770Q164 760 164 744ZM103 744Q103 784 129 810.5Q155 837 199 837Q243 837 269.5 810.5Q296 784 296 744Q296 704 269.5 678Q243 652 199 652Q155 652 129 678Q103 704 103 744Z" glyph-name="ring.cap" horiz-adv-x="400" /><glyph d="M134 147Q136 121 154 108Q172 95 199 95Q219 95 232 101.5Q245 108 245 123Q245 137 236.5 143Q228 149 211 153L137 170Q81 183 48.5 215.5Q16 248 16 309Q16 341 28.5 367.5Q41 394 63.5 413.5Q86 433 118.5 444Q151 455 191 455Q276 455 321 415.5Q366 376 373 314L253 297Q249 321 235 336Q221 351 192 351Q173 351 161.5 343.5Q150 336 150 322Q150 308 158.5 301.5Q167 295 184 290L252 273Q316 257 348.5 225Q381 193 381 135Q381 66 332.5 28.5Q284 -9 199 -9Q119 -9 69.5 26Q20 61 9 126Z" glyph-name="s" horiz-adv-x="396" unicode="s" /><glyph d="M134 147Q136 121 154 108Q172 95 199 95Q219 95 232 101.5Q245 108 245 123Q245 137 236.5 143Q228 149 211 153L137 170Q81 183 48.5 215.5Q16 248 16 309Q16 341 28.5 367.5Q41 394 63.5 413.5Q86 433 118.5 444Q151 455 191 455Q276 455 321 415.5Q366 376 373 314L253 297Q249 321 235 336Q221 351 192 351Q173 351 161.5 343.5Q150 336 150 322Q150 308 158.5 301.5Q167 295 184 290L252 273Q316 257 348.5 225Q381 193 381 135Q381 66 332.5 28.5Q284 -9 199 -9Q119 -9 69.5 26Q20 61 9 126ZM143 490 195 630H344L250 490Z" glyph-name="sacute" horiz-adv-x="396" unicode="&#347;" /><glyph d="M134 147Q136 121 154 108Q172 95 199 95Q219 95 232 101.5Q245 108 245 123Q245 137 236.5 143Q228 149 211 153L137 170Q81 183 48.5 215.5Q16 248 16 309Q16 341 28.5 367.5Q41 394 63.5 413.5Q86 433 118.5 444Q151 455 191 455Q276 455 321 415.5Q366 376 373 314L253 297Q249 321 235 336Q221 351 192 351Q173 351 161.5 343.5Q150 336 150 322Q150 308 158.5 301.5Q167 295 184 290L252 273Q316 257 348.5 225Q381 193 381 135Q381 66 332.5 28.5Q284 -9 199 -9Q119 -9 69.5 26Q20 61 9 126ZM128 490 45 630H141L199 572L258 630H354L271 490Z" glyph-name="scaron" horiz-adv-x="396" unicode="&#353;" /><glyph d="M295 -97Q295 -138 265.5 -156.5Q236 -175 195 -175Q166 -175 139 -166.5Q112 -158 95 -144L120 -92Q134 -103 150.5 -110Q167 -117 184 -117Q212 -117 212 -97Q212 -83 192 -77.5Q172 -72 137 -72L170 -7Q102 -2 60 32.5Q18 67 9 126L134 147Q136 121 154 108Q172 95 199 95Q219 95 232 101.5Q245 108 245 123Q245 137 236.5 143Q228 149 211 153L137 170Q81 183 48.5 215.5Q16 248 16 309Q16 341 28.5 367.5Q41 394 63.5 413.5Q86 433 118.5 444Q151 455 191 455Q276 455 321 415.5Q366 376 373 314L253 297Q249 321 235 336Q221 351 192 351Q173 351 161.5 343.5Q150 336 150 322Q150 308 158.5 301.5Q167 295 184 290L252 273Q316 257 348.5 225Q381 193 381 135Q381 71 338 34Q295 -3 220 -8L212 -25Q246 -27 270.5 -43Q295 -59 295 -97Z" glyph-name="scedilla" horiz-adv-x="396" unicode="&#351;" /><glyph d="M134 147Q136 121 154 108Q172 95 199 95Q219 95 232 101.5Q245 108 245 123Q245 137 236.5 143Q228 149 211 153L137 170Q81 183 48.5 215.5Q16 248 16 309Q16 341 28.5 367.5Q41 394 63.5 413.5Q86 433 118.5 444Q151 455 191 455Q276 455 321 415.5Q366 376 373 314L253 297Q249 321 235 336Q221 351 192 351Q173 351 161.5 343.5Q150 336 150 322Q150 308 158.5 301.5Q167 295 184 290L252 273Q316 257 348.5 225Q381 193 381 135Q381 66 332.5 28.5Q284 -9 199 -9Q119 -9 69.5 26Q20 61 9 126ZM271 626 354 483H258L199 544L141 483H45L128 626Z" glyph-name="scircumflex" horiz-adv-x="396" unicode="&#349;" /><glyph d="M134 147Q136 121 154 108Q172 95 199 95Q219 95 232 101.5Q245 108 245 123Q245 137 236.5 143Q228 149 211 153L137 170Q81 183 48.5 215.5Q16 248 16 309Q16 341 28.5 367.5Q41 394 63.5 413.5Q86 433 118.5 444Q151 455 191 455Q276 455 321 415.5Q366 376 373 314L253 297Q249 321 235 336Q221 351 192 351Q173 351 161.5 343.5Q150 336 150 322Q150 308 158.5 301.5Q167 295 184 290L252 273Q316 257 348.5 225Q381 193 381 135Q381 66 332.5 28.5Q284 -9 199 -9Q119 -9 69.5 26Q20 61 9 126ZM132 -32H267V-107Q267 -164 233 -189Q199 -214 132 -214V-164Q159 -164 171.5 -157.5Q184 -151 185 -131H132Z" glyph-name="scommaaccent" horiz-adv-x="396" unicode="&#537;" /><glyph d="M461 246Q461 211 445 180.5Q429 150 404 129Q426 99 426 56Q426 23 413 -4.5Q400 -32 376 -52.5Q352 -73 317.5 -84Q283 -95 240 -95Q150 -95 99.5 -55Q49 -15 43 55L165 59Q170 35 188.5 21Q207 7 242 7Q260 7 274 17Q288 27 288 47Q288 58 280.5 68Q273 78 250 88L155 128Q90 156 55 195.5Q20 235 20 300Q20 334 36 365Q52 396 76 416Q66 431 60.5 449Q55 467 55 490Q55 523 68 550.5Q81 578 105 598.5Q129 619 163.5 630Q198 641 241 641Q331 641 381.5 601Q432 561 438 491L316 487Q311 511 292.5 525Q274 539 239 539Q221 539 207 529Q193 519 193 499Q193 488 200.5 478Q208 468 231 458L326 418Q390 390 425.5 350.5Q461 311 461 246ZM162 348Q157 343 153.5 335Q150 327 150 316Q150 298 157.5 287.5Q165 277 188 265L303 206Q307 204 310.5 202Q314 200 318 198Q323 203 327 211Q331 219 331 230Q331 248 323.5 258.5Q316 269 293 281L178 340Z" glyph-name="section" horiz-adv-x="481" unicode="&#167;" /><glyph d="M29 161H190V10Q190 -130 29 -135V-61Q63 -60 81.5 -45.5Q100 -31 100 0H29ZM29 435H190V274H29Z" glyph-name="semicolon" horiz-adv-x="219" unicode=";" /><glyph d="M44 161H205V10Q205 -130 44 -135V-61Q78 -60 96.5 -45.5Q115 -31 115 0H44ZM44 435H205V274H44Z" glyph-name="semicolon.tab" horiz-adv-x="250" /><glyph d="M9 489V630H433V507Q391 451 362.5 393.5Q334 336 316.5 274Q299 212 291.5 144Q284 76 284 0H112Q113 78 124.5 144.5Q136 211 157 270.5Q178 330 207.5 383.5Q237 437 275 489Z" glyph-name="seven" horiz-adv-x="442" unicode="7" /><glyph d="M38 489V630H482V507Q440 451 410 393.5Q380 336 360.5 274Q341 212 332 144Q323 76 323 0H151Q152 78 165 144.5Q178 211 201 270.5Q224 330 255 383.5Q286 437 324 489Z" glyph-name="seven.lt" horiz-adv-x="500" /><glyph d="M181 201Q181 162 201.5 138.5Q222 115 260 115Q297 115 317 138.5Q337 162 337 201Q337 241 317 264.5Q297 288 260 288Q222 288 201.5 264.5Q181 241 181 201ZM261 -11Q199 -11 153.5 12Q108 35 78.5 76Q49 117 34.5 173.5Q20 230 20 296V323Q20 392 36.5 450.5Q53 509 84.5 551Q116 593 162.5 617Q209 641 268 641Q362 641 413.5 594Q465 547 483 472L346 444Q340 475 320 495Q300 515 268 515Q244 515 226 501.5Q208 488 196 465.5Q184 443 178 412.5Q172 382 172 348Q190 374 224.5 388.5Q259 403 298 403Q384 403 435 350.5Q486 298 486 208Q486 158 470 117.5Q454 77 424.5 48.5Q395 20 353.5 4.5Q312 -11 261 -11Z" glyph-name="six" horiz-adv-x="501" unicode="6" /><glyph d="M178 201Q178 162 198.5 138.5Q219 115 257 115Q294 115 314 138.5Q334 162 334 201Q334 241 314 264.5Q294 288 257 288Q219 288 198.5 264.5Q178 241 178 201ZM258 -11Q196 -11 150.5 12Q105 35 75.5 76Q46 117 31.5 173.5Q17 230 17 296V323Q17 392 33.5 450.5Q50 509 81.5 551Q113 593 159.5 617Q206 641 265 641Q359 641 410.5 594Q462 547 480 472L343 444Q337 475 317 495Q297 515 265 515Q241 515 223 501.5Q205 488 193 465.5Q181 443 175 412.5Q169 382 169 348Q187 374 221.5 388.5Q256 403 295 403Q381 403 432 350.5Q483 298 483 208Q483 158 467 117.5Q451 77 421.5 48.5Q392 20 350.5 4.5Q309 -11 258 -11Z" glyph-name="six.lt" horiz-adv-x="500" /><glyph d="M180 659H315L125 -83H-10Z" glyph-name="slash" horiz-adv-x="315" unicode="/" /><glyph d="M190 630H325L135 0H0Z" glyph-name="slash.cap" horiz-adv-x="325" /><glyph glyph-name="space" horiz-adv-x="176" unicode=" " /><glyph glyph-name="space.tab" horiz-adv-x="250" /><glyph d="M236 443Q236 417 241.5 396.5Q247 376 255 356H353V265H284Q290 239 290 207Q290 167 281 133Q293 128 306 124.5Q319 121 333 121Q368 121 382.5 141.5Q397 162 397 211L490 201Q500 141 494 100.5Q488 60 470 35.5Q452 11 424 0Q396 -11 363 -11Q319 -11 287.5 4Q256 19 231 40Q209 16 181.5 2.5Q154 -11 123 -11Q72 -11 38.5 18Q5 47 5 103Q5 153 37 181Q69 209 117 209Q130 209 141.5 206.5Q153 204 164 200Q163 219 159.5 235Q156 251 151 265H51V356H106Q97 376 91 400.5Q85 425 85 458Q85 498 99 531.5Q113 565 137.5 589.5Q162 614 197 627.5Q232 641 274 641Q368 641 418 588Q468 535 473 437L346 425Q343 463 330.5 484.5Q318 506 287 506Q264 506 250 490.5Q236 475 236 443ZM122 76Q146 76 155 112Q137 127 120 127Q95 127 95 101Q95 89 102.5 82.5Q110 76 122 76Z" glyph-name="sterling" horiz-adv-x="504" unicode="&#163;" /><glyph d="M229 443Q229 417 235 396.5Q241 376 249 356H345V265H280Q286 239 286 207Q286 187 283.5 168.5Q281 150 276 133Q300 121 326 121Q359 121 370.5 141.5Q382 162 382 211L476 201Q485 141 479 100Q473 59 456 34.5Q439 10 412 -0.5Q385 -11 354 -11Q312 -11 282 4Q252 19 229 39Q208 15 181.5 2Q155 -11 126 -11Q77 -11 45 18Q13 47 13 103Q13 153 44 181Q75 209 120 209Q132 209 143 206.5Q154 204 165 200Q164 219 160 235Q156 251 151 265H57V356H106Q97 376 91 400.5Q85 425 85 458Q85 498 99 531.5Q113 565 137.5 589.5Q162 614 196 627.5Q230 641 270 641Q358 641 405 591Q452 541 458 447L331 426Q330 464 318.5 485Q307 506 278 506Q256 506 242.5 490.5Q229 475 229 443ZM125 76Q146 76 157 112Q139 127 123 127Q99 127 99 101Q99 76 125 76Z" glyph-name="sterling.lt" horiz-adv-x="500" /><glyph d="M47 341H0V433L19 437Q51 444 65.5 461Q80 478 88 509L102 567H195V446H282V341H195V152Q195 113 231 113Q245 113 255.5 116Q266 119 286 127L292 27Q240 -7 174 -7Q148 -7 125 0Q102 7 84.5 22Q67 37 57 61Q47 85 47 120Z" glyph-name="t" horiz-adv-x="304" unicode="t" /><glyph d="M10 295H57V341H10V433L29 437Q61 444 75.5 461Q90 478 98 509L112 567H205V446H292V341H205V295H292V194H205V152Q205 113 241 113Q255 113 265.5 116Q276 119 296 127L302 27Q250 -7 184 -7Q158 -7 135 0Q112 7 94.5 22Q77 37 67 61Q57 85 57 120V194H10Z" glyph-name="tbar" horiz-adv-x="320" unicode="&#359;" /><glyph d="M47 341H0V433L19 437Q51 444 65.5 461Q80 478 88 509L102 567H195V446H282V341H195V152Q195 113 231 113Q245 113 255.5 116Q266 119 286 127L292 27Q240 -7 174 -7Q148 -7 125 0Q102 7 84.5 22Q67 37 57 61Q47 85 47 120ZM215 484 228 630H374L309 484Z" glyph-name="tcaron" horiz-adv-x="304" unicode="&#357;" /><glyph d="M47 341H0V433L19 437Q51 444 65.5 461Q80 478 88 509L102 567H195V446H282V341H195V152Q195 113 231 113Q245 113 255.5 116Q266 119 286 127L292 27Q240 -7 174 -7Q148 -7 125 0Q102 7 84.5 22Q67 37 57 61Q47 85 47 120ZM98 -32H233V-107Q233 -164 199 -189Q165 -214 98 -214V-164Q125 -164 137.5 -157.5Q150 -151 151 -131H98Z" glyph-name="tcommaaccent" horiz-adv-x="304" unicode="&#355;" /><glyph d="M308 248Q308 336 246 336Q215 336 199.5 314.5Q184 293 184 258V188Q184 153 199.5 131.5Q215 110 246 110Q308 110 308 198ZM184 -160H34V630H184V396Q202 424 230.5 439.5Q259 455 302 455Q381 455 419 398Q457 341 457 241V205Q457 105 419 48Q381 -9 302 -9Q259 -9 230.5 6.5Q202 22 184 50Z" glyph-name="thorn" horiz-adv-x="472" unicode="&#254;" /><glyph d="M361 317Q403 303 429 268Q455 233 455 177Q455 90 397.5 39.5Q340 -11 234 -11Q186 -11 145.5 3Q105 17 76 42.5Q47 68 30 104.5Q13 141 10 186L149 216Q154 159 178 136.5Q202 114 234 114Q272 114 288.5 134Q305 154 305 190Q305 227 284.5 244Q264 261 230 261Q222 261 210.5 261Q199 261 186 259V375Q199 373 210.5 373Q222 373 230 373Q264 373 282.5 390.5Q301 408 301 446Q301 478 285 497Q269 516 234 516Q200 516 179.5 491.5Q159 467 152 420L15 444Q21 486 37.5 522.5Q54 559 81.5 585Q109 611 147.5 626Q186 641 234 641Q340 641 395.5 591Q451 541 451 454Q451 398 427 363Q403 328 361 317Z" glyph-name="three" horiz-adv-x="478" unicode="3" /><glyph d="M377 317Q419 303 445 268Q471 233 471 177Q471 90 413.5 39.5Q356 -11 250 -11Q202 -11 161.5 3Q121 17 92 42.5Q63 68 46 104.5Q29 141 26 186L165 216Q170 159 194 136.5Q218 114 250 114Q288 114 304.5 134Q321 154 321 190Q321 227 300.5 244Q280 261 246 261Q238 261 226.5 261Q215 261 202 259V375Q215 373 226.5 373Q238 373 246 373Q280 373 298.5 390.5Q317 408 317 446Q317 478 301 497Q285 516 250 516Q216 516 195.5 491.5Q175 467 168 420L31 444Q37 486 53.5 522.5Q70 559 97.5 585Q125 611 163.5 626Q202 641 250 641Q356 641 411.5 591Q467 541 467 454Q467 398 443 363Q419 328 377 317Z" glyph-name="three.lt" horiz-adv-x="500" /><glyph d="M222 497Q239 490 249.5 475.5Q260 461 260 438Q260 400 233.5 378.5Q207 357 159 357Q115 357 87.5 380Q60 403 58 442L131 458Q133 438 140.5 430.5Q148 423 159 423Q172 423 177 431Q182 439 182 450Q182 461 175.5 466.5Q169 472 158 472Q155 472 150 472Q145 472 140 471V523Q145 522 150 522Q155 522 158 522Q181 522 181 545Q181 569 159 569Q137 569 131 536L60 547Q65 585 90 609.5Q115 634 159 634Q208 634 233 613Q258 592 258 554Q258 531 248.5 516.5Q239 502 222 497ZM30 338H288V295H30ZM233 111H263V48H233V0H154V48H33V110L144 268H233ZM102 111H154V186Z" glyph-name="threequarters" horiz-adv-x="318" unicode="&#190;" /><glyph d="M172 497Q189 490 199.5 475.5Q210 461 210 438Q210 400 183.5 378.5Q157 357 109 357Q65 357 37.5 380Q10 403 8 442L81 458Q83 438 90.5 430.5Q98 423 109 423Q122 423 127 431Q132 439 132 450Q132 461 125.5 466.5Q119 472 108 472Q105 472 100 472Q95 472 90 471V523Q95 522 100 522Q105 522 108 522Q131 522 131 545Q131 569 109 569Q87 569 81 536L10 547Q15 585 40 609.5Q65 634 109 634Q158 634 183 613Q208 592 208 554Q208 531 198.5 516.5Q189 502 172 497Z" glyph-name="threesuperior" horiz-adv-x="226" unicode="&#179;" /><glyph d="M55 489Q55 552 77.5 591Q100 630 144 630Q162 630 174 623.5Q186 617 196.5 609.5Q207 602 217.5 596Q228 590 241 590Q253 590 262 598.5Q271 607 273 627H345Q345 564 322.5 525Q300 486 256 486Q238 486 225.5 492Q213 498 202.5 505.5Q192 513 182 519.5Q172 526 159 526Q146 526 137.5 517.5Q129 509 127 489Z" glyph-name="tilde" horiz-adv-x="400" unicode="&#732;" /><glyph d="M55 665Q55 728 77.5 767Q100 806 144 806Q162 806 174 799.5Q186 793 196.5 785.5Q207 778 217.5 772Q228 766 241 766Q253 766 262 774.5Q271 783 273 803H345Q345 740 322.5 701Q300 662 256 662Q238 662 225.5 668Q213 674 202.5 681.5Q192 689 182 695.5Q172 702 159 702Q146 702 137.5 693.5Q129 685 127 665Z" glyph-name="tilde.cap" horiz-adv-x="400" /><glyph d="M69 411V566H10V630H209V566H148V411ZM326 411 292 534H290V411H228V630H314L348 509H350L382 630H469V411H403V534H401L367 411Z" glyph-name="trademark" horiz-adv-x="494" unicode="&#8482;" /><glyph d="M217 131H449V0H14V111L187 283Q239 335 266 371Q293 407 293 447Q293 480 277.5 495Q262 510 236 510Q204 510 183.5 481Q163 452 156 399L9 427Q11 468 27 506.5Q43 545 72 575Q101 605 142 623Q183 641 236 641Q287 641 327 626.5Q367 612 394 586.5Q421 561 435.5 525.5Q450 490 450 448Q450 392 422.5 343Q395 294 337 241Z" glyph-name="two" horiz-adv-x="467" unicode="2" /><glyph d="M233 131H477V0H30V111L203 283Q255 335 282 371Q309 407 309 447Q309 480 293.5 495Q278 510 252 510Q220 510 199.5 481Q179 452 172 399L25 427Q27 468 43 506.5Q59 545 88 575Q117 605 158 623Q199 641 252 641Q303 641 343 626.5Q383 612 410 586.5Q437 561 451.5 525.5Q466 490 466 448Q466 392 438.5 343Q411 294 353 241Z" glyph-name="two.lt" horiz-adv-x="500" /><glyph d="M217 549Q217 505 175 472L125 430H215V362H18V421L94 492Q115 511 124.5 523Q134 535 134 549Q134 559 129 562.5Q124 566 117 566Q107 566 99 555.5Q91 545 88 525L13 539Q14 557 21 574Q28 591 41.5 604.5Q55 618 74 626Q93 634 117 634Q165 634 191 610Q217 586 217 549Z" glyph-name="twosuperior" horiz-adv-x="241" unicode="&#178;" /><glyph d="M287 446H437V0H287V51Q272 26 242.5 8.5Q213 -9 168 -9Q132 -9 106 2.5Q80 14 63.5 34Q47 54 39.5 81.5Q32 109 32 142V446H182V192Q182 175 183.5 161Q185 147 190 136.5Q195 126 204.5 120.5Q214 115 230 115Q265 115 276 141.5Q287 168 287 205Z" glyph-name="u" horiz-adv-x="475" unicode="u" /><glyph d="M287 446H437V0H287V51Q272 26 242.5 8.5Q213 -9 168 -9Q132 -9 106 2.5Q80 14 63.5 34Q47 54 39.5 81.5Q32 109 32 142V446H182V192Q182 175 183.5 161Q185 147 190 136.5Q195 126 204.5 120.5Q214 115 230 115Q265 115 276 141.5Q287 168 287 205ZM178 490 230 630H379L285 490Z" glyph-name="uacute" horiz-adv-x="475" unicode="&#250;" /><glyph d="M287 446H437V0H287V51Q272 26 242.5 8.5Q213 -9 168 -9Q132 -9 106 2.5Q80 14 63.5 34Q47 54 39.5 81.5Q32 109 32 142V446H182V192Q182 175 183.5 161Q185 147 190 136.5Q195 126 204.5 120.5Q214 115 230 115Q265 115 276 141.5Q287 168 287 205ZM234 485Q170 485 134.5 524Q99 563 99 630H185Q185 603 198.5 589Q212 575 234 575Q257 575 270.5 589Q284 603 284 630H370Q370 563 334.5 524Q299 485 234 485Z" glyph-name="ubreve" horiz-adv-x="475" unicode="&#365;" /><glyph d="M287 446H437V0H287V51Q272 26 242.5 8.5Q213 -9 168 -9Q132 -9 106 2.5Q80 14 63.5 34Q47 54 39.5 81.5Q32 109 32 142V446H182V192Q182 175 183.5 161Q185 147 190 136.5Q195 126 204.5 120.5Q214 115 230 115Q265 115 276 141.5Q287 168 287 205ZM306 626 389 483H293L234 544L176 483H80L163 626Z" glyph-name="ucircumflex" horiz-adv-x="475" unicode="&#251;" /><glyph d="M287 446H437V0H287V51Q272 26 242.5 8.5Q213 -9 168 -9Q132 -9 106 2.5Q80 14 63.5 34Q47 54 39.5 81.5Q32 109 32 142V446H182V192Q182 175 183.5 161Q185 147 190 136.5Q195 126 204.5 120.5Q214 115 230 115Q265 115 276 141.5Q287 168 287 205ZM95 616H220V490H95ZM249 616H374V490H249Z" glyph-name="udieresis" horiz-adv-x="475" unicode="&#252;" /><glyph d="M287 446H437V0H287V51Q272 26 242.5 8.5Q213 -9 168 -9Q132 -9 106 2.5Q80 14 63.5 34Q47 54 39.5 81.5Q32 109 32 142V446H182V192Q182 175 183.5 161Q185 147 190 136.5Q195 126 204.5 120.5Q214 115 230 115Q265 115 276 141.5Q287 168 287 205ZM186 490 91 630H241L292 490Z" glyph-name="ugrave" horiz-adv-x="475" unicode="&#249;" /><glyph d="M287 446H437V0H287V51Q272 26 242.5 8.5Q213 -9 168 -9Q132 -9 106 2.5Q80 14 63.5 34Q47 54 39.5 81.5Q32 109 32 142V446H182V192Q182 175 183.5 161Q185 147 190 136.5Q195 126 204.5 120.5Q214 115 230 115Q265 115 276 141.5Q287 168 287 205ZM104 490 145 630H280L198 490ZM255 490 297 630H434L350 490Z" glyph-name="uhungarumlaut" horiz-adv-x="475" unicode="&#369;" /><glyph d="M287 446H437V0H287V51Q272 26 242.5 8.5Q213 -9 168 -9Q132 -9 106 2.5Q80 14 63.5 34Q47 54 39.5 81.5Q32 109 32 142V446H182V192Q182 175 183.5 161Q185 147 190 136.5Q195 126 204.5 120.5Q214 115 230 115Q265 115 276 141.5Q287 168 287 205ZM109 592H359V491H109Z" glyph-name="umacron" horiz-adv-x="475" unicode="&#363;" /><glyph d="M15 -28H326V-151H15Z" glyph-name="underscore" horiz-adv-x="341" unicode="_" /><glyph d="M219 133Q236 126 246.5 111.5Q257 97 257 74Q257 36 230.5 14.5Q204 -7 156 -7Q112 -7 84.5 16Q57 39 55 78L128 94Q130 74 137.5 66.5Q145 59 156 59Q169 59 174 67Q179 75 179 86Q179 97 172.5 102.5Q166 108 155 108Q152 108 147 108Q142 108 137 107V159Q142 158 147 158Q152 158 155 158Q178 158 178 181Q178 205 156 205Q134 205 128 172L57 183Q62 221 87 245.5Q112 270 156 270Q205 270 230 249Q255 228 255 190Q255 167 245.5 152.5Q236 138 219 133ZM73 589Q96 589 110.5 598.5Q125 608 130 630H198V362H114V534H73ZM30 338H288V295H30Z" glyph-name="uni2153" horiz-adv-x="318" unicode="&#8531;" /><glyph d="M219 133Q236 126 246.5 111.5Q257 97 257 74Q257 36 230.5 14.5Q204 -7 156 -7Q112 -7 84.5 16Q57 39 55 78L128 94Q130 74 137.5 66.5Q145 59 156 59Q169 59 174 67Q179 75 179 86Q179 97 172.5 102.5Q166 108 155 108Q152 108 147 108Q142 108 137 107V159Q142 158 147 158Q152 158 155 158Q178 158 178 181Q178 205 156 205Q134 205 128 172L57 183Q62 221 87 245.5Q112 270 156 270Q205 270 230 249Q255 228 255 190Q255 167 245.5 152.5Q236 138 219 133ZM168 430H258V362H61V421L137 492Q158 511 167.5 523Q177 535 177 549Q177 559 172 562.5Q167 566 160 566Q150 566 142 555.5Q134 545 131 525L56 539Q57 557 64 574Q71 591 84.5 604.5Q98 618 117 626Q136 634 160 634Q208 634 234 610Q260 586 260 549Q260 505 218 472ZM30 338H288V295H30Z" glyph-name="uni2154" horiz-adv-x="318" unicode="&#8532;" /><glyph d="M159 209Q135 209 135 185Q135 162 159 162Q183 162 183 185Q183 209 159 209ZM159 -5Q113 -5 83 17Q53 39 53 77Q53 100 63.5 114Q74 128 91 134Q74 139 65 154.5Q56 170 56 190Q56 229 83.5 251Q111 273 159 273Q207 273 234.5 251Q262 229 262 190Q262 170 253 154.5Q244 139 227 134Q244 128 254.5 114Q265 100 265 77Q265 39 235 17Q205 -5 159 -5ZM159 106Q132 106 132 82Q132 59 159 59Q186 59 186 82Q186 106 159 106ZM73 589Q96 589 110.5 598.5Q125 608 130 630H198V362H114V534H73ZM30 338H288V295H30Z" glyph-name="uni215B" horiz-adv-x="318" unicode="&#8539;" /><glyph d="M220 497Q237 490 247.5 475.5Q258 461 258 438Q258 400 231.5 378.5Q205 357 157 357Q113 357 85.5 380Q58 403 56 442L129 458Q131 438 138.5 430.5Q146 423 157 423Q170 423 175 431Q180 439 180 450Q180 461 173.5 466.5Q167 472 156 472Q153 472 148 472Q143 472 138 471V523Q143 522 148 522Q153 522 156 522Q179 522 179 545Q179 569 157 569Q135 569 129 536L58 547Q63 585 88 609.5Q113 634 157 634Q206 634 231 613Q256 592 256 554Q256 531 246.5 516.5Q237 502 220 497ZM159 209Q135 209 135 185Q135 162 159 162Q183 162 183 185Q183 209 159 209ZM159 -5Q113 -5 83 17Q53 39 53 77Q53 100 63.5 114Q74 128 91 134Q74 139 65 154.5Q56 170 56 190Q56 229 83.5 251Q111 273 159 273Q207 273 234.5 251Q262 229 262 190Q262 170 253 154.5Q244 139 227 134Q244 128 254.5 114Q265 100 265 77Q265 39 235 17Q205 -5 159 -5ZM159 106Q132 106 132 82Q132 59 159 59Q186 59 186 82Q186 106 159 106ZM30 336H288V293H30Z" glyph-name="uni215C" horiz-adv-x="318" unicode="&#8540;" /><glyph d="M160 484Q152 484 146.5 480Q141 476 139 471L62 477Q66 508 70.5 552Q75 596 77 630H245V561H136Q135 554 134 544Q133 534 131 529Q136 534 148.5 538.5Q161 543 178 543Q214 543 238 521.5Q262 500 262 455Q262 410 234.5 383.5Q207 357 158 357Q116 357 89 379Q62 401 55 436L129 454Q132 440 139 430.5Q146 421 159 421Q172 421 178 429.5Q184 438 184 452Q184 466 178.5 475Q173 484 160 484ZM159 209Q135 209 135 185Q135 162 159 162Q183 162 183 185Q183 209 159 209ZM159 -5Q113 -5 83 17Q53 39 53 77Q53 100 63.5 114Q74 128 91 134Q74 139 65 154.5Q56 170 56 190Q56 229 83.5 251Q111 273 159 273Q207 273 234.5 251Q262 229 262 190Q262 170 253 154.5Q244 139 227 134Q244 128 254.5 114Q265 100 265 77Q265 39 235 17Q205 -5 159 -5ZM159 106Q132 106 132 82Q132 59 159 59Q186 59 186 82Q186 106 159 106ZM30 336H288V293H30Z" glyph-name="uni215D" horiz-adv-x="318" unicode="&#8541;" /><glyph d="M159 209Q135 209 135 185Q135 162 159 162Q183 162 183 185Q183 209 159 209ZM159 -5Q113 -5 83 17Q53 39 53 77Q53 100 63.5 114Q74 128 91 134Q74 139 65 154.5Q56 170 56 190Q56 229 83.5 251Q111 273 159 273Q207 273 234.5 251Q262 229 262 190Q262 170 253 154.5Q244 139 227 134Q244 128 254.5 114Q265 100 265 77Q265 39 235 17Q205 -5 159 -5ZM159 106Q132 106 132 82Q132 59 159 59Q186 59 186 82Q186 106 159 106ZM30 336H288V293H30ZM62 556V630H254V564Q221 518 206.5 471.5Q192 425 192 362H100Q100 394 105.5 420Q111 446 120.5 469Q130 492 142.5 513Q155 534 170 556Z" glyph-name="uni215E" horiz-adv-x="318" unicode="&#8542;" /><glyph d="M287 0V51Q272 26 242.5 8.5Q213 -9 168 -9Q132 -9 106 2.5Q80 14 63.5 34Q47 54 39.5 81.5Q32 109 32 142V446H182V192Q182 175 183.5 161Q185 147 190 136.5Q195 126 204.5 120.5Q214 115 230 115Q265 115 276 141.5Q287 168 287 205V446H437V0Q403 -19 390.5 -33.5Q378 -48 378 -62Q378 -73 384.5 -78Q391 -83 402 -83Q418 -83 437 -75V-150Q425 -158 409.5 -163.5Q394 -169 371 -169Q337 -169 312 -150.5Q287 -132 287 -93Q287 -65 301 -42.5Q315 -20 340 0Z" glyph-name="uogonek" horiz-adv-x="475" unicode="&#371;" /><glyph d="M287 446H437V0H287V51Q272 26 242.5 8.5Q213 -9 168 -9Q132 -9 106 2.5Q80 14 63.5 34Q47 54 39.5 81.5Q32 109 32 142V446H182V192Q182 175 183.5 161Q185 147 190 136.5Q195 126 204.5 120.5Q214 115 230 115Q265 115 276 141.5Q287 168 287 205ZM199 568Q199 552 208 542.5Q217 533 234 533Q252 533 261 542.5Q270 552 270 568Q270 584 261 594Q252 604 234 604Q217 604 208 594Q199 584 199 568ZM138 568Q138 608 164 634.5Q190 661 234 661Q278 661 304.5 634.5Q331 608 331 568Q331 528 304.5 502Q278 476 234 476Q190 476 164 502Q138 528 138 568Z" glyph-name="uring" horiz-adv-x="475" unicode="&#367;" /><glyph d="M287 446H437V0H287V51Q272 26 242.5 8.5Q213 -9 168 -9Q132 -9 106 2.5Q80 14 63.5 34Q47 54 39.5 81.5Q32 109 32 142V446H182V192Q182 175 183.5 161Q185 147 190 136.5Q195 126 204.5 120.5Q214 115 230 115Q265 115 276 141.5Q287 168 287 205ZM89 489Q89 552 111.5 591Q134 630 178 630Q196 630 208 623.5Q220 617 230.5 609.5Q241 602 251.5 596Q262 590 275 590Q287 590 296 598.5Q305 607 307 627H379Q379 564 356.5 525Q334 486 290 486Q272 486 259.5 492Q247 498 236.5 505.5Q226 513 216 519.5Q206 526 193 526Q180 526 171.5 517.5Q163 509 161 489Z" glyph-name="utilde" horiz-adv-x="475" unicode="&#361;" /><glyph d="M144 0 -3 446H146L219 197H223L294 446H436L289 0Z" glyph-name="v" horiz-adv-x="433" unicode="v" /><glyph d="M421 209H425L480 446H611L496 0H361L306 253H302L247 0H112L-3 446H142L197 209H201L253 446H368Z" glyph-name="w" horiz-adv-x="608" unicode="w" /><glyph d="M421 209H425L480 446H611L496 0H361L306 253H302L247 0H112L-3 446H142L197 209H201L253 446H368ZM248 490 300 630H449L355 490Z" glyph-name="wacute" horiz-adv-x="608" unicode="&#7811;" /><glyph d="M421 209H425L480 446H611L496 0H361L306 253H302L247 0H112L-3 446H142L197 209H201L253 446H368ZM376 626 459 483H363L304 544L246 483H150L233 626Z" glyph-name="wcircumflex" horiz-adv-x="608" unicode="&#373;" /><glyph d="M421 209H425L480 446H611L496 0H361L306 253H302L247 0H112L-3 446H142L197 209H201L253 446H368ZM165 616H290V490H165ZM319 616H444V490H319Z" glyph-name="wdieresis" horiz-adv-x="608" unicode="&#7813;" /><glyph d="M421 209H425L480 446H611L496 0H361L306 253H302L247 0H112L-3 446H142L197 209H201L253 446H368ZM255 490 160 630H310L361 490Z" glyph-name="wgrave" horiz-adv-x="608" unicode="&#7809;" /><glyph d="M305 227 453 0H288L215 118L139 0H-4L144 224L1 446H166L235 329L304 446H448Z" glyph-name="x" horiz-adv-x="449" unicode="x" /><glyph d="M97 -160 151 -8 -3 446H146L222 192H226L304 446H445L235 -160Z" glyph-name="y" horiz-adv-x="442" unicode="y" /><glyph d="M97 -160 151 -8 -3 446H146L222 192H226L304 446H445L235 -160ZM165 490 217 630H366L272 490Z" glyph-name="yacute" horiz-adv-x="442" unicode="&#253;" /><glyph d="M97 -160 151 -8 -3 446H146L222 192H226L304 446H445L235 -160ZM293 626 376 483H280L221 544L163 483H67L150 626Z" glyph-name="ycircumflex" horiz-adv-x="442" unicode="&#375;" /><glyph d="M97 -160 151 -8 -3 446H146L222 192H226L304 446H445L235 -160ZM82 616H207V490H82ZM236 616H361V490H236Z" glyph-name="ydieresis" horiz-adv-x="442" unicode="&#255;" /><glyph d="M49 342H143L0 630H160L267 400L368 630H527L384 342H478V249H338V208H478V115H338V0H189V115H49V208H189V249H49Z" glyph-name="yen" horiz-adv-x="527" unicode="&#165;" /><glyph d="M36 342H134L7 630H167L254 408L335 630H494L366 342H465V249H325V208H465V115H325V0H176V115H36V208H176V249H36Z" glyph-name="yen.lt" horiz-adv-x="500" /><glyph d="M97 -160 151 -8 -3 446H146L222 192H226L304 446H445L235 -160ZM173 490 78 630H228L279 490Z" glyph-name="ygrave" horiz-adv-x="442" unicode="&#7923;" /><glyph d="M26 337V446H365V344L190 109H370V0H22V103L195 337Z" glyph-name="z" horiz-adv-x="392" unicode="z" /><glyph d="M26 337V446H365V344L190 109H370V0H22V103L195 337ZM146 490 198 630H347L253 490Z" glyph-name="zacute" horiz-adv-x="392" unicode="&#378;" /><glyph d="M26 337V446H365V344L190 109H370V0H22V103L195 337ZM131 490 48 630H144L202 572L261 630H357L274 490Z" glyph-name="zcaron" horiz-adv-x="392" unicode="&#382;" /><glyph d="M26 337V446H365V344L190 109H370V0H22V103L195 337ZM128 630H278V491H128Z" glyph-name="zdotaccent" horiz-adv-x="392" unicode="&#380;" /><glyph d="M524 297Q524 229 508.5 172.5Q493 116 462 75Q431 34 383.5 11.5Q336 -11 272 -11Q208 -11 160.5 11.5Q113 34 82 75Q51 116 35.5 172.5Q20 229 20 297V333Q20 401 35.5 457.5Q51 514 82 555Q113 596 160.5 618.5Q208 641 272 641Q336 641 383.5 618.5Q431 596 462 555Q493 514 508.5 457.5Q524 401 524 333ZM183 286Q183 196 206 158Q229 120 272 120Q315 120 338 158Q361 196 361 286V344Q361 434 338 472Q315 510 272 510Q229 510 206 472Q183 434 183 344Z" glyph-name="zero" horiz-adv-x="544" unicode="0" /><glyph d="M175 249Q175 184 192.5 152Q210 120 250 120Q290 120 307.5 152Q325 184 325 249V381Q325 446 307.5 478Q290 510 250 510Q210 510 192.5 478Q175 446 175 381ZM16 333Q16 401 30 457.5Q44 514 73 555Q102 596 146 618.5Q190 641 250 641Q310 641 354 618.5Q398 596 427 555Q456 514 470 457.5Q484 401 484 333V297Q484 229 470 172.5Q456 116 427 75Q398 34 354 11.5Q310 -11 250 -11Q190 -11 146 11.5Q102 34 73 75Q44 116 30 172.5Q16 229 16 297Z" glyph-name="zero.lt" horiz-adv-x="500" /></font>
</defs>
</svg>
