<?xml version="1.0" encoding="UTF-8" standalone="no"?>
<svg width="52px" height="36px" viewBox="0 0 52 36" version="1.1" xmlns="http://www.w3.org/2000/svg" xmlns:xlink="http://www.w3.org/1999/xlink">
    <!-- Generator: Sketch 3.8.3 (29802) - http://www.bohemiancoding.com/sketch -->
    <title>americanexpress</title>
    <desc>Created with Sketch.</desc>
    <defs>
        <rect id="path-1" x="0" y="0" width="52" height="36" rx="3"></rect>
        <mask id="mask-2" maskContentUnits="userSpaceOnUse" maskUnits="objectBoundingBox" x="0" y="0" width="52" height="36" fill="white">
            <use xlink:href="#path-1"></use>
        </mask>
    </defs>
    <g id="Page-1" stroke="none" stroke-width="1" fill="none" fill-rule="evenodd">
        <g id="Paywall-2-produtos-V2" transform="translate(-892.000000, -1190.000000)">
            <g id="PRODUTO" transform="translate(360.000000, 272.000000)">
                <g id="Group-20" transform="translate(202.000000, 918.000000)">
                    <g id="Group-17" transform="translate(156.000000, 0.000000)">
                        <g id="americanexpress" transform="translate(174.000000, 0.000000)">
                            <g id="Group-14">
                                <use id="Rectangle" stroke="#DEDEDE" mask="url(#mask-2)" stroke-width="2" fill="#FFFFFF" xlink:href="#path-1"></use>
                                <g id="Group-16" transform="translate(8.000000, 11.000000)" fill="#0072CE">
                                    <path d="M35.8918279,9.0261032 L34.0546466,9.0261032 C33.871221,9.0261032 33.7493613,9.03295146 33.6467092,9.10206816 C33.5403681,9.1701703 33.499409,9.27124554 33.499409,9.40465979 C33.499409,9.56331115 33.5892138,9.67123466 33.7198504,9.71790428 C33.8261915,9.75480879 33.940419,9.76558846 34.1083259,9.76558846 L34.6546593,9.78017272 C35.2059536,9.79374242 35.5739496,9.88822304 35.7983343,10.1186543 C35.8391662,10.1507397 35.8637162,10.1867565 35.8918279,10.2227732 L35.8918279,9.0261032 Z M35.8918279,11.7987608 C35.6469636,12.155758 35.1698282,12.3367296 34.5238955,12.3367296 L32.5771931,12.3367296 L32.5771931,11.4349152 L34.5160089,11.4349152 C34.7083387,11.4349152 34.8429186,11.4096781 34.9239464,11.3307963 C34.994162,11.2657379 35.0431348,11.1712572 35.0431348,11.0564855 C35.0431348,10.9339777 34.994162,10.8367071 34.9200031,10.77837 C34.8468619,10.7141993 34.7403936,10.6850308 34.5648546,10.6850308 C33.6183431,10.6529454 32.4375251,10.7141993 32.4375251,9.3833541 C32.4375251,8.77335168 32.8260006,8.13126389 33.883814,8.13126389 L35.8917007,8.13126389 L35.8917007,7.29450797 L34.0261533,7.29450797 C33.4631564,7.29450797 33.0542013,7.42893678 32.764562,7.63793553 L32.764562,7.29450797 L30.0051648,7.29450797 C29.5639004,7.29450797 29.0459331,7.40357286 28.8009416,7.63793553 L28.8009416,7.29450797 L23.8733831,7.29450797 L23.8733831,7.63793553 C23.4812187,7.35588868 22.8195129,7.29450797 22.5141005,7.29450797 L19.26383,7.29450797 L19.26383,7.63793553 C18.9535839,7.33838757 18.2636392,7.29450797 17.8431087,7.29450797 L14.2055076,7.29450797 L13.3730965,8.19264459 L12.5934742,7.29450797 L7.15965097,7.29450797 L7.15965097,13.1627059 L12.4912037,13.1627059 L13.3489281,12.2503655 L14.1569164,13.1627059 L17.4433122,13.1656227 L17.4433122,11.7851911 L17.7664058,11.7851911 C18.2024549,11.7919125 18.7167334,11.7744114 19.1704636,11.5788555 L19.1704636,13.1625791 L21.8811423,13.1625791 L21.8811423,11.6331343 L22.0119062,11.6331343 C22.1787955,11.6331343 22.1952046,11.6399826 22.1952046,11.8062431 L22.1952046,13.1624522 L30.4297657,13.1624522 C30.9525667,13.1624522 31.4990273,13.029038 31.8016414,12.7869393 L31.8016414,13.1624522 L34.4136112,13.1624522 C34.9571462,13.1624522 35.4879609,13.0864873 35.8918279,12.891946 L35.8918279,11.7987608 L35.8918279,11.7987608 Z M31.8708393,10.1186543 C32.0671123,10.3211853 32.1723085,10.5768536 32.1723085,11.009689 C32.1723085,11.9144203 31.6053684,12.3367296 30.5887684,12.3367296 L28.6254026,12.3367296 L28.6254026,11.4349152 L30.5808819,11.4349152 C30.7720668,11.4349152 30.9076643,11.4096781 30.9926354,11.3307963 C31.0619606,11.2657379 31.1116967,11.1712572 31.1116967,11.0564855 C31.1116967,10.9339777 31.0578901,10.8367071 30.9886921,10.77837 C30.9116076,10.7141993 30.8052666,10.6850308 30.6297276,10.6850308 C29.6870321,10.6529454 28.5064686,10.7141993 28.5064686,9.3833541 C28.5064686,8.77335168 28.8908736,8.13126389 29.9476694,8.13126389 L31.9685306,8.13126389 L31.9685306,9.02635684 L30.1193924,9.02635684 C29.936094,9.02635684 29.8169055,9.0332051 29.7155254,9.1023218 C29.6051139,9.17042394 29.5641548,9.27149918 29.5641548,9.40491343 C29.5641548,9.56356479 29.6579028,9.67148829 29.7847234,9.71815792 C29.8910644,9.75506243 30.005292,9.7658421 30.177015,9.7658421 L30.7196595,9.78042636 C31.2668833,9.79374242 31.6425114,9.88809622 31.8708393,10.1186543 L31.8708393,10.1186543 Z M22.774865,9.85892771 C22.6400306,9.93869725 22.4732686,9.94554551 22.2771228,9.94554551 L21.0525473,9.94554551 L21.0525473,9.00099291 L22.2937863,9.00099291 C22.4732686,9.00099291 22.652878,9.0047975 22.774865,9.07695787 C22.9055016,9.14506001 22.9836037,9.27530377 22.9836037,9.45526083 C22.9836037,9.63521788 22.9055016,9.78017272 22.774865,9.85892771 L22.774865,9.85892771 Z M23.3836546,10.3823123 C23.6080393,10.4648719 23.7914649,10.6128704 23.8774536,10.7353782 C24.0197928,10.9406991 24.0403996,11.1323236 24.04447,11.5030174 L24.04447,12.3367296 L23.0324494,12.3367296 L23.0324494,11.810555 C23.0324494,11.5575498 23.0568722,11.1829246 22.8695034,10.9873688 C22.7222032,10.8367071 22.4976914,10.8006903 22.1299498,10.8006903 L21.0526745,10.8006903 L21.0526745,12.3367296 L20.0397634,12.3367296 L20.0397634,8.13113707 L22.3670547,8.13113707 C22.8773899,8.13113707 23.2490747,8.15358415 23.5799276,8.32960979 C23.8980603,8.52123425 24.0981494,8.78375089 24.0981494,9.26350955 C24.0980222,9.93476585 23.6489984,10.2773057 23.3836546,10.3823123 L23.3836546,10.3823123 Z M24.6570758,8.13113707 L28.0214466,8.13113707 L28.0214466,9.00086609 L25.6609555,9.00086609 L25.6609555,9.76546164 L27.963824,9.76546164 L27.963824,10.6235233 L25.6609555,10.6235233 L25.6609555,11.4602792 L28.0214466,11.4640838 L28.0214466,12.3367296 L24.6570758,12.3367296 L24.6570758,8.13113707 L24.6570758,8.13113707 Z M17.8559562,10.0719847 L16.5532785,10.0719847 L16.5532785,9.00099291 L17.8676588,9.00099291 C18.2315842,9.00099291 18.4842078,9.1488646 18.4842078,9.51664153 C18.4842078,9.88036022 18.2432868,10.0719847 17.8559562,10.0719847 L17.8559562,10.0719847 Z M15.5492716,11.9542416 L14.0016025,10.2411621 L15.5492716,8.58248813 L15.5492716,11.9542416 L15.5492716,11.9542416 Z M11.5524515,11.4602792 L9.07404397,11.4602792 L9.07404397,10.6235233 L11.2871077,10.6235233 L11.2871077,9.76546164 L9.07404397,9.76546164 L9.07404397,9.00086609 L11.6012971,9.00086609 L12.7038857,10.226451 L11.5524515,11.4602792 L11.5524515,11.4602792 Z M19.566444,9.51664153 C19.566444,10.684904 18.6921834,10.9261149 17.8110538,10.9261149 L16.5532785,10.9261149 L16.5532785,12.3367296 L14.5939831,12.3367296 L13.3527441,10.9445037 L12.0627867,12.3367296 L8.06990986,12.3367296 L8.06990986,8.13113707 L12.1242254,8.13113707 L13.3644467,9.50966645 L14.6466448,8.13113707 L17.8676588,8.13113707 C18.6676334,8.13113707 19.566444,8.35193005 19.566444,9.51664153 L19.566444,9.51664153 Z" id="EXPRESS"></path>
                                    <path d="M3.26052216,3.2845981 L2.57057747,1.60842305 L1.88457604,3.2845981 L3.26052216,3.2845981 Z M18.4599122,2.61714639 C18.321389,2.70097417 18.1575526,2.7037642 17.9612796,2.7037642 L16.7367041,2.7037642 L16.7367041,1.76986444 L17.9779431,1.76986444 C18.1536093,1.76986444 18.3369076,1.77772726 18.4559689,1.84570258 C18.5867328,1.90695646 18.6676334,2.03732704 18.6676334,2.21741092 C18.6676334,2.40117256 18.590676,2.54904425 18.4599122,2.61714639 L18.4599122,2.61714639 Z M27.1959044,3.2845981 L26.4983275,1.60842305 L25.8045668,3.2845981 L27.1959044,3.2845981 L27.1959044,3.2845981 Z M10.9114796,5.09887972 L9.87808903,5.09887972 L9.87427297,1.80588122 L8.41259257,5.09887972 L7.52751972,5.09887972 L6.06202325,1.80296437 L6.06202325,5.09887972 L4.01177831,5.09887972 L3.62444763,4.16104856 L1.52561145,4.16104856 L1.13433751,5.09887972 L0.0395082353,5.09887972 L1.84463455,0.89430172 L3.34231317,0.89430172 L5.05674432,4.8751699 L5.05674432,0.89430172 L6.70197748,0.89430172 L8.02119143,3.74660201 L9.23304672,0.89430172 L10.9113524,0.89430172 L10.9113524,5.09887972 L10.9114796,5.09887972 Z M15.0301594,5.09887972 L11.6627358,5.09887972 L11.6627358,0.89430172 L15.0301594,0.89430172 L15.0301594,1.76986444 L12.6708132,1.76986444 L12.6708132,2.52773855 L14.9735545,2.52773855 L14.9735545,3.38960475 L12.6708132,3.38960475 L12.6708132,4.22927752 L15.0301594,4.22927752 L15.0301594,5.09887972 L15.0301594,5.09887972 Z M19.7781085,2.02667419 C19.7781085,2.69704276 19.3293392,3.04338717 19.0678114,3.14737926 C19.2883801,3.23108022 19.4767665,3.37895191 19.566444,3.50145967 C19.7087833,3.71058524 19.7333333,3.89739055 19.7333333,4.27290348 L19.7333333,5.09887972 L18.7166062,5.09887972 L18.7127901,4.56864685 C18.7127901,4.31564169 18.7370857,3.95179617 18.5536602,3.74951886 C18.40636,3.60164718 18.1818482,3.56956181 17.8189403,3.56956181 L16.7368313,3.56956181 L16.7368313,5.09887972 L15.7288811,5.09887972 L15.7288811,0.89430172 L18.0473955,0.89430172 C18.5625643,0.89430172 18.9421357,0.90787142 19.2680277,1.09569129 C19.5869236,1.28351116 19.7781085,1.5576952 19.7781085,2.02667419 L19.7781085,2.02667419 Z M21.3912867,5.09887972 L20.3627298,5.09887972 L20.3627298,0.89430172 L21.3912867,0.89430172 L21.3912867,5.09887972 L21.3912867,5.09887972 Z M33.32387,5.09887972 L31.8953894,5.09887972 L29.9846852,1.94310006 L29.9846852,5.09887972 L27.931769,5.09887972 L27.5394775,4.16104856 L25.445475,4.16104856 L25.064886,5.09887972 L23.8853401,5.09887972 C23.3953572,5.09887972 22.7749922,4.9908294 22.4236597,4.63383214 C22.0694016,4.27683488 21.8850856,3.79327164 21.8850856,3.02867609 C21.8850856,2.40510397 21.9952427,1.83504973 22.4284934,1.38458641 C22.7543854,1.04902167 23.2647206,0.89430172 23.9593718,0.89430172 L24.935267,0.89430172 L24.935267,1.79522837 L23.9798513,1.79522837 C23.6119826,1.79522837 23.4042614,1.84976081 23.2041724,2.04430212 C23.0323222,2.22134233 22.9144058,2.55601933 22.9144058,2.99671754 C22.9144058,3.44718087 23.0042105,3.77196594 23.1915793,3.98413518 C23.346766,4.15052253 23.6287733,4.20099675 23.894117,4.20099675 L24.3468296,4.20099675 L25.7675509,0.894428539 L27.2779498,0.894428539 L28.9846216,4.87136531 L28.9846216,0.894428539 L30.5194433,0.894428539 L32.2913698,3.82269379 L32.2913698,0.894428539 L33.32387,0.894428539 L33.32387,5.09887972 L33.32387,5.09887972 Z M0.0278056336,5.92472915 L1.75012332,5.92472915 L2.13847162,4.9908294 L3.0078986,4.9908294 L3.39522928,5.92472915 L6.7840229,5.92472915 L6.7840229,5.21073464 L7.08650971,5.92777282 L8.84571604,5.92777282 L9.14820285,5.20008179 L9.14820285,5.92472915 L17.5700056,5.92472915 L17.5660624,4.39173347 L17.7290084,4.39173347 C17.8431087,4.39566488 17.8764357,4.40619091 17.8764357,4.59401078 L17.8764357,5.92472915 L22.2322204,5.92472915 L22.2322204,5.56785872 C22.5835529,5.75555177 23.1300135,5.92472915 23.8490875,5.92472915 L25.6815623,5.92472915 L26.0737266,4.9908294 L26.9431536,4.9908294 L27.3266682,5.92472915 L30.8579283,5.92472915 L30.8579283,5.03762584 L31.3926863,5.92472915 L34.2224263,5.92472915 L34.2224263,0.0605894737 L31.4219428,0.0605894737 L31.4219428,0.753151472 L31.0297785,0.0605894737 L28.1561537,0.0605894737 L28.1561537,0.753151472 L27.7960443,0.0605894737 L23.9144694,0.0605894737 C23.2647206,0.0605894737 22.6935828,0.15101187 22.2322204,0.403002474 L22.2322204,0.0605894737 L19.5535966,0.0605894737 L19.5535966,0.403002474 C19.260014,0.143275872 18.8599631,0.0605894737 18.415137,0.0605894737 L8.6290907,0.0605894737 L7.97247299,1.57519631 L7.29817416,0.0605894737 L4.21581063,0.0605894737 L4.21581063,0.753151472 L3.87719839,0.0605894737 L1.24843788,0.0605894737 L0.0276784314,2.84871903 L0.0276784314,5.92472915 L0.0278056336,5.92472915 Z" id="AMERICAN"></path>
                                </g>
                            </g>
                        </g>
                    </g>
                </g>
            </g>
        </g>
    </g>
</svg>