<?xml version="1.0" encoding="UTF-8" standalone="no"?>
<svg width="21px" height="24px" viewBox="0 0 21 24" version="1.1" xmlns="http://www.w3.org/2000/svg" xmlns:xlink="http://www.w3.org/1999/xlink">
    <!-- Generator: Sketch 3.8.3 (29802) - http://www.bohemiancoding.com/sketch -->
    <title>androd</title>
    <desc>Created with Sketch.</desc>
    <defs></defs>
    <g id="Page-1" stroke="none" stroke-width="1" fill="none" fill-rule="evenodd">
        <g id="Paywall-2-produtos-V2" transform="translate(-1041.000000, -1031.000000)">
            <g id="PRODUTO" transform="translate(360.000000, 272.000000)">
                <g id="Group-9-Copy" transform="translate(500.000000, 60.000000)">
                    <g id="Group-17" transform="translate(0.000000, 431.000000)">
                        <g id="th" transform="translate(0.000000, 255.000000)">
                            <g id="Group-27" transform="translate(152.000000, 13.000000)">
                                <g id="androd" transform="translate(29.000000, 0.000000)">
                                    <path d="M13.2284334,2.07247356 L14.4172669,0.353808308 C14.4878574,0.251646599 14.4702835,0.117544679 14.377991,0.0541339628 C14.2858165,-0.0089244711 14.1535993,0.0222524641 14.0835396,0.1245316 L12.8479997,1.90995424 C12.0337617,1.59061083 11.1295901,1.41264983 10.176589,1.41264983 C9.22358794,1.41264983 8.31918047,1.59043469 7.50500146,1.90995424 L6.26963842,0.124472886 C6.19881204,0.0223111777 6.06683083,-0.00898318472 5.97459731,0.0540752492 C5.88236379,0.117309824 5.86484885,0.251470459 5.93543934,0.353749594 L7.12468562,2.07241484 C5.23383948,2.94818728 3.90783519,4.61236629 3.738878,6.55461302 L16.6135924,6.55461302 C16.4452249,4.61236629 15.1191616,2.948246 13.2284334,2.07247356" id="Shape" fill="#9FBF3B"></path>
                                    <path d="M7.48695577,4.78152024 C7.09343001,4.78152024 6.77456387,4.46405567 6.77456387,4.07231836 C6.77456387,3.68063976 7.09325309,3.36305776 7.48695577,3.36305776 C7.88018666,3.36305776 8.19893486,3.68052234 8.19893486,4.07231836 C8.19899383,4.46399696 7.88018666,4.78152024 7.48695577,4.78152024" id="Shape" fill="#FFFFFF"></path>
                                    <path d="M12.8655736,4.78152024 C12.4723427,4.78152024 12.1535355,4.46405567 12.1535355,4.07231836 C12.1535355,3.68052234 12.4723427,3.36305776 12.8655736,3.36305776 C13.2592173,3.36305776 13.5779065,3.68063976 13.5779065,4.07231836 C13.5779065,4.46399696 13.2590993,4.78152024 12.8655736,4.78152024" id="Shape" fill="#FFFFFF"></path>
                                    <path d="M2.91225572,14.6548035 C2.91225572,15.4445018 2.26921588,16.0847152 1.47597222,16.0847152 L1.47597222,16.0847152 C0.682787532,16.0847152 0.0397476936,15.4445018 0.0397476936,14.6548035 L0.0397476936,8.8710417 C0.0397476936,8.08134343 0.682787532,7.44113006 1.47597222,7.44113006 L1.47597222,7.44113006 C2.26921588,7.44113006 2.91225572,8.08134343 2.91225572,8.8710417 L2.91225572,14.6548035 L2.91225572,14.6548035 Z" id="Shape" fill="#9FBF3B"></path>
                                    <path d="M3.73864211,7.48534142 L3.73864211,17.9313761 C3.73864211,18.5517443 4.24380345,19.0547439 4.86708739,19.0547439 L6.20181966,19.0547439 L6.20181966,22.2689626 C6.20181966,23.0587196 6.84480052,23.6988743 7.63804418,23.6988743 C8.43128784,23.6988743 9.07432768,23.0587196 9.07432768,22.2689626 L9.07432768,19.0547439 L11.2782017,19.0547439 L11.2782017,22.2689626 C11.2782017,23.0587196 11.9211235,23.6988743 12.7144262,23.6988743 C13.5077288,23.6988743 14.1506507,23.0587196 14.1506507,22.2689626 L14.1506507,19.0547439 L15.485383,19.0547439 C16.1086669,19.0547439 16.6139462,18.5520379 16.6139462,17.9313761 L16.6139462,7.48534142 L3.73864211,7.48534142 L3.73864211,7.48534142 Z" id="Shape" fill="#9FBF3B"></path>
                                    <path d="M17.4402736,14.6548035 C17.4402736,15.4445018 18.0832545,16.0847152 18.8764981,16.0847152 L18.8764981,16.0847152 C19.6696828,16.0847152 20.3127227,15.4445018 20.3127227,14.6548035 L20.3127227,8.8710417 C20.3127227,8.08134343 19.6696828,7.44113006 18.8764981,7.44113006 L18.8764981,7.44113006 C18.0832545,7.44113006 17.4402736,8.08134343 17.4402736,8.8710417 L17.4402736,14.6548035 L17.4402736,14.6548035 Z" id="Shape" fill="#9FBF3B"></path>
                                </g>
                            </g>
                        </g>
                    </g>
                </g>
            </g>
        </g>
    </g>
</svg>