<?xml version="1.0" encoding="UTF-8" standalone="no"?>
<svg width="52px" height="36px" viewBox="0 0 52 36" version="1.1" xmlns="http://www.w3.org/2000/svg" xmlns:xlink="http://www.w3.org/1999/xlink">
    <!-- Generator: Sketch 3.8.3 (29802) - http://www.bohemiancoding.com/sketch -->
    <title>bradesco</title>
    <desc>Created with Sketch.</desc>
    <defs>
        <rect id="path-1" x="0" y="0" width="52" height="36" rx="3"></rect>
        <mask id="mask-2" maskContentUnits="userSpaceOnUse" maskUnits="objectBoundingBox" x="0" y="0" width="52" height="36" fill="white">
            <use xlink:href="#path-1"></use>
        </mask>
    </defs>
    <g id="Page-1" stroke="none" stroke-width="1" fill="none" fill-rule="evenodd">
        <g id="Paywall-2-produtos-V2" transform="translate(-950.000000, -1190.000000)">
            <g id="PRODUTO" transform="translate(360.000000, 272.000000)">
                <g id="Group-20" transform="translate(202.000000, 918.000000)">
                    <g id="Group-17" transform="translate(156.000000, 0.000000)">
                        <g id="bradesco" transform="translate(232.000000, 0.000000)">
                            <use id="Rectangle" stroke="#DEDEDE" mask="url(#mask-2)" stroke-width="2" fill="#FFFFFF" xlink:href="#path-1"></use>
                            <g id="g8543" transform="translate(26.500000, 18.000000) scale(-1, 1) rotate(180.000000) translate(-26.500000, -18.000000) translate(15.000000, 6.000000)" fill="#E41836">
                                <polygon id="path8553" points="8.84252308 0.0703384615 10.5351877 0.0703384615 10.5351877 8.74301538 8.84252308 8.74301538"></polygon>
                                <polygon id="path8555" points="12.0747692 0.0703384615 14.8474338 0.0703384615 14.8474338 11.9752615 12.0747692 11.9752615 12.0747692 0.0703384615"></polygon>
                                <path d="M7.32443077,20.2663385 C7.32443077,20.2663385 10.1196369,22.9985723 14.8296,22.0996246 C14.8296,22.0996246 16.9026462,21.7772862 18.4919077,20.3660862 C18.4919077,20.3660862 18.7281785,20.1445477 18.9090092,20.3260431 C18.9090092,20.3260431 19.1398523,20.5069292 18.8836985,20.7775385 C18.8836985,20.7775385 17.5174708,22.67208 14.8215692,23.5095508 C14.8215692,23.5095508 11.1173354,24.8357908 7.31196923,23.0437662 C7.31196923,23.0437662 4.96958769,22.07304 3.67043077,19.4284246 C3.67043077,19.4284246 1.81848,18.8302154 0.430209231,18.0516185 C0.430209231,18.0516185 0.0198092308,17.88912 0.174664615,17.5702154 C0.174664615,17.5702154 0.307532308,17.3410892 0.666646154,17.5111754 C0.666646154,17.5111754 1.95611077,17.9561908 3.19877538,18.234 C3.19877538,18.234 2.19902769,15.6417231 3.24291692,12.4241538 C3.70720615,10.9917415 4.55481231,9.53379692 5.85031385,8.36180308 C5.85031385,8.36180308 6.06127385,8.14004308 6.29100923,8.29129846 C6.29100923,8.29129846 6.49111385,8.43668308 6.35027077,8.67400615 C6.35027077,8.67400615 5.31701538,10.2284862 4.91614154,12.4392738 C4.58189538,14.2418769 4.73935385,16.7309723 5.99115692,18.7043815 C5.99115692,18.7043815 10.7578892,19.3693846 14.8205723,17.8396062 C14.8205723,17.8396062 21.7209415,15.5878892 19.98408,11.4111138 C19.98408,11.4111138 19.4798031,9.95942769 17.5746277,8.64792 C17.5746277,8.64792 17.2555569,8.46210462 17.4284123,8.19576 C17.4284123,8.19576 17.5724677,7.98828923 17.8991815,8.12115692 C17.8991815,8.12115692 20.8161785,9.06978462 22.0755138,11.4132738 C22.0755138,11.4132738 24.6290769,15.3215446 18.6063877,18.5102585 C18.6063877,18.5102585 16.95072,19.3950831 14.8216246,19.8684554 C14.8216246,19.8684554 10.9856308,20.81736 7.32476308,20.2656738" id="path8557"></path>
                            </g>
                        </g>
                    </g>
                </g>
            </g>
        </g>
    </g>
</svg>