<?xml version="1.0" encoding="UTF-8" standalone="no"?>
<svg width="52px" height="36px" viewBox="0 0 52 36" version="1.1" xmlns="http://www.w3.org/2000/svg" xmlns:xlink="http://www.w3.org/1999/xlink">
    <!-- Generator: Sketch 3.8.3 (29802) - http://www.bohemiancoding.com/sketch -->
    <title>dinersclub</title>
    <desc>Created with Sketch.</desc>
    <defs>
        <rect id="path-1" x="0" y="0" width="52" height="36" rx="3"></rect>
        <mask id="mask-2" maskContentUnits="userSpaceOnUse" maskUnits="objectBoundingBox" x="0" y="0" width="52" height="36" fill="white">
            <use xlink:href="#path-1"></use>
        </mask>
    </defs>
    <g id="Page-1" stroke="none" stroke-width="1" fill="none" fill-rule="evenodd">
        <g id="Paywall-2-produtos-V2" transform="translate(-834.000000, -1190.000000)">
            <g id="PRODUTO" transform="translate(360.000000, 272.000000)">
                <g id="Group-20" transform="translate(202.000000, 918.000000)">
                    <g id="Group-17" transform="translate(156.000000, 0.000000)">
                        <g id="dinersclub" transform="translate(116.000000, 0.000000)">
                            <use id="Rectangle" stroke="#DEDEDE" mask="url(#mask-2)" stroke-width="2" fill="#FFFFFF" xlink:href="#path-1"></use>
                            <g id="Group-8" transform="translate(9.000000, 6.000000)">
                                <path d="M1.16488968,14.7111817 C1.16488968,14.0836416 0.837033764,14.1248931 0.523407453,14.1182814 L0.523407453,13.9368898 C0.795351073,13.9501133 1.0741939,13.9501133 1.34685619,13.9501133 C1.63978489,13.9501133 2.03749524,13.9368898 2.55421687,13.9368898 C4.36123336,13.9368898 5.34551979,15.1435318 5.34551979,16.379208 C5.34551979,17.0707094 4.94076649,18.8078715 2.47027656,18.8078715 C2.11468009,18.8078715 1.78624924,18.7940731 1.45839332,18.7940731 C1.14462327,18.7940731 0.837033764,18.8005411 0.523407453,18.8078715 L0.523407453,18.6263362 C0.94167169,18.5840786 1.14462327,18.5704239 1.16488968,18.0959599 L1.16488968,14.7111817 L1.16488968,14.7111817 Z M1.84877327,17.9839916 C1.84877327,18.5215545 2.23297269,18.5840786 2.57477075,18.5840786 C4.08253427,18.5840786 4.57726469,17.4468598 4.57726469,16.407236 C4.57726469,15.1022803 3.74001754,14.1603953 2.39337918,14.1603953 C2.10663102,14.1603953 1.97468374,14.1808054 1.84877327,14.1882795 L1.84877327,17.9839916 L1.84877327,17.9839916 Z" id="Fill-5" fill="#1A1918"></path>
                                <path d="M5.59001033,18.6263362 L5.72224507,18.6263362 C5.91757878,18.6263362 6.05728766,18.6263362 6.05728766,18.3955003 L6.05728766,16.5045435 C6.05728766,16.1979601 5.95279347,16.1555588 5.69421705,16.0164248 L5.69421705,15.9050314 C6.02221671,15.8064303 6.41331533,15.6747705 6.44091214,15.6537854 C6.49006897,15.6257574 6.53132046,15.6182833 6.56682261,15.6182833 C6.60103117,15.6182833 6.61540451,15.6602534 6.61540451,15.7165969 L6.61540451,18.3955003 C6.61540451,18.6263362 6.76919926,18.6263362 6.96482044,18.6263362 L7.08296931,18.6263362 L7.08296931,18.8078715 C6.84566544,18.8078715 6.60103117,18.7940731 6.35064756,18.7940731 C6.09940155,18.7940731 5.84801181,18.8005411 5.59001033,18.8078715 L5.59001033,18.6263362 L5.59001033,18.6263362 Z M6.33656168,14.5440197 C6.15473891,14.5440197 5.99461989,14.3765703 5.99461989,14.1951787 C5.99461989,14.0203989 6.16235678,13.8595612 6.33656168,13.8595612 C6.51766579,13.8595612 6.67864721,14.0066005 6.67864721,14.1951787 C6.67864721,14.3839007 6.52470872,14.5440197 6.33656168,14.5440197 L6.33656168,14.5440197 Z" id="Fill-6" fill="#1A1918"></path>
                                <path d="M7.74615528,16.5465137 C7.74615528,16.2887997 7.66911417,16.219089 7.34168945,16.0862793 L7.34168945,15.9537571 C7.64122989,15.8561621 7.92711565,15.7650351 8.26244571,15.6182833 C8.28357452,15.6182833 8.30384093,15.6322254 8.30384093,15.687994 L8.30384093,16.1417604 C8.70226996,15.8561621 9.04421175,15.6182833 9.51249522,15.6182833 C10.1048206,15.6182833 10.3140965,16.0510646 10.3140965,16.595383 L10.3140965,18.3955003 C10.3140965,18.6263362 10.468035,18.6263362 10.6632249,18.6263362 L10.7891354,18.6263362 L10.7891354,18.8078715 C10.5440699,18.8078715 10.3001543,18.7940731 10.0491958,18.7940731 C9.79780605,18.7940731 9.5464163,18.8005411 9.2951703,18.8078715 L9.2951703,18.6263362 L9.42108077,18.6263362 C9.61655821,18.6263362 9.75554842,18.6263362 9.75554842,18.3955003 L9.75554842,16.588915 C9.75554842,16.1906297 9.51249522,15.9954398 9.11420993,15.9954398 C8.89070447,15.9954398 8.53482053,16.1765439 8.30384093,16.3307698 L8.30384093,18.3955003 C8.30384093,18.6263362 8.45806689,18.6263362 8.65354433,18.6263362 L8.77887987,18.6263362 L8.77887987,18.8078715 C8.53482053,18.8078715 8.29047373,18.7940731 8.03879652,18.7940731 C7.78812544,18.7940731 7.53659196,18.8005411 7.28563342,18.8078715 L7.28563342,18.6263362 L7.41154389,18.6263362 C7.60673387,18.6263362 7.74615528,18.6263362 7.74615528,18.3955003 L7.74615528,16.5465137" id="Fill-7" fill="#1A1918"></path>
                                <path d="M11.3195117,16.8819875 C11.3052821,16.944799 11.3052821,17.0492932 11.3195117,17.2867408 C11.3606195,17.9494955 11.7872202,18.4935265 12.3449059,18.4935265 C12.729249,18.4935265 13.0295081,18.2841069 13.2872222,18.0263929 L13.3846734,18.1241316 C13.063573,18.5497263 12.6660063,18.9127969 12.0942348,18.9127969 C10.9843254,18.9127969 10.7611074,17.8375272 10.7611074,17.391235 C10.7611074,16.023324 11.6820074,15.6182833 12.1699823,15.6182833 C12.7358608,15.6182833 13.3434219,15.9741672 13.3498899,16.7141068 C13.3498899,16.7565082 13.3498899,16.7979034 13.3434219,16.8398736 L13.280323,16.8819875 L11.3195117,16.8819875 L11.3195117,16.8819875 Z M12.5551879,16.658482 C12.729249,16.658482 12.7496592,16.5676425 12.7496592,16.4835584 C12.7496592,16.1282494 12.5334841,15.8420762 12.1425292,15.8420762 C11.7172221,15.8420762 11.4240059,16.1555588 11.3403531,16.658482 L12.5551879,16.658482 L12.5551879,16.658482 Z" id="Fill-8" fill="#1A1918"></path>
                                <path d="M13.5107276,18.6263362 L13.6993059,18.6263362 C13.8939209,18.6263362 14.0336298,18.6263362 14.0336298,18.3955003 L14.0336298,16.4349765 C14.0336298,16.219089 13.7756283,16.1765439 13.6708466,16.1207753 L13.6708466,16.0164248 C14.1802379,15.7999623 14.4595119,15.6182833 14.5233295,15.6182833 C14.5641498,15.6182833 14.5851349,15.6392684 14.5851349,15.7094103 L14.5851349,16.3375253 L14.5997957,16.3375253 C14.7737131,16.0654379 15.0673605,15.6182833 15.4928114,15.6182833 C15.66716,15.6182833 15.8902343,15.7368634 15.8902343,15.9882531 C15.8902343,16.1765439 15.758287,16.3448557 15.5629533,16.3448557 C15.3459159,16.3448557 15.3459159,16.1765439 15.1014253,16.1765439 C14.982989,16.1765439 14.5921778,16.3375253 14.5921778,16.7565082 L14.5921778,18.3955003 C14.5921778,18.6263362 14.7315992,18.6263362 14.9270767,18.6263362 L15.3174566,18.6263362 L15.3174566,18.8078715 C14.9336884,18.8005411 14.6416221,18.7940731 14.3412193,18.7940731 C14.0550461,18.7940731 13.7618299,18.8005411 13.5107276,18.8078715 L13.5107276,18.6263362" id="Fill-9" fill="#1A1918"></path>
                                <path d="M16.1971051,17.8375272 C16.2880884,18.2980491 16.5666438,18.6894352 17.0770411,18.6894352 C17.4881187,18.6894352 17.6414822,18.4379017 17.6414822,18.1938423 C17.6414822,17.3699624 16.120639,17.635438 16.120639,16.5120177 C16.120639,16.1207753 16.4348402,15.618427 17.2025204,15.618427 C17.4254509,15.618427 17.7254225,15.6816697 17.9973662,15.8213786 L18.0463793,16.5325715 L17.8859728,16.5325715 C17.8162621,16.0931785 17.5723465,15.8420762 17.1251918,15.8420762 C16.8460615,15.8420762 16.5811608,16.002339 16.5811608,16.3024543 C16.5811608,17.1194351 18.1997428,16.8677579 18.1997428,17.9634377 C18.1997428,18.4236721 17.8303479,18.9127969 16.9995688,18.9127969 C16.720726,18.9127969 16.3921514,18.8149144 16.148667,18.6753493 L16.0714821,17.8727419 L16.1971051,17.8375272" id="Fill-10" fill="#1A1918"></path>
                                <path d="M24.5011595,15.1995878 L24.3270983,15.1995878 C24.1942886,14.3839007 23.615043,14.0554699 22.8339956,14.0554699 C22.0305258,14.0554699 20.8655665,14.5924579 20.8655665,16.2672397 C20.8655665,17.6774082 21.870838,18.6894352 22.9452452,18.6894352 C23.6354531,18.6894352 24.2089494,18.2146837 24.3482271,17.4814995 L24.5087773,17.5231822 L24.3482271,18.5423959 C24.0551547,18.7240749 23.2663457,18.9127969 22.8052489,18.9127969 C21.1730122,18.9127969 20.1402876,17.8587998 20.1402876,16.2887997 C20.1402876,14.8577898 21.417359,13.8316769 22.7851262,13.8316769 C23.3501423,13.8316769 23.894317,14.0136434 24.4317362,14.2022217 L24.5011595,15.1995878" id="Fill-11" fill="#1A1918"></path>
                                <path d="M24.7531241,18.6263362 L24.8852151,18.6263362 C25.0812675,18.6263362 25.2205452,18.6263362 25.2205452,18.3955003 L25.2205452,14.5095237 C25.2205452,14.0554699 25.116051,14.0416715 24.8505754,13.9647741 L24.8505754,13.8529495 C25.1295619,13.7623974 25.4229218,13.6370619 25.5698174,13.5526904 C25.6455649,13.5114389 25.7019084,13.475793 25.7224623,13.475793 C25.7651511,13.475793 25.7789495,13.5181944 25.7789495,13.5742504 L25.7789495,18.3955003 C25.7789495,18.6263362 25.9326005,18.6263362 26.1277905,18.6263362 L26.2459394,18.6263362 L26.2459394,18.8078715 C26.0093542,18.8078715 25.7651511,18.7940731 25.5137614,18.7940731 C25.2626591,18.7940731 25.0117005,18.8005411 24.7531241,18.8078715 L24.7531241,18.6263362" id="Fill-12" fill="#1A1918"></path>
                                <path d="M29.2337259,18.4236721 C29.2337259,18.5497263 29.3100483,18.556338 29.4283409,18.556338 C29.5125687,18.556338 29.6167754,18.5497263 29.7081899,18.5497263 L29.7081899,18.6966218 C29.4079308,18.7242186 28.8354406,18.8708267 28.7026309,18.9127969 L28.6678474,18.8915243 L28.6678474,18.3262208 C28.2495832,18.6680189 27.9281953,18.9127969 27.4320275,18.9127969 C27.0553022,18.9127969 26.6647785,18.6680189 26.6647785,18.0825927 L26.6647785,16.2955551 C26.6647785,16.1138761 26.637038,15.9393837 26.2468018,15.9050314 L26.2468018,15.772078 C26.4981915,15.7651788 27.0553022,15.7234961 27.1462855,15.7234961 C27.2237578,15.7234961 27.2237578,15.772078 27.2237578,15.9258728 L27.2237578,17.7261338 C27.2237578,17.9356971 27.2237578,18.5352092 27.830744,18.5352092 C28.0676167,18.5352092 28.3816742,18.3542488 28.6746029,18.1103332 L28.6746029,16.2325999 C28.6746029,16.0931785 28.3398478,16.0164248 28.089033,15.9470016 L28.089033,15.8215223 C28.7164293,15.7789772 29.1076717,15.7234961 29.1773824,15.7234961 C29.2337259,15.7234961 29.2337259,15.772078 29.2337259,15.8491191 L29.2337259,18.4236721" id="Fill-13" fill="#1A1918"></path>
                                <path d="M30.6220469,16.1207753 C30.9010335,15.8840464 31.2780462,15.6182833 31.6618145,15.6182833 C32.4714648,15.6182833 32.9600147,16.3238706 32.9600147,17.0843641 C32.9600147,17.9982212 32.2897857,18.9127969 31.2914134,18.9127969 C30.7755542,18.9127969 30.5033231,18.7447725 30.3215004,18.6680189 L30.1127994,18.8285691 L29.9664788,18.7521029 C30.0288591,18.3404504 30.0640738,17.9356971 30.0640738,17.509815 L30.0640738,14.5095237 C30.0640738,14.0554699 29.9590047,14.0416715 29.6938165,13.9647741 L29.6938165,13.8529495 C29.9732343,13.7623974 30.2660193,13.6370619 30.4124836,13.5526904 C30.4895247,13.5114389 30.5451496,13.475793 30.5664221,13.475793 C30.6079611,13.475793 30.6220469,13.5183381 30.6220469,13.5742504 L30.6220469,16.1207753 L30.6220469,16.1207753 Z M30.6220469,18.0190625 C30.6220469,18.2841069 30.8734367,18.7311178 31.3408577,18.7311178 C32.0874091,18.7311178 32.4013229,17.9982212 32.4013229,17.3768616 C32.4013229,16.6234111 31.8296951,15.9954398 31.2855204,15.9954398 C31.0262253,15.9954398 30.8103377,16.1631767 30.6220469,16.3238706 L30.6220469,18.0190625 L30.6220469,18.0190625 Z" id="Fill-14" fill="#1A1918"></path>
                                <path d="M0.515645848,22.8654658 L0.568970945,22.8654658 C0.705517689,22.8654658 0.849826038,22.8467805 0.849826038,22.649147 L0.849826038,20.6598765 C0.849826038,20.4619556 0.705517689,20.4431266 0.568970945,20.4431266 L0.515645848,20.4431266 L0.515645848,20.3290022 C0.663691265,20.3290022 0.891508728,20.3440942 1.0780747,20.3440942 C1.26780281,20.3440942 1.4953328,20.3290022 1.67384971,20.3290022 L1.67384971,20.4431266 L1.62023714,20.4431266 C1.48426533,20.4431266 1.33966952,20.4619556 1.33966952,20.6598765 L1.33966952,22.649147 C1.33966952,22.8467805 1.48426533,22.8654658 1.62023714,22.8654658 L1.67384971,22.8654658 L1.67384971,22.9795901 C1.49173947,22.9795901 1.26334707,22.9649293 1.0741939,22.9649293 C0.887771659,22.9649293 0.663691265,22.9795901 0.515645848,22.9795901 L0.515645848,22.8654658" id="Fill-15" fill="#1A1918"></path>
                                <path d="M1.67384971,22.995832 C1.4901584,22.995832 1.26291587,22.9805963 1.07390643,22.9805963 C0.888059126,22.9805963 0.664697399,22.995832 0.515645848,22.995832 L0.499116505,22.995832 L0.499116505,22.8490802 L0.568683478,22.8490802 C0.706523823,22.8457743 0.831859361,22.8347068 0.833009228,22.649147 L0.833009228,20.6598765 C0.831859361,20.4740292 0.706523823,20.4619556 0.568683478,20.4595122 L0.499116505,20.4595122 L0.499116505,20.3124729 L0.515645848,20.3124729 C0.664697399,20.3124729 0.892371129,20.3272774 1.0780747,20.3272774 C1.26694041,20.3272774 1.49432667,20.3124729 1.67384971,20.3124729 L1.69081025,20.3124729 L1.69081025,20.4595122 L1.62095581,20.4595122 C1.48297173,20.4619556 1.35691753,20.4740292 1.35619886,20.6598765 L1.35619886,22.649147 C1.35691753,22.8347068 1.48297173,22.8457743 1.62095581,22.8490802 L1.69081025,22.8490802 L1.69081025,22.995832 L1.67384971,22.995832 L1.67384971,22.995832 Z M1.6574641,22.9633483 L1.65760783,22.8825701 L1.62095581,22.8825701 C1.48512773,22.8825701 1.32371511,22.8587103 1.32285271,22.649147 L1.32285271,20.6598765 C1.32371511,20.449882 1.48512773,20.4264535 1.62095581,20.4264535 L1.6574641,20.4264535 L1.6574641,20.3453878 C1.48225306,20.3455316 1.2621972,20.3607673 1.0780747,20.3607673 C0.897689265,20.3607673 0.679358208,20.3465377 0.532318924,20.3453878 L0.532318924,20.4264535 L0.568683478,20.4264535 C0.704080355,20.4264535 0.865780447,20.449882 0.865780447,20.6598765 L0.865780447,22.649147 C0.865780447,22.8587103 0.704080355,22.8825701 0.568683478,22.8825701 L0.532318924,22.8825701 L0.532318924,22.9633483 C0.679358208,22.9620546 0.893808463,22.9481125 1.07390643,22.9481125 C1.25889134,22.9481125 1.47837226,22.9623421 1.6574641,22.9633483 L1.6574641,22.9633483 Z" id="Fill-16" fill="#1A1918"></path>
                                <path d="M4.28246745,22.2311702 L4.29008532,22.2236961 L4.29008532,20.8001604 C4.29008532,20.4885463 4.07333533,20.4429828 3.95949847,20.4429828 L3.87584562,20.4429828 L3.87584562,20.3290022 C4.05464999,20.3290022 4.22928609,20.3440942 4.40751552,20.3440942 C4.56317881,20.3440942 4.71956077,20.3290022 4.87464912,20.3290022 L4.87464912,20.4429828 L4.81816189,20.4429828 C4.6581866,20.4429828 4.4796697,20.4733106 4.4796697,20.9252084 L4.4796697,22.6528841 C4.4796697,22.7859812 4.48340677,22.9187909 4.50209211,23.0366523 L4.35778376,23.0366523 L2.40257812,20.8566476 L2.40257812,22.4214733 C2.40257812,22.7520601 2.46682696,22.8654658 2.75918072,22.8654658 L2.82386076,22.8654658 L2.82386076,22.9795901 C2.6605796,22.9795901 2.49744217,22.9647856 2.33416101,22.9647856 C2.16369318,22.9647856 1.98876962,22.9795901 1.81772685,22.9795901 L1.81772685,22.8654658 L1.87105195,22.8654658 C2.13293423,22.8654658 2.21270628,22.6869489 2.21270628,22.3841026 L2.21270628,20.7842059 C2.21270628,20.571768 2.03749524,20.4429828 1.86731488,20.4429828 L1.81772685,20.4429828 L1.81772685,20.3290022 C1.96174774,20.3290022 2.11008062,20.3440942 2.2541015,20.3440942 C2.36836957,20.3440942 2.47846936,20.3290022 2.59230623,20.3290022 L4.28246745,22.2311702" id="Fill-17" fill="#1A1918"></path>
                                <path d="M4.50209211,23.0526067 L4.34571015,23.0472886 L2.41867626,20.8994801 L2.41867626,22.4214733 C2.42327573,22.7516289 2.47343869,22.8454869 2.75932445,22.8490802 L2.84067757,22.8490802 L2.84067757,22.995832 L2.82386076,22.995832 C2.65957346,22.995832 2.49614857,22.9805963 2.33416101,22.9805963 C2.16412438,22.9805963 1.98963202,22.995832 1.81758312,22.995832 L1.80091004,22.995832 L1.80091004,22.8490802 L1.87105195,22.8490802 C2.12201049,22.8476429 2.19373347,22.686374 2.1964644,22.3839589 L2.1964644,20.7847809 C2.19574573,20.582548 2.02987737,20.4595122 1.86745862,20.4595122 L1.80091004,20.4595122 L1.80091004,20.3124729 L1.81758312,20.3124729 C1.96275387,20.3124729 2.11137422,20.3272774 2.25381403,20.3272774 C2.36707597,20.3272774 2.47674456,20.3124729 2.60481103,20.3183659 L4.27355598,22.1968179 L4.27355598,20.8001604 C4.27168745,20.4986077 4.0701732,20.4619556 3.9596422,20.4595122 L3.85917254,20.4595122 L3.85917254,20.3124729 L3.87598935,20.3124729 C4.05536866,20.3124729 4.23014849,20.3272774 4.40751552,20.3272774 C4.56202894,20.3272774 4.71769223,20.3124729 4.87464912,20.3124729 L4.8913222,20.3124729 L4.8913222,20.4595122 L4.81816189,20.4595122 C4.66134873,20.4635367 4.50051104,20.4773351 4.49591157,20.9252084 L4.49591157,22.6528841 C4.49591157,22.7858375 4.50007984,22.9183597 4.51833399,23.0336339 L4.52178359,23.0526067 L4.50209211,23.0526067 L4.50209211,23.0526067 Z M4.35792749,23.019548 L4.4835505,23.019548 C4.46658996,22.90528 4.46357155,22.7792257 4.46357155,22.6528841 L4.46357155,20.9252084 C4.46357155,20.4694298 4.65459326,20.4264535 4.81816189,20.426166 L4.85811978,20.426166 L4.85811978,20.3453878 C4.70849329,20.3465377 4.55857934,20.3603361 4.40751552,20.3603361 C4.23359809,20.3603361 4.06456759,20.3465377 3.8929499,20.3453878 L3.8925187,20.426166 L3.9596422,20.426166 C4.07635373,20.4264535 4.30647093,20.4783412 4.30647093,20.8001604 L4.30144026,22.235626 L4.29396612,22.2429564 L4.28103012,22.2551737 L2.59230623,20.3453878 C2.4794755,20.3453878 2.36966317,20.3603361 2.25381403,20.3603361 C2.11468009,20.3603361 1.97209654,20.3465377 1.83439993,20.3453878 L1.83368126,20.426166 L1.86745862,20.426166 C2.04554432,20.4264535 2.22880442,20.5624253 2.22880442,20.7847809 L2.22880442,22.3839589 C2.22880442,22.6878113 2.14414544,22.8818514 1.87105195,22.8828575 L1.83439993,22.8818514 L1.83439993,22.9633483 C1.99883096,22.9620546 2.16829265,22.9481125 2.33416101,22.9481125 C2.49255524,22.9481125 2.65066199,22.9620546 2.80733141,22.9633483 L2.80733141,22.8828575 L2.75932445,22.8828575 C2.46050268,22.8818514 2.38647998,22.7516289 2.38619251,22.4214733 L2.38619251,20.8141025 L4.35792749,23.019548 L4.35792749,23.019548 Z M4.28261119,22.2311702 L4.29454106,22.2202465 L4.28261119,22.2311702 L4.28261119,22.2311702 Z M4.27355598,22.2236961 L4.27355598,22.2222588 L4.27053758,22.2198153 L4.27355598,22.2236961 L4.27355598,22.2236961 Z" id="Fill-18" fill="#1A1918"></path>
                                <path d="M5.44368971,20.5188741 C5.15852262,20.5188741 5.14745514,20.5875786 5.09053671,20.8644092 L4.97655611,20.8644092 C4.99150439,20.7580465 5.01033346,20.6518275 5.0221196,20.5417277 C5.03735535,20.4349337 5.04497322,20.3290022 5.04497322,20.2191899 L5.13595647,20.2191899 C5.16657169,20.3331705 5.26143574,20.3290022 5.3644926,20.3290022 L7.32300411,20.3290022 C7.42606097,20.3290022 7.52078129,20.3252652 7.52854289,20.2112846 L7.61923868,20.2268078 C7.60457787,20.3290022 7.58905466,20.4316279 7.57798719,20.5343973 C7.57051305,20.6368792 7.57051305,20.7390737 7.57051305,20.8415556 L7.45638872,20.8838132 C7.44862711,20.7435294 7.42979804,20.5188741 7.17538989,20.5188741 L6.55259301,20.5188741 L6.55259301,22.5390472 C6.55259301,22.8319759 6.68569015,22.8654658 6.86765665,22.8654658 L6.94009829,22.8654658 L6.94009829,22.9795901 C6.79190914,22.9795901 6.52600232,22.9649293 6.32132594,22.9649293 C6.09322101,22.9649293 5.82717046,22.9795901 5.67898131,22.9795901 L5.67898131,22.8654658 L5.75142295,22.8654658 C5.9606988,22.8654658 6.0664866,22.8467805 6.0664866,22.5469525 L6.0664866,20.5188741 L5.44368971,20.5188741" id="Fill-19" fill="#1A1918"></path>
                                <path d="M6.94038576,22.995832 C6.79075927,22.995832 6.52513992,22.98074 6.32132594,22.98074 C6.09350848,22.98074 5.82788913,22.995832 5.67898131,22.995832 L5.66273943,22.995832 L5.66273943,22.8490802 L5.75142295,22.8490802 C5.9606988,22.8441932 6.04478285,22.8414623 6.04952605,22.5469525 L6.04952605,20.5351159 L5.44368971,20.5351159 L5.44368971,20.5019135 L6.08244101,20.5019135 L6.08244101,22.5469525 C6.08244101,22.8518111 5.95954894,22.8825701 5.75142295,22.8828575 L5.69522319,22.8828575 L5.69522319,22.9630608 C5.8449934,22.9620546 6.10083888,22.9481125 6.32132594,22.9481125 C6.51895939,22.9481125 6.77264886,22.9620546 6.92313775,22.9630608 L6.92313775,22.8828575 L6.86765665,22.8828575 C6.68396535,22.8825701 6.5362074,22.8374378 6.5362074,22.5390472 L6.5362074,20.5019135 L7.17538989,20.5019135 C7.4300855,20.5029197 7.46386286,20.7193822 7.47176819,20.8606721 L7.55398371,20.8303444 C7.55398371,20.7311683 7.55441491,20.6318485 7.56117038,20.5320975 C7.57238158,20.4339276 7.58617999,20.3374825 7.6004096,20.240175 L7.5427725,20.2305448 C7.52509329,20.3410758 7.4180119,20.3469689 7.32286038,20.3455316 L5.34465739,20.3455316 C5.2552552,20.3456753 5.15794768,20.3413633 5.12373913,20.2354318 L5.06107136,20.2354318 C5.06049643,20.3403572 5.05330976,20.4422642 5.03893641,20.5434525 C5.02758147,20.6478029 5.01018973,20.7479851 4.99639132,20.8485985 L5.07745697,20.8485985 C5.12733246,20.5836978 5.15981622,20.4981765 5.44368971,20.5019135 L5.44368971,20.5351159 C5.16240342,20.5407215 5.16858395,20.5877224 5.10663485,20.86829 L5.10390392,20.881226 L4.9575833,20.881226 L4.95959557,20.8615345 C4.97511878,20.755603 4.99437906,20.6489528 5.00544653,20.5387093 C5.0212572,20.4333527 5.02844387,20.3279961 5.02844387,20.2191899 L5.02844387,20.2023731 L5.14903621,20.2023731 L5.15191088,20.214303 C5.17749543,20.3100294 5.24778107,20.3107481 5.34465739,20.3124729 L7.32286038,20.3124729 C7.42864817,20.3107481 7.50568928,20.3093107 7.51215728,20.209991 L7.51345088,20.1920243 L7.53069889,20.1954739 L7.63806776,20.2124344 L7.63533682,20.2292512 C7.62024481,20.3311582 7.60544027,20.4333527 7.5939416,20.5351159 C7.58689866,20.6368792 7.58689866,20.7389299 7.58689866,20.8415556 L7.58689866,20.8530543 L7.57583119,20.85751 L7.44144044,20.9066668 L7.44057804,20.8846756 C7.4300855,20.7418046 7.4154247,20.5351159 7.17538989,20.5351159 L6.56926608,20.5351159 L6.56926608,22.5390472 C6.57300315,22.8253642 6.68655255,22.8454869 6.86765665,22.8490802 L6.9564839,22.8490802 L6.9564839,22.995832 L6.94038576,22.995832" id="Fill-20" fill="#1A1918"></path>
                                <path d="M7.74054968,22.8654658 L7.79401851,22.8654658 C7.93027779,22.8654658 8.07501734,22.8467805 8.07501734,22.649147 L8.07501734,20.6598765 C8.07501734,20.4619556 7.93027779,20.4431266 7.79401851,20.4431266 L7.74054968,20.4431266 L7.74054968,20.3290022 C7.97138554,20.3290022 8.36722737,20.3440942 8.68559688,20.3440942 C9.00511626,20.3440942 9.39952075,20.3290022 9.65766597,20.3290022 C9.65105423,20.4922834 9.65464757,20.7435294 9.66585877,20.9102602 L9.55144697,20.9404442 C9.53319283,20.6935102 9.48762934,20.4965954 9.08876911,20.4965954 L8.56155495,20.4965954 L8.56155495,21.4907994 L9.0125904,21.4907994 C9.24040786,21.4907994 9.28999589,21.362158 9.31256204,21.1569067 L9.4263989,21.1569067 C9.41878103,21.3052396 9.4147565,21.453285 9.4147565,21.6011867 C9.4147565,21.7457825 9.41878103,21.8899471 9.4263989,22.033968 L9.31256204,22.0566779 C9.28999589,21.8291479 9.27864095,21.6811025 9.01632747,21.6811025 L8.56155495,21.6811025 L8.56155495,22.5653504 C8.56155495,22.8125719 8.78089214,22.8125719 9.02408908,22.8125719 C9.47986773,22.8125719 9.68095078,22.7819567 9.79493138,22.3496066 L9.90086291,22.3757661 C9.85156234,22.577424 9.80628632,22.7780759 9.7722215,22.9795901 C9.52888083,22.9795901 9.09221871,22.9649293 8.75113932,22.9649293 C8.40862259,22.9649293 7.95715594,22.9795901 7.74054968,22.9795901 L7.74054968,22.8654658" id="Fill-21" fill="#1A1918"></path>
                                <path d="M9.77193403,22.995832 C9.52830589,22.995832 9.09135631,22.9800213 8.75070812,22.9800213 C8.40862259,22.9800213 7.95729967,22.995832 7.74040595,22.995832 L7.72445154,22.995832 L7.72445154,22.8490802 L7.79387478,22.8490802 C7.93128392,22.8467805 8.05633199,22.8347068 8.05805679,22.649147 L8.05805679,20.6598765 C8.05633199,20.4743167 7.93128392,20.4619556 7.79387478,20.4595122 L7.72445154,20.4595122 L7.72445154,20.3124729 L7.74040595,20.3124729 C7.97239168,20.3124729 8.3673711,20.3272774 8.68559688,20.3272774 C9.0048288,20.3272774 9.39908955,20.3124729 9.65766597,20.3124729 L9.67448278,20.3124729 L9.67390784,20.3300084 C9.67146438,20.3867831 9.66988331,20.4543378 9.66988331,20.5257733 C9.66988331,20.6570019 9.67390784,20.800879 9.68138198,20.9089666 L9.68210065,20.9224775 L9.66930837,20.9263583 L9.53578003,20.9612855 L9.5352051,20.9417378 C9.51278269,20.6953787 9.479724,20.5161431 9.08876911,20.5124061 L8.57693442,20.5124061 L8.57664695,21.4741263 L9.01244667,21.4741263 C9.23135266,21.4718266 9.27044815,21.360002 9.29632016,21.1551819 L9.29718256,21.1399461 L9.44321571,21.1399461 L9.44292825,21.1573379 C9.43559784,21.3056708 9.43114211,21.453285 9.43114211,21.6011867 C9.43114211,21.7447764 9.43559784,21.888941 9.44292825,22.0332493 L9.44321571,22.0470477 L9.42941731,22.0502099 L9.29718256,22.0765131 L9.29632016,22.0586901 C9.27001695,21.8268481 9.26829215,21.6997878 9.01632747,21.6970569 L8.57693442,21.6970569 L8.57693442,22.5653504 C8.57750936,22.7961863 8.7764364,22.7948927 9.02394534,22.7961863 C9.48116133,22.7934554 9.6642777,22.7710329 9.7786895,22.3451508 L9.78257031,22.3297714 L9.79852471,22.3323586 L9.92026692,22.3639799 L9.91681731,22.3796469 C9.86751675,22.5805862 9.82224073,22.7813817 9.78788844,22.9823211 L9.78501377,22.995832 L9.77193403,22.995832 L9.77193403,22.995832 Z M9.75784816,22.9630608 C9.79105058,22.7710329 9.83431433,22.5792926 9.88088396,22.3881271 L9.80614259,22.369298 C9.69244945,22.7940303 9.47210613,22.8319759 9.02394534,22.8291012 C8.78462921,22.8291012 8.5454568,22.8291012 8.5441632,22.5653504 L8.5441632,21.6645731 L9.01632747,21.6645731 C9.28151562,21.6618422 9.30825004,21.8216737 9.32722285,22.0377051 L9.40915089,22.0208882 C9.40182049,21.8808919 9.39808342,21.7403206 9.39808342,21.6011867 C9.39808342,21.4586031 9.40182049,21.316307 9.40915089,21.1730048 L9.32722285,21.1730048 C9.30580657,21.3713569 9.24385747,21.5097722 9.01244667,21.5073288 L8.5441632,21.5073288 L8.5441632,20.4794911 L9.08876911,20.4794911 C9.4836048,20.476329 9.54900351,20.6807179 9.56625152,20.9196028 L9.64803583,20.8973241 C9.64142409,20.7902428 9.63696836,20.6525461 9.63696836,20.5257733 C9.63696836,20.4608058 9.63869316,20.3991441 9.64084916,20.3453878 C9.38284768,20.3465377 8.99778586,20.3603361 8.68559688,20.3603361 C8.37355164,20.3603361 7.98949595,20.3465377 7.75707902,20.3453878 L7.75707902,20.426166 L7.79387478,20.426166 C7.92898419,20.4264535 8.09054055,20.449882 8.09140295,20.6598765 L8.09140295,22.649147 C8.09054055,22.8587103 7.92898419,22.8818514 7.79387478,22.8828575 L7.75707902,22.8828575 L7.75707902,22.9630608 C7.97814102,22.9623421 8.41710286,22.9481125 8.75070812,22.9481125 C9.08589444,22.9481125 9.51307015,22.9623421 9.75784816,22.9630608 L9.75784816,22.9630608 Z" id="Fill-22" fill="#1A1918"></path>
                                <path d="M10.4137037,20.7311683 C10.4137037,20.4543378 10.2616338,20.4429828 10.1437724,20.4429828 L10.0752115,20.4429828 L10.0752115,20.3290022 C10.19681,20.3290022 10.4322453,20.3440942 10.6640873,20.3440942 C10.8914736,20.3440942 11.074015,20.3290022 11.2752418,20.3290022 C11.7530117,20.3290022 12.1791813,20.4579311 12.1791813,20.9975063 C12.1791813,21.3390169 11.9512201,21.5475741 11.6513922,21.6660104 L12.3003485,22.6375046 C12.4069987,22.7981986 12.482315,22.8431871 12.668881,22.8654658 L12.668881,22.9795901 C12.543258,22.9795901 12.4218033,22.9649293 12.2968989,22.9649293 C12.1791813,22.9649293 12.0571516,22.9795901 11.9400089,22.9795901 C11.6473676,22.5962531 11.3965528,22.1863254 11.1499063,21.7489446 L10.8996664,21.7489446 L10.8996664,22.5620446 C10.8996664,22.8543983 11.0360694,22.8654658 11.2101306,22.8654658 L11.2789789,22.8654658 L11.2789789,22.9795901 C11.0620852,22.9795901 10.842748,22.9649293 10.6258543,22.9649293 C10.4436003,22.9649293 10.2650834,22.9795901 10.0752115,22.9795901 L10.0752115,22.8654658 L10.1437724,22.8654658 C10.2847749,22.8654658 10.4137037,22.801217 10.4137037,22.6609331 L10.4137037,20.7311683 L10.4137037,20.7311683 Z M10.8996664,21.6119667 L11.0852262,21.6119667 C11.4654011,21.6119667 11.6700775,21.4680895 11.6700775,21.019785 C11.6700775,20.6821552 11.453615,20.4656927 11.1152665,20.4656927 C11.0012859,20.4656927 10.952704,20.4773351 10.8996664,20.4810722 L10.8996664,21.6119667 L10.8996664,21.6119667 Z" id="Fill-23" fill="#1A1918"></path>
                                <path d="M12.668881,22.995832 C12.5415332,22.995832 12.4207971,22.9805963 12.2958928,22.9805963 C12.1801874,22.9805963 12.0587327,22.995832 11.9264979,22.9895077 C11.6351503,22.6071768 11.3854853,22.1995489 11.1402761,21.7660489 L10.9159083,21.7660489 L10.9159083,22.5613259 C10.9200766,22.8472117 11.0346321,22.8450557 11.2101306,22.8490802 L11.2953645,22.8490802 L11.2953645,22.995832 L11.2785477,22.995832 C11.0615102,22.995832 10.8408794,22.9805963 10.6257105,22.9805963 C10.4443189,22.9805963 10.2659458,22.995832 10.0752115,22.995832 L10.0586822,22.995832 L10.0586822,22.8490802 L10.1437724,22.8490802 C10.2803191,22.8480741 10.3957371,22.7885684 10.396312,22.6609331 L10.396312,20.7311683 C10.3934373,20.4619556 10.2616338,20.4632492 10.1437724,20.4595122 L10.0586822,20.4595122 L10.0586822,20.3124729 L10.0752115,20.3124729 C10.1981036,20.3124729 10.4325328,20.3272774 10.6640873,20.3272774 C10.8907549,20.3272774 11.0728652,20.3124729 11.2752418,20.3124729 C11.7540178,20.313479 12.1945607,20.4452826 12.1957106,20.9969314 C12.1957106,21.3395919 11.9691867,21.5537547 11.6764018,21.6731971 L12.3140032,22.6284494 C12.4202222,22.7859812 12.4863396,22.8253642 12.671037,22.8490802 L12.6848354,22.8512362 L12.6848354,22.995832 L12.668881,22.995832 L12.668881,22.995832 Z M10.8995227,21.732559 L11.1589615,21.732559 L11.1637047,21.7410393 C11.4109262,22.1772702 11.6604474,22.5873416 11.9400089,22.9633483 C12.0555705,22.9633483 12.1776002,22.9481125 12.2958928,22.9481125 C12.4170601,22.9481125 12.5343465,22.961336 12.6522079,22.9630608 L12.6522079,22.8796954 C12.474266,22.8579917 12.3906131,22.8042354 12.2869813,22.6468473 L11.6259514,21.6583926 L11.6446367,21.6507747 C11.9420211,21.533632 12.1623645,21.3308241 12.1625082,20.9969314 C12.1623645,20.4701484 11.7525805,20.347975 11.2752418,20.3453878 C11.0753086,20.3453878 10.8927672,20.3607673 10.6640873,20.3607673 C10.4410131,20.3607673 10.2156391,20.3465377 10.0914534,20.3453878 L10.0914534,20.426166 L10.1437724,20.426166 C10.2616338,20.4264535 10.4293707,20.4460012 10.4293707,20.7311683 L10.4293707,22.6609331 C10.4293707,22.8132906 10.2866434,22.8825701 10.1437724,22.8828575 L10.0914534,22.8828575 L10.0914534,22.9630608 C10.2739949,22.9623421 10.4473373,22.9481125 10.6257105,22.9481125 C10.8377173,22.9481125 11.0521676,22.9623421 11.2621621,22.9630608 L11.2621621,22.8828575 L11.2101306,22.8828575 C11.0372193,22.8825701 10.8827059,22.8611538 10.8827059,22.5613259 L10.8827059,21.732559 L10.8995227,21.732559 L10.8995227,21.732559 Z M10.8995227,21.6283523 L10.8827059,21.6283523 L10.8827059,20.4656927 L10.8972229,20.4645428 C10.9492544,20.4603746 11.0004235,20.449882 11.1152665,20.449882 C11.4610891,20.449882 11.6863194,20.6745374 11.6866069,21.0207911 C11.6856007,21.4741263 11.4682758,21.6282086 11.0852262,21.6283523 L10.8995227,21.6283523 L10.8995227,21.6283523 Z M11.0852262,21.5960123 C11.4610891,21.5922752 11.6505298,21.461909 11.6542668,21.0207911 C11.6519671,20.6890544 11.4459971,20.4832282 11.1152665,20.4817908 C11.0127846,20.4817908 10.9643464,20.4912772 10.9159083,20.4960205 L10.9159083,21.5960123 L11.0852262,21.5960123 L11.0852262,21.5960123 Z" id="Fill-24" fill="#1A1918"></path>
                                <path d="M15.2468835,22.2311702 L15.2534953,22.2236961 L15.2534953,20.8001604 C15.2534953,20.4885463 15.0377514,20.4429828 14.9237708,20.4429828 L14.8405492,20.4429828 L14.8405492,20.3290022 C15.0190661,20.3290022 15.1931272,20.3440942 15.3720753,20.3440942 C15.5281698,20.3440942 15.6826833,20.3290022 15.8394964,20.3290022 L15.8394964,20.4429828 L15.7822905,20.4429828 C15.6227464,20.4429828 15.4443733,20.4733106 15.4443733,20.9252084 L15.4443733,22.6528841 C15.4443733,22.7859812 15.4481103,22.9187909 15.4667957,23.0366523 L15.3230622,23.0366523 L13.3677129,20.8566476 L13.3677129,22.4214733 C13.3677129,22.7520601 13.431818,22.8654658 13.7241717,22.8654658 L13.7888518,22.8654658 L13.7888518,22.9795901 C13.6257144,22.9795901 13.4621457,22.9647856 13.2990083,22.9647856 C13.1275343,22.9647856 12.9531857,22.9795901 12.7824304,22.9795901 L12.7824304,22.8654658 L12.8351806,22.8654658 C13.0973503,22.8654658 13.1775536,22.6869489 13.1775536,22.3841026 L13.1775536,20.7842059 C13.1775536,20.571768 13.00263,20.4429828 12.8318747,20.4429828 L12.7824304,20.4429828 L12.7824304,20.3290022 C12.9261638,20.3290022 13.0753591,20.3440942 13.21938,20.3440942 C13.3322107,20.3440942 13.4428854,20.3290022 13.5570098,20.3290022 L15.2468835,22.2311702" id="Fill-25" fill="#1A1918"></path>
                                <path d="M15.4666519,23.0526067 L15.3107012,23.0472886 L13.3833798,20.8997676 L13.3833798,22.4213295 C13.3878356,22.7520601 13.4378548,22.8454869 13.7241717,22.8490802 L13.8046625,22.8490802 L13.8046625,22.995832 L13.7881331,22.995832 C13.6239896,22.995832 13.4609959,22.9800213 13.2982896,22.9800213 C13.1288279,22.9800213 12.9533294,22.995832 12.7822867,22.995832 L12.7653261,22.995832 L12.7653261,22.8490802 L12.8351806,22.8490802 C13.0859954,22.8480741 13.1578621,22.686374 13.1603056,22.3830965 L13.1603056,20.7842059 C13.1598744,20.5818293 12.9942935,20.4595122 12.8318747,20.4595122 L12.7653261,20.4595122 L12.7653261,20.3124729 L12.7822867,20.3124729 C12.9273137,20.3124729 13.075934,20.3272774 13.2192363,20.3272774 C13.3307734,20.3272774 13.4407294,20.3124729 13.5680773,20.3173598 L15.2373971,22.1968179 L15.2373971,20.8001604 C15.236391,20.4986077 15.0341581,20.461237 14.9237708,20.4595122 L14.8235886,20.4595122 L14.8235886,20.3124729 L14.840118,20.3124729 C15.0194973,20.3124729 15.1945646,20.3272774 15.3720753,20.3272774 C15.5267325,20.3272774 15.6822521,20.3124729 15.8387777,20.3124729 L15.8555946,20.3124729 L15.8555946,20.4595122 L15.7822905,20.4595122 C15.6256211,20.4632492 15.4642085,20.4773351 15.4604714,20.9252084 L15.4604714,22.6528841 C15.4604714,22.7858375 15.4637773,22.9174973 15.4831813,23.0339214 L15.4850498,23.0526067 L15.4666519,23.0526067 L15.4666519,23.0526067 Z M15.3229185,23.019548 L15.4473917,23.019548 C15.4307186,22.9059986 15.4274127,22.7792257 15.4274127,22.6528841 L15.4274127,20.9252084 C15.4277002,20.4694298 15.619728,20.4271721 15.7822905,20.426166 L15.8222484,20.426166 L15.8222484,20.3453878 C15.6727656,20.3465377 15.522708,20.3603361 15.3720753,20.3603361 C15.197583,20.3603361 15.0284087,20.3465377 14.8566473,20.3453878 L14.8566473,20.426166 L14.9237708,20.426166 C15.0407698,20.4271721 15.2707433,20.4783412 15.2707433,20.8001604 L15.2652814,22.235626 L15.2583822,22.2429564 L15.2464523,22.2554612 L13.5570098,20.3453878 C13.4440353,20.3453878 13.3339355,20.3603361 13.2192363,20.3603361 C13.0783775,20.3603361 12.9365126,20.3465377 12.7985285,20.3453878 L12.7985285,20.426166 L12.8318747,20.426166 C13.0105353,20.4271721 13.1932205,20.5618504 13.1932205,20.7842059 L13.1932205,22.3830965 C13.1932205,22.6878113 13.1074117,22.8818514 12.8351806,22.8828575 L12.7985285,22.8825701 L12.7985285,22.9632045 C12.9625284,22.9620546 13.1317026,22.9481125 13.2982896,22.9481125 C13.4575463,22.9481125 13.6153655,22.9620546 13.7723224,22.9632045 L13.7723224,22.8828575 L13.7241717,22.8828575 C13.42535,22.8825701 13.3508961,22.7520601 13.3500337,22.4213295 L13.3500337,20.8146774 L15.3229185,23.019548 L15.3229185,23.019548 Z M15.2464523,22.2311702 L15.2588134,22.2202465 L15.2464523,22.2311702 L15.2464523,22.2311702 Z M15.2373971,22.2236961 L15.2373971,22.22269 L15.2346662,22.2198153 L15.2373971,22.2236961 L15.2373971,22.2236961 Z" id="Fill-26" fill="#1A1918"></path>
                                <path d="M16.4499322,22.436709 C16.4116991,22.5653504 16.3658482,22.6651014 16.3658482,22.7325124 C16.3658482,22.8467805 16.5258235,22.8656095 16.6507278,22.8656095 L16.6931292,22.8656095 L16.6931292,22.9795901 C16.540628,22.9713973 16.3856834,22.9649293 16.2328948,22.9649293 C16.0962043,22.9649293 15.9602325,22.9713973 15.8231108,22.9795901 L15.8231108,22.8656095 L15.8462519,22.8656095 C15.9940098,22.8656095 16.1197766,22.7780759 16.1761201,22.6185318 L16.7836812,20.8761953 C16.8332692,20.7353366 16.9016863,20.5456085 16.9248274,20.4047497 C17.0455635,20.3632108 17.1980646,20.2877507 17.2699314,20.2416123 C17.2817175,20.2377315 17.2887604,20.2338507 17.3002591,20.2338507 C17.3117578,20.2338507 17.3188007,20.2338507 17.3271373,20.2457806 C17.3383485,20.2758209 17.3494159,20.3100294 17.3612021,20.3403572 L18.0601777,22.3266092 C18.1057412,22.4591314 18.1508735,22.599559 18.1994553,22.7141145 C18.2457375,22.820621 18.3255096,22.8656095 18.4512763,22.8656095 L18.4739862,22.8656095 L18.4739862,22.9795901 C18.3029434,22.9713973 18.1316132,22.9649293 17.9502216,22.9649293 C17.7640868,22.9649293 17.5736401,22.9713973 17.3800311,22.9795901 L17.3800311,22.8656095 L17.4218576,22.8656095 C17.5086726,22.8656095 17.6577241,22.8505175 17.6577241,22.7555097 C17.6577241,22.7064966 17.6233718,22.603871 17.5809705,22.4818413 L17.4330688,22.0415859 L16.5712432,22.0415859 L16.4499322,22.436709 L16.4499322,22.436709 Z M17.004312,20.7544531 L16.9964067,20.7544531 L16.6435411,21.8291479 L17.3530093,21.8291479 L17.004312,20.7544531 L17.004312,20.7544531 Z" id="Fill-27" fill="#1A1918"></path>
                                <path d="M18.4728363,22.995832 C18.3022247,22.9885016 18.1310382,22.9800213 17.9502216,22.9800213 C17.7640868,22.9800213 17.5746462,22.9885016 17.3808935,22.995832 L17.3633581,22.9966944 L17.3633581,22.8483615 L17.4218576,22.8483615 C17.5098224,22.8483615 17.6403324,22.82867 17.6406198,22.7555097 C17.6414822,22.712246 17.6074174,22.608183 17.565591,22.4874469 L17.4209952,22.0578277 L16.5834606,22.0578277 L16.4653117,22.441596 C16.4270786,22.5706686 16.3809402,22.6709945 16.3816588,22.7327999 C16.3829524,22.8255079 16.5246736,22.8483615 16.6507278,22.8483615 L16.7090836,22.8483615 L16.7090836,22.9966944 L16.6918356,22.995832 C16.5400531,22.9885016 16.3851085,22.9800213 16.2331822,22.9800213 C16.0976416,22.9800213 15.9603762,22.9885016 15.8244044,22.995832 L15.8067252,22.9966944 L15.8067252,22.8483615 L15.8461081,22.8483615 C15.9872544,22.8480741 16.1051158,22.7674396 16.1600219,22.6132137 L16.768158,20.8703023 C16.8171711,20.729731 16.8861631,20.5408653 16.9189344,20.3890828 C17.0380894,20.3486937 17.190878,20.2720838 17.2637508,20.2262328 C17.2743871,20.2224958 17.2848796,20.2176088 17.3001154,20.2176088 C17.309458,20.2170339 17.3298682,20.2194774 17.3422293,20.2393126 C17.3530093,20.2705027 17.3650829,20.3045675 17.3765815,20.3351828 L18.0757009,22.3211474 C18.120402,22.4541008 18.1658217,22.5943846 18.2155535,22.7069278 C18.2595359,22.8081162 18.3292466,22.8480741 18.4512763,22.8483615 L18.4896531,22.8483615 L18.4896531,22.9966944 L18.4728363,22.995832 L18.4728363,22.995832 Z M17.3965605,22.9620546 C17.5844201,22.9554429 17.76883,22.9481125 17.9502216,22.9481125 C18.126295,22.9481125 18.2918759,22.9554429 18.4568819,22.9620546 L18.4568819,22.8825701 L18.4512763,22.8825701 C18.3210538,22.8834325 18.2315079,22.8322634 18.1849383,22.720295 C18.135494,22.6055958 18.0893556,22.4645933 18.0445107,22.3316399 L17.3453914,20.3455316 C17.3338927,20.3152038 17.3231127,20.2812827 17.3131951,20.2542608 C17.309458,20.2505238 17.3103204,20.2505238 17.307302,20.2505238 L17.3001154,20.2505238 C17.2924975,20.2505238 17.287898,20.2528235 17.2781242,20.255267 C17.2051076,20.302699 17.0528939,20.3775841 16.9399194,20.4071932 C16.9167784,20.5510703 16.8483612,20.7407985 16.7990607,20.8815135 L16.1914995,22.6239937 C16.1337187,22.7889996 16.0001904,22.8828575 15.8461081,22.8825701 L15.8397839,22.8825701 L15.8397839,22.9620546 C15.9700063,22.9554429 16.1013787,22.9481125 16.2331822,22.9481125 C16.3800778,22.9481125 16.529848,22.9554429 16.6751625,22.9620546 L16.6751625,22.8825701 L16.6507278,22.8825701 C16.5266859,22.8808453 16.3539183,22.8673343 16.3496063,22.7327999 C16.3498938,22.6574835 16.3964634,22.5603198 16.4336903,22.4319658 L16.4497885,22.436709 L16.4336903,22.4315346 L16.5587384,22.0257752 L17.4441363,22.0257752 L17.5962062,22.4766669 C17.638895,22.5988403 17.673391,22.7000286 17.673391,22.7555097 C17.6677854,22.8717901 17.5079539,22.8804141 17.4218576,22.8825701 L17.3965605,22.8825701 L17.3965605,22.9620546 L17.3965605,22.9620546 Z M16.6204001,21.8455335 L16.9839019,20.7376363 L17.004312,20.7376363 L17.004312,20.7544531 L17.0002875,20.755603 L17.004312,20.7544531 L17.004312,20.7376363 L17.0156669,20.7376363 L17.3765815,21.8455335 L16.6204001,21.8455335 L16.6204001,21.8455335 Z M16.6658198,21.8123311 L17.3305869,21.8123311 L17.0001437,20.7948422 L16.6658198,21.8123311 L16.6658198,21.8123311 Z M16.9877827,20.7593401 L16.9965504,20.7566091 L16.9877827,20.7593401 L16.9877827,20.7593401 Z" id="Fill-28" fill="#1A1918"></path>
                                <path d="M18.6408607,20.5188741 C18.3561248,20.5188741 18.3446261,20.5875786 18.2874202,20.8644092 L18.1732959,20.8644092 C18.1882441,20.7580465 18.2076482,20.6518275 18.2194343,20.5417277 C18.2342388,20.4349337 18.2415692,20.3290022 18.2415692,20.2191899 L18.3334149,20.2191899 C18.3631677,20.3331705 18.4583192,20.3290022 18.5608012,20.3290022 L20.5204625,20.3290022 C20.6225133,20.3290022 20.7173773,20.3252652 20.7248514,20.2112846 L20.815691,20.2268078 C20.8016051,20.3290022 20.7865131,20.4316279 20.7745832,20.5343973 C20.7662467,20.6368792 20.7662467,20.7390737 20.7662467,20.8415556 L20.652841,20.8838132 C20.6460855,20.7435294 20.626969,20.5188741 20.3719859,20.5188741 L19.7493328,20.5188741 L19.7493328,22.5390472 C19.7493328,22.8319759 19.8824299,22.8654658 20.0643964,22.8654658 L20.1369818,22.8654658 L20.1369818,22.9795901 C19.9886489,22.9795901 19.723317,22.9649293 19.5177782,22.9649293 C19.290392,22.9649293 19.0239102,22.9795901 18.8758648,22.9795901 L18.8758648,22.8654658 L18.9481627,22.8654658 C19.1574386,22.8654658 19.2633701,22.8467805 19.2633701,22.5469525 L19.2633701,20.5188741 L18.6408607,20.5188741" id="Fill-29" fill="#1A1918"></path>
                                <path d="M20.1369818,22.995832 C19.9877865,22.995832 19.7215922,22.98074 19.5174908,22.98074 C19.2906794,22.98074 19.0247726,22.995832 18.8760085,22.995832 L18.8591917,22.995832 L18.8591917,22.8490802 L18.9481627,22.8490802 C19.1575823,22.8441932 19.2415226,22.8414623 19.2465533,22.5469525 L19.2462658,20.5351159 L18.6408607,20.5351159 L18.6408607,20.5019135 L19.2797557,20.5019135 L19.2797557,22.5469525 C19.2797557,22.8518111 19.1567199,22.8818514 18.9481627,22.8825701 L18.8922504,22.8825701 L18.8922504,22.9633483 C19.0423081,22.9620546 19.2974349,22.9481125 19.5174908,22.9481125 C19.7159866,22.9481125 19.9701073,22.9620546 20.1200212,22.9633483 L20.1200212,22.8825701 L20.0642527,22.8825701 C19.88128,22.8818514 19.7333784,22.837869 19.7330909,22.5390472 L19.7330909,20.5019135 L20.3719859,20.5019135 C20.6271127,20.5029197 20.6603151,20.7193822 20.6676455,20.8606721 L20.7501485,20.8303444 C20.7501485,20.7311683 20.7507235,20.6318485 20.7584851,20.5325287 C20.7686901,20.4346463 20.7830635,20.3374825 20.7968619,20.2406062 L20.7395123,20.2305448 C20.7221205,20.3410758 20.6148954,20.3472564 20.5204625,20.3455316 L18.5413971,20.3455316 C18.4518512,20.3465377 18.3549749,20.3413633 18.3204789,20.2351443 L18.258386,20.2351443 C18.2575236,20.3402134 18.2500495,20.4422642 18.2351012,20.5434525 C18.2247524,20.6482341 18.2064983,20.7487038 18.1919812,20.8485985 L18.2736218,20.8485985 C18.3234973,20.5836978 18.3564122,20.4977453 18.6408607,20.5019135 L18.6408607,20.5351159 C18.3592869,20.5400029 18.3654674,20.5877224 18.3035183,20.86829 L18.3007874,20.881226 L18.1541793,20.881226 L18.1564791,20.8623969 C18.1724335,20.755603 18.1911188,20.6489528 18.2021863,20.5395717 C18.2177095,20.4333527 18.2247524,20.3279961 18.2247524,20.2191899 L18.2247524,20.2023731 L18.3453448,20.2023731 L18.3485069,20.214303 C18.3750976,20.3100294 18.4442334,20.3107481 18.5413971,20.3124729 L20.5204625,20.3124729 C20.6255317,20.3107481 20.7021416,20.3093107 20.708897,20.2102784 L20.709472,20.1920243 L20.7271512,20.1954739 L20.8349512,20.2124344 L20.832364,20.2292512 C20.8166971,20.3311582 20.8023238,20.4333527 20.7908251,20.5351159 C20.7830635,20.6368792 20.7830635,20.7390737 20.7830635,20.8415556 L20.7830635,20.8530543 L20.771996,20.85751 L20.6376053,20.9066668 L20.6370303,20.8846756 C20.6271127,20.7418046 20.6120207,20.5351159 20.3719859,20.5351159 L19.7657184,20.5351159 L19.7657184,22.5390472 C19.7695992,22.8253642 19.8832923,22.8454869 20.0642527,22.8490802 L20.1527925,22.8490802 L20.1527925,22.995832 L20.1369818,22.995832" id="Fill-30" fill="#1A1918"></path>
                                <path d="M20.9562622,22.8654658 L21.0094436,22.8654658 C21.1462778,22.8654658 21.2900112,22.8467805 21.2900112,22.649147 L21.2900112,20.6598765 C21.2900112,20.4619556 21.1462778,20.4431266 21.0094436,20.4431266 L20.9562622,20.4431266 L20.9562622,20.3290022 C21.1044514,20.3290022 21.3318377,20.3440942 21.517685,20.3440942 C21.707988,20.3440942 21.9359492,20.3290022 22.1147536,20.3290022 L22.1147536,20.4431266 L22.0614285,20.4431266 C21.9241631,20.4431266 21.7798547,20.4619556 21.7798547,20.6598765 L21.7798547,22.649147 C21.7798547,22.8467805 21.9241631,22.8654658 22.0614285,22.8654658 L22.1147536,22.8654658 L22.1147536,22.9795901 C21.9323559,22.9795901 21.7042509,22.9649293 21.5146666,22.9649293 C21.3282443,22.9649293 21.1044514,22.9795901 20.9562622,22.9795901 L20.9562622,22.8654658" id="Fill-31" fill="#1A1918"></path>
                                <path d="M22.1147536,22.995832 C21.931206,22.995832 21.7041072,22.9800213 21.5146666,22.9800213 C21.3288193,22.9800213 21.1045951,22.995832 20.9562622,22.995832 L20.9400204,22.995832 L20.9400204,22.8490802 L21.0095873,22.8490802 C21.1464216,22.8467805 21.2726195,22.8347068 21.2734819,22.649147 L21.2734819,20.6598765 C21.2726195,20.4743167 21.1464216,20.4619556 21.0095873,20.4595122 L20.9400204,20.4595122 L20.9400204,20.3124729 L20.9562622,20.3124729 C21.1045951,20.3124729 21.3329875,20.3272774 21.517685,20.3272774 C21.7069819,20.3272774 21.9347993,20.3124729 22.1147536,20.3124729 L22.1305642,20.3124729 L22.1305642,20.4595122 L22.0615722,20.4595122 C21.922582,20.4619556 21.7976777,20.4743167 21.7963841,20.6598765 L21.7963841,22.649147 C21.7976777,22.8347068 21.922582,22.8467805 22.0615722,22.8490802 L22.1305642,22.8490802 L22.1305642,22.995832 L22.1147536,22.995832 L22.1147536,22.995832 Z M22.0975056,22.9630608 L22.0975056,22.8825701 L22.0615722,22.8825701 C21.9253129,22.8825701 21.7641878,22.8587103 21.7641878,22.649147 L21.7641878,20.6598765 C21.7641878,20.449882 21.9253129,20.4264535 22.0615722,20.426166 L22.0975056,20.426166 L22.0975056,20.3453878 C21.9224383,20.3465377 21.7025261,20.3603361 21.517685,20.3603361 C21.3374433,20.3603361 21.1201183,20.3465377 20.9727916,20.3453878 L20.9727916,20.426166 L21.0095873,20.426166 C21.1444093,20.4264535 21.3062531,20.449882 21.3066843,20.6598765 L21.3066843,22.649147 C21.3062531,22.8587103 21.1444093,22.8825701 21.0095873,22.8825701 L20.9727916,22.8825701 L20.9727916,22.9630608 C21.1191122,22.961336 21.3338499,22.9481125 21.5146666,22.9481125 C21.6987891,22.9481125 21.9184137,22.9620546 22.0975056,22.9630608 L22.0975056,22.9630608 Z" id="Fill-32" fill="#1A1918"></path>
                                <path d="M23.6288414,20.2720838 C24.438348,20.2720838 25.0835673,20.7738571 25.0835673,21.5826451 C25.0835673,22.456113 24.4568896,23.0366523 23.6483891,23.0366523 C22.8430508,23.0366523 22.2281592,22.4897466 22.2281592,21.6731971 C22.2281592,20.8838132 22.8393137,20.2720838 23.6288414,20.2720838 M23.686191,22.8694903 C24.4231122,22.8694903 24.5516099,22.2196716 24.5516099,21.6660104 C24.5516099,21.1110557 24.2523569,20.4392458 23.6216547,20.4392458 C22.9573188,20.4392458 22.7596854,21.0317149 22.7596854,21.5401 C22.7596854,22.2196716 23.0712994,22.8694903 23.686191,22.8694903" id="Fill-33" fill="#1A1918"></path>
                                <path d="M22.2111987,21.6731971 C22.2127798,20.8746143 22.8309772,20.256848 23.6286976,20.2555544 L23.6286976,20.2887569 C22.8480815,20.2887569 22.2442574,20.8921497 22.243395,21.6731971 C22.244976,22.4805477 22.8509561,23.0192605 23.6485328,23.019548 C24.4488405,23.0192605 25.066463,22.4470578 25.0674691,21.5820701 C25.0667504,20.7833435 24.4317362,20.2894755 23.6286976,20.2887569 L23.6286976,20.2555544 C24.4439536,20.2564168 25.0983718,20.7630771 25.0998091,21.5820701 C25.0989467,22.4645933 24.4647949,23.0511694 23.6485328,23.0526067 C22.8362953,23.0511694 22.2127798,22.4988019 22.2111987,21.6731971 M22.7430123,21.5401 C22.7441622,21.0291277 22.9435204,20.4222852 23.621511,20.4222852 C24.2662991,20.4237225 24.5669894,21.1080373 24.568283,21.6660104 C24.5669894,22.2196716 24.4367669,22.8850135 23.6863347,22.8850135 L23.6863347,22.8528173 C24.4083077,22.8522423 24.5337869,22.2196716 24.5349368,21.6660104 C24.5349368,21.1159427 24.2387022,20.4567812 23.621511,20.4557751 C22.9701111,20.4564938 22.7776521,21.0343021 22.7759273,21.5401 C22.7762147,22.2165094 23.0849541,22.8518111 23.6863347,22.8528173 L23.6863347,22.8850135 C23.0560637,22.8844386 22.7441622,22.2236961 22.7430123,21.5401" id="Fill-34" fill="#1A1918"></path>
                                <path d="M27.6423095,22.2311702 L27.6502148,22.2236961 L27.6502148,20.8001604 C27.6502148,20.4885463 27.4330337,20.4429828 27.3191968,20.4429828 L27.2365501,20.4429828 L27.2365501,20.3290022 C27.414492,20.3290022 27.5895593,20.3440942 27.7675013,20.3440942 C27.9235958,20.3440942 28.0792591,20.3290022 28.2350661,20.3290022 L28.2350661,20.4429828 L28.1780039,20.4429828 C28.0188911,20.4429828 27.8396555,20.4733106 27.8396555,20.9252084 L27.8396555,22.6528841 C27.8396555,22.7859812 27.84368,22.9187909 27.8629403,23.0366523 L27.7184882,23.0366523 L25.7625639,20.8566476 L25.7625639,22.4214733 C25.7625639,22.7520601 25.8273877,22.8654658 26.1191665,22.8654658 L26.1842777,22.8654658 L26.1842777,22.9795901 C26.0208529,22.9795901 25.8578592,22.9647856 25.694578,22.9647856 C25.5235352,22.9647856 25.3487554,22.9795901 25.1778564,22.9795901 L25.1778564,22.8654658 L25.2311815,22.8654658 C25.4936387,22.8654658 25.5728358,22.6869489 25.5728358,22.3841026 L25.5728358,20.7842059 C25.5728358,20.571768 25.3987746,20.4429828 25.2270132,20.4429828 L25.1778564,20.4429828 L25.1778564,20.3290022 C25.3221647,20.3290022 25.4700664,20.3440942 25.6146622,20.3440942 C25.7283554,20.3440942 25.8378802,20.3290022 25.952292,20.3290022 L27.6423095,22.2311702" id="Fill-35" fill="#1A1918"></path>
                                <path d="M27.863084,23.0526067 L27.7059834,23.0472886 L25.7789495,20.8997676 L25.7789495,22.4214733 C25.7834052,22.7520601 25.8335682,22.8450557 26.1187353,22.8483615 L26.2005196,22.8483615 L26.2005196,22.995832 L26.1844215,22.995832 C26.0199905,22.995832 25.8569968,22.9805963 25.694578,22.9805963 C25.5243976,22.9805963 25.3496178,22.995832 25.1774252,22.995832 L25.161902,22.995832 L25.161902,22.8483615 L25.2310377,22.8483615 C25.4812776,22.8476429 25.5534318,22.686374 25.5564502,22.3839589 L25.5564502,20.7842059 C25.5563065,20.5818293 25.3902944,20.4595122 25.2271569,20.4595122 L25.161902,20.4595122 L25.161902,20.3124729 L25.1774252,20.3124729 C25.3230271,20.3124729 25.4710725,20.3272774 25.6145185,20.3272774 C25.7272055,20.3272774 25.8362991,20.3124729 25.9650843,20.3183659 L27.6335418,22.1968179 L27.6335418,20.8001604 C27.6322482,20.4986077 27.4300153,20.4619556 27.3191968,20.4595122 L27.2191583,20.4595122 L27.2191583,20.3124729 L27.2365501,20.3124729 C27.4149232,20.3124729 27.5901343,20.3272774 27.7670701,20.3272774 C27.9224459,20.3272774 28.0773906,20.3124729 28.2352098,20.3124729 L28.2511642,20.3124729 L28.2511642,20.4595122 L28.1778602,20.4595122 C28.0213345,20.4635367 27.8597782,20.47791 27.856616,20.9252084 L27.856616,22.6528841 C27.856616,22.7858375 27.8596344,22.9183597 27.8780323,23.0339214 L27.8813382,23.0526067 L27.863084,23.0526067 L27.863084,23.0526067 Z M27.7184882,23.019548 L27.8429614,23.019548 C27.8268632,22.90528 27.8231261,22.7792257 27.8231261,22.6528841 L27.8231261,20.9252084 C27.8231261,20.4687111 28.0148665,20.4271721 28.1778602,20.426166 L28.218968,20.426166 L28.218968,20.3453878 C28.0681916,20.3465377 27.9188526,20.3603361 27.7670701,20.3603361 C27.5941588,20.3603361 27.4244096,20.3465377 27.2525045,20.3453878 L27.2525045,20.426166 L27.3191968,20.426166 C27.4364833,20.4271721 27.6657381,20.4790599 27.6657381,20.8001604 L27.6617135,22.235626 L27.6543831,22.2429564 L27.6423095,22.2554612 L25.9524357,20.3453878 C25.8400362,20.3453878 25.7295052,20.3603361 25.6145185,20.3603361 C25.4745221,20.3603361 25.3319386,20.3465377 25.1938108,20.3453878 L25.1938108,20.426166 L25.2271569,20.426166 C25.4056738,20.4271721 25.5890777,20.5618504 25.5890777,20.7842059 L25.5890777,22.3839589 C25.5890777,22.6878113 25.504275,22.8818514 25.2310377,22.8828575 L25.1938108,22.8825701 L25.1938108,22.9632045 C25.358673,22.9620546 25.5277035,22.9481125 25.694578,22.9481125 C25.8529722,22.9481125 26.0103603,22.9620546 26.1677484,22.9632045 L26.1677484,22.8828575 L26.1187353,22.8828575 C25.8207759,22.8825701 25.7460346,22.7520601 25.7460346,22.4214733 L25.7460346,20.8141025 L27.7184882,23.019548 L27.7184882,23.019548 Z M27.6423095,22.2311702 L27.6543831,22.2202465 L27.6423095,22.2311702 L27.6423095,22.2311702 Z M27.6335418,22.2236961 L27.6335418,22.22269 L27.6305234,22.2198153 L27.6335418,22.2236961 L27.6335418,22.2236961 Z" id="Fill-36" fill="#1A1918"></path>
                                <path d="M28.8450707,22.436709 C28.8078438,22.5653504 28.7619928,22.6651014 28.7619928,22.7325124 C28.7619928,22.8467805 28.9219681,22.8656095 29.0464412,22.8656095 L29.0888426,22.8656095 L29.0888426,22.9795901 C28.9367726,22.9713973 28.7809656,22.9649293 28.6288957,22.9649293 C28.4922052,22.9649293 28.3556584,22.9713973 28.2195429,22.9795901 L28.2195429,22.8656095 L28.2411029,22.8656095 C28.3900107,22.8656095 28.5157775,22.7780759 28.5712586,22.6185318 L29.1801133,20.8761953 C29.2291264,20.7353366 29.297831,20.5456085 29.3196785,20.4047497 C29.4417081,20.3632108 29.5932031,20.2877507 29.6663635,20.2416123 C29.6769997,20.2377315 29.6846176,20.2338507 29.6964037,20.2338507 C29.7074712,20.2338507 29.7146579,20.2338507 29.7224195,20.2457806 C29.7339182,20.2758209 29.7452731,20.3100294 29.7567718,20.3403572 L30.4554599,22.3266092 C30.5007359,22.4591314 30.5465869,22.599559 30.5961749,22.7141145 C30.6417384,22.820621 30.7213667,22.8656095 30.8465585,22.8656095 L30.8699871,22.8656095 L30.8699871,22.9795901 C30.6988006,22.9713973 30.5277578,22.9649293 30.3453601,22.9649293 C30.1596565,22.9649293 29.9694972,22.9713973 29.7756008,22.9795901 L29.7756008,22.8656095 L29.8177147,22.8656095 C29.9045297,22.8656095 30.0534375,22.8505175 30.0534375,22.7555097 C30.0534375,22.7064966 30.0193727,22.603871 29.9769714,22.4818413 L29.8289259,22.0415859 L28.9671004,22.0415859 L28.8450707,22.436709 L28.8450707,22.436709 Z M29.4003129,20.7544531 L29.392695,20.7544531 L29.0386796,21.8291479 L29.7498726,21.8291479 L29.4003129,20.7544531 L29.4003129,20.7544531 Z" id="Fill-37" fill="#1A1918"></path>
                                <path d="M30.8682623,22.995832 C30.6970758,22.9890765 30.5266079,22.9805963 30.3455038,22.9805963 C30.1602315,22.9805963 29.9699284,22.9890765 29.7764632,22.995832 L29.7596464,22.9966944 L29.7596464,22.8490802 L29.8174273,22.8490802 C29.9056796,22.8490802 30.036477,22.82867 30.0366207,22.7555097 C30.0376269,22.712246 30.0032746,22.6086142 29.9605858,22.4874469 L29.8165649,22.0578277 L28.9783116,22.0578277 L28.8610251,22.441596 C28.822792,22.5716747 28.7779472,22.6709945 28.7783784,22.7325124 C28.7783784,22.8255079 28.9208182,22.8490802 29.0462975,22.8490802 L29.1043658,22.8490802 L29.1043658,22.9966944 L29.0872615,22.995832 C28.9356228,22.9890765 28.7801032,22.9805963 28.6288957,22.9805963 C28.4927801,22.9805963 28.3565208,22.9890765 28.2195429,22.995832 L28.2030136,22.9966944 L28.2030136,22.8490802 L28.2411029,22.8490802 C28.3826803,22.8483615 28.5011167,22.7672959 28.5567415,22.6132137 L29.1640152,20.8703023 C29.2127408,20.729731 29.2813016,20.5408653 29.3146478,20.3896577 C29.4339465,20.3482625 29.5864477,20.2720838 29.6603266,20.2262328 C29.6701005,20.2224958 29.6807368,20.2178963 29.69626,20.2178963 C29.7060339,20.2170339 29.7260128,20.2194774 29.7376552,20.240175 C29.7491539,20.2700715 29.7603651,20.3045675 29.7727262,20.3351828 L30.4709831,22.3211474 C30.5166903,22.4541008 30.5619664,22.5943846 30.6112669,22.7076465 C30.655968,22.8081162 30.7246726,22.8480741 30.8461273,22.8490802 L30.8853665,22.8490802 L30.8853665,22.9966944 L30.8682623,22.995832 L30.8682623,22.995832 Z M29.7918427,22.9623421 C29.9797023,22.9554429 30.1643997,22.9481125 30.3455038,22.9481125 C30.5220085,22.9481125 30.6871582,22.9554429 30.8528828,22.9620546 L30.8524516,22.8825701 L30.8461273,22.8825701 C30.7174859,22.8828575 30.62794,22.8322634 30.580508,22.720295 C30.5304887,22.6055958 30.4853565,22.4645933 30.439793,22.3320711 L29.7411048,20.3455316 C29.7298936,20.3152038 29.71782,20.2812827 29.7089085,20.2549795 C29.7057464,20.2505238 29.7060339,20.2505238 29.7037341,20.2505238 L29.69626,20.2505238 C29.6880672,20.2505238 29.6838989,20.253111 29.6748437,20.2556982 C29.6005335,20.3021241 29.4486073,20.3783028 29.3364953,20.4071932 C29.312923,20.5510703 29.2439309,20.740511 29.1950616,20.8815135 L28.5869255,22.6239937 C28.5291447,22.7889996 28.3964787,22.8828575 28.2411029,22.8825701 L28.2354973,22.8825701 L28.2354973,22.9620546 C28.3662947,22.9554429 28.4968047,22.9481125 28.6288957,22.9481125 C28.7759349,22.9481125 28.9261364,22.9554429 29.0720258,22.9620546 L29.0720258,22.8825701 L29.0462975,22.8825701 C28.9228305,22.8808453 28.7497755,22.8677655 28.7448885,22.7325124 C28.7458947,22.6574835 28.792608,22.5606072 28.829835,22.4319658 L28.8450707,22.436709 L28.829835,22.4315346 L28.9547393,22.0257752 L29.8398497,22.0257752 L29.9923508,22.4766669 C30.0341773,22.5988403 30.068817,22.7000286 30.068817,22.7555097 C30.0633551,22.8717901 29.9036673,22.8804141 29.8174273,22.8825701 L29.7918427,22.8825701 L29.7918427,22.9623421 L29.7918427,22.9623421 Z M29.0159698,21.8453897 L29.3806214,20.7376363 L29.4003129,20.7376363 L29.4003129,20.7544531 L29.3960009,20.755603 L29.4003129,20.7544531 L29.4003129,20.7376363 L29.4118116,20.7376363 L29.7708576,21.8453897 L29.0159698,21.8453897 L29.0159698,21.8453897 Z M29.0618207,21.8123311 L29.7261566,21.8123311 L29.3958572,20.7954172 L29.0618207,21.8123311 L29.0618207,21.8123311 Z M29.3845022,20.7593401 L29.3919764,20.7566091 L29.3845022,20.7593401 L29.3845022,20.7593401 Z" id="Fill-38" fill="#1A1918"></path>
                                <path d="M31.8263892,22.6071768 C31.8263892,22.7598217 31.9318895,22.8048103 32.0537755,22.820621 C32.2091513,22.8319759 32.3801941,22.8319759 32.5554051,22.8125719 C32.7146617,22.7934554 32.8513522,22.7029033 32.9194818,22.6071768 C32.9798499,22.5238115 33.0140584,22.4174487 33.0373432,22.3340834 L33.1471556,22.3340834 C33.1053291,22.5505459 33.0522915,22.7634151 33.006728,22.9795901 C32.6732665,22.9795901 32.3380802,22.9649293 32.0044749,22.9649293 C31.6700073,22.9649293 31.3361145,22.9795901 31.0020781,22.9795901 L31.0020781,22.8654658 L31.0546845,22.8654658 C31.1916625,22.8654658 31.3402828,22.8467805 31.3402828,22.6113451 L31.3402828,20.6598765 C31.3402828,20.4619556 31.1916625,20.4429828 31.0546845,20.4429828 L31.0020781,20.4429828 L31.0020781,20.3290022 C31.2030174,20.3290022 31.4007946,20.3440942 31.6017339,20.3440942 C31.795774,20.3440942 31.9852146,20.3290022 32.1793985,20.3290022 L32.1793985,20.4429828 L32.0839595,20.4429828 C31.9396511,20.4429828 31.8263892,20.4470074 31.8263892,20.6482341 L31.8263892,22.6071768" id="Fill-39" fill="#1A1918"></path>
                                <path d="M33.0068717,22.995832 C32.6719729,22.995832 32.3375052,22.9805963 32.0044749,22.9805963 C31.6704385,22.9805963 31.3362583,22.995832 31.0013594,22.995832 L30.985405,22.995832 L30.985405,22.8490802 L31.0546845,22.8490802 C31.1919499,22.8457743 31.3223161,22.8361442 31.3238972,22.6113451 L31.3238972,20.6591579 C31.3223161,20.4743167 31.1925249,20.4619556 31.0546845,20.4595122 L30.985405,20.4595122 L30.985405,20.3124729 L31.0013594,20.3124729 C31.2035923,20.3124729 31.4012258,20.3272774 31.6014464,20.3272774 C31.7947679,20.3272774 31.983921,20.3124729 32.1793985,20.3124729 L32.1946342,20.3124729 L32.1946342,20.4595122 L32.0839595,20.4595122 C31.9366327,20.4632492 31.8452183,20.4566375 31.8419124,20.6482341 L31.8419124,22.6071768 C31.8429186,22.7491855 31.9359141,22.7871311 32.0546379,22.8040916 C32.1214739,22.8086911 32.1921908,22.8111346 32.2652073,22.8111346 C32.3580591,22.8111346 32.4545042,22.8068226 32.5526742,22.7964738 C32.7073313,22.7780759 32.8404285,22.6886737 32.9061146,22.5981216 C32.9647579,22.5169123 32.9978165,22.4128493 33.0208139,22.3302026 L33.023976,22.3176978 L33.1671345,22.3176978 L33.1638286,22.3376767 C33.1208523,22.5547142 33.0685334,22.7665772 33.0225387,22.9830397 L33.0195203,22.995832 L33.0068717,22.995832 L33.0068717,22.995832 Z M32.9929296,22.9630608 C33.036912,22.7568033 33.0865001,22.5551454 33.1276078,22.3503252 L33.0492731,22.3503252 C33.0259883,22.4329719 32.9920672,22.5348789 32.9325616,22.6175257 C32.8615573,22.7158393 32.720986,22.8086911 32.5562675,22.8291012 C32.4569477,22.8391626 32.3582028,22.844337 32.2652073,22.844337 C32.1916158,22.844337 32.1206115,22.8410311 32.0514757,22.8361442 C31.9280087,22.8226332 31.8085663,22.7695956 31.80871,22.6071768 L31.80871,20.6482341 C31.80871,20.4370898 31.9422383,20.426166 32.0839595,20.426166 L32.1621505,20.426166 L32.1621505,20.3453878 C31.9751533,20.3465377 31.7904559,20.3607673 31.6014464,20.3607673 C31.4052503,20.3607673 31.2127913,20.3465377 31.0184637,20.3453878 L31.0184637,20.426166 L31.0546845,20.426166 C31.1900814,20.426166 31.355806,20.449882 31.355806,20.6591579 L31.355806,22.6113451 C31.355806,22.8571293 31.1908001,22.8825701 31.0546845,22.8825701 L31.0184637,22.8825701 L31.0184637,22.9630608 C31.3464633,22.9623421 31.6747505,22.9481125 32.0044749,22.9481125 C32.3346306,22.9481125 32.6642113,22.9623421 32.9929296,22.9630608 L32.9929296,22.9630608 Z" id="Fill-40" fill="#1A1918"></path>
                                <path d="M33.1008734,20.2213459 C33.3299845,20.2213459 33.5008835,20.3972756 33.5008835,20.6220747 C33.5008835,20.84673 33.3299845,21.0207911 33.1008734,21.0207911 C32.8723373,21.0207911 32.7011508,20.84673 32.7011508,20.6220747 C32.7011508,20.3972756 32.8723373,20.2213459 33.1008734,20.2213459 L33.1008734,20.2213459 Z M33.1008734,20.946481 C33.2802527,20.946481 33.4172306,20.7939798 33.4172306,20.6220747 C33.4172306,20.449882 33.2818338,20.296231 33.1008734,20.296231 C32.9209192,20.296231 32.784085,20.449882 32.784085,20.6220747 C32.784085,20.7939798 32.9209192,20.946481 33.1008734,20.946481 L33.1008734,20.946481 Z M32.9020901,20.8329316 L32.9020901,20.8135276 C32.9509594,20.8064846 32.9601584,20.8077782 32.9601584,20.7778817 L32.9601584,20.4815034 C32.9601584,20.4398207 32.9559901,20.4254473 32.9036712,20.4277471 L32.9036712,20.4073369 L33.1083475,20.4073369 C33.1786332,20.4073369 33.2434569,20.4409706 33.2434569,20.5136997 C33.2434569,20.5730616 33.2043615,20.6171877 33.1488804,20.634292 L33.2147103,20.7259939 C33.2453255,20.7673891 33.2802527,20.8064846 33.3026751,20.820283 L33.3026751,20.8329316 L33.2249153,20.8329316 C33.1875447,20.8329316 33.154486,20.7544531 33.0811819,20.6490965 L33.036912,20.6490965 L33.036912,20.7816187 C33.036912,20.8077782 33.046111,20.8064846 33.0952678,20.8135276 L33.0952678,20.8329316 L32.9020901,20.8329316 L32.9020901,20.8329316 Z M33.036912,20.6220747 L33.0840566,20.6220747 C33.1356569,20.6220747 33.1595166,20.5831229 33.1595166,20.5200239 C33.1595166,20.4564938 33.1227209,20.4339276 33.0814694,20.4339276 L33.036912,20.4339276 L33.036912,20.6220747 L33.036912,20.6220747 Z" id="Fill-41" fill="#1A1918"></path>
                                <path d="M9.38399755,6.92341782 C9.38399755,3.3716214 12.2632653,0.492353636 15.814918,0.492353636 C19.3667144,0.492353636 22.2459822,3.3716214 22.2459822,6.92341782 C22.2459822,10.4752142 19.3667144,13.3546257 15.814918,13.3546257 C12.2632653,13.3546257 9.38399755,10.4752142 9.38399755,6.92341782" id="Fill-42" fill="#FFFFFF"></path>
                                <path d="M19.7042005,6.79678868 C19.7016133,5.14989121 18.6721945,3.74532828 17.2216369,3.18907997 L17.2216369,10.4042099 C18.6721945,9.84724294 19.7016133,8.44397361 19.7042005,6.79678868 L19.7042005,6.79678868 Z M14.4544812,10.4027726 L14.4544812,3.18979863 C13.0052172,3.74777175 11.9773796,5.15032241 11.9734987,6.79678868 C11.9773796,8.44282375 13.0052172,9.84523067 14.4544812,10.4027726 L14.4544812,10.4027726 Z M15.8387777,0.698323619 C12.4708164,0.69961722 9.74218122,3.4288273 9.74160628,6.79678868 C9.74218122,10.1643189 12.4708164,12.8930977 15.8387777,12.8936727 C19.2067391,12.8930977 21.9359492,10.1643189 21.9368116,6.79678868 C21.9359492,3.4288273 19.2067391,0.69961722 15.8387777,0.698323619 L15.8387777,0.698323619 Z M15.8238295,13.4691813 C12.138361,13.4867167 9.10501099,10.5009425 9.10501099,6.86635565 C9.10501099,2.894139 12.138361,0.146674773 15.8238295,0.14739344 L17.5509302,0.14739344 C21.1928474,0.146674773 24.5166827,2.8928454 24.5166827,6.86635565 C24.5166827,10.4996489 21.1928474,13.4691813 17.5509302,13.4691813 L15.8238295,13.4691813 L15.8238295,13.4691813 Z" id="Fill-43" fill="#0069AA"></path>
                            </g>
                        </g>
                    </g>
                </g>
            </g>
        </g>
    </g>
</svg>