<?xml version="1.0" encoding="UTF-8" standalone="no"?>
<svg width="52px" height="36px" viewBox="0 0 52 36" version="1.1" xmlns="http://www.w3.org/2000/svg" xmlns:xlink="http://www.w3.org/1999/xlink">
    <!-- Generator: Sketch 3.8.3 (29802) - http://www.bohemiancoding.com/sketch -->
    <title>itau</title>
    <desc>Created with Sketch.</desc>
    <defs>
        <rect id="path-1" x="0" y="0" width="52" height="36" rx="3"></rect>
        <mask id="mask-2" maskContentUnits="userSpaceOnUse" maskUnits="objectBoundingBox" x="0" y="0" width="52" height="36" fill="white">
            <use xlink:href="#path-1"></use>
        </mask>
    </defs>
    <g id="Page-1" stroke="none" stroke-width="1" fill="none" fill-rule="evenodd">
        <g id="Paywall-2-produtos-V2" transform="translate(-1008.000000, -1190.000000)">
            <g id="PRODUTO" transform="translate(360.000000, 272.000000)">
                <g id="Group-20" transform="translate(202.000000, 918.000000)">
                    <g id="Group-17" transform="translate(156.000000, 0.000000)">
                        <g id="itau" transform="translate(290.000000, 0.000000)">
                            <use id="Rectangle-Copy" stroke="#DEDEDE" mask="url(#mask-2)" stroke-width="2" fill="#FFFFFF" xlink:href="#path-1"></use>
                            <g id="Group" transform="translate(26.000000, 17.500000) scale(1, -1) translate(-26.000000, -17.500000) translate(15.000000, 6.000000)">
                                <polygon id="Shape" fill="#1A5493" points="3.66844713 22.003148 18.3325247 22.003148 18.5227572 21.9992656 18.7078133 21.9837363 18.8922224 21.9604423 19.0727491 21.9287365 19.2500406 21.8873249 19.4247439 21.8381486 19.5949179 21.7805606 19.7612095 21.7145609 19.9236189 21.6414435 20.0814989 21.5605615 20.2354966 21.4712677 20.384318 21.3761504 20.5273159 21.2745626 20.6657844 21.164563 20.7997236 21.0487399 20.9258982 20.9277404 21.0481905 20.8002703 21.1627182 20.6682708 21.2727166 20.5291537 21.3743034 20.3848601 21.4687725 20.2360372 21.5567713 20.0820378 21.6382995 19.924156 21.7127101 19.7617449 21.776768 19.5954514 21.8350024 19.4252756 21.8841782 19.2505704 21.9255893 19.073277 21.9572947 18.8927483 21.9805885 18.7102784 21.9954707 18.5232791 22 18.3343387 22 3.66751312 21.9954707 3.47915502 21.9805885 3.29351456 21.9572947 3.10923293 21.9255893 2.92915715 21.8841782 2.75173431 21.8350024 2.57715852 21.776768 2.40801799 21.7127101 2.24165982 21.6382995 2.07801927 21.5567713 1.92123753 21.4687725 1.76723812 21.3743034 1.6187387 21.2727166 1.47438043 21.1627182 1.33688097 21.0481905 1.20352266 20.9258982 1.07566433 20.7997236 0.954664801 20.6657844 0.839165248 20.5273159 0.730524493 20.384318 0.628768416 20.2354966 0.533897019 20.0814989 0.44589736 19.9236189 0.36477591 19.7612095 0.290519727 19.5949179 0.225898212 19.4247439 0.168148436 19.2500406 0.118648628 19.0727491 0.0773987874 18.8922224 0.0457732628 18.7078133 0.0223990004 18.5227572 0.00727276489 18.3325247 0.00314797498 3.66844713 0.00314797498 3.47866758 0.00727276489 3.29309385 0.0223990004 3.10881422 0.0457732628 2.9286757 0.0773987874 2.74996069 0.118648628 2.5766809 0.168148436 2.40618341 0.225898212 2.23982705 0.290519727 2.07618829 0.36477591 1.91811415 0.44589736 1.76547523 0.533897019 1.61561862 0.628768416 1.47262073 0.730524493 1.33369925 0.839165248 1.20034239 0.954664801 1.07384426 1.07566433 0.951487246 1.20352266 0.837347754 1.33688097 0.728708182 1.47438043 0.625633233 1.6187387 0.530743458 1.76723812 0.442744757 1.92123753 0.36161772 2.07801927 0.287368816 2.24165982 0.222748005 2.40801799 0.164998858 2.57715852 0.115499589 2.75173431 0.0742501978 2.92915715 0.0426243707 3.10923293 0.0192497158 3.29351456 0.0041249391 3.47915502 0 3.66751312 0 18.3343387 0.0041249391 18.5232791 0.0192497158 18.7102784 0.0426243707 18.8927483 0.0742501978 19.073277 0.115499589 19.2505704 0.164998858 19.4252756 0.222748005 19.5954514 0.287368816 19.7617449 0.36161772 19.924156 0.442744757 20.0820378 0.530743458 20.2360372 0.625633233 20.3848601 0.728708182 20.5291537 0.837347754 20.6682708 0.951487246 20.8002703 1.07384426 20.9277404 1.20034239 21.0487399 1.33369925 21.164563 1.47262073 21.2745626 1.61561862 21.3761504 1.76547523 21.4712677 1.91811415 21.5605615 2.07618829 21.6414435 2.23982705 21.7145609 2.40618341 21.7805606 2.5766809 21.8381486 2.74996069 21.8873249 2.9286757 21.9287365 3.10881422 21.9604423 3.29309385 21.9837363 3.47866758 21.9992656 3.66844713 22.003148"></polygon>
                                <polygon id="Shape" fill="#FFF212" points="1.83216523 3.66786322 3.52191466 3.66786322 3.52191466 10.997382 1.83216523 10.997382 1.83216523 3.66786322"></polygon>
                                <path d="M11.0934751,9.32113045 L10.9969545,9.32113045 L10.9017123,9.31789732 L10.8077486,9.31401755 L10.7169809,9.30819791 L10.6274916,9.30302489 L10.5392807,9.29461874 L10.4523483,9.28491933 L10.3666942,9.27521993 L10.283597,9.26293401 L10.2024175,9.25064809 L10.1218771,9.23706892 L10.0432544,9.2221965 L9.96718851,9.20667745 L9.89240104,9.19051177 L9.81889198,9.17240621 L9.74730056,9.15430065 L9.67762676,9.13554846 L9.60987058,9.11614965 L9.54467125,9.09545758 L9.48075033,9.07476551 L9.41810784,9.05407344 L9.35866138,9.03208811 L9.30049335,9.01010279 L9.24424294,8.98682421 L9.18991016,8.96483889 L9.13749501,8.94156031 L9.08699749,8.91828174 L9.03777838,8.89500316 L8.99175532,8.87172458 L8.94701068,8.848446 L8.90482288,8.8245208 L8.86391349,8.80124222 L9.18223965,7.72137487 L9.21867458,7.74336019 L9.25702713,7.76534552 L9.29601888,7.78733084 L9.33692827,7.80802291 L9.37911608,7.82871498 L9.4225823,7.84940705 L9.46732694,7.87009912 L9.51335,7.8888513 L9.56129069,7.90825012 L9.60987058,7.92764893 L9.65908969,7.94704775 L9.70894801,7.96450668 L9.75944553,7.98131899 L9.81122147,7.99877792 L9.86363662,8.01559023 L9.91669098,8.03046265 L9.97102376,8.0459817 L10.0253565,8.05956087 L10.0809677,8.07314004 L10.1353005,8.08542596 L10.1915509,8.09771187 L10.2484405,8.10870454 L10.3040517,8.11840394 L10.3609414,8.12810335 L10.4165526,8.1365095 L10.4740814,8.14297578 L10.530971,8.15008867 L10.5865822,8.15396844 L10.6434718,8.15849483 L10.699083,8.16237459 L10.7566118,8.16366784 L10.812223,8.16366784 L10.9017123,8.16237459 L10.9886448,8.15849483 L11.0698243,8.15138193 L11.1458902,8.14297578 L11.2193993,8.13068986 L11.2890731,8.11711069 L11.3542724,8.10094501 L11.4149973,8.08283945 L11.4738045,8.06214738 L11.5281373,8.04016206 L11.5779956,8.01688348 L11.6240187,7.99231165 L11.6674849,7.96579993 L11.7083943,7.93864159 L11.7467468,7.90954337 L11.7806249,7.88109178 L11.8119462,7.8507003 L11.8413498,7.81901557 L11.8675574,7.78862409 L11.8905689,7.75693936 L11.9110236,7.72396138 L11.9301999,7.69227665 L11.9461801,7.66123854 L11.9608819,7.62955381 L11.9736661,7.59786908 L11.982615,7.56747761 L11.9909247,7.53708613 L11.997956,7.50863454 L12.0030697,7.47953631 L12.0062657,7.45237797 L12.0088226,7.42586626 L12.0088226,7.40129443 L12.0088226,7.34245136 L11.8061933,7.34051147 L11.6080384,7.33533846 L11.4149973,7.32563905 L11.227709,7.31205988 L11.0455344,7.29395432 L10.8691126,7.27067574 L10.6965262,7.24481066 L10.530971,7.21312593 L10.3705295,7.17885469 L10.2171193,7.1387638 L10.0675443,7.09479316 L9.9250007,7.04694275 L9.78948836,6.99456595 L9.65908969,6.93830938 L9.53380469,6.87752643 L9.415551,6.81286372 L9.3043286,6.74432124 L9.1994983,6.671899 L9.10042088,6.59495036 L9.00965318,6.51218209 L8.92399915,6.42702129 L8.84665484,6.33772208 L8.77570262,6.24292654 L8.71050329,6.1453505 L8.65489209,6.04370071 L8.60503378,5.93648993 L8.56284597,5.82656331 L8.52896789,5.71114037 L8.50148189,5.59300159 L8.4810272,5.47065973 L8.47016064,5.3428862 L8.46632539,5.21233218 L8.46760381,5.13402563 L8.47271748,5.05571908 L8.48230562,4.97741253 L8.49636822,4.9004639 L8.51362687,4.82351527 L8.53408156,4.74656664 L8.55837151,4.67097592 L8.58713592,4.59674313 L8.61845717,4.52393291 L8.65489209,4.45248061 L8.69452306,4.38238622 L8.73671087,4.31371442 L8.78273393,4.24640053 L8.83323145,4.18180248 L8.88756423,4.11856234 L8.94445384,4.05810271 L9.00517871,4.00042356 L9.06909963,3.94546025 L9.13749501,3.89321278 L9.20780802,3.8437458 L9.28259549,3.79705932 L9.36121822,3.75308868 L9.44303699,3.71325644 L9.52869102,3.67749796 L9.61690189,3.64451998 L9.70766959,3.61568041 L9.80419017,3.59091459 L9.90198917,3.57035184 L10.0036234,3.55386285 L10.1084537,3.54144761 L10.2171193,3.53459336 L10.3283417,3.53187753 L10.3960979,3.53323544 L10.4632148,3.53595128 L10.5284142,3.53873177 L10.5936135,3.5442281 L10.6568952,3.55108235 L10.7208161,3.55935918 L10.7834586,3.56892926 L10.8461011,3.57992192 L10.906826,3.59369508 L10.9669116,3.60740358 L11.0263581,3.62253465 L11.0851653,3.63902365 L11.142055,3.65687056 L11.1989446,3.67614004 L11.2545558,3.69812537 L11.3088885,3.72011069 L11.3619429,3.74345393 L11.4149973,3.76821975 L11.4667732,3.79292091 L11.5172707,3.82040256 L11.5658506,3.84924213 L11.6131521,3.87814637 L11.6610928,3.90970177 L11.7058374,3.94132184 L11.7505821,3.97429983 L11.7940483,4.00863573 L11.8362361,4.04439421 L11.8758671,4.08151061 L11.9148588,4.11856234 L11.9532114,4.15703666 L11.9896463,4.19693356 L12.0248028,4.23812371 L12.0439791,4.23812371 L12.2287105,3.66786322 L13.6036494,3.66786322 L13.6036494,6.91632406 L13.6017318,7.03982985 L13.5953397,7.16074913 L13.5857516,7.28037515 L13.5723282,7.39870792 L13.5544303,7.51510081 L13.5314188,7.62955381 L13.5058504,7.74077368 L13.4745292,7.84940705 L13.4374551,7.95610053 L13.3984633,8.05956087 L13.351801,8.15978808 L13.3019427,8.25742878 L13.2463315,8.35183635 L13.1862459,8.44301078 L13.1197681,8.53095207 L13.0494551,8.61436697 L12.9733892,8.69454874 L12.890292,8.76955749 L12.8020812,8.8413331 L12.7081174,8.90858233 L12.60904,8.97195179 L12.5029313,9.02950161 L12.3917089,9.08317166 L12.2734552,9.13102207 L12.1500878,9.17499272 L12.0184107,9.21249709 L11.8809807,9.24547508 L11.7371587,9.27263342 L11.5863053,9.29332549 L11.4284207,9.30819791 L11.2641439,9.31789732 L11.0934751,9.32113045 L11.0934751,9.32113045 Z M12.0574025,5.69465137 L12.0574025,5.66167339 L12.0561241,5.62733749 L12.0535672,5.59300159 L12.0510104,5.5572431 L12.0465359,5.5229072 L12.0427007,5.48714872 L12.0369478,5.45281282 L12.0292773,5.41847692 L12.0260812,5.40612634 L12.0209676,5.38821477 L12.0171323,5.37172577 L12.0126578,5.36073311 L12.0075442,5.34702462 L12.0017913,5.33325146 L11.9870895,5.29891556 L11.97047,5.26593757 L11.9532114,5.23295959 L11.9340351,5.1999816 L11.9135804,5.16836153 L11.8918473,5.13538355 L11.8688358,5.10382814 L11.8445458,5.07356599 L11.8183382,5.0433685 L11.7927699,5.01310635 L11.7640055,4.98426678 L11.7346018,4.95542721 L11.704559,4.92794556 L11.6732378,4.90182182 L11.6393597,4.87569808 L11.6054816,4.85099692 L11.5696859,4.82758902 L11.5345294,4.80424578 L11.496816,4.78361837 L11.4584635,4.76305563 L11.4194717,4.74378614 L11.3785623,4.72729715 L11.337653,4.71080816 L11.2941867,4.69567708 L11.2507205,4.6833265 L11.2072543,4.67097592 L11.1612312,4.66134118 L11.1152082,4.65312901 L11.0685459,4.6462101 L11.019966,4.64213635 L10.9707469,4.63799794 L10.922167,4.63799794 L10.8787008,4.63799794 L10.836513,4.64071377 L10.7956036,4.64349427 L10.7546942,4.6489906 L10.7157024,4.65584485 L10.6773499,4.6626991 L10.6396365,4.67233384 L10.6025624,4.6833265 L10.5686843,4.69431916 L10.5335278,4.70809232 L10.5009282,4.72315874 L10.4696069,4.73964773 L10.4382857,4.75613672 L10.4101605,4.77540621 L10.381396,4.79603362 L10.3558277,4.81659636 L10.3296201,4.84000426 L10.3066086,4.86470542 L10.283597,4.88947124 L10.2631424,4.91695289 L10.2439661,4.94579247 L10.225429,4.97463204 L10.2088096,5.0062521 L10.1941078,5.03787217 L10.1819628,5.07085016 L10.1698178,5.10654398 L10.1602297,5.14230246 L10.15192,5.17935419 L10.1448887,5.21925109 L10.1410534,5.25908332 L10.1384966,5.30027347 L10.1372181,5.3428862 L10.1384966,5.39099526 L10.1423318,5.43632383 L10.1493631,5.48165239 L10.1570336,5.52562304 L10.1679002,5.56687785 L10.1819628,5.608068 L10.197943,5.64654231 L10.2158409,5.68501663 L10.2362956,5.72213303 L10.2580287,5.75646893 L10.2823186,5.7908695 L10.3091654,5.82384748 L10.3379298,5.85540289 L10.3692511,5.88430712 L10.4018507,5.91314669 L10.4370072,5.94062834 L10.4740814,5.96811 L10.5117947,5.99281116 L10.5527041,6.01621906 L10.5948919,6.0395623 L10.6383581,6.06154762 L10.6843812,6.08217503 L10.7304043,6.10137986 L10.7796234,6.11922677 L10.8307601,6.13713834 L10.882536,6.15220475 L10.9355904,6.16733583 L10.9912016,6.1824669 L11.0468128,6.19481748 L11.10562,6.20716806 L11.1637881,6.21816072 L11.2251521,6.22779546 L11.2820418,6.23607229 L11.3414882,6.24428446 L11.4015739,6.25113871 L11.4642164,6.25805762 L11.5262197,6.26213137 L11.591419,6.2676277 L11.6566183,6.27040819 L11.7237353,6.27312403 L11.7640055,6.27454661 L11.8049149,6.27590453 L11.8471027,6.27726244 L11.888012,6.27726244 L11.9301999,6.27726244 L11.9717484,6.27726244 L12.0139363,6.27726244 L12.0574025,6.27726244 L12.0574025,5.69465137 L12.0574025,5.69465137 Z" id="Shape" fill="#FFF212"></path>
                                <polygon id="Shape" fill="#FFF212" points="18.2705156 9.16012029 18.2705156 5.94062834 18.2705156 5.89251928 18.2679587 5.8458328 18.2634843 5.80043958 18.2570922 5.75646893 18.2500609 5.71249828 18.2404727 5.67130813 18.2283278 5.63005332 18.2136259 5.59157901 18.201481 5.5600236 18.1861399 5.52840353 18.1701597 5.49678346 18.1535403 5.4651634 18.1362816 5.43496591 18.1171054 5.40334584 18.0966507 5.37172577 18.0749176 5.34152828 18.051906 5.31126613 18.0288945 5.28106865 18.0026869 5.25080649 17.9771186 5.22196692 17.9502718 5.19448527 17.9215074 5.16700362 17.8914645 5.14087988 17.8601433 5.1148208 17.8275436 5.09005498 17.7949439 5.06535383 17.7597874 5.0433685 17.7246309 5.02138318 17.6862784 5.00211369 17.648565 4.98290886 17.6089341 4.96499729 17.5680247 4.94993088 17.5264761 4.9347998 17.4830099 4.92244922 17.437626 4.91145656 17.391603 4.90317974 17.3455799 4.89496757 17.2963608 4.89082916 17.2477809 4.88669074 17.196005 4.88669074 17.1333625 4.88804866 17.0726376 4.89218707 17.0125519 4.89904132 16.9556623 4.91003398 16.9013295 4.92244922 16.8482752 4.93893822 16.7984169 4.95814304 16.7504762 4.98012837 16.7044531 5.00347161 16.6609869 5.03095326 16.6187991 5.06121541 16.5791681 5.0941934 16.5427332 5.1285293 16.5062983 5.16700362 16.4736986 5.20683585 16.4423773 5.24944858 16.4123345 5.29477714 16.3854877 5.3428862 16.3605586 5.3937111 16.3362686 5.44595857 16.3158139 5.50092188 16.2953592 5.55860102 16.2781006 5.61906066 16.2627596 5.68094288 16.2493362 5.74547627 16.2371912 5.81143224 16.2276031 5.88016871 16.2192933 5.95162101 16.2129013 6.02443122 16.2084268 6.10002194 16.20587 6.17697057 16.2045915 6.25663504 16.2045915 9.1627068 14.5554319 9.1627068 14.5554319 5.95162101 14.5554319 5.87053396 14.5579887 5.79222741 14.5611848 5.7166367 14.56502 5.64104598 14.5707729 5.56687785 14.577165 5.49406763 14.5854747 5.42397325 14.5937844 5.35387886 14.604651 5.28656498 14.6155176 5.22060901 14.6276625 5.15601095 14.6423643 5.09283548 14.6577054 5.03095326 14.6736856 4.97049362 14.690305 4.91145656 14.7088421 4.85507068 14.7280184 4.79874945 14.7497515 4.74378614 14.7702062 4.69018075 14.7932177 4.63799794 14.8162292 4.58717304 14.8392408 4.53770607 14.8654483 4.48959701 14.8910167 4.44148795 14.9165851 4.39615938 14.9440711 4.35083082 14.9728355 4.30686017 15.0022391 4.26560536 15.0322819 4.22441521 15.0636032 4.18451831 15.0949244 4.146044 15.1275241 4.10899226 15.1614022 4.07187586 15.1965587 4.03753996 15.2317152 4.0031394 15.2675109 3.97158399 15.3052242 3.93996392 15.3422984 3.90970177 15.3812901 3.8808622 15.4209211 3.85338055 15.4618305 3.82725681 15.5021007 3.80255565 15.5442885 3.77921241 15.5864763 3.75580451 15.6299425 3.73524177 15.6746871 3.71461436 15.7194318 3.69676745 15.7660941 3.67885588 15.8133955 3.66236689 15.8594186 3.64730047 15.9086377 3.6321694 15.9559392 3.61981882 16.0064367 3.60740358 16.0550166 3.59641092 16.1055141 3.58541825 16.1572901 3.57720609 16.2084268 3.56892926 16.2602027 3.56207501 16.3132571 3.55657868 16.3663115 3.55108235 16.4206442 3.54694394 16.474977 3.54558602 16.5305882 3.54287019 16.5861994 3.54287019 16.6354185 3.54287019 16.68272 3.5442281 16.7287431 3.54558602 16.7747661 3.54836652 16.8214284 3.55244027 16.866173 3.55657868 16.9109177 3.5607171 16.9543839 3.56757135 16.9965717 3.57306768 17.0387595 3.5813445 17.0809473 3.58819875 17.1212175 3.5978335 17.1608484 3.60604566 17.2004794 3.61703832 17.2394712 3.62803098 17.2778237 3.63902365 17.3506936 3.66378947 17.4229242 3.68984854 17.4906804 3.71733019 17.5571581 3.74481185 17.621079 3.775074 17.6824431 3.80527149 17.7406112 3.83824947 17.7962224 3.87122746 17.8492767 3.90562802 17.9010527 3.93996392 17.9502718 3.97565774 17.9975732 4.01141622 18.0423179 4.04853262 18.0845057 4.08700694 18.1241367 4.12548126 18.16185 4.16531349 18.1982849 4.2037878 18.2328022 4.24226212 18.2634843 4.27937852 18.2935271 4.31507234 18.3222915 4.34940824 18.3478599 4.3838088 18.3708714 4.41536421 18.3926045 4.44834219 18.604822 3.66786322 19.9439652 3.66786322 19.9439652 9.16012029 18.2705156 9.16012029"></polygon>
                                <polygon id="Shape" fill="#FFF212" points="5.10708946 10.997188 5.10708946 9.1627068 4.33690634 9.1627068 4.33690634 7.91083663 5.10708946 7.91083663 5.10708946 5.67680447 5.1084318 5.608068 5.10977414 5.54075411 5.1111804 5.47344022 5.11386508 5.40884217 5.11795602 5.34424412 5.1233893 5.28106865 5.12882258 5.21925109 5.13559819 5.15736887 5.14237381 5.09833181 5.15055569 5.03923009 5.1600799 4.98148628 5.17094646 4.92516506 5.18181302 4.87020175 5.19402191 4.81523844 5.20623081 4.76305563 5.21984596 4.71080816 5.23473953 4.65998326 5.25103937 4.61051628 5.2673392 4.56240722 5.2850453 4.51572074 5.30402981 4.4689696 5.32307824 4.42499895 5.34340509 4.38102831 5.3651382 4.33983816 5.38687132 4.29858334 5.41001069 4.25875111 5.43442848 4.2202768 5.46025253 4.18180248 5.48607658 4.146044 5.51324297 4.1117081 5.5417517 4.07737219 5.57026043 4.04575213 5.59742681 4.01827047 5.6245932 3.99078882 5.65310193 3.96466508 5.68167458 3.93860601 5.71286799 3.91384019 5.74412532 3.88913903 5.77806732 3.86437321 5.81207325 3.84102997 5.84601526 3.81768673 5.88270587 3.79570141 5.91933255 3.775074 5.9573655 3.75308868 5.9968047 3.73381919 6.03617999 3.71461436 6.07830387 3.69534487 6.11902149 3.67885588 6.16248772 3.66100897 6.20595394 3.64587789 6.2507625 3.63081148 6.29563499 3.61703832 6.34178589 3.60332983 6.38934305 3.59233717 6.43683629 3.5813445 6.4860554 3.57170976 6.53463529 3.56207501 6.58513282 3.55386285 6.63499113 3.54836652 6.68676707 3.54287019 6.73854302 3.53737386 6.79159738 3.53459336 6.84465174 3.53323544 6.89898452 3.53187753 6.9884738 3.53323544 7.07093178 3.53595128 7.1489153 3.54008969 7.21922831 3.54558602 7.28570606 3.55244027 7.34707014 3.5607171 7.40523818 3.57035184 7.45829254 3.5813445 7.51006848 3.59233717 7.55736996 3.60468774 7.6021146 3.61839624 7.64685924 3.6321694 7.73123485 3.66236689 7.81433204 3.69398695 7.81433204 4.97049362 7.79259893 4.96228146 7.76383452 4.95400463 7.72995643 4.94579247 7.68776863 4.93893822 7.64046715 4.93201931 7.58741279 4.92794556 7.53052317 4.92380714 7.46915909 4.92244922 7.41482631 4.92380714 7.36432879 4.92652298 7.31574889 4.93201931 7.26972583 4.94029613 7.22625961 4.94993088 7.18535022 4.96092354 7.14571925 4.97463204 7.10928433 4.99112103 7.07540625 5.00896794 7.04280658 5.02823743 7.01148533 5.05158067 6.98399934 5.07492391 6.95715255 5.10104765 6.9328626 5.1285293 6.90985107 5.15879145 6.88939638 5.19176944 6.8702201 5.22474742 6.85232225 5.26179916 6.83634202 5.29891556 6.821001 5.33874779 6.80885602 5.38136052 6.79671105 5.42397325 6.78712291 5.47065973 6.77753478 5.51741087 6.77114268 5.56687785 6.76411138 5.61906066 6.75899771 5.67130813 6.75452325 5.72627144 6.75196641 5.78395058 6.74940957 5.84169439 6.74813115 5.90215403 6.74813115 5.96397159 6.74813115 7.91083663 7.79643418 7.91083663 7.79643418 9.1627068 6.74813115 9.1627068 6.74813115 10.997188 5.10708946 10.997188"></polygon>
                                <polygon id="Shape" fill="#FFF212" points="17.6472866 10.9984813 16.6283872 9.51705848 17.8070889 9.51705848 19.2433919 10.9984813 17.6472866 10.9984813"></polygon>
                            </g>
                        </g>
                    </g>
                </g>
            </g>
        </g>
    </g>
</svg>