<?xml version="1.0" encoding="UTF-8" standalone="no"?>
<svg width="52px" height="36px" viewBox="0 0 52 36" version="1.1" xmlns="http://www.w3.org/2000/svg" xmlns:xlink="http://www.w3.org/1999/xlink">
    <!-- Generator: Sketch 3.8.3 (29802) - http://www.bohemiancoding.com/sketch -->
    <title>mastercard</title>
    <desc>Created with Sketch.</desc>
    <defs>
        <rect id="path-1" x="0" y="0" width="52" height="36" rx="3"></rect>
        <mask id="mask-2" maskContentUnits="userSpaceOnUse" maskUnits="objectBoundingBox" x="0" y="0" width="52" height="36" fill="white">
            <use xlink:href="#path-1"></use>
        </mask>
    </defs>
    <g id="Page-1" stroke="none" stroke-width="1" fill="none" fill-rule="evenodd">
        <g id="Paywall-2-produtos-V2" transform="translate(-776.000000, -1190.000000)">
            <g id="PRODUTO" transform="translate(360.000000, 272.000000)">
                <g id="Group-20" transform="translate(202.000000, 918.000000)">
                    <g id="Group-17" transform="translate(156.000000, 0.000000)">
                        <g id="mastercard" transform="translate(58.000000, 0.000000)">
                            <use id="Rectangle" stroke="#DEDEDE" mask="url(#mask-2)" stroke-width="2" fill="#FFFFFF" xlink:href="#path-1"></use>
                            <path d="M29.0643105,18.2427011 C29.0643105,23.6318289 24.6959851,28 19.3070115,28 C13.9178837,28 9.54925,23.6318289 9.54925,18.2427011 C9.54925,12.8537275 13.9178837,8.48509375 19.3070115,8.48509375 C24.6959851,8.48509375 29.0643105,12.8537275 29.0643105,18.2427011" id="Fill-333" fill="#CC0000"></path>
                            <path d="M32.4070531,8.48509375 C29.88527,8.48509375 27.5883102,9.44159493 25.8563384,11.0107318 C25.5039919,11.3305421 25.1750838,11.6759496 24.8714645,12.0437161 L26.8429085,12.0437161 C27.1121413,12.3715448 27.3602488,12.7161813 27.5867682,13.0771629 L24.1274506,13.0771629 C23.9205145,13.4088466 23.7323908,13.7534831 23.5652382,14.1106098 L28.1486722,14.1106098 C28.3053392,14.4450691 28.4431938,14.7895514 28.5619276,15.1435941 L23.1519828,15.1435941 C23.039417,15.480058 22.9444299,15.8248487 22.8685636,16.1764241 L28.8450384,16.1764241 C28.9881358,16.8425672 29.0643105,17.5336905 29.0643105,18.2427011 C29.0643105,19.3259545 28.8877517,20.3686533 28.5619276,21.3424249 L23.1519828,21.3424249 C23.2707166,21.6961592 23.4085712,22.041104 23.5649298,22.3760259 L28.1486722,22.3760259 C27.9812113,22.7322274 27.7940127,23.0771723 27.585843,23.4093186 L24.1274506,23.4093186 C24.3530448,23.7692209 24.6016149,24.11432 24.8714645,24.4416861 L26.8422917,24.4416861 C26.5392892,24.8097609 26.2100727,25.1551684 25.8566468,25.4749787 C27.5884644,27.0441156 29.88527,28 32.4070531,28 C37.7958725,28 42.164352,23.6318289 42.164352,18.2427011 C42.164352,12.8541901 37.7958725,8.48509375 32.4070531,8.48509375" id="Fill-334" fill="#FF9900"></path>
                            <path d="M17.0284015,19.3109971 C16.9172235,19.2983527 16.8681879,19.2943435 16.7918591,19.2943435 C16.1914051,19.2943435 15.8877858,19.5003544 15.8877858,19.9072876 C15.8877858,20.1578622 16.0359718,20.3171506 16.2672714,20.3171506 C16.6988766,20.3171506 17.0098975,19.9063624 17.0284015,19.3109971 L17.0284015,19.3109971 Z M17.7989378,21.1044946 L16.9209243,21.1044946 L16.9411244,20.6873842 C16.6734336,21.016755 16.3161528,21.1740387 15.8308861,21.1740387 C15.2569545,21.1740387 14.8632825,20.7259342 14.8632825,20.0747486 C14.8632825,19.0945006 15.5477753,18.5228821 16.7229318,18.5228821 C16.8433618,18.5228821 16.9972532,18.5339844 17.1548453,18.5538762 C17.1875357,18.420956 17.1961709,18.3645189 17.1961709,18.292816 C17.1961709,18.0263588 17.0117479,17.9264373 16.5169209,17.9264373 C15.9986554,17.9211946 15.5712137,18.0502598 15.3955801,18.1079305 C15.4066825,18.0410078 15.5425325,17.2026236 15.5425325,17.2026236 C16.0702041,17.0474986 16.4183872,16.9895195 16.8102088,16.9895195 C17.7199875,16.9895195 18.2018618,17.3978405 18.2007824,18.1697646 C18.2026328,18.3768549 18.1682462,18.6314387 18.1150473,18.9672858 C18.0231442,19.5501609 17.8257685,20.8002585 17.7989378,21.1044946 L17.7989378,21.1044946 Z" id="Fill-336" fill="#000066"></path>
                            <polyline id="Fill-337" fill="#000066" points="14.4199582 21.1044946 13.3604515 21.1044946 13.9676902 17.3000779 12.6124285 21.1044946 11.8906193 21.1044946 11.8013377 17.3213574 11.1635674 21.1044946 10.1720629 21.1044946 11.0002698 16.1551446 12.5236094 16.1551446 12.6156667 18.9254977 13.5450287 16.1551446 15.2392216 16.1551446 14.4199582 21.1044946"></polyline>
                            <path d="M33.7159008,19.3109971 C33.6047227,19.2983527 33.556304,19.2943435 33.4801293,19.2943435 C32.8792128,19.2943435 32.5759018,19.5003544 32.5759018,19.9072876 C32.5759018,20.1578622 32.723471,20.3171506 32.9553875,20.3171506 C33.3866842,20.3171506 33.6978594,19.9063624 33.7159008,19.3109971 L33.7159008,19.3109971 Z M34.4868996,21.1044946 L33.6091945,21.1044946 L33.6290863,20.6873842 C33.3613955,21.016755 33.0042688,21.1740387 32.5193105,21.1740387 C31.944608,21.1740387 31.5513986,20.7259342 31.5513986,20.0747486 C31.5513986,19.0945006 32.2361997,18.5228821 33.4110478,18.5228821 C33.5313236,18.5228821 33.6849066,18.5339844 33.842653,18.5538762 C33.8754975,18.420956 33.8839785,18.3645189 33.8839785,18.292816 C33.8839785,18.0263588 33.6995556,17.9264373 33.2047285,17.9264373 C32.6864631,17.9211946 32.2591755,18.0502598 32.0829252,18.1079305 C32.0946444,18.0410078 32.2308028,17.2026236 32.2308028,17.2026236 C32.758166,17.0474986 33.1066575,16.9895195 33.4978623,16.9895195 C34.4082577,16.9895195 34.8895152,17.3978405 34.88859,18.1697646 C34.8904404,18.3768549 34.8563623,18.6314387 34.8028549,18.9672858 C34.7112603,19.5501609 34.513422,20.8002585 34.4868996,21.1044946 L34.4868996,21.1044946 Z" id="Fill-338" fill="#000066"></path>
                            <path d="M22.5066568,21.0432773 C22.216607,21.1345636 21.9907043,21.1740387 21.7455267,21.1740387 C21.2041313,21.1740387 20.9085303,20.8628636 20.9085303,20.289703 C20.9009746,20.1117565 20.9864012,19.6437602 21.0536323,19.2169352 C21.1150038,18.840842 21.5131477,16.4701747 21.5131477,16.4701747 L22.5658695,16.4701747 L22.4429723,17.079418 L23.0790463,17.079418 L22.9354863,18.0468674 L22.2972535,18.0468674 C22.1749731,18.8121608 22.0005731,19.7657322 21.9985685,19.892176 C21.9985685,20.0997289 22.109284,20.1903984 22.3614006,20.1903984 C22.482139,20.1903984 22.5755841,20.1780624 22.6469786,20.1524652 L22.5066568,21.0432773" id="Fill-339" fill="#000066"></path>
                            <path d="M25.7349832,21.0107412 C25.3732305,21.1213024 25.0245848,21.1752723 24.6546596,21.1740387 C23.4758023,21.1724967 22.8613163,20.5572396 22.8613163,19.3783824 C22.8613163,18.002612 23.6429549,16.9895195 24.7043119,16.9895195 C25.5723024,16.9895195 26.126959,17.5566663 26.126959,18.4457822 C26.126959,18.7413831 26.0890259,19.0294283 25.9969686,19.4358989 L23.9001601,19.4358989 C23.8293824,20.0198534 24.2028543,20.2630265 24.8157984,20.2630265 C25.1922,20.2630265 25.5323647,20.1853098 25.9103083,20.0099847 L25.7349832,21.0107412 L25.7349832,21.0107412 Z M25.1431645,18.6246539 C25.1491783,18.540615 25.2546509,17.906083 24.6528092,17.906083 C24.3178873,17.906083 24.0777982,18.1617462 23.9804982,18.6246539 L25.1431645,18.6246539 L25.1431645,18.6246539 Z" id="Fill-340" fill="#000066"></path>
                            <path d="M18.4342408,18.3520287 C18.4342408,18.8607338 18.6809605,19.2118466 19.2407056,19.4756824 C19.6695352,19.6775299 19.7363037,19.7372053 19.7363037,19.919932 C19.7363037,20.1705066 19.5469464,20.284306 19.1279856,20.284306 C18.8117219,20.284306 18.5178171,20.2346537 18.1787318,20.1250177 C18.1787318,20.1250177 18.0397978,21.0125916 18.0331672,21.0549965 C18.2738731,21.107116 18.4885191,21.155689 19.1355414,21.1740387 C20.2531813,21.1740387 20.7694422,20.7484474 20.7694422,19.8286457 C20.7694422,19.2756853 20.5535625,18.9510948 20.0228069,18.7068424 C19.5788657,18.5031445 19.5275172,18.4575014 19.5275172,18.269686 C19.5275172,18.0521102 19.7037675,17.9409321 20.0459368,17.9409321 C20.2539523,17.9409321 20.5378341,17.9631369 20.8072211,18.0012242 L20.9578743,17.0676988 C20.6837071,17.0240603 20.2676761,16.9895195 20.0255825,16.9895195 C18.8407114,16.9895195 18.4303858,17.6083232 18.4342408,18.3520287" id="Fill-341" fill="#000066"></path>
                            <path d="M30.8869517,17.0957632 C31.1811649,17.0957632 31.4559489,17.1722463 31.8335841,17.3629914 L32.0070589,16.2888358 C31.8513171,16.2277727 31.3052957,15.869875 30.8426964,15.869875 C30.1339943,15.869875 29.5341572,16.2220673 29.1130376,16.8020126 C28.4980889,16.5984689 28.2450471,17.0098739 27.9354139,17.4200453 L27.6601673,17.4841924 C27.6809843,17.3492676 27.6999509,17.215268 27.6939371,17.079418 L26.7206281,17.079418 C26.5880163,18.3255064 26.3525533,19.5871689 26.1682845,20.8337198 L26.12002,21.1044946 L27.179835,21.1044946 C27.3567022,19.9550895 27.4533854,19.2194024 27.5122898,18.7210288 L27.9113588,18.4999063 C27.9713425,18.2777044 28.1574616,18.2030717 28.5318586,18.2121695 C28.4829773,18.4746175 28.456455,18.7510977 28.456455,19.0371383 C28.456455,20.3541585 29.1679327,21.1740387 30.3077774,21.1740387 C30.601528,21.1740387 30.8537988,21.1354888 31.2443868,21.0290909 L31.4300433,19.9012738 C31.0787763,20.0738234 30.7911937,20.1550866 30.5304419,20.1550866 C29.914568,20.1550866 29.5418671,19.7003515 29.5418671,18.9492444 C29.5418671,17.8592062 30.0957527,17.0957632 30.8869517,17.0957632" id="Fill-342" fill="#000066"></path>
                            <path d="M39.8555188,16.1551446 L39.6200558,17.585039 C39.3309312,17.2040114 39.0197561,16.9279938 38.6089679,16.9279938 C38.0745115,16.9279938 37.5880112,17.3332308 37.2694345,17.9299839 C36.8258017,17.8379267 36.3673658,17.6814139 36.3673658,17.6814139 L36.3670574,17.6852689 C36.4023692,17.3517348 36.4173265,17.1488079 36.4137799,17.079418 L35.4406252,17.079418 C35.308476,18.3255064 35.0727045,19.5871689 34.88859,20.8337198 L34.8398629,21.1044946 L35.8999863,21.1044946 C36.0430837,20.1755952 36.1524113,19.4033628 36.2330578,18.7918065 C36.5954273,18.4642861 36.7767662,18.1794792 37.1420655,18.1979831 C36.9800015,18.589959 36.885477,19.0411475 36.885477,19.5040552 C36.885477,20.5099003 37.3940279,21.1740387 38.16441,21.1740387 C38.552685,21.1740387 38.8505989,21.0400391 39.1411113,20.7297892 L39.0911506,21.1041862 L40.0934491,21.1041862 L40.9003765,16.1551446 L39.8555188,16.1551446 L39.8555188,16.1551446 Z M38.5307886,20.17467 C38.1702695,20.17467 37.987697,19.9072876 37.987697,19.381158 C37.987697,18.589959 38.3289411,18.0291344 38.8092734,18.0291344 C39.1733391,18.0291344 39.3707148,18.3060772 39.3707148,18.8174036 C39.3707148,19.6153874 39.0237653,20.17467 38.5307886,20.17467 L38.5307886,20.17467 Z" id="Fill-343" fill="#000066"></path>
                            <polyline id="Fill-344" fill="#FFFFFF" points="14.7246569 20.8107441 13.6654587 20.8107441 14.2725432 17.0063273 12.9175898 20.8107441 12.1954723 20.8107441 12.1063448 17.0283779 11.4684204 20.8107441 10.4769158 20.8107441 11.3051228 15.8618566 12.8284623 15.8618566 12.8710215 18.9254977 13.8989171 15.8618566 15.5440745 15.8618566 14.7246569 20.8107441"></polyline>
                            <path d="M17.3332545,19.0178633 C17.2222306,19.0049105 17.1731951,19.0013639 17.0968662,19.0013639 C16.4964123,19.0013639 16.1926387,19.2070664 16.1926387,19.6136912 C16.1926387,19.8639575 16.3409789,20.024171 16.5724328,20.024171 C17.0038837,20.024171 17.3149047,19.6133828 17.3332545,19.0178633 L17.3332545,19.0178633 Z M18.1036365,20.8107441 L17.2260856,20.8107441 L17.2461316,20.3939421 C16.9784408,20.7231586 16.6211599,20.8805966 16.1358932,20.8805966 C15.5618075,20.8805966 15.1682897,20.4318752 15.1682897,19.7808438 C15.1682897,18.8004416 15.8529366,18.2295941 17.0280931,18.2295941 C17.1482147,18.2295941 17.3021061,18.2405423 17.4598525,18.2608966 C17.4925428,18.127668 17.501178,18.0710767 17.501178,17.9990654 C17.501178,17.7327624 17.3167551,17.633612 16.821928,17.633612 C16.3035084,17.627444 15.8762208,17.7565092 15.7004331,17.8140257 C15.7116897,17.7474114 15.8473855,16.9090273 15.8473855,16.9090273 C16.3752113,16.7542107 16.7233944,16.695769 17.115216,16.695769 C18.0248404,16.695769 18.5065605,17.1045526 18.5057895,17.8761682 C18.5074857,18.0829501 18.4734076,18.3387675 18.4200544,18.6736894 C18.3279972,19.256102 18.1306215,20.5069705 18.1036365,20.8107441 L18.1036365,20.8107441 Z" id="Fill-345" fill="#FFFFFF"></path>
                            <path d="M32.3117576,15.9950852 L32.1382829,17.0690866 C31.7600309,16.8789583 31.4860179,16.8020126 31.1921131,16.8020126 C30.4012225,16.8020126 29.8464117,17.5663809 29.8464117,18.6565733 C29.8464117,19.4076803 30.2192667,19.8614903 30.8351406,19.8614903 C31.0960466,19.8614903 31.384246,19.7808438 31.7347421,19.6076774 L31.548623,20.7354946 C31.1586517,20.8417382 30.9062267,20.8805966 30.6126304,20.8805966 C29.4720146,20.8805966 28.7616163,20.0605622 28.7616163,18.7438503 C28.7616163,16.9745622 29.7437146,15.7380342 31.1475494,15.7380342 C31.6101487,15.7380342 32.1564785,15.9340221 32.3117576,15.9950852" id="Fill-346" fill="#FFFFFF"></path>
                            <path d="M34.0205995,19.0178633 C33.9101925,19.0049105 33.8610027,19.0013639 33.784828,19.0013639 C33.1846825,19.0013639 32.8807548,19.2070664 32.8807548,19.6136912 C32.8807548,19.8639575 33.0289408,20.024171 33.2602404,20.024171 C33.6915372,20.024171 34.0028665,19.6133828 34.0205995,19.0178633 L34.0205995,19.0178633 Z M34.7915984,20.8107441 L33.9140475,20.8107441 L33.9339392,20.3939421 C33.6662484,20.7231586 33.3089676,20.8805966 32.8241635,20.8805966 C32.2494609,20.8805966 31.8564057,20.4318752 31.8564057,19.7808438 C31.8564057,18.8004416 32.5404359,18.2295941 33.7159008,18.2295941 C33.8360224,18.2295941 33.9896053,18.2405423 34.1471975,18.2608966 C34.1800421,18.127668 34.1886772,18.0710767 34.1886772,17.9990654 C34.1886772,17.7327624 34.0047169,17.633612 33.5095815,17.633612 C32.9916244,17.627444 32.5644911,17.7565092 32.3883949,17.8140257 C32.3994973,17.7474114 32.5353473,16.9090273 32.5353473,16.9090273 C33.0631731,16.7542107 33.4110478,16.695769 33.8028694,16.695769 C34.7124939,16.695769 35.1946766,17.1045526 35.193443,17.8761682 C35.1956018,18.0829501 35.1612152,18.3387675 35.1078621,18.6736894 C35.0161132,19.256102 34.8187375,20.5069705 34.7915984,20.8107441 L34.7915984,20.8107441 Z" id="Fill-347" fill="#FFFFFF"></path>
                            <path d="M22.8113555,20.749681 C22.5216142,20.8409672 22.2954031,20.8805966 22.0505339,20.8805966 C21.5089843,20.8805966 21.2132291,20.5692672 21.2132291,19.9967235 C21.2058275,19.8181601 21.2914084,19.3509348 21.3587937,18.9236473 C21.4197026,18.5472456 21.8180006,16.1768867 21.8180006,16.1768867 L22.8710308,16.1768867 L22.7478252,16.7859758 L23.2884496,16.7859758 L23.144427,17.7531168 L22.6021064,17.7531168 C22.479826,18.5191813 22.3054261,19.4721359 22.3032673,19.5985797 C22.3032673,19.8067494 22.4144453,19.896802 22.6662535,19.896802 C22.786992,19.896802 22.8802828,19.8849286 22.9519857,19.8587147 L22.8113555,20.749681" id="Fill-348" fill="#FFFFFF"></path>
                            <path d="M26.0402987,20.7177616 C25.6783919,20.8286312 25.3289752,20.880905 24.9595125,20.8805966 C23.7805011,20.8798256 23.1664776,20.2637975 23.1664776,19.0850944 C23.1664776,17.7088615 23.947962,16.695769 25.0085481,16.695769 C25.8774638,16.695769 26.431812,17.2629157 26.431812,18.153111 C26.431812,18.4480952 26.393262,18.7359861 26.3022841,19.1426109 L24.2051673,19.1426109 C24.1340812,19.7265655 24.5080156,19.9702011 25.1203429,19.9702011 C25.4970529,19.9702011 25.8370634,19.892176 26.2154697,19.7163883 L26.0402987,20.7177616 L26.0402987,20.7177616 Z M25.4483258,18.3309033 C25.4540312,18.2467103 25.5599664,17.6124866 24.9582789,17.6124866 C24.6230486,17.6124866 24.3829596,17.8686124 24.2853511,18.3309033 L25.4483258,18.3309033 L25.4483258,18.3309033 Z" id="Fill-349" fill="#FFFFFF"></path>
                            <path d="M18.7389396,18.0582781 C18.7389396,18.5679084 18.9859676,18.9182503 19.545867,19.1823945 C19.9746965,19.3840878 20.0411566,19.4437631 20.0411566,19.626644 C20.0411566,19.877527 19.8519535,19.9907097 19.4326843,19.9907097 C19.116729,19.9907097 18.82267,19.9416742 18.4834305,19.8323465 C18.4834305,19.8323465 18.3446508,20.7193036 18.3381744,20.7610917 C18.578726,20.8138281 18.7935263,20.8619384 19.4402401,20.8805966 C20.5581885,20.8805966 21.0744493,20.4551594 21.0744493,19.5353578 C21.0744493,18.982089 20.8582612,18.6576527 20.3276598,18.414017 C19.8835645,18.2097023 19.8325243,18.1645218 19.8325243,17.9763981 C19.8325243,17.7588222 20.0086205,17.6468732 20.3510982,17.6468732 C20.5586511,17.6468732 20.8428412,17.6700031 21.112074,17.7079363 L21.2628814,16.7745651 C20.98856,16.7312349 20.5728374,16.695769 20.3305896,16.695769 C19.1454102,16.695769 18.735393,17.3147269 18.7389396,18.0582781" id="Fill-350" fill="#FFFFFF"></path>
                            <path d="M40.398302,20.8107441 L39.3963119,20.8107441 L39.4459643,20.4361928 C39.1552977,20.746597 38.8575379,20.8805966 38.4692629,20.8805966 C37.6994976,20.8805966 37.1901758,20.2172291 37.1901758,19.2103046 C37.1901758,17.8715422 37.9798328,16.7431083 38.9138208,16.7431083 C39.324609,16.7431083 39.63563,16.9108776 39.9253713,17.2920595 L40.1603718,15.8618566 L41.2050752,15.8618566 L40.398302,20.8107441 L40.398302,20.8107441 Z M38.8354874,19.8807652 C39.3290808,19.8807652 39.6754135,19.3217911 39.6754135,18.5245783 C39.6754135,18.0130976 39.478192,17.7352296 39.1141263,17.7352296 C38.6336399,17.7352296 38.29255,18.2962084 38.29255,19.0877158 C38.29255,19.6144622 38.4752767,19.8807652 38.8354874,19.8807652 L38.8354874,19.8807652 Z" id="Fill-351" fill="#FFFFFF"></path>
                            <path d="M35.7457865,16.7859758 C35.6133289,18.0317558 35.3777117,19.2934183 35.193443,20.5401235 L35.1451784,20.8107441 L36.2046851,20.8107441 C36.5837081,18.3494073 36.6748402,17.869075 37.2694345,17.9290587 C37.3639589,17.4252881 37.5402093,16.9841225 37.6714333,16.7617665 C37.2278005,16.6692466 36.9800015,16.9199754 36.6552568,17.3964527 C36.6811624,17.1902876 36.7278849,16.9902905 36.7190955,16.7859758 L35.7457865,16.7859758" id="Fill-352" fill="#FFFFFF"></path>
                            <path d="M27.0259437,16.7859758 C26.8928693,18.0317558 26.6569436,19.2934183 26.4729833,20.5401235 L26.424873,20.8107441 L27.484688,20.8107441 C27.8638652,18.3494073 27.9546889,17.869075 28.548358,17.9290587 C28.6434993,17.4252881 28.820058,16.9841225 28.9509736,16.7617665 C28.5078035,16.6692466 28.2595418,16.9199754 27.9354139,17.3964527 C27.9610111,17.1902876 28.008042,16.9902905 27.99879,16.7859758 L27.0259437,16.7859758" id="Fill-353" fill="#FFFFFF"></path>
                        </g>
                    </g>
                </g>
            </g>
        </g>
    </g>
</svg>