<?xml version="1.0" encoding="UTF-8" standalone="no"?>
<svg width="14px" height="24px" viewBox="0 0 14 24" version="1.1" xmlns="http://www.w3.org/2000/svg" xmlns:xlink="http://www.w3.org/1999/xlink">
    <!-- Generator: Sketch 3.8.3 (29802) - http://www.bohemiancoding.com/sketch -->
    <title>mobile</title>
    <desc>Created with Sketch.</desc>
    <defs></defs>
    <g id="Page-1" stroke="none" stroke-width="1" fill="none" fill-rule="evenodd">
        <g id="Paywall-2-produtos-V2" transform="translate(-1074.000000, -1031.000000)" fill="#222222">
            <g id="PRODUTO" transform="translate(360.000000, 272.000000)">
                <g id="Group-9-Copy" transform="translate(500.000000, 60.000000)">
                    <g id="Group-17" transform="translate(0.000000, 431.000000)">
                        <g id="th" transform="translate(0.000000, 255.000000)">
                            <g id="Group-27" transform="translate(152.000000, 13.000000)">
                                <path d="M74,3.75 L63.5,3.75 L63.5,3 C63.5,2.172 64.172,1.5 65,1.5 L72.5,1.5 C73.328,1.5 74,2.172 74,3 L74,3.75 L74,3.75 Z M63.5,5.25 L74,5.25 L74,15 L63.5,15 L63.5,5.25 Z M74,21 C74,21.828 73.328,22.5 72.5,22.5 L65,22.5 C64.172,22.5 63.5,21.828 63.5,21 L63.5,16.5 L74,16.5 L74,21 L74,21 Z M72.5,0 L65,0 C63.34325,0 62,1.34325 62,3 L62,21 C62,22.65675 63.34325,24 65,24 L72.5,24 C74.15675,24 75.5,22.65675 75.5,21 L75.5,3 C75.5,1.34325 74.15675,0 72.5,0 L72.5,0 Z M68.75,21 C69.578,21 70.25,20.328 70.25,19.5 C70.25,18.672 69.578,18 68.75,18 C67.922,18 67.25,18.672 67.25,19.5 C67.25,20.328 67.922,21 68.75,21 L68.75,21 Z" id="mobile"></path>
                            </g>
                        </g>
                    </g>
                </g>
            </g>
        </g>
    </g>
</svg>