<?xml version="1.0" encoding="UTF-8" standalone="no"?>
<svg width="18px" height="24px" viewBox="0 0 18 24" version="1.1" xmlns="http://www.w3.org/2000/svg" xmlns:xlink="http://www.w3.org/1999/xlink">
    <!-- Generator: Sketch 3.8.3 (29802) - http://www.bohemiancoding.com/sketch -->
    <title>tablet</title>
    <desc>Created with Sketch.</desc>
    <defs></defs>
    <g id="Page-1" stroke="none" stroke-width="1" fill="none" fill-rule="evenodd">
        <g id="Paywall-2-produtos-V2" transform="translate(-1098.000000, -1031.000000)" fill="#222222">
            <g id="PRODUTO" transform="translate(360.000000, 272.000000)">
                <g id="Group-9-Copy" transform="translate(500.000000, 60.000000)">
                    <g id="Group-17" transform="translate(0.000000, 431.000000)">
                        <g id="th" transform="translate(0.000000, 255.000000)">
                            <g id="Group-27" transform="translate(152.000000, 13.000000)">
                                <path d="M94.625,21.75 C95.246,21.75 95.75,21.246 95.75,20.625 C95.75,20.004 95.246,19.5 94.625,19.5 C94.004,19.5 93.5,20.004 93.5,20.625 C93.5,21.246 94.004,21.75 94.625,21.75 L94.625,21.75 Z M101.75,3.75 L87.5,3.75 L87.5,3 C87.5,2.172 88.172,1.5 89,1.5 L100.25,1.5 C101.078,1.5 101.75,2.172 101.75,3 L101.75,3.75 L101.75,3.75 Z M87.5,5.25 L101.75,5.25 L101.75,17.25 L87.5,17.25 L87.5,5.25 Z M101.75,21 C101.75,21.828 101.078,22.5 100.25,22.5 L89,22.5 C88.172,22.5 87.5,21.828 87.5,21 L87.5,18.75 L101.75,18.75 L101.75,21 L101.75,21 Z M100.25,0 L89,0 C87.34325,0 86,1.34325 86,3 L86,21 C86,22.65675 87.34325,24 89,24 L100.25,24 C101.90675,24 103.25,22.65675 103.25,21 L103.25,3 C103.25,1.34325 101.90675,0 100.25,0 L100.25,0 Z" id="tablet"></path>
                            </g>
                        </g>
                    </g>
                </g>
            </g>
        </g>
    </g>
</svg>