<?xml version="1.0" encoding="UTF-8" standalone="no"?>
<svg width="52px" height="36px" viewBox="0 0 52 36" version="1.1" xmlns="http://www.w3.org/2000/svg" xmlns:xlink="http://www.w3.org/1999/xlink">
    <!-- Generator: Sketch 3.8.3 (29802) - http://www.bohemiancoding.com/sketch -->
    <title>visa</title>
    <desc>Created with Sketch.</desc>
    <defs>
        <rect id="path-1" x="0" y="0" width="52" height="36" rx="3"></rect>
        <mask id="mask-2" maskContentUnits="userSpaceOnUse" maskUnits="objectBoundingBox" x="0" y="0" width="52" height="36" fill="white">
            <use xlink:href="#path-1"></use>
        </mask>
    </defs>
    <g id="Page-1" stroke="none" stroke-width="1" fill="none" fill-rule="evenodd">
        <g id="Paywall-2-produtos-V2" transform="translate(-718.000000, -1190.000000)">
            <g id="PRODUTO" transform="translate(360.000000, 272.000000)">
                <g id="Group-20" transform="translate(202.000000, 918.000000)">
                    <g id="Group-17" transform="translate(156.000000, 0.000000)">
                        <g id="visa">
                            <use id="Rectangle" stroke="#DEDEDE" mask="url(#mask-2)" stroke-width="2" fill="#FFFFFF" xlink:href="#path-1"></use>
                            <g id="Group-2" transform="translate(11.000000, 13.000000)">
                                <polyline id="Fill-3" fill="#26337A" points="10.7449954 9.77338028 12.2823641 0.236338028 14.7397926 0.236338028 13.2025645 9.77338028 10.7449954 9.77338028"></polyline>
                                <path d="M22.1164355,0.470422535 C21.6305438,0.279014085 20.8663571,0.0702816901 19.9143917,0.0702816901 C17.4847926,0.0702816901 15.7745438,1.36450704 15.7603479,3.21774648 C15.7448871,4.58859155 16.9807696,5.35309859 17.9124954,5.80873239 C18.8700829,6.27577465 19.1918088,6.57464789 19.1880138,6.99225352 C19.1814078,7.63098592 18.4236866,7.92366197 17.7171267,7.92366197 C16.7332558,7.92366197 16.2105392,7.77957746 15.4023594,7.42352113 L15.0862558,7.27169014 L14.7426037,9.40647887 C15.3156382,9.67211268 16.3779378,9.90267606 17.4804355,9.91478873 C20.0625346,9.91478873 21.7403157,8.63619718 21.7599931,6.6571831 C21.7688479,5.57014085 21.1140115,4.74619718 19.6958318,4.06591549 C18.837053,3.62366197 18.3099793,3.33070423 18.316023,2.88309859 C18.3165853,2.48676056 18.7612949,2.06239437 19.7238018,2.06239437 C20.5276244,2.04943662 21.1095138,2.23507042 21.5629378,2.42887324 L21.783606,2.53788732 L22.1164355,0.470422535" id="Fill-4" fill="#26337A"></path>
                                <path d="M25.3886498,6.39211268 C25.5923111,5.84394366 26.3676014,3.72633803 26.3676014,3.72633803 C26.353265,3.7515493 26.5701382,3.17394366 26.6942465,2.81647887 L26.8600991,3.63901408 C26.8600991,3.63901408 27.3316544,5.91535211 27.4287765,6.39211268 L25.3886498,6.39211268 L25.3886498,6.39211268 Z M28.4203779,0.246056338 L26.5212258,0.246056338 C25.9321682,0.246056338 25.4912535,0.414788732 25.2331982,1.03661972 L21.5837396,9.77676056 L24.1648548,9.77676056 C24.1648548,9.77676056 24.5859516,8.60098592 24.6815276,8.34295775 C24.9630553,8.34295775 27.4710829,8.34788732 27.8290714,8.34788732 C27.9027212,8.68070423 28.1283088,9.77676056 28.1283088,9.77676056 L30.4092028,9.77676056 L28.4203779,0.246056338 L28.4203779,0.246056338 Z" id="Fill-5" fill="#26337A"></path>
                                <path d="M8.68336406,0.244366197 L6.27808065,6.74633803 L6.020447,5.42464789 C5.5722235,3.90183099 4.17695392,2.25126761 2.61625346,1.42422535 L4.81675115,9.76507042 L7.41754378,9.76352113 L11.28753,0.244366197 L8.68336406,0.244366197" id="Fill-6" fill="#26337A"></path>
                                <path d="M4.04525576,0.237887324 L0.0823640553,0.237887324 L0.0497557604,0.435492958 C3.13334793,1.22549296 5.17361521,3.13239437 6.020447,5.42464789 L5.1592788,1.04253521 C5.01071429,0.438169014 4.57893548,0.259014085 4.04525576,0.237887324" id="Fill-7" fill="#ED982D"></path>
                            </g>
                        </g>
                    </g>
                </g>
            </g>
        </g>
    </g>
</svg>