<?xml version="1.0" encoding="UTF-8" standalone="no"?>
<svg width="96px" height="96px" viewBox="0 0 96 96" version="1.1" xmlns="http://www.w3.org/2000/svg" xmlns:xlink="http://www.w3.org/1999/xlink">
    <!-- Generator: Sketch 3.7.2 (28276) - http://www.bohemiancoding.com/sketch -->
    <title>ico-confirmation</title>
    <desc>Created with Sketch.</desc>
    <defs></defs>
    <g id="Page-1" stroke="none" stroke-width="1" fill="none" fill-rule="evenodd" fill-opacity="0.9">
        <g id="Sucesso" transform="translate(-140.000000, -310.000000)">
            <g id="ico-confirmation" transform="translate(140.000000, 310.000000)">
                <g id="Capa_1">
                    <g id="Group">
                        <path d="M47.99904,0 C21.53112,0 0,21.5328 0,48 C0,74.4672 21.53112,96 47.99904,96 C74.46696,96 96,74.4672 96,48 C96,21.5328 74.46696,0 47.99904,0 L47.99904,0 Z" id="Shape" fill="#7ED321"></path>
                        <path d="M40.626,57.03648 L30.62064,47.03328 C29.39112,45.8052 27.39936,45.80448 26.16984,47.034 C24.93984,48.264 24.93984,50.256 26.16984,51.48552 L38.40096,63.71472 C39.0156,64.32864 39.8208,64.63584 40.626,64.63584 C41.4312,64.63584 42.23856,64.32864 42.85296,63.71376 C42.85488,63.71112 69.828,36.73704 69.828,36.73704 C71.058,35.50824 71.058,33.5148 69.828,32.286 C68.59872,31.05648 66.60552,31.05648 65.37744,32.28624 L40.626,57.03648 Z" id="Shape" fill="#FFFFFF"></path>
                    </g>
                </g>
            </g>
        </g>
    </g>
</svg>