<?xml version="1.0" encoding="UTF-8" standalone="no"?>
<svg width="132px" height="21px" viewBox="0 0 132 21" version="1.1" xmlns="http://www.w3.org/2000/svg" xmlns:xlink="http://www.w3.org/1999/xlink">
    <!-- Generator: Sketch 3.7.2 (28276) - http://www.bohemiancoding.com/sketch -->
    <title>logo_oglobo copy 13</title>
    <desc>Created with Sketch.</desc>
    <defs></defs>
    <g id="Page-1" stroke="none" stroke-width="1" fill="none" fill-rule="evenodd">
        <g id="Sucesso" transform="translate(-122.000000, -38.000000)" fill="#FFFFFF">
            <g id="Group-2" transform="translate(0.000000, 20.000000)">
                <path d="M171.052539,28.1577596 C171.044808,30.919025 170.030435,33.2914872 168.009421,35.270572 C165.989954,37.2488944 163.579273,38.2353873 160.778151,38.2254767 C157.977028,38.2178531 155.573305,37.2244989 153.566982,35.2530377 C151.558338,33.2602305 150.558655,30.8748082 150.56716,28.0937214 C150.575665,25.3141594 151.580759,22.9355983 153.582445,20.9549888 C154.610734,19.9662088 155.720204,19.2290073 156.911628,18.7456715 C158.103052,18.2432768 159.413541,17.9947476 160.840776,18.0000841 C162.251001,18.0054206 163.613291,18.2958795 164.929965,18.8783221 C166.247413,19.4417056 167.379304,20.246757 168.329505,21.2972882 L164.665548,24.6166006 C164.227172,24.1286906 163.634166,23.7215908 162.884211,23.3930139 L161.869838,23.064437 C161.521148,22.9935376 161.174776,22.9546573 160.826086,22.9538949 C159.343184,22.9500831 158.09532,23.4517156 157.087133,24.4587922 C156.077399,25.4666312 155.56944,26.6833567 155.564801,28.1112557 C155.560162,29.518571 156.068895,30.7375835 157.091772,31.769818 C158.113103,32.7837559 159.348596,33.2922496 160.793614,33.2960614 C161.801028,33.3013979 162.734993,33.0498193 163.596282,32.5481869 C164.45989,32.0259707 165.120933,31.2704727 165.580958,30.2786432 L161.051072,30.2641584 L161.063443,26.204595 L170.948937,26.2350894 L171.028572,27.4784974 L171.052539,28.1577596 Z M189.531595,37.8000802 L187.237659,33.8098915 L179.438123,33.7862584 L179.485285,18.6229317 L174.377084,18.6069221 L174.318324,37.7505268 L189.531595,37.8000802 Z M208.839467,28.2972713 C208.830189,31.0592991 207.815816,33.430999 205.794803,35.4100837 C203.793891,37.3891685 201.383209,38.3748991 198.564305,38.3665131 C195.746947,38.3573648 193.341677,37.3594365 191.35159,35.3673916 C189.362275,33.3745844 188.371097,30.997548 188.380375,28.2362826 C188.388879,25.4384239 189.393974,23.0583382 191.394886,21.09755 C193.397344,19.1169405 195.807252,18.1312099 198.62693,18.1395959 C201.426506,18.1487442 203.831775,19.1481973 205.838872,21.1417669 C207.846742,23.1315247 208.846425,25.5161846 208.839467,28.2972713 Z M203.84028,28.2843112 C203.845692,26.8930055 203.326908,25.6808542 202.287021,24.6486197 C201.246362,23.6179099 200.020146,23.0987432 198.61224,23.0949314 C197.182686,23.0911196 195.954151,23.5942768 194.925861,24.5990663 C193.898345,25.6084301 193.381108,26.8243932 193.378015,28.2507674 C193.373376,29.6763793 193.873604,30.897679 194.877153,31.9116168 C195.880702,32.9064957 197.114649,33.4066035 198.579768,33.4104152 C200.007776,33.4165141 201.235538,32.9148817 202.263827,31.9062803 C203.310672,30.899966 203.836414,29.6901018 203.84028,28.2843112 Z M229.668898,32.4757627 C229.662713,33.9745611 229.000896,35.2545624 227.67881,36.3165289 C226.377599,37.3594365 224.754757,37.8770785 222.814924,37.8717419 L212.597748,37.8404852 L212.658054,18.7235631 L222.87291,18.7548199 C224.739294,18.7609187 226.147973,19.2595017 227.097401,20.2559053 C227.91926,21.1066983 228.32671,22.1740014 228.323617,23.4562897 C228.319751,24.2682024 228.144246,25.0160769 227.794782,25.7029626 C227.388879,26.3860366 226.884012,26.8251555 226.280182,27.0248937 C227.303059,27.4243699 228.107908,27.9961394 228.690863,28.7363903 C229.348041,29.6413108 229.673537,30.8870059 229.668898,32.4757627 Z M217.862899,22.6390405 L217.855168,25.2379234 L221.672209,25.2493588 C221.982242,25.2493588 222.277585,25.1167083 222.552053,24.8460707 C222.680396,24.736291 222.772401,24.6120264 222.828068,24.4664158 C222.882961,24.3223299 222.928577,24.1530861 222.967235,23.9556351 C222.967235,23.6476419 222.831933,23.357183 222.556692,23.0865455 C222.338664,22.7968489 222.046413,22.6504759 221.679167,22.6497136 L217.862899,22.6390405 L217.862899,22.6390405 Z M217.842024,29.4362362 L217.82888,33.7671994 L222.085844,33.7809219 C222.671891,33.7824466 223.183717,33.5682236 223.624412,33.1336788 C224.065107,32.7037082 224.287001,32.1997887 224.289321,31.6211579 C224.290094,31.0440519 224.072839,30.537083 223.63369,30.1033006 C223.250981,29.6679934 222.739929,29.4499586 222.09976,29.4499586 L217.842024,29.4362362 Z M250.457686,35.5457837 C248.456001,37.5241061 246.046093,38.5098367 243.226415,38.499926 C240.406737,38.4915401 238.003014,37.4936117 236.0137,35.5008045 C234.024385,33.5079972 233.03398,31.1317233 233.041712,28.3704578 C233.050989,25.5725992 234.055311,23.1925134 236.057769,21.2302005 C238.059454,19.2503534 240.469363,18.2646228 243.288267,18.2752958 C246.090162,18.2821571 248.493112,19.2823725 250.500209,21.2751797 C252.510399,23.2664623 253.507762,25.6511222 253.499258,28.4322089 C253.491526,31.1949991 252.477927,33.5628871 250.457686,35.5457837 Z M248.629736,28.4177241 C248.634375,27.0271807 248.116364,25.8150294 247.076478,24.7827949 C246.035818,23.7536099 244.811149,23.2336808 243.399377,23.229869 C241.972142,23.2260572 240.745153,23.7276896 239.716864,24.7340039 C238.688575,25.7418429 238.170564,26.9608555 238.166699,28.385705 C238.16206,29.8113169 238.663061,31.0303295 239.666609,32.0465544 C240.669385,33.0437204 241.904878,33.5415411 243.368451,33.5445905 C244.795686,33.5484023 246.024221,33.0490569 247.05483,32.0404556 C248.100901,31.0341413 248.625097,29.8250394 248.629736,28.4177241 Z M142.457591,28.4322089 C142.449086,31.1949991 141.435487,33.5628871 139.416792,35.5457837 C137.414334,37.5241061 135.004426,38.5098367 132.184748,38.499926 C129.365071,38.4915401 126.961348,37.4936117 124.972033,35.5008045 C122.982718,33.5079972 121.992313,31.1317233 122.000045,28.3704578 C122.00855,25.5725992 123.013644,23.1925134 125.016103,21.2302005 C127.017788,19.2503534 129.427696,18.2646228 132.2466,18.2752958 C135.048496,18.2821571 137.452218,19.2823725 139.458542,21.2751797 C141.467959,23.2664623 142.466869,25.6511222 142.457591,28.4322089 Z M137.45995,28.4177241 C137.465362,27.0271807 136.946578,25.8150294 135.907465,24.7827949 C134.866805,23.7536099 133.641363,23.2336808 132.230364,23.229869 C130.803129,23.2260572 129.576141,23.7276896 128.547078,24.7340039 C127.518789,25.7418429 127.001552,26.9608555 126.997686,28.385705 C126.993047,29.8113169 127.494048,31.0303295 128.497597,32.0465544 C129.500372,33.0437204 130.735865,33.5415411 132.199438,33.5445905 C133.626673,33.5484023 134.855208,33.0490569 135.885044,32.0404556 C136.931889,31.0341413 137.456084,29.8250394 137.45995,28.4177241 L137.45995,28.4177241 Z" id="logo_oglobo-copy-13"></path>
            </g>
        </g>
    </g>
</svg>