<?xml version="1.0" encoding="UTF-8" standalone="no"?>
<svg width="125px" height="20px" viewBox="0 0 125 20" version="1.1" xmlns="http://www.w3.org/2000/svg" xmlns:xlink="http://www.w3.org/1999/xlink">
    <!-- Generator: Sketch 3.8.2 (29753) - http://www.bohemiancoding.com/sketch -->
    <title>logo-oglobo</title>
    <desc>Created with Sketch.</desc>
    <defs></defs>
    <g id="Page-1" stroke="none" stroke-width="1" fill="none" fill-rule="evenodd">
        <g id="barreira-final" transform="translate(-481.000000, -16.000000)" fill="#FFFFFF">
            <g id="Group-15">
                <g id="logo-oglobo" transform="translate(481.000000, 16.000000)">
                    <path d="M16.7260029,16.9916443 C14.8325573,18.9259594 12.5458453,19.8800289 9.8114255,19.9065659 C7.13055158,19.9065659 4.84258596,18.9523159 2.89810172,16.9916443 C1.00519341,15.0571488 0.0589183381,12.7514958 0.0327722063,10.0221529 C0.0327722063,7.29208789 0.978330946,4.96043945 2.89810172,3.02612441 C4.79083095,1.09162884 7.07825931,0.137017743 9.8114255,0.111202806 C12.4928367,0.111202806 14.780265,1.06527233 16.7260029,3.02612441 C18.6450573,4.96043945 19.5913324,7.29208789 19.6174785,10.0221529 C19.6174785,12.7249587 18.6704871,15.0302507 16.7260029,16.9916443 L16.7260029,16.9916443 Z M13.3345272,6.470523 C12.3350645,5.46446255 11.1785458,4.96043945 9.8114255,4.96043945 C8.44484241,4.96043945 7.28760745,5.43738395 6.28957736,6.44470807 C5.31643983,7.42459253 4.84258596,8.61749536 4.81697708,10.0221529 C4.81697708,11.3997318 5.2902937,12.5924541 6.2627149,13.5997782 C7.20916905,14.5538477 8.39183381,15.0302507 9.8114255,15.0571488 C11.1785458,15.0571488 12.3350645,14.5803848 13.3345272,13.5728801 C14.3332736,12.5924541 14.8325573,11.4259078 14.8325573,10.0221529 C14.8325573,8.67020838 14.3332736,7.50438416 13.3345272,6.470523 L13.3345272,6.470523 Z" id="Fill-1"></path>
                    <path d="M44.6172994,16.9652878 C42.698245,18.8996028 40.4113539,19.8536724 37.7030802,19.8800289 C35.0218481,19.8800289 32.734957,18.9259594 30.7890401,16.9916443 C28.870702,15.0571488 27.9237106,12.7249587 27.8981017,9.99561584 C27.8981017,7.29208789 28.8438395,4.96043945 30.7634312,2.99958737 C31.7360315,2.04551785 32.7879656,1.33046214 33.9444842,0.82625851 C35.0746777,0.350036105 36.3098138,0.111202806 37.7030802,0.0848462967 C39.0442335,0.0848462967 40.3321991,0.350036105 41.6208811,0.932587167 C42.8821633,1.46314731 43.9593481,2.23109655 44.8801934,3.29059212 L41.3839542,6.55031463 C40.9623926,6.07355065 40.4113539,5.67603672 39.6751433,5.3581339 L38.702543,5.04023107 C38.3871777,4.98679596 38.0716332,4.96043945 37.7030802,4.93390241 C36.2842049,4.93390241 35.1002865,5.41102744 34.1276862,6.41780999 C33.1819484,7.39895812 32.7088109,8.59095832 32.6819484,9.99561584 C32.6819484,11.3739169 33.155086,12.5659171 34.1545487,13.5728801 C35.1269699,14.5538477 36.3098138,15.0302507 37.7030802,15.0571488 C38.6502507,15.0571488 39.5442335,14.8183155 40.3853868,14.3142923 C41.1994986,13.8117134 41.8309456,13.0693986 42.2773997,12.0889726 L37.9400072,12.0889726 L37.9400072,8.11401382 L47.4047278,8.11401382 L47.4826289,9.33309263 L47.5093123,9.99561584 C47.5093123,12.6986022 46.5630372,15.0038942 44.6172994,16.9652878" id="Fill-2"></path>
                    <polyline id="Fill-3" points="64.5691261 19.3765473 50.0055516 19.3765473 50.0055516 0.640860326 54.8945201 0.640860326 54.8945201 15.4808387 62.3610315 15.4808387 64.5691261 19.3765473"></polyline>
                    <path d="M80.0261461,16.9916443 C78.1334169,18.9259594 75.8465258,19.8800289 73.112106,19.9065659 C70.4306948,19.9065659 68.1439828,18.9523159 66.1987822,16.9916443 C64.306053,15.0571488 63.3590616,12.7514958 63.3334527,10.0221529 C63.3334527,7.29208789 64.2791905,4.96043945 66.1987822,3.02612441 C68.0916905,1.09162884 70.3782235,0.137017743 73.112106,0.111202806 C75.7935172,0.111202806 78.0816619,1.06527233 80.0261461,3.02612441 C81.9457378,4.96043945 82.8914756,7.29208789 82.9183381,10.0221529 C82.9183381,12.7249587 81.9711676,15.0302507 80.0261461,16.9916443 L80.0261461,16.9916443 Z M76.6346705,6.470523 C75.6359241,5.46446255 74.4794054,4.96043945 73.112106,4.96043945 C71.7455229,4.96043945 70.5898997,5.43738395 69.5897206,6.44470807 C68.6171203,7.42459253 68.1439828,8.61749536 68.1183739,10.0221529 C68.1183739,11.3997318 68.5916905,12.5924541 69.5641117,13.5997782 C70.5100287,14.5538477 71.6925143,15.0302507 73.112106,15.0571488 C74.4794054,15.0571488 75.6359241,14.5803848 76.6346705,13.5728801 C77.6339542,12.5924541 78.1334169,11.4259078 78.1334169,10.0221529 C78.1334169,8.67020838 77.6339542,7.50438416 76.6346705,6.470523 L76.6346705,6.470523 Z" id="Fill-4"></path>
                    <path d="M100.845989,17.8130287 C99.6110315,18.8198112 98.0592765,19.3231122 96.1932307,19.3496493 L86.4131447,19.3496493 L86.4131447,0.640860326 L96.1932307,0.640860326 C97.980659,0.640860326 99.3209169,1.11798535 100.241225,2.09841139 C101.029728,2.91979575 101.424427,3.95347638 101.424427,5.22544873 C101.424427,6.02065711 101.266834,6.73571281 100.924427,7.42459253 C100.557486,8.08765731 100.084169,8.5118888 99.4786891,8.72346297 C100.452006,9.09443986 101.214542,9.65045389 101.792264,10.3933103 C102.42389,11.2675882 102.738718,12.4868475 102.738718,14.0496441 C102.738718,15.5079173 102.107808,16.7535331 100.845989,17.8130287 L100.845989,17.8130287 Z M91.4083095,7.00108314 L95.0630372,7.00108314 C95.3522564,7.00108314 95.6146132,6.86839798 95.9038324,6.60302765 C96.008596,6.49760161 96.0879298,6.39145348 96.1663682,6.23223128 C96.2193768,6.09972664 96.2464183,5.94086548 96.2979943,5.72893027 C96.2979943,5.43738395 96.1663682,5.17201362 95.9038324,4.8811894 C95.6932307,4.61581906 95.4308739,4.48403652 95.0630372,4.45695791 L91.4083095,4.45695791 L91.4083095,7.00108314 L91.4083095,7.00108314 Z M91.4083095,15.3481535 L95.4831662,15.3481535 C96.0349212,15.3481535 96.508596,15.1363988 96.9548711,14.7128894 C97.3758954,14.2888385 97.5866762,13.8117134 97.5866762,13.2284403 C97.5866762,12.6713431 97.3758954,12.1945791 96.9548711,11.7447132 C96.5879298,11.3203012 96.1133596,11.1085465 95.4831662,11.1085465 L91.4083095,11.1085465 L91.4083095,15.3481535 L91.4083095,15.3481535 Z" id="Fill-5"></path>
                    <path d="M122.034384,16.9916443 C120.141476,18.9259594 117.854943,19.8800289 115.12106,19.9065659 C112.438754,19.9065659 110.151504,18.9523159 108.206483,16.9916443 C106.313395,15.0571488 105.36712,12.7514958 105.340974,10.0221529 C105.340974,7.29208789 106.287428,4.96043945 108.206483,3.02612441 C110.099033,1.09162884 112.385745,0.137017743 115.12106,0.111202806 C117.800322,0.111202806 120.089183,1.06527233 122.034384,3.02612441 C123.953259,4.96043945 124.899534,7.29208789 124.92586,10.0221529 C124.92586,12.7249587 123.979405,15.0302507 122.034384,16.9916443 L122.034384,16.9916443 Z M118.642729,6.470523 C117.643266,5.46446255 116.486927,4.96043945 115.12106,4.96043945 C113.753761,4.96043945 112.596526,5.43738395 111.597242,6.44470807 C110.624821,7.42459253 110.151504,8.61749536 110.125358,10.0221529 C110.125358,11.3997318 110.598496,12.5924541 111.571096,13.5997782 C112.518087,14.5538477 113.700752,15.0302507 115.12106,15.0571488 C116.486927,15.0571488 117.643266,14.5803848 118.642729,13.5728801 C119.641476,12.5924541 120.141476,11.4259078 120.141476,10.0221529 C120.141476,8.67020838 119.641476,7.50438416 118.642729,6.470523 L118.642729,6.470523 Z" id="Fill-6"></path>
                </g>
            </g>
        </g>
    </g>
</svg>